<?xml version="1.0" standalone="no"?>
<!DOCTYPE svg PUBLIC "-//W3C//DTD SVG 20010904//EN"
 "http://www.w3.org/TR/2001/REC-SVG-20010904/DTD/svg10.dtd">
<svg version="1.0" xmlns="http://www.w3.org/2000/svg"
 width="2083.000000pt" height="2083.000000pt" viewBox="0 0 2083.000000 2083.000000"
 preserveAspectRatio="xMidYMid meet">
<metadata>
Created by potrace 1.11, written by Peter Selinger 2001-2013
</metadata>
<g transform="translate(0.000000,2083.000000) scale(0.100000,-0.100000)"
fill="#000000" stroke="none">
<path d="M10387 14463 c-1 0 -121 -4 -267 -7 -146 -4 -296 -8 -335 -11 -38 -2
-115 -7 -170 -10 -55 -3 -113 -8 -130 -10 -16 -2 -70 -7 -120 -10 -49 -3 -103
-7 -120 -9 -16 -2 -61 -7 -100 -10 -85 -7 -201 -20 -285 -31 -19 -2 -60 -7
-90 -10 -30 -3 -64 -7 -75 -9 -11 -2 -40 -7 -65 -10 -77 -10 -444 -65 -475
-71 -16 -3 -88 -17 -160 -30 -71 -13 -148 -27 -170 -31 -22 -3 -83 -15 -135
-26 -52 -10 -106 -22 -120 -24 -14 -3 -33 -7 -42 -10 -9 -3 -25 -7 -35 -9
-173 -36 -341 -75 -533 -125 -129 -33 -243 -63 -253 -65 -10 -2 -27 -7 -37
-10 -10 -3 -27 -8 -37 -10 -10 -2 -88 -25 -173 -50 -85 -25 -162 -48 -170 -50
-48 -11 -449 -141 -615 -199 -793 -276 -891 -315 -1375 -558 -306 -153 -461
-236 -835 -448 -87 -49 -381 -223 -432 -256 -29 -19 -58 -34 -63 -34 -6 0 -10
-4 -10 -10 0 -5 -5 -10 -11 -10 -26 0 -604 -379 -934 -613 -147 -104 -562
-412 -620 -459 -11 -9 -90 -72 -175 -139 -158 -125 -269 -216 -400 -328 -112
-96 -147 -127 -235 -205 -224 -199 -599 -555 -584 -556 3 0 15 8 27 18 74 62
332 251 537 394 77 53 145 101 150 105 9 7 302 199 455 298 206 133 610 379
815 495 106 59 314 174 390 215 50 26 110 59 135 73 78 44 741 376 850 427 58
26 141 65 185 85 144 67 216 100 220 100 3 0 28 11 57 24 172 80 653 274 963
389 129 48 347 133 380 147 20 9 84 35 235 97 287 117 781 285 1185 403 183
53 505 140 519 140 2 0 -29 -66 -69 -147 -96 -193 -115 -236 -170 -389 -82
-225 -160 -538 -181 -719 -3 -33 -8 -62 -9 -65 -2 -3 -6 -45 -10 -95 -4 -49
-8 -101 -11 -115 -5 -32 -5 -424 1 -470 2 -19 6 -69 9 -110 4 -41 8 -86 10
-100 3 -14 10 -59 15 -100 6 -41 13 -86 16 -100 3 -14 8 -41 11 -60 12 -66 63
-269 90 -357 16 -48 28 -90 29 -93 1 -10 38 -106 82 -215 150 -372 388 -747
667 -1055 296 -324 647 -591 1041 -792 94 -48 269 -127 295 -133 8 -2 35 -12
60 -23 25 -10 77 -29 115 -41 39 -13 77 -25 85 -28 19 -7 9 -5 170 -47 74 -19
151 -38 170 -41 19 -3 42 -8 50 -10 8 -2 31 -6 50 -9 19 -2 62 -9 95 -15 226
-39 773 -49 942 -17 11 2 46 7 79 10 32 4 68 9 79 12 11 2 34 6 50 8 78 9 352
76 482 117 238 76 592 239 788 363 302 191 524 375 766 632 53 57 195 226 224
268 11 16 29 40 40 55 124 159 298 467 399 705 78 182 185 519 210 661 3 17 7
42 10 58 17 80 42 254 53 357 10 98 10 553 0 655 -7 71 -28 223 -42 310 -29
172 -136 549 -190 670 -8 17 -27 64 -44 105 -44 107 -48 111 -57 64 -4 -21
-20 -75 -36 -119 -109 -299 -320 -566 -583 -737 -391 -253 -883 -304 -1318
-136 -347 133 -634 401 -795 738 -38 81 -86 211 -96 262 -2 13 -9 46 -16 73
-6 28 -14 68 -16 90 -10 74 -12 320 -4 365 4 25 11 65 14 90 3 25 10 58 14 74
l8 30 130 -2 c125 -2 218 -6 354 -17 36 -3 99 -7 140 -10 187 -13 216 -15 249
-19 61 -8 143 -18 189 -22 25 -2 63 -6 86 -9 22 -3 59 -8 81 -11 104 -13 124
-15 175 -24 30 -5 73 -12 95 -15 101 -14 318 -50 355 -59 14 -3 36 -8 50 -10
23 -4 97 -19 160 -31 14 -3 59 -12 100 -20 101 -19 119 -23 138 -29 9 -3 28
-7 42 -10 19 -3 417 -103 563 -141 9 -3 25 -7 35 -9 151 -38 675 -203 882
-278 91 -33 172 -61 180 -63 99 -25 837 -328 1135 -465 39 -18 95 -44 125 -57
211 -96 696 -343 1055 -538 79 -42 422 -240 533 -306 40 -24 80 -48 90 -54 34
-20 240 -148 367 -228 195 -123 590 -388 593 -398 2 -5 8 -9 12 -9 8 0 80 -50
210 -143 21 -15 142 -103 239 -174 48 -35 287 -214 316 -237 113 -89 342 -272
351 -280 6 -6 52 -44 103 -85 50 -41 91 -78 91 -82 0 -8 -458 -354 -556 -419
-12 -8 -83 -57 -156 -109 -164 -116 -668 -450 -840 -557 -70 -43 -147 -91
-170 -106 -24 -15 -49 -31 -57 -35 -15 -7 -264 -155 -291 -173 -8 -5 -31 -18
-50 -28 -19 -11 -75 -43 -125 -72 -91 -53 -205 -118 -305 -172 -30 -17 -102
-56 -160 -88 -246 -134 -713 -373 -925 -472 -234 -110 -384 -178 -389 -178 -3
0 -37 -15 -78 -34 -40 -19 -138 -62 -218 -96 -80 -34 -158 -68 -175 -76 -16
-7 -88 -36 -160 -64 -71 -28 -150 -59 -175 -70 -255 -107 -952 -347 -1330
-458 -290 -85 -686 -191 -809 -217 -9 -2 -54 -13 -101 -24 -47 -11 -97 -22
-110 -25 -14 -2 -68 -14 -120 -26 -52 -12 -106 -24 -120 -26 -88 -16 -208 -38
-290 -54 -94 -19 -207 -38 -265 -45 -16 -2 -73 -10 -125 -19 -52 -8 -115 -17
-140 -21 -25 -3 -56 -8 -70 -10 -14 -2 -50 -6 -80 -10 -30 -4 -66 -8 -80 -10
-14 -2 -56 -6 -93 -10 -37 -3 -76 -8 -85 -10 -9 -1 -55 -6 -102 -10 -47 -4
-92 -9 -100 -10 -9 -2 -63 -6 -120 -10 -58 -3 -127 -8 -155 -10 -117 -9 -277
-18 -370 -20 -139 -5 -643 -5 -740 0 -216 9 -637 41 -675 50 -8 2 -44 7 -80
10 -36 4 -76 8 -90 10 -14 2 -50 6 -80 10 -69 8 -78 10 -265 40 -101 17 -118
19 -190 31 -22 3 -119 22 -215 41 -96 19 -188 37 -205 40 -136 22 -770 185
-1050 269 -392 118 -1068 352 -1240 429 -107 48 -492 206 -637 261 -95 36
-182 70 -193 75 -11 5 -76 31 -145 58 -569 223 -1002 418 -1685 757 -558 276
-799 403 -1205 632 -63 36 -128 73 -145 82 -16 8 -64 36 -105 60 -41 24 -84
48 -95 54 -15 9 -288 172 -600 359 -11 7 -33 21 -50 32 -36 25 -65 42 -85 51
-8 4 -17 10 -20 13 -3 3 -13 11 -22 16 -41 24 -185 116 -338 218 -194 129
-250 165 -230 145 66 -66 414 -358 635 -534 82 -65 156 -125 165 -131 70 -57
367 -282 505 -382 269 -197 368 -268 405 -293 14 -10 45 -32 70 -49 192 -137
690 -469 900 -600 74 -46 137 -87 138 -91 2 -5 7 -8 11 -8 4 0 79 -43 167 -96
271 -165 787 -464 799 -464 2 0 26 -13 52 -28 27 -16 98 -55 158 -87 61 -32
142 -75 180 -95 290 -156 670 -338 830 -400 61 -23 130 -50 155 -60 169 -69
730 -273 975 -355 299 -100 812 -251 1055 -310 8 -2 100 -24 203 -49 104 -25
199 -48 210 -50 12 -3 123 -25 247 -50 124 -25 242 -48 264 -52 21 -3 48 -7
59 -10 12 -2 39 -6 62 -9 22 -3 65 -10 95 -15 145 -25 232 -38 300 -45 25 -3
61 -7 80 -10 41 -5 94 -11 170 -20 30 -4 66 -8 80 -10 36 -5 131 -13 240 -20
52 -4 118 -9 145 -11 269 -24 1103 -24 1360 1 22 2 87 6 145 10 179 11 274 19
455 41 28 3 66 7 85 9 61 5 174 17 190 20 8 2 51 8 95 14 44 7 96 14 115 17
19 3 51 7 70 10 19 2 46 6 60 9 14 2 48 7 75 10 28 4 57 8 65 10 8 2 31 7 50
10 19 3 46 8 60 10 57 12 166 32 215 40 17 3 53 10 80 16 28 5 66 12 85 15 19
3 72 14 117 25 44 10 96 21 114 24 18 3 35 7 38 9 3 2 24 7 46 10 22 4 54 11
70 16 17 5 41 11 55 14 35 5 454 111 542 137 40 11 82 22 92 24 122 27 743
222 1036 327 265 94 793 294 865 328 11 5 130 56 265 114 233 99 474 207 695
311 186 87 827 412 860 435 6 4 60 33 120 65 61 32 148 80 194 107 46 26 85
48 87 48 3 0 170 94 194 110 8 5 44 26 80 46 395 225 1025 626 1465 932 154
107 518 371 565 409 8 7 58 44 110 84 52 40 113 86 135 103 72 56 439 360 475
393 l35 32 -32 28 c-17 15 -79 73 -138 128 -59 55 -113 105 -119 110 -6 6 -34
30 -62 55 -356 320 -825 688 -1382 1087 -12 9 -73 51 -135 94 -61 43 -116 82
-122 86 -11 9 -59 41 -86 58 -9 5 -90 59 -180 119 -141 93 -462 299 -566 362
-226 136 -670 394 -678 394 -2 0 -36 19 -77 42 -139 79 -454 244 -658 345
-201 99 -479 233 -485 233 -2 0 -46 20 -97 44 -357 168 -1020 428 -1498 589
-202 68 -274 91 -525 165 -178 53 -528 147 -588 158 -17 2 -33 7 -36 9 -7 4
-301 74 -341 81 -14 2 -79 15 -145 29 -66 13 -156 31 -200 39 -44 9 -91 18
-105 21 -13 2 -40 7 -60 10 -20 3 -45 7 -55 9 -11 2 -42 7 -70 11 -76 10 -115
17 -255 40 -14 2 -83 11 -155 20 -71 8 -143 17 -160 20 -16 2 -61 7 -98 10
-37 4 -77 8 -88 10 -10 2 -56 7 -102 10 -45 4 -100 8 -122 10 -22 2 -87 7
-145 10 -58 4 -130 9 -160 11 -88 7 -718 22 -723 17z"/>
</g>
</svg>
