<?xml version="1.0" encoding="utf-8"?>
<!-- Generator: Adobe Illustrator 19.0.0, SVG Export Plug-In . SVG Version: 6.00 Build 0)  -->
<svg version="1.1" id="Layer_1" xmlns="http://www.w3.org/2000/svg" xmlns:xlink="http://www.w3.org/1999/xlink" x="0px" y="0px"
	 viewBox="600 -325 1500 800" enable-background="new 600 -325 1500 800" xml:space="preserve">
<g id="Layer_1_1_">
</g>
<g id="Layer_3">
</g>
<rect x="600" y="75" fill="#009BDA" width="1500" height="400"/>
<g>
	<g>
		<path fill="#009BDA" d="M1269.6-89.6H1255c-0.1-0.7-0.1-1.3-0.1-1.6c-0.3-4.4-1.3-7.2-3-8.4c-1.6-1.1-5.4-1.7-11.4-1.7
			c-7.1,0-11.7,0.7-13.9,2c-2.2,1.3-3.3,4.1-3.3,8.3c0,5,0.9,8,2.7,9c1.8,1,7.6,1.8,17.6,2.3c11.8,0.7,19.4,2.3,22.8,5
			c3.4,2.7,5.2,8.3,5.2,16.8c0,10.5-2,17.3-6.1,20.3c-4,3.1-13,4.6-26.8,4.6c-12.4,0-20.7-1.5-24.7-4.5c-4.1-3-6.1-9.1-6.1-18.3
			l-0.1-2.9h14.6l0.1,1.7c0,5.5,1,8.9,2.9,10.1c1.9,1.2,7.2,1.8,15.8,1.8c6.7,0,11-0.7,12.8-2.1c1.9-1.4,2.8-4.7,2.8-9.9
			c0-3.8-0.7-6.3-2.1-7.6c-1.4-1.3-4.4-2-9.1-2.3l-8.3-0.5c-12.5-0.7-20.5-2.5-23.9-5.2c-3.5-2.7-5.2-8.6-5.2-17.6
			c0-9.2,2.1-15.4,6.3-18.4c4.2-3.1,12.5-4.6,25.1-4.6c11.9,0,19.9,1.4,24,4.2c4.1,2.8,6.2,8.3,6.2,16.5V-89.6z"/>
		<path fill="#009BDA" d="M1295.3-72.9h-13.5c0-6.6,1.5-11.1,4.6-13.3c3.1-2.2,9.2-3.4,18.3-3.4c9.9,0,16.7,1.4,20.2,4.1
			c3.5,2.7,5.3,8,5.3,15.7v36.1h-13.2l0.6-7.6l-0.3-0.1c-2.5,5.5-8.4,8.3-17.6,8.3c-13.4,0-20.1-5.7-20.1-17.1
			c0-11.5,6.8-17.2,20.5-17.2c9.1,0,14.7,2.1,16.7,6.3h0.2v-9c0-4.3-0.8-7.2-2.3-8.6c-1.5-1.4-4.6-2.1-9.3-2.1
			C1298.6-80.7,1295.3-78.1,1295.3-72.9z M1304.1-58.4c-7.5,0-11.2,2.6-11.2,7.7c0,3.6,0.8,5.9,2.3,7.1c1.5,1.1,4.8,1.7,9.7,1.7
			c8.1,0,12.1-2.7,12.1-8.2C1317-55.6,1312.7-58.4,1304.1-58.4z"/>
		<path fill="#009BDA" d="M1356.6-112.6v78.9h-13.2v-78.9H1356.6z"/>
		<path fill="#009BDA" d="M1418.7-88.9v55.3h-13.2l0.8-9.5l-0.2-0.1c-2.6,6.8-8.5,10.2-17.8,10.2c-12.5,0-18.8-6.3-18.8-18.8v-37.1
			h13.2V-55c0,4.7,0.7,7.8,2,9.3c1.3,1.5,4,2.2,8.1,2.2c8.5,0,12.7-5.1,12.7-15.3v-30.2H1418.7z"/>
		<path fill="#009BDA" d="M1481.3-112.6v78.9h-12.9l0.5-8.9l-0.2-0.1c-2.6,6.4-8.2,9.7-16.9,9.7c-8.8,0-14.5-2-17.4-6
			c-2.8-4-4.3-12.1-4.3-24.3c0-9.9,1.5-16.7,4.6-20.6c3-3.8,8.5-5.8,16.2-5.8c9,0,14.6,2.9,16.9,8.6l0.2-0.1v-31.5H1481.3z
			 M1455.3-79.1c-4.9,0-8.1,1-9.6,3.1c-1.5,2.1-2.2,6.6-2.2,13.6c0,8,0.7,13.2,2.2,15.5c1.5,2.3,4.7,3.5,9.8,3.5
			c5.3,0,8.7-1.1,10.2-3.4c1.5-2.3,2.2-7.5,2.2-15.7c0-6.8-0.8-11.2-2.5-13.4C1463.9-78.1,1460.5-79.1,1455.3-79.1z"/>
		<path fill="#009BDA" d="M1508.1-72.9h-13.5c0-6.6,1.5-11.1,4.6-13.3c3.1-2.2,9.2-3.4,18.3-3.4c9.9,0,16.7,1.4,20.2,4.1
			c3.5,2.7,5.3,8,5.3,15.7v36.1h-13.2l0.6-7.6l-0.3-0.1c-2.5,5.5-8.4,8.3-17.6,8.3c-13.4,0-20.1-5.7-20.1-17.1
			c0-11.5,6.8-17.2,20.5-17.2c9.1,0,14.7,2.1,16.7,6.3h0.2v-9c0-4.3-0.8-7.2-2.3-8.6c-1.5-1.4-4.6-2.1-9.3-2.1
			C1511.4-80.7,1508.1-78.1,1508.1-72.9z M1516.9-58.4c-7.5,0-11.2,2.6-11.2,7.7c0,3.6,0.8,5.9,2.3,7.1c1.5,1.1,4.8,1.7,9.7,1.7
			c8.1,0,12.1-2.7,12.1-8.2C1529.8-55.6,1525.5-58.4,1516.9-58.4z"/>
		<path fill="#009BDA" d="M1556.1-33.7v-78.9h13.2V-81l0.3,0.1c2.3-5.8,8-8.7,17.3-8.7c7.9,0,13.4,1.9,16.3,5.8
			c2.9,3.9,4.4,11.1,4.4,21.5c0,11.4-1.5,19.2-4.5,23.2c-3,4-8.7,6-17.2,6c-8.6,0-14.2-3.1-16.9-9.4h-0.3l0.6,8.7H1556.1z
			 M1582.4-79.2c-8.6,0-12.9,5.3-12.9,16c0,8.4,0.7,13.7,2.2,16.1c1.5,2.4,4.8,3.6,9.9,3.6c5.4,0,8.9-1.1,10.3-3.3
			c1.5-2.2,2.3-7.2,2.3-14.9c0-7.2-0.7-12-2.2-14.2C1590.6-78.1,1587.4-79.2,1582.4-79.2z"/>
		<path fill="#009BDA" d="M1632-112.6v78.9h-13.2v-78.9H1632z"/>
		<path fill="#009BDA" d="M1680.6-51.4h13.3v2.1c0,10.8-8.1,16.2-24.3,16.2c-11,0-18.2-1.9-21.6-5.6c-3.4-3.7-5.1-11.7-5.1-23.8
			c0-10.8,1.8-18,5.3-21.7c3.5-3.7,10.5-5.6,20.8-5.6c9.9,0,16.5,1.8,19.8,5.4c3.4,3.6,5,10.7,5,21.2v4.1h-37.4
			c-0.1,1.2-0.1,2-0.1,2.4c0,5.4,0.8,9.1,2.5,10.9c1.7,1.8,5,2.7,10,2.7c4.9,0,8-0.5,9.5-1.6C1679.9-45.6,1680.6-47.9,1680.6-51.4z
			 M1680.7-67l-0.1-2.2c0-4.4-0.8-7.3-2.3-8.6c-1.5-1.3-4.8-2-9.9-2c-4.9,0-8.1,0.8-9.6,2.4c-1.5,1.6-2.2,5-2.2,10.4H1680.7z"/>
	</g>
	<path fill="#2E2A25" d="M1238.5-211.6v70.7h-8.9v-70.7H1208v-8.3h60.1v8.3H1238.5z"/>
	<path fill="#2E2A25" d="M1267.3-196.2v55.3h-8.1v-55.3H1267.3z"/>
	<path fill="#2E2A25" d="M1296-196.2v60.4v2.4c0,9.1-3.8,13.7-11.4,13.7c-1.1,0-2.4-0.1-3.9-0.4v-5.7c0.5-0.1,0.8-0.1,0.9-0.1l1-0.1
		l3.4-1.1c1.2-1,1.9-3.9,1.9-8.7v-60.4H1296z M1296-219.8v9.1h-8.1v-9.1H1296z"/>
	<path fill="#2E2A25" d="M1355.6-196.2v55.3h-8.1l0.6-7.2l-0.2-0.2c-2.8,5.5-8.8,8.2-18,8.2c-12.9,0-19.4-6.4-19.4-19.3v-36.8h8.1
		v36.8c0,5,0.8,8.4,2.5,10.1c1.7,1.7,4.9,2.5,9.8,2.5c6.4,0,10.7-1.3,13.1-3.8c2.4-2.5,3.6-7.2,3.6-13.9v-31.7H1355.6z"/>
	<path fill="#2E2A25" d="M1379-180.7h-8c0-6.4,1.5-10.8,4.4-13c2.9-2.2,8.6-3.3,17.1-3.3c9.2,0,15.4,1.4,18.7,4.1
		c3.2,2.7,4.9,7.9,4.9,15.5v36.5h-8.1l0.6-6l-0.2-0.1c-3.1,4.5-9.3,6.8-18.8,6.8c-14,0-20.9-5.6-20.9-16.8c0-6.7,1.6-11.3,4.7-13.8
		c3.1-2.5,8.8-3.8,16.9-3.8c9.7,0,15.5,1.9,17.5,5.7l0.2-0.1v-6.7c0-6.3-0.9-10.4-2.6-12.3c-1.7-1.9-5.5-2.8-11.4-2.8
		c-9.9,0-14.9,2.8-14.9,8.4C1379-182,1379-181.5,1379-180.7z M1392-168.3c-6.2,0-10.3,0.7-12.1,2c-1.9,1.3-2.8,4.1-2.8,8.4
		c0,4.5,0.9,7.4,2.8,8.9c1.8,1.4,5.6,2.2,11.3,2.2c11.4,0,17.1-3.5,17.1-10.4c0-4.4-1.1-7.3-3.3-8.8
		C1402.7-167.5,1398.4-168.3,1392-168.3z"/>
	<path fill="#2E2A25" d="M1430.9-196.2h7.8l-0.2,7.5l0.2,0.2c2.5-5.7,8.6-8.5,18.4-8.5c7.9,0,13.3,1.4,16,4.2
		c2.8,2.8,4.2,8.1,4.2,16v36h-8.1v-35.3v-2.1c0-4.7-0.9-7.9-2.7-9.6c-1.8-1.6-5.3-2.5-10.5-2.5c-11.4,0-17.1,5.4-17.1,16.1v33.3
		h-8.1V-196.2z"/>
	<path fill="#2E2A25" d="M1500.5-180.7h-8c0-6.4,1.5-10.8,4.4-13c2.9-2.2,8.6-3.3,17.1-3.3c9.2,0,15.4,1.4,18.7,4.1
		c3.2,2.7,4.9,7.9,4.9,15.5v36.5h-8.1l0.6-6l-0.2-0.1c-3.1,4.5-9.4,6.8-18.8,6.8c-14,0-20.9-5.6-20.9-16.8c0-6.7,1.6-11.3,4.7-13.8
		c3.1-2.5,8.8-3.8,16.9-3.8c9.7,0,15.5,1.9,17.5,5.7l0.2-0.1v-6.7c0-6.3-0.9-10.4-2.6-12.3c-1.7-1.9-5.5-2.8-11.4-2.8
		c-9.9,0-14.9,2.8-14.9,8.4C1500.4-182,1500.4-181.5,1500.5-180.7z M1513.5-168.3c-6.2,0-10.3,0.7-12.1,2c-1.9,1.3-2.8,4.1-2.8,8.4
		c0,4.5,0.9,7.4,2.8,8.9c1.8,1.4,5.6,2.2,11.3,2.2c11.4,0,17.1-3.5,17.1-10.4c0-4.4-1.1-7.3-3.3-8.8
		C1524.2-167.5,1519.9-168.3,1513.5-168.3z"/>
	<g>
		<path fill="#009BDA" d="M1137.3-92.8c-11.9-7.5-30.2-4.7-51.8,2.9c-3.8-10.1-6.4-21.3-7.1-33.2l0.3,0l0.5-0.1l1.8-0.3
			c1.2-0.2,2.4-0.4,3.5-0.7c4.4-1.1,8.5-3.2,12-5.9c3.5-2.7,6.4-5.9,8.7-9.3c0.6-0.8,1.1-1.7,1.6-2.5c0.5-0.9,1-1.7,1.5-2.6
			c0.5-0.8,0.7-1.8,0.7-2.9c-0.1-1.1-0.2-2.2,0.1-3c2.7-6.8,4.2-13.5,5.3-19.8c1.1-6.3,1.6-12.3,2-17.8c0.3-5.1,0.5-9.7,0.6-13.9
			c12.2-0.3,22.1-10.3,22.1-22.6c0-12.5-10.2-22.6-22.6-22.6c-12.5,0-22.6,10.1-22.6,22.6c0,10.2,6.8,18.9,16.1,21.7
			c-0.1,4.3-0.3,9-0.9,14.2c-0.5,5.3-1.3,11-2.6,16.9c-0.3,1.5-0.6,3-1.1,4.4c-0.2,0.7-0.4,1.5-0.6,2.2c-0.2,0.7-0.5,1.5-0.7,2.2
			c-0.9,3-2.1,5.9-3.5,8.7c-0.4,0.7-1.2,1.2-2,1.6c-0.8,0.4-1.4,1-1.7,1.6c-0.3,0.7-0.8,1.3-1.2,1.9c-0.4,0.6-0.8,1.3-1.3,1.8
			c-1.7,2.4-3.8,4.3-6,5.8c-2.2,1.5-4.7,2.7-7.3,3.2c-0.7,0.2-1.2,0.2-1.8,0.3l-0.9,0.2l-0.2,0l-0.3,0l-0.7,0l-2.5,0.1l-0.1,0
			l-0.3,0l-0.6,0l-1.1-0.1c-1.5,0-3-0.3-4.5-0.5c-0.7-0.1-1.4-0.3-2.1-0.5l-1.1-0.2c-0.4-0.1-0.7-0.2-1-0.3c-0.7-0.2-1.4-0.4-2-0.7
			l-1.9-0.9c-0.7-0.3-1.2-0.7-1.9-1c-0.6-0.4-1.2-0.7-1.8-1.2c-0.6-0.4-1.2-0.8-1.7-1.3c-0.5-0.5-1.1-1-1.6-1.5
			c-0.6-0.4-1.3-0.8-2.2-1l-1.3-0.4c-0.4-0.1-0.8-0.4-1.2-0.6c-1.3-1-2-2.5-2.9-3.8c-0.5-0.7-0.8-1.4-1.2-2.1
			c-0.4-0.7-0.8-1.4-1.1-2.1c-0.7-1.5-1.4-2.9-2-4.3c-0.3-0.7-0.6-1.5-0.9-2.2c-0.3-0.7-0.5-1.5-0.8-2.2c-0.5-1.5-0.9-3-1.4-4.5
			c-0.4-1.5-0.8-3-1.1-4.4c-1.3-5.9-2.1-11.6-2.6-16.9c-0.4-4.3-0.6-8.3-0.7-12c11.1-1.7,19.6-12.4,19.6-23.8
			c0-12.5-10.1-22.6-22.6-22.6c-12.5,0-22.6,10.1-22.6,22.6c0,11.3,8.3,21.8,19.1,23.7c0.1,3.9,0.4,8.1,0.8,12.7
			c0.5,5.5,1.2,11.5,2.4,17.7c0.3,1.6,0.7,3.2,1,4.8c0.4,1.6,0.8,3.2,1.3,4.9c0.2,0.8,0.5,1.6,0.7,2.5c0.3,0.8,0.6,1.6,0.8,2.5
			c0.5,1.7,1.3,3.3,1.9,5c0.3,0.8,0.8,1.6,1.2,2.5c0.4,0.8,0.8,1.7,1.3,2.5c0.5,0.8,0.9,1.6,1.4,2.4c0.5,0.8,1.1,1.5,1.4,2.5
			c0.6,1.9,0.7,4.5,2.1,6.1c0.7,0.8,1.4,1.5,2.2,2.3c0.8,0.7,1.6,1.4,2.4,2.1c6.5,5.4,15.1,8.4,23.3,8.9c0.8,13.6,3.9,25.7,7.6,35.7
			c-10,3.8-20.5,8.5-31.3,13.6c-4.1-5.9-10.9-9.7-18.6-9.7c-12.5,0-22.6,10.1-22.6,22.6c0,12.5,10.1,22.6,22.6,22.6
			c12.5,0,22.6-10.1,22.6-22.6c0-2.1-0.3-4.2-0.9-6.1c10.6-4.9,21.1-9.6,31-13.4c3.6,8.1,7.5,14.5,10.5,19.1
			c12.3,18.2,27.5,29.5,39.6,29.5c5.7,0,19-2.8,19-29C1150.6-76.4,1146.1-87.2,1137.3-92.8z M1099.5-224.4c0-9.2,7.5-16.7,16.7-16.7
			c9.2,0,16.7,7.5,16.7,16.7c0,9-7.2,16.4-16.1,16.7c0-1.8,0-3.5,0.1-5.1c6.1-0.3,11-5.4,11-11.7c0-6.5-5.2-11.7-11.7-11.7
			c-6.5,0-11.7,5.2-11.7,11.7c0,4.1,2.1,7.7,5.3,9.8c0,0.1,0,0.1,0,0.2c0,1.7,0,3.5,0,5.5C1103.8-211.4,1099.5-217.4,1099.5-224.4z
			 M1030.4-237.5c-6.5,0-11.7,5.2-11.7,11.7c0,5.1,3.3,9.4,7.8,11c0,1.6,0.1,3.4,0.1,5.3c-7.4-1.7-13-8.4-13-16.3
			c0-9.2,7.5-16.8,16.7-16.8c9.2,0,16.8,7.5,16.8,16.8c0,8.3-6,15.1-13.9,16.5c0-1.9,0-3.6,0-5.2c5-1.3,8.8-5.9,8.8-11.3
			C1042.1-232.3,1036.8-237.5,1030.4-237.5z M1028.7-44.1c-9.2,0-16.7-7.5-16.7-16.7c0-9.2,7.5-16.8,16.7-16.8
			c5.3,0,10.1,2.5,13.2,6.4c-1.6,0.7-3.1,1.5-4.7,2.2c-2.1-2.2-5.1-3.6-8.4-3.6c-6.5,0-11.7,5.2-11.7,11.7c0,6.5,5.2,11.7,11.7,11.7
			c6.5,0,11.7-5.2,11.7-11.7c0-0.5,0-0.9-0.1-1.4c1.6-0.7,3.2-1.5,4.7-2.2c0.3,1.2,0.4,2.4,0.4,3.6
			C1045.4-51.6,1037.9-44.1,1028.7-44.1z M1131.6-39.3c-11.8,0-31.3-17.1-43.2-43.7c19.2-6.8,35.5-9.5,45-3.5
			c6.6,4.2,9.8,12.6,9.8,25.7C1143.1-52.7,1141.6-39.3,1131.6-39.3z"/>
	</g>
</g>
<g>
	<g opacity="0.13">
		<g>
			<path d="M1270.8,322h-14.8c-0.1-0.7-0.1-1.3-0.1-1.6c-0.4-4.5-1.3-7.3-3-8.4c-1.6-1.1-5.5-1.7-11.6-1.7c-7.2,0-11.8,0.7-14,2
				c-2.2,1.3-3.3,4.1-3.3,8.3c0,5,0.9,8,2.7,9c1.8,1,7.7,1.8,17.7,2.3c11.9,0.7,19.5,2.4,23,5.1c3.5,2.7,5.2,8.4,5.2,17
				c0,10.6-2,17.4-6.1,20.5c-4.1,3.1-13.1,4.6-27,4.6c-12.5,0-20.9-1.5-25-4.6c-4.1-3-6.2-9.2-6.2-18.4l-0.1-2.9h14.7l0.1,1.7
				c0,5.6,1,9,2.9,10.2c1.9,1.2,7.3,1.9,15.9,1.9c6.8,0,11.1-0.7,13-2.2c1.9-1.4,2.8-4.8,2.8-10c0-3.9-0.7-6.4-2.1-7.7
				c-1.4-1.3-4.5-2-9.2-2.3l-8.3-0.5c-12.6-0.7-20.7-2.5-24.2-5.2c-3.5-2.8-5.3-8.7-5.3-17.8c0-9.3,2.1-15.5,6.3-18.6
				c4.2-3.1,12.7-4.6,25.3-4.6c12,0,20.1,1.4,24.2,4.3c4.2,2.8,6.3,8.4,6.3,16.6V322z"/>
			<path d="M1296.7,338.8h-13.7c0-6.7,1.6-11.2,4.7-13.4c3.1-2.3,9.3-3.4,18.5-3.4c10,0,16.8,1.4,20.4,4.1c3.5,2.8,5.3,8,5.3,15.8
				v36.5h-13.4l0.6-7.6l-0.3-0.1c-2.6,5.6-8.5,8.3-17.8,8.3c-13.5,0-20.3-5.7-20.3-17.2c0-11.6,6.9-17.4,20.7-17.4
				c9.2,0,14.8,2.1,16.8,6.4h0.2v-9c0-4.4-0.8-7.2-2.3-8.7c-1.5-1.4-4.6-2.1-9.3-2.1C1300.2,331,1296.7,333.6,1296.7,338.8z
				 M1305.7,353.5c-7.5,0-11.3,2.6-11.3,7.8c0,3.6,0.8,6,2.3,7.1c1.6,1.1,4.8,1.7,9.8,1.7c8.1,0,12.2-2.7,12.2-8.2
				C1318.7,356.3,1314.4,353.5,1305.7,353.5z"/>
			<path d="M1358.6,298.8v79.7h-13.4v-79.7H1358.6z"/>
			<path d="M1421.3,322.6v55.8h-13.4l0.8-9.6l-0.2-0.1c-2.6,6.9-8.6,10.3-18,10.3c-12.6,0-19-6.3-19-19v-37.5h13.4v34.3
				c0,4.8,0.7,7.9,2,9.4c1.3,1.5,4.1,2.2,8.2,2.2c8.6,0,12.8-5.1,12.8-15.4v-30.5H1421.3z"/>
			<path d="M1484.5,298.8v79.7h-13l0.5-9l-0.2-0.1c-2.6,6.5-8.3,9.7-17,9.7c-8.8,0-14.7-2-17.5-6c-2.9-4-4.3-12.2-4.3-24.5
				c0-10,1.5-16.9,4.6-20.8c3.1-3.9,8.5-5.8,16.4-5.8c9.1,0,14.8,2.9,17,8.6l0.2-0.1v-31.8H1484.5z M1458.3,332.6
				c-5,0-8.2,1.1-9.7,3.2c-1.5,2.1-2.2,6.7-2.2,13.7c0,8.1,0.7,13.3,2.2,15.7c1.5,2.3,4.8,3.5,9.9,3.5c5.4,0,8.8-1.1,10.3-3.4
				c1.5-2.3,2.2-7.6,2.2-15.9c0-6.9-0.8-11.3-2.5-13.5C1467,333.6,1463.5,332.6,1458.3,332.6z"/>
			<path d="M1511.6,338.8h-13.7c0-6.7,1.6-11.2,4.7-13.4c3.1-2.3,9.3-3.4,18.5-3.4c10,0,16.8,1.4,20.4,4.1c3.5,2.8,5.3,8,5.3,15.8
				v36.5h-13.4l0.6-7.6l-0.3-0.1c-2.6,5.6-8.5,8.3-17.8,8.3c-13.5,0-20.3-5.7-20.3-17.2c0-11.6,6.9-17.4,20.7-17.4
				c9.2,0,14.8,2.1,16.8,6.4h0.2v-9c0-4.4-0.8-7.2-2.3-8.7c-1.5-1.4-4.6-2.1-9.3-2.1C1515,331,1511.6,333.6,1511.6,338.8z
				 M1520.5,353.5c-7.6,0-11.3,2.6-11.3,7.8c0,3.6,0.8,6,2.3,7.1c1.6,1.1,4.8,1.7,9.8,1.7c8.1,0,12.2-2.7,12.2-8.2
				C1533.5,356.3,1529.2,353.5,1520.5,353.5z"/>
			<path d="M1560.1,378.4v-79.7h13.4v31.9l0.3,0.1c2.3-5.9,8.1-8.8,17.4-8.8c8,0,13.5,2,16.5,5.9c3,3.9,4.5,11.2,4.5,21.7
				c0,11.6-1.5,19.4-4.5,23.4c-3,4.1-8.8,6.1-17.4,6.1c-8.7,0-14.4-3.2-17.1-9.5h-0.3l0.6,8.8H1560.1z M1586.6,332.5
				c-8.7,0-13,5.4-13,16.2c0,8.4,0.7,13.9,2.2,16.3c1.5,2.4,4.8,3.6,10,3.6c5.4,0,8.9-1.1,10.4-3.3c1.5-2.2,2.3-7.2,2.3-15.1
				c0-7.3-0.8-12.1-2.3-14.3C1594.9,333.6,1591.6,332.5,1586.6,332.5z"/>
			<path d="M1636.7,298.8v79.7h-13.4v-79.7H1636.7z"/>
			<path d="M1685.7,360.6h13.4v2.2c0,10.9-8.2,16.3-24.5,16.3c-11.1,0-18.4-1.9-21.8-5.7c-3.4-3.8-5.1-11.8-5.1-24
				c0-10.9,1.8-18.1,5.4-21.9c3.6-3.7,10.6-5.6,21-5.6c10,0,16.6,1.8,20,5.5c3.4,3.6,5.1,10.8,5.1,21.4v4.1h-37.8
				c-0.1,1.2-0.1,2.1-0.1,2.4c0,5.5,0.8,9.2,2.5,11c1.7,1.8,5.1,2.7,10.1,2.7c4.9,0,8.1-0.5,9.6-1.6
				C1685,366.4,1685.7,364.1,1685.7,360.6z M1685.9,344.8l-0.1-2.2c0-4.4-0.8-7.3-2.3-8.6c-1.5-1.3-4.9-2-10-2c-5,0-8.2,0.8-9.7,2.4
				c-1.5,1.6-2.2,5.1-2.2,10.4H1685.9z"/>
		</g>
		<path d="M1239.5,198.8v71.3h-9v-71.3h-21.8v-8.3h60.7v8.3H1239.5z"/>
		<path d="M1268.5,214.4v55.8h-8.2v-55.8H1268.5z"/>
		<path d="M1297.5,214.4v60.9v2.4c0,9.2-3.8,13.8-11.5,13.8c-1.1,0-2.4-0.1-3.9-0.4v-5.8c0.5-0.1,0.8-0.1,0.9-0.1l1-0.1l3.4-1.1
			c1.2-1,1.9-4,1.9-8.8v-60.9H1297.5z M1297.5,190.5v9.2h-8.2v-9.2H1297.5z"/>
		<path d="M1357.6,214.4v55.8h-8.2l0.6-7.3l-0.2-0.2c-2.8,5.5-8.9,8.3-18.2,8.3c-13,0-19.6-6.5-19.6-19.5v-37.1h8.2v37.1
			c0,5.1,0.8,8.4,2.5,10.2c1.7,1.7,5,2.6,9.9,2.6c6.4,0,10.8-1.3,13.2-3.8c2.4-2.5,3.6-7.2,3.6-14v-32H1357.6z"/>
		<path d="M1381.3,230h-8.1c0-6.5,1.5-10.9,4.4-13.1c2.9-2.2,8.7-3.4,17.2-3.4c9.3,0,15.6,1.4,18.9,4.1c3.3,2.7,4.9,8,4.9,15.7v36.8
			h-8.2l0.6-6l-0.2-0.1c-3.1,4.6-9.4,6.9-19,6.9c-14.1,0-21.1-5.7-21.1-17c0-6.7,1.6-11.4,4.7-14c3.2-2.6,8.9-3.9,17.1-3.9
			c9.8,0,15.7,1.9,17.6,5.8l0.2-0.1v-6.8c0-6.4-0.9-10.5-2.6-12.4c-1.7-1.9-5.6-2.8-11.5-2.8c-10,0-15.1,2.8-15.1,8.5
			C1381.2,228.7,1381.2,229.2,1381.3,230z M1394.4,242.6c-6.3,0-10.3,0.7-12.2,2c-1.9,1.3-2.8,4.2-2.8,8.5c0,4.5,0.9,7.5,2.8,9
			c1.9,1.5,5.7,2.2,11.4,2.2c11.5,0,17.3-3.5,17.3-10.5c0-4.4-1.1-7.4-3.4-8.9C1405.2,243.3,1400.9,242.6,1394.4,242.6z"/>
		<path d="M1433.7,214.4h7.9l-0.2,7.6l0.2,0.2c2.5-5.7,8.7-8.6,18.6-8.6c8,0,13.4,1.4,16.2,4.2c2.8,2.8,4.2,8.2,4.2,16.1v36.3h-8.2
			v-35.6v-2.1c0-4.8-0.9-8-2.7-9.7c-1.8-1.7-5.4-2.5-10.6-2.5c-11.5,0-17.2,5.4-17.2,16.3v33.6h-8.2V214.4z"/>
		<path d="M1503.9,230h-8.1c0-6.5,1.5-10.9,4.4-13.1c2.9-2.2,8.7-3.4,17.2-3.4c9.3,0,15.6,1.4,18.9,4.1c3.3,2.7,4.9,8,4.9,15.7v36.8
			h-8.2l0.6-6l-0.2-0.1c-3.1,4.6-9.4,6.9-19,6.9c-14.1,0-21.1-5.7-21.1-17c0-6.7,1.6-11.4,4.7-14c3.2-2.6,8.8-3.9,17.1-3.9
			c9.8,0,15.7,1.9,17.6,5.8l0.2-0.1v-6.8c0-6.4-0.9-10.5-2.6-12.4c-1.8-1.9-5.6-2.8-11.5-2.8c-10,0-15.1,2.8-15.1,8.5
			C1503.8,228.7,1503.8,229.2,1503.9,230z M1517,242.6c-6.3,0-10.3,0.7-12.2,2c-1.9,1.3-2.8,4.2-2.8,8.5c0,4.5,0.9,7.5,2.8,9
			c1.9,1.5,5.7,2.2,11.4,2.2c11.5,0,17.3-3.5,17.3-10.5c0-4.4-1.1-7.4-3.4-8.9C1527.8,243.3,1523.5,242.6,1517,242.6z"/>
		<g>
			<path d="M1137.3,318.8c-12-7.6-30.5-4.8-52.3,3c-3.8-10.2-6.4-21.5-7.2-33.5l0.3,0l0.5-0.1l1.8-0.3c1.2-0.2,2.4-0.4,3.5-0.7
				c4.4-1.1,8.6-3.3,12.1-5.9c3.5-2.7,6.5-6,8.7-9.4c0.6-0.8,1.1-1.7,1.6-2.6c0.5-0.9,1.1-1.7,1.5-2.6c0.5-0.8,0.7-1.8,0.7-2.9
				c-0.1-1.1-0.2-2.2,0.1-3.1c2.8-6.8,4.2-13.6,5.3-20c1.1-6.4,1.6-12.4,2-18c0.3-5.1,0.5-9.8,0.6-14c12.3-0.3,22.3-10.4,22.3-22.8
				c0-12.6-10.2-22.8-22.8-22.8c-12.6,0-22.8,10.2-22.8,22.8c0,10.3,6.9,19,16.3,21.9c-0.1,4.3-0.4,9.1-0.9,14.3
				c-0.5,5.4-1.3,11.1-2.6,17.1c-0.3,1.5-0.6,3-1.1,4.5c-0.2,0.7-0.4,1.5-0.6,2.3c-0.2,0.7-0.5,1.5-0.7,2.2c-1,3-2.1,6-3.5,8.8
				c-0.4,0.7-1.2,1.2-2,1.6c-0.9,0.4-1.4,1-1.8,1.7c-0.3,0.7-0.8,1.3-1.2,1.9c-0.4,0.6-0.8,1.3-1.3,1.8c-1.8,2.4-3.9,4.3-6.1,5.9
				c-2.3,1.5-4.7,2.7-7.4,3.3c-0.7,0.2-1.2,0.2-1.9,0.4l-0.9,0.2l-0.2,0l-0.3,0l-0.7,0l-2.5,0.1l-0.1,0l-0.3,0l-0.6,0l-1.1-0.1
				c-1.6,0-3-0.3-4.5-0.5c-0.7-0.1-1.4-0.3-2.2-0.5l-1.1-0.2c-0.4-0.1-0.7-0.2-1-0.3c-0.7-0.2-1.4-0.4-2-0.7l-1.9-0.9
				c-0.7-0.3-1.2-0.7-1.9-1c-0.6-0.4-1.2-0.7-1.8-1.2c-0.6-0.4-1.2-0.8-1.7-1.3c-0.5-0.5-1.1-1-1.6-1.5c-0.6-0.4-1.3-0.8-2.2-1
				l-1.3-0.4c-0.4-0.1-0.8-0.4-1.2-0.6c-1.3-1-2-2.5-2.9-3.8c-0.5-0.7-0.8-1.4-1.2-2.1c-0.4-0.7-0.8-1.4-1.1-2.1
				c-0.7-1.5-1.4-2.9-2-4.4c-0.3-0.7-0.6-1.5-0.9-2.2c-0.3-0.7-0.5-1.5-0.8-2.2c-0.5-1.5-0.9-3-1.4-4.5c-0.4-1.5-0.8-3-1.1-4.5
				c-1.4-6-2.1-11.7-2.6-17.1c-0.4-4.4-0.6-8.4-0.7-12.2c11.2-1.7,19.8-12.5,19.8-24c0-12.6-10.2-22.8-22.8-22.8
				c-12.6,0-22.8,10.2-22.8,22.8c0,11.4,8.4,22,19.3,24c0.2,3.9,0.4,8.2,0.8,12.8c0.5,5.5,1.2,11.6,2.4,17.9c0.3,1.6,0.7,3.2,1,4.8
				c0.4,1.6,0.8,3.3,1.3,4.9c0.2,0.8,0.5,1.7,0.7,2.5c0.3,0.8,0.6,1.7,0.8,2.5c0.5,1.7,1.3,3.3,1.9,5c0.4,0.8,0.8,1.7,1.2,2.5
				c0.4,0.8,0.8,1.7,1.3,2.5c0.5,0.8,0.9,1.6,1.4,2.5c0.5,0.8,1.1,1.5,1.4,2.5c0.6,1.9,0.7,4.5,2.1,6.1c0.7,0.8,1.5,1.5,2.2,2.3
				c0.8,0.7,1.6,1.4,2.4,2.1c6.5,5.4,15.2,8.5,23.5,8.9c0.8,13.8,3.9,25.9,7.7,36.1c-10,3.9-20.7,8.6-31.6,13.7
				c-4.1-5.9-11-9.8-18.7-9.8c-12.6,0-22.8,10.2-22.8,22.8c0,12.6,10.2,22.8,22.8,22.8c12.6,0,22.8-10.2,22.8-22.8
				c0-2.1-0.3-4.2-0.9-6.2c10.7-5,21.3-9.7,31.3-13.5c3.6,8.2,7.5,14.7,10.6,19.3c12.4,18.4,27.7,29.8,40,29.8
				c5.8,0,19.2-2.9,19.2-29.3C1150.7,335.3,1146.2,324.4,1137.3,318.8z M1099.1,185.9c0-9.3,7.6-16.9,16.9-16.9
				c9.3,0,16.9,7.6,16.9,16.9c0,9.1-7.3,16.6-16.3,16.9c0-1.8,0-3.5,0.1-5.1c6.2-0.4,11.1-5.5,11.1-11.8c0-6.5-5.3-11.8-11.8-11.8
				c-6.5,0-11.8,5.3-11.8,11.8c0,4.1,2.1,7.8,5.3,9.9c0,0.1,0,0.1,0,0.2c0,1.7,0,3.5,0,5.6C1103.4,199,1099.1,193,1099.1,185.9z
				 M1029.3,172.7c-6.5,0-11.8,5.3-11.8,11.8c0,5.1,3.3,9.5,7.9,11.1c0,1.6,0.1,3.4,0.1,5.3c-7.5-1.7-13.1-8.4-13.1-16.5
				c0-9.3,7.6-16.9,16.9-16.9c9.3,0,16.9,7.6,16.9,16.9c0,8.3-6.1,15.3-14,16.6c0-1.9,0-3.6,0.1-5.2c5.1-1.3,8.9-5.9,8.9-11.4
				C1041.1,178,1035.9,172.7,1029.3,172.7z M1027.7,367.9c-9.3,0-16.9-7.6-16.9-16.9c0-9.3,7.6-16.9,16.9-16.9
				c5.4,0,10.2,2.5,13.3,6.5c-1.6,0.7-3.2,1.5-4.8,2.2c-2.2-2.2-5.2-3.6-8.5-3.6c-6.5,0-11.8,5.3-11.8,11.8
				c0,6.5,5.3,11.8,11.8,11.8c6.5,0,11.8-5.3,11.8-11.8c0-0.5,0-0.9-0.1-1.4c1.6-0.7,3.2-1.5,4.8-2.2c0.3,1.2,0.4,2.4,0.4,3.6
				C1044.6,360.3,1037,367.9,1027.7,367.9z M1131.5,372.8c-11.9,0-31.6-17.3-43.6-44.1c19.4-6.9,35.8-9.6,45.4-3.6
				c6.6,4.2,9.9,12.7,9.9,25.9C1143.2,359.2,1141.6,372.8,1131.5,372.8z"/>
		</g>
	</g>
	<g>
		<g>
			<path fill="#FFFFFF" d="M1268.8,320h-14.8c-0.1-0.7-0.1-1.3-0.1-1.6c-0.4-4.5-1.3-7.3-3-8.4c-1.6-1.1-5.5-1.7-11.6-1.7
				c-7.2,0-11.8,0.7-14,2c-2.2,1.3-3.3,4.1-3.3,8.3c0,5,0.9,8,2.7,9c1.8,1,7.7,1.8,17.7,2.3c11.9,0.7,19.5,2.4,23,5.1
				c3.5,2.7,5.2,8.4,5.2,17c0,10.6-2,17.4-6.1,20.5c-4.1,3.1-13.1,4.6-27,4.6c-12.5,0-20.9-1.5-25-4.6c-4.1-3-6.2-9.2-6.2-18.4
				l-0.1-2.9h14.7l0.1,1.7c0,5.6,1,9,2.9,10.2c1.9,1.2,7.3,1.9,15.9,1.9c6.8,0,11.1-0.7,13-2.2c1.9-1.4,2.8-4.8,2.8-10
				c0-3.9-0.7-6.4-2.1-7.7c-1.4-1.3-4.5-2-9.2-2.3l-8.3-0.5c-12.6-0.7-20.7-2.5-24.2-5.2c-3.5-2.8-5.3-8.7-5.3-17.8
				c0-9.3,2.1-15.5,6.3-18.6c4.2-3.1,12.7-4.6,25.3-4.6c12,0,20.1,1.4,24.2,4.3c4.2,2.8,6.3,8.4,6.3,16.6V320z"/>
			<path fill="#FFFFFF" d="M1294.7,336.8h-13.7c0-6.7,1.6-11.2,4.7-13.4c3.1-2.3,9.3-3.4,18.5-3.4c10,0,16.8,1.4,20.4,4.1
				c3.5,2.8,5.3,8,5.3,15.8v36.5h-13.4l0.6-7.6l-0.3-0.1c-2.6,5.6-8.5,8.3-17.8,8.3c-13.5,0-20.3-5.7-20.3-17.2
				c0-11.6,6.9-17.4,20.7-17.4c9.2,0,14.8,2.1,16.8,6.4h0.2v-9c0-4.4-0.8-7.3-2.3-8.7c-1.5-1.4-4.6-2.1-9.3-2.1
				C1298.2,329,1294.7,331.6,1294.7,336.8z M1303.7,351.5c-7.5,0-11.3,2.6-11.3,7.8c0,3.6,0.8,6,2.3,7.1c1.6,1.1,4.8,1.7,9.8,1.7
				c8.1,0,12.2-2.7,12.2-8.2C1316.7,354.3,1312.4,351.5,1303.7,351.5z"/>
			<path fill="#FFFFFF" d="M1356.6,296.8v79.7h-13.4v-79.7H1356.6z"/>
			<path fill="#FFFFFF" d="M1419.3,320.6v55.8h-13.4l0.8-9.6l-0.2-0.1c-2.6,6.9-8.6,10.3-18,10.3c-12.6,0-19-6.3-19-19v-37.5h13.4
				v34.3c0,4.8,0.7,7.9,2,9.4c1.3,1.5,4.1,2.2,8.2,2.2c8.6,0,12.8-5.1,12.8-15.4v-30.5H1419.3z"/>
			<path fill="#FFFFFF" d="M1482.5,296.8v79.7h-13l0.5-9l-0.2-0.1c-2.6,6.5-8.3,9.7-17,9.7c-8.8,0-14.7-2-17.5-6
				c-2.9-4-4.3-12.2-4.3-24.5c0-10,1.5-16.9,4.6-20.8c3.1-3.9,8.5-5.8,16.4-5.8c9.1,0,14.8,2.9,17,8.6l0.2-0.1v-31.8H1482.5z
				 M1456.3,330.6c-5,0-8.2,1.1-9.7,3.2c-1.5,2.1-2.2,6.7-2.2,13.7c0,8.1,0.7,13.3,2.2,15.7c1.5,2.3,4.8,3.5,9.9,3.5
				c5.4,0,8.8-1.1,10.3-3.4c1.5-2.3,2.2-7.6,2.2-15.9c0-6.9-0.8-11.3-2.5-13.5C1465,331.6,1461.5,330.6,1456.3,330.6z"/>
			<path fill="#FFFFFF" d="M1509.6,336.8h-13.7c0-6.7,1.6-11.2,4.7-13.4c3.1-2.3,9.3-3.4,18.5-3.4c10,0,16.8,1.4,20.4,4.1
				c3.5,2.8,5.3,8,5.3,15.8v36.5h-13.4l0.6-7.6l-0.3-0.1c-2.6,5.6-8.5,8.3-17.8,8.3c-13.5,0-20.3-5.7-20.3-17.2
				c0-11.6,6.9-17.4,20.7-17.4c9.2,0,14.8,2.1,16.8,6.4h0.2v-9c0-4.4-0.8-7.3-2.3-8.7c-1.5-1.4-4.6-2.1-9.3-2.1
				C1513,329,1509.6,331.6,1509.6,336.8z M1518.5,351.5c-7.6,0-11.3,2.6-11.3,7.8c0,3.6,0.8,6,2.3,7.1c1.6,1.1,4.8,1.7,9.8,1.7
				c8.1,0,12.2-2.7,12.2-8.2C1531.5,354.3,1527.2,351.5,1518.5,351.5z"/>
			<path fill="#FFFFFF" d="M1558.1,376.4v-79.7h13.4v31.9l0.3,0.1c2.3-5.9,8.1-8.8,17.4-8.8c8,0,13.5,2,16.5,5.9
				c3,3.9,4.5,11.2,4.5,21.7c0,11.6-1.5,19.4-4.5,23.4c-3,4.1-8.8,6.1-17.4,6.1c-8.7,0-14.4-3.2-17.1-9.5h-0.3l0.6,8.8H1558.1z
				 M1584.6,330.5c-8.7,0-13,5.4-13,16.2c0,8.4,0.7,13.9,2.2,16.3c1.5,2.4,4.8,3.6,10,3.6c5.4,0,8.9-1.1,10.4-3.3
				c1.5-2.2,2.3-7.2,2.3-15.1c0-7.3-0.8-12.1-2.3-14.3C1592.9,331.6,1589.6,330.5,1584.6,330.5z"/>
			<path fill="#FFFFFF" d="M1634.7,296.8v79.7h-13.4v-79.7H1634.7z"/>
			<path fill="#FFFFFF" d="M1683.7,358.6h13.4v2.2c0,10.9-8.2,16.3-24.5,16.3c-11.1,0-18.4-1.9-21.8-5.7c-3.4-3.8-5.1-11.8-5.1-24
				c0-10.9,1.8-18.1,5.4-21.9c3.6-3.7,10.6-5.6,21-5.6c10,0,16.6,1.8,20,5.5c3.4,3.6,5.1,10.8,5.1,21.4v4.1h-37.8
				c-0.1,1.2-0.1,2.1-0.1,2.4c0,5.5,0.8,9.2,2.5,11c1.7,1.8,5.1,2.7,10.1,2.7c4.9,0,8.1-0.5,9.6-1.6
				C1683,364.4,1683.7,362.1,1683.7,358.6z M1683.9,342.8l-0.1-2.2c0-4.4-0.8-7.3-2.3-8.6c-1.5-1.3-4.9-2-10-2c-5,0-8.2,0.8-9.7,2.4
				c-1.5,1.6-2.2,5.1-2.2,10.4H1683.9z"/>
		</g>
		<path fill="#EEEEEE" d="M1237.5,196.8v71.3h-9v-71.3h-21.8v-8.3h60.7v8.3H1237.5z"/>
		<path fill="#EEEEEE" d="M1266.5,212.4v55.8h-8.2v-55.8H1266.5z"/>
		<path fill="#EEEEEE" d="M1295.5,212.4v60.9v2.4c0,9.2-3.8,13.8-11.5,13.8c-1.1,0-2.4-0.1-3.9-0.4v-5.8c0.5-0.1,0.8-0.1,0.9-0.1
			l1-0.1l3.4-1.1c1.2-1,1.9-4,1.9-8.8v-60.9H1295.5z M1295.5,188.5v9.2h-8.2v-9.2H1295.5z"/>
		<path fill="#EEEEEE" d="M1355.6,212.4v55.8h-8.2l0.6-7.3l-0.2-0.2c-2.8,5.5-8.9,8.3-18.2,8.3c-13,0-19.6-6.5-19.6-19.5v-37.1h8.2
			v37.1c0,5.1,0.8,8.4,2.5,10.2c1.7,1.7,5,2.6,9.9,2.6c6.4,0,10.8-1.3,13.2-3.8c2.4-2.5,3.6-7.2,3.6-14v-32H1355.6z"/>
		<path fill="#EEEEEE" d="M1379.3,228h-8.1c0-6.5,1.5-10.9,4.4-13.1c2.9-2.2,8.7-3.4,17.2-3.4c9.3,0,15.6,1.4,18.9,4.1
			c3.3,2.7,4.9,8,4.9,15.7v36.8h-8.2l0.6-6l-0.2-0.1c-3.1,4.6-9.4,6.9-19,6.9c-14.1,0-21.1-5.7-21.1-17c0-6.7,1.6-11.4,4.7-14
			c3.2-2.6,8.9-3.9,17.1-3.9c9.8,0,15.7,1.9,17.6,5.8l0.2-0.1v-6.8c0-6.4-0.9-10.5-2.6-12.4c-1.7-1.9-5.6-2.8-11.5-2.8
			c-10,0-15.1,2.8-15.1,8.5C1379.2,226.7,1379.2,227.2,1379.3,228z M1392.4,240.6c-6.3,0-10.3,0.7-12.2,2c-1.9,1.3-2.8,4.2-2.8,8.5
			c0,4.5,0.9,7.5,2.8,9c1.9,1.5,5.7,2.2,11.4,2.2c11.5,0,17.3-3.5,17.3-10.5c0-4.4-1.1-7.4-3.4-8.9
			C1403.2,241.3,1398.9,240.6,1392.4,240.6z"/>
		<path fill="#EEEEEE" d="M1431.7,212.4h7.9l-0.2,7.6l0.2,0.2c2.5-5.7,8.7-8.6,18.6-8.6c8,0,13.4,1.4,16.2,4.2
			c2.8,2.8,4.2,8.2,4.2,16.1v36.3h-8.2v-35.6v-2.1c0-4.8-0.9-8-2.7-9.7c-1.8-1.7-5.4-2.5-10.6-2.5c-11.5,0-17.2,5.4-17.2,16.3v33.6
			h-8.2V212.4z"/>
		<path fill="#EEEEEE" d="M1501.9,228h-8.1c0-6.5,1.5-10.9,4.4-13.1c2.9-2.2,8.7-3.4,17.2-3.4c9.3,0,15.6,1.4,18.9,4.1
			c3.3,2.7,4.9,8,4.9,15.7v36.8h-8.2l0.6-6l-0.2-0.1c-3.1,4.6-9.4,6.9-19,6.9c-14.1,0-21.1-5.7-21.1-17c0-6.7,1.6-11.4,4.7-14
			c3.2-2.6,8.8-3.9,17.1-3.9c9.8,0,15.7,1.9,17.6,5.8l0.2-0.1v-6.8c0-6.4-0.9-10.5-2.6-12.4c-1.8-1.9-5.6-2.8-11.5-2.8
			c-10,0-15.1,2.8-15.1,8.5C1501.8,226.7,1501.8,227.2,1501.9,228z M1515,240.6c-6.3,0-10.3,0.7-12.2,2c-1.9,1.3-2.8,4.2-2.8,8.5
			c0,4.5,0.9,7.5,2.8,9c1.9,1.5,5.7,2.2,11.4,2.2c11.5,0,17.3-3.5,17.3-10.5c0-4.4-1.1-7.4-3.4-8.9
			C1525.8,241.3,1521.5,240.6,1515,240.6z"/>
		<g>
			<path fill="#FFFFFF" d="M1135.3,316.8c-12-7.6-30.5-4.8-52.3,3c-3.8-10.2-6.4-21.5-7.2-33.5l0.3,0l0.5-0.1l1.8-0.3
				c1.2-0.2,2.4-0.4,3.5-0.7c4.4-1.1,8.6-3.3,12.1-5.9c3.5-2.7,6.5-6,8.7-9.4c0.6-0.8,1.1-1.7,1.6-2.6c0.5-0.9,1.1-1.7,1.5-2.6
				c0.5-0.8,0.7-1.8,0.7-2.9c-0.1-1.1-0.2-2.2,0.1-3.1c2.8-6.8,4.2-13.6,5.3-20c1.1-6.4,1.6-12.4,2-18c0.3-5.1,0.5-9.8,0.6-14
				c12.3-0.3,22.3-10.4,22.3-22.8c0-12.6-10.2-22.8-22.8-22.8c-12.6,0-22.8,10.2-22.8,22.8c0,10.3,6.9,19,16.3,21.9
				c-0.1,4.3-0.4,9.1-0.9,14.3c-0.5,5.4-1.3,11.1-2.6,17.1c-0.3,1.5-0.6,3-1.1,4.5c-0.2,0.7-0.4,1.5-0.6,2.3
				c-0.2,0.7-0.5,1.5-0.7,2.2c-1,3-2.1,6-3.5,8.8c-0.4,0.7-1.2,1.2-2,1.6c-0.9,0.4-1.4,1-1.8,1.7c-0.3,0.7-0.8,1.3-1.2,1.9
				c-0.4,0.6-0.8,1.3-1.3,1.8c-1.8,2.4-3.9,4.3-6.1,5.9c-2.3,1.5-4.7,2.7-7.4,3.3c-0.7,0.2-1.2,0.2-1.8,0.4l-0.9,0.2l-0.2,0l-0.3,0
				l-0.7,0l-2.5,0.1l-0.1,0l-0.3,0l-0.6,0l-1.1-0.1c-1.6,0-3-0.3-4.5-0.5c-0.7-0.1-1.4-0.3-2.2-0.5l-1.1-0.2c-0.4-0.1-0.7-0.2-1-0.3
				c-0.7-0.2-1.4-0.4-2-0.7l-1.9-0.9c-0.7-0.3-1.2-0.7-1.9-1c-0.6-0.4-1.2-0.7-1.8-1.2c-0.6-0.4-1.2-0.8-1.7-1.3
				c-0.5-0.5-1.1-1-1.6-1.5c-0.6-0.4-1.3-0.8-2.2-1l-1.3-0.4c-0.4-0.1-0.8-0.4-1.2-0.6c-1.3-1-2-2.5-2.9-3.8
				c-0.5-0.7-0.8-1.4-1.2-2.1c-0.4-0.7-0.8-1.4-1.1-2.1c-0.7-1.5-1.4-2.9-2-4.4c-0.3-0.7-0.6-1.5-0.9-2.2c-0.3-0.7-0.5-1.5-0.8-2.2
				c-0.5-1.5-0.9-3-1.4-4.5c-0.4-1.5-0.8-3-1.1-4.5c-1.4-6-2.1-11.7-2.6-17.1c-0.4-4.4-0.6-8.4-0.7-12.2c11.2-1.7,19.8-12.5,19.8-24
				c0-12.6-10.2-22.8-22.8-22.8c-12.6,0-22.8,10.2-22.8,22.8c0,11.4,8.4,22,19.3,24c0.2,3.9,0.4,8.2,0.8,12.8
				c0.5,5.5,1.2,11.6,2.4,17.9c0.3,1.6,0.7,3.2,1,4.8c0.4,1.6,0.8,3.3,1.3,4.9c0.2,0.8,0.5,1.7,0.7,2.5c0.3,0.8,0.6,1.7,0.8,2.5
				c0.5,1.7,1.3,3.3,1.9,5c0.4,0.8,0.8,1.7,1.2,2.5c0.4,0.8,0.8,1.7,1.3,2.5c0.5,0.8,0.9,1.6,1.4,2.5c0.5,0.8,1.1,1.5,1.4,2.5
				c0.6,1.9,0.7,4.5,2.1,6.1c0.7,0.8,1.5,1.5,2.2,2.3c0.8,0.7,1.6,1.4,2.4,2.1c6.5,5.4,15.2,8.5,23.5,8.9
				c0.8,13.8,3.9,25.9,7.7,36.1c-10,3.9-20.7,8.6-31.6,13.7c-4.1-5.9-11-9.8-18.7-9.8c-12.6,0-22.8,10.2-22.8,22.8
				c0,12.6,10.2,22.8,22.8,22.8c12.6,0,22.8-10.2,22.8-22.8c0-2.1-0.3-4.2-0.9-6.2c10.7-5,21.3-9.7,31.3-13.5
				c3.6,8.2,7.5,14.7,10.6,19.3c12.4,18.4,27.7,29.8,40,29.8c5.8,0,19.2-2.9,19.2-29.3C1148.7,333.3,1144.2,322.4,1135.3,316.8z
				 M1097.1,183.9c0-9.3,7.6-16.9,16.9-16.9c9.3,0,16.9,7.6,16.9,16.9c0,9.1-7.3,16.6-16.3,16.9c0-1.8,0-3.5,0.1-5.1
				c6.2-0.4,11.1-5.5,11.1-11.8c0-6.5-5.3-11.8-11.8-11.8c-6.5,0-11.8,5.3-11.8,11.8c0,4.1,2.1,7.8,5.3,9.9c0,0.1,0,0.1,0,0.2
				c0,1.7,0,3.5,0,5.6C1101.4,197,1097.1,191,1097.1,183.9z M1027.3,170.7c-6.5,0-11.8,5.3-11.8,11.8c0,5.1,3.3,9.5,7.9,11.1
				c0,1.6,0.1,3.4,0.1,5.3c-7.5-1.7-13.1-8.4-13.1-16.5c0-9.3,7.6-16.9,16.9-16.9c9.3,0,16.9,7.6,16.9,16.9c0,8.3-6.1,15.3-14,16.6
				c0-1.9,0-3.6,0.1-5.2c5.1-1.3,8.9-5.9,8.9-11.4C1039.1,176,1033.9,170.7,1027.3,170.7z M1025.6,365.9c-9.3,0-16.9-7.6-16.9-16.9
				c0-9.3,7.6-16.9,16.9-16.9c5.4,0,10.2,2.5,13.3,6.5c-1.6,0.7-3.2,1.5-4.8,2.2c-2.2-2.2-5.2-3.6-8.5-3.6
				c-6.5,0-11.8,5.3-11.8,11.8c0,6.5,5.3,11.8,11.8,11.8c6.5,0,11.8-5.3,11.8-11.8c0-0.5,0-0.9-0.1-1.4c1.6-0.7,3.2-1.5,4.8-2.2
				c0.3,1.2,0.4,2.4,0.4,3.6C1042.6,358.3,1035,365.9,1025.6,365.9z M1129.5,370.8c-11.9,0-31.6-17.3-43.6-44.1
				c19.4-6.9,35.8-9.6,45.4-3.6c6.6,4.2,9.9,12.7,9.9,25.9C1141.2,357.2,1139.6,370.8,1129.5,370.8z"/>
		</g>
	</g>
</g>
</svg>
