<?xml version="1.0" encoding="utf-8"?>
<!-- Generator: Adobe Illustrator 19.0.0, SVG Export Plug-In . SVG Version: 6.00 Build 0)  -->
<svg version="1.1" id="Layer_1" xmlns="http://www.w3.org/2000/svg" xmlns:xlink="http://www.w3.org/1999/xlink" x="0px" y="0px"
	 viewBox="600 -325 1500 800" enable-background="new 600 -325 1500 800" xml:space="preserve">
<g id="Layer_1_1_">
</g>
<g id="Layer_3">
</g>
<rect x="600" y="75" fill="#B33785" width="1500" height="400"/>
<g>
	<g>
		<path fill="#B33785" d="M1288.4-57.7h16.3v3c0,11.9-2.2,19.6-6.5,23.1c-4.4,3.5-14,5.2-28.9,5.2c-16.9,0-27.3-2.8-31.2-8.3
			c-3.9-5.5-5.8-20.3-5.8-44.3c0-14.2,2.6-23.5,7.9-27.9c5.3-4.5,16.3-6.7,33.1-6.7c12.2,0,20.4,1.8,24.5,5.5
			c4.1,3.7,6.2,10.9,6.2,21.8l0.1,1.9h-16.3v-2.2c0-5.6-1.1-9.2-3.2-10.8c-2.1-1.6-6.9-2.4-14.5-2.4c-10.1,0-16.2,1.2-18.2,3.7
			c-2,2.5-3,9.8-3,22c0,16.4,0.9,26.1,2.7,29.1c1.8,3,7.7,4.5,17.7,4.5c8.1,0,13.3-0.8,15.7-2.5c2.4-1.7,3.6-5.4,3.6-11L1288.4-57.7
			z"/>
		<path fill="#B33785" d="M1316.5-87.1h14.4l-0.9,8.4l0.3,0.1c3.4-6.3,8.8-9.4,16.2-9.4c10.5,0,15.8,6.7,15.8,20v4.2h-13.6
			c0.2-1.6,0.3-2.7,0.3-3.2c0-6.4-2.5-9.6-7.5-9.6c-7.1,0-10.7,4.7-10.7,14.3v35.4h-14.4V-87.1z"/>
		<path fill="#B33785" d="M1410.6-46.3h14.4v2.3c0,11.7-8.8,17.6-26.4,17.6c-11.9,0-19.7-2-23.4-6.1c-3.7-4.1-5.5-12.7-5.5-25.8
			c0-11.7,1.9-19.5,5.8-23.6c3.9-4,11.4-6,22.5-6c10.7,0,17.9,2,21.5,5.9c3.6,3.9,5.5,11.6,5.5,23.1v4.4h-40.6
			c-0.1,1.3-0.1,2.2-0.1,2.6c0,5.9,0.9,9.8,2.7,11.8c1.8,2,5.5,3,10.9,3c5.3,0,8.7-0.6,10.3-1.7C1409.8-40,1410.6-42.5,1410.6-46.3z
			 M1410.7-63.3l-0.1-2.4c0-4.8-0.8-7.9-2.5-9.3c-1.7-1.4-5.2-2.1-10.8-2.1c-5.4,0-8.8,0.9-10.5,2.6c-1.6,1.7-2.4,5.5-2.4,11.2
			H1410.7z"/>
		<path fill="#B33785" d="M1453.6-69.7h-14.7c0-7.2,1.7-12,5-14.4c3.3-2.4,10-3.6,19.9-3.6c10.8,0,18.1,1.5,21.9,4.5
			c3.8,3,5.7,8.6,5.7,17v39.2h-14.4l0.7-8.2l-0.4-0.1c-2.8,6-9.1,9-19.2,9c-14.5,0-21.8-6.2-21.8-18.5c0-12.5,7.4-18.7,22.3-18.7
			c9.9,0,15.9,2.3,18.1,6.8h0.3v-9.7c0-4.7-0.8-7.8-2.4-9.3c-1.6-1.5-5-2.3-10-2.3C1457.3-78.1,1453.6-75.3,1453.6-69.7z M1463.2-54
			c-8.1,0-12.2,2.8-12.2,8.4c0,3.9,0.8,6.5,2.5,7.7c1.7,1.2,5.2,1.8,10.6,1.8c8.8,0,13.1-3,13.1-8.9C1477.2-51,1472.6-54,1463.2-54z
			"/>
		<path fill="#B33785" d="M1543.3-87.1v10.9h-23.1v30.1c0,5.6,2.1,8.4,6.3,8.4c4.6,0,7-3.4,7-10.1v-2.4h12.2v3
			c0,2.8-0.1,5.1-0.2,7.1c-0.8,9.2-7.6,13.8-20.5,13.8c-12.8,0-19.2-5.9-19.2-17.6v-32.2h-7.8v-10.9h7.8v-13.4h14.4v13.4H1543.3z"/>
		<path fill="#B33785" d="M1566.7-87.1v60h-14.4v-60H1566.7z"/>
		<path fill="#B33785" d="M1629.6-87.1l-17.2,60h-22.5l-18.1-60h15.3l7.9,27.7c1.1,3.9,2.1,7.6,3,11.2l1.4,5.6l1.4,5.6h0.3l1.3-5.6
			l1.3-5.5c1-4.2,1.9-7.9,2.8-11.2l7.4-27.8H1629.6z"/>
		<path fill="#B33785" d="M1649.8-69.7h-14.7c0-7.2,1.7-12,5-14.4c3.3-2.4,10-3.6,19.9-3.6c10.8,0,18.1,1.5,21.9,4.5
			c3.8,3,5.7,8.6,5.7,17v39.2h-14.4l0.7-8.2l-0.4-0.1c-2.8,6-9.1,9-19.2,9c-14.5,0-21.8-6.2-21.8-18.5c0-12.5,7.4-18.7,22.3-18.7
			c9.9,0,16,2.3,18.1,6.8h0.3v-9.7c0-4.7-0.8-7.8-2.5-9.3c-1.6-1.5-5-2.3-10-2.3C1653.4-78.1,1649.8-75.3,1649.8-69.7z M1659.4-54
			c-8.1,0-12.2,2.8-12.2,8.4c0,3.9,0.8,6.5,2.5,7.7c1.7,1.2,5.2,1.8,10.5,1.8c8.8,0,13.1-3,13.1-8.9C1673.4-51,1668.7-54,1659.4-54z
			"/>
	</g>
	<path fill="#2E2A25" d="M1264-224.1v76.7h-9.7v-76.7h-23.5v-9h65.3v9H1264z"/>
	<path fill="#2E2A25" d="M1295.2-207.4v60h-8.8v-60H1295.2z"/>
	<path fill="#2E2A25" d="M1326.5-207.4v65.6v2.6c0,9.9-4.1,14.9-12.4,14.9c-1.2,0-2.6-0.2-4.2-0.4v-6.2c0.5-0.1,0.8-0.1,1-0.1
		l1.1-0.1l3.6-1.2c1.3-1.1,2-4.3,2-9.4v-65.6H1326.5z M1326.5-233v9.9h-8.8v-9.9H1326.5z"/>
	<path fill="#2E2A25" d="M1391.1-207.4v60h-8.8l0.6-7.9l-0.2-0.2c-3.1,5.9-9.6,8.9-19.6,8.9c-14,0-21-7-21-21v-39.9h8.8v39.9
		c0,5.4,0.9,9.1,2.7,10.9c1.8,1.8,5.3,2.8,10.6,2.8c6.9,0,11.7-1.4,14.2-4.1c2.6-2.7,3.9-7.8,3.9-15.1v-34.4H1391.1z"/>
	<path fill="#2E2A25" d="M1416.6-190.5h-8.7c0-7,1.6-11.7,4.7-14.1c3.2-2.4,9.3-3.6,18.6-3.6c10,0,16.8,1.5,20.3,4.4
		c3.5,3,5.3,8.6,5.3,16.9v39.6h-8.8l0.7-6.5l-0.2-0.1c-3.4,4.9-10.1,7.4-20.4,7.4c-15.2,0-22.7-6.1-22.7-18.3c0-7.2,1.7-12.2,5.1-15
		c3.4-2.8,9.5-4.1,18.4-4.1c10.5,0,16.9,2.1,19,6.2l0.2-0.1v-7.3c0-6.9-0.9-11.3-2.8-13.3c-1.9-2-6-3-12.4-3
		c-10.8,0-16.2,3-16.2,9.1C1416.5-192,1416.5-191.4,1416.6-190.5z M1430.7-177c-6.7,0-11.1,0.7-13.2,2.1c-2,1.4-3,4.5-3,9.2
		c0,4.9,1,8.1,3,9.6c2,1.6,6.1,2.4,12.2,2.4c12.4,0,18.6-3.8,18.6-11.3c0-4.7-1.2-7.9-3.6-9.5C1442.3-176.2,1437.7-177,1430.7-177z"
		/>
	<path fill="#2E2A25" d="M1473-207.4h8.5l-0.3,8.2l0.3,0.2c2.7-6.2,9.3-9.2,20-9.2c8.6,0,14.4,1.5,17.4,4.5c3,3,4.6,8.8,4.6,17.3
		v39.1h-8.8v-38.3v-2.3c0-5.2-1-8.6-2.9-10.4c-2-1.8-5.8-2.7-11.4-2.7c-12.4,0-18.5,5.8-18.5,17.5v36.1h-8.8V-207.4z"/>
	<path fill="#2E2A25" d="M1548.5-190.5h-8.7c0-7,1.6-11.7,4.7-14.1c3.2-2.4,9.3-3.6,18.6-3.6c10,0,16.8,1.5,20.3,4.4
		c3.5,3,5.3,8.6,5.3,16.9v39.6h-8.8l0.7-6.5l-0.2-0.1c-3.4,4.9-10.2,7.4-20.4,7.4c-15.2,0-22.7-6.1-22.7-18.3c0-7.2,1.7-12.2,5.1-15
		c3.4-2.8,9.5-4.1,18.4-4.1c10.6,0,16.9,2.1,19,6.2l0.2-0.1v-7.3c0-6.9-0.9-11.3-2.8-13.3c-1.9-2-6-3-12.4-3
		c-10.8,0-16.2,3-16.2,9.1C1548.4-192,1548.4-191.4,1548.5-190.5z M1562.6-177c-6.7,0-11.1,0.7-13.2,2.1c-2,1.4-3,4.5-3,9.2
		c0,4.9,1,8.1,3,9.6c2,1.6,6.1,2.4,12.2,2.4c12.4,0,18.6-3.8,18.6-11.3c0-4.7-1.2-7.9-3.6-9.5C1574.2-176.2,1569.5-177,1562.6-177z"
		/>
	<g>
		<g>
			<path fill="#B33785" d="M1583.3-115.4c0,12.4-10,22.4-22.4,22.4c-12.4,0-22.4-10-22.4-22.4c0-12.4,10-22.4,22.4-22.4
				C1573.2-137.8,1583.3-127.8,1583.3-115.4z M1577.5-115.4c0-9.2-7.4-16.6-16.6-16.6c-9.1,0-16.6,7.4-16.6,16.6
				c0,9.1,7.4,16.6,16.6,16.6C1570-98.8,1577.5-106.3,1577.5-115.4z"/>
		</g>
		<path fill="#B33785" d="M1572.5-115.4c0-6.4-5.2-11.6-11.6-11.6c-6.4,0-11.6,5.2-11.6,11.6c0,6.4,5.2,11.6,11.6,11.6
			C1567.3-103.8,1572.5-109,1572.5-115.4z"/>
	</g>
	<path fill="#B33785" d="M1150.8-145.2l-7.1-41.4c8.4-3.3,14.3-11.4,14.3-20.9c0-12.4-10.1-22.4-22.4-22.4
		c-12.3,0-22.4,10-22.4,22.4c0,6.8,3,12.8,7.8,16.9c-0.2,0.3-0.4,0.7-0.5,1c-3.4,6.8-6.7,13.7-10.1,20.5c-3.7,7.5-7.4,15.1-11,22.7
		l-0.1,0c-4.5-1.7-9-3.5-13.4-5.7l9.6-19.6c0.7-1.4,0.7-3.1-0.2-4.5c-1.3-2.2-4.2-2.9-6.4-1.6l-26.7,16.3c-1.5-0.4-2.9-0.8-4.3-1.4
		c-2-0.8-4-1.8-5.9-2.8c-1.7-1-3.4-1.9-4.9-3.1c0.7-2.1,1.6-4,2.7-5.8c1.1-1.8,2.3-3.5,3.5-5.2l3.6-5.2l0.2-0.3
		c0.5-0.7,0.7-1.5,0.6-2.4c-0.2-2.1-2-3.6-4.1-3.5c-10.1,0.8-20.2,1.3-30.3,1.6c-2.2,0.1-4.4,0.1-6.6,0.1c-2-10.3-11.1-18.1-22-18.1
		c-12.4,0-22.4,10-22.4,22.4c0,12.4,10.1,22.4,22.4,22.4c11.5,0,21-8.7,22.2-19.8c2.2-0.1,4.4-0.2,6.5-0.3c7.3-0.3,14.6-0.4,22-0.5
		c-1,1.2-1.9,2.4-2.9,3.5c-1.4,1.6-3,3-4.8,4.3c-0.9,0.6-1.9,1.2-2.9,1.8c-1,0.5-2.1,1.1-3.3,1.4l-1.4,0.4c-0.3,0.1-0.7,0.2-1,0.4
		c-3.5,1.7-4.9,6-3.2,9.5c1.7,3.5,6,4.9,9.5,3.2c0.7-0.4,1.4-0.5,2-0.7c0.7-0.2,1.3-0.3,1.9-0.5c1.2-0.2,2.4-0.3,3.6-0.2
		c2.3,0.2,4.4,0.7,6.5,1.2c2.1,0.5,4.2,1.2,6.2,2c2,0.8,4,1.7,5.8,2.9c0.7,0.5,1.7,0.5,2.5,0.1l0.6-0.3l17.4-9l-4.7,11.4l-0.3,0.6
		c-0.1,0.2-0.1,0.3-0.2,0.5c-0.4,1.8,0.7,3.6,2.5,4c6,1.4,11.7,3.6,17.4,6c-2.1,4.4-4.2,8.7-6.2,13.1c-6.6,13.8-13.2,27.5-20.1,41.2
		c-3.4,6.8-6.8,13.7-10.5,20.3c-0.1,0.2-0.2,0.4-0.3,0.6c-2.4-0.9-5.1-1.4-7.8-1.4c-12.4,0-22.4,10-22.4,22.4
		c0,12.4,10.1,22.4,22.4,22.4c12.4,0,22.4-10,22.4-22.4c0-7.7-3.9-14.5-9.9-18.6c0.1-0.2,0.2-0.4,0.3-0.6
		c3.3-6.9,6.9-13.6,10.5-20.4c7.1-13.5,14.5-26.9,21.9-40.2c2.4-4.4,4.9-8.9,7.3-13.3l10,4.1c4.7,1.9,9.3,4,14,6
		c-0.3,1.5-0.5,3.1-0.5,4.7c0,12.4,10,22.4,22.4,22.4c12.4,0,22.4-10,22.4-22.4C1172.5-134.9,1162.8-144.8,1150.8-145.2z
		 M994.8-168.4c-9.1,0-16.6-7.4-16.6-16.6c0-9.1,7.4-16.6,16.6-16.6c7.7,0,14.1,5.3,16,12.4c-1.7,0-3.5,0-5.2,0
		c-1.7-4.3-5.9-7.4-10.8-7.4c-6.4,0-11.6,5.2-11.6,11.6c0,6.4,5.2,11.6,11.6,11.6c5.3,0,9.6-3.5,11.1-8.3c1.7-0.1,3.5-0.3,5.2-0.4
		C1009.7-174.4,1002.9-168.4,994.8-168.4z M1068.3-44.6c0,9.1-7.4,16.6-16.6,16.6c-9.2,0-16.6-7.4-16.6-16.6
		c0-9.2,7.4-16.6,16.6-16.6c1.7,0,3.3,0.3,4.9,0.8c-0.9,1.5-1.7,3-2.6,4.4c-0.7-0.1-1.5-0.2-2.2-0.2c-6.4,0-11.6,5.2-11.6,11.6
		c0,6.4,5.2,11.6,11.6,11.6c6.4,0,11.6-5.2,11.6-11.6c0-3.3-1.4-6.3-3.6-8.4c0.7-1.6,1.4-3.2,2.1-4.7
		C1065.7-54.7,1068.3-50,1068.3-44.6z M1141.5-130.6c-1.7-0.6-3.3-1.2-5-1.8c1.6-2.3,3.9-4.2,6.5-5.4l0.9,5.2
		C1143-132,1142.2-131.3,1141.5-130.6z M1133.6-192.4l0.2,1.4c-0.3,0-0.6,0-0.9-0.1C1133.2-191.5,1133.4-192,1133.6-192.4z
		 M1119-207.4c0-9.2,7.4-16.6,16.6-16.6c9.2,0,16.6,7.4,16.6,16.6c0,6.6-3.9,12.3-9.5,14.9l-0.9-5.2c3.2-2.1,5.4-5.7,5.4-9.8
		c0-6.4-5.2-11.6-11.6-11.6c-6.4,0-11.6,5.2-11.6,11.6c0,2.6,0.9,5,2.3,6.9c-0.9,1.6-1.7,3.1-2.6,4.7
		C1120.8-198.8,1119-202.9,1119-207.4z M1116.6-139.6l-9.3-3.6c3.9-7.1,7.8-14.2,11.6-21.3c3.6-6.7,7.3-13.4,10.9-20.2
		c0.2-0.3,0.3-0.7,0.5-1c1.5,0.4,3,0.6,4.6,0.6l7.1,41.4c-4.6,1.8-8.5,5.1-11,9.3C1126.2-136.1,1121.4-137.8,1116.6-139.6z
		 M1150.1-106.2c-9.2,0-16.6-7.4-16.6-16.6c0-0.8,0.1-1.6,0.2-2.3c1.6,0.7,3.2,1.4,4.8,2.1c0,0.1,0,0.1,0,0.2
		c0,6.4,5.2,11.6,11.6,11.6c6.4,0,11.6-5.2,11.6-11.6c0-5.5-3.8-10.1-9-11.3l-0.9-5.1c8.3,0.9,14.9,7.9,14.9,16.4
		C1166.7-113.7,1159.2-106.2,1150.1-106.2z"/>
</g>
<g>
	<g opacity="0.13">
		<g>
			<path d="M1290.4,346.9h16.3v3c0,11.9-2.2,19.6-6.5,23.1c-4.4,3.5-14,5.2-28.9,5.2c-16.9,0-27.3-2.8-31.2-8.3
				c-3.9-5.5-5.8-20.3-5.8-44.3c0-14.2,2.6-23.5,7.9-27.9c5.3-4.5,16.3-6.7,33.1-6.7c12.2,0,20.4,1.8,24.5,5.5
				c4.1,3.7,6.2,10.9,6.2,21.8l0.1,1.9h-16.3v-2.2c0-5.6-1.1-9.2-3.2-10.8c-2.1-1.6-6.9-2.4-14.5-2.4c-10.1,0-16.2,1.2-18.2,3.7
				c-2,2.5-3,9.8-3,22c0,16.4,0.9,26.1,2.7,29.1c1.8,3,7.7,4.5,17.7,4.5c8.1,0,13.3-0.8,15.7-2.5c2.4-1.7,3.6-5.4,3.6-11
				L1290.4,346.9z"/>
			<path d="M1318.5,317.5h14.4l-0.9,8.4l0.3,0.1c3.4-6.3,8.8-9.4,16.2-9.4c10.5,0,15.8,6.7,15.8,20v4.2h-13.6
				c0.2-1.6,0.3-2.7,0.3-3.2c0-6.4-2.5-9.6-7.5-9.6c-7.1,0-10.7,4.7-10.7,14.3v35.4h-14.4V317.5z"/>
			<path d="M1412.6,358.3h14.4v2.3c0,11.7-8.8,17.6-26.4,17.6c-11.9,0-19.7-2-23.4-6.1c-3.7-4.1-5.5-12.7-5.5-25.8
				c0-11.7,1.9-19.5,5.8-23.6c3.9-4,11.4-6,22.5-6c10.7,0,17.9,2,21.5,5.9c3.6,3.9,5.5,11.6,5.5,23.1v4.4h-40.6
				c-0.1,1.3-0.1,2.2-0.1,2.6c0,5.9,0.9,9.8,2.7,11.8c1.8,2,5.5,3,10.9,3c5.3,0,8.7-0.6,10.3-1.7
				C1411.8,364.6,1412.6,362.1,1412.6,358.3z M1412.7,341.3l-0.1-2.4c0-4.8-0.8-7.9-2.5-9.3c-1.7-1.4-5.2-2.1-10.8-2.1
				c-5.4,0-8.8,0.9-10.5,2.6c-1.6,1.7-2.4,5.5-2.4,11.2H1412.7z"/>
			<path d="M1455.6,334.9h-14.7c0-7.2,1.7-12,5-14.4c3.3-2.4,10-3.6,19.9-3.6c10.8,0,18.1,1.5,21.9,4.5c3.8,3,5.7,8.6,5.7,17v39.2
				h-14.4l0.7-8.2l-0.4-0.1c-2.8,6-9.1,9-19.2,9c-14.5,0-21.8-6.2-21.8-18.5c0-12.5,7.4-18.7,22.3-18.7c9.9,0,15.9,2.3,18.1,6.8h0.3
				v-9.7c0-4.7-0.8-7.8-2.4-9.3c-1.6-1.5-5-2.3-10-2.3C1459.3,326.5,1455.6,329.3,1455.6,334.9z M1465.2,350.7
				c-8.1,0-12.2,2.8-12.2,8.4c0,3.9,0.8,6.5,2.5,7.7c1.7,1.2,5.2,1.8,10.6,1.8c8.8,0,13.1-3,13.1-8.9
				C1479.2,353.7,1474.6,350.7,1465.2,350.7z"/>
			<path d="M1545.3,317.5v10.9h-23.1v30.1c0,5.6,2.1,8.4,6.3,8.4c4.6,0,7-3.4,7-10.1v-2.4h12.2v3c0,2.8-0.1,5.1-0.2,7.1
				c-0.8,9.2-7.6,13.8-20.5,13.8c-12.8,0-19.2-5.9-19.2-17.6v-32.2h-7.8v-10.9h7.8v-13.4h14.4v13.4H1545.3z"/>
			<path d="M1568.7,317.5v60h-14.4v-60H1568.7z"/>
			<path d="M1631.6,317.5l-17.2,60h-22.5l-18.1-60h15.3l7.9,27.7c1.1,3.9,2.1,7.6,3,11.2l1.4,5.6l1.4,5.6h0.3l1.3-5.6l1.3-5.5
				c1-4.2,1.9-7.9,2.8-11.2l7.4-27.8H1631.6z"/>
			<path d="M1651.8,334.9h-14.7c0-7.2,1.7-12,5-14.4c3.3-2.4,10-3.6,19.9-3.6c10.8,0,18.1,1.5,21.9,4.5c3.8,3,5.7,8.6,5.7,17v39.2
				h-14.4l0.7-8.2l-0.4-0.1c-2.8,6-9.1,9-19.2,9c-14.5,0-21.8-6.2-21.8-18.5c0-12.5,7.4-18.7,22.3-18.7c9.9,0,16,2.3,18.1,6.8h0.3
				v-9.7c0-4.7-0.8-7.8-2.5-9.3c-1.6-1.5-5-2.3-10-2.3C1655.4,326.5,1651.8,329.3,1651.8,334.9z M1661.4,350.7
				c-8.1,0-12.2,2.8-12.2,8.4c0,3.9,0.8,6.5,2.5,7.7c1.7,1.2,5.2,1.8,10.5,1.8c8.8,0,13.1-3,13.1-8.9
				C1675.4,353.7,1670.7,350.7,1661.4,350.7z"/>
		</g>
		<path d="M1266,180.6v76.7h-9.7v-76.7h-23.5v-9h65.3v9H1266z"/>
		<path d="M1297.3,197.3v60h-8.8v-60H1297.3z"/>
		<path d="M1328.5,197.3v65.6v2.6c0,9.9-4.1,14.9-12.4,14.9c-1.2,0-2.6-0.2-4.2-0.4v-6.2c0.5-0.1,0.8-0.1,1-0.1l1.1-0.1l3.6-1.2
			c1.3-1.1,2-4.3,2-9.4v-65.6H1328.5z M1328.5,171.6v9.9h-8.8v-9.9H1328.5z"/>
		<path d="M1393.2,197.3v60h-8.8l0.6-7.9l-0.2-0.2c-3.1,5.9-9.6,8.9-19.6,8.9c-14,0-21-7-21-21v-39.9h8.8v39.9
			c0,5.4,0.9,9.1,2.7,10.9c1.8,1.8,5.3,2.8,10.6,2.8c6.9,0,11.7-1.4,14.2-4.1c2.6-2.7,3.9-7.8,3.9-15.1v-34.4H1393.2z"/>
		<path d="M1418.6,214.1h-8.7c0-7,1.6-11.7,4.7-14.1c3.2-2.4,9.3-3.6,18.6-3.6c10,0,16.8,1.5,20.3,4.4c3.5,3,5.3,8.6,5.3,16.9v39.6
			h-8.8l0.7-6.5l-0.2-0.1c-3.4,4.9-10.1,7.4-20.4,7.4c-15.2,0-22.7-6.1-22.7-18.3c0-7.2,1.7-12.2,5.1-15c3.4-2.8,9.5-4.1,18.4-4.1
			c10.5,0,16.9,2.1,19,6.2l0.2-0.1v-7.3c0-6.9-0.9-11.3-2.8-13.3c-1.9-2-6-3-12.4-3c-10.8,0-16.2,3-16.2,9.1
			C1418.5,212.6,1418.5,213.2,1418.6,214.1z M1432.7,227.6c-6.7,0-11.1,0.7-13.2,2.1c-2,1.4-3,4.5-3,9.2c0,4.9,1,8.1,3,9.6
			c2,1.6,6.1,2.4,12.2,2.4c12.4,0,18.6-3.8,18.6-11.3c0-4.7-1.2-7.9-3.6-9.5C1444.3,228.4,1439.7,227.6,1432.7,227.6z"/>
		<path d="M1475,197.3h8.5l-0.3,8.2l0.3,0.2c2.7-6.2,9.3-9.2,20-9.2c8.6,0,14.4,1.5,17.4,4.5c3,3,4.6,8.8,4.6,17.3v39.1h-8.8V219
			v-2.3c0-5.2-1-8.6-2.9-10.4c-2-1.8-5.8-2.7-11.4-2.7c-12.4,0-18.5,5.8-18.5,17.5v36.1h-8.8V197.3z"/>
		<path d="M1550.5,214.1h-8.7c0-7,1.6-11.7,4.7-14.1c3.2-2.4,9.3-3.6,18.6-3.6c10,0,16.8,1.5,20.3,4.4c3.5,3,5.3,8.6,5.3,16.9v39.6
			h-8.8l0.7-6.5l-0.2-0.1c-3.4,4.9-10.2,7.4-20.4,7.4c-15.2,0-22.7-6.1-22.7-18.3c0-7.2,1.7-12.2,5.1-15c3.4-2.8,9.5-4.1,18.4-4.1
			c10.6,0,16.9,2.1,19,6.2l0.2-0.1v-7.3c0-6.9-0.9-11.3-2.8-13.3c-1.9-2-6-3-12.4-3c-10.8,0-16.2,3-16.2,9.1
			C1550.4,212.6,1550.4,213.2,1550.5,214.1z M1564.6,227.6c-6.7,0-11.1,0.7-13.2,2.1c-2,1.4-3,4.5-3,9.2c0,4.9,1,8.1,3,9.6
			c2,1.6,6.1,2.4,12.2,2.4c12.4,0,18.6-3.8,18.6-11.3c0-4.7-1.2-7.9-3.6-9.5C1576.2,228.4,1571.5,227.6,1564.6,227.6z"/>
		<g>
			<g>
				<path d="M1585.3,289.2c0,12.4-10,22.4-22.4,22.4c-12.4,0-22.4-10-22.4-22.4c0-12.4,10.1-22.4,22.4-22.4
					C1575.2,266.8,1585.3,276.8,1585.3,289.2z M1579.5,289.2c0-9.2-7.4-16.6-16.6-16.6c-9.1,0-16.6,7.4-16.6,16.6
					c0,9.1,7.4,16.6,16.6,16.6C1572.1,305.8,1579.5,298.3,1579.5,289.2z"/>
			</g>
			<path d="M1574.5,289.2c0-6.4-5.2-11.6-11.6-11.6c-6.4,0-11.6,5.2-11.6,11.6c0,6.4,5.2,11.6,11.6,11.6
				C1569.3,300.8,1574.5,295.6,1574.5,289.2z"/>
		</g>
		<path d="M1152.8,259.4l-7.1-41.4c8.4-3.3,14.3-11.4,14.3-20.9c0-12.4-10.1-22.4-22.4-22.4c-12.3,0-22.4,10-22.4,22.4
			c0,6.8,3,12.8,7.8,16.9c-0.2,0.3-0.4,0.7-0.5,1c-3.4,6.8-6.7,13.7-10.1,20.5c-3.7,7.5-7.4,15.1-11,22.7l-0.1,0
			c-4.5-1.7-9-3.5-13.4-5.7l9.6-19.6c0.7-1.4,0.7-3.1-0.2-4.5c-1.3-2.2-4.2-2.9-6.4-1.6l-26.7,16.3c-1.5-0.4-2.9-0.8-4.3-1.4
			c-2-0.8-4-1.8-5.9-2.8c-1.7-1-3.4-1.9-4.9-3.1c0.7-2.1,1.6-4,2.7-5.8c1.1-1.8,2.3-3.5,3.5-5.2l3.6-5.2l0.2-0.3
			c0.5-0.7,0.7-1.5,0.6-2.4c-0.2-2.1-2-3.6-4.1-3.5c-10.1,0.8-20.2,1.3-30.3,1.6c-2.2,0.1-4.4,0.1-6.6,0.1
			c-2-10.3-11.1-18.1-22-18.1c-12.4,0-22.4,10-22.4,22.4c0,12.4,10.1,22.4,22.4,22.4c11.5,0,21-8.7,22.2-19.8
			c2.2-0.1,4.4-0.2,6.5-0.3c7.3-0.3,14.6-0.4,22-0.5c-1,1.2-1.9,2.4-2.9,3.5c-1.4,1.6-3,3-4.8,4.3c-0.9,0.6-1.9,1.2-2.9,1.8
			c-1,0.5-2.1,1.1-3.3,1.4l-1.4,0.4c-0.3,0.1-0.7,0.2-1,0.4c-3.5,1.7-4.9,6-3.2,9.5c1.7,3.5,6,4.9,9.5,3.2c0.7-0.4,1.4-0.5,2-0.7
			c0.7-0.2,1.3-0.3,1.9-0.5c1.2-0.2,2.4-0.3,3.6-0.2c2.3,0.2,4.4,0.7,6.5,1.2c2.1,0.5,4.2,1.2,6.2,2c2,0.8,4,1.7,5.8,2.9
			c0.7,0.5,1.7,0.5,2.5,0.1l0.6-0.3l17.4-9l-4.7,11.4l-0.3,0.6c-0.1,0.2-0.1,0.3-0.2,0.5c-0.4,1.8,0.7,3.6,2.5,4
			c6,1.4,11.7,3.6,17.4,6c-2.1,4.4-4.2,8.7-6.2,13.1c-6.6,13.8-13.2,27.5-20.1,41.2c-3.4,6.8-6.8,13.7-10.5,20.3
			c-0.1,0.2-0.2,0.4-0.3,0.6c-2.4-0.9-5.1-1.4-7.8-1.4c-12.4,0-22.4,10-22.4,22.4c0,12.4,10.1,22.4,22.4,22.4
			c12.4,0,22.4-10,22.4-22.4c0-7.7-3.9-14.5-9.9-18.6c0.1-0.2,0.2-0.4,0.3-0.6c3.3-6.9,6.9-13.6,10.5-20.4
			c7.1-13.5,14.5-26.9,21.9-40.2c2.4-4.4,4.9-8.9,7.3-13.3l10,4.1c4.7,1.9,9.3,4,14,6c-0.3,1.5-0.5,3.1-0.5,4.7
			c0,12.4,10.1,22.4,22.4,22.4c12.4,0,22.4-10,22.4-22.4C1174.5,269.7,1164.8,259.8,1152.8,259.4z M996.8,236.2
			c-9.1,0-16.6-7.4-16.6-16.6c0-9.1,7.4-16.6,16.6-16.6c7.7,0,14.1,5.3,16,12.4c-1.7,0-3.5,0-5.2,0c-1.7-4.3-5.9-7.4-10.8-7.4
			c-6.4,0-11.6,5.2-11.6,11.6c0,6.4,5.2,11.6,11.6,11.6c5.3,0,9.6-3.5,11.1-8.3c1.7-0.1,3.5-0.3,5.2-0.4
			C1011.7,230.3,1004.9,236.2,996.8,236.2z M1070.3,360c0,9.1-7.4,16.6-16.6,16.6c-9.2,0-16.6-7.4-16.6-16.6
			c0-9.2,7.4-16.6,16.6-16.6c1.7,0,3.3,0.3,4.9,0.8c-0.9,1.5-1.7,3-2.6,4.4c-0.7-0.1-1.5-0.2-2.2-0.2c-6.4,0-11.6,5.2-11.6,11.6
			c0,6.4,5.2,11.6,11.6,11.6c6.4,0,11.6-5.2,11.6-11.6c0-3.3-1.4-6.3-3.6-8.4c0.7-1.6,1.4-3.2,2.1-4.7
			C1067.7,349.9,1070.3,354.7,1070.3,360z M1143.5,274c-1.7-0.6-3.3-1.2-5-1.8c1.6-2.3,3.9-4.2,6.5-5.4l0.9,5.2
			C1145,272.6,1144.2,273.3,1143.5,274z M1135.6,212.2l0.2,1.4c-0.3,0-0.6,0-0.9-0.1C1135.2,213.1,1135.4,212.7,1135.6,212.2z
			 M1121,197.2c0-9.2,7.4-16.6,16.6-16.6c9.2,0,16.6,7.4,16.6,16.6c0,6.6-3.9,12.3-9.5,14.9l-0.9-5.2c3.2-2.1,5.4-5.7,5.4-9.8
			c0-6.4-5.2-11.6-11.6-11.6c-6.4,0-11.6,5.2-11.6,11.6c0,2.6,0.9,5,2.3,6.9c-0.9,1.6-1.7,3.1-2.6,4.7
			C1122.8,205.8,1121,201.7,1121,197.2z M1118.6,265l-9.3-3.6c3.9-7.1,7.8-14.2,11.6-21.3c3.6-6.7,7.3-13.4,10.9-20.2
			c0.2-0.3,0.3-0.7,0.5-1c1.5,0.4,3,0.6,4.6,0.6l7.1,41.4c-4.6,1.8-8.5,5.1-11,9.3C1128.2,268.5,1123.4,266.8,1118.6,265z
			 M1152.1,298.4c-9.2,0-16.6-7.4-16.6-16.6c0-0.8,0.1-1.6,0.2-2.3c1.6,0.7,3.2,1.4,4.8,2.1c0,0.1,0,0.1,0,0.2
			c0,6.4,5.2,11.6,11.6,11.6c6.4,0,11.6-5.2,11.6-11.6c0-5.5-3.8-10.1-9-11.3l-0.9-5.1c8.3,0.9,14.9,7.9,14.9,16.4
			C1168.7,290.9,1161.3,298.4,1152.1,298.4z"/>
	</g>
	<g>
		<g>
			<path fill="#FFFFFF" d="M1288.4,344.9h16.3v3c0,11.9-2.2,19.6-6.5,23.1c-4.4,3.5-14,5.2-28.9,5.2c-16.9,0-27.3-2.8-31.2-8.3
				c-3.9-5.5-5.8-20.3-5.8-44.3c0-14.2,2.6-23.5,7.9-27.9c5.3-4.5,16.3-6.7,33.1-6.7c12.2,0,20.4,1.8,24.5,5.5
				c4.1,3.7,6.2,10.9,6.2,21.8l0.1,1.9h-16.3v-2.2c0-5.6-1.1-9.2-3.2-10.8c-2.1-1.6-6.9-2.4-14.5-2.4c-10.1,0-16.2,1.2-18.2,3.7
				c-2,2.5-3,9.8-3,22c0,16.4,0.9,26.1,2.7,29.1c1.8,3,7.7,4.5,17.7,4.5c8.1,0,13.3-0.8,15.7-2.5c2.4-1.7,3.6-5.4,3.6-11
				L1288.4,344.9z"/>
			<path fill="#FFFFFF" d="M1316.5,315.5h14.4l-0.9,8.4l0.3,0.1c3.4-6.3,8.8-9.4,16.2-9.4c10.5,0,15.8,6.7,15.8,20v4.2h-13.6
				c0.2-1.6,0.3-2.7,0.3-3.2c0-6.4-2.5-9.6-7.5-9.6c-7.1,0-10.7,4.7-10.7,14.3v35.4h-14.4V315.5z"/>
			<path fill="#FFFFFF" d="M1410.6,356.3h14.4v2.3c0,11.7-8.8,17.6-26.4,17.6c-11.9,0-19.7-2-23.4-6.1c-3.7-4.1-5.5-12.7-5.5-25.8
				c0-11.7,1.9-19.5,5.8-23.6c3.9-4,11.4-6,22.5-6c10.7,0,17.9,2,21.5,5.9c3.6,3.9,5.5,11.6,5.5,23.1v4.4h-40.6
				c-0.1,1.3-0.1,2.2-0.1,2.6c0,5.9,0.9,9.8,2.7,11.8c1.8,2,5.5,3,10.9,3c5.3,0,8.7-0.6,10.3-1.7
				C1409.8,362.6,1410.6,360.1,1410.6,356.3z M1410.7,339.3l-0.1-2.4c0-4.8-0.8-7.9-2.5-9.3c-1.7-1.4-5.2-2.1-10.8-2.1
				c-5.4,0-8.8,0.9-10.5,2.6c-1.6,1.7-2.4,5.5-2.4,11.2H1410.7z"/>
			<path fill="#FFFFFF" d="M1453.6,332.9h-14.7c0-7.2,1.7-12,5-14.4c3.3-2.4,10-3.6,19.9-3.6c10.8,0,18.1,1.5,21.9,4.5
				c3.8,3,5.7,8.6,5.7,17v39.2h-14.4l0.7-8.2l-0.4-0.1c-2.8,6-9.1,9-19.2,9c-14.5,0-21.8-6.2-21.8-18.5c0-12.5,7.4-18.7,22.3-18.7
				c9.9,0,15.9,2.3,18.1,6.8h0.3v-9.7c0-4.7-0.8-7.8-2.4-9.3c-1.6-1.5-5-2.3-10-2.3C1457.3,324.5,1453.6,327.3,1453.6,332.9z
				 M1463.2,348.6c-8.1,0-12.2,2.8-12.2,8.4c0,3.9,0.8,6.5,2.5,7.7c1.7,1.2,5.2,1.8,10.6,1.8c8.8,0,13.1-3,13.1-8.9
				C1477.2,351.7,1472.6,348.6,1463.2,348.6z"/>
			<path fill="#FFFFFF" d="M1543.3,315.5v10.9h-23.1v30.1c0,5.6,2.1,8.4,6.3,8.4c4.6,0,7-3.4,7-10.1v-2.4h12.2v3
				c0,2.8-0.1,5.1-0.2,7.1c-0.8,9.2-7.6,13.8-20.5,13.8c-12.8,0-19.2-5.9-19.2-17.6v-32.2h-7.8v-10.9h7.8v-13.4h14.4v13.4H1543.3z"
				/>
			<path fill="#FFFFFF" d="M1566.7,315.5v60h-14.4v-60H1566.7z"/>
			<path fill="#FFFFFF" d="M1629.6,315.5l-17.2,60h-22.5l-18.1-60h15.3l7.9,27.7c1.1,3.9,2.1,7.6,3,11.2l1.4,5.6l1.4,5.6h0.3
				l1.3-5.6l1.3-5.5c1-4.2,1.9-7.9,2.8-11.2l7.4-27.8H1629.6z"/>
			<path fill="#FFFFFF" d="M1649.8,332.9h-14.7c0-7.2,1.7-12,5-14.4c3.3-2.4,10-3.6,19.9-3.6c10.8,0,18.1,1.5,21.9,4.5
				c3.8,3,5.7,8.6,5.7,17v39.2h-14.4l0.7-8.2l-0.4-0.1c-2.8,6-9.1,9-19.2,9c-14.5,0-21.8-6.2-21.8-18.5c0-12.5,7.4-18.7,22.3-18.7
				c9.9,0,16,2.3,18.1,6.8h0.3v-9.7c0-4.7-0.8-7.8-2.5-9.3c-1.6-1.5-5-2.3-10-2.3C1653.4,324.5,1649.8,327.3,1649.8,332.9z
				 M1659.4,348.6c-8.1,0-12.2,2.8-12.2,8.4c0,3.9,0.8,6.5,2.5,7.7c1.7,1.2,5.2,1.8,10.5,1.8c8.8,0,13.1-3,13.1-8.9
				C1673.4,351.7,1668.7,348.6,1659.4,348.6z"/>
		</g>
		<path fill="#EEEEEE" d="M1264,178.6v76.7h-9.7v-76.7h-23.5v-9h65.3v9H1264z"/>
		<path fill="#EEEEEE" d="M1295.2,195.3v60h-8.8v-60H1295.2z"/>
		<path fill="#EEEEEE" d="M1326.5,195.3v65.6v2.6c0,9.9-4.1,14.9-12.4,14.9c-1.2,0-2.6-0.2-4.2-0.4v-6.2c0.5-0.1,0.8-0.1,1-0.1
			l1.1-0.1l3.6-1.2c1.3-1.1,2-4.3,2-9.4v-65.6H1326.5z M1326.5,169.6v9.9h-8.8v-9.9H1326.5z"/>
		<path fill="#EEEEEE" d="M1391.1,195.3v60h-8.8l0.6-7.9l-0.2-0.2c-3.1,5.9-9.6,8.9-19.6,8.9c-14,0-21-7-21-21v-39.9h8.8v39.9
			c0,5.4,0.9,9.1,2.7,10.9c1.8,1.8,5.3,2.8,10.6,2.8c6.9,0,11.7-1.4,14.2-4.1c2.6-2.7,3.9-7.8,3.9-15.1v-34.4H1391.1z"/>
		<path fill="#EEEEEE" d="M1416.6,212.1h-8.7c0-7,1.6-11.7,4.7-14.1c3.2-2.4,9.3-3.6,18.6-3.6c10,0,16.8,1.5,20.3,4.4
			c3.5,3,5.3,8.6,5.3,16.9v39.6h-8.8l0.7-6.5l-0.2-0.1c-3.4,4.9-10.1,7.4-20.4,7.4c-15.2,0-22.7-6.1-22.7-18.3
			c0-7.2,1.7-12.2,5.1-15c3.4-2.8,9.5-4.1,18.4-4.1c10.5,0,16.9,2.1,19,6.2l0.2-0.1v-7.3c0-6.9-0.9-11.3-2.8-13.3c-1.9-2-6-3-12.4-3
			c-10.8,0-16.2,3-16.2,9.1C1416.5,210.6,1416.5,211.2,1416.6,212.1z M1430.7,225.6c-6.7,0-11.1,0.7-13.2,2.1c-2,1.4-3,4.5-3,9.2
			c0,4.9,1,8.1,3,9.6c2,1.6,6.1,2.4,12.2,2.4c12.4,0,18.6-3.8,18.6-11.3c0-4.7-1.2-7.9-3.6-9.5
			C1442.3,226.4,1437.7,225.6,1430.7,225.6z"/>
		<path fill="#EEEEEE" d="M1473,195.3h8.5l-0.3,8.2l0.3,0.2c2.7-6.2,9.3-9.2,20-9.2c8.6,0,14.4,1.5,17.4,4.5c3,3,4.6,8.8,4.6,17.3
			v39.1h-8.8V217v-2.3c0-5.2-1-8.6-2.9-10.4c-2-1.8-5.8-2.7-11.4-2.7c-12.4,0-18.5,5.8-18.5,17.5v36.1h-8.8V195.3z"/>
		<path fill="#EEEEEE" d="M1548.5,212.1h-8.7c0-7,1.6-11.7,4.7-14.1c3.2-2.4,9.3-3.6,18.6-3.6c10,0,16.8,1.5,20.3,4.4
			c3.5,3,5.3,8.6,5.3,16.9v39.6h-8.8l0.7-6.5l-0.2-0.1c-3.4,4.9-10.2,7.4-20.4,7.4c-15.2,0-22.7-6.1-22.7-18.3
			c0-7.2,1.7-12.2,5.1-15c3.4-2.8,9.5-4.1,18.4-4.1c10.6,0,16.9,2.1,19,6.2l0.2-0.1v-7.3c0-6.9-0.9-11.3-2.8-13.3c-1.9-2-6-3-12.4-3
			c-10.8,0-16.2,3-16.2,9.1C1548.4,210.6,1548.4,211.2,1548.5,212.1z M1562.6,225.6c-6.7,0-11.1,0.7-13.2,2.1c-2,1.4-3,4.5-3,9.2
			c0,4.9,1,8.1,3,9.6c2,1.6,6.1,2.4,12.2,2.4c12.4,0,18.6-3.8,18.6-11.3c0-4.7-1.2-7.9-3.6-9.5
			C1574.2,226.4,1569.5,225.6,1562.6,225.6z"/>
		<g>
			<g>
				<path fill="#FFFFFF" d="M1583.3,287.2c0,12.4-10,22.4-22.4,22.4c-12.4,0-22.4-10-22.4-22.4c0-12.4,10-22.4,22.4-22.4
					C1573.2,264.8,1583.3,274.8,1583.3,287.2z M1577.5,287.2c0-9.2-7.4-16.6-16.6-16.6c-9.1,0-16.6,7.4-16.6,16.6
					c0,9.1,7.4,16.6,16.6,16.6C1570,303.8,1577.5,296.3,1577.5,287.2z"/>
			</g>
			<path fill="#FFFFFF" d="M1572.5,287.2c0-6.4-5.2-11.6-11.6-11.6c-6.4,0-11.6,5.2-11.6,11.6c0,6.4,5.2,11.6,11.6,11.6
				C1567.3,298.8,1572.5,293.6,1572.5,287.2z"/>
		</g>
		<path fill="#FFFFFF" d="M1150.8,257.4l-7.1-41.4c8.4-3.3,14.3-11.4,14.3-20.9c0-12.4-10.1-22.4-22.4-22.4
			c-12.3,0-22.4,10-22.4,22.4c0,6.8,3,12.8,7.8,16.9c-0.2,0.3-0.4,0.7-0.5,1c-3.4,6.8-6.7,13.7-10.1,20.5c-3.7,7.5-7.4,15.1-11,22.7
			l-0.1,0c-4.5-1.7-9-3.5-13.4-5.7l9.6-19.6c0.7-1.4,0.7-3.1-0.2-4.5c-1.3-2.2-4.2-2.9-6.4-1.6l-26.7,16.3c-1.5-0.4-2.9-0.8-4.3-1.4
			c-2-0.8-4-1.8-5.9-2.8c-1.7-1-3.4-1.9-4.9-3.1c0.7-2.1,1.6-4,2.7-5.8c1.1-1.8,2.3-3.5,3.5-5.2l3.6-5.2l0.2-0.3
			c0.5-0.7,0.7-1.5,0.6-2.4c-0.2-2.1-2-3.6-4.1-3.5c-10.1,0.8-20.2,1.3-30.3,1.6c-2.2,0.1-4.4,0.1-6.6,0.1
			c-2-10.3-11.1-18.1-22-18.1c-12.4,0-22.4,10-22.4,22.4c0,12.4,10.1,22.4,22.4,22.4c11.5,0,21-8.7,22.2-19.8
			c2.2-0.1,4.4-0.2,6.5-0.3c7.3-0.3,14.6-0.4,22-0.5c-1,1.2-1.9,2.4-2.9,3.5c-1.4,1.6-3,3-4.8,4.3c-0.9,0.6-1.9,1.2-2.9,1.8
			c-1,0.5-2.1,1.1-3.3,1.4l-1.4,0.4c-0.3,0.1-0.7,0.2-1,0.4c-3.5,1.7-4.9,6-3.2,9.5c1.7,3.5,6,4.9,9.5,3.2c0.7-0.4,1.4-0.5,2-0.7
			c0.7-0.2,1.3-0.3,1.9-0.5c1.2-0.2,2.4-0.3,3.6-0.2c2.3,0.2,4.4,0.7,6.5,1.2c2.1,0.5,4.2,1.2,6.2,2c2,0.8,4,1.7,5.8,2.9
			c0.7,0.5,1.7,0.5,2.5,0.1l0.6-0.3l17.4-9l-4.7,11.4l-0.3,0.6c-0.1,0.2-0.1,0.3-0.2,0.5c-0.4,1.8,0.7,3.6,2.5,4
			c6,1.4,11.7,3.6,17.4,6c-2.1,4.4-4.2,8.7-6.2,13.1c-6.6,13.8-13.2,27.5-20.1,41.2c-3.4,6.8-6.8,13.7-10.5,20.3
			c-0.1,0.2-0.2,0.4-0.3,0.6c-2.4-0.9-5.1-1.4-7.8-1.4c-12.4,0-22.4,10-22.4,22.4c0,12.4,10.1,22.4,22.4,22.4
			c12.4,0,22.4-10,22.4-22.4c0-7.7-3.9-14.5-9.9-18.6c0.1-0.2,0.2-0.4,0.3-0.6c3.3-6.9,6.9-13.6,10.5-20.4
			c7.1-13.5,14.5-26.9,21.9-40.2c2.4-4.4,4.9-8.9,7.3-13.3l10,4.1c4.7,1.9,9.3,4,14,6c-0.3,1.5-0.5,3.1-0.5,4.7
			c0,12.4,10,22.4,22.4,22.4c12.4,0,22.4-10,22.4-22.4C1172.5,267.7,1162.8,257.8,1150.8,257.4z M994.8,234.2
			c-9.1,0-16.6-7.4-16.6-16.6c0-9.1,7.4-16.6,16.6-16.6c7.7,0,14.1,5.3,16,12.4c-1.7,0-3.5,0-5.2,0c-1.7-4.3-5.9-7.4-10.8-7.4
			c-6.4,0-11.6,5.2-11.6,11.6c0,6.4,5.2,11.6,11.6,11.6c5.3,0,9.6-3.5,11.1-8.3c1.7-0.1,3.5-0.3,5.2-0.4
			C1009.7,228.3,1002.9,234.2,994.8,234.2z M1068.3,358c0,9.1-7.4,16.6-16.6,16.6c-9.2,0-16.6-7.4-16.6-16.6
			c0-9.2,7.4-16.6,16.6-16.6c1.7,0,3.3,0.3,4.9,0.8c-0.9,1.5-1.7,3-2.6,4.4c-0.7-0.1-1.5-0.2-2.2-0.2c-6.4,0-11.6,5.2-11.6,11.6
			c0,6.4,5.2,11.6,11.6,11.6c6.4,0,11.6-5.2,11.6-11.6c0-3.3-1.4-6.3-3.6-8.4c0.7-1.6,1.4-3.2,2.1-4.7
			C1065.7,347.9,1068.3,352.7,1068.3,358z M1141.5,272c-1.7-0.6-3.3-1.2-5-1.8c1.6-2.3,3.9-4.2,6.5-5.4l0.9,5.2
			C1143,270.6,1142.2,271.3,1141.5,272z M1133.6,210.2l0.2,1.4c-0.3,0-0.6,0-0.9-0.1C1133.2,211.1,1133.4,210.7,1133.6,210.2z
			 M1119,195.2c0-9.2,7.4-16.6,16.6-16.6c9.2,0,16.6,7.4,16.6,16.6c0,6.6-3.9,12.3-9.5,14.9l-0.9-5.2c3.2-2.1,5.4-5.7,5.4-9.8
			c0-6.4-5.2-11.6-11.6-11.6c-6.4,0-11.6,5.2-11.6,11.6c0,2.6,0.9,5,2.3,6.9c-0.9,1.6-1.7,3.1-2.6,4.7
			C1120.8,203.8,1119,199.7,1119,195.2z M1116.6,263l-9.3-3.6c3.9-7.1,7.8-14.2,11.6-21.3c3.6-6.7,7.3-13.4,10.9-20.2
			c0.2-0.3,0.3-0.7,0.5-1c1.5,0.4,3,0.6,4.6,0.6l7.1,41.4c-4.6,1.8-8.5,5.1-11,9.3C1126.2,266.5,1121.4,264.8,1116.6,263z
			 M1150.1,296.4c-9.2,0-16.6-7.4-16.6-16.6c0-0.8,0.1-1.6,0.2-2.3c1.6,0.7,3.2,1.4,4.8,2.1c0,0.1,0,0.1,0,0.2
			c0,6.4,5.2,11.6,11.6,11.6c6.4,0,11.6-5.2,11.6-11.6c0-5.5-3.8-10.1-9-11.3l-0.9-5.1c8.3,0.9,14.9,7.9,14.9,16.4
			C1166.7,288.9,1159.2,296.4,1150.1,296.4z"/>
	</g>
</g>
</svg>
