<?xml version="1.0" encoding="utf-8"?>
<!-- Generator: Adobe Illustrator 19.0.0, SVG Export Plug-In . SVG Version: 6.00 Build 0)  -->
<svg version="1.1" id="Layer_1" xmlns="http://www.w3.org/2000/svg" xmlns:xlink="http://www.w3.org/1999/xlink" x="0px" y="0px"
	 viewBox="600 -325 1500 800" enable-background="new 600 -325 1500 800" xml:space="preserve">
<g id="Layer_1_1_">
</g>
<g id="Layer_3">
</g>
<rect x="600" y="78.4" fill="#5EAA3C" width="1500" height="399.1"/>
<g opacity="0.13">
	<g>
		<path d="M1075.3,192.8c11.4,0,20.8-9.3,20.8-20.8c0-11.4-9.3-20.8-20.8-20.8c-11.4,0-20.8,9.3-20.8,20.8
			C1054.5,183.5,1063.8,192.8,1075.3,192.8z M1075.3,156.7c8.5,0,15.4,6.9,15.4,15.4c0,8.5-6.9,15.4-15.4,15.4
			c-8.5,0-15.4-6.9-15.4-15.4C1059.9,163.6,1066.8,156.7,1075.3,156.7z"/>
		<circle cx="1075.3" cy="172" r="10.7"/>
		<path d="M1076.1,351.4c-10.1,0-18.6,7.3-20.4,16.9c-17.7-4.1-34.7-13.9-49.2-28.7c-13.4-13.7-23.1-30.4-27.6-46.7
			c8.6-2.5,14.9-10.5,14.9-19.9c0-9.3-6.1-17.1-14.5-19.8c6.4-22.1,22-47.3,42.6-61.5l-3.4,19.4l5,0.9l5.2-30l-30.3-3l-0.5,5l19.8,2
			c-22.1,15.4-38.8,42.7-45.5,66.4c-11.1,0.4-19.9,9.5-19.9,20.7c0,11,8.6,20,19.4,20.7c4.6,17.9,15,35.9,29.7,50.9
			c15.8,16.2,34.6,26.8,54.2,30.9c1.6,9.8,10.2,17.4,20.5,17.4c11.4,0,20.8-9.3,20.8-20.8C1096.9,360.7,1087.6,351.4,1076.1,351.4z
			 M988.5,273c0,6.9-4.6,12.7-10.8,14.6c-0.3-1.5-0.6-3.1-0.8-4.6c4.1-1.5,7-5.4,7-10c0-4.5-2.8-8.4-6.8-10c0.3-1.5,0.6-3,0.9-4.5
			C984.1,260.5,988.5,266.2,988.5,273z M957.8,273c0-7.7,5.7-14.1,13.2-15.2c-0.4,1.7-0.7,3.3-0.9,4.9c-4.4,1.4-7.6,5.4-7.6,10.2
			c0,4.7,3.1,8.7,7.3,10.1c0.2,1.7,0.5,3.3,0.8,5C963.3,286.9,957.8,280.6,957.8,273z M1076.1,387.6c-6.9,0-12.8-4.7-14.7-11
			c1.7,0.3,3.5,0.5,5.2,0.6c1.8,3.4,5.3,5.7,9.5,5.7c5.9,0,10.7-4.8,10.7-10.7c0-5.9-4.8-10.7-10.7-10.7c-5.2,0-9.5,3.7-10.5,8.5
			c-1.5-0.2-3.1-0.4-4.6-0.6c1.3-7.1,7.6-12.5,15.1-12.5c8.5,0,15.4,6.9,15.4,15.4C1091.5,380.7,1084.6,387.6,1076.1,387.6z"/>
	</g>
	<g>
		<path d="M1200.5,308.7h-14.7c-0.1-0.7-0.1-1.3-0.1-1.6c-0.3-4.5-1.3-7.3-3-8.4c-1.6-1.1-5.5-1.7-11.5-1.7c-7.1,0-11.8,0.7-14,2
			c-2.2,1.3-3.3,4.1-3.3,8.3c0,5,0.9,8,2.7,9c1.8,1,7.7,1.8,17.7,2.3c11.8,0.7,19.5,2.3,23,5.1c3.5,2.7,5.2,8.4,5.2,16.9
			c0,10.6-2,17.4-6.1,20.5c-4.1,3.1-13.1,4.6-26.9,4.6c-12.5,0-20.8-1.5-24.9-4.5c-4.1-3-6.1-9.2-6.1-18.4l-0.1-2.9h14.7l0.1,1.7
			c0,5.5,1,8.9,2.9,10.2c1.9,1.2,7.2,1.9,15.9,1.9c6.8,0,11.1-0.7,12.9-2.2c1.9-1.4,2.8-4.8,2.8-10c0-3.8-0.7-6.4-2.1-7.7
			c-1.4-1.3-4.5-2-9.2-2.3l-8.3-0.5c-12.6-0.7-20.6-2.5-24.1-5.2c-3.5-2.8-5.2-8.7-5.2-17.7c0-9.3,2.1-15.4,6.3-18.5
			c4.2-3.1,12.6-4.6,25.2-4.6c11.9,0,20,1.4,24.1,4.2c4.2,2.8,6.2,8.4,6.2,16.6V308.7z"/>
		<path d="M1261.9,309.3v55.6h-13.3l0.8-9.5l-0.2-0.1c-2.6,6.8-8.6,10.2-17.9,10.2c-12.6,0-18.9-6.3-18.9-18.9v-37.4h13.3v34.2
			c0,4.7,0.7,7.8,2,9.3c1.3,1.5,4.1,2.2,8.2,2.2c8.5,0,12.8-5.1,12.8-15.4v-30.4H1261.9z"/>
		<path d="M1321.8,324.6h-13c-0.1-0.5-0.1-0.8-0.2-1c-0.3-2.7-1-4.3-2.3-5c-1.3-0.7-4.3-1-9.2-1c-6.9,0-10.4,2.3-10.4,6.8
			c0,3.1,0.6,4.9,1.8,5.5c1.2,0.6,5.4,1,12.4,1.4c9.5,0.5,15.7,1.7,18.6,3.8c2.9,2.1,4.3,6.3,4.3,12.6c0,6.8-1.9,11.5-5.7,14.1
			c-3.8,2.6-10.7,3.9-20.6,3.9c-9.5,0-16-1.2-19.5-3.5c-3.5-2.4-5.2-6.8-5.2-13.3v-1.4h13.8c-0.2,0.8-0.3,1.4-0.3,1.9
			c-0.5,4.9,3.3,7.4,11.4,7.4c8.4,0,12.6-2.4,12.6-7.3c0-4.7-2.6-7-7.9-7c-11.9,0-19.8-1.1-23.5-3.4c-3.8-2.2-5.7-6.9-5.7-14
			c0-6.4,1.7-10.7,5.2-12.9c3.5-2.2,10.1-3.4,19.9-3.4c9.3,0,15.5,1.1,18.7,3.3C1320.2,314,1321.8,318.3,1321.8,324.6z"/>
		<path d="M1370.2,309.3v10.1h-21.4v27.9c0,5.2,2,7.7,5.9,7.7c4.3,0,6.5-3.1,6.5-9.4v-2.2h11.3v2.8c0,2.6-0.1,4.8-0.2,6.6
			c-0.7,8.5-7.1,12.7-19,12.7c-11.9,0-17.8-5.5-17.8-16.4v-29.9h-7.2v-10.1h7.2v-12.5h13.3v12.5H1370.2z"/>
		<path d="M1415.7,347.1h13.4v2.2c0,10.9-8.1,16.3-24.4,16.3c-11.1,0-18.3-1.9-21.7-5.6c-3.4-3.8-5.1-11.7-5.1-23.9
			c0-10.8,1.8-18.1,5.4-21.8c3.6-3.7,10.5-5.6,20.9-5.6c9.9,0,16.6,1.8,20,5.4c3.4,3.6,5.1,10.8,5.1,21.4v4.1h-37.6
			c-0.1,1.2-0.1,2.1-0.1,2.4c0,5.5,0.8,9.1,2.5,10.9c1.7,1.8,5,2.7,10.1,2.7c4.9,0,8.1-0.5,9.5-1.6
			C1414.9,353,1415.7,350.7,1415.7,347.1z M1415.8,331.4l-0.1-2.2c0-4.4-0.8-7.3-2.3-8.6c-1.5-1.3-4.9-2-10-2c-5,0-8.2,0.8-9.7,2.4
			c-1.5,1.6-2.2,5.1-2.2,10.4H1415.8z"/>
		<path d="M1440.2,309.3h13.2l-0.5,9.4l0.3,0.1c2.6-6.7,8.4-10.1,17.5-10.1c13.1,0,19.7,6.1,19.7,18.4v37.9H1477v-33.5v-2.1
			l-0.3-3.9c-0.6-4.2-3.9-6.2-9.8-6.2c-9,0-13.4,4.2-13.4,12.7v33h-13.3V309.3z"/>
		<path d="M1539.3,309.3v10.1h-21.4v27.9c0,5.2,2,7.7,5.9,7.7c4.3,0,6.5-3.1,6.5-9.4v-2.2h11.3v2.8c0,2.6-0.1,4.8-0.2,6.6
			c-0.7,8.5-7.1,12.7-19,12.7c-11.9,0-17.8-5.5-17.8-16.4v-29.9h-7.2v-10.1h7.2v-12.5h13.3v12.5H1539.3z"/>
		<path d="M1562.7,325.4h-13.6c0-6.7,1.6-11.1,4.7-13.4c3.1-2.2,9.2-3.4,18.4-3.4c10,0,16.8,1.4,20.3,4.1c3.5,2.8,5.3,8,5.3,15.8
			v36.4h-13.3l0.6-7.6l-0.3-0.1c-2.6,5.5-8.5,8.3-17.7,8.3c-13.5,0-20.2-5.7-20.2-17.2c0-11.6,6.9-17.3,20.7-17.3
			c9.2,0,14.8,2.1,16.8,6.3h0.2v-9c0-4.3-0.8-7.2-2.3-8.6c-1.5-1.4-4.6-2.1-9.3-2.1C1566.1,317.6,1562.7,320.2,1562.7,325.4z
			 M1571.6,340c-7.5,0-11.3,2.6-11.3,7.8c0,3.6,0.8,6,2.3,7.1c1.6,1.1,4.8,1.7,9.8,1.7c8.1,0,12.2-2.7,12.2-8.2
			C1584.6,342.8,1580.3,340,1571.6,340z"/>
		<path d="M1611.1,364.9v-79.4h13.3v31.8l0.3,0.1c2.3-5.9,8.1-8.8,17.4-8.8c8,0,13.5,1.9,16.4,5.8c3,3.9,4.5,11.1,4.5,21.7
			c0,11.5-1.5,19.3-4.5,23.4c-3,4.1-8.8,6.1-17.3,6.1c-8.7,0-14.3-3.1-17-9.4h-0.3l0.6,8.8H1611.1z M1637.6,319.1
			c-8.7,0-13,5.4-13,16.1c0,8.4,0.7,13.8,2.2,16.2c1.5,2.4,4.8,3.6,10,3.6c5.4,0,8.9-1.1,10.4-3.3c1.5-2.2,2.3-7.2,2.3-15
			c0-7.3-0.7-12-2.2-14.3C1645.7,320.2,1642.5,319.1,1637.6,319.1z"/>
		<path d="M1687.4,285.5v79.4h-13.3v-79.4H1687.4z"/>
		<path d="M1736.4,347.1h13.4v2.2c0,10.9-8.1,16.3-24.4,16.3c-11.1,0-18.3-1.9-21.7-5.6c-3.4-3.8-5.1-11.7-5.1-23.9
			c0-10.8,1.8-18.1,5.4-21.8c3.6-3.7,10.5-5.6,20.9-5.6c9.9,0,16.6,1.8,20,5.4c3.4,3.6,5.1,10.8,5.1,21.4v4.1h-37.6
			c-0.1,1.2-0.1,2.1-0.1,2.4c0,5.5,0.8,9.1,2.5,10.9c1.7,1.8,5.1,2.7,10.1,2.7c4.9,0,8.1-0.5,9.5-1.6
			C1735.6,353,1736.4,350.7,1736.4,347.1z M1736.5,331.4l-0.1-2.2c0-4.4-0.8-7.3-2.3-8.6c-1.5-1.3-4.9-2-10-2c-5,0-8.2,0.8-9.7,2.4
			c-1.5,1.6-2.2,5.1-2.2,10.4H1736.5z"/>
	</g>
	<g>
		<path d="M1169,187.5v71.1h-9v-71.1h-21.8v-8.3h60.5v8.3H1169z"/>
		<path d="M1197.9,203v55.6h-8.2V203H1197.9z"/>
		<path d="M1226.9,203v60.7v2.4c0,9.2-3.8,13.8-11.5,13.8c-1.1,0-2.4-0.1-3.9-0.4v-5.8c0.5-0.1,0.8-0.1,0.9-0.1l1-0.1l3.4-1.1
			c1.2-1,1.9-4,1.9-8.7V203H1226.9z M1226.9,179.2v9.1h-8.1v-9.1H1226.9z"/>
		<path d="M1286.8,203v55.6h-8.1l0.6-7.3l-0.2-0.2c-2.8,5.5-8.9,8.3-18.2,8.3c-13,0-19.5-6.5-19.5-19.4v-37h8.2v37
			c0,5,0.8,8.4,2.5,10.1c1.7,1.7,4.9,2.6,9.8,2.6c6.4,0,10.8-1.3,13.2-3.8c2.4-2.5,3.6-7.2,3.6-14V203H1286.8z"/>
		<path d="M1310.4,218.6h-8.1c0-6.5,1.5-10.8,4.4-13.1c2.9-2.2,8.7-3.3,17.2-3.3c9.3,0,15.5,1.4,18.8,4.1c3.3,2.7,4.9,7.9,4.9,15.6
			v36.7h-8.1l0.6-6l-0.2-0.1c-3.1,4.6-9.4,6.9-18.9,6.9c-14,0-21.1-5.6-21.1-16.9c0-6.7,1.6-11.3,4.7-13.9c3.1-2.6,8.8-3.8,17-3.8
			c9.8,0,15.6,1.9,17.6,5.8l0.2-0.1v-6.8c0-6.4-0.9-10.5-2.6-12.4c-1.7-1.9-5.6-2.8-11.5-2.8c-10,0-15,2.8-15,8.4
			C1310.3,217.2,1310.3,217.8,1310.4,218.6z M1323.5,231.1c-6.2,0-10.3,0.7-12.2,2c-1.9,1.3-2.8,4.2-2.8,8.5c0,4.5,0.9,7.5,2.8,8.9
			c1.9,1.5,5.6,2.2,11.3,2.2c11.5,0,17.2-3.5,17.2-10.5c0-4.4-1.1-7.3-3.3-8.8C1334.2,231.8,1329.9,231.1,1323.5,231.1z"/>
		<path d="M1362.6,203h7.9l-0.2,7.6l0.2,0.2c2.5-5.7,8.6-8.6,18.5-8.6c7.9,0,13.3,1.4,16.1,4.2c2.8,2.8,4.2,8.1,4.2,16.1v36.2h-8.1
			v-35.5V221c0-4.8-0.9-8-2.7-9.6c-1.8-1.6-5.3-2.5-10.5-2.5c-11.4,0-17.2,5.4-17.2,16.2v33.5h-8.2V203z"/>
		<path d="M1432.5,218.6h-8.1c0-6.5,1.5-10.8,4.4-13.1c2.9-2.2,8.7-3.3,17.2-3.3c9.3,0,15.5,1.4,18.8,4.1c3.3,2.7,4.9,7.9,4.9,15.6
			v36.7h-8.1l0.6-6l-0.2-0.1c-3.1,4.6-9.4,6.9-18.9,6.9c-14,0-21.1-5.6-21.1-16.9c0-6.7,1.6-11.3,4.7-13.9c3.1-2.6,8.8-3.8,17-3.8
			c9.8,0,15.6,1.9,17.6,5.8l0.2-0.1v-6.8c0-6.4-0.9-10.5-2.6-12.4c-1.7-1.9-5.6-2.8-11.5-2.8c-10,0-15,2.8-15,8.4
			C1432.5,217.2,1432.5,217.8,1432.5,218.6z M1445.6,231.1c-6.2,0-10.3,0.7-12.2,2c-1.9,1.3-2.8,4.2-2.8,8.5c0,4.5,0.9,7.5,2.8,8.9
			c1.9,1.5,5.6,2.2,11.3,2.2c11.5,0,17.2-3.5,17.2-10.5c0-4.4-1.1-7.3-3.4-8.8C1456.4,231.8,1452.1,231.1,1445.6,231.1z"/>
	</g>
</g>
<g>
	<g>
		<path fill="#FFFFFF" d="M1074.1,191.7c11.4,0,20.8-9.3,20.8-20.8c0-11.4-9.3-20.8-20.8-20.8c-11.4,0-20.8,9.3-20.8,20.8
			C1053.4,182.4,1062.7,191.7,1074.1,191.7z M1074.1,155.5c8.5,0,15.4,6.9,15.4,15.4c0,8.5-6.9,15.4-15.4,15.4
			c-8.5,0-15.4-6.9-15.4-15.4C1058.8,162.4,1065.7,155.5,1074.1,155.5z"/>
		<circle fill="#FFFFFF" cx="1074.1" cy="170.9" r="10.7"/>
		<path fill="#FFFFFF" d="M1075,350.3c-10.1,0-18.6,7.3-20.4,16.9c-17.7-4.1-34.7-13.9-49.2-28.7c-13.4-13.7-23.1-30.4-27.6-46.7
			c8.6-2.5,14.9-10.5,14.9-19.9c0-9.3-6.1-17.1-14.5-19.8c6.4-22.1,22-47.3,42.6-61.5l-3.4,19.4l5,0.9l5.2-30l-30.3-3l-0.5,5l19.8,2
			c-22.1,15.4-38.8,42.7-45.5,66.4c-11.1,0.4-19.9,9.5-19.9,20.7c0,11,8.6,20,19.4,20.7c4.6,17.9,15,35.9,29.7,50.9
			c15.8,16.2,34.6,26.8,54.2,30.9c1.6,9.8,10.2,17.4,20.5,17.4c11.4,0,20.8-9.3,20.8-20.8C1095.7,359.6,1086.4,350.3,1075,350.3z
			 M987.4,271.9c0,6.9-4.6,12.7-10.8,14.6c-0.3-1.5-0.6-3.1-0.8-4.6c4.1-1.5,7-5.4,7-10c0-4.5-2.8-8.4-6.8-10c0.3-1.5,0.6-3,0.9-4.5
			C983,259.4,987.4,265.1,987.4,271.9z M956.6,271.9c0-7.7,5.7-14.1,13.2-15.2c-0.4,1.7-0.7,3.3-1,4.9c-4.4,1.4-7.6,5.4-7.6,10.2
			c0,4.7,3.1,8.7,7.3,10.1c0.2,1.7,0.5,3.3,0.8,5C962.2,285.8,956.6,279.5,956.6,271.9z M1075,386.4c-6.9,0-12.8-4.7-14.7-11
			c1.7,0.3,3.5,0.5,5.2,0.6c1.8,3.4,5.3,5.7,9.5,5.7c5.9,0,10.7-4.8,10.7-10.7c0-5.9-4.8-10.7-10.7-10.7c-5.2,0-9.5,3.7-10.5,8.5
			c-1.5-0.2-3.1-0.4-4.6-0.6c1.3-7.1,7.6-12.5,15.1-12.5c8.5,0,15.4,6.9,15.4,15.4C1090.4,379.5,1083.5,386.4,1075,386.4z"/>
	</g>
	<g>
		<path fill="#FFFFFF" d="M1199.4,307.5h-14.7c-0.1-0.7-0.1-1.3-0.1-1.6c-0.3-4.5-1.3-7.3-3-8.4c-1.6-1.1-5.5-1.7-11.5-1.7
			c-7.1,0-11.8,0.7-14,2c-2.2,1.3-3.3,4.1-3.3,8.3c0,5,0.9,8,2.7,9c1.8,1,7.7,1.8,17.7,2.3c11.8,0.7,19.5,2.3,23,5.1
			c3.5,2.7,5.2,8.4,5.2,16.9c0,10.6-2,17.4-6.1,20.5c-4.1,3.1-13.1,4.6-26.9,4.6c-12.5,0-20.8-1.5-24.9-4.5c-4.1-3-6.1-9.2-6.1-18.4
			l-0.1-2.9h14.7l0.1,1.7c0,5.5,1,8.9,2.9,10.2c1.9,1.2,7.2,1.9,15.9,1.9c6.8,0,11.1-0.7,12.9-2.2c1.9-1.4,2.8-4.8,2.8-10
			c0-3.8-0.7-6.4-2.1-7.7c-1.4-1.3-4.5-2-9.2-2.3l-8.3-0.5c-12.6-0.7-20.6-2.5-24.1-5.2c-3.5-2.8-5.2-8.7-5.2-17.7
			c0-9.3,2.1-15.4,6.3-18.5c4.2-3.1,12.6-4.6,25.2-4.6c11.9,0,20,1.4,24.1,4.2c4.2,2.8,6.2,8.4,6.2,16.6V307.5z"/>
		<path fill="#FFFFFF" d="M1260.8,308.2v55.6h-13.3l0.8-9.5l-0.2-0.1c-2.6,6.8-8.6,10.2-17.9,10.2c-12.6,0-18.9-6.3-18.9-18.9v-37.4
			h13.3v34.2c0,4.7,0.7,7.8,2,9.3c1.3,1.5,4.1,2.2,8.2,2.2c8.5,0,12.8-5.1,12.8-15.4v-30.4H1260.8z"/>
		<path fill="#FFFFFF" d="M1320.7,323.5h-13c-0.1-0.5-0.1-0.8-0.2-1c-0.3-2.7-1-4.3-2.3-5c-1.3-0.7-4.3-1-9.2-1
			c-6.9,0-10.4,2.3-10.4,6.8c0,3.1,0.6,4.9,1.8,5.5c1.2,0.6,5.4,1,12.4,1.4c9.5,0.5,15.7,1.7,18.6,3.8c2.9,2.1,4.3,6.3,4.3,12.6
			c0,6.8-1.9,11.5-5.7,14.1c-3.8,2.6-10.7,3.9-20.6,3.9c-9.5,0-16-1.2-19.5-3.5c-3.5-2.4-5.2-6.8-5.2-13.3v-1.4h13.8
			c-0.2,0.8-0.3,1.4-0.3,1.9c-0.5,4.9,3.3,7.4,11.4,7.4c8.4,0,12.6-2.4,12.6-7.3c0-4.7-2.6-7-7.9-7c-11.9,0-19.8-1.1-23.5-3.4
			c-3.8-2.2-5.7-6.9-5.7-14c0-6.4,1.7-10.7,5.2-12.9c3.5-2.2,10.1-3.4,19.9-3.4c9.3,0,15.5,1.1,18.7,3.3
			C1319.1,312.9,1320.7,317.2,1320.7,323.5z"/>
		<path fill="#FFFFFF" d="M1369.1,308.2v10.1h-21.4v27.9c0,5.2,2,7.7,5.9,7.7c4.3,0,6.5-3.1,6.5-9.4v-2.2h11.3v2.8
			c0,2.6-0.1,4.8-0.2,6.6c-0.7,8.5-7.1,12.7-19,12.7c-11.9,0-17.8-5.5-17.8-16.4v-29.9h-7.2v-10.1h7.2v-12.5h13.3v12.5H1369.1z"/>
		<path fill="#FFFFFF" d="M1414.6,346h13.4v2.2c0,10.9-8.1,16.3-24.4,16.3c-11.1,0-18.3-1.9-21.7-5.6c-3.4-3.8-5.1-11.7-5.1-23.9
			c0-10.8,1.8-18.1,5.4-21.8c3.6-3.7,10.5-5.6,20.9-5.6c9.9,0,16.6,1.8,20,5.4c3.4,3.6,5.1,10.8,5.1,21.4v4.1h-37.6
			c-0.1,1.2-0.1,2.1-0.1,2.4c0,5.5,0.8,9.1,2.5,10.9c1.7,1.8,5,2.7,10.1,2.7c4.9,0,8.1-0.5,9.5-1.6
			C1413.8,351.8,1414.6,349.5,1414.6,346z M1414.7,330.2l-0.1-2.2c0-4.4-0.8-7.3-2.3-8.6c-1.5-1.3-4.9-2-10-2c-5,0-8.2,0.8-9.7,2.4
			c-1.5,1.6-2.2,5.1-2.2,10.4H1414.7z"/>
		<path fill="#FFFFFF" d="M1439.1,308.2h13.2l-0.5,9.4l0.3,0.1c2.6-6.7,8.4-10.1,17.5-10.1c13.1,0,19.7,6.1,19.7,18.4v37.9h-13.3
			v-33.5v-2.1l-0.3-3.9c-0.6-4.2-3.9-6.2-9.8-6.2c-9,0-13.4,4.2-13.4,12.7v33h-13.3V308.2z"/>
		<path fill="#FFFFFF" d="M1538.2,308.2v10.1h-21.4v27.9c0,5.2,2,7.7,5.9,7.7c4.3,0,6.5-3.1,6.5-9.4v-2.2h11.3v2.8
			c0,2.6-0.1,4.8-0.2,6.6c-0.7,8.5-7.1,12.7-19,12.7c-11.9,0-17.8-5.5-17.8-16.4v-29.9h-7.2v-10.1h7.2v-12.5h13.3v12.5H1538.2z"/>
		<path fill="#FFFFFF" d="M1561.6,324.3H1548c0-6.7,1.6-11.1,4.7-13.4c3.1-2.2,9.2-3.4,18.4-3.4c10,0,16.8,1.4,20.3,4.1
			c3.5,2.8,5.3,8,5.3,15.8v36.4h-13.3l0.6-7.6l-0.3-0.1c-2.6,5.5-8.5,8.3-17.7,8.3c-13.5,0-20.2-5.7-20.2-17.2
			c0-11.6,6.9-17.3,20.7-17.3c9.2,0,14.8,2.1,16.8,6.3h0.2v-9c0-4.3-0.8-7.2-2.3-8.6c-1.5-1.4-4.6-2.1-9.3-2.1
			C1565,316.5,1561.6,319.1,1561.6,324.3z M1570.5,338.9c-7.5,0-11.3,2.6-11.3,7.8c0,3.6,0.8,6,2.3,7.1c1.6,1.1,4.8,1.7,9.8,1.7
			c8.1,0,12.2-2.7,12.2-8.2C1583.5,341.7,1579.2,338.9,1570.5,338.9z"/>
		<path fill="#FFFFFF" d="M1610,363.8v-79.4h13.3v31.8l0.3,0.1c2.3-5.9,8.1-8.8,17.4-8.8c8,0,13.5,1.9,16.4,5.8
			c3,3.9,4.5,11.1,4.5,21.7c0,11.5-1.5,19.3-4.5,23.4c-3,4.1-8.8,6.1-17.3,6.1c-8.7,0-14.3-3.1-17-9.4h-0.3l0.6,8.8H1610z
			 M1636.4,318c-8.7,0-13,5.4-13,16.1c0,8.4,0.7,13.8,2.2,16.2c1.5,2.4,4.8,3.6,10,3.6c5.4,0,8.9-1.1,10.4-3.3
			c1.5-2.2,2.3-7.2,2.3-15c0-7.3-0.7-12-2.2-14.3C1644.6,319.1,1641.4,318,1636.4,318z"/>
		<path fill="#FFFFFF" d="M1686.3,284.4v79.4H1673v-79.4H1686.3z"/>
		<path fill="#FFFFFF" d="M1735.2,346h13.4v2.2c0,10.9-8.1,16.3-24.4,16.3c-11.1,0-18.3-1.9-21.7-5.6c-3.4-3.8-5.1-11.7-5.1-23.9
			c0-10.8,1.8-18.1,5.4-21.8c3.6-3.7,10.5-5.6,20.9-5.6c9.9,0,16.6,1.8,20,5.4c3.4,3.6,5.1,10.8,5.1,21.4v4.1H1711
			c-0.1,1.2-0.1,2.1-0.1,2.4c0,5.5,0.8,9.1,2.5,10.9c1.7,1.8,5.1,2.7,10.1,2.7c4.9,0,8.1-0.5,9.5-1.6
			C1734.5,351.8,1735.2,349.5,1735.2,346z M1735.3,330.2l-0.1-2.2c0-4.4-0.8-7.3-2.3-8.6c-1.5-1.3-4.9-2-10-2c-5,0-8.2,0.8-9.7,2.4
			c-1.5,1.6-2.2,5.1-2.2,10.4H1735.3z"/>
	</g>
	<g>
		<path fill="#EEEEEE" d="M1167.9,186.4v71.1h-9v-71.1h-21.8v-8.3h60.5v8.3H1167.9z"/>
		<path fill="#EEEEEE" d="M1196.8,201.9v55.6h-8.2v-55.6H1196.8z"/>
		<path fill="#EEEEEE" d="M1225.7,201.9v60.7v2.4c0,9.2-3.8,13.8-11.5,13.8c-1.1,0-2.4-0.1-3.9-0.4v-5.8c0.5-0.1,0.8-0.1,0.9-0.1
			l1-0.1l3.4-1.1c1.2-1,1.9-4,1.9-8.7v-60.7H1225.7z M1225.7,178.1v9.1h-8.1v-9.1H1225.7z"/>
		<path fill="#EEEEEE" d="M1285.7,201.9v55.6h-8.1l0.6-7.3l-0.2-0.2c-2.8,5.5-8.9,8.3-18.2,8.3c-13,0-19.5-6.5-19.5-19.4v-37h8.2v37
			c0,5,0.8,8.4,2.5,10.1c1.7,1.7,4.9,2.6,9.8,2.6c6.4,0,10.8-1.3,13.2-3.8c2.4-2.5,3.6-7.2,3.6-14v-31.9H1285.7z"/>
		<path fill="#EEEEEE" d="M1309.2,217.5h-8.1c0-6.5,1.5-10.8,4.4-13.1c2.9-2.2,8.7-3.3,17.2-3.3c9.3,0,15.5,1.4,18.8,4.1
			c3.3,2.7,4.9,7.9,4.9,15.6v36.7h-8.1l0.6-6l-0.2-0.1c-3.1,4.6-9.4,6.9-18.9,6.9c-14,0-21.1-5.6-21.1-16.9c0-6.7,1.6-11.3,4.7-13.9
			c3.1-2.6,8.8-3.8,17-3.8c9.8,0,15.6,1.9,17.6,5.8l0.2-0.1v-6.8c0-6.4-0.9-10.5-2.6-12.4c-1.7-1.9-5.6-2.8-11.5-2.8
			c-10,0-15,2.8-15,8.4C1309.2,216.1,1309.2,216.6,1309.2,217.5z M1322.3,230c-6.2,0-10.3,0.7-12.2,2c-1.9,1.3-2.8,4.2-2.8,8.5
			c0,4.5,0.9,7.5,2.8,8.9c1.9,1.5,5.6,2.2,11.3,2.2c11.5,0,17.2-3.5,17.2-10.5c0-4.4-1.1-7.3-3.3-8.8
			C1333.1,230.7,1328.8,230,1322.3,230z"/>
		<path fill="#EEEEEE" d="M1361.5,201.9h7.9l-0.2,7.6l0.2,0.2c2.5-5.7,8.6-8.6,18.5-8.6c7.9,0,13.3,1.4,16.1,4.2
			c2.8,2.8,4.2,8.1,4.2,16.1v36.2h-8.1V222v-2.1c0-4.8-0.9-8-2.7-9.6c-1.8-1.6-5.3-2.5-10.5-2.5c-11.4,0-17.2,5.4-17.2,16.2v33.5
			h-8.2V201.9z"/>
		<path fill="#EEEEEE" d="M1431.4,217.5h-8.1c0-6.5,1.5-10.8,4.4-13.1c2.9-2.2,8.7-3.3,17.2-3.3c9.3,0,15.5,1.4,18.8,4.1
			c3.3,2.7,4.9,7.9,4.9,15.6v36.7h-8.1l0.6-6l-0.2-0.1c-3.1,4.6-9.4,6.9-18.9,6.9c-14,0-21.1-5.6-21.1-16.9c0-6.7,1.6-11.3,4.7-13.9
			c3.1-2.6,8.8-3.8,17-3.8c9.8,0,15.6,1.9,17.6,5.8l0.2-0.1v-6.8c0-6.4-0.9-10.5-2.6-12.4c-1.7-1.9-5.6-2.8-11.5-2.8
			c-10,0-15,2.8-15,8.4C1431.4,216.1,1431.4,216.6,1431.4,217.5z M1444.5,230c-6.2,0-10.3,0.7-12.2,2c-1.9,1.3-2.8,4.2-2.8,8.5
			c0,4.5,0.9,7.5,2.8,8.9c1.9,1.5,5.6,2.2,11.3,2.2c11.5,0,17.2-3.5,17.2-10.5c0-4.4-1.1-7.3-3.4-8.8
			C1455.3,230.7,1451,230,1444.5,230z"/>
	</g>
</g>
<g>
	<g>
		<path fill="#5EAA3C" d="M1071.5-212.4c11.5,0,20.8-9.3,20.8-20.8c0-11.5-9.3-20.8-20.8-20.8c-11.5,0-20.8,9.3-20.8,20.8
			C1050.7-221.7,1060-212.4,1071.5-212.4z M1071.5-248.6c8.5,0,15.4,6.9,15.4,15.4c0,8.5-6.9,15.4-15.4,15.4
			c-8.5,0-15.4-6.9-15.4-15.4C1056.1-241.7,1063-248.6,1071.5-248.6z"/>
		<circle fill="#5EAA3C" cx="1071.5" cy="-233.2" r="10.8"/>
		<path fill="#5EAA3C" d="M1072.3-53.4c-10.1,0-18.6,7.3-20.4,16.9c-17.8-4.1-34.8-13.9-49.3-28.7C989.2-78.9,979.5-95.6,975-112
			c8.6-2.5,15-10.5,15-20c0-9.3-6.1-17.2-14.6-19.9c6.4-22.1,22-47.4,42.7-61.7l-3.4,19.4l5,0.9l5.3-30.1l-30.4-3.1l-0.5,5.1l19.9,2
			c-22.2,15.5-38.9,42.8-45.6,66.6c-11.1,0.4-20,9.6-20,20.8c0,11,8.6,20,19.4,20.7c4.6,17.9,15,36,29.8,51
			c15.9,16.2,34.7,26.8,54.3,31c1.6,9.9,10.2,17.4,20.5,17.4c11.5,0,20.8-9.3,20.8-20.8C1093.2-44,1083.8-53.4,1072.3-53.4z
			 M984.5-132c0,6.9-4.6,12.7-10.9,14.6c-0.3-1.5-0.6-3.1-0.8-4.6c4.1-1.5,7-5.4,7-10.1c0-4.6-2.8-8.4-6.8-10c0.3-1.5,0.6-3,0.9-4.6
			C980.1-144.5,984.5-138.8,984.5-132z M953.7-132c0-7.7,5.8-14.1,13.2-15.2c-0.4,1.7-0.7,3.3-1,4.9c-4.4,1.4-7.6,5.4-7.6,10.2
			c0,4.7,3.1,8.7,7.3,10.2c0.2,1.7,0.5,3.3,0.8,5C959.2-118.1,953.7-124.4,953.7-132z M1072.3-17.1c-7,0-12.8-4.7-14.7-11
			c1.7,0.3,3.5,0.5,5.2,0.6c1.8,3.4,5.4,5.8,9.5,5.8c5.9,0,10.8-4.8,10.8-10.8c0-6-4.8-10.8-10.8-10.8c-5.2,0-9.5,3.7-10.5,8.6
			c-1.5-0.2-3.1-0.4-4.6-0.6c1.3-7.1,7.6-12.6,15.1-12.6c8.5,0,15.4,6.9,15.4,15.4C1087.8-24.1,1080.8-17.1,1072.3-17.1z"/>
	</g>
	<g>
		<path fill="#5EAA3C" d="M1197.1-96.2h-14.8c-0.1-0.7-0.1-1.3-0.1-1.6c-0.4-4.5-1.3-7.3-3-8.4c-1.6-1.1-5.5-1.7-11.6-1.7
			c-7.2,0-11.8,0.7-14,2c-2.2,1.3-3.3,4.1-3.3,8.3c0,5,0.9,8,2.7,9c1.8,1,7.7,1.8,17.7,2.3c11.9,0.7,19.5,2.4,23,5.1
			c3.5,2.7,5.2,8.4,5.2,17c0,10.6-2,17.4-6.1,20.5c-4.1,3.1-13.1,4.6-27,4.6c-12.5,0-20.8-1.5-24.9-4.6c-4.1-3-6.2-9.2-6.2-18.4
			l-0.1-2.9h14.7l0.1,1.7c0,5.6,1,9,2.9,10.2c1.9,1.2,7.3,1.9,15.9,1.9c6.8,0,11.1-0.7,12.9-2.2c1.9-1.4,2.8-4.8,2.8-10
			c0-3.9-0.7-6.4-2.1-7.7c-1.4-1.3-4.5-2-9.2-2.3l-8.3-0.5c-12.6-0.7-20.6-2.5-24.2-5.2c-3.5-2.8-5.3-8.7-5.3-17.8
			c0-9.3,2.1-15.5,6.3-18.6c4.2-3.1,12.7-4.6,25.3-4.6c12,0,20,1.4,24.2,4.3c4.2,2.8,6.2,8.4,6.2,16.6V-96.2z"/>
		<path fill="#5EAA3C" d="M1258.6-95.6v55.8h-13.4l0.8-9.6l-0.2-0.1c-2.6,6.8-8.6,10.3-18,10.3c-12.6,0-19-6.3-19-19v-37.5h13.4
			v34.2c0,4.7,0.7,7.9,2,9.4c1.3,1.5,4.1,2.2,8.2,2.2c8.6,0,12.8-5.1,12.8-15.4v-30.5H1258.6z"/>
		<path fill="#5EAA3C" d="M1318.7-80.2h-13.1c-0.1-0.5-0.1-0.8-0.2-1.1c-0.3-2.7-1-4.4-2.3-5c-1.3-0.7-4.3-1-9.2-1
			c-7,0-10.4,2.3-10.4,6.8c0,3.1,0.6,4.9,1.8,5.5c1.2,0.6,5.4,1,12.5,1.4c9.5,0.5,15.7,1.7,18.6,3.8c2.9,2.1,4.3,6.3,4.3,12.7
			c0,6.8-1.9,11.5-5.7,14.1c-3.8,2.6-10.7,3.9-20.6,3.9c-9.5,0-16-1.2-19.5-3.6c-3.5-2.4-5.3-6.8-5.3-13.3v-1.4h13.9
			c-0.2,0.8-0.3,1.4-0.4,1.9c-0.5,4.9,3.3,7.4,11.4,7.4c8.4,0,12.7-2.5,12.7-7.3c0-4.7-2.6-7.1-7.9-7.1c-11.9,0-19.8-1.1-23.6-3.4
			c-3.8-2.3-5.7-6.9-5.7-14.1c0-6.4,1.7-10.7,5.2-12.9c3.5-2.3,10.1-3.4,20-3.4c9.3,0,15.5,1.1,18.8,3.3
			C1317.1-90.8,1318.7-86.6,1318.7-80.2z"/>
		<path fill="#5EAA3C" d="M1367.2-95.6v10.2h-21.5v28c0,5.2,2,7.8,5.9,7.8c4.3,0,6.5-3.1,6.5-9.4v-2.2h11.4v2.8
			c0,2.6-0.1,4.8-0.2,6.6c-0.7,8.5-7.1,12.8-19,12.8c-11.9,0-17.9-5.5-17.9-16.4v-29.9h-7.2v-10.2h7.2v-12.5h13.4v12.5H1367.2z"/>
		<path fill="#5EAA3C" d="M1412.8-57.7h13.4v2.2c0,10.9-8.2,16.3-24.5,16.3c-11.1,0-18.3-1.9-21.8-5.7c-3.4-3.8-5.1-11.8-5.1-24
			c0-10.9,1.8-18.1,5.4-21.9c3.6-3.7,10.6-5.6,20.9-5.6c10,0,16.6,1.8,20,5.5c3.4,3.6,5.1,10.8,5.1,21.4v4.1h-37.7
			c-0.1,1.2-0.1,2.1-0.1,2.4c0,5.5,0.8,9.1,2.5,11c1.7,1.8,5.1,2.7,10.1,2.7c4.9,0,8.1-0.5,9.6-1.6
			C1412-51.8,1412.8-54.1,1412.8-57.7z M1412.9-73.5l-0.1-2.2c0-4.4-0.8-7.3-2.3-8.6c-1.5-1.3-4.9-2-10-2c-5,0-8.2,0.8-9.7,2.4
			c-1.5,1.6-2.2,5.1-2.2,10.4H1412.9z"/>
		<path fill="#5EAA3C" d="M1437.3-95.6h13.2l-0.5,9.4l0.3,0.1c2.6-6.7,8.4-10.1,17.5-10.1c13.2,0,19.8,6.1,19.8,18.4v38h-13.4v-33.6
			v-2.1l-0.3-3.9c-0.6-4.2-3.9-6.2-9.8-6.2c-9,0-13.5,4.3-13.5,12.8v33.1h-13.4V-95.6z"/>
		<path fill="#5EAA3C" d="M1536.7-95.6v10.2h-21.5v28c0,5.2,2,7.8,5.9,7.8c4.3,0,6.5-3.1,6.5-9.4v-2.2h11.4v2.8
			c0,2.6-0.1,4.8-0.2,6.6c-0.7,8.5-7.1,12.8-19,12.8c-11.9,0-17.8-5.5-17.8-16.4v-29.9h-7.2v-10.2h7.2v-12.5h13.4v12.5H1536.7z"/>
		<path fill="#5EAA3C" d="M1560.2-79.4h-13.6c0-6.7,1.6-11.2,4.7-13.4c3.1-2.3,9.3-3.4,18.5-3.4c10,0,16.8,1.4,20.4,4.1
			c3.5,2.8,5.3,8,5.3,15.8v36.5H1582l0.6-7.6l-0.4-0.1c-2.6,5.6-8.5,8.3-17.8,8.3c-13.5,0-20.2-5.7-20.2-17.2
			c0-11.6,6.9-17.4,20.7-17.4c9.2,0,14.8,2.1,16.8,6.4h0.2v-9c0-4.4-0.8-7.2-2.3-8.7c-1.5-1.4-4.6-2.1-9.3-2.1
			C1563.6-87.2,1560.2-84.6,1560.2-79.4z M1569.1-64.8c-7.5,0-11.3,2.6-11.3,7.8c0,3.6,0.8,6,2.3,7.1c1.6,1.1,4.8,1.7,9.8,1.7
			c8.1,0,12.2-2.7,12.2-8.2C1582.1-62,1577.8-64.8,1569.1-64.8z"/>
		<path fill="#5EAA3C" d="M1608.7-39.8v-79.6h13.4v31.9l0.3,0.1c2.3-5.9,8.1-8.8,17.4-8.8c8,0,13.5,2,16.5,5.9
			c3,3.9,4.5,11.2,4.5,21.7c0,11.6-1.5,19.4-4.5,23.4c-3,4.1-8.8,6.1-17.4,6.1c-8.7,0-14.4-3.1-17.1-9.4h-0.3l0.6,8.8H1608.7z
			 M1635.2-85.7c-8.7,0-13,5.4-13,16.2c0,8.4,0.7,13.9,2.2,16.2c1.5,2.4,4.8,3.6,10,3.6c5.4,0,8.9-1.1,10.4-3.3
			c1.5-2.2,2.3-7.2,2.3-15.1c0-7.3-0.8-12.1-2.2-14.3C1643.4-84.6,1640.2-85.7,1635.2-85.7z"/>
		<path fill="#5EAA3C" d="M1685.2-119.5v79.6h-13.4v-79.6H1685.2z"/>
		<path fill="#5EAA3C" d="M1734.3-57.7h13.4v2.2c0,10.9-8.2,16.3-24.5,16.3c-11.1,0-18.3-1.9-21.8-5.7c-3.4-3.8-5.1-11.8-5.1-24
			c0-10.9,1.8-18.1,5.4-21.9c3.6-3.7,10.6-5.6,20.9-5.6c10,0,16.6,1.8,20,5.5c3.4,3.6,5.1,10.8,5.1,21.4v4.1h-37.7
			c-0.1,1.2-0.1,2.1-0.1,2.4c0,5.5,0.8,9.1,2.5,11c1.7,1.8,5.1,2.7,10.1,2.7c4.9,0,8.1-0.5,9.6-1.6
			C1733.5-51.8,1734.3-54.1,1734.3-57.7z M1734.4-73.5l-0.1-2.2c0-4.4-0.8-7.3-2.3-8.6c-1.5-1.3-4.9-2-10-2c-5,0-8.2,0.8-9.7,2.4
			c-1.5,1.6-2.2,5.1-2.2,10.4H1734.4z"/>
	</g>
	<path fill="#2E2A25" d="M1165.5-217.7v71.3h-9v-71.3h-21.8v-8.3h60.7v8.3H1165.5z"/>
	<path fill="#2E2A25" d="M1194.5-202.2v55.8h-8.2v-55.8H1194.5z"/>
	<path fill="#2E2A25" d="M1223.5-202.2v60.9v2.4c0,9.2-3.8,13.8-11.5,13.8c-1.1,0-2.4-0.1-3.9-0.4v-5.8c0.5-0.1,0.8-0.1,0.9-0.1
		l1-0.1l3.4-1.1c1.2-1,1.9-4,1.9-8.7v-60.9H1223.5z M1223.5-226.1v9.2h-8.2v-9.2H1223.5z"/>
	<path fill="#2E2A25" d="M1283.6-202.2v55.8h-8.2l0.6-7.3l-0.2-0.2c-2.8,5.5-8.9,8.3-18.2,8.3c-13,0-19.5-6.5-19.5-19.5v-37.1h8.2
		v37.1c0,5.1,0.8,8.4,2.5,10.1c1.7,1.7,5,2.6,9.9,2.6c6.4,0,10.8-1.3,13.2-3.8c2.4-2.5,3.6-7.2,3.6-14v-32H1283.6z"/>
	<path fill="#2E2A25" d="M1307.2-186.6h-8.1c0-6.5,1.5-10.9,4.4-13.1c2.9-2.2,8.7-3.4,17.2-3.4c9.3,0,15.6,1.4,18.8,4.1
		c3.3,2.7,4.9,8,4.9,15.7v36.8h-8.2l0.6-6l-0.2-0.1c-3.1,4.6-9.4,6.9-19,6.9c-14.1,0-21.1-5.7-21.1-17c0-6.7,1.6-11.4,4.7-13.9
		c3.1-2.6,8.8-3.8,17.1-3.8c9.8,0,15.7,1.9,17.6,5.8l0.2-0.1v-6.8c0-6.4-0.9-10.5-2.6-12.4c-1.8-1.9-5.6-2.8-11.5-2.8
		c-10,0-15,2.8-15,8.5C1307.1-187.9,1307.2-187.4,1307.2-186.6z M1320.3-174c-6.3,0-10.3,0.7-12.2,2c-1.9,1.3-2.8,4.2-2.8,8.5
		c0,4.5,0.9,7.5,2.8,9c1.9,1.5,5.7,2.2,11.4,2.2c11.5,0,17.3-3.5,17.3-10.5c0-4.4-1.1-7.3-3.4-8.9
		C1331.1-173.3,1326.8-174,1320.3-174z"/>
	<path fill="#2E2A25" d="M1359.6-202.2h7.9l-0.2,7.6l0.2,0.2c2.5-5.7,8.7-8.6,18.5-8.6c8,0,13.4,1.4,16.2,4.2
		c2.8,2.8,4.2,8.2,4.2,16.1v36.3h-8.2V-182v-2.1c0-4.8-0.9-8-2.7-9.7c-1.8-1.7-5.3-2.5-10.6-2.5c-11.5,0-17.2,5.4-17.2,16.3v33.5
		h-8.2V-202.2z"/>
	<path fill="#2E2A25" d="M1429.7-186.6h-8.1c0-6.5,1.5-10.9,4.4-13.1c2.9-2.2,8.7-3.4,17.2-3.4c9.3,0,15.6,1.4,18.8,4.1
		c3.3,2.7,4.9,8,4.9,15.7v36.8h-8.2l0.6-6l-0.2-0.1c-3.1,4.6-9.4,6.9-19,6.9c-14.1,0-21.1-5.7-21.1-17c0-6.7,1.6-11.4,4.7-13.9
		c3.2-2.6,8.8-3.8,17.1-3.8c9.8,0,15.7,1.9,17.6,5.8l0.2-0.1v-6.8c0-6.4-0.9-10.5-2.6-12.4c-1.7-1.9-5.6-2.8-11.5-2.8
		c-10,0-15,2.8-15,8.5C1429.6-187.9,1429.7-187.4,1429.7-186.6z M1442.8-174c-6.3,0-10.3,0.7-12.2,2c-1.9,1.3-2.8,4.2-2.8,8.5
		c0,4.5,0.9,7.5,2.8,9c1.9,1.5,5.7,2.2,11.4,2.2c11.5,0,17.3-3.5,17.3-10.5c0-4.4-1.1-7.3-3.4-8.9
		C1453.6-173.3,1449.3-174,1442.8-174z"/>
</g>
</svg>
