<?xml version="1.0" encoding="utf-8"?>
<!-- Generator: Adobe Illustrator 16.0.0, SVG Export Plug-In . SVG Version: 6.00 Build 0)  -->
<!DOCTYPE svg PUBLIC "-//W3C//DTD SVG 1.1//EN" "http://www.w3.org/Graphics/SVG/1.1/DTD/svg11.dtd">
<svg version="1.1" id="Layer_1" xmlns="http://www.w3.org/2000/svg" xmlns:xlink="http://www.w3.org/1999/xlink" x="0px" y="0px"
	 width="1500px" height="800px" viewBox="0 0 1500 800" enable-background="new 0 0 1500 800" xml:space="preserve">
<g id="Layer_1_1_">
	<g>
		<g>
			<rect fill="#ED2246" width="1500" height="800"/>
		</g>
		<g opacity="0.3" enable-background="new    ">
			<polygon fill="#BD1B38" points="1444.9,800 377.2,0 0,0 0,210.3 276,800 			"/>
		</g>
	</g>
</g>
<g id="Layer_3">
</g>
<g id="Layer_2">
	<g>
		<g>
			<g>
				<g>
					<path fill="#BD1B38" stroke="#010101" stroke-width="5" stroke-miterlimit="10" d="M622.5,352.8"/>
				</g>
			</g>
		</g>
		<g>
			<g>
				<g>
					<g>
						<rect x="383.2" y="460.4" fill="#BD1B38" width="11.4" height="68.2"/>
					</g>
				</g>
			</g>
			<g>
				<g>
					<g>
						<polygon fill="#BD1B38" points="406.8,460.4 394.5,496.1 406.7,528.5 417.5,528.5 405.3,496.1 417.7,460.4 						"/>
					</g>
				</g>
			</g>
			<g>
				<g>
					<g>
						<path fill="#BD1B38" d="M449.8,460.4v40.3l11.4-40.3h7.2c0,0,1.3,0.3,2.7,2.1c1,1.2,1.3,2.7,1.3,2.7v63.4h-11v-34.1
							l-11.5,34.1h-11.5v-63.4c0,0,0.3-1.4,1.7-3c1.1-1.2,2.8-1.8,2.8-1.8H449.8L449.8,460.4z"/>
					</g>
				</g>
			</g>
			<g>
				<g>
					<g>
						<path fill="#BD1B38" d="M501.9,513.7c0,0,1.3-0.1,3.7-2.2c2.6-2.2,3.3-4.3,3.3-4.3v-26.5c0,0-1-2.8-2.8-4.6
							c-1.8-1.8-4.2-2.8-4.2-2.8h-5.2v-4.5h11.6v-8.5h-16.4h-16.4v8.5H487v4.5h-5.2c0,0-2.4,1-4.2,2.8c-1.8,1.8-2.8,4.6-2.8,4.6
							v26.5c0,0,0.8,2.1,3.3,4.3c2.4,2.1,3.7,2.2,3.7,2.2h4.7v5h-11.4v9.8h16.7h16.7v-9.8h-11.4v-5H501.9z M491.8,504.4h-5.7v-21.6
							h5.7h5.7v21.6H491.8z"/>
					</g>
				</g>
			</g>
			<g>
				<g>
					<g>
						<rect x="511.1" y="460.4" fill="#BD1B38" width="11.4" height="68.2"/>
					</g>
				</g>
			</g>
			<g>
				<g>
					<g>
						<polygon fill="#BD1B38" points="534.8,460.4 522.5,496.1 534.6,528.5 545.5,528.5 533.3,496.1 545.6,460.4 						"/>
					</g>
				</g>
			</g>
			<g>
				<g>
					<g>
						<polygon fill="#BD1B38" points="435.9,460.4 416.2,460.4 420,528.5 432.1,528.5 						"/>
					</g>
				</g>
			</g>
			<g>
				<g>
					<g>
						<rect x="415.2" y="537.8" fill="#BD1B38" width="19.8" height="13.5"/>
					</g>
				</g>
			</g>
			<g>
				<g>
					<g>
						<polygon fill="#BD1B38" points="546.8,528.4 561.4,528.4 558.6,478 549.6,478 						"/>
					</g>
				</g>
			</g>
			<g>
				<g>
					<g>
						<rect x="546.8" y="460.4" fill="#BD1B38" width="14.6" height="10"/>
					</g>
				</g>
			</g>
			<g>
				<g>
					<g>
						<g>
							<path fill="#BD1B38" d="M437.2,538.9h2.3v0.6h-1.6v1.1h1.5v0.6h-1.5v1.7h-0.7V538.9L437.2,538.9z"/>
						</g>
					</g>
				</g>
				<g>
					<g>
						<g>
							<path fill="#BD1B38" d="M445.1,541.1h-1.5v1.2h1.7v0.6h-2.4v-4h2.3v0.6h-1.6v1h1.5V541.1z"/>
						</g>
					</g>
				</g>
				<g>
					<g>
						<g>
							<path fill="#BD1B38" d="M448.5,542.1c0.2,0.1,0.6,0.3,1,0.3c0.5,0,0.7-0.2,0.7-0.5c0-0.3-0.2-0.5-0.7-0.7
								c-0.7-0.2-1.1-0.6-1.1-1.2c0-0.7,0.6-1.2,1.4-1.2c0.4,0,0.8,0.1,1,0.2l-0.2,0.6c-0.1-0.1-0.4-0.2-0.8-0.2
								c-0.5,0-0.7,0.3-0.7,0.5c0,0.3,0.2,0.5,0.8,0.7c0.7,0.3,1,0.6,1,1.2c0,0.6-0.5,1.2-1.5,1.2c-0.4,0-0.9-0.1-1.1-0.3
								L448.5,542.1z"/>
						</g>
					</g>
				</g>
				<g>
					<g>
						<g>
							<path fill="#BD1B38" d="M455,539.5h-1.1v-0.6h3v0.6h-1.2v3.4H455V539.5z"/>
						</g>
					</g>
				</g>
				<g>
					<g>
						<g>
							<path fill="#BD1B38" d="M460.7,538.9v4H460v-4H460.7z"/>
						</g>
					</g>
				</g>
				<g>
					<g>
						<g>
							<path fill="#BD1B38" d="M465.1,542.9l-1.3-4h0.8l0.5,1.8c0.2,0.5,0.3,1,0.4,1.5l0,0c0.1-0.5,0.2-1,0.4-1.4l0.6-1.8h0.8
								l-1.4,4L465.1,542.9L465.1,542.9z"/>
						</g>
					</g>
				</g>
				<g>
					<g>
						<g>
							<path fill="#BD1B38" d="M470.9,541.7l-0.3,1.1h-0.8l1.3-4h0.9l1.3,4h-0.8l-0.4-1.1H470.9z M472,541.2l-0.3-1
								c-0.1-0.2-0.1-0.5-0.2-0.7l0,0c-0.1,0.2-0.1,0.5-0.2,0.7l-0.3,1H472z"/>
						</g>
					</g>
				</g>
				<g>
					<g>
						<g>
							<path fill="#BD1B38" d="M476.5,538.9h0.7v3.4h1.6v0.6h-2.4L476.5,538.9L476.5,538.9z"/>
						</g>
					</g>
				</g>
				<g>
					<g>
						<g>
							<path fill="#BD1B38" d="M486.6,538.9v4h-0.7v-4H486.6z"/>
						</g>
					</g>
				</g>
				<g>
					<g>
						<g>
							<path fill="#BD1B38" d="M490.1,542.9v-4h0.8l1,1.7c0.3,0.4,0.5,0.9,0.7,1.3l0,0c0-0.5-0.1-1.1-0.1-1.7v-1.4h0.7v4h-0.8
								l-1-1.8c-0.3-0.4-0.5-0.9-0.7-1.4l0,0c0,0.5,0,1,0,1.7v1.4h-0.6V542.9z"/>
						</g>
					</g>
				</g>
				<g>
					<g>
						<g>
							<path fill="#BD1B38" d="M497.5,539.5h-1.1v-0.6h3v0.6h-1.2v3.4h-0.7V539.5L497.5,539.5z"/>
						</g>
					</g>
				</g>
				<g>
					<g>
						<g>
							<path fill="#BD1B38" d="M504.7,541.1h-1.5v1.2h1.7v0.6h-2.4v-4h2.3v0.6h-1.6v1h1.5V541.1z"/>
						</g>
					</g>
				</g>
				<g>
					<g>
						<g>
							<path fill="#BD1B38" d="M508.2,538.9c0.3,0,0.7-0.1,1.1-0.1c0.6,0,1,0.1,1.2,0.3c0.2,0.2,0.3,0.5,0.3,0.8
								c0,0.5-0.3,0.9-0.7,1l0,0c0.3,0.1,0.5,0.4,0.6,0.8c0.1,0.5,0.2,1,0.3,1.1h-0.8c-0.1-0.1-0.2-0.4-0.3-0.9
								c-0.1-0.5-0.3-0.7-0.7-0.7h-0.4v1.6h-0.7v-3.9H508.2z M508.9,540.7h0.4c0.5,0,0.8-0.3,0.8-0.7s-0.3-0.6-0.8-0.6
								c-0.2,0-0.4,0-0.4,0V540.7z"/>
						</g>
					</g>
				</g>
				<g>
					<g>
						<g>
							<path fill="#BD1B38" d="M514.2,542.9v-4h0.8l1,1.7c0.3,0.4,0.5,0.9,0.7,1.3l0,0c0-0.5-0.1-1.1-0.1-1.7v-1.4h0.7v4h-0.8
								l-1-1.8c-0.3-0.4-0.5-0.9-0.7-1.4l0,0c0,0.5,0,1,0,1.7v1.4h-0.6V542.9z"/>
						</g>
					</g>
				</g>
				<g>
					<g>
						<g>
							<path fill="#BD1B38" d="M521.6,541.7l-0.3,1.1h-0.8l1.3-4h0.9l1.3,4h-0.8l-0.4-1.1H521.6z M522.8,541.2l-0.3-1
								c-0.1-0.2-0.1-0.5-0.2-0.7l0,0c-0.1,0.2-0.1,0.5-0.2,0.7l-0.3,1H522.8z"/>
						</g>
					</g>
				</g>
				<g>
					<g>
						<g>
							<path fill="#BD1B38" d="M530,542.7c-0.2,0.1-0.6,0.2-1,0.2c-1.3,0-2-0.8-2-2c0-1.3,0.9-2.1,2.1-2.1c0.5,0,0.8,0.1,1,0.2
								l-0.2,0.6c-0.2-0.1-0.5-0.2-0.8-0.2c-0.8,0-1.4,0.5-1.4,1.5c0,0.9,0.5,1.4,1.4,1.4c0.3,0,0.6-0.1,0.8-0.1L530,542.7z"/>
						</g>
					</g>
				</g>
				<g>
					<g>
						<g>
							<path fill="#BD1B38" d="M534,538.9v4h-0.7v-4H534z"/>
						</g>
					</g>
				</g>
				<g>
					<g>
						<g>
							<path fill="#BD1B38" d="M541,540.8c0,1.3-0.8,2.1-1.9,2.1c-1.1,0-1.8-0.9-1.8-2c0-1.2,0.8-2.1,1.9-2.1
								C540.3,538.8,541,539.7,541,540.8z M538,540.9c0,0.8,0.4,1.5,1.1,1.5c0.7,0,1.1-0.7,1.1-1.5c0-0.8-0.4-1.5-1.1-1.5
								C538.4,539.4,538,540.1,538,540.9z"/>
						</g>
					</g>
				</g>
				<g>
					<g>
						<g>
							<path fill="#BD1B38" d="M544.3,542.9v-4h0.8l1,1.7c0.3,0.4,0.5,0.9,0.7,1.3l0,0c0-0.5-0.1-1.1-0.1-1.7v-1.4h0.7v4h-0.8
								l-1.1-1.8c-0.3-0.4-0.5-0.9-0.7-1.4l0,0c0,0.5,0,1,0,1.7v1.4h-0.5V542.9z"/>
						</g>
					</g>
				</g>
				<g>
					<g>
						<g>
							<path fill="#BD1B38" d="M551.7,541.7l-0.3,1.1h-0.8l1.3-4h0.9l1.3,4h-0.8l-0.4-1.1H551.7z M552.8,541.2l-0.3-1
								c-0.1-0.2-0.1-0.5-0.2-0.7l0,0c-0.1,0.2-0.1,0.5-0.2,0.7l-0.3,1H552.8z"/>
						</g>
					</g>
				</g>
				<g>
					<g>
						<g>
							<path fill="#BD1B38" d="M557.3,538.9h0.7v3.4h1.7v0.6h-2.4V538.9z"/>
						</g>
					</g>
				</g>
				<g>
					<g>
						<g>
							<path fill="#BD1B38" d="M437.2,546c0.3,0,0.7-0.1,1.2-0.1c0.8,0,1.3,0.2,1.6,0.5c0.4,0.3,0.6,0.8,0.6,1.5
								c0,0.7-0.2,1.3-0.6,1.6c-0.4,0.4-1,0.5-1.8,0.5c-0.4,0-0.7,0-1-0.1V546L437.2,546z M437.9,549.4c0.1,0,0.3,0,0.4,0
								c1,0,1.5-0.5,1.5-1.5c0-0.9-0.5-1.4-1.4-1.4c-0.2,0-0.4,0-0.5,0V549.4z"/>
						</g>
					</g>
				</g>
				<g>
					<g>
						<g>
							<path fill="#BD1B38" d="M446.2,548.2h-1.5v1.2h1.7v0.6H444v-4h2.3v0.6h-1.6v1h1.5V548.2z"/>
						</g>
					</g>
				</g>
				<g>
					<g>
						<g>
							<path fill="#BD1B38" d="M460.4,549.9c-0.2,0.1-0.5,0.2-1,0.2c-1.3,0-2-0.8-2-2c0-1.3,0.9-2.1,2.1-2.1c0.5,0,0.8,0.1,1,0.2
								l-0.2,0.6c-0.2-0.1-0.5-0.2-0.8-0.2c-0.8,0-1.4,0.5-1.4,1.5c0,0.9,0.5,1.4,1.4,1.4c0.3,0,0.6-0.1,0.8-0.2L460.4,549.9z"/>
						</g>
					</g>
				</g>
				<g>
					<g>
						<g>
							<path fill="#BD1B38" d="M464.4,546v4h-0.7v-4H464.4z"/>
						</g>
					</g>
				</g>
				<g>
					<g>
						<g>
							<path fill="#BD1B38" d="M468,550v-4h0.8l1,1.7c0.3,0.4,0.5,0.9,0.7,1.3l0,0c0-0.5-0.1-1.1-0.1-1.7V546h0.7v4h-0.8l-1-1.8
								c-0.3-0.4-0.5-0.9-0.7-1.4l0,0c0,0.5,0,1.1,0,1.7v1.4L468,550L468,550z"/>
						</g>
					</g>
				</g>
				<g>
					<g>
						<g>
							<path fill="#BD1B38" d="M476.9,548.2h-1.5v1.2h1.7v0.6h-2.4v-4h2.3v0.6h-1.6v1h1.5V548.2z"/>
						</g>
					</g>
				</g>
				<g>
					<g>
						<g>
							<path fill="#BD1B38" d="M489,546v2.3c0,0.8,0.3,1.2,0.8,1.2s0.8-0.4,0.8-1.2V546h0.7v2.3c0,1.2-0.6,1.8-1.6,1.8
								c-0.9,0-1.5-0.5-1.5-1.8V546H489z"/>
						</g>
					</g>
				</g>
				<g>
					<g>
						<g>
							<path fill="#BD1B38" d="M494.9,550v-4h0.8l1,1.7c0.3,0.4,0.5,0.9,0.7,1.3l0,0c0-0.5-0.1-1.1-0.1-1.7V546h0.7v4h-0.8l-1-1.8
								c-0.3-0.4-0.5-0.9-0.7-1.4l0,0c0,0.5,0,1.1,0,1.7v1.4L494.9,550L494.9,550z"/>
						</g>
					</g>
				</g>
				<g>
					<g>
						<g>
							<path fill="#BD1B38" d="M502.3,546v4h-0.7v-4H502.3z"/>
						</g>
					</g>
				</g>
				<g>
					<g>
						<g>
							<path fill="#BD1B38" d="M506.8,550l-1.3-4h0.8l0.6,1.8c0.2,0.5,0.3,1,0.4,1.5l0,0c0.1-0.5,0.3-1,0.4-1.4l0.6-1.8h0.8l-1.4,4
								L506.8,550L506.8,550z"/>
						</g>
					</g>
				</g>
				<g>
					<g>
						<g>
							<path fill="#BD1B38" d="M514.4,548.2h-1.5v1.2h1.7v0.6h-2.4v-4h2.3v0.6h-1.6v1h1.5V548.2z"/>
						</g>
					</g>
				</g>
				<g>
					<g>
						<g>
							<path fill="#BD1B38" d="M517.9,546c0.3,0,0.7-0.1,1.1-0.1c0.6,0,1,0.1,1.2,0.3s0.3,0.5,0.3,0.8c0,0.5-0.4,0.9-0.7,1l0,0
								c0.3,0.1,0.5,0.4,0.6,0.8c0.1,0.5,0.2,1,0.3,1.1H520c-0.1-0.1-0.2-0.4-0.3-0.9c-0.1-0.5-0.3-0.7-0.7-0.7h-0.4v1.7h-0.7V546
								L517.9,546z M518.6,547.8h0.4c0.5,0,0.8-0.3,0.8-0.7c0-0.4-0.3-0.6-0.8-0.6c-0.2,0-0.4,0-0.5,0L518.6,547.8L518.6,547.8z"/>
						</g>
					</g>
				</g>
				<g>
					<g>
						<g>
							<path fill="#BD1B38" d="M523.9,549.2c0.2,0.1,0.6,0.3,1,0.3c0.5,0,0.7-0.2,0.7-0.5s-0.2-0.5-0.7-0.7
								c-0.7-0.2-1.1-0.6-1.1-1.2c0-0.7,0.5-1.2,1.4-1.2c0.4,0,0.8,0.1,1,0.2l-0.2,0.6c-0.1-0.1-0.4-0.2-0.8-0.2
								c-0.5,0-0.7,0.2-0.7,0.5s0.2,0.5,0.8,0.7c0.7,0.3,1,0.6,1,1.2c0,0.6-0.5,1.2-1.5,1.2c-0.4,0-0.9-0.1-1.1-0.2L523.9,549.2z"/>
						</g>
					</g>
				</g>
				<g>
					<g>
						<g>
							<path fill="#BD1B38" d="M530.4,546v4h-0.7v-4H530.4z"/>
						</g>
					</g>
				</g>
				<g>
					<g>
						<g>
							<path fill="#BD1B38" d="M534.7,546.6h-1.1V546h3v0.6h-1.1v3.4h-0.7L534.7,546.6L534.7,546.6z"/>
						</g>
					</g>
				</g>
				<g>
					<g>
						<g>
							<path fill="#BD1B38" d="M540.1,548.9l-0.3,1.1H539l1.3-4h0.9l1.3,4h-0.8l-0.4-1.1H540.1z M541.3,548.3l-0.3-1
								c-0.1-0.2-0.1-0.5-0.2-0.8l0,0c-0.1,0.2-0.1,0.5-0.2,0.8l-0.3,1H541.3z"/>
						</g>
					</g>
				</g>
				<g>
					<g>
						<g>
							<path fill="#BD1B38" d="M545.8,546c0.3,0,0.7-0.1,1.1-0.1c0.6,0,1,0.1,1.2,0.3c0.2,0.2,0.3,0.5,0.3,0.8c0,0.5-0.4,0.9-0.7,1
								l0,0c0.3,0.1,0.5,0.4,0.6,0.8c0.1,0.5,0.2,1,0.3,1.1h-0.8c-0.1-0.1-0.2-0.4-0.3-0.9s-0.3-0.7-0.7-0.7h-0.4v1.7h-0.7
								L545.8,546L545.8,546z M546.5,547.8h0.4c0.5,0,0.8-0.3,0.8-0.7c0-0.4-0.3-0.6-0.8-0.6c-0.2,0-0.4,0-0.4,0V547.8z"/>
						</g>
					</g>
				</g>
				<g>
					<g>
						<g>
							<path fill="#BD1B38" d="M552.6,546v4h-0.7v-4H552.6z"/>
						</g>
					</g>
				</g>
				<g>
					<g>
						<g>
							<path fill="#BD1B38" d="M559.7,548c0,1.3-0.8,2.1-1.9,2.1c-1.1,0-1.8-0.9-1.8-2c0-1.2,0.8-2.1,1.9-2.1
								C559,545.9,559.7,546.8,559.7,548z M556.7,548c0,0.8,0.4,1.5,1.1,1.5s1.1-0.7,1.1-1.5s-0.4-1.5-1.1-1.5
								S556.7,547.2,556.7,548z"/>
						</g>
					</g>
				</g>
			</g>
		</g>
		<g>
			<g>
				<path fill="#BD1B38" d="M369.4,397.1c-18.5,0-32.4-8.7-40.3-25.2c-6.4-13.3-7.3-28.6-7.3-36.4c0-10.6,5.9-26.7,17.5-37.8
					l-4.4-6.5c-15.2,11.5-25,29.7-25,50.2c0,34.7,28.2,62.9,62.9,62.9c11.8,0,22.9-3.3,32.3-8.9l-4.6-6.8
					C392.5,393.7,382.2,397.1,369.4,397.1z"/>
			</g>
			<g>
				<path fill="#BD1B38" d="M369.7,293.5h-0.3c-7.2,0-13.4,2.3-18.7,5.8l51.7,76.7c11.4-11,15.7-26.6,15.7-36.1
					C418.1,335.2,416.8,293.5,369.7,293.5z"/>
			</g>
			<g>
				<path fill="#BD1B38" d="M330.3,335.4c0,7.2,0.8,21,6.5,32.8c6.5,13.5,17.4,20.4,32.6,20.4c10.8,0,19.5-2.8,26.3-7.2l-51.6-76.5
					C335.1,314.1,330.3,327.1,330.3,335.4z"/>
			</g>
			<g>
				<path fill="#BD1B38" d="M435.7,341.3c0-34.7-28.2-62.9-62.9-62.9c-11.2,0-21.6,2.9-30.7,8l3.9,5.8c6.5-4.4,14.4-7.2,23.4-7.2
					h0.3c44.9,0,56.9,34.5,56.9,54.9c0,11.4-5.3,30.4-19.3,43.3l4.8,7.2C426.5,378.9,435.7,361.2,435.7,341.3z"/>
			</g>
			<g>
				<path fill="#BD1B38" d="M410.1,402.6l7.1-4.8l-5-7.4c-2.2,1.8-4.6,3.4-7,4.9L410.1,402.6z"/>
			</g>
			<g>
				<path fill="#BD1B38" d="M338.4,281l-7.1,4.8l3.6,5.4c2.3-1.7,4.7-3.3,7.1-4.7L338.4,281z"/>
			</g>
		</g>
		<g>
			<g>
				<g>
					<rect x="447" y="291.7" fill="#BD1B38" width="8.5" height="82.5"/>
				</g>
			</g>
		</g>
		<g>
			<g>
				<path fill="#BD1B38" d="M525.9,278.4c-13.4,0-25.9,4.2-36.1,11.4l0.2,5.8c8.1-4.2,22.9-10.5,37.8-9.4
					c14,1.1,50.4,11.8,50.4,48.6c0,21.1-8.9,34.7-16.4,42.5c-9.7,9.9-22.8,15.9-36,16.4c-1,0-1.9,0.1-2.9,0.1
					c-21.9,0-31.8-9.6-43.1-28l7-4.3c11.8,19.3,20.4,24.7,38.6,24c27.9-1,44.5-26.5,44.5-50.7c0-13.2-5.5-23.6-16.4-31.1
					c-8.9-6.1-19.8-8.9-26.4-9.4c-18.7-1.4-38.6,11.5-38.8,11.6l-6.1,4l-0.5-13.5c-11.6,11.4-18.8,27.3-18.8,44.9
					c0,34.7,28.2,62.9,62.9,62.9s62.9-28.2,62.9-62.9C588.8,306.6,560.7,278.4,525.9,278.4z"/>
			</g>
			<g>
				<path fill="#BD1B38" d="M489.3,271.7l46.5-2l-0.4-8.2l-54.6,2.4l1.1,32.6c2.5-2.4,5.1-4.6,8-6.6L489.3,271.7z"/>
			</g>
		</g>
		<g>
			<path fill="#BD1B38" d="M734.9,475.6c-2.8-9.7-7.2-122.4-9.5-196.6c0.7-4.1,0.9-7.3-1.8-9c-1-0.6-2.2-0.8-3.4-0.6
				c-2.9,0.2-17,1.3-21.8,1.3c-3.3,0-11.9-0.7-15.3-1.3c-0.7-0.1-2-0.5-2.6-0.2c-0.4,0.2-2.2,1.8-2.2,1.8
				c-0.3,0.2-26.8,21-35.6,27.7c-10.2,7.8-39.6,32-39.6,34.9c0,2.1,7.2,7.3,12.1,10.5c-0.9,15.5-11.6,40.6-30.6,59.3
				c-11.6,11.4-31,24.8-57.5,24.2c-59-1.4-138.8-0.1-202.8,1c-38,0.6-74.2,1.2-88,0.8c3.2-3.9,8.5-9.7,13.7-15.4
				c34.1-37.2,66.6-75.3,57.5-95.8c-3.6-8.3-13.3-12.4-28.6-12.4l0,0c-20.4,0-29.5,15.6-29.8,16.2l7.4,4.2c0.1-0.1,7-11.9,22.4-11.9
				l0,0c8,0,18.1,1.3,20.8,7.3c7.6,17.2-35.4,64.1-56,86.6c-16.6,18.1-19.2,21.3-18.8,24.9c0.2,1.4,0.9,2.6,2.1,3.4
				c1.5,1,4.5,1.5,22.3,1.5c13.9,0,36.8-0.3,75.1-0.9c64-1,143.7-2.3,202.5-1c2.4,0.1,4.7,0,7-0.1c2.1,0,74.3-0.4,91.1-0.5
				c4.7,2.2,28,13.2,51.2,23.8c39.8,18.2,51.2,23,55.4,23c1.7,0,2.2-0.7,3-1.7C735.8,479.2,735.9,477.2,734.9,475.6z M614.2,332.7
				c-1-1.6,26-22.5,33.8-28.5c7.9-6,29.7-21.5,35.2-26.1c3.6,0.4,11.8,1.2,15.3,1.2c1.9,0,4.9-0.1,8.2-0.3c-1.9,1.4-3.9,2.9-5.8,4.3
				c-11.5,8.6-23.4,17.4-34.3,24.7c-22.2,14.8-39.5,25.6-45.7,29.1C621.1,337.1,615.1,334,614.2,332.7z M626,431.3L626,431.3
				L626,431.3L626,431.3z M630.2,428.5c-0.1-6.5-0.3-23.7-1-41c-1.1-26.3-2.4-38.1-4-43.8c7.3-4.2,25.2-14.7,46.3-28.8
				c11-7.4,23-16.3,34.6-24.9c3.6-2.7,7.3-5.4,10.9-8.1c0.4,11.6,1.7,53,3.4,94.5c2.5,60.1,4.1,84.8,5.4,95.3
				C709.1,465.2,661.9,443.4,630.2,428.5z"/>
		</g>
		<g>
			<g>
				<g>
					<path fill="#BD1B38" d="M506.2,254.7c-6.1,0-9.8-6.6-9.8-12.8c0-5.1,5.1-8.2,10-8.2c2.1,0,4.1,0.5,5.8,1.5
						c3.5,2.1,4.8,6.8,4.8,10.1c0,4-3,8.4-9.6,9.3C507,254.7,506.6,254.7,506.2,254.7z M506.4,238.5c-2.5,0-5.2,1.3-5.2,3.4
						c0,3.8,2.1,8,5,8c0.1,0,0.3,0,0.4,0c3.3-0.4,5.5-2.2,5.5-4.5c0-2.6-1-5.1-2.4-6C508.8,238.8,507.6,238.5,506.4,238.5z"/>
				</g>
			</g>
		</g>
	</g>
	<g>
		<rect x="823.2" y="488.5" fill="#BD1B38" width="286.3" height="38.5"/>
	</g>
	<g enable-background="new    ">
		<path fill="#BD1B38" d="M827.7,260.1h6.1v15.5h0.2l12.2-15.5h6.7l-10.5,13.3l12.3,20.8h-6.7l-9.2-16.1l-4.9,6.1v10h-6.1V260.1z"/>
		<path fill="#BD1B38" d="M858.9,260.1h6.1v34.1h-6.1V260.1z"/>
		<path fill="#BD1B38" d="M873.6,260.1h6.2l10.6,19.2l3.5,7.3h0.2c-0.1-1.8-0.3-3.7-0.5-5.7c-0.2-2-0.3-4-0.3-5.9v-14.8h5.8v34.1
			H893L882.3,275l-3.5-7.3h-0.2c0.1,1.8,0.3,3.7,0.5,5.7c0.2,2,0.3,3.9,0.3,5.8v14.9h-5.8V260.1z"/>
		<path fill="#BD1B38" d="M921.1,294.9c-2.2,0-4.3-0.4-6.1-1.2c-1.8-0.8-3.4-2-4.7-3.5c-1.3-1.5-2.3-3.4-3.1-5.6s-1.1-4.7-1.1-7.5
			c0-2.7,0.4-5.2,1.1-7.4s1.8-4,3.1-5.5c1.3-1.5,2.9-2.6,4.7-3.4c1.8-0.8,3.9-1.2,6.1-1.2c2.2,0,4.3,0.4,6.1,1.2
			c1.8,0.8,3.4,1.9,4.8,3.4c1.3,1.5,2.4,3.3,3.1,5.5s1.1,4.6,1.1,7.4c0,2.8-0.4,5.3-1.1,7.5s-1.8,4.1-3.1,5.6
			c-1.3,1.5-2.9,2.7-4.8,3.5C925.3,294.5,923.3,294.9,921.1,294.9z M921.1,289.6c1.4,0,2.6-0.3,3.7-0.9s2-1.4,2.8-2.5s1.4-2.4,1.8-4
			s0.6-3.3,0.6-5.2c0-3.8-0.8-6.8-2.4-9c-1.6-2.2-3.7-3.3-6.4-3.3c-2.7,0-4.9,1.1-6.4,3.3c-1.6,2.2-2.4,5.2-2.4,9
			c0,1.9,0.2,3.6,0.6,5.2c0.4,1.5,1,2.9,1.8,4c0.8,1.1,1.7,1.9,2.8,2.5C918.5,289.3,919.7,289.6,921.1,289.6z"/>
		<path fill="#BD1B38" d="M943,260.1h6.1v15.5h0.2l12.2-15.5h6.7l-10.5,13.3l12.3,20.8h-6.7l-9.2-16.1l-4.9,6.1v10H943V260.1z"/>
		<path fill="#BD1B38" d="M974.1,260.1h6.1v34.1h-6.1V260.1z"/>
	</g>
	<g enable-background="new    ">
		<path fill="#BD1B38" d="M828.5,317.7h18.7v2.1h-16.3v13.7h13.8v2.1h-13.8v16.5h-2.4V317.7z"/>
		<path fill="#BD1B38" d="M850.4,339.6c0-2.1,0.3-3.9,0.9-5.5c0.6-1.6,1.4-3,2.5-4.1c1-1.1,2.2-2,3.5-2.6c1.3-0.6,2.7-0.9,4-0.9
			c3,0,5.3,1,7,3c1.7,2,2.6,4.9,2.6,8.6c0,0.3,0,0.6,0,0.9c0,0.3,0,0.6-0.1,0.9h-18.1c0,1.6,0.3,3,0.7,4.4c0.5,1.3,1.1,2.5,1.9,3.4
			c0.8,1,1.8,1.7,2.9,2.2c1.1,0.5,2.4,0.8,3.9,0.8c1.4,0,2.6-0.2,3.7-0.6c1.1-0.4,2.1-0.9,3.1-1.6l0.9,1.8c-1,0.6-2.1,1.1-3.3,1.7
			c-1.2,0.5-2.7,0.8-4.6,0.8c-1.6,0-3.1-0.3-4.5-0.9c-1.4-0.6-2.6-1.5-3.7-2.6c-1-1.1-1.9-2.5-2.5-4.1
			C850.7,343.5,850.4,341.6,850.4,339.6z M868.8,338.1c0-3.2-0.7-5.7-2-7.3c-1.3-1.6-3.1-2.4-5.4-2.4c-1.1,0-2.1,0.2-3.1,0.7
			c-1,0.5-1.9,1.1-2.6,1.9c-0.8,0.8-1.4,1.9-1.9,3.1c-0.5,1.2-0.8,2.5-1,4H868.8z"/>
		<path fill="#BD1B38" d="M876,347.5c1.1,0.9,2.2,1.7,3.4,2.3c1.2,0.6,2.7,0.9,4.5,0.9c2,0,3.5-0.5,4.5-1.5s1.5-2.1,1.5-3.5
			c0-0.8-0.2-1.4-0.5-2s-0.8-1.1-1.4-1.5c-0.6-0.4-1.2-0.8-2-1.1c-0.7-0.3-1.4-0.6-2.2-0.9c-0.9-0.3-1.9-0.7-2.8-1.1
			s-1.8-0.8-2.6-1.4c-0.8-0.5-1.4-1.2-1.9-1.9c-0.5-0.7-0.7-1.7-0.7-2.7c0-0.9,0.2-1.8,0.5-2.6s0.9-1.5,1.6-2.1
			c0.7-0.6,1.5-1.1,2.5-1.4c1-0.3,2.1-0.5,3.5-0.5c1.3,0,2.6,0.2,3.9,0.7c1.3,0.5,2.4,1.1,3.3,1.9l-1.3,1.6
			c-0.8-0.6-1.7-1.2-2.7-1.6s-2.1-0.7-3.3-0.7c-1,0-1.8,0.1-2.5,0.4c-0.7,0.3-1.3,0.6-1.7,1c-0.5,0.4-0.8,0.9-1,1.5
			c-0.2,0.6-0.3,1.1-0.3,1.7c0,0.7,0.2,1.3,0.5,1.9c0.3,0.5,0.8,0.9,1.3,1.3s1.2,0.7,1.9,1c0.7,0.3,1.4,0.6,2.2,0.9
			c1,0.4,1.9,0.8,2.9,1.1c1,0.4,1.9,0.9,2.6,1.4c0.8,0.6,1.4,1.2,1.9,2.1c0.5,0.8,0.7,1.8,0.7,3.1c0,0.9-0.2,1.8-0.5,2.7
			c-0.4,0.9-0.9,1.6-1.6,2.2c-0.7,0.6-1.6,1.2-2.7,1.5c-1,0.4-2.2,0.6-3.6,0.6c-1.9,0-3.6-0.3-5.2-1c-1.6-0.7-2.9-1.5-4-2.4
			L876,347.5z"/>
		<path fill="#BD1B38" d="M899.4,329h-3.9v-1.8l4-0.2l0.3-7.3h2v7.3h7.3v2h-7.3v16.3c0,0.8,0.1,1.5,0.2,2.2c0.1,0.6,0.3,1.2,0.7,1.7
			c0.3,0.5,0.7,0.8,1.3,1.1c0.5,0.3,1.2,0.4,2.1,0.4c0.5,0,1-0.1,1.6-0.2c0.6-0.2,1.1-0.3,1.5-0.5l0.6,1.9c-0.7,0.3-1.5,0.5-2.2,0.7
			c-0.7,0.2-1.4,0.3-1.9,0.3c-1.2,0-2.2-0.2-3-0.5c-0.8-0.4-1.4-0.9-1.9-1.5c-0.5-0.7-0.8-1.5-1-2.4c-0.2-0.9-0.3-2-0.3-3.1V329z"/>
		<path fill="#BD1B38" d="M916.3,321c-0.6,0-1.1-0.2-1.5-0.6c-0.4-0.4-0.6-0.9-0.6-1.5c0-0.7,0.2-1.2,0.6-1.5
			c0.4-0.4,0.9-0.5,1.5-0.5c0.6,0,1.1,0.2,1.5,0.5s0.6,0.9,0.6,1.5c0,0.6-0.2,1.1-0.6,1.5C917.4,320.8,916.9,321,916.3,321z
			 M915.1,327h2.3v25h-2.3V327z"/>
		<path fill="#BD1B38" d="M922.9,327h2.5l5.6,15.7c0.4,1.2,0.8,2.4,1.3,3.7c0.5,1.2,0.9,2.4,1.3,3.5h0.2c0.4-1.1,0.8-2.3,1.3-3.5
			c0.4-1.2,0.9-2.4,1.3-3.7L942,327h2.3l-9.3,25h-2.7L922.9,327z"/>
		<path fill="#BD1B38" d="M947.3,345.8c0-2.7,1.3-4.9,3.9-6.3s6.7-2.5,12.3-3.1c0-0.9,0-1.9-0.2-2.8c-0.2-1-0.5-1.8-0.9-2.6
			c-0.4-0.7-1-1.4-1.8-1.8c-0.8-0.5-1.8-0.7-3-0.7c-1.7,0-3.3,0.3-4.6,1c-1.4,0.7-2.5,1.3-3.3,1.9l-1-1.7c0.5-0.3,1-0.7,1.6-1
			c0.6-0.4,1.4-0.7,2.1-1c0.8-0.3,1.6-0.6,2.6-0.8s1.9-0.3,2.9-0.3c1.5,0,2.7,0.3,3.8,0.8c1,0.5,1.8,1.2,2.5,2.1
			c0.6,0.9,1.1,1.9,1.3,3.1c0.3,1.2,0.4,2.4,0.4,3.8v16h-1.9l-0.3-3.2h-0.1c-1.3,1-2.7,1.9-4.1,2.7c-1.5,0.8-3.1,1.2-4.7,1.2
			c-1,0-1.9-0.1-2.8-0.4c-0.9-0.3-1.6-0.7-2.3-1.3c-0.7-0.6-1.2-1.3-1.6-2.1C947.5,348,947.3,347,947.3,345.8z M949.7,345.7
			c0,1.8,0.5,3.1,1.6,3.9c1,0.8,2.3,1.1,3.7,1.1c1.5,0,2.9-0.3,4.2-1c1.3-0.7,2.8-1.7,4.3-3v-8.5c-2.6,0.3-4.7,0.7-6.5,1.1
			c-1.8,0.5-3.2,1-4.3,1.6c-1.1,0.6-1.9,1.3-2.3,2.1C949.9,343.8,949.7,344.7,949.7,345.7z"/>
		<path fill="#BD1B38" d="M974.7,314.5h2.3V349c0,0.6,0.1,1,0.3,1.2s0.5,0.4,0.8,0.4c0.1,0,0.2,0,0.3,0c0.1,0,0.3,0,0.6-0.1l0.4,1.9
			c-0.2,0.1-0.5,0.1-0.7,0.2c-0.2,0.1-0.6,0.1-0.9,0.1c-2.1,0-3.1-1.3-3.1-4V314.5z"/>
		<path fill="#BD1B38" d="M997.7,317.7h2.4v34.4h-2.4V317.7z"/>
		<path fill="#BD1B38" d="M1010,327h2l0.2,3.9h0.2c1.3-1.3,2.6-2.4,4-3.2c1.4-0.9,2.9-1.3,4.6-1.3c2.6,0,4.5,0.8,5.7,2.3
			c1.2,1.6,1.8,4,1.8,7.3v16.1h-2.3v-15.8c0-2.7-0.4-4.7-1.3-5.9c-0.9-1.3-2.4-1.9-4.4-1.9c-1.5,0-2.9,0.4-4.1,1.2
			c-1.2,0.8-2.6,2-4.1,3.5v18.9h-2.3V327z"/>
		<path fill="#BD1B38" d="M1038.3,329h-3.9v-1.8l4-0.2l0.3-7.3h2v7.3h7.3v2h-7.3v16.3c0,0.8,0.1,1.5,0.2,2.2
			c0.1,0.6,0.3,1.2,0.7,1.7s0.7,0.8,1.3,1.1s1.2,0.4,2.1,0.4c0.5,0,1-0.1,1.6-0.2s1.1-0.3,1.5-0.5l0.6,1.9c-0.7,0.3-1.5,0.5-2.2,0.7
			c-0.7,0.2-1.4,0.3-1.9,0.3c-1.2,0-2.2-0.2-3-0.5c-0.8-0.4-1.4-0.9-1.9-1.5c-0.5-0.7-0.8-1.5-1-2.4c-0.2-0.9-0.3-2-0.3-3.1V329z"/>
		<path fill="#BD1B38" d="M1051.4,339.6c0-2.1,0.3-3.9,0.9-5.5c0.6-1.6,1.4-3,2.5-4.1c1-1.1,2.2-2,3.5-2.6c1.3-0.6,2.7-0.9,4-0.9
			c3,0,5.3,1,7,3c1.7,2,2.6,4.9,2.6,8.6c0,0.3,0,0.6,0,0.9c0,0.3,0,0.6-0.1,0.9h-18.1c0,1.6,0.3,3,0.7,4.4c0.5,1.3,1.1,2.5,1.9,3.4
			c0.8,1,1.8,1.7,2.9,2.2c1.1,0.5,2.4,0.8,3.9,0.8c1.4,0,2.6-0.2,3.7-0.6c1.1-0.4,2.1-0.9,3.1-1.6l0.9,1.8c-1,0.6-2.1,1.1-3.3,1.7
			c-1.2,0.5-2.7,0.8-4.6,0.8c-1.6,0-3.1-0.3-4.5-0.9c-1.4-0.6-2.6-1.5-3.7-2.6c-1-1.1-1.9-2.5-2.5-4.1
			C1051.7,343.5,1051.4,341.6,1051.4,339.6z M1069.7,338.1c0-3.2-0.7-5.7-2-7.3c-1.3-1.6-3.1-2.4-5.4-2.4c-1.1,0-2.1,0.2-3.1,0.7
			c-1,0.5-1.9,1.1-2.6,1.9c-0.8,0.8-1.4,1.9-1.9,3.1c-0.5,1.2-0.8,2.5-1,4H1069.7z"/>
		<path fill="#BD1B38" d="M1078.7,327h2l0.2,4.6h0.2c0.8-1.6,1.9-2.8,3.1-3.8c1.2-1,2.5-1.5,4-1.5c0.5,0,0.9,0,1.3,0.1
			c0.4,0.1,0.8,0.2,1.2,0.4l-0.5,2.1c-0.4-0.2-0.8-0.3-1.1-0.3c-0.3-0.1-0.7-0.1-1.2-0.1c-1.1,0-2.3,0.5-3.5,1.4s-2.3,2.6-3.3,5
			v17.1h-2.3V327z"/>
		<path fill="#BD1B38" d="M1095.2,327h2l0.2,3.9h0.2c1.3-1.3,2.6-2.4,4-3.2c1.4-0.9,2.9-1.3,4.6-1.3c2.6,0,4.5,0.8,5.7,2.3
			c1.2,1.6,1.8,4,1.8,7.3v16.1h-2.3v-15.8c0-2.7-0.4-4.7-1.3-5.9s-2.4-1.9-4.4-1.9c-1.5,0-2.9,0.4-4.1,1.2c-1.2,0.8-2.6,2-4.1,3.5
			v18.9h-2.3V327z"/>
		<path fill="#BD1B38" d="M1121.6,345.8c0-2.7,1.3-4.9,3.9-6.3s6.7-2.5,12.3-3.1c0-0.9,0-1.9-0.2-2.8c-0.2-1-0.5-1.8-0.9-2.6
			c-0.4-0.7-1-1.4-1.8-1.8c-0.8-0.5-1.8-0.7-3-0.7c-1.7,0-3.3,0.3-4.6,1c-1.4,0.7-2.5,1.3-3.3,1.9l-1-1.7c0.5-0.3,1-0.7,1.6-1
			c0.6-0.4,1.4-0.7,2.1-1c0.8-0.3,1.6-0.6,2.6-0.8s1.9-0.3,2.9-0.3c1.5,0,2.7,0.3,3.8,0.8c1,0.5,1.8,1.2,2.5,2.1s1.1,1.9,1.3,3.1
			c0.3,1.2,0.4,2.4,0.4,3.8v16h-1.9l-0.3-3.2h-0.1c-1.3,1-2.7,1.9-4.1,2.7c-1.5,0.8-3.1,1.2-4.7,1.2c-1,0-1.9-0.1-2.8-0.4
			c-0.9-0.3-1.6-0.7-2.3-1.3c-0.7-0.6-1.2-1.3-1.6-2.1C1121.8,348,1121.6,347,1121.6,345.8z M1124,345.7c0,1.8,0.5,3.1,1.6,3.9
			c1,0.8,2.3,1.1,3.7,1.1c1.5,0,2.9-0.3,4.2-1c1.3-0.7,2.8-1.7,4.3-3v-8.5c-2.6,0.3-4.7,0.7-6.5,1.1c-1.8,0.5-3.2,1-4.3,1.6
			c-1.1,0.6-1.9,1.3-2.3,2.1C1124.2,343.8,1124,344.7,1124,345.7z"/>
		<path fill="#BD1B38" d="M1147,339.6c0-2.1,0.3-4,0.9-5.6c0.6-1.7,1.5-3,2.5-4.1c1-1.1,2.3-2,3.6-2.6c1.4-0.6,2.8-0.9,4.4-0.9
			c1.7,0,3.2,0.3,4.4,0.9c1.2,0.6,2.2,1.3,3,2.1l-1.4,1.6c-0.8-0.8-1.7-1.4-2.7-1.9c-1-0.5-2.1-0.8-3.3-0.8c-1.3,0-2.5,0.3-3.6,0.8
			c-1.1,0.5-2.1,1.3-2.9,2.3s-1.5,2.2-1.9,3.5c-0.5,1.4-0.7,2.9-0.7,4.5c0,1.6,0.2,3.1,0.7,4.5c0.4,1.4,1,2.5,1.8,3.5
			c0.8,1,1.7,1.7,2.9,2.3c1.1,0.5,2.4,0.8,3.7,0.8c1.3,0,2.5-0.3,3.7-0.8c1.1-0.6,2.1-1.2,3-2l1.2,1.6c-1.1,1-2.3,1.8-3.6,2.4
			c-1.3,0.6-2.8,0.9-4.4,0.9c-1.6,0-3.1-0.3-4.5-0.9s-2.6-1.4-3.6-2.6c-1-1.1-1.8-2.5-2.4-4.1S1147,341.7,1147,339.6z"/>
		<path fill="#BD1B38" d="M1173.7,321c-0.6,0-1.1-0.2-1.5-0.6c-0.4-0.4-0.6-0.9-0.6-1.5c0-0.7,0.2-1.2,0.6-1.5
			c0.4-0.4,0.9-0.5,1.5-0.5c0.6,0,1.1,0.2,1.5,0.5c0.4,0.4,0.6,0.9,0.6,1.5c0,0.6-0.2,1.1-0.6,1.5
			C1174.8,320.8,1174.3,321,1173.7,321z M1172.5,327h2.3v25h-2.3V327z"/>
		<path fill="#BD1B38" d="M1182.3,339.6c0-2.1,0.3-4,0.9-5.6c0.6-1.7,1.4-3,2.5-4.1s2.2-2,3.6-2.6s2.8-0.9,4.3-0.9
			c1.5,0,2.9,0.3,4.3,0.9s2.6,1.4,3.6,2.6c1,1.1,1.8,2.5,2.5,4.1c0.6,1.7,0.9,3.5,0.9,5.6s-0.3,3.9-0.9,5.6c-0.6,1.6-1.4,3-2.5,4.1
			c-1,1.1-2.2,2-3.6,2.6s-2.8,0.9-4.3,0.9c-1.5,0-2.9-0.3-4.3-0.9s-2.5-1.4-3.6-2.6s-1.8-2.5-2.5-4.1S1182.3,341.7,1182.3,339.6z
			 M1184.7,339.6c0,1.6,0.2,3.1,0.7,4.5c0.5,1.4,1.1,2.5,1.9,3.5c0.8,1,1.7,1.7,2.8,2.3c1.1,0.5,2.2,0.8,3.5,0.8
			c1.3,0,2.4-0.3,3.5-0.8c1.1-0.5,2-1.3,2.8-2.3c0.8-1,1.4-2.1,1.9-3.5c0.5-1.4,0.7-2.9,0.7-4.5c0-1.7-0.2-3.2-0.7-4.5
			c-0.5-1.4-1.1-2.5-1.9-3.5c-0.8-1-1.7-1.8-2.8-2.3c-1.1-0.5-2.3-0.8-3.5-0.8c-1.3,0-2.4,0.3-3.5,0.8c-1.1,0.5-2,1.3-2.8,2.3
			c-0.8,1-1.4,2.2-1.9,3.5C1185,336.4,1184.7,337.9,1184.7,339.6z"/>
		<path fill="#BD1B38" d="M1212.3,327h2l0.2,3.9h0.2c1.3-1.3,2.6-2.4,4-3.2c1.4-0.9,2.9-1.3,4.6-1.3c2.6,0,4.5,0.8,5.7,2.3
			s1.8,4,1.8,7.3v16.1h-2.3v-15.8c0-2.7-0.4-4.7-1.3-5.9s-2.4-1.9-4.4-1.9c-1.5,0-2.9,0.4-4.1,1.2c-1.2,0.8-2.6,2-4.1,3.5v18.9h-2.3
			V327z"/>
		<path fill="#BD1B38" d="M1238.7,345.8c0-2.7,1.3-4.9,3.9-6.3s6.7-2.5,12.3-3.1c0-0.9,0-1.9-0.2-2.8c-0.2-1-0.5-1.8-0.9-2.6
			c-0.4-0.7-1-1.4-1.8-1.8c-0.8-0.5-1.8-0.7-3-0.7c-1.7,0-3.3,0.3-4.6,1c-1.4,0.7-2.5,1.3-3.3,1.9l-1-1.7c0.5-0.3,1-0.7,1.6-1
			c0.6-0.4,1.4-0.7,2.1-1c0.8-0.3,1.6-0.6,2.6-0.8c0.9-0.2,1.9-0.3,2.9-0.3c1.5,0,2.7,0.3,3.8,0.8c1,0.5,1.8,1.2,2.5,2.1
			s1.1,1.9,1.3,3.1c0.3,1.2,0.4,2.4,0.4,3.8v16h-1.9l-0.3-3.2h-0.1c-1.3,1-2.7,1.9-4.1,2.7c-1.5,0.8-3.1,1.2-4.7,1.2
			c-1,0-1.9-0.1-2.8-0.4c-0.9-0.3-1.6-0.7-2.3-1.3c-0.7-0.6-1.2-1.3-1.6-2.1C1238.9,348,1238.7,347,1238.7,345.8z M1241.1,345.7
			c0,1.8,0.5,3.1,1.6,3.9c1,0.8,2.3,1.1,3.7,1.1c1.5,0,2.9-0.3,4.2-1c1.3-0.7,2.8-1.7,4.3-3v-8.5c-2.6,0.3-4.7,0.7-6.5,1.1
			c-1.8,0.5-3.2,1-4.3,1.6c-1.1,0.6-1.9,1.3-2.3,2.1C1241.3,343.8,1241.1,344.7,1241.1,345.7z"/>
		<path fill="#BD1B38" d="M1266.1,314.5h2.3V349c0,0.6,0.1,1,0.3,1.2c0.2,0.3,0.5,0.4,0.8,0.4c0.1,0,0.2,0,0.3,0s0.3,0,0.6-0.1
			l0.4,1.9c-0.2,0.1-0.5,0.1-0.7,0.2s-0.6,0.1-0.9,0.1c-2.1,0-3.1-1.3-3.1-4V314.5z"/>
	</g>
	<g enable-background="new    ">
		<path fill="#BD1B38" d="M826.1,402.2c0-2,0.3-3.8,0.9-5.5c0.6-1.6,1.4-3,2.4-4.2c1-1.1,2.2-2,3.5-2.6c1.3-0.6,2.8-0.9,4.3-0.9
			c1.5,0,2.9,0.3,4,0.8c1.1,0.5,2.3,1.3,3.6,2.3l-0.1-4.6v-10.3h2.3v37.5h-2l-0.2-3.2h-0.2c-1,1-2.2,1.9-3.6,2.7s-2.9,1.2-4.6,1.2
			c-3.2,0-5.7-1.1-7.6-3.4C827.1,409.7,826.1,406.4,826.1,402.2z M828.6,402.2c0,1.7,0.2,3.2,0.5,4.5s0.9,2.5,1.6,3.5
			c0.7,1,1.6,1.7,2.6,2.2c1,0.5,2.2,0.8,3.5,0.8c1.4,0,2.7-0.4,4-1.1c1.3-0.7,2.6-1.7,3.9-3.1v-14.9c-1.3-1.2-2.6-2-3.7-2.5
			c-1.2-0.5-2.4-0.7-3.6-0.7c-1.3,0-2.4,0.3-3.5,0.9c-1.1,0.6-2,1.4-2.8,2.3c-0.8,1-1.4,2.2-1.9,3.5
			C828.8,399.2,828.6,400.6,828.6,402.2z"/>
		<path fill="#BD1B38" d="M854.5,402.2c0-2.1,0.3-3.9,0.9-5.5c0.6-1.6,1.4-3,2.5-4.1c1-1.1,2.2-2,3.5-2.6c1.3-0.6,2.7-0.9,4-0.9
			c3,0,5.3,1,7,3c1.7,2,2.6,4.9,2.6,8.6c0,0.3,0,0.6,0,0.9c0,0.3,0,0.6-0.1,0.9h-18.1c0,1.6,0.3,3,0.7,4.4c0.5,1.3,1.1,2.5,1.9,3.4
			c0.8,1,1.8,1.7,2.9,2.2s2.4,0.8,3.9,0.8c1.4,0,2.6-0.2,3.7-0.6c1.1-0.4,2.1-0.9,3.1-1.6l0.9,1.8c-1,0.6-2.1,1.1-3.3,1.7
			c-1.2,0.5-2.7,0.8-4.6,0.8c-1.6,0-3.1-0.3-4.5-0.9c-1.4-0.6-2.6-1.5-3.7-2.6c-1-1.1-1.9-2.5-2.5-4.1
			C854.8,406.1,854.5,404.2,854.5,402.2z M872.8,400.7c0-3.2-0.7-5.7-2-7.3s-3.1-2.4-5.4-2.4c-1.1,0-2.1,0.2-3.1,0.7
			c-1,0.5-1.9,1.1-2.6,1.9c-0.8,0.8-1.4,1.9-1.9,3.1c-0.5,1.2-0.8,2.5-1,4H872.8z"/>
		<path fill="#BD1B38" d="M890.2,397.4c0-2.7,0.4-5.2,1.1-7.4s1.7-4.1,3-5.6c1.3-1.5,2.8-2.7,4.6-3.5c1.8-0.8,3.8-1.2,6-1.2
			c2,0,3.7,0.4,5.3,1.3c1.5,0.8,2.7,1.8,3.7,2.9l-1.5,1.6c-0.9-1-2-1.9-3.2-2.5c-1.3-0.6-2.7-1-4.2-1c-1.9,0-3.6,0.4-5.1,1.1
			s-2.8,1.8-3.9,3.1s-1.9,3-2.4,4.9c-0.6,1.9-0.8,4.1-0.8,6.5c0,2.4,0.3,4.6,0.8,6.5s1.4,3.6,2.4,4.9c1,1.4,2.3,2.4,3.8,3.2
			c1.5,0.7,3.1,1.1,5,1.1c1.8,0,3.3-0.3,4.7-1c1.4-0.7,2.7-1.8,3.9-3.2l1.5,1.5c-1.3,1.5-2.8,2.7-4.4,3.6c-1.6,0.9-3.6,1.3-5.8,1.3
			c-2.1,0-4.1-0.4-5.8-1.3c-1.8-0.8-3.3-2-4.6-3.6c-1.3-1.5-2.3-3.4-2.9-5.6C890.6,402.6,890.2,400.1,890.2,397.4z"/>
		<path fill="#BD1B38" d="M922.8,383.6c-0.6,0-1.1-0.2-1.5-0.6c-0.4-0.4-0.6-0.9-0.6-1.5c0-0.7,0.2-1.2,0.6-1.5s0.9-0.5,1.5-0.5
			c0.6,0,1.1,0.2,1.5,0.5c0.4,0.4,0.6,0.9,0.6,1.5c0,0.6-0.2,1.1-0.6,1.5C923.9,383.4,923.4,383.6,922.8,383.6z M921.6,389.6h2.3v25
			h-2.3V389.6z"/>
		<path fill="#BD1B38" d="M933.6,389.6h2l0.2,3.9h0.2c1.3-1.3,2.6-2.4,4-3.2c1.4-0.9,2.9-1.3,4.6-1.3c2.6,0,4.5,0.8,5.7,2.3
			c1.2,1.6,1.8,4,1.8,7.3v16.1h-2.3v-15.8c0-2.7-0.4-4.7-1.3-5.9c-0.9-1.3-2.4-1.9-4.4-1.9c-1.5,0-2.9,0.4-4.1,1.2
			c-1.2,0.8-2.6,2-4.1,3.5v18.9h-2.3V389.6z"/>
		<path fill="#BD1B38" d="M959.2,402.2c0-2.1,0.3-3.9,0.9-5.5c0.6-1.6,1.4-3,2.5-4.1c1-1.1,2.2-2,3.5-2.6c1.3-0.6,2.7-0.9,4-0.9
			c3,0,5.3,1,7,3c1.7,2,2.6,4.9,2.6,8.6c0,0.3,0,0.6,0,0.9c0,0.3,0,0.6-0.1,0.9h-18.1c0,1.6,0.3,3,0.7,4.4c0.5,1.3,1.1,2.5,1.9,3.4
			c0.8,1,1.8,1.7,2.9,2.2c1.1,0.5,2.4,0.8,3.9,0.8c1.4,0,2.6-0.2,3.7-0.6c1.1-0.4,2.1-0.9,3.1-1.6l0.9,1.8c-1,0.6-2.1,1.1-3.3,1.7
			c-1.2,0.5-2.7,0.8-4.6,0.8c-1.6,0-3.1-0.3-4.5-0.9s-2.6-1.5-3.7-2.6c-1-1.1-1.9-2.5-2.5-4.1C959.5,406.1,959.2,404.2,959.2,402.2z
			 M977.5,400.7c0-3.2-0.7-5.7-2-7.3s-3.1-2.4-5.4-2.4c-1.1,0-2.1,0.2-3.1,0.7c-1,0.5-1.9,1.1-2.6,1.9s-1.4,1.9-1.9,3.1
			c-0.5,1.2-0.8,2.5-1,4H977.5z"/>
		<path fill="#BD1B38" d="M997,380.3h2.4v20.9c0,2.3,0.3,4.2,0.8,5.7c0.5,1.5,1.2,2.7,2,3.7c0.8,0.9,1.8,1.6,2.9,2
			c1.1,0.4,2.3,0.6,3.5,0.6c1.3,0,2.4-0.2,3.6-0.6c1.1-0.4,2.1-1,3-2c0.9-0.9,1.5-2.1,2.1-3.7s0.8-3.4,0.8-5.7v-20.9h2.2v21.2
			c0,2.7-0.3,4.9-1,6.7c-0.7,1.8-1.5,3.2-2.6,4.3c-1.1,1.1-2.3,1.8-3.7,2.2c-1.4,0.4-2.8,0.7-4.3,0.7c-1.5,0-2.9-0.2-4.3-0.7
			c-1.4-0.4-2.6-1.2-3.7-2.2c-1.1-1.1-1.9-2.5-2.6-4.3c-0.6-1.8-1-4-1-6.7V380.3z"/>
		<path fill="#BD1B38" d="M1030,389.6h2l0.2,3.9h0.2c1.3-1.3,2.6-2.4,4-3.2c1.4-0.9,2.9-1.3,4.6-1.3c2.6,0,4.5,0.8,5.7,2.3
			c1.2,1.6,1.8,4,1.8,7.3v16.1h-2.3v-15.8c0-2.7-0.4-4.7-1.3-5.9s-2.4-1.9-4.4-1.9c-1.5,0-2.9,0.4-4.1,1.2c-1.2,0.8-2.6,2-4.1,3.5
			v18.9h-2.3V389.6z"/>
		<path fill="#BD1B38" d="M1058.9,383.6c-0.6,0-1.1-0.2-1.5-0.6c-0.4-0.4-0.6-0.9-0.6-1.5c0-0.7,0.2-1.2,0.6-1.5
			c0.4-0.4,0.9-0.5,1.5-0.5s1.1,0.2,1.5,0.5c0.4,0.4,0.6,0.9,0.6,1.5c0,0.6-0.2,1.1-0.6,1.5C1060,383.4,1059.5,383.6,1058.9,383.6z
			 M1057.7,389.6h2.3v25h-2.3V389.6z"/>
		<path fill="#BD1B38" d="M1065.5,389.6h2.5l5.6,15.7c0.4,1.2,0.8,2.4,1.3,3.7c0.5,1.2,0.9,2.4,1.3,3.5h0.2c0.4-1.1,0.8-2.3,1.3-3.5
			c0.4-1.2,0.9-2.4,1.3-3.7l5.6-15.7h2.3l-9.3,25h-2.7L1065.5,389.6z"/>
		<path fill="#BD1B38" d="M1090.2,402.2c0-2.1,0.3-3.9,0.9-5.5c0.6-1.6,1.4-3,2.5-4.1c1-1.1,2.2-2,3.5-2.6c1.3-0.6,2.7-0.9,4-0.9
			c3,0,5.3,1,7,3c1.7,2,2.6,4.9,2.6,8.6c0,0.3,0,0.6,0,0.9c0,0.3,0,0.6-0.1,0.9h-18.1c0,1.6,0.3,3,0.7,4.4c0.5,1.3,1.1,2.5,1.9,3.4
			c0.8,1,1.8,1.7,2.9,2.2s2.4,0.8,3.9,0.8c1.4,0,2.6-0.2,3.7-0.6c1.1-0.4,2.1-0.9,3.1-1.6l0.9,1.8c-1,0.6-2.1,1.1-3.3,1.7
			c-1.2,0.5-2.7,0.8-4.6,0.8c-1.6,0-3.1-0.3-4.5-0.9c-1.4-0.6-2.6-1.5-3.7-2.6c-1-1.1-1.9-2.5-2.5-4.1
			C1090.5,406.1,1090.2,404.2,1090.2,402.2z M1108.5,400.7c0-3.2-0.7-5.7-2-7.3s-3.1-2.4-5.4-2.4c-1.1,0-2.1,0.2-3.1,0.7
			c-1,0.5-1.9,1.1-2.6,1.9c-0.8,0.8-1.4,1.9-1.9,3.1c-0.5,1.2-0.8,2.5-1,4H1108.5z"/>
		<path fill="#BD1B38" d="M1117.5,389.6h2l0.2,4.6h0.2c0.8-1.6,1.9-2.8,3.1-3.8c1.2-1,2.5-1.5,4-1.5c0.5,0,0.9,0,1.3,0.1
			c0.4,0.1,0.8,0.2,1.2,0.4l-0.5,2.1c-0.4-0.2-0.8-0.3-1.1-0.3c-0.3-0.1-0.7-0.1-1.2-0.1c-1.1,0-2.3,0.5-3.5,1.4
			c-1.2,1-2.3,2.6-3.3,5v17.1h-2.3V389.6z"/>
		<path fill="#BD1B38" d="M1131.8,410.1c1.1,0.9,2.2,1.7,3.4,2.3s2.7,0.9,4.5,0.9c2,0,3.5-0.5,4.5-1.5c1-1,1.5-2.1,1.5-3.5
			c0-0.8-0.2-1.4-0.5-2s-0.8-1.1-1.4-1.5c-0.6-0.4-1.2-0.8-2-1.1c-0.7-0.3-1.4-0.6-2.2-0.9c-0.9-0.3-1.9-0.7-2.8-1.1
			s-1.8-0.8-2.6-1.4c-0.8-0.5-1.4-1.2-1.9-1.9c-0.5-0.7-0.7-1.7-0.7-2.7c0-0.9,0.2-1.8,0.5-2.6s0.9-1.5,1.6-2.1
			c0.7-0.6,1.5-1.1,2.5-1.4c1-0.3,2.1-0.5,3.5-0.5c1.3,0,2.6,0.2,3.9,0.7c1.3,0.5,2.4,1.1,3.3,1.9l-1.3,1.6
			c-0.8-0.6-1.7-1.2-2.7-1.6s-2.1-0.7-3.3-0.7c-1,0-1.8,0.1-2.5,0.4c-0.7,0.3-1.3,0.6-1.7,1c-0.5,0.4-0.8,0.9-1,1.5
			c-0.2,0.6-0.3,1.1-0.3,1.7c0,0.7,0.2,1.3,0.5,1.9c0.3,0.5,0.8,0.9,1.3,1.3s1.2,0.7,1.9,1c0.7,0.3,1.4,0.6,2.2,0.9
			c1,0.4,1.9,0.8,2.9,1.1c1,0.4,1.9,0.9,2.6,1.4c0.8,0.6,1.4,1.2,1.9,2.1c0.5,0.8,0.7,1.8,0.7,3.1c0,0.9-0.2,1.8-0.5,2.7
			c-0.4,0.9-0.9,1.6-1.6,2.2c-0.7,0.6-1.6,1.2-2.7,1.5c-1,0.4-2.2,0.6-3.6,0.6c-1.9,0-3.6-0.3-5.2-1c-1.6-0.7-2.9-1.5-4-2.4
			L1131.8,410.1z"/>
		<path fill="#BD1B38" d="M1155.9,383.6c-0.6,0-1.1-0.2-1.5-0.6c-0.4-0.4-0.6-0.9-0.6-1.5c0-0.7,0.2-1.2,0.6-1.5
			c0.4-0.4,0.9-0.5,1.5-0.5c0.6,0,1.1,0.2,1.5,0.5c0.4,0.4,0.6,0.9,0.6,1.5c0,0.6-0.2,1.1-0.6,1.5
			C1157,383.4,1156.5,383.6,1155.9,383.6z M1154.7,389.6h2.3v25h-2.3V389.6z"/>
		<path fill="#BD1B38" d="M1167.2,391.6h-3.9v-1.8l4-0.2l0.3-7.3h2v7.3h7.3v2h-7.3v16.3c0,0.8,0.1,1.5,0.2,2.2
			c0.1,0.6,0.3,1.2,0.7,1.7c0.3,0.5,0.7,0.8,1.3,1.1s1.2,0.4,2.1,0.4c0.5,0,1-0.1,1.6-0.2c0.6-0.2,1.1-0.3,1.5-0.5l0.6,1.9
			c-0.7,0.3-1.5,0.5-2.2,0.7c-0.7,0.2-1.4,0.3-1.9,0.3c-1.2,0-2.2-0.2-3-0.5c-0.8-0.4-1.4-0.9-1.9-1.5c-0.5-0.7-0.8-1.5-1-2.4
			c-0.2-0.9-0.3-2-0.3-3.1V391.6z"/>
		<path fill="#BD1B38" d="M1180.4,408.4c0-2.7,1.3-4.9,3.9-6.3s6.7-2.5,12.3-3.1c0-0.9,0-1.9-0.2-2.8c-0.2-1-0.5-1.8-0.9-2.6
			c-0.4-0.7-1-1.4-1.8-1.8c-0.8-0.5-1.8-0.7-3-0.7c-1.7,0-3.3,0.3-4.6,1c-1.4,0.7-2.5,1.3-3.3,1.9l-1-1.7c0.5-0.3,1-0.7,1.6-1
			c0.6-0.4,1.4-0.7,2.1-1c0.8-0.3,1.6-0.6,2.6-0.8c0.9-0.2,1.9-0.3,2.9-0.3c1.5,0,2.7,0.3,3.8,0.8c1,0.5,1.8,1.2,2.5,2.1
			s1.1,1.9,1.3,3.1c0.3,1.2,0.4,2.4,0.4,3.8v16h-1.9l-0.3-3.2h-0.1c-1.3,1-2.7,1.9-4.1,2.7c-1.5,0.8-3.1,1.2-4.7,1.2
			c-1,0-1.9-0.1-2.8-0.4c-0.9-0.3-1.6-0.7-2.3-1.3c-0.7-0.6-1.2-1.3-1.6-2.1C1180.6,410.6,1180.4,409.6,1180.4,408.4z M1182.8,408.3
			c0,1.8,0.5,3.1,1.6,3.9c1,0.8,2.3,1.1,3.7,1.1c1.5,0,2.9-0.3,4.2-1c1.3-0.7,2.8-1.7,4.3-3v-8.5c-2.6,0.3-4.7,0.7-6.5,1.1
			c-1.8,0.5-3.2,1-4.3,1.6c-1.1,0.6-1.9,1.3-2.3,2.1C1183,406.4,1182.8,407.3,1182.8,408.3z"/>
		<path fill="#BD1B38" d="M1207.8,389.6h2l0.2,4.6h0.2c0.8-1.6,1.9-2.8,3.1-3.8c1.2-1,2.5-1.5,4-1.5c0.5,0,0.9,0,1.3,0.1
			c0.4,0.1,0.8,0.2,1.2,0.4l-0.5,2.1c-0.4-0.2-0.8-0.3-1.1-0.3c-0.3-0.1-0.7-0.1-1.2-0.1c-1.1,0-2.3,0.5-3.5,1.4
			c-1.2,1-2.3,2.6-3.3,5v17.1h-2.3V389.6z"/>
		<path fill="#BD1B38" d="M1225.6,383.6c-0.6,0-1.1-0.2-1.5-0.6c-0.4-0.4-0.6-0.9-0.6-1.5c0-0.7,0.2-1.2,0.6-1.5
			c0.4-0.4,0.9-0.5,1.5-0.5c0.6,0,1.1,0.2,1.5,0.5c0.4,0.4,0.6,0.9,0.6,1.5c0,0.6-0.2,1.1-0.6,1.5
			C1226.7,383.4,1226.2,383.6,1225.6,383.6z M1224.4,389.6h2.3v25h-2.3V389.6z"/>
		<path fill="#BD1B38" d="M1234.2,402.2c0-2.1,0.3-4,0.9-5.6c0.6-1.7,1.4-3,2.5-4.1s2.2-2,3.6-2.6s2.8-0.9,4.3-0.9
			c1.5,0,2.9,0.3,4.3,0.9s2.6,1.4,3.6,2.6c1,1.1,1.8,2.5,2.5,4.1c0.6,1.7,0.9,3.5,0.9,5.6s-0.3,3.9-0.9,5.6c-0.6,1.6-1.4,3-2.5,4.1
			c-1,1.1-2.2,2-3.6,2.6s-2.8,0.9-4.3,0.9c-1.5,0-2.9-0.3-4.3-0.9s-2.5-1.4-3.6-2.6s-1.8-2.5-2.5-4.1S1234.2,404.3,1234.2,402.2z
			 M1236.6,402.2c0,1.6,0.2,3.1,0.7,4.5c0.5,1.4,1.1,2.5,1.9,3.5c0.8,1,1.7,1.7,2.8,2.3c1.1,0.5,2.2,0.8,3.5,0.8
			c1.3,0,2.4-0.3,3.5-0.8c1.1-0.5,2-1.3,2.8-2.3c0.8-1,1.4-2.1,1.9-3.5c0.5-1.4,0.7-2.9,0.7-4.5c0-1.7-0.2-3.2-0.7-4.5
			c-0.5-1.4-1.1-2.5-1.9-3.5c-0.8-1-1.7-1.8-2.8-2.3c-1.1-0.5-2.3-0.8-3.5-0.8c-1.3,0-2.4,0.3-3.5,0.8c-1.1,0.5-2,1.3-2.8,2.3
			c-0.8,1-1.4,2.2-1.9,3.5C1236.9,399,1236.6,400.5,1236.6,402.2z"/>
	</g>
	<g enable-background="new    ">
		<path fill="#BD1B38" d="M830,441.1h4.2c1.8,0,3.3,0.2,4.6,0.7s2.4,1.2,3.3,2s1.5,1.9,2,3.1c0.4,1.2,0.7,2.6,0.7,4.1
			c0,2.2-0.3,4.3-0.9,6.2c-0.6,1.9-1.5,3.5-2.6,4.9c-1.2,1.4-2.6,2.5-4.3,3.3c-1.7,0.8-3.7,1.2-5.9,1.2h-6.2L830,441.1z
			 M831.2,465.3c1.9,0,3.6-0.4,5.1-1.1c1.5-0.8,2.7-1.8,3.8-3c1-1.3,1.8-2.8,2.3-4.5c0.5-1.7,0.8-3.5,0.8-5.5c0-1.3-0.2-2.5-0.6-3.5
			s-0.9-2-1.7-2.7s-1.7-1.4-2.8-1.8c-1.1-0.4-2.4-0.6-3.9-0.6h-2.8l-4.5,22.8H831.2z"/>
		<path fill="#BD1B38" d="M847.4,459.5c0-1.8,0.3-3.4,0.9-4.8s1.3-2.7,2.2-3.8c0.9-1,1.9-1.9,3.1-2.4c1.2-0.6,2.3-0.9,3.5-0.9
			c1,0,1.9,0.2,2.6,0.5c0.7,0.3,1.3,0.8,1.7,1.4c0.4,0.6,0.8,1.3,1,2.1c0.2,0.8,0.3,1.7,0.3,2.7c0,0.7-0.1,1.3-0.2,1.9
			c-0.1,0.6-0.2,1-0.3,1.4h-13c-0.3,1.5-0.3,2.7-0.1,3.8c0.2,1,0.6,1.9,1.1,2.6c0.5,0.7,1.2,1.2,2,1.5c0.8,0.3,1.6,0.5,2.6,0.5
			c0.8,0,1.6-0.2,2.4-0.5c0.8-0.4,1.5-0.8,2.2-1.3l0.7,1.2c-0.8,0.5-1.6,1-2.6,1.4c-1,0.4-2,0.6-3.1,0.6c-2.2,0-3.9-0.7-5.2-2
			C848.1,463.9,847.4,462,847.4,459.5z M861,456.2c0.2-0.7,0.2-1.5,0.2-2.2c0-0.6-0.1-1.2-0.2-1.8c-0.1-0.6-0.4-1.1-0.7-1.6
			c-0.3-0.5-0.8-0.8-1.3-1.1s-1.2-0.4-2-0.4c-0.8,0-1.6,0.2-2.4,0.5c-0.8,0.3-1.5,0.8-2.2,1.5c-0.7,0.6-1.3,1.4-1.8,2.3
			c-0.5,0.9-0.9,1.8-1.1,2.9H861z"/>
		<path fill="#BD1B38" d="M865.7,459.8c0-1.8,0.3-3.5,0.9-4.9c0.6-1.5,1.3-2.8,2.3-3.8s2-1.9,3.2-2.5c1.2-0.6,2.4-0.9,3.7-0.9
			c1.1,0,2,0.2,2.7,0.6c0.7,0.4,1.4,1,2,1.6l-1,1.1c-0.6-0.7-1.1-1.2-1.7-1.5s-1.3-0.5-2.1-0.5c-1.1,0-2.1,0.3-3.1,0.9
			c-1,0.6-1.9,1.3-2.7,2.3c-0.8,1-1.4,2.1-1.9,3.4c-0.5,1.3-0.7,2.6-0.7,4.1c0,2,0.4,3.6,1.3,4.6c0.9,1.1,2.1,1.6,3.9,1.6
			c0.9,0,1.8-0.2,2.6-0.6c0.8-0.4,1.5-0.8,2.2-1.4l0.8,1.2c-0.7,0.5-1.5,1-2.4,1.5c-1,0.5-2.1,0.7-3.4,0.7c-2,0-3.6-0.6-4.8-1.9
			C866.3,464,865.7,462.1,865.7,459.8z"/>
		<path fill="#BD1B38" d="M886,448.1h1.6l-3.7,18.6h-1.6L886,448.1z M887.8,443.6c-0.4,0-0.7-0.1-0.9-0.4s-0.4-0.5-0.4-0.9
			c0-0.5,0.2-0.9,0.5-1.3s0.7-0.5,1.1-0.5c0.4,0,0.7,0.1,0.9,0.3c0.2,0.2,0.4,0.6,0.4,1c0,0.5-0.2,0.9-0.5,1.2
			C888.6,443.4,888.3,443.6,887.8,443.6z"/>
		<path fill="#BD1B38" d="M894.6,448.1h1.3l-0.4,2.9h0.2c1.1-1,2.1-1.8,3.2-2.4s2.1-1,3-1c0.8,0,1.4,0.1,2,0.3
			c0.5,0.2,1,0.5,1.3,0.8c0.3,0.3,0.6,0.8,0.8,1.2c0.2,0.5,0.3,1,0.3,1.5c1.3-1.2,2.5-2.2,3.7-2.9c1.2-0.7,2.2-1,3.1-1
			c1.6,0,2.7,0.4,3.4,1.2s1,1.9,1,3.3c0,0.5,0,0.9-0.1,1.2c0,0.3-0.1,0.8-0.3,1.3l-2.4,12H913l2.4-11.8c0.1-0.6,0.2-1,0.3-1.4
			c0-0.3,0.1-0.7,0.1-1c0-1.2-0.3-2-0.8-2.6c-0.5-0.6-1.3-0.9-2.5-0.9c-0.6,0-1.4,0.3-2.6,0.9s-2.3,1.6-3.6,3l-2.8,13.7h-1.6
			l2.4-11.8c0.1-0.6,0.2-1,0.3-1.4s0.1-0.7,0.1-1c0-1.2-0.3-2-0.8-2.6c-0.5-0.6-1.3-0.9-2.5-0.9c-0.6,0-1.4,0.3-2.6,0.9
			s-2.3,1.6-3.6,3l-2.8,13.7h-1.6L894.6,448.1z"/>
		<path fill="#BD1B38" d="M927.6,467.2c-1.9,0-3.4-0.6-4.6-1.9c-1.1-1.3-1.7-3.1-1.7-5.4c0-1.7,0.3-3.3,0.8-4.8
			c0.5-1.5,1.3-2.8,2.2-3.9c0.9-1.1,2-1.9,3.1-2.6c1.2-0.6,2.4-0.9,3.7-0.9c1.9,0,3.5,0.6,4.6,1.9c1.1,1.3,1.7,3.1,1.7,5.4
			c0,1.7-0.3,3.3-0.8,4.8c-0.6,1.5-1.3,2.8-2.2,3.9c-0.9,1.1-2,1.9-3.1,2.6C930.1,466.8,928.8,467.2,927.6,467.2z M931,449
			c-1,0-2,0.3-3,0.9c-1,0.6-1.8,1.3-2.6,2.3c-0.8,1-1.4,2.1-1.8,3.4c-0.5,1.3-0.7,2.6-0.7,4.1c0,2,0.4,3.6,1.3,4.6
			c0.8,1.1,2,1.6,3.6,1.6c1,0,2-0.3,2.9-0.9c1-0.6,1.8-1.3,2.6-2.3c0.8-1,1.4-2.1,1.8-3.4c0.5-1.3,0.7-2.6,0.7-4.1
			c0-2-0.4-3.5-1.2-4.6C933.7,449.5,932.5,449,931,449z"/>
		<path fill="#BD1B38" d="M941.9,468.4l-1.3,6.7H939l5.4-27h1.3l-0.4,2.6h0.2c1-0.8,2-1.6,3.2-2.2s2.4-0.9,3.6-0.9
			c1.7,0,3,0.6,4,1.7c1,1.1,1.5,2.8,1.5,5c0,1.8-0.3,3.5-0.9,5s-1.3,2.9-2.3,4.1c-0.9,1.2-2,2.1-3.2,2.7c-1.2,0.7-2.5,1-3.7,1
			c-1.1,0-2-0.3-2.9-0.9c-0.8-0.6-1.5-1.3-2.1-2.1h-0.1L941.9,468.4z M952,449c-1,0-2.2,0.3-3.4,1c-1.2,0.6-2.4,1.5-3.5,2.5l-2,10
			c0.7,1.2,1.4,2,2.1,2.5c0.7,0.5,1.6,0.7,2.4,0.7c1.1,0,2.2-0.3,3.2-1c1-0.6,1.9-1.5,2.7-2.5c0.8-1,1.4-2.2,1.9-3.6
			c0.5-1.3,0.7-2.7,0.7-4.1c0-1.9-0.4-3.3-1.1-4.2S953.3,449,952,449z"/>
		<path fill="#BD1B38" d="M964.8,448.1h1.3l-0.6,3.5h0.2c0.8-1.1,1.6-2.1,2.6-2.8c1-0.8,2-1.2,3.3-1.2c0.3,0,0.5,0,0.8,0.1
			c0.3,0,0.6,0.1,0.9,0.3l-0.6,1.5c-0.2-0.1-0.4-0.1-0.6-0.2c-0.2-0.1-0.5-0.1-0.9-0.1c-1,0-2,0.5-3.1,1.4s-2.1,2.2-2.9,3.9
			l-2.4,12.3H961L964.8,448.1z"/>
		<path fill="#BD1B38" d="M977.1,448.1h1.6l-3.7,18.6h-1.6L977.1,448.1z M978.8,443.6c-0.4,0-0.7-0.1-0.9-0.4s-0.4-0.5-0.4-0.9
			c0-0.5,0.2-0.9,0.5-1.3c0.3-0.3,0.7-0.5,1.1-0.5c0.4,0,0.7,0.1,0.9,0.3s0.4,0.6,0.4,1c0,0.5-0.2,0.9-0.5,1.2
			S979.3,443.6,978.8,443.6z"/>
		<path fill="#BD1B38" d="M985.6,448.1h1.3l-0.4,2.9h0.2c1.1-1,2.1-1.8,3.2-2.4c1.1-0.6,2.1-1,3-1c0.8,0,1.4,0.1,2,0.3
			s1,0.5,1.3,0.8c0.3,0.3,0.6,0.8,0.8,1.2c0.2,0.5,0.3,1,0.3,1.5c1.3-1.2,2.5-2.2,3.7-2.9c1.2-0.7,2.2-1,3.1-1
			c1.6,0,2.7,0.4,3.4,1.2c0.7,0.8,1,1.9,1,3.3c0,0.5,0,0.9-0.1,1.2c0,0.3-0.1,0.8-0.3,1.3l-2.4,12h-1.6l2.4-11.8
			c0.1-0.6,0.2-1,0.3-1.4s0.1-0.7,0.1-1c0-1.2-0.3-2-0.8-2.6c-0.5-0.6-1.3-0.9-2.5-0.9c-0.6,0-1.4,0.3-2.6,0.9
			c-1.1,0.6-2.3,1.6-3.6,3l-2.8,13.7h-1.6l2.4-11.8c0.1-0.6,0.2-1,0.3-1.4c0-0.3,0.1-0.7,0.1-1c0-1.2-0.3-2-0.8-2.6
			c-0.5-0.6-1.3-0.9-2.5-0.9c-0.6,0-1.4,0.3-2.6,0.9c-1.1,0.6-2.3,1.6-3.6,3l-2.8,13.7h-1.6L985.6,448.1z"/>
		<path fill="#BD1B38" d="M1012.2,459.5c0-1.8,0.3-3.4,0.9-4.8s1.3-2.7,2.2-3.8c0.9-1,1.9-1.9,3.1-2.4s2.3-0.9,3.5-0.9
			c1,0,1.9,0.2,2.6,0.5c0.7,0.3,1.3,0.8,1.7,1.4c0.4,0.6,0.8,1.3,1,2.1c0.2,0.8,0.3,1.7,0.3,2.7c0,0.7-0.1,1.3-0.2,1.9
			c-0.1,0.6-0.2,1-0.3,1.4h-13c-0.3,1.5-0.3,2.7-0.1,3.8c0.2,1,0.6,1.9,1.1,2.6c0.5,0.7,1.2,1.2,2,1.5c0.8,0.3,1.6,0.5,2.6,0.5
			c0.8,0,1.6-0.2,2.4-0.5s1.5-0.8,2.2-1.3l0.7,1.2c-0.8,0.5-1.6,1-2.6,1.4c-1,0.4-2,0.6-3.1,0.6c-2.2,0-3.9-0.7-5.2-2
			C1012.9,463.9,1012.2,462,1012.2,459.5z M1025.8,456.2c0.2-0.7,0.2-1.5,0.2-2.2c0-0.6-0.1-1.2-0.2-1.8c-0.1-0.6-0.4-1.1-0.7-1.6
			c-0.3-0.5-0.8-0.8-1.3-1.1s-1.2-0.4-2-0.4c-0.8,0-1.6,0.2-2.4,0.5c-0.8,0.3-1.5,0.8-2.2,1.5s-1.3,1.4-1.8,2.3
			c-0.5,0.9-0.9,1.8-1.1,2.9H1025.8z"/>
		<path fill="#BD1B38" d="M1034.2,448.1h1.3l-0.6,3.5h0.2c0.8-1.1,1.6-2.1,2.6-2.8c1-0.8,2-1.2,3.3-1.2c0.3,0,0.5,0,0.8,0.1
			c0.3,0,0.6,0.1,0.9,0.3l-0.6,1.5c-0.2-0.1-0.4-0.1-0.6-0.2c-0.2-0.1-0.5-0.1-0.9-0.1c-1,0-2,0.5-3.1,1.4s-2.1,2.2-2.9,3.9
			l-2.4,12.3h-1.6L1034.2,448.1z"/>
		<path fill="#BD1B38" d="M1042.5,460.4c0-1.8,0.3-3.5,0.9-5s1.3-2.9,2.3-4.1c0.9-1.2,2-2.1,3.2-2.7c1.2-0.7,2.5-1,3.8-1
			c1.1,0,2,0.3,2.8,0.8s1.5,1.3,2,2.2h0.1l0.7-2.6h1.3l-3.7,18.6h-1.4l0.4-2.9h-0.2c-1,1-2,1.8-3.2,2.4c-1.2,0.6-2.4,1-3.7,1
			c-1.6,0-2.9-0.6-3.9-1.7C1043,464.3,1042.5,462.6,1042.5,460.4z M1048.3,465.8c1.2,0,2.4-0.3,3.6-1c1.2-0.7,2.3-1.7,3.4-3l1.9-9.3
			c-0.7-1.2-1.4-2.1-2.2-2.6c-0.8-0.5-1.6-0.8-2.5-0.8c-1.1,0-2.2,0.3-3.2,1c-1,0.6-1.9,1.5-2.7,2.5s-1.4,2.2-1.9,3.6
			c-0.5,1.3-0.7,2.7-0.7,4.1c0,1.9,0.4,3.3,1.1,4.2C1046,465.3,1047,465.8,1048.3,465.8z"/>
		<path fill="#BD1B38" d="M1075.1,441.1h13.5l-0.3,1.4h-11.8l-2,9.9h10l-0.3,1.4h-9.9l-2.3,11.4h12.2l-0.3,1.4h-13.8L1075.1,441.1z"
			/>
		<path fill="#BD1B38" d="M1105,446.9l1.6-8.1h1.6l-5.6,27.9h-1.4l0.4-2.9h-0.2c-1,1-2,1.8-3.2,2.4c-1.2,0.6-2.4,1-3.7,1
			c-1.6,0-2.9-0.6-3.9-1.7c-1-1.1-1.5-2.8-1.5-5c0-1.8,0.3-3.5,0.9-5s1.3-2.9,2.3-4.1c0.9-1.2,2-2.1,3.2-2.7c1.2-0.7,2.5-1,3.8-1
			c1.1,0,2,0.3,2.8,0.8s1.4,1.3,1.9,2.2h0.2L1105,446.9z M1095,465.8c1.2,0,2.4-0.3,3.6-1c1.2-0.7,2.3-1.7,3.4-3l1.9-9.3
			c-0.7-1.2-1.4-2.1-2.2-2.6c-0.8-0.5-1.6-0.8-2.5-0.8c-1.1,0-2.2,0.3-3.2,1c-1,0.6-1.9,1.5-2.7,2.5s-1.4,2.2-1.9,3.6
			c-0.5,1.3-0.7,2.7-0.7,4.1c0,1.9,0.4,3.3,1.1,4.2C1092.7,465.3,1093.7,465.8,1095,465.8z"/>
		<path fill="#BD1B38" d="M1113.3,448.1h1.6l-3.7,18.6h-1.6L1113.3,448.1z M1115.1,443.6c-0.4,0-0.7-0.1-0.9-0.4
			c-0.2-0.2-0.4-0.5-0.4-0.9c0-0.5,0.2-0.9,0.5-1.3s0.7-0.5,1.1-0.5c0.4,0,0.7,0.1,0.9,0.3c0.2,0.2,0.4,0.6,0.4,1
			c0,0.5-0.2,0.9-0.5,1.2C1115.9,443.4,1115.5,443.6,1115.1,443.6z"/>
		<path fill="#BD1B38" d="M1118.1,459.8c0-1.8,0.3-3.5,0.9-4.9c0.6-1.5,1.3-2.8,2.3-3.8c0.9-1.1,2-1.9,3.2-2.5
			c1.2-0.6,2.4-0.9,3.7-0.9c1.1,0,2,0.2,2.7,0.6c0.7,0.4,1.4,1,2,1.6l-1,1.1c-0.6-0.7-1.1-1.2-1.7-1.5s-1.3-0.5-2.1-0.5
			c-1.1,0-2.1,0.3-3.1,0.9c-1,0.6-1.9,1.3-2.7,2.3c-0.8,1-1.4,2.1-1.9,3.4c-0.5,1.3-0.7,2.6-0.7,4.1c0,2,0.4,3.6,1.3,4.6
			c0.9,1.1,2.1,1.6,3.9,1.6c0.9,0,1.8-0.2,2.6-0.6s1.5-0.8,2.2-1.4l0.8,1.2c-0.7,0.5-1.5,1-2.4,1.5c-1,0.5-2.1,0.7-3.4,0.7
			c-2,0-3.6-0.6-4.8-1.9C1118.7,464,1118.1,462.1,1118.1,459.8z"/>
		<path fill="#BD1B38" d="M1138.5,448.1h1.6l-3.7,18.6h-1.6L1138.5,448.1z M1140.3,443.6c-0.4,0-0.7-0.1-0.9-0.4
			c-0.2-0.2-0.4-0.5-0.4-0.9c0-0.5,0.2-0.9,0.5-1.3s0.7-0.5,1.1-0.5c0.4,0,0.7,0.1,0.9,0.3c0.2,0.2,0.4,0.6,0.4,1
			c0,0.5-0.2,0.9-0.5,1.2C1141.1,443.4,1140.7,443.6,1140.3,443.6z"/>
		<path fill="#BD1B38" d="M1149.7,467.2c-1.9,0-3.4-0.6-4.6-1.9c-1.1-1.3-1.7-3.1-1.7-5.4c0-1.7,0.3-3.3,0.8-4.8
			c0.5-1.5,1.3-2.8,2.2-3.9c0.9-1.1,2-1.9,3.1-2.6c1.2-0.6,2.4-0.9,3.7-0.9c1.9,0,3.5,0.6,4.6,1.9c1.1,1.3,1.7,3.1,1.7,5.4
			c0,1.7-0.3,3.3-0.8,4.8c-0.6,1.5-1.3,2.8-2.2,3.9c-0.9,1.1-2,1.9-3.1,2.6C1152.2,466.8,1151,467.2,1149.7,467.2z M1153.1,449
			c-1,0-2,0.3-3,0.9c-1,0.6-1.8,1.3-2.6,2.3c-0.8,1-1.4,2.1-1.8,3.4c-0.5,1.3-0.7,2.6-0.7,4.1c0,2,0.4,3.6,1.3,4.6
			c0.8,1.1,2,1.6,3.6,1.6c1,0,2-0.3,2.9-0.9c1-0.6,1.8-1.3,2.6-2.3c0.8-1,1.4-2.1,1.8-3.4c0.5-1.3,0.7-2.6,0.7-4.1
			c0-2-0.4-3.5-1.2-4.6C1155.9,449.5,1154.7,449,1153.1,449z M1156.7,439.3h1.9l-5,5.3h-1.5L1156.7,439.3z"/>
		<path fill="#BD1B38" d="M1166.6,448.1h1.3l-0.4,2.9h0.2c1.2-1,2.3-1.8,3.3-2.4c1.1-0.6,2.2-1,3.3-1c1.6,0,2.7,0.4,3.4,1.2
			c0.7,0.8,1,1.9,1,3.3c0,0.5,0,0.9-0.1,1.2c0,0.3-0.1,0.8-0.3,1.3l-2.4,12h-1.6l2.4-11.8c0.1-0.6,0.2-1,0.2-1.4
			c0.1-0.3,0.1-0.7,0.1-1c0-1.2-0.3-2-0.8-2.6c-0.5-0.6-1.4-0.9-2.6-0.9c-0.8,0-1.8,0.3-2.9,0.9s-2.3,1.6-3.7,3l-2.8,13.7h-1.6
			L1166.6,448.1z"/>
	</g>
	<g>
		<rect x="821.1" y="486.3" fill="#FFFFFF" width="286.3" height="38.5"/>
	</g>
	<g>
		<g>
			<g>
				<g>
					<path fill="#FFFFFF" stroke="#010101" stroke-width="5" stroke-miterlimit="10" d="M620.3,350.5"/>
				</g>
			</g>
		</g>
		<g>
			<g>
				<g>
					<g>
						<rect x="380.9" y="458.1" fill="#FFFFFF" width="11.4" height="68.2"/>
					</g>
				</g>
			</g>
			<g>
				<g>
					<g>
						<polygon fill="#FFFFFF" points="404.6,458.1 392.3,493.8 404.4,526.3 415.3,526.3 403.1,493.8 415.4,458.1 						"/>
					</g>
				</g>
			</g>
			<g>
				<g>
					<g>
						<path fill="#FFFFFF" d="M447.5,458.1v40.3l11.4-40.3h7.2c0,0,1.3,0.3,2.7,2.1c1,1.2,1.3,2.7,1.3,2.7v63.4h-11v-34.1
							l-11.5,34.1H436v-63.4c0,0,0.3-1.4,1.7-3c1.1-1.2,2.8-1.8,2.8-1.8H447.5L447.5,458.1z"/>
					</g>
				</g>
			</g>
			<g>
				<g>
					<g>
						<path fill="#FFFFFF" d="M499.6,511.4c0,0,1.3-0.1,3.7-2.2c2.6-2.2,3.3-4.3,3.3-4.3v-26.5c0,0-1-2.8-2.8-4.6s-4.2-2.8-4.2-2.8
							h-5.2v-4.5H506V458h-16.4h-16.4v8.5h11.6v4.5h-5.2c0,0-2.4,1-4.2,2.8c-1.8,1.8-2.8,4.6-2.8,4.6V505c0,0,0.8,2.1,3.3,4.3
							c2.4,2.1,3.7,2.2,3.7,2.2h4.7v5h-11.4v9.8h16.7h16.7v-9.8h-11.4v-5L499.6,511.4L499.6,511.4z M489.6,502.2h-5.7v-21.6h5.7h5.7
							v21.6H489.6z"/>
					</g>
				</g>
			</g>
			<g>
				<g>
					<g>
						<rect x="508.8" y="458.1" fill="#FFFFFF" width="11.4" height="68.2"/>
					</g>
				</g>
			</g>
			<g>
				<g>
					<g>
						<polygon fill="#FFFFFF" points="532.5,458.1 520.2,493.8 532.4,526.3 543.2,526.3 531,493.8 543.3,458.1 						"/>
					</g>
				</g>
			</g>
			<g>
				<g>
					<g>
						<polygon fill="#FFFFFF" points="433.6,458.1 413.9,458.1 417.7,526.3 429.9,526.3 						"/>
					</g>
				</g>
			</g>
			<g>
				<g>
					<g>
						<rect x="413.9" y="536.5" fill="#FFFFFF" width="19.8" height="13.5"/>
					</g>
				</g>
			</g>
			<g>
				<g>
					<g>
						<polygon fill="#FFFFFF" points="544.5,526.1 559.2,526.1 556.3,475.7 547.3,475.7 						"/>
					</g>
				</g>
			</g>
			<g>
				<g>
					<g>
						<rect x="544.5" y="458.1" fill="#FFFFFF" width="14.6" height="10"/>
					</g>
				</g>
			</g>
			<g>
				<g>
					<g>
						<g>
							<path fill="#FFFFFF" d="M436.4,538.1h2.3v0.6h-1.6v1.1h1.5v0.6h-1.5v1.7h-0.7V538.1L436.4,538.1z"/>
						</g>
					</g>
				</g>
				<g>
					<g>
						<g>
							<path fill="#FFFFFF" d="M444.3,540.3h-1.5v1.2h1.7v0.6h-2.4v-4h2.3v0.6h-1.6v1h1.5V540.3z"/>
						</g>
					</g>
				</g>
				<g>
					<g>
						<g>
							<path fill="#FFFFFF" d="M447.7,541.3c0.2,0.1,0.6,0.3,1,0.3c0.5,0,0.7-0.2,0.7-0.5c0-0.3-0.2-0.5-0.7-0.7
								c-0.7-0.2-1.1-0.6-1.1-1.2c0-0.7,0.6-1.2,1.4-1.2c0.4,0,0.8,0.1,1,0.2l-0.2,0.6c-0.1-0.1-0.4-0.2-0.8-0.2
								c-0.5,0-0.7,0.3-0.7,0.5c0,0.3,0.2,0.5,0.8,0.7c0.7,0.3,1,0.6,1,1.2s-0.5,1.2-1.5,1.2c-0.4,0-0.9-0.1-1.1-0.2L447.7,541.3z"
								/>
						</g>
					</g>
				</g>
				<g>
					<g>
						<g>
							<path fill="#FFFFFF" d="M454.2,538.7h-1.1v-0.6h3v0.6H455v3.4h-0.7L454.2,538.7L454.2,538.7z"/>
						</g>
					</g>
				</g>
				<g>
					<g>
						<g>
							<path fill="#FFFFFF" d="M459.9,538.1v4h-0.7v-4H459.9z"/>
						</g>
					</g>
				</g>
				<g>
					<g>
						<g>
							<path fill="#FFFFFF" d="M464.3,542.1l-1.3-4h0.8l0.5,1.8c0.2,0.5,0.3,1,0.4,1.5l0,0c0.1-0.5,0.2-1,0.4-1.4l0.6-1.8h0.8
								l-1.4,4h-0.8V542.1z"/>
						</g>
					</g>
				</g>
				<g>
					<g>
						<g>
							<path fill="#FFFFFF" d="M470.1,540.9l-0.3,1.1H469l1.3-4h0.9l1.3,4h-0.8l-0.4-1.1H470.1z M471.2,540.4l-0.3-1
								c-0.1-0.2-0.1-0.5-0.2-0.7l0,0c-0.1,0.2-0.1,0.5-0.2,0.7l-0.3,1H471.2z"/>
						</g>
					</g>
				</g>
				<g>
					<g>
						<g>
							<path fill="#FFFFFF" d="M475.7,538.1h0.7v3.4h1.6v0.6h-2.4v-4H475.7z"/>
						</g>
					</g>
				</g>
				<g>
					<g>
						<g>
							<path fill="#FFFFFF" d="M485.8,538.1v4h-0.7v-4H485.8z"/>
						</g>
					</g>
				</g>
				<g>
					<g>
						<g>
							<path fill="#FFFFFF" d="M489.3,542.1v-4h0.8l1,1.7c0.3,0.4,0.5,0.9,0.7,1.3l0,0c0-0.5-0.1-1.1-0.1-1.7V538h0.7v4h-0.8l-1-1.8
								c-0.3-0.4-0.5-0.9-0.7-1.4l0,0c0,0.5,0,1,0,1.7v1.4h-0.6V542.1z"/>
						</g>
					</g>
				</g>
				<g>
					<g>
						<g>
							<path fill="#FFFFFF" d="M496.7,538.7h-1.1v-0.6h3v0.6h-1.2v3.4h-0.7V538.7L496.7,538.7z"/>
						</g>
					</g>
				</g>
				<g>
					<g>
						<g>
							<path fill="#FFFFFF" d="M503.9,540.3h-1.5v1.2h1.7v0.6h-2.4v-4h2.3v0.6h-1.6v1h1.5V540.3z"/>
						</g>
					</g>
				</g>
				<g>
					<g>
						<g>
							<path fill="#FFFFFF" d="M507.4,538.1c0.3,0,0.7-0.1,1.1-0.1c0.6,0,1,0.1,1.2,0.3s0.3,0.5,0.3,0.8c0,0.5-0.3,0.9-0.7,1l0,0
								c0.3,0.1,0.5,0.4,0.6,0.8c0.1,0.5,0.2,1,0.3,1.1h-0.8c-0.1-0.1-0.2-0.4-0.3-0.9c-0.1-0.5-0.3-0.7-0.7-0.7H508v1.6h-0.7v-3.9
								H507.4z M508.1,539.9h0.4c0.5,0,0.8-0.3,0.8-0.7c0-0.4-0.3-0.6-0.8-0.6c-0.2,0-0.4,0-0.4,0V539.9z"/>
						</g>
					</g>
				</g>
				<g>
					<g>
						<g>
							<path fill="#FFFFFF" d="M513.4,542.1v-4h0.8l1,1.7c0.3,0.4,0.5,0.9,0.7,1.3l0,0c0-0.5-0.1-1.1-0.1-1.7V538h0.7v4h-0.8l-1-1.8
								c-0.3-0.4-0.5-0.9-0.7-1.4l0,0c0,0.5,0,1,0,1.7v1.4h-0.6V542.1z"/>
						</g>
					</g>
				</g>
				<g>
					<g>
						<g>
							<path fill="#FFFFFF" d="M520.9,540.9l-0.3,1.1h-0.8l1.3-4h0.9l1.3,4h-0.8l-0.4-1.1H520.9z M522,540.4l-0.3-1
								c-0.1-0.2-0.1-0.5-0.2-0.7l0,0c-0.1,0.2-0.1,0.5-0.2,0.7l-0.3,1H522z"/>
						</g>
					</g>
				</g>
				<g>
					<g>
						<g>
							<path fill="#FFFFFF" d="M529.2,542c-0.2,0.1-0.6,0.2-1,0.2c-1.3,0-2-0.8-2-2c0-1.3,0.9-2.1,2.1-2.1c0.5,0,0.8,0.1,1,0.2
								l-0.2,0.6c-0.2-0.1-0.5-0.2-0.8-0.2c-0.8,0-1.4,0.5-1.4,1.5c0,0.9,0.5,1.4,1.4,1.4c0.3,0,0.6-0.1,0.8-0.1L529.2,542z"/>
						</g>
					</g>
				</g>
				<g>
					<g>
						<g>
							<path fill="#FFFFFF" d="M533.2,538.1v4h-0.7v-4H533.2z"/>
						</g>
					</g>
				</g>
				<g>
					<g>
						<g>
							<path fill="#FFFFFF" d="M540.2,540c0,1.3-0.8,2.1-1.9,2.1c-1.1,0-1.8-0.9-1.8-2c0-1.2,0.8-2.1,1.9-2.1
								C539.5,538,540.2,538.9,540.2,540z M537.2,540.1c0,0.8,0.4,1.5,1.1,1.5s1.1-0.7,1.1-1.5c0-0.8-0.4-1.5-1.1-1.5
								S537.2,539.3,537.2,540.1z"/>
						</g>
					</g>
				</g>
				<g>
					<g>
						<g>
							<path fill="#FFFFFF" d="M543.5,542.1v-4h0.8l1,1.7c0.3,0.4,0.5,0.9,0.7,1.3l0,0c0-0.5-0.1-1.1-0.1-1.7V538h0.7v4h-0.8
								l-1.1-1.8c-0.3-0.4-0.5-0.9-0.7-1.4l0,0c0,0.5,0,1,0,1.7v1.4h-0.5V542.1z"/>
						</g>
					</g>
				</g>
				<g>
					<g>
						<g>
							<path fill="#FFFFFF" d="M550.9,540.9l-0.3,1.1h-0.8l1.3-4h0.9l1.3,4h-0.8l-0.4-1.1H550.9z M552.1,540.4l-0.3-1
								c-0.1-0.2-0.1-0.5-0.2-0.7l0,0c-0.1,0.2-0.1,0.5-0.2,0.7l-0.3,1H552.1z"/>
						</g>
					</g>
				</g>
				<g>
					<g>
						<g>
							<path fill="#FFFFFF" d="M556.5,538.1h0.7v3.4h1.7v0.6h-2.4V538.1z"/>
						</g>
					</g>
				</g>
				<g>
					<g>
						<g>
							<path fill="#FFFFFF" d="M436.4,545.3c0.3,0,0.7-0.1,1.2-0.1c0.8,0,1.3,0.2,1.6,0.5c0.4,0.3,0.6,0.8,0.6,1.5s-0.2,1.3-0.6,1.6
								c-0.4,0.4-1,0.5-1.8,0.5c-0.4,0-0.7,0-1-0.1V545.3L436.4,545.3z M437.1,548.7c0.1,0,0.3,0,0.4,0c1,0,1.5-0.5,1.5-1.5
								c0-0.9-0.5-1.4-1.4-1.4c-0.2,0-0.4,0-0.5,0V548.7z"/>
						</g>
					</g>
				</g>
				<g>
					<g>
						<g>
							<path fill="#FFFFFF" d="M445.4,547.4h-1.5v1.2h1.7v0.6h-2.4v-4h2.3v0.6h-1.6v1h1.5V547.4z"/>
						</g>
					</g>
				</g>
				<g>
					<g>
						<g>
							<path fill="#FFFFFF" d="M459.6,549.1c-0.2,0.1-0.6,0.2-1,0.2c-1.3,0-2-0.8-2-2c0-1.3,0.9-2.1,2.1-2.1c0.5,0,0.8,0.1,1,0.2
								l-0.2,0.6c-0.2-0.1-0.5-0.2-0.8-0.2c-0.8,0-1.4,0.5-1.4,1.5c0,0.9,0.5,1.4,1.4,1.4c0.3,0,0.6-0.1,0.8-0.2L459.6,549.1z"/>
						</g>
					</g>
				</g>
				<g>
					<g>
						<g>
							<path fill="#FFFFFF" d="M463.7,545.2v4H463v-4H463.7z"/>
						</g>
					</g>
				</g>
				<g>
					<g>
						<g>
							<path fill="#FFFFFF" d="M467.2,549.2v-4h0.8l1,1.7c0.3,0.4,0.5,0.9,0.7,1.3l0,0c0-0.5-0.1-1.1-0.1-1.7v-1.4h0.7v4h-0.8
								l-1-1.8c-0.3-0.4-0.5-0.9-0.7-1.4l0,0c0,0.5,0,1.1,0,1.7v1.4h-0.6V549.2z"/>
						</g>
					</g>
				</g>
				<g>
					<g>
						<g>
							<path fill="#FFFFFF" d="M476.1,547.4h-1.5v1.2h1.7v0.6h-2.4v-4h2.3v0.6h-1.6v1h1.5V547.4z"/>
						</g>
					</g>
				</g>
				<g>
					<g>
						<g>
							<path fill="#FFFFFF" d="M488.2,545.2v2.3c0,0.8,0.3,1.2,0.8,1.2s0.8-0.4,0.8-1.2v-2.3h0.7v2.3c0,1.2-0.6,1.8-1.6,1.8
								c-0.9,0-1.5-0.5-1.5-1.8v-2.3H488.2z"/>
						</g>
					</g>
				</g>
				<g>
					<g>
						<g>
							<path fill="#FFFFFF" d="M494.1,549.2v-4h0.8l1,1.7c0.3,0.4,0.5,0.9,0.7,1.3l0,0c0-0.5-0.1-1.1-0.1-1.7v-1.4h0.7v4h-0.8
								l-1-1.8c-0.3-0.4-0.5-0.9-0.7-1.4l0,0c0,0.5,0,1.1,0,1.7v1.4h-0.6V549.2z"/>
						</g>
					</g>
				</g>
				<g>
					<g>
						<g>
							<path fill="#FFFFFF" d="M501.5,545.2v4h-0.7v-4H501.5z"/>
						</g>
					</g>
				</g>
				<g>
					<g>
						<g>
							<path fill="#FFFFFF" d="M506,549.2l-1.3-4h0.8l0.6,1.8c0.2,0.5,0.3,1,0.4,1.5l0,0c0.1-0.5,0.3-1,0.4-1.4l0.6-1.8h0.8l-1.4,4
								L506,549.2L506,549.2z"/>
						</g>
					</g>
				</g>
				<g>
					<g>
						<g>
							<path fill="#FFFFFF" d="M513.6,547.4h-1.5v1.2h1.7v0.6h-2.4v-4h2.3v0.6h-1.6v1h1.5V547.4L513.6,547.4z"/>
						</g>
					</g>
				</g>
				<g>
					<g>
						<g>
							<path fill="#FFFFFF" d="M517.1,545.3c0.3,0,0.7-0.1,1.1-0.1c0.6,0,1,0.1,1.2,0.3c0.2,0.2,0.3,0.5,0.3,0.8
								c0,0.5-0.4,0.9-0.7,1l0,0c0.3,0.1,0.5,0.4,0.6,0.8c0.1,0.5,0.2,1,0.3,1.1h-0.8c-0.1-0.1-0.2-0.4-0.3-0.9
								c-0.1-0.5-0.3-0.7-0.7-0.7h-0.4v1.7H517L517.1,545.3L517.1,545.3z M517.8,547h0.4c0.5,0,0.8-0.3,0.8-0.7
								c0-0.4-0.3-0.6-0.8-0.6c-0.2,0-0.4,0-0.5,0L517.8,547L517.8,547z"/>
						</g>
					</g>
				</g>
				<g>
					<g>
						<g>
							<path fill="#FFFFFF" d="M523.1,548.4c0.2,0.1,0.6,0.3,1,0.3c0.5,0,0.7-0.2,0.7-0.5s-0.2-0.5-0.7-0.7
								c-0.7-0.2-1.1-0.6-1.1-1.2c0-0.7,0.5-1.2,1.4-1.2c0.4,0,0.8,0.1,1,0.2l-0.2,0.6c-0.1-0.1-0.4-0.2-0.8-0.2
								c-0.5,0-0.7,0.3-0.7,0.5c0,0.3,0.2,0.5,0.8,0.7c0.7,0.3,1,0.6,1,1.2c0,0.6-0.5,1.2-1.5,1.2c-0.4,0-0.9-0.1-1.1-0.2
								L523.1,548.4z"/>
						</g>
					</g>
				</g>
				<g>
					<g>
						<g>
							<path fill="#FFFFFF" d="M529.7,545.2v4H529v-4H529.7z"/>
						</g>
					</g>
				</g>
				<g>
					<g>
						<g>
							<path fill="#FFFFFF" d="M533.9,545.8h-1.1v-0.6h3v0.6h-1.1v3.4H534L533.9,545.8L533.9,545.8z"/>
						</g>
					</g>
				</g>
				<g>
					<g>
						<g>
							<path fill="#FFFFFF" d="M539.4,548.1l-0.3,1.1h-0.8l1.3-4h0.9l1.3,4H541l-0.4-1.1H539.4z M540.5,547.5l-0.3-1
								c-0.1-0.2-0.1-0.5-0.2-0.8l0,0c-0.1,0.2-0.1,0.5-0.2,0.8l-0.3,1H540.5z"/>
						</g>
					</g>
				</g>
				<g>
					<g>
						<g>
							<path fill="#FFFFFF" d="M545,545.3c0.3,0,0.7-0.1,1.1-0.1c0.6,0,1,0.1,1.2,0.3s0.3,0.5,0.3,0.8c0,0.5-0.4,0.9-0.7,1l0,0
								c0.3,0.1,0.5,0.4,0.6,0.8c0.1,0.5,0.2,1,0.3,1.1H547c-0.1-0.1-0.2-0.4-0.3-0.9c-0.1-0.5-0.3-0.7-0.7-0.7h-0.4v1.7H545V545.3z
								 M545.7,547h0.4c0.5,0,0.8-0.3,0.8-0.7c0-0.4-0.3-0.6-0.8-0.6c-0.2,0-0.4,0-0.4,0V547z"/>
						</g>
					</g>
				</g>
				<g>
					<g>
						<g>
							<path fill="#FFFFFF" d="M551.8,545.2v4h-0.7v-4H551.8z"/>
						</g>
					</g>
				</g>
				<g>
					<g>
						<g>
							<path fill="#FFFFFF" d="M558.9,547.2c0,1.3-0.8,2.1-1.9,2.1s-1.8-0.9-1.8-2c0-1.2,0.8-2.1,1.9-2.1
								C558.2,545.1,558.9,546,558.9,547.2z M555.9,547.2c0,0.8,0.4,1.5,1.1,1.5s1.1-0.7,1.1-1.5s-0.4-1.5-1.1-1.5
								S555.9,546.4,555.9,547.2z"/>
						</g>
					</g>
				</g>
			</g>
		</g>
		<g>
			<g>
				<path fill="#FFFFFF" d="M367.2,394.8c-18.5,0-32.4-8.7-40.3-25.2c-6.4-13.3-7.3-28.6-7.3-36.4c0-10.6,5.9-26.7,17.5-37.8
					l-4.4-6.5c-15.2,11.5-25,29.7-25,50.2c0,34.7,28.2,62.9,62.9,62.9c11.8,0,22.9-3.3,32.3-8.9l-4.6-6.8
					C390.2,391.4,380,394.8,367.2,394.8z"/>
			</g>
			<g>
				<path fill="#FFFFFF" d="M367.4,291.3h-0.3c-7.2,0-13.4,2.3-18.7,5.8l51.7,76.7c11.4-11,15.7-26.6,15.7-36.1
					C415.8,332.9,414.5,291.3,367.4,291.3z"/>
			</g>
			<g>
				<path fill="#FFFFFF" d="M328.1,333.2c0,7.2,0.8,21,6.5,32.8c6.5,13.5,17.4,20.4,32.6,20.4c10.8,0,19.5-2.8,26.3-7.2L342,302.7
					C332.9,311.9,328.1,324.8,328.1,333.2z"/>
			</g>
			<g>
				<path fill="#FFFFFF" d="M433.4,339.1c0-34.7-28.2-62.9-62.9-62.9c-11.2,0-21.6,2.9-30.7,8l3.9,5.8c6.5-4.4,14.4-7.2,23.4-7.2
					h0.3c44.9,0,56.9,34.5,56.9,54.9c0,11.4-5.3,30.4-19.3,43.3l4.8,7.2C424.2,376.6,433.4,358.9,433.4,339.1z"/>
			</g>
			<g>
				<path fill="#FFFFFF" d="M407.8,400.3l7.1-4.8l-5-7.4c-2.2,1.8-4.6,3.4-7,4.9L407.8,400.3z"/>
			</g>
			<g>
				<path fill="#FFFFFF" d="M336.1,278.7l-7.1,4.8l3.6,5.4c2.3-1.7,4.7-3.3,7.1-4.7L336.1,278.7z"/>
			</g>
		</g>
		<g>
			<g>
				<g>
					<rect x="444.7" y="289.4" fill="#FFFFFF" width="8.5" height="82.5"/>
				</g>
			</g>
		</g>
		<g>
			<g>
				<path fill="#FFFFFF" d="M523.7,276.2c-13.4,0-25.9,4.2-36.1,11.4l0.2,5.8c8.1-4.2,22.9-10.5,37.8-9.4
					c14,1.1,50.4,11.8,50.4,48.6c0,21.1-8.9,34.7-16.4,42.5c-9.7,9.9-22.8,15.9-36,16.4c-1,0-1.9,0.1-2.9,0.1
					c-21.9,0-31.8-9.6-43.1-28l7-4.3c11.8,19.3,20.4,24.7,38.6,24c27.9-1,44.5-26.5,44.5-50.7c0-13.2-5.5-23.6-16.4-31.1
					c-8.9-6.1-19.8-8.9-26.4-9.4c-18.7-1.4-38.6,11.5-38.8,11.6l-6.1,4l-0.5-13.5c-11.6,11.4-18.8,27.3-18.8,44.9
					c0,34.7,28.2,62.9,62.9,62.9c34.7,0,62.9-28.2,62.9-62.9C586.6,304.3,558.4,276.2,523.7,276.2z"/>
			</g>
			<g>
				<path fill="#FFFFFF" d="M487,269.4l46.5-2l-0.4-8.2l-54.6,2.4l1.1,32.6c2.5-2.4,5.1-4.6,8-6.6L487,269.4z"/>
			</g>
		</g>
		<g>
			<path fill="#FFFFFF" d="M732.7,473.4c-2.8-9.7-7.2-122.4-9.5-196.6c0.7-4.1,0.9-7.3-1.8-9c-1-0.6-2.2-0.8-3.4-0.6
				c-2.9,0.2-17,1.3-21.8,1.3c-3.3,0-11.9-0.7-15.3-1.3c-0.7-0.1-2-0.5-2.6-0.2c-0.4,0.2-2.2,1.8-2.2,1.8
				c-0.3,0.2-26.8,21-35.6,27.7c-10.2,7.8-39.6,32-39.6,34.9c0,2.1,7.2,7.3,12.1,10.5c-0.9,15.5-11.6,40.6-30.6,59.3
				c-11.6,11.4-31,24.8-57.5,24.2c-59-1.4-138.8-0.1-202.8,1c-38,0.6-74.2,1.2-88,0.8c3.2-3.9,8.5-9.7,13.7-15.4
				c34.1-37.2,66.6-75.3,57.5-95.8c-3.6-8.3-13.3-12.4-28.6-12.4l0,0c-20.4,0-29.5,15.6-29.8,16.2l7.4,4.2c0.1-0.1,7-11.9,22.4-11.9
				l0,0c8,0,18.1,1.3,20.8,7.3c7.6,17.2-35.4,64.1-56,86.6c-16.6,18.1-19.2,21.3-18.8,24.9c0.2,1.4,0.9,2.6,2.1,3.4
				c1.5,1,4.5,1.5,22.3,1.5c13.9,0,36.8-0.3,75.1-0.9c64-1,143.7-2.3,202.5-1c2.4,0.1,4.7,0,7-0.1c2.1,0,74.3-0.4,91.1-0.5
				c4.7,2.2,28,13.2,51.2,23.8c39.8,18.2,51.2,23,55.4,23c1.7,0,2.2-0.7,3-1.7C733.5,476.9,733.6,475,732.7,473.4z M611.9,330.4
				c-1-1.6,26-22.5,33.8-28.5c7.9-6,29.7-21.5,35.2-26.1c3.6,0.4,11.8,1.2,15.3,1.2c1.9,0,4.9-0.1,8.2-0.3c-1.9,1.4-3.9,2.9-5.8,4.3
				c-11.5,8.6-23.4,17.4-34.3,24.7c-22.2,14.8-39.5,25.6-45.7,29.1C618.8,334.8,612.8,331.8,611.9,330.4z M623.7,429L623.7,429
				L623.7,429L623.7,429z M627.9,426.3c-0.1-6.5-0.3-23.7-1-41c-1.1-26.3-2.4-38.1-4-43.8c7.3-4.2,25.2-14.7,46.3-28.8
				c11-7.4,23-16.3,34.6-24.9c3.6-2.7,7.3-5.4,10.9-8.1c0.4,11.6,1.7,53,3.4,94.5c2.5,60.1,4.1,84.8,5.4,95.3
				C706.8,462.9,659.6,441.2,627.9,426.3z"/>
		</g>
		<g>
			<g>
				<g>
					<path fill="#FFFFFF" d="M504,252.4c-6.1,0-9.8-6.6-9.8-12.8c0-5.1,5.1-8.2,10-8.2c2.1,0,4.1,0.5,5.8,1.5
						c3.5,2.1,4.8,6.8,4.8,10.1c0,4-3,8.4-9.6,9.3C504.7,252.4,504.3,252.4,504,252.4z M504.1,236.2c-2.5,0-5.2,1.3-5.2,3.4
						c0,3.8,2.1,8,5,8c0.1,0,0.3,0,0.4,0c3.3-0.4,5.5-2.2,5.5-4.5c0-2.6-1-5.1-2.4-6C506.5,236.5,505.4,236.2,504.1,236.2z"/>
				</g>
			</g>
		</g>
	</g>
	<g>
		<g enable-background="new    ">
			<path fill="#BD1B38" d="M835.5,514.3c1.7-1.7,3.2-3.3,4.4-4.6c1.3-1.4,2.3-2.6,3.2-3.7c0.8-1.1,1.5-2.2,1.9-3.1s0.6-1.9,0.6-2.8
				c0-1.3-0.4-2.4-1.1-3.2c-0.7-0.9-1.8-1.3-3.4-1.3c-0.9,0-1.8,0.3-2.6,0.8c-0.8,0.5-1.5,1.2-2.2,1.9l-0.9-0.9
				c0.8-0.9,1.6-1.6,2.6-2.2c0.9-0.6,2-0.9,3.3-0.9c1.8,0,3.3,0.5,4.3,1.6c1,1.1,1.5,2.4,1.5,4.2c0,1-0.2,2.1-0.7,3.1
				c-0.5,1-1.1,2.1-1.9,3.2c-0.8,1.1-1.8,2.3-3,3.6c-1.2,1.3-2.5,2.7-3.9,4.2c0.6,0,1.1-0.1,1.7-0.1s1.2,0,1.7,0h7v1.3h-12.6V514.3z
				"/>
			<path fill="#BD1B38" d="M850.8,509.9c0-0.7,0.1-1.3,0.4-1.9c0.2-0.6,0.6-1.1,1-1.6s0.8-0.9,1.3-1.3s1-0.7,1.5-0.9V504
				c-0.4-0.3-0.8-0.5-1.1-0.9c-0.4-0.3-0.7-0.7-0.9-1.1c-0.3-0.4-0.5-0.8-0.7-1.3s-0.3-1-0.3-1.5c0-0.7,0.1-1.4,0.4-2
				s0.7-1.2,1.1-1.6s1.1-0.8,1.7-1c0.7-0.2,1.4-0.4,2.1-0.4c0.9,0,1.7,0.1,2.3,0.4c0.7,0.3,1.3,0.6,1.8,1.1s0.8,1.1,1.1,1.7
				c0.2,0.7,0.4,1.4,0.4,2.1c0,0.6-0.1,1.1-0.3,1.6c-0.2,0.5-0.4,1-0.7,1.5c-0.3,0.5-0.6,0.9-0.9,1.2c-0.3,0.4-0.7,0.7-1,0.9v0.1
				c0.5,0.3,0.9,0.6,1.3,0.9c0.4,0.3,0.8,0.7,1.1,1.1c0.3,0.4,0.6,0.9,0.8,1.4c0.2,0.5,0.3,1.1,0.3,1.8c0,0.8-0.2,1.5-0.5,2.1
				c-0.3,0.7-0.7,1.2-1.3,1.7c-0.5,0.5-1.2,0.9-2,1.1c-0.8,0.3-1.6,0.4-2.5,0.4c-0.9,0-1.8-0.1-2.6-0.4c-0.8-0.3-1.5-0.7-2.1-1.2
				c-0.6-0.5-1-1.1-1.4-1.8S850.8,510.8,850.8,509.9z M852.3,509.9c0,0.6,0.1,1.2,0.4,1.8c0.3,0.5,0.6,1,1.1,1.4
				c0.5,0.4,1,0.7,1.6,1c0.6,0.2,1.3,0.4,2.1,0.4c0.7,0,1.4-0.1,2-0.3c0.6-0.2,1.1-0.5,1.5-0.9c0.4-0.4,0.7-0.8,1-1.4
				c0.2-0.5,0.3-1.1,0.3-1.6c0-0.8-0.2-1.5-0.5-2c-0.4-0.5-0.8-1-1.4-1.4s-1.3-0.8-2-1.1s-1.5-0.6-2.3-0.9c-1.1,0.6-1.9,1.4-2.6,2.2
				S852.3,508.7,852.3,509.9z M858.9,504.4c0.9-0.7,1.5-1.5,2-2.2c0.5-0.8,0.7-1.6,0.7-2.5c0-0.6-0.1-1.1-0.3-1.6
				c-0.2-0.5-0.5-0.9-0.8-1.3s-0.8-0.7-1.3-0.9c-0.5-0.2-1.1-0.3-1.8-0.3c-0.6,0-1.1,0.1-1.6,0.3c-0.5,0.2-0.9,0.5-1.3,0.8
				c-0.4,0.3-0.6,0.7-0.8,1.2s-0.3,1-0.3,1.5c0,0.7,0.2,1.4,0.5,1.9c0.3,0.5,0.7,1,1.2,1.4s1.1,0.7,1.8,1
				C857.5,503.9,858.2,504.2,858.9,504.4z"/>
			<path fill="#BD1B38" d="M873.2,512.4c0.7,0.6,1.4,1,2.1,1.4s1.7,0.6,2.8,0.6c1.2,0,2.1-0.3,2.7-0.9c0.6-0.6,0.9-1.3,0.9-2.1
				c0-0.5-0.1-0.9-0.3-1.3c-0.2-0.4-0.5-0.7-0.9-0.9c-0.4-0.3-0.8-0.5-1.2-0.7s-0.9-0.4-1.3-0.5c-0.6-0.2-1.2-0.4-1.8-0.7
				c-0.6-0.2-1.1-0.5-1.6-0.9c-0.5-0.3-0.9-0.7-1.1-1.2c-0.3-0.5-0.4-1-0.4-1.7c0-0.6,0.1-1.1,0.3-1.6c0.2-0.5,0.5-0.9,1-1.3
				s0.9-0.7,1.6-0.9c0.6-0.2,1.3-0.3,2.1-0.3s1.6,0.2,2.4,0.5c0.8,0.3,1.5,0.7,2,1.2l-0.8,1c-0.5-0.4-1.1-0.7-1.6-1
				c-0.6-0.3-1.3-0.4-2.1-0.4c-0.6,0-1.1,0.1-1.5,0.2c-0.4,0.2-0.8,0.4-1.1,0.6c-0.3,0.3-0.5,0.6-0.6,0.9c-0.1,0.3-0.2,0.7-0.2,1
				c0,0.5,0.1,0.8,0.3,1.1c0.2,0.3,0.5,0.6,0.8,0.8c0.3,0.2,0.7,0.4,1.2,0.6c0.4,0.2,0.9,0.4,1.3,0.5c0.6,0.2,1.2,0.5,1.8,0.7
				c0.6,0.2,1.1,0.5,1.6,0.9s0.9,0.8,1.2,1.3c0.3,0.5,0.4,1.1,0.4,1.9c0,0.6-0.1,1.1-0.3,1.7s-0.6,1-1,1.4c-0.5,0.4-1,0.7-1.6,0.9
				c-0.6,0.2-1.4,0.4-2.2,0.4c-1.2,0-2.2-0.2-3.2-0.6s-1.8-0.9-2.5-1.5L873.2,512.4z"/>
			<path fill="#BD1B38" d="M886.1,507.5c0-1.3,0.2-2.4,0.6-3.4c0.4-1,0.9-1.9,1.5-2.6s1.4-1.2,2.2-1.6c0.8-0.4,1.6-0.6,2.5-0.6
				c1.8,0,3.3,0.6,4.3,1.9c1.1,1.2,1.6,3,1.6,5.3c0,0.2,0,0.4,0,0.6s0,0.4-0.1,0.6h-11.1c0,1,0.2,1.9,0.5,2.7
				c0.3,0.8,0.7,1.5,1.2,2.1s1.1,1,1.8,1.4c0.7,0.3,1.5,0.5,2.4,0.5c0.8,0,1.6-0.1,2.3-0.4c0.7-0.2,1.3-0.6,1.9-1l0.6,1.1
				c-0.6,0.4-1.3,0.7-2,1c-0.7,0.3-1.7,0.5-2.8,0.5c-1,0-1.9-0.2-2.8-0.5s-1.6-0.9-2.3-1.6c-0.6-0.7-1.2-1.5-1.5-2.5
				C886.2,509.9,886.1,508.8,886.1,507.5z M897.3,506.6c0-2-0.4-3.5-1.2-4.5c-0.8-1-1.9-1.5-3.3-1.5c-0.7,0-1.3,0.1-1.9,0.4
				c-0.6,0.3-1.1,0.7-1.6,1.2s-0.9,1.1-1.2,1.9c-0.3,0.7-0.5,1.6-0.6,2.5H897.3z"/>
			<path fill="#BD1B38" d="M904.3,516.6v5.6h-1.4v-22.4h1.2l0.1,1.9h0.1c0.8-0.6,1.6-1.1,2.5-1.6s1.8-0.7,2.8-0.7
				c2.1,0,3.6,0.7,4.6,2.1c1,1.4,1.5,3.3,1.5,5.7c0,1.3-0.2,2.5-0.5,3.5c-0.4,1-0.9,1.9-1.5,2.6c-0.6,0.7-1.4,1.3-2.2,1.6
				c-0.8,0.4-1.7,0.6-2.6,0.6c-0.7,0-1.5-0.2-2.3-0.5s-1.6-0.8-2.4-1.4V516.6z M904.3,512.3c0.9,0.7,1.7,1.2,2.5,1.5
				c0.8,0.3,1.5,0.5,2.1,0.5c0.8,0,1.5-0.2,2.2-0.5c0.7-0.3,1.2-0.8,1.7-1.4c0.5-0.6,0.8-1.4,1.1-2.2c0.3-0.9,0.4-1.8,0.4-2.9
				c0-0.9-0.1-1.8-0.3-2.6s-0.5-1.5-0.9-2.1c-0.4-0.6-0.9-1.1-1.5-1.4c-0.6-0.3-1.4-0.5-2.3-0.5c-0.8,0-1.6,0.2-2.4,0.7
				c-0.8,0.4-1.7,1.1-2.7,1.9V512.3z"/>
		</g>
		<g enable-background="new    ">
			<path fill="#BD1B38" d="M924.7,505.4h7.9v3.3h-7.9V505.4z"/>
		</g>
		<g enable-background="new    ">
			<path fill="#BD1B38" d="M948,515.6c-2,0-3.5-0.9-4.6-2.8s-1.6-4.5-1.6-8c0-3.4,0.5-6.1,1.6-7.9s2.6-2.7,4.6-2.7
				c2,0,3.5,0.9,4.5,2.7s1.6,4.4,1.6,7.9c0,3.5-0.5,6.1-1.6,8S950,515.6,948,515.6z M948,514.4c1.4,0,2.6-0.8,3.4-2.4s1.3-4,1.3-7.1
				s-0.4-5.5-1.3-7c-0.8-1.5-2-2.3-3.4-2.3c-1.4,0-2.6,0.8-3.4,2.3c-0.9,1.5-1.3,3.9-1.3,7s0.4,5.5,1.3,7.1
				C945.5,513.6,946.6,514.4,948,514.4z"/>
			<path fill="#BD1B38" d="M957.1,514.3c1.7-1.7,3.2-3.3,4.4-4.6c1.3-1.4,2.3-2.6,3.2-3.7c0.8-1.1,1.5-2.2,1.9-3.1s0.6-1.9,0.6-2.8
				c0-1.3-0.4-2.4-1.1-3.2c-0.7-0.9-1.8-1.3-3.4-1.3c-0.9,0-1.8,0.3-2.6,0.8c-0.8,0.5-1.5,1.2-2.2,1.9l-0.9-0.9
				c0.8-0.9,1.6-1.6,2.6-2.2c0.9-0.6,2-0.9,3.3-0.9c1.8,0,3.3,0.5,4.3,1.6c1,1.1,1.5,2.4,1.5,4.2c0,1-0.2,2.1-0.7,3.1
				c-0.5,1-1.1,2.1-1.9,3.2c-0.8,1.1-1.8,2.3-3,3.6c-1.2,1.3-2.5,2.7-3.9,4.2c0.6,0,1.1-0.1,1.7-0.1s1.2,0,1.7,0h7v1.3h-12.6V514.3z
				"/>
			<path fill="#BD1B38" d="M979.2,507.5c0-1.3,0.2-2.4,0.6-3.5c0.4-1,0.9-1.9,1.5-2.6c0.6-0.7,1.4-1.2,2.2-1.6
				c0.8-0.4,1.7-0.5,2.6-0.5s1.8,0.2,2.7,0.5c0.8,0.4,1.6,0.9,2.2,1.6c0.6,0.7,1.1,1.5,1.5,2.6c0.4,1,0.6,2.2,0.6,3.5
				s-0.2,2.4-0.6,3.4s-0.9,1.8-1.5,2.5c-0.6,0.7-1.4,1.2-2.2,1.6s-1.7,0.5-2.7,0.5s-1.8-0.2-2.6-0.5s-1.6-0.9-2.2-1.6
				c-0.6-0.7-1.1-1.5-1.5-2.5C979.4,510,979.2,508.8,979.2,507.5z M980.7,507.5c0,1,0.1,1.9,0.4,2.8c0.3,0.8,0.7,1.6,1.1,2.2
				c0.5,0.6,1.1,1.1,1.7,1.4c0.7,0.3,1.4,0.5,2.2,0.5s1.5-0.2,2.2-0.5c0.7-0.3,1.3-0.8,1.7-1.4c0.5-0.6,0.9-1.3,1.1-2.2
				c0.3-0.8,0.4-1.8,0.4-2.8c0-1-0.1-2-0.4-2.8c-0.3-0.8-0.7-1.6-1.1-2.2c-0.5-0.6-1.1-1.1-1.7-1.4s-1.4-0.5-2.2-0.5
				s-1.5,0.2-2.2,0.5s-1.2,0.8-1.7,1.4c-0.5,0.6-0.9,1.3-1.1,2.2C980.9,505.6,980.7,506.5,980.7,507.5z"/>
			<path fill="#BD1B38" d="M996.4,507.5c0-1.3,0.2-2.4,0.6-3.5c0.4-1,0.9-1.9,1.5-2.6c0.6-0.7,1.4-1.2,2.2-1.6
				c0.8-0.4,1.7-0.5,2.7-0.5c1.1,0,2,0.2,2.7,0.6s1.3,0.8,1.8,1.3l-0.8,1c-0.5-0.5-1-0.9-1.6-1.2c-0.6-0.3-1.3-0.5-2-0.5
				c-0.8,0-1.5,0.2-2.2,0.5s-1.3,0.8-1.8,1.4c-0.5,0.6-0.9,1.3-1.2,2.2c-0.3,0.8-0.4,1.8-0.4,2.8c0,1,0.1,1.9,0.4,2.8
				c0.3,0.8,0.6,1.6,1.1,2.2c0.5,0.6,1.1,1.1,1.8,1.4c0.7,0.3,1.5,0.5,2.3,0.5c0.8,0,1.6-0.2,2.3-0.5s1.3-0.8,1.8-1.3l0.7,1
				c-0.7,0.6-1.4,1.1-2.2,1.5c-0.8,0.4-1.7,0.6-2.7,0.6c-1,0-1.9-0.2-2.8-0.5c-0.8-0.4-1.6-0.9-2.2-1.6c-0.6-0.7-1.1-1.5-1.5-2.5
				C996.6,510,996.4,508.8,996.4,507.5z"/>
			<path fill="#BD1B38" d="M1012.5,501h-2.4v-1.1l2.4-0.1l0.2-4.5h1.2v4.5h4.5v1.2h-4.5v10.1c0,0.5,0,0.9,0.1,1.3s0.2,0.7,0.4,1
				c0.2,0.3,0.5,0.5,0.8,0.7s0.8,0.2,1.3,0.2c0.3,0,0.6,0,1-0.1s0.7-0.2,0.9-0.3l0.4,1.2c-0.5,0.2-0.9,0.3-1.4,0.4s-0.8,0.2-1.2,0.2
				c-0.8,0-1.4-0.1-1.9-0.3c-0.5-0.2-0.9-0.5-1.2-0.9s-0.5-0.9-0.6-1.5c-0.1-0.6-0.2-1.2-0.2-1.9V501z"/>
			<path fill="#BD1B38" d="M1027,514.3c1.7-1.7,3.2-3.3,4.4-4.6c1.3-1.4,2.3-2.6,3.2-3.7c0.8-1.1,1.5-2.2,1.9-3.1s0.6-1.9,0.6-2.8
				c0-1.3-0.4-2.4-1.1-3.2c-0.7-0.9-1.8-1.3-3.4-1.3c-0.9,0-1.8,0.3-2.6,0.8c-0.8,0.5-1.5,1.2-2.2,1.9l-0.9-0.9
				c0.8-0.9,1.6-1.6,2.6-2.2c0.9-0.6,2-0.9,3.3-0.9c1.8,0,3.3,0.5,4.3,1.6c1,1.1,1.5,2.4,1.5,4.2c0,1-0.2,2.1-0.7,3.1
				c-0.4,1-1.1,2.1-1.9,3.2c-0.8,1.1-1.8,2.3-3,3.6c-1.2,1.3-2.5,2.7-3.9,4.2c0.6,0,1.1-0.1,1.7-0.1c0.6,0,1.2,0,1.7,0h7v1.3H1027
				V514.3z"/>
			<path fill="#BD1B38" d="M1048.7,515.6c-2,0-3.5-0.9-4.6-2.8c-1.1-1.9-1.6-4.5-1.6-8c0-3.4,0.5-6.1,1.6-7.9
				c1.1-1.8,2.6-2.7,4.6-2.7s3.5,0.9,4.6,2.7c1.1,1.8,1.6,4.4,1.6,7.9c0,3.5-0.5,6.1-1.6,8C1052.2,514.7,1050.7,515.6,1048.7,515.6z
				 M1048.7,514.4c1.4,0,2.6-0.8,3.4-2.4s1.3-4,1.3-7.1s-0.4-5.5-1.3-7c-0.8-1.5-2-2.3-3.4-2.3c-1.4,0-2.6,0.8-3.4,2.3
				c-0.9,1.5-1.3,3.9-1.3,7s0.4,5.5,1.3,7.1C1046.2,513.6,1047.3,514.4,1048.7,514.4z"/>
			<path fill="#BD1B38" d="M1059.1,514h4.8v-17h-3.7v-1c0.8-0.1,1.6-0.3,2.2-0.5c0.7-0.2,1.2-0.5,1.7-0.7h1.2V514h4.5v1.3h-10.7V514
				z"/>
			<path fill="#BD1B38" d="M1073.5,511.8c0.3,0.3,0.6,0.6,1,0.9c0.4,0.3,0.8,0.6,1.2,0.8c0.5,0.2,1,0.4,1.5,0.6
				c0.6,0.1,1.2,0.2,1.9,0.2c0.7,0,1.3-0.1,2-0.4c0.6-0.3,1.2-0.6,1.6-1.1s0.8-1.1,1.1-1.7c0.3-0.7,0.4-1.4,0.4-2.3
				c0-1.7-0.5-3-1.4-3.9c-0.9-0.9-2.1-1.4-3.7-1.4c-0.8,0-1.5,0.1-2,0.4s-1.2,0.6-1.8,1l-1-0.6l0.7-9.6h9.5v1.3h-8.2l-0.6,7.4
				c0.5-0.3,1.1-0.6,1.7-0.8c0.6-0.2,1.2-0.3,2-0.3c0.9,0,1.7,0.1,2.4,0.4s1.4,0.6,2,1.2c0.6,0.5,1,1.2,1.3,2
				c0.3,0.8,0.5,1.8,0.5,2.9c0,1.1-0.2,2.1-0.6,2.9c-0.4,0.8-0.9,1.6-1.5,2.2s-1.3,1-2.1,1.3c-0.8,0.3-1.6,0.5-2.4,0.5
				c-0.8,0-1.5-0.1-2.2-0.2c-0.7-0.2-1.2-0.4-1.8-0.6c-0.5-0.3-1-0.6-1.4-0.9s-0.8-0.7-1.1-1L1073.5,511.8z"/>
		</g>
	</g>
	<g enable-background="new    ">
		<path fill="#FFFFFF" d="M825.6,258h6.1v15.5h0.2L844,258h6.7l-10.5,13.3l12.3,20.8h-6.7l-9.2-16.1l-4.9,6.1v10h-6.1V258z"/>
		<path fill="#FFFFFF" d="M856.8,258h6.1v34.1h-6.1V258z"/>
		<path fill="#FFFFFF" d="M871.5,258h6.2l10.6,19.2l3.5,7.3h0.2c-0.1-1.8-0.3-3.7-0.5-5.7c-0.2-2-0.3-4-0.3-5.9V258h5.8v34.1h-6.2
			l-10.6-19.2l-3.5-7.3h-0.2c0.1,1.8,0.3,3.7,0.5,5.7c0.2,2,0.3,3.9,0.3,5.8v14.9h-5.8V258z"/>
		<path fill="#FFFFFF" d="M919,292.7c-2.2,0-4.3-0.4-6.1-1.2c-1.8-0.8-3.4-2-4.7-3.5c-1.3-1.5-2.3-3.4-3.1-5.6s-1.1-4.7-1.1-7.5
			c0-2.7,0.4-5.2,1.1-7.4s1.8-4,3.1-5.5c1.3-1.5,2.9-2.6,4.7-3.4c1.8-0.8,3.9-1.2,6.1-1.2c2.2,0,4.3,0.4,6.1,1.2
			c1.8,0.8,3.4,1.9,4.8,3.4c1.3,1.5,2.4,3.3,3.1,5.5s1.1,4.6,1.1,7.4c0,2.8-0.4,5.3-1.1,7.5s-1.8,4.1-3.1,5.6
			c-1.3,1.5-2.9,2.7-4.8,3.5C923.2,292.3,921.2,292.7,919,292.7z M919,287.5c1.4,0,2.6-0.3,3.7-0.9c1.1-0.6,2-1.4,2.8-2.5
			c0.8-1.1,1.4-2.4,1.8-4s0.6-3.3,0.6-5.2c0-3.8-0.8-6.8-2.4-9c-1.6-2.2-3.7-3.3-6.4-3.3s-4.9,1.1-6.4,3.3c-1.6,2.2-2.4,5.2-2.4,9
			c0,1.9,0.2,3.6,0.6,5.2c0.4,1.5,1,2.9,1.8,4c0.8,1.1,1.7,1.9,2.8,2.5S917.6,287.5,919,287.5z"/>
		<path fill="#FFFFFF" d="M940.9,258h6.1v15.5h0.2l12.2-15.5h6.7l-10.5,13.3l12.3,20.8h-6.7l-9.2-16.1l-4.9,6.1v10h-6.1V258z"/>
		<path fill="#FFFFFF" d="M972,258h6.1v34.1H972V258z"/>
	</g>
	<g enable-background="new    ">
		<path fill="#FFFFFF" d="M826.3,315.5h18.7v2.1h-16.3v13.7h13.8v2.1h-13.8v16.5h-2.4V315.5z"/>
		<path fill="#FFFFFF" d="M848.3,337.5c0-2.1,0.3-3.9,0.9-5.5c0.6-1.6,1.4-3,2.5-4.1c1-1.1,2.2-2,3.5-2.6c1.3-0.6,2.7-0.9,4-0.9
			c3,0,5.3,1,7,3c1.7,2,2.6,4.9,2.6,8.6c0,0.3,0,0.6,0,0.9c0,0.3,0,0.6-0.1,0.9h-18.1c0,1.6,0.3,3,0.7,4.4c0.5,1.3,1.1,2.5,1.9,3.4
			c0.8,1,1.8,1.7,2.9,2.2s2.4,0.8,3.9,0.8c1.4,0,2.6-0.2,3.7-0.6c1.1-0.4,2.1-0.9,3.1-1.6l0.9,1.8c-1,0.6-2.1,1.1-3.3,1.7
			c-1.2,0.5-2.7,0.8-4.6,0.8c-1.6,0-3.1-0.3-4.5-0.9c-1.4-0.6-2.6-1.5-3.7-2.6c-1-1.1-1.9-2.5-2.5-4.1
			C848.6,341.3,848.3,339.5,848.3,337.5z M866.6,335.9c0-3.2-0.7-5.7-2-7.3s-3.1-2.4-5.4-2.4c-1.1,0-2.1,0.2-3.1,0.7
			c-1,0.5-1.9,1.1-2.6,1.9c-0.8,0.8-1.4,1.9-1.9,3.1c-0.5,1.2-0.8,2.5-1,4H866.6z"/>
		<path fill="#FFFFFF" d="M873.8,345.4c1.1,0.9,2.2,1.7,3.4,2.3c1.2,0.6,2.7,0.9,4.5,0.9c2,0,3.5-0.5,4.5-1.5s1.5-2.1,1.5-3.5
			c0-0.8-0.2-1.4-0.5-2s-0.8-1.1-1.4-1.5c-0.6-0.4-1.2-0.8-2-1.1c-0.7-0.3-1.4-0.6-2.2-0.9c-0.9-0.3-1.9-0.7-2.8-1.1
			c-1-0.4-1.8-0.8-2.6-1.4c-0.8-0.5-1.4-1.2-1.9-1.9c-0.5-0.7-0.7-1.7-0.7-2.7c0-0.9,0.2-1.8,0.5-2.6c0.3-0.8,0.9-1.5,1.6-2.1
			c0.7-0.6,1.5-1.1,2.5-1.4c1-0.3,2.1-0.5,3.5-0.5s2.6,0.2,3.9,0.7c1.3,0.5,2.4,1.1,3.3,1.9l-1.3,1.6c-0.8-0.6-1.7-1.2-2.7-1.6
			c-0.9-0.4-2.1-0.7-3.3-0.7c-1,0-1.8,0.1-2.5,0.4c-0.7,0.3-1.3,0.6-1.7,1c-0.5,0.4-0.8,0.9-1,1.5c-0.2,0.6-0.3,1.1-0.3,1.7
			c0,0.7,0.2,1.3,0.5,1.9c0.3,0.5,0.8,0.9,1.3,1.3c0.6,0.4,1.2,0.7,1.9,1c0.7,0.3,1.4,0.6,2.2,0.9c1,0.4,1.9,0.8,2.9,1.1
			c1,0.4,1.9,0.9,2.6,1.4c0.8,0.6,1.4,1.2,1.9,2.1s0.7,1.8,0.7,3.1c0,0.9-0.2,1.8-0.5,2.7c-0.4,0.9-0.9,1.6-1.6,2.2
			c-0.7,0.6-1.6,1.2-2.7,1.5c-1,0.4-2.2,0.6-3.6,0.6c-1.9,0-3.6-0.3-5.2-1c-1.6-0.7-2.9-1.5-4-2.4L873.8,345.4z"/>
		<path fill="#FFFFFF" d="M897.3,326.9h-3.9v-1.8l4-0.2l0.3-7.3h2v7.3h7.3v2h-7.3v16.3c0,0.8,0.1,1.5,0.2,2.2
			c0.1,0.6,0.3,1.2,0.7,1.7s0.7,0.8,1.3,1.1s1.2,0.4,2.1,0.4c0.5,0,1-0.1,1.6-0.2s1.1-0.3,1.5-0.5l0.6,1.9c-0.7,0.3-1.5,0.5-2.2,0.7
			c-0.7,0.2-1.4,0.3-1.9,0.3c-1.2,0-2.2-0.2-3-0.5c-0.8-0.4-1.4-0.9-1.9-1.5c-0.5-0.7-0.8-1.5-1-2.4c-0.2-0.9-0.3-2-0.3-3.1V326.9z"
			/>
		<path fill="#FFFFFF" d="M914.2,318.8c-0.6,0-1.1-0.2-1.5-0.6c-0.4-0.4-0.6-0.9-0.6-1.5c0-0.7,0.2-1.2,0.6-1.5
			c0.4-0.4,0.9-0.5,1.5-0.5s1.1,0.2,1.5,0.5c0.4,0.4,0.6,0.9,0.6,1.5c0,0.6-0.2,1.1-0.6,1.5C915.3,318.6,914.8,318.8,914.2,318.8z
			 M913,324.9h2.3v25H913V324.9z"/>
		<path fill="#FFFFFF" d="M920.8,324.9h2.5l5.6,15.7c0.4,1.2,0.8,2.4,1.3,3.7c0.5,1.2,0.9,2.4,1.3,3.5h0.2c0.4-1.1,0.8-2.3,1.3-3.5
			c0.4-1.2,0.9-2.4,1.3-3.7l5.6-15.7h2.3l-9.3,25h-2.7L920.8,324.9z"/>
		<path fill="#FFFFFF" d="M945.1,343.7c0-2.7,1.3-4.9,3.9-6.3s6.7-2.5,12.3-3.1c0-0.9,0-1.9-0.2-2.8c-0.2-1-0.5-1.8-0.9-2.6
			c-0.4-0.7-1-1.4-1.8-1.8c-0.8-0.5-1.8-0.7-3-0.7c-1.7,0-3.3,0.3-4.6,1c-1.4,0.7-2.5,1.3-3.3,1.9l-1-1.7c0.5-0.3,1-0.7,1.6-1
			c0.6-0.4,1.4-0.7,2.1-1c0.8-0.3,1.6-0.6,2.6-0.8c0.9-0.2,1.9-0.3,2.9-0.3c1.5,0,2.7,0.3,3.8,0.8c1,0.5,1.8,1.2,2.5,2.1
			s1.1,1.9,1.3,3.1c0.3,1.2,0.4,2.4,0.4,3.8v16h-1.9l-0.3-3.2h-0.1c-1.3,1-2.7,1.9-4.1,2.7s-3.1,1.2-4.7,1.2c-1,0-1.9-0.1-2.8-0.4
			c-0.9-0.3-1.6-0.7-2.3-1.3c-0.7-0.6-1.2-1.3-1.6-2.1C945.3,345.9,945.1,344.8,945.1,343.7z M947.5,343.6c0,1.8,0.5,3.1,1.6,3.9
			c1,0.8,2.3,1.1,3.7,1.1c1.5,0,2.9-0.3,4.2-1c1.3-0.7,2.8-1.7,4.3-3V336c-2.6,0.3-4.7,0.7-6.5,1.1c-1.8,0.5-3.2,1-4.3,1.6
			c-1.1,0.6-1.9,1.3-2.3,2.1C947.8,341.7,947.5,342.6,947.5,343.6z"/>
		<path fill="#FFFFFF" d="M972.6,312.4h2.3v34.5c0,0.6,0.1,1,0.3,1.2c0.2,0.3,0.5,0.4,0.8,0.4c0.1,0,0.2,0,0.3,0
			c0.1,0,0.3,0,0.6-0.1l0.4,1.9c-0.2,0.1-0.5,0.1-0.7,0.2c-0.2,0.1-0.6,0.1-0.9,0.1c-2.1,0-3.1-1.3-3.1-4V312.4z"/>
		<path fill="#FFFFFF" d="M995.6,315.5h2.4v34.4h-2.4V315.5z"/>
		<path fill="#FFFFFF" d="M1007.9,324.9h2l0.2,3.9h0.2c1.3-1.3,2.6-2.4,4-3.2c1.4-0.9,2.9-1.3,4.6-1.3c2.6,0,4.5,0.8,5.7,2.3
			c1.2,1.6,1.8,4,1.8,7.3v16.1h-2.3v-15.8c0-2.7-0.4-4.7-1.3-5.9s-2.4-1.9-4.4-1.9c-1.5,0-2.9,0.4-4.1,1.2c-1.2,0.8-2.6,2-4.1,3.5
			v18.9h-2.3V324.9z"/>
		<path fill="#FFFFFF" d="M1036.2,326.9h-3.9v-1.8l4-0.2l0.3-7.3h2v7.3h7.3v2h-7.3v16.3c0,0.8,0.1,1.5,0.2,2.2
			c0.1,0.6,0.3,1.2,0.7,1.7c0.3,0.5,0.7,0.8,1.3,1.1c0.5,0.3,1.2,0.4,2.1,0.4c0.5,0,1-0.1,1.6-0.2c0.6-0.2,1.1-0.3,1.5-0.5l0.6,1.9
			c-0.7,0.3-1.5,0.5-2.2,0.7c-0.7,0.2-1.4,0.3-1.9,0.3c-1.2,0-2.2-0.2-3-0.5c-0.8-0.4-1.4-0.9-1.9-1.5c-0.5-0.7-0.8-1.5-1-2.4
			c-0.2-0.9-0.3-2-0.3-3.1V326.9z"/>
		<path fill="#FFFFFF" d="M1049.3,337.5c0-2.1,0.3-3.9,0.9-5.5c0.6-1.6,1.4-3,2.5-4.1c1-1.1,2.2-2,3.5-2.6c1.3-0.6,2.7-0.9,4-0.9
			c3,0,5.3,1,7,3c1.7,2,2.6,4.9,2.6,8.6c0,0.3,0,0.6,0,0.9c0,0.3,0,0.6-0.1,0.9h-18.1c0,1.6,0.3,3,0.7,4.4c0.5,1.3,1.1,2.5,1.9,3.4
			c0.8,1,1.8,1.7,2.9,2.2s2.4,0.8,3.9,0.8c1.4,0,2.6-0.2,3.7-0.6c1.1-0.4,2.1-0.9,3.1-1.6l0.9,1.8c-1,0.6-2.1,1.1-3.3,1.7
			c-1.2,0.5-2.7,0.8-4.6,0.8c-1.6,0-3.1-0.3-4.5-0.9c-1.4-0.6-2.6-1.5-3.7-2.6c-1-1.1-1.9-2.5-2.5-4.1
			C1049.6,341.3,1049.3,339.5,1049.3,337.5z M1067.6,335.9c0-3.2-0.7-5.7-2-7.3s-3.1-2.4-5.4-2.4c-1.1,0-2.1,0.2-3.1,0.7
			c-1,0.5-1.9,1.1-2.6,1.9c-0.8,0.8-1.4,1.9-1.9,3.1c-0.5,1.2-0.8,2.5-1,4H1067.6z"/>
		<path fill="#FFFFFF" d="M1076.6,324.9h2l0.2,4.6h0.2c0.8-1.6,1.9-2.8,3.1-3.8c1.2-1,2.5-1.5,4-1.5c0.5,0,0.9,0,1.3,0.1
			c0.4,0.1,0.8,0.2,1.2,0.4l-0.5,2.1c-0.4-0.2-0.8-0.3-1.1-0.3c-0.3-0.1-0.7-0.1-1.2-0.1c-1.1,0-2.3,0.5-3.5,1.4
			c-1.2,1-2.3,2.6-3.3,5v17.1h-2.3V324.9z"/>
		<path fill="#FFFFFF" d="M1093.1,324.9h2l0.2,3.9h0.2c1.3-1.3,2.6-2.4,4-3.2c1.4-0.9,2.9-1.3,4.6-1.3c2.6,0,4.5,0.8,5.7,2.3
			c1.2,1.6,1.8,4,1.8,7.3v16.1h-2.3v-15.8c0-2.7-0.4-4.7-1.3-5.9c-0.9-1.3-2.4-1.9-4.4-1.9c-1.5,0-2.9,0.4-4.1,1.2
			c-1.2,0.8-2.6,2-4.1,3.5v18.9h-2.3V324.9z"/>
		<path fill="#FFFFFF" d="M1119.5,343.7c0-2.7,1.3-4.9,3.9-6.3s6.7-2.5,12.3-3.1c0-0.9,0-1.9-0.2-2.8c-0.2-1-0.5-1.8-0.9-2.6
			c-0.4-0.7-1-1.4-1.8-1.8c-0.8-0.5-1.8-0.7-3-0.7c-1.7,0-3.3,0.3-4.6,1c-1.4,0.7-2.5,1.3-3.3,1.9l-1-1.7c0.5-0.3,1-0.7,1.6-1
			c0.6-0.4,1.4-0.7,2.1-1c0.8-0.3,1.6-0.6,2.6-0.8c0.9-0.2,1.9-0.3,2.9-0.3c1.5,0,2.7,0.3,3.8,0.8c1,0.5,1.8,1.2,2.5,2.1
			s1.1,1.9,1.3,3.1c0.3,1.2,0.4,2.4,0.4,3.8v16h-1.9l-0.3-3.2h-0.1c-1.3,1-2.7,1.9-4.1,2.7c-1.5,0.8-3.1,1.2-4.7,1.2
			c-1,0-1.9-0.1-2.8-0.4c-0.9-0.3-1.6-0.7-2.3-1.3c-0.7-0.6-1.2-1.3-1.6-2.1C1119.7,345.9,1119.5,344.8,1119.5,343.7z M1121.9,343.6
			c0,1.8,0.5,3.1,1.6,3.9c1,0.8,2.3,1.1,3.7,1.1c1.5,0,2.9-0.3,4.2-1c1.3-0.7,2.8-1.7,4.3-3V336c-2.6,0.3-4.7,0.7-6.5,1.1
			c-1.8,0.5-3.2,1-4.3,1.6c-1.1,0.6-1.9,1.3-2.3,2.1C1122.1,341.7,1121.9,342.6,1121.9,343.6z"/>
		<path fill="#FFFFFF" d="M1144.8,337.5c0-2.1,0.3-4,0.9-5.6c0.6-1.7,1.5-3,2.5-4.1c1-1.1,2.3-2,3.6-2.6c1.4-0.6,2.8-0.9,4.4-0.9
			c1.7,0,3.2,0.3,4.4,0.9c1.2,0.6,2.2,1.3,3,2.1l-1.4,1.6c-0.8-0.8-1.7-1.4-2.7-1.9c-1-0.5-2.1-0.8-3.3-0.8c-1.3,0-2.5,0.3-3.6,0.8
			c-1.1,0.5-2.1,1.3-2.9,2.3s-1.5,2.2-1.9,3.5c-0.5,1.4-0.7,2.9-0.7,4.5c0,1.6,0.2,3.1,0.7,4.5c0.4,1.4,1,2.5,1.8,3.5
			c0.8,1,1.7,1.7,2.9,2.3c1.1,0.5,2.4,0.8,3.7,0.8c1.3,0,2.5-0.3,3.7-0.8c1.1-0.6,2.1-1.2,3-2l1.2,1.6c-1.1,1-2.3,1.8-3.6,2.4
			c-1.3,0.6-2.8,0.9-4.4,0.9c-1.6,0-3.1-0.3-4.5-0.9s-2.6-1.4-3.6-2.6c-1-1.1-1.8-2.5-2.4-4.1S1144.8,339.5,1144.8,337.5z"/>
		<path fill="#FFFFFF" d="M1171.5,318.8c-0.6,0-1.1-0.2-1.5-0.6c-0.4-0.4-0.6-0.9-0.6-1.5c0-0.7,0.2-1.2,0.6-1.5
			c0.4-0.4,0.9-0.5,1.5-0.5c0.6,0,1.1,0.2,1.5,0.5c0.4,0.4,0.6,0.9,0.6,1.5c0,0.6-0.2,1.1-0.6,1.5
			C1172.6,318.6,1172.1,318.8,1171.5,318.8z M1170.3,324.9h2.3v25h-2.3V324.9z"/>
		<path fill="#FFFFFF" d="M1180.2,337.5c0-2.1,0.3-4,0.9-5.6c0.6-1.7,1.4-3,2.5-4.1s2.2-2,3.6-2.6s2.8-0.9,4.3-0.9
			c1.5,0,2.9,0.3,4.3,0.9s2.6,1.4,3.6,2.6c1,1.1,1.8,2.5,2.5,4.1c0.6,1.7,0.9,3.5,0.9,5.6s-0.3,3.9-0.9,5.6c-0.6,1.6-1.4,3-2.5,4.1
			c-1,1.1-2.2,2-3.6,2.6s-2.8,0.9-4.3,0.9c-1.5,0-2.9-0.3-4.3-0.9s-2.5-1.4-3.6-2.6s-1.8-2.5-2.5-4.1S1180.2,339.5,1180.2,337.5z
			 M1182.6,337.5c0,1.6,0.2,3.1,0.7,4.5c0.5,1.4,1.1,2.5,1.9,3.5c0.8,1,1.7,1.7,2.8,2.3c1.1,0.5,2.2,0.8,3.5,0.8
			c1.3,0,2.4-0.3,3.5-0.8c1.1-0.5,2-1.3,2.8-2.3c0.8-1,1.4-2.1,1.9-3.5c0.5-1.4,0.7-2.9,0.7-4.5c0-1.7-0.2-3.2-0.7-4.5
			c-0.5-1.4-1.1-2.5-1.9-3.5c-0.8-1-1.7-1.8-2.8-2.3c-1.1-0.5-2.3-0.8-3.5-0.8c-1.3,0-2.4,0.3-3.5,0.8c-1.1,0.5-2,1.3-2.8,2.3
			c-0.8,1-1.4,2.2-1.9,3.5C1182.8,334.3,1182.6,335.8,1182.6,337.5z"/>
		<path fill="#FFFFFF" d="M1210.2,324.9h2l0.2,3.9h0.2c1.3-1.3,2.6-2.4,4-3.2c1.4-0.9,2.9-1.3,4.6-1.3c2.6,0,4.5,0.8,5.7,2.3
			s1.8,4,1.8,7.3v16.1h-2.3v-15.8c0-2.7-0.4-4.7-1.3-5.9s-2.4-1.9-4.4-1.9c-1.5,0-2.9,0.4-4.1,1.2c-1.2,0.8-2.6,2-4.1,3.5v18.9h-2.3
			V324.9z"/>
		<path fill="#FFFFFF" d="M1236.5,343.7c0-2.7,1.3-4.9,3.9-6.3s6.7-2.5,12.3-3.1c0-0.9,0-1.9-0.2-2.8c-0.2-1-0.5-1.8-0.9-2.6
			c-0.4-0.7-1-1.4-1.8-1.8c-0.8-0.5-1.8-0.7-3-0.7c-1.7,0-3.3,0.3-4.6,1c-1.4,0.7-2.5,1.3-3.3,1.9l-1-1.7c0.5-0.3,1-0.7,1.6-1
			c0.6-0.4,1.4-0.7,2.1-1c0.8-0.3,1.6-0.6,2.6-0.8c0.9-0.2,1.9-0.3,2.9-0.3c1.5,0,2.7,0.3,3.8,0.8c1,0.5,1.8,1.2,2.5,2.1
			s1.1,1.9,1.3,3.1c0.3,1.2,0.4,2.4,0.4,3.8v16h-1.9l-0.3-3.2h-0.1c-1.3,1-2.7,1.9-4.1,2.7c-1.5,0.8-3.1,1.2-4.7,1.2
			c-1,0-1.9-0.1-2.8-0.4c-0.9-0.3-1.6-0.7-2.3-1.3c-0.7-0.6-1.2-1.3-1.6-2.1C1236.7,345.9,1236.5,344.8,1236.5,343.7z M1238.9,343.6
			c0,1.8,0.5,3.1,1.6,3.9c1,0.8,2.3,1.1,3.7,1.1c1.5,0,2.9-0.3,4.2-1c1.3-0.7,2.8-1.7,4.3-3V336c-2.6,0.3-4.7,0.7-6.5,1.1
			c-1.8,0.5-3.2,1-4.3,1.6c-1.1,0.6-1.9,1.3-2.3,2.1C1239.2,341.7,1238.9,342.6,1238.9,343.6z"/>
		<path fill="#FFFFFF" d="M1264,312.4h2.3v34.5c0,0.6,0.1,1,0.3,1.2c0.2,0.3,0.5,0.4,0.8,0.4c0.1,0,0.2,0,0.3,0s0.3,0,0.6-0.1
			l0.4,1.9c-0.2,0.1-0.5,0.1-0.7,0.2s-0.6,0.1-0.9,0.1c-2.1,0-3.1-1.3-3.1-4V312.4z"/>
	</g>
	<g enable-background="new    ">
		<path fill="#FFFFFF" d="M824,400.1c0-2,0.3-3.8,0.9-5.5s1.4-3,2.4-4.2c1-1.1,2.2-2,3.5-2.6c1.3-0.6,2.8-0.9,4.3-0.9
			c1.5,0,2.9,0.3,4,0.8c1.1,0.5,2.3,1.3,3.6,2.3l-0.1-4.6V375h2.3v37.5h-2l-0.2-3.2h-0.2c-1,1-2.2,1.9-3.6,2.7
			c-1.4,0.8-2.9,1.2-4.6,1.2c-3.2,0-5.7-1.1-7.6-3.4C824.9,407.5,824,404.3,824,400.1z M826.4,400.1c0,1.7,0.2,3.2,0.5,4.5
			s0.9,2.5,1.6,3.5c0.7,1,1.6,1.7,2.6,2.2c1,0.5,2.2,0.8,3.5,0.8c1.4,0,2.7-0.4,4-1.1c1.3-0.7,2.6-1.7,3.9-3.1v-14.9
			c-1.3-1.2-2.6-2-3.7-2.5c-1.2-0.5-2.4-0.7-3.6-0.7c-1.3,0-2.4,0.3-3.5,0.9c-1.1,0.6-2,1.4-2.8,2.3c-0.8,1-1.4,2.2-1.9,3.5
			C826.7,397,826.4,398.5,826.4,400.1z"/>
		<path fill="#FFFFFF" d="M852.4,400.1c0-2.1,0.3-3.9,0.9-5.5c0.6-1.6,1.4-3,2.5-4.1c1-1.1,2.2-2,3.5-2.6c1.3-0.6,2.7-0.9,4-0.9
			c3,0,5.3,1,7,3c1.7,2,2.6,4.9,2.6,8.6c0,0.3,0,0.6,0,0.9c0,0.3,0,0.6-0.1,0.9h-18.1c0,1.6,0.3,3,0.7,4.4c0.5,1.3,1.1,2.5,1.9,3.4
			c0.8,1,1.8,1.7,2.9,2.2c1.1,0.5,2.4,0.8,3.9,0.8c1.4,0,2.6-0.2,3.7-0.6c1.1-0.4,2.1-0.9,3.1-1.6l0.9,1.8c-1,0.6-2.1,1.1-3.3,1.7
			c-1.2,0.5-2.7,0.8-4.6,0.8c-1.6,0-3.1-0.3-4.5-0.9c-1.4-0.6-2.6-1.5-3.7-2.6c-1-1.1-1.9-2.5-2.5-4.1
			C852.7,403.9,852.4,402.1,852.4,400.1z M870.7,398.5c0-3.2-0.7-5.7-2-7.3c-1.3-1.6-3.1-2.4-5.4-2.4c-1.1,0-2.1,0.2-3.1,0.7
			c-1,0.5-1.9,1.1-2.6,1.9c-0.8,0.8-1.4,1.9-1.9,3.1c-0.5,1.2-0.8,2.5-1,4H870.7z"/>
		<path fill="#FFFFFF" d="M888.1,395.3c0-2.7,0.4-5.2,1.1-7.4c0.7-2.2,1.7-4.1,3-5.6c1.3-1.5,2.8-2.7,4.6-3.5c1.8-0.8,3.8-1.2,6-1.2
			c2,0,3.7,0.4,5.3,1.3s2.7,1.8,3.7,2.9l-1.5,1.6c-0.9-1-2-1.9-3.2-2.5c-1.3-0.6-2.7-1-4.2-1c-1.9,0-3.6,0.4-5.1,1.1
			s-2.8,1.8-3.9,3.1c-1.1,1.3-1.9,3-2.4,4.9c-0.6,1.9-0.8,4.1-0.8,6.5c0,2.4,0.3,4.6,0.8,6.5c0.6,1.9,1.4,3.6,2.4,4.9
			c1,1.4,2.3,2.4,3.8,3.2c1.5,0.7,3.1,1.1,5,1.1c1.8,0,3.3-0.3,4.7-1c1.4-0.7,2.7-1.8,3.9-3.2l1.5,1.5c-1.3,1.5-2.8,2.7-4.4,3.6
			c-1.6,0.9-3.6,1.3-5.8,1.3c-2.1,0-4.1-0.4-5.8-1.3c-1.8-0.8-3.3-2-4.6-3.6c-1.3-1.5-2.3-3.4-2.9-5.6
			C888.5,400.5,888.1,398,888.1,395.3z"/>
		<path fill="#FFFFFF" d="M920.7,381.4c-0.6,0-1.1-0.2-1.5-0.6c-0.4-0.4-0.6-0.9-0.6-1.5c0-0.7,0.2-1.2,0.6-1.5
			c0.4-0.4,0.9-0.5,1.5-0.5s1.1,0.2,1.5,0.5c0.4,0.4,0.6,0.9,0.6,1.5c0,0.6-0.2,1.1-0.6,1.5C921.8,381.2,921.3,381.4,920.7,381.4z
			 M919.5,387.5h2.3v25h-2.3V387.5z"/>
		<path fill="#FFFFFF" d="M931.4,387.5h2l0.2,3.9h0.2c1.3-1.3,2.6-2.4,4-3.2c1.4-0.9,2.9-1.3,4.6-1.3c2.6,0,4.5,0.8,5.7,2.3
			c1.2,1.6,1.8,4,1.8,7.3v16.1h-2.3v-15.8c0-2.7-0.4-4.7-1.3-5.9s-2.4-1.9-4.4-1.9c-1.5,0-2.9,0.4-4.1,1.2c-1.2,0.8-2.6,2-4.1,3.5
			v18.9h-2.3V387.5z"/>
		<path fill="#FFFFFF" d="M957.1,400.1c0-2.1,0.3-3.9,0.9-5.5c0.6-1.6,1.4-3,2.5-4.1c1-1.1,2.2-2,3.5-2.6c1.3-0.6,2.7-0.9,4-0.9
			c3,0,5.3,1,7,3c1.7,2,2.6,4.9,2.6,8.6c0,0.3,0,0.6,0,0.9c0,0.3,0,0.6-0.1,0.9h-18.1c0,1.6,0.3,3,0.7,4.4c0.5,1.3,1.1,2.5,1.9,3.4
			c0.8,1,1.8,1.7,2.9,2.2c1.1,0.5,2.4,0.8,3.9,0.8c1.4,0,2.6-0.2,3.7-0.6c1.1-0.4,2.1-0.9,3.1-1.6l0.9,1.8c-1,0.6-2.1,1.1-3.3,1.7
			c-1.2,0.5-2.7,0.8-4.6,0.8c-1.6,0-3.1-0.3-4.5-0.9c-1.4-0.6-2.6-1.5-3.7-2.6c-1-1.1-1.9-2.5-2.5-4.1
			C957.4,403.9,957.1,402.1,957.1,400.1z M975.4,398.5c0-3.2-0.7-5.7-2-7.3c-1.3-1.6-3.1-2.4-5.4-2.4c-1.1,0-2.1,0.2-3.1,0.7
			c-1,0.5-1.9,1.1-2.6,1.9c-0.8,0.8-1.4,1.9-1.9,3.1c-0.5,1.2-0.8,2.5-1,4H975.4z"/>
		<path fill="#FFFFFF" d="M994.9,378.1h2.4v20.9c0,2.3,0.3,4.2,0.8,5.7s1.2,2.7,2,3.7c0.8,0.9,1.8,1.6,2.9,2
			c1.1,0.4,2.3,0.6,3.5,0.6c1.3,0,2.4-0.2,3.6-0.6c1.1-0.4,2.1-1,3-2c0.9-0.9,1.5-2.1,2.1-3.7c0.5-1.5,0.8-3.4,0.8-5.7v-20.9h2.2
			v21.2c0,2.7-0.3,4.9-1,6.7c-0.7,1.8-1.5,3.2-2.6,4.3c-1.1,1.1-2.3,1.8-3.7,2.2s-2.8,0.7-4.3,0.7c-1.5,0-2.9-0.2-4.3-0.7
			c-1.4-0.4-2.6-1.2-3.7-2.2c-1.1-1.1-1.9-2.5-2.6-4.3c-0.6-1.8-1-4-1-6.7V378.1z"/>
		<path fill="#FFFFFF" d="M1027.8,387.5h2l0.2,3.9h0.2c1.3-1.3,2.6-2.4,4-3.2c1.4-0.9,2.9-1.3,4.6-1.3c2.6,0,4.5,0.8,5.7,2.3
			c1.2,1.6,1.8,4,1.8,7.3v16.1h-2.3v-15.8c0-2.7-0.4-4.7-1.3-5.9c-0.9-1.3-2.4-1.9-4.4-1.9c-1.5,0-2.9,0.4-4.1,1.2
			c-1.2,0.8-2.6,2-4.1,3.5v18.9h-2.3V387.5z"/>
		<path fill="#FFFFFF" d="M1056.8,381.4c-0.6,0-1.1-0.2-1.5-0.6c-0.4-0.4-0.6-0.9-0.6-1.5c0-0.7,0.2-1.2,0.6-1.5s0.9-0.5,1.5-0.5
			c0.6,0,1.1,0.2,1.5,0.5c0.4,0.4,0.6,0.9,0.6,1.5c0,0.6-0.2,1.1-0.6,1.5C1057.9,381.2,1057.4,381.4,1056.8,381.4z M1055.6,387.5
			h2.3v25h-2.3V387.5z"/>
		<path fill="#FFFFFF" d="M1063.4,387.5h2.5l5.6,15.7c0.4,1.2,0.8,2.4,1.3,3.7c0.5,1.2,0.9,2.4,1.3,3.5h0.2c0.4-1.1,0.8-2.3,1.3-3.5
			c0.4-1.2,0.9-2.4,1.3-3.7l5.6-15.7h2.3l-9.3,25h-2.7L1063.4,387.5z"/>
		<path fill="#FFFFFF" d="M1088.1,400.1c0-2.1,0.3-3.9,0.9-5.5c0.6-1.6,1.4-3,2.5-4.1c1-1.1,2.2-2,3.5-2.6c1.3-0.6,2.7-0.9,4-0.9
			c3,0,5.3,1,7,3c1.7,2,2.6,4.9,2.6,8.6c0,0.3,0,0.6,0,0.9c0,0.3,0,0.6-0.1,0.9h-18.1c0,1.6,0.3,3,0.7,4.4c0.5,1.3,1.1,2.5,1.9,3.4
			c0.8,1,1.8,1.7,2.9,2.2c1.1,0.5,2.4,0.8,3.9,0.8c1.4,0,2.6-0.2,3.7-0.6c1.1-0.4,2.1-0.9,3.1-1.6l0.9,1.8c-1,0.6-2.1,1.1-3.3,1.7
			c-1.2,0.5-2.7,0.8-4.6,0.8c-1.6,0-3.1-0.3-4.5-0.9c-1.4-0.6-2.6-1.5-3.7-2.6c-1-1.1-1.9-2.5-2.5-4.1
			C1088.4,403.9,1088.1,402.1,1088.1,400.1z M1106.4,398.5c0-3.2-0.7-5.7-2-7.3c-1.3-1.6-3.1-2.4-5.4-2.4c-1.1,0-2.1,0.2-3.1,0.7
			c-1,0.5-1.9,1.1-2.6,1.9c-0.8,0.8-1.4,1.9-1.9,3.1c-0.5,1.2-0.8,2.5-1,4H1106.4z"/>
		<path fill="#FFFFFF" d="M1115.4,387.5h2l0.2,4.6h0.2c0.8-1.6,1.9-2.8,3.1-3.8c1.2-1,2.5-1.5,4-1.5c0.5,0,0.9,0,1.3,0.1
			c0.4,0.1,0.8,0.2,1.2,0.4l-0.5,2.1c-0.4-0.2-0.8-0.3-1.1-0.3c-0.3-0.1-0.7-0.1-1.2-0.1c-1.1,0-2.3,0.5-3.5,1.4s-2.3,2.6-3.3,5
			v17.1h-2.3V387.5z"/>
		<path fill="#FFFFFF" d="M1129.6,408c1.1,0.9,2.2,1.7,3.4,2.3s2.7,0.9,4.5,0.9c2,0,3.5-0.5,4.5-1.5c1-1,1.5-2.1,1.5-3.5
			c0-0.8-0.2-1.4-0.5-2s-0.8-1.1-1.4-1.5c-0.6-0.4-1.2-0.8-2-1.1c-0.7-0.3-1.4-0.6-2.2-0.9c-0.9-0.3-1.9-0.7-2.8-1.1
			s-1.8-0.8-2.6-1.4c-0.8-0.5-1.4-1.2-1.9-1.9c-0.5-0.7-0.7-1.7-0.7-2.7c0-0.9,0.2-1.8,0.5-2.6s0.9-1.5,1.6-2.1
			c0.7-0.6,1.5-1.1,2.5-1.4c1-0.3,2.1-0.5,3.5-0.5c1.3,0,2.6,0.2,3.9,0.7c1.3,0.5,2.4,1.1,3.3,1.9l-1.3,1.6
			c-0.8-0.6-1.7-1.2-2.7-1.6s-2.1-0.7-3.3-0.7c-1,0-1.8,0.1-2.5,0.4c-0.7,0.3-1.3,0.6-1.7,1c-0.5,0.4-0.8,0.9-1,1.5
			c-0.2,0.6-0.3,1.1-0.3,1.7c0,0.7,0.2,1.3,0.5,1.9c0.3,0.5,0.8,0.9,1.3,1.3s1.2,0.7,1.9,1c0.7,0.3,1.4,0.6,2.2,0.9
			c1,0.4,1.9,0.8,2.9,1.1c1,0.4,1.9,0.9,2.6,1.4c0.8,0.6,1.4,1.2,1.9,2.1c0.5,0.8,0.7,1.8,0.7,3.1c0,0.9-0.2,1.8-0.5,2.7
			c-0.4,0.9-0.9,1.6-1.6,2.2c-0.7,0.6-1.6,1.2-2.7,1.5c-1,0.4-2.2,0.6-3.6,0.6c-1.9,0-3.6-0.3-5.2-1c-1.6-0.7-2.9-1.5-4-2.4
			L1129.6,408z"/>
		<path fill="#FFFFFF" d="M1153.7,381.4c-0.6,0-1.1-0.2-1.5-0.6c-0.4-0.4-0.6-0.9-0.6-1.5c0-0.7,0.2-1.2,0.6-1.5
			c0.4-0.4,0.9-0.5,1.5-0.5c0.6,0,1.1,0.2,1.5,0.5c0.4,0.4,0.6,0.9,0.6,1.5c0,0.6-0.2,1.1-0.6,1.5
			C1154.8,381.2,1154.3,381.4,1153.7,381.4z M1152.5,387.5h2.3v25h-2.3V387.5z"/>
		<path fill="#FFFFFF" d="M1165.1,389.5h-3.9v-1.8l4-0.2l0.3-7.3h2v7.3h7.3v2h-7.3v16.3c0,0.8,0.1,1.5,0.2,2.2
			c0.1,0.6,0.3,1.2,0.7,1.7c0.3,0.5,0.7,0.8,1.3,1.1s1.2,0.4,2.1,0.4c0.5,0,1-0.1,1.6-0.2c0.6-0.2,1.1-0.3,1.5-0.5l0.6,1.9
			c-0.7,0.3-1.5,0.5-2.2,0.7c-0.7,0.2-1.4,0.3-1.9,0.3c-1.2,0-2.2-0.2-3-0.5c-0.8-0.4-1.4-0.9-1.9-1.5c-0.5-0.7-0.8-1.5-1-2.4
			c-0.2-0.9-0.3-2-0.3-3.1V389.5z"/>
		<path fill="#FFFFFF" d="M1178.3,406.3c0-2.7,1.3-4.9,3.9-6.3s6.7-2.5,12.3-3.1c0-0.9,0-1.9-0.2-2.8c-0.2-1-0.5-1.8-0.9-2.6
			c-0.4-0.7-1-1.4-1.8-1.8c-0.8-0.5-1.8-0.7-3-0.7c-1.7,0-3.3,0.3-4.6,1c-1.4,0.7-2.5,1.3-3.3,1.9l-1-1.7c0.5-0.3,1-0.7,1.6-1
			c0.6-0.4,1.4-0.7,2.1-1c0.8-0.3,1.6-0.6,2.6-0.8c0.9-0.2,1.9-0.3,2.9-0.3c1.5,0,2.7,0.3,3.8,0.8c1,0.5,1.8,1.2,2.5,2.1
			s1.1,1.9,1.3,3.1c0.3,1.2,0.4,2.4,0.4,3.8v16h-1.9l-0.3-3.2h-0.1c-1.3,1-2.7,1.9-4.1,2.7c-1.5,0.8-3.1,1.2-4.7,1.2
			c-1,0-1.9-0.1-2.8-0.4c-0.9-0.3-1.6-0.7-2.3-1.3c-0.7-0.6-1.2-1.3-1.6-2.1C1178.4,408.5,1178.3,407.4,1178.3,406.3z M1180.7,406.2
			c0,1.8,0.5,3.1,1.6,3.9c1,0.8,2.3,1.1,3.7,1.1c1.5,0,2.9-0.3,4.2-1c1.3-0.7,2.8-1.7,4.3-3v-8.5c-2.6,0.3-4.7,0.7-6.5,1.1
			c-1.8,0.5-3.2,1-4.3,1.6c-1.1,0.6-1.9,1.3-2.3,2.1C1180.9,404.3,1180.7,405.2,1180.7,406.2z"/>
		<path fill="#FFFFFF" d="M1205.7,387.5h2l0.2,4.6h0.2c0.8-1.6,1.9-2.8,3.1-3.8c1.2-1,2.5-1.5,4-1.5c0.5,0,0.9,0,1.3,0.1
			c0.4,0.1,0.8,0.2,1.2,0.4l-0.5,2.1c-0.4-0.2-0.8-0.3-1.1-0.3c-0.3-0.1-0.7-0.1-1.2-0.1c-1.1,0-2.3,0.5-3.5,1.4
			c-1.2,1-2.3,2.6-3.3,5v17.1h-2.3V387.5z"/>
		<path fill="#FFFFFF" d="M1223.4,381.4c-0.6,0-1.1-0.2-1.5-0.6c-0.4-0.4-0.6-0.9-0.6-1.5c0-0.7,0.2-1.2,0.6-1.5
			c0.4-0.4,0.9-0.5,1.5-0.5c0.6,0,1.1,0.2,1.5,0.5c0.4,0.4,0.6,0.9,0.6,1.5c0,0.6-0.2,1.1-0.6,1.5
			C1224.5,381.2,1224,381.4,1223.4,381.4z M1222.2,387.5h2.3v25h-2.3V387.5z"/>
		<path fill="#FFFFFF" d="M1232.1,400.1c0-2.1,0.3-4,0.9-5.6c0.6-1.7,1.4-3,2.5-4.1s2.2-2,3.6-2.6s2.8-0.9,4.3-0.9
			c1.5,0,2.9,0.3,4.3,0.9s2.6,1.4,3.6,2.6c1,1.1,1.8,2.5,2.5,4.1c0.6,1.7,0.9,3.5,0.9,5.6s-0.3,3.9-0.9,5.6c-0.6,1.6-1.4,3-2.5,4.1
			c-1,1.1-2.2,2-3.6,2.6s-2.8,0.9-4.3,0.9c-1.5,0-2.9-0.3-4.3-0.9s-2.5-1.4-3.6-2.6s-1.8-2.5-2.5-4.1S1232.1,402.1,1232.1,400.1z
			 M1234.5,400.1c0,1.6,0.2,3.1,0.7,4.5c0.5,1.4,1.1,2.5,1.9,3.5c0.8,1,1.7,1.7,2.8,2.3c1.1,0.5,2.2,0.8,3.5,0.8
			c1.3,0,2.4-0.3,3.5-0.8c1.1-0.5,2-1.3,2.8-2.3c0.8-1,1.4-2.1,1.9-3.5c0.5-1.4,0.7-2.9,0.7-4.5c0-1.7-0.2-3.2-0.7-4.5
			c-0.5-1.4-1.1-2.5-1.9-3.5c-0.8-1-1.7-1.8-2.8-2.3c-1.1-0.5-2.3-0.8-3.5-0.8c-1.3,0-2.4,0.3-3.5,0.8c-1.1,0.5-2,1.3-2.8,2.3
			c-0.8,1-1.4,2.2-1.9,3.5C1234.7,396.9,1234.5,398.4,1234.5,400.1z"/>
	</g>
	<g enable-background="new    ">
		<path fill="#FFFFFF" d="M827.9,439h4.2c1.8,0,3.3,0.2,4.6,0.7c1.3,0.5,2.4,1.2,3.3,2s1.5,1.9,2,3.1s0.7,2.6,0.7,4.1
			c0,2.2-0.3,4.3-0.9,6.2c-0.6,1.9-1.5,3.5-2.6,4.9c-1.2,1.4-2.6,2.5-4.3,3.3c-1.7,0.8-3.7,1.2-5.9,1.2h-6.2L827.9,439z M829,463.2
			c1.9,0,3.6-0.4,5.1-1.1s2.7-1.8,3.8-3c1-1.3,1.8-2.8,2.3-4.5c0.5-1.7,0.8-3.5,0.8-5.5c0-1.3-0.2-2.5-0.6-3.5
			c-0.4-1.1-0.9-2-1.7-2.7s-1.7-1.4-2.8-1.8c-1.1-0.4-2.4-0.6-3.9-0.6h-2.8l-4.5,22.8H829z"/>
		<path fill="#FFFFFF" d="M845.3,457.3c0-1.8,0.3-3.4,0.9-4.8c0.6-1.5,1.3-2.7,2.2-3.8c0.9-1,1.9-1.9,3.1-2.4
			c1.2-0.6,2.3-0.9,3.5-0.9c1,0,1.9,0.2,2.6,0.5c0.7,0.3,1.3,0.8,1.7,1.4c0.4,0.6,0.8,1.3,1,2.1s0.3,1.7,0.3,2.7
			c0,0.7-0.1,1.3-0.2,1.9c-0.1,0.6-0.2,1-0.3,1.4h-13c-0.3,1.5-0.3,2.7-0.1,3.8c0.2,1,0.6,1.9,1.1,2.6c0.5,0.7,1.2,1.2,2,1.5
			c0.8,0.3,1.6,0.5,2.6,0.5c0.8,0,1.6-0.2,2.4-0.5c0.8-0.4,1.5-0.8,2.2-1.3l0.7,1.2c-0.8,0.5-1.6,1-2.6,1.4c-1,0.4-2,0.6-3.1,0.6
			c-2.2,0-3.9-0.7-5.2-2C845.9,461.8,845.3,459.9,845.3,457.3z M858.9,454.1c0.2-0.7,0.2-1.5,0.2-2.2c0-0.6-0.1-1.2-0.2-1.8
			c-0.1-0.6-0.4-1.1-0.7-1.6c-0.3-0.5-0.8-0.8-1.3-1.1s-1.2-0.4-2-0.4c-0.8,0-1.6,0.2-2.4,0.5s-1.5,0.8-2.2,1.5
			c-0.7,0.6-1.3,1.4-1.8,2.3s-0.9,1.8-1.1,2.9H858.9z"/>
		<path fill="#FFFFFF" d="M863.5,457.7c0-1.8,0.3-3.5,0.9-4.9c0.6-1.5,1.3-2.8,2.3-3.8c0.9-1.1,2-1.9,3.2-2.5
			c1.2-0.6,2.4-0.9,3.7-0.9c1.1,0,2,0.2,2.7,0.6c0.7,0.4,1.4,1,2,1.6l-1,1.1c-0.6-0.7-1.1-1.2-1.7-1.5c-0.6-0.3-1.3-0.5-2.1-0.5
			c-1.1,0-2.1,0.3-3.1,0.9c-1,0.6-1.9,1.3-2.7,2.3c-0.8,1-1.4,2.1-1.9,3.4c-0.5,1.3-0.7,2.6-0.7,4.1c0,2,0.4,3.6,1.3,4.6
			c0.9,1.1,2.1,1.6,3.9,1.6c0.9,0,1.8-0.2,2.6-0.6s1.5-0.8,2.2-1.4l0.8,1.2c-0.7,0.5-1.5,1-2.4,1.5c-1,0.5-2.1,0.7-3.4,0.7
			c-2,0-3.6-0.6-4.8-1.9C864.1,461.8,863.5,460,863.5,457.7z"/>
		<path fill="#FFFFFF" d="M883.9,445.9h1.6l-3.7,18.6h-1.6L883.9,445.9z M885.7,441.4c-0.4,0-0.7-0.1-0.9-0.4
			c-0.2-0.2-0.4-0.5-0.4-0.9c0-0.5,0.2-0.9,0.5-1.3s0.7-0.5,1.1-0.5c0.4,0,0.7,0.1,0.9,0.3c0.2,0.2,0.4,0.6,0.4,1
			c0,0.5-0.2,0.9-0.5,1.2C886.5,441.3,886.1,441.4,885.7,441.4z"/>
		<path fill="#FFFFFF" d="M892.4,445.9h1.3l-0.4,2.9h0.2c1.1-1,2.1-1.8,3.2-2.4c1.1-0.6,2.1-1,3-1c0.8,0,1.4,0.1,2,0.3
			s1,0.5,1.3,0.8c0.3,0.3,0.6,0.8,0.8,1.2c0.2,0.5,0.3,1,0.3,1.5c1.3-1.2,2.5-2.2,3.7-2.9c1.2-0.7,2.2-1,3.1-1
			c1.6,0,2.7,0.4,3.4,1.2c0.7,0.8,1,1.9,1,3.3c0,0.5,0,0.9-0.1,1.2c0,0.3-0.1,0.8-0.3,1.3l-2.4,12h-1.6l2.4-11.8
			c0.1-0.6,0.2-1,0.3-1.4s0.1-0.7,0.1-1c0-1.2-0.3-2-0.8-2.6c-0.5-0.6-1.3-0.9-2.5-0.9c-0.6,0-1.4,0.3-2.6,0.9
			c-1.1,0.6-2.3,1.6-3.6,3l-2.8,13.7h-1.6l2.4-11.8c0.1-0.6,0.2-1,0.3-1.4c0-0.3,0.1-0.7,0.1-1c0-1.2-0.3-2-0.8-2.6
			c-0.5-0.6-1.3-0.9-2.5-0.9c-0.6,0-1.4,0.3-2.6,0.9c-1.1,0.6-2.3,1.6-3.6,3l-2.8,13.7h-1.6L892.4,445.9z"/>
		<path fill="#FFFFFF" d="M925.4,465c-1.9,0-3.4-0.6-4.6-1.9c-1.1-1.3-1.7-3.1-1.7-5.4c0-1.7,0.3-3.3,0.8-4.8
			c0.5-1.5,1.3-2.8,2.2-3.9s2-1.9,3.1-2.6c1.2-0.6,2.4-0.9,3.7-0.9c1.9,0,3.5,0.6,4.6,1.9c1.1,1.3,1.7,3.1,1.7,5.4
			c0,1.7-0.3,3.3-0.8,4.8c-0.6,1.5-1.3,2.8-2.2,3.9c-0.9,1.1-2,1.9-3.1,2.6C927.9,464.7,926.7,465,925.4,465z M928.9,446.9
			c-1,0-2,0.3-3,0.9c-1,0.6-1.8,1.3-2.6,2.3c-0.8,1-1.4,2.1-1.8,3.4c-0.5,1.3-0.7,2.6-0.7,4.1c0,2,0.4,3.6,1.3,4.6
			c0.8,1.1,2,1.6,3.6,1.6c1,0,2-0.3,2.9-0.9c1-0.6,1.8-1.3,2.6-2.3c0.8-1,1.4-2.1,1.8-3.4c0.5-1.3,0.7-2.6,0.7-4.1
			c0-2-0.4-3.5-1.2-4.6C931.6,447.4,930.4,446.9,928.9,446.9z"/>
		<path fill="#FFFFFF" d="M939.8,466.2l-1.3,6.7h-1.6l5.4-27h1.3l-0.4,2.6h0.2c1-0.8,2-1.6,3.2-2.2s2.4-0.9,3.6-0.9
			c1.7,0,3,0.6,4,1.7c1,1.1,1.5,2.8,1.5,5c0,1.8-0.3,3.5-0.9,5c-0.6,1.6-1.3,2.9-2.3,4.1c-0.9,1.2-2,2.1-3.2,2.7s-2.5,1-3.7,1
			c-1.1,0-2-0.3-2.9-0.9s-1.5-1.3-2.1-2.1h-0.1L939.8,466.2z M949.9,446.9c-1,0-2.2,0.3-3.4,1c-1.2,0.6-2.4,1.5-3.5,2.5l-2,10
			c0.7,1.2,1.4,2,2.1,2.5c0.8,0.5,1.6,0.7,2.4,0.7c1.1,0,2.2-0.3,3.2-1c1-0.6,1.9-1.5,2.7-2.5c0.8-1,1.4-2.2,1.9-3.6
			c0.5-1.3,0.7-2.7,0.7-4.1c0-1.9-0.4-3.3-1.1-4.2C952.2,447.3,951.2,446.9,949.9,446.9z"/>
		<path fill="#FFFFFF" d="M962.6,445.9h1.3l-0.6,3.5h0.2c0.8-1.1,1.6-2.1,2.6-2.8c1-0.8,2-1.2,3.3-1.2c0.3,0,0.5,0,0.8,0.1
			c0.3,0,0.6,0.1,0.9,0.3l-0.6,1.5c-0.2-0.1-0.4-0.1-0.6-0.2s-0.5-0.1-0.9-0.1c-1,0-2,0.5-3.1,1.4c-1.1,0.9-2.1,2.2-2.9,3.9
			l-2.4,12.3h-1.6L962.6,445.9z"/>
		<path fill="#FFFFFF" d="M974.9,445.9h1.6l-3.7,18.6h-1.6L974.9,445.9z M976.7,441.4c-0.4,0-0.7-0.1-0.9-0.4
			c-0.2-0.2-0.4-0.5-0.4-0.9c0-0.5,0.2-0.9,0.5-1.3c0.3-0.3,0.7-0.5,1.1-0.5c0.4,0,0.7,0.1,0.9,0.3c0.2,0.2,0.4,0.6,0.4,1
			c0,0.5-0.2,0.9-0.5,1.2S977.1,441.4,976.7,441.4z"/>
		<path fill="#FFFFFF" d="M983.5,445.9h1.3l-0.4,2.9h0.2c1.1-1,2.1-1.8,3.2-2.4s2.1-1,3-1c0.8,0,1.4,0.1,2,0.3
			c0.5,0.2,1,0.5,1.3,0.8c0.3,0.3,0.6,0.8,0.8,1.2c0.2,0.5,0.3,1,0.3,1.5c1.3-1.2,2.5-2.2,3.7-2.9c1.2-0.7,2.2-1,3.1-1
			c1.6,0,2.7,0.4,3.4,1.2s1,1.9,1,3.3c0,0.5,0,0.9-0.1,1.2c0,0.3-0.1,0.8-0.3,1.3l-2.4,12h-1.6l2.4-11.8c0.1-0.6,0.2-1,0.3-1.4
			c0-0.3,0.1-0.7,0.1-1c0-1.2-0.3-2-0.8-2.6c-0.5-0.6-1.3-0.9-2.5-0.9c-0.6,0-1.4,0.3-2.6,0.9s-2.3,1.6-3.6,3l-2.8,13.7h-1.6
			l2.4-11.8c0.1-0.6,0.2-1,0.3-1.4s0.1-0.7,0.1-1c0-1.2-0.3-2-0.8-2.6c-0.5-0.6-1.3-0.9-2.5-0.9c-0.6,0-1.4,0.3-2.6,0.9
			s-2.3,1.6-3.6,3l-2.8,13.7h-1.6L983.5,445.9z"/>
		<path fill="#FFFFFF" d="M1010.1,457.3c0-1.8,0.3-3.4,0.9-4.8c0.6-1.5,1.3-2.7,2.2-3.8c0.9-1,1.9-1.9,3.1-2.4s2.3-0.9,3.5-0.9
			c1,0,1.9,0.2,2.6,0.5c0.7,0.3,1.3,0.8,1.7,1.4c0.4,0.6,0.8,1.3,1,2.1s0.3,1.7,0.3,2.7c0,0.7-0.1,1.3-0.2,1.9
			c-0.1,0.6-0.2,1-0.3,1.4h-13c-0.3,1.5-0.3,2.7-0.1,3.8c0.2,1,0.6,1.9,1.1,2.6c0.5,0.7,1.2,1.2,2,1.5c0.8,0.3,1.6,0.5,2.6,0.5
			c0.8,0,1.6-0.2,2.4-0.5s1.5-0.8,2.2-1.3l0.7,1.2c-0.8,0.5-1.6,1-2.6,1.4s-2,0.6-3.1,0.6c-2.2,0-3.9-0.7-5.2-2
			C1010.7,461.8,1010.1,459.9,1010.1,457.3z M1023.7,454.1c0.2-0.7,0.2-1.5,0.2-2.2c0-0.6-0.1-1.2-0.2-1.8c-0.1-0.6-0.4-1.1-0.7-1.6
			c-0.3-0.5-0.8-0.8-1.3-1.1s-1.2-0.4-2-0.4c-0.8,0-1.6,0.2-2.4,0.5c-0.8,0.3-1.5,0.8-2.2,1.5s-1.3,1.4-1.8,2.3s-0.9,1.8-1.1,2.9
			H1023.7z"/>
		<path fill="#FFFFFF" d="M1032,445.9h1.3l-0.6,3.5h0.2c0.8-1.1,1.6-2.1,2.6-2.8c1-0.8,2-1.2,3.3-1.2c0.3,0,0.5,0,0.8,0.1
			c0.3,0,0.6,0.1,0.9,0.3l-0.6,1.5c-0.2-0.1-0.4-0.1-0.6-0.2s-0.5-0.1-0.9-0.1c-1,0-2,0.5-3.1,1.4c-1.1,0.9-2.1,2.2-2.9,3.9
			l-2.4,12.3h-1.6L1032,445.9z"/>
		<path fill="#FFFFFF" d="M1040.3,458.3c0-1.8,0.3-3.5,0.9-5c0.6-1.6,1.3-2.9,2.3-4.1c0.9-1.2,2-2.1,3.2-2.7s2.5-1,3.8-1
			c1.1,0,2,0.3,2.8,0.8c0.8,0.6,1.5,1.3,2,2.2h0.1l0.7-2.6h1.3l-3.7,18.6h-1.4l0.4-2.9h-0.2c-1,1-2,1.8-3.2,2.4
			c-1.2,0.6-2.4,1-3.7,1c-1.6,0-2.9-0.6-3.9-1.7C1040.8,462.2,1040.3,460.5,1040.3,458.3z M1046.1,463.6c1.2,0,2.4-0.3,3.6-1
			c1.2-0.7,2.3-1.7,3.4-3l1.9-9.3c-0.7-1.2-1.4-2.1-2.2-2.6c-0.8-0.5-1.6-0.8-2.5-0.8c-1.1,0-2.2,0.3-3.2,1s-1.9,1.5-2.7,2.5
			c-0.8,1-1.4,2.2-1.9,3.6c-0.5,1.3-0.7,2.7-0.7,4.1c0,1.9,0.4,3.3,1.1,4.2C1043.8,463.2,1044.8,463.6,1046.1,463.6z"/>
		<path fill="#FFFFFF" d="M1073,439h13.5l-0.3,1.4h-11.8l-2,9.9h10l-0.3,1.4h-9.9l-2.3,11.4h12.2l-0.3,1.4h-13.8L1073,439z"/>
		<path fill="#FFFFFF" d="M1102.9,444.8l1.6-8.1h1.6l-5.6,27.9h-1.4l0.4-2.9h-0.2c-1,1-2,1.8-3.2,2.4c-1.2,0.6-2.4,1-3.7,1
			c-1.6,0-2.9-0.6-3.9-1.7c-1-1.1-1.5-2.8-1.5-5c0-1.8,0.3-3.5,0.9-5c0.6-1.6,1.3-2.9,2.3-4.1c0.9-1.2,2-2.1,3.2-2.7s2.5-1,3.8-1
			c1.1,0,2,0.3,2.8,0.8c0.8,0.5,1.4,1.3,1.9,2.2h0.2L1102.9,444.8z M1092.9,463.6c1.2,0,2.4-0.3,3.6-1c1.2-0.7,2.3-1.7,3.4-3
			l1.9-9.3c-0.7-1.2-1.4-2.1-2.2-2.6c-0.8-0.5-1.6-0.8-2.5-0.8c-1.1,0-2.2,0.3-3.2,1s-1.9,1.5-2.7,2.5c-0.8,1-1.4,2.2-1.9,3.6
			c-0.5,1.3-0.7,2.7-0.7,4.1c0,1.9,0.4,3.3,1.1,4.2C1090.5,463.2,1091.6,463.6,1092.9,463.6z"/>
		<path fill="#FFFFFF" d="M1111.2,445.9h1.6l-3.7,18.6h-1.6L1111.2,445.9z M1112.9,441.4c-0.4,0-0.7-0.1-0.9-0.4s-0.4-0.5-0.4-0.9
			c0-0.5,0.2-0.9,0.5-1.3s0.7-0.5,1.1-0.5c0.4,0,0.7,0.1,0.9,0.3c0.2,0.2,0.4,0.6,0.4,1c0,0.5-0.2,0.9-0.5,1.2
			C1113.8,441.3,1113.4,441.4,1112.9,441.4z"/>
		<path fill="#FFFFFF" d="M1116,457.7c0-1.8,0.3-3.5,0.9-4.9c0.6-1.5,1.3-2.8,2.3-3.8s2-1.9,3.2-2.5c1.2-0.6,2.4-0.9,3.7-0.9
			c1.1,0,2,0.2,2.7,0.6c0.7,0.4,1.4,1,2,1.6l-1,1.1c-0.6-0.7-1.1-1.2-1.7-1.5s-1.3-0.5-2.1-0.5c-1.1,0-2.1,0.3-3.1,0.9
			c-1,0.6-1.9,1.3-2.7,2.3c-0.8,1-1.4,2.1-1.9,3.4c-0.5,1.3-0.7,2.6-0.7,4.1c0,2,0.4,3.6,1.3,4.6c0.9,1.1,2.1,1.6,3.9,1.6
			c0.9,0,1.8-0.2,2.6-0.6c0.8-0.4,1.5-0.8,2.2-1.4l0.8,1.2c-0.7,0.5-1.5,1-2.4,1.5c-1,0.5-2.1,0.7-3.4,0.7c-2,0-3.6-0.6-4.8-1.9
			C1116.6,461.8,1116,460,1116,457.7z"/>
		<path fill="#FFFFFF" d="M1136.4,445.9h1.6l-3.7,18.6h-1.6L1136.4,445.9z M1138.2,441.4c-0.4,0-0.7-0.1-0.9-0.4
			c-0.2-0.2-0.4-0.5-0.4-0.9c0-0.5,0.2-0.9,0.5-1.3s0.7-0.5,1.1-0.5c0.4,0,0.7,0.1,0.9,0.3c0.2,0.2,0.4,0.6,0.4,1
			c0,0.5-0.2,0.9-0.5,1.2C1139,441.3,1138.6,441.4,1138.2,441.4z"/>
		<path fill="#FFFFFF" d="M1147.6,465c-1.9,0-3.4-0.6-4.6-1.9c-1.1-1.3-1.7-3.1-1.7-5.4c0-1.7,0.3-3.3,0.8-4.8
			c0.5-1.5,1.3-2.8,2.2-3.9c0.9-1.1,2-1.9,3.1-2.6c1.2-0.6,2.4-0.9,3.7-0.9c1.9,0,3.5,0.6,4.6,1.9c1.1,1.3,1.7,3.1,1.7,5.4
			c0,1.7-0.3,3.3-0.8,4.8c-0.6,1.5-1.3,2.8-2.2,3.9c-0.9,1.1-2,1.9-3.1,2.6C1150.1,464.7,1148.8,465,1147.6,465z M1151,446.9
			c-1,0-2,0.3-3,0.9c-1,0.6-1.8,1.3-2.6,2.3c-0.8,1-1.4,2.1-1.8,3.4c-0.5,1.3-0.7,2.6-0.7,4.1c0,2,0.4,3.6,1.3,4.6
			c0.8,1.1,2,1.6,3.6,1.6c1,0,2-0.3,2.9-0.9c1-0.6,1.8-1.3,2.6-2.3c0.8-1,1.4-2.1,1.8-3.4c0.5-1.3,0.7-2.6,0.7-4.1
			c0-2-0.4-3.5-1.2-4.6C1153.7,447.4,1152.5,446.9,1151,446.9z M1154.6,437.2h1.9l-5,5.3h-1.5L1154.6,437.2z"/>
		<path fill="#FFFFFF" d="M1164.4,445.9h1.3l-0.4,2.9h0.2c1.2-1,2.3-1.8,3.3-2.4c1.1-0.6,2.2-1,3.3-1c1.6,0,2.7,0.4,3.4,1.2
			c0.7,0.8,1,1.9,1,3.3c0,0.5,0,0.9-0.1,1.2c0,0.3-0.1,0.8-0.3,1.3l-2.4,12h-1.6l2.4-11.8c0.1-0.6,0.2-1,0.2-1.4
			c0.1-0.3,0.1-0.7,0.1-1c0-1.2-0.3-2-0.8-2.6c-0.5-0.6-1.4-0.9-2.6-0.9c-0.8,0-1.8,0.3-2.9,0.9s-2.3,1.6-3.7,3l-2.8,13.7h-1.6
			L1164.4,445.9z"/>
	</g>
</g>
</svg>
