<?xml version="1.0" encoding="utf-8"?>
<!-- Generator: Adobe Illustrator 16.0.0, SVG Export Plug-In . SVG Version: 6.00 Build 0)  -->
<!DOCTYPE svg PUBLIC "-//W3C//DTD SVG 1.1//EN" "http://www.w3.org/Graphics/SVG/1.1/DTD/svg11.dtd">
<svg version="1.1" xmlns="http://www.w3.org/2000/svg" xmlns:xlink="http://www.w3.org/1999/xlink" x="0px" y="0px" width="1500px"
	 height="800px" viewBox="0 0 1500 800" enable-background="new 0 0 1500 800" xml:space="preserve">
<g id="Layer_1">
</g>
<g id="Layer_3">
</g>
<g id="Layer_2">
	<path fill="#FFAE5F" d="M479.24,454.07c-4.34,0-8.44,1.02-12.12,2.79l-51.67-69.17l51.68-69.37c3.67,1.77,7.77,2.79,12.11,2.79
		c15.47,0,28.06-12.59,28.06-28.06c0-15.48-12.59-28.06-28.06-28.06c-15.47,0-28.06,12.58-28.06,28.06c0,6.53,2.26,12.53,6.01,17.3
		l-53.76,62.44l-53.95-62.47c3.74-4.77,5.99-10.75,5.99-17.27c0-15.47-12.59-28.06-28.06-28.06c-15.48,0-28.06,12.59-28.06,28.06
		c0,15.47,12.58,28.06,28.06,28.06c4.38,0,8.52-1.04,12.21-2.84l52.08,69.25L339.6,456.9c-3.69-1.79-7.81-2.83-12.18-2.83
		c-15.48,0-28.06,12.59-28.06,28.07c0,15.46,12.58,28.05,28.06,28.05c15.47,0,28.06-12.59,28.06-28.05c0-6.52-2.25-12.51-5.99-17.28
		l54.23-62.69l53.54,62.57c-3.79,4.79-6.08,10.83-6.08,17.4c0,15.46,12.58,28.05,28.06,28.05c15.47,0,28.06-12.59,28.06-28.05
		C507.3,466.66,494.71,454.07,479.24,454.07z M458.45,293.05c0-11.46,9.32-20.78,20.78-20.78s20.78,9.33,20.78,20.78
		c0,11.46-9.32,20.79-20.78,20.79c-2.7,0-5.27-0.56-7.65-1.5l3.95-5.3c1.19,0.31,2.41,0.54,3.7,0.54c8.03,0,14.53-6.51,14.53-14.53
		c0-8.02-6.5-14.52-14.53-14.52c-8.02,0-14.53,6.5-14.53,14.52c0,2.4,0.64,4.64,1.67,6.64l-4.33,5.03
		C459.78,301.39,458.45,297.38,458.45,293.05z M327.42,313.84c-11.47,0-20.79-9.33-20.79-20.79c0-11.46,9.32-20.79,20.79-20.79
		c11.46,0,20.78,9.33,20.78,20.79c0,4.31-1.32,8.31-3.58,11.64l-4.34-5.02c1.02-1.99,1.65-4.22,1.65-6.61
		c0-8.03-6.49-14.52-14.52-14.52s-14.53,6.5-14.53,14.52c0,8.02,6.5,14.53,14.53,14.53c1.31,0,2.55-0.23,3.76-0.56l3.98,5.29
		C332.75,313.28,330.15,313.84,327.42,313.84z M348.2,482.14c0,11.45-9.33,20.78-20.78,20.78c-11.47,0-20.79-9.33-20.79-20.78
		c0-11.46,9.32-20.8,20.79-20.8c2.72,0,5.31,0.56,7.7,1.52l-3.98,5.29c-1.19-0.32-2.43-0.55-3.72-0.55
		c-8.02,0-14.53,6.5-14.53,14.53c0,8.01,6.5,14.52,14.53,14.52s14.52-6.51,14.52-14.52c0-2.41-0.63-4.64-1.66-6.63l4.35-5.02
		C346.88,473.81,348.2,477.83,348.2,482.14z M479.24,502.92c-11.46,0-20.78-9.33-20.78-20.78c0-4.36,1.36-8.39,3.65-11.74l4.31,5.04
		c-1.06,2.01-1.71,4.27-1.71,6.7c0,8.01,6.5,14.52,14.53,14.52c8.03,0,14.53-6.51,14.53-14.52c0-8.03-6.5-14.53-14.53-14.53
		c-1.28,0-2.51,0.22-3.69,0.53l-3.96-5.29c2.37-0.95,4.94-1.51,7.65-1.51c11.46,0,20.78,9.33,20.78,20.8
		C500.02,493.59,490.7,502.92,479.24,502.92z"/>
	<g>
		<path fill="#FFAE5F" d="M579.3,523.04V416.58h42.89h5.31c14.4,0,24.12,2.51,29.13,7.53c5.01,5.02,7.53,14.7,7.53,29.05
			c0,14.25-2.39,23.71-7.18,28.39c-4.78,4.68-14.45,7.02-29.01,7.02l-4.68,0.08H599.5v34.39H579.3z M599.5,471.64h23.01
			c9.15,0,14.96-1.05,17.43-3.16c2.47-2.11,3.71-7.08,3.71-14.94c0-9-1.03-14.57-3.08-16.73c-2.05-2.16-7.4-3.24-16.03-3.24H599.5
			V471.64z"/>
		<path fill="#FFAE5F" d="M693.44,470.09h-18.25c0-8.94,2.08-14.93,6.24-17.95c4.16-3.01,12.4-4.52,24.73-4.52
			c13.41,0,22.49,1.85,27.22,5.53c4.73,3.69,7.1,10.74,7.1,21.13v48.75h-17.86l0.86-10.22l-0.47-0.08
			c-3.43,7.44-11.36,11.15-23.79,11.15c-18.05,0-27.07-7.67-27.07-23.01c0-15.49,9.23-23.24,27.69-23.24
			c12.32,0,19.81,2.83,22.46,8.5h0.31v-12.09c0-5.83-1.02-9.68-3.04-11.58c-2.03-1.9-6.19-2.85-12.48-2.85
			C697.99,459.63,693.44,463.11,693.44,470.09z M705.37,489.66c-10.08,0-15.13,3.48-15.13,10.45c0,4.83,1.04,8.01,3.12,9.52
			c2.08,1.51,6.45,2.26,13.1,2.26c10.87,0,16.3-3.67,16.3-11C722.77,493.41,716.97,489.66,705.37,489.66z"/>
		<path fill="#FFAE5F" d="M757.12,448.48h17.86l-1.09,10.45l0.39,0.07c4.26-7.79,10.97-11.7,20.12-11.7
			c13.1,0,19.66,8.27,19.66,24.8v5.23h-16.85c0.21-2.03,0.32-3.36,0.32-3.98c0-7.96-3.1-11.93-9.28-11.93
			c-8.84,0-13.26,5.9-13.26,17.7v43.91h-17.86V448.48z"/>
		<path fill="#FFAE5F" d="M870.48,448.48v13.57h-28.69v37.44c0,6.92,2.62,10.38,7.88,10.38c5.77,0,8.66-4.18,8.66-12.56v-2.96h15.2
			v3.73c0,3.44-0.11,6.37-0.31,8.82c-0.99,11.38-9.47,17.08-25.43,17.08c-15.91,0-23.86-7.3-23.86-21.92v-40.01h-9.67v-13.57h9.67
			v-16.69h17.86v16.69H870.48z"/>
		<path fill="#FFAE5F" d="M899.61,416.58v14.9h-17.86v-14.9H899.61z M899.61,448.48v74.56h-17.86v-74.56H899.61z"/>
		<path fill="#FFAE5F" d="M963.06,494.57h17.78v2.57l-1.09,11.31c-2.18,10.29-12.84,15.45-31.97,15.45c-14.04,0-23.37-2.53-28-7.6
			c-4.63-5.07-6.94-15.28-6.94-30.61c0-14.98,2.31-25.07,6.94-30.27c4.63-5.2,13.62-7.79,26.99-7.79c12.89,0,21.63,1.89,26.2,5.65
			c4.57,3.77,6.86,10.93,6.86,21.49h-17.71c0-8.69-5.02-13.02-15.05-13.02c-7.12,0-11.6,1.37-13.41,4.13
			c-1.82,2.76-2.73,9.51-2.73,20.28c0,10.4,1,16.94,3,19.62c2,2.67,6.9,4.01,14.7,4.01c6.13,0,10.08-0.92,11.82-2.77
			C962.19,505.17,963.06,501.02,963.06,494.57z"/>
		<path fill="#FFAE5F" d="M1010.21,416.58v14.9h-17.85v-14.9H1010.21z M1010.21,448.48v74.56h-17.85v-74.56H1010.21z"/>
		<path fill="#FFAE5F" d="M1026.16,448.48h18.17l-0.71,11.08l0.39,0.08c4.32-8.05,12.35-12.09,24.1-12.09
			c10.87,0,18.33,2.69,22.42,8.07c4.08,5.39,6.13,15.2,6.13,29.44c0,14.87-2.03,25.07-6.08,30.57c-4.06,5.51-11.58,8.27-22.54,8.27
			c-11.71,0-19.35-3.9-22.94-11.7h-0.3v42.82h-18.64V448.48z M1061.33,461.66c-6.81,0-11.26,1.53-13.34,4.6
			c-2.08,3.07-3.11,9.56-3.11,19.5c0,9.67,1.12,16.08,3.35,19.26c2.24,3.18,6.79,4.76,13.66,4.76c6.96,0,11.48-1.51,13.56-4.52
			c2.08-3.02,3.12-9.5,3.12-19.42c0-10.19-1.05-16.77-3.16-19.73C1073.31,463.14,1068.61,461.66,1061.33,461.66z"/>
		<path fill="#FFAE5F" d="M1128.53,470.09h-18.25c0-8.94,2.09-14.93,6.24-17.95c4.16-3.01,12.4-4.52,24.72-4.52
			c13.41,0,22.49,1.85,27.22,5.53c4.73,3.69,7.1,10.74,7.1,21.13v48.75h-17.86l0.86-10.22l-0.47-0.08
			c-3.44,7.44-11.37,11.15-23.79,11.15c-18.04,0-27.06-7.67-27.06-23.01c0-15.49,9.23-23.24,27.69-23.24
			c12.33,0,19.81,2.83,22.47,8.5h0.31v-12.09c0-5.83-1.01-9.68-3.04-11.58c-2.02-1.9-6.19-2.85-12.47-2.85
			C1133.08,459.63,1128.53,463.11,1128.53,470.09z M1140.46,489.66c-10.08,0-15.13,3.48-15.13,10.45c0,4.83,1.03,8.01,3.11,9.52
			c2.09,1.51,6.45,2.26,13.1,2.26c10.87,0,16.31-3.67,16.31-11C1157.86,493.41,1152.06,489.66,1140.46,489.66z"/>
	</g>
	<path fill="#2E2A26" d="M618.09,281.56v95.32h-12.02v-95.32h-29.16v-11.15h81.11v11.15H618.09z"/>
	<path fill="#2E2A26" d="M656.89,302.32v74.56h-10.92v-74.56H656.89z"/>
	<path fill="#2E2A26" d="M695.66,302.32v81.42v3.2c0,12.32-5.12,18.48-15.36,18.48c-1.5,0-3.26-0.18-5.23-0.55v-7.72
		c0.63-0.11,1.04-0.16,1.25-0.16l1.4-0.08l4.52-1.49c1.67-1.4,2.5-5.3,2.5-11.7v-81.42H695.66z M695.66,270.41v12.25h-10.92v-12.25
		H695.66z"/>
	<path fill="#2E2A26" d="M775.99,302.32v74.56h-10.92l0.77-9.75l-0.23-0.23c-3.8,7.38-11.91,11.07-24.33,11.07
		c-17.42,0-26.13-8.69-26.13-26.06v-49.6h10.92v49.6c0,6.76,1.11,11.29,3.35,13.58c2.24,2.29,6.63,3.43,13.18,3.43
		c8.58,0,14.47-1.7,17.67-5.11c3.2-3.4,4.8-9.66,4.8-18.76v-42.73H775.99z"/>
	<path fill="#2E2A26" d="M807.58,323.21h-10.84c0-8.69,1.96-14.52,5.89-17.51c3.93-3,11.61-4.49,23.05-4.49
		c12.43,0,20.83,1.83,25.19,5.5c4.37,3.67,6.56,10.65,6.56,20.94v49.22H846.5l0.86-8.04l-0.24-0.08
		c-4.16,6.14-12.61,9.21-25.35,9.21c-18.82,0-28.23-7.57-28.23-22.7c0-9,2.1-15.21,6.32-18.65c4.21-3.42,11.83-5.14,22.85-5.14
		c13.1,0,20.95,2.58,23.55,7.72l0.23-0.08v-9.05c0-8.52-1.17-14.05-3.52-16.58c-2.33-2.52-7.46-3.78-15.36-3.78
		c-13.41,0-20.11,3.77-20.11,11.31C807.51,321.4,807.53,322.13,807.58,323.21z M825.13,339.98c-8.38,0-13.82,0.89-16.35,2.66
		c-2.52,1.77-3.77,5.56-3.77,11.38c0,6.04,1.24,10.03,3.74,11.98c2.49,1.95,7.56,2.92,15.2,2.92c15.39,0,23.09-4.68,23.09-14.04
		c0-5.87-1.5-9.83-4.49-11.86C839.57,341,833.76,339.98,825.13,339.98z"/>
	<path fill="#2E2A26" d="M877.61,302.32h10.53l-0.32,10.14l0.32,0.23c3.32-7.64,11.59-11.46,24.79-11.46
		c10.65,0,17.87,1.87,21.63,5.61c3.77,3.74,5.65,10.92,5.65,21.53v48.52H929.3V329.3v-2.81c0-6.39-1.22-10.69-3.67-12.9
		c-2.44-2.21-7.15-3.32-14.12-3.32c-15.34,0-23,7.26-23,21.76v44.85h-10.91V302.32z"/>
	<path fill="#2E2A26" d="M971.34,323.21H960.5c0-8.69,1.96-14.52,5.89-17.51c3.92-3,11.6-4.49,23.04-4.49
		c12.43,0,20.83,1.83,25.19,5.5c4.37,3.67,6.55,10.65,6.55,20.94v49.22h-10.92l0.86-8.04l-0.23-0.08
		c-4.16,6.14-12.6,9.21-25.35,9.21c-18.82,0-28.23-7.57-28.23-22.7c0-9,2.1-15.21,6.32-18.65c4.21-3.42,11.83-5.14,22.85-5.14
		c13.11,0,20.95,2.58,23.56,7.72l0.23-0.08v-9.05c0-8.52-1.17-14.05-3.5-16.58c-2.34-2.52-7.47-3.78-15.37-3.78
		c-13.42,0-20.12,3.77-20.12,11.31C971.27,321.4,971.29,322.13,971.34,323.21z M988.9,339.98c-8.38,0-13.82,0.89-16.35,2.66
		c-2.52,1.77-3.78,5.56-3.78,11.38c0,6.04,1.25,10.03,3.74,11.98c2.5,1.95,7.57,2.92,15.21,2.92c15.39,0,23.09-4.68,23.09-14.04
		c0-5.87-1.5-9.83-4.49-11.86C1003.33,341,997.52,339.98,988.9,339.98z"/>
	<rect y="777.49" fill="#FFAE5F" width="1500" height="22.51"/>
</g>
</svg>
