<?xml version="1.0" encoding="utf-8"?>
<!-- Generator: Adobe Illustrator 19.0.0, SVG Export Plug-In . SVG Version: 6.00 Build 0)  -->
<svg version="1.1" id="Layer_1" xmlns="http://www.w3.org/2000/svg" xmlns:xlink="http://www.w3.org/1999/xlink" x="0px" y="0px"
	 viewBox="600 -325 1500 800" enable-background="new 600 -325 1500 800" xml:space="preserve">
<rect x="600" y="74.1" fill="#F6384D" width="1500" height="399.1"/>
<g>
	<g>
		<path fill="#F6384D" d="M1167-85.6v-84.4h41.6c10.3,0,17.5,1.8,21.4,5.4c3.9,3.6,5.9,10.1,5.9,19.5c0,8.5-1,14.4-2.9,17.5
			c-2,3.1-6,5.3-12,6.5v0.6c9.4,0.6,14,6,14,16.4v18.6h-16V-101c0-8.7-4.3-13-12.9-13H1183v28.4H1167z M1183-127.6h23
			c5.5,0,9.1-1,10.9-2.9c1.8-2,2.7-5.9,2.7-11.8c0-6-0.8-9.9-2.3-11.7c-1.5-1.8-4.9-2.6-10.2-2.6H1183V-127.6z"/>
		<path fill="#F6384D" d="M1286.3-104.6h14.2v2.3c0,11.5-8.7,17.3-26,17.3c-11.8,0-19.4-2-23.1-6c-3.6-4-5.4-12.5-5.4-25.4
			c0-11.5,1.9-19.2,5.7-23.2c3.8-4,11.2-5.9,22.2-5.9c10.6,0,17.6,1.9,21.2,5.8c3.6,3.9,5.4,11.4,5.4,22.7v4.3h-40
			c-0.1,1.3-0.1,2.2-0.1,2.6c0,5.8,0.9,9.7,2.7,11.6c1.8,1.9,5.4,2.9,10.7,2.9c5.2,0,8.6-0.6,10.1-1.7
			C1285.5-98.4,1286.3-100.8,1286.3-104.6z M1286.4-121.3l-0.1-2.3c0-4.7-0.8-7.7-2.4-9.2c-1.6-1.4-5.2-2.1-10.6-2.1
			c-5.3,0-8.7,0.8-10.3,2.5c-1.6,1.7-2.4,5.4-2.4,11.1H1286.4z"/>
		<path fill="#F6384D" d="M1364.9-170.1v84.4h-13.8l0.5-9.5l-0.2-0.1c-2.8,6.9-8.8,10.3-18.1,10.3c-9.4,0-15.6-2.1-18.6-6.4
			c-3-4.3-4.5-12.9-4.5-26c0-10.6,1.6-17.9,4.9-22c3.3-4.1,9-6.2,17.4-6.2c9.6,0,15.7,3.1,18.1,9.2l0.2-0.1v-33.7H1364.9z
			 M1337.2-134.3c-5.3,0-8.7,1.1-10.3,3.4c-1.6,2.2-2.3,7.1-2.3,14.5c0,8.6,0.8,14.1,2.3,16.6c1.6,2.5,5.1,3.7,10.5,3.7
			c5.7,0,9.3-1.2,10.9-3.6c1.6-2.4,2.4-8,2.4-16.8c0-7.3-0.9-12-2.6-14.3C1346.3-133.1,1342.7-134.3,1337.2-134.3z"/>
		<path fill="#2E2A25" d="M1431.8-161.2v75.6h-9.5v-75.6h-23.1v-8.8h64.3v8.8H1431.8z"/>
		<path fill="#2E2A25" d="M1462.5-144.8v59.1h-8.7v-59.1H1462.5z"/>
		<path fill="#2E2A25" d="M1493.3-144.8v64.6v2.5c0,9.8-4.1,14.7-12.2,14.7c-1.2,0-2.6-0.1-4.1-0.4v-6.1c0.5-0.1,0.8-0.1,1-0.1
			l1.1-0.1l3.6-1.2c1.3-1.1,2-4.2,2-9.3v-64.6H1493.3z M1493.3-170.1v9.7h-8.7v-9.7H1493.3z"/>
		<path fill="#2E2A25" d="M1557-144.8v59.1h-8.7l0.6-7.7l-0.2-0.2c-3,5.9-9.4,8.8-19.3,8.8c-13.8,0-20.7-6.9-20.7-20.7v-39.3h8.7
			v39.3c0,5.4,0.9,8.9,2.7,10.8c1.8,1.8,5.3,2.7,10.4,2.7c6.8,0,11.5-1.3,14-4c2.5-2.7,3.8-7.7,3.8-14.9v-33.9H1557z"/>
		<path fill="#2E2A25" d="M1582-128.2h-8.6c0-6.9,1.6-11.5,4.7-13.9c3.1-2.4,9.2-3.6,18.3-3.6c9.9,0,16.5,1.5,20,4.4
			c3.5,2.9,5.2,8.4,5.2,16.6v39h-8.7l0.7-6.4l-0.2-0.1c-3.3,4.9-10,7.3-20.1,7.3c-14.9,0-22.4-6-22.4-18c0-7.1,1.7-12.1,5-14.8
			c3.3-2.7,9.4-4.1,18.1-4.1c10.4,0,16.6,2,18.7,6.1l0.2-0.1v-7.2c0-6.8-0.9-11.1-2.8-13.1c-1.9-2-5.9-3-12.2-3
			c-10.6,0-15.9,3-15.9,9C1582-129.6,1582-129.1,1582-128.2z M1595.9-114.9c-6.6,0-11,0.7-13,2.1c-2,1.4-3,4.4-3,9
			c0,4.8,1,7.9,3,9.5c2,1.5,6,2.3,12.1,2.3c12.2,0,18.3-3.7,18.3-11.1c0-4.7-1.2-7.8-3.6-9.4
			C1607.4-114.1,1602.8-114.9,1595.9-114.9z"/>
		<path fill="#2E2A25" d="M1637.6-144.8h8.4l-0.2,8l0.2,0.2c2.6-6.1,9.2-9.1,19.7-9.1c8.4,0,14.2,1.5,17.2,4.5c3,3,4.5,8.7,4.5,17.1
			v38.5h-8.7v-37.7v-2.2c0-5.1-1-8.5-2.9-10.2c-1.9-1.8-5.7-2.6-11.2-2.6c-12.2,0-18.2,5.8-18.2,17.3v35.6h-8.7V-144.8z"/>
		<path fill="#2E2A25" d="M1711.9-128.2h-8.6c0-6.9,1.6-11.5,4.7-13.9c3.1-2.4,9.2-3.6,18.3-3.6c9.9,0,16.5,1.5,20,4.4
			c3.5,2.9,5.2,8.4,5.2,16.6v39h-8.7l0.7-6.4l-0.2-0.1c-3.3,4.9-10,7.3-20.1,7.3c-14.9,0-22.4-6-22.4-18c0-7.1,1.7-12.1,5-14.8
			c3.3-2.7,9.4-4.1,18.1-4.1c10.4,0,16.6,2,18.7,6.1l0.2-0.1v-7.2c0-6.8-0.9-11.1-2.8-13.1c-1.9-2-5.9-3-12.2-3c-10.6,0-16,3-16,9
			C1711.8-129.6,1711.8-129.1,1711.9-128.2z M1725.8-114.9c-6.6,0-11,0.7-13,2.1c-2,1.4-3,4.4-3,9c0,4.8,1,7.9,3,9.5
			c2,1.5,6,2.3,12.1,2.3c12.2,0,18.3-3.7,18.3-11.1c0-4.7-1.2-7.8-3.6-9.4C1737.3-114.1,1732.6-114.9,1725.8-114.9z"/>
		<path fill="#F6384D" d="M1106-111.1c-8.3,0-15.4,4.8-18.8,11.8l-47.1-13.6l55.5-67.5c3.1,1.8,6.6,2.8,10.4,2.8
			c11.5,0,20.9-9.4,20.9-20.9c0-11.5-9.4-20.9-20.9-20.9c-11.5,0-20.9,9.4-20.9,20.9c0,2.2,0.3,4.3,1,6.3l-15.9,8.2l-34.4,17.4
			l-34.4,17.2l-15.9,7.9c-3.7-5.8-10.2-9.6-17.5-9.6c-11.5,0-20.9,9.4-20.9,20.9c0,11.5,9.4,20.9,20.9,20.9
			c8.3,0,15.4-4.8,18.8-11.8l43.1,12.5l-49.3,61.7c-3.3-2.2-7.2-3.4-11.4-3.4c-11.5,0-20.9,9.4-20.9,20.9c0,11.5,9.4,20.9,20.9,20.9
			c11.5,0,20.9-9.4,20.9-20.9c0-5.8-2.4-11-6.2-14.8l51.5-62.7l49.9,14.5c-0.1,0.8-0.1,1.6-0.1,2.4c0,11.5,9.4,20.9,20.9,20.9
			c11.5,0,20.9-9.4,20.9-20.9C1126.9-101.8,1117.5-111.1,1106-111.1z M984.6-29.6c0,8.5-6.9,15.5-15.5,15.5
			c-8.5,0-15.5-6.9-15.5-15.5c0-8.5,6.9-15.5,15.5-15.5c2.9,0,5.7,0.9,8,2.3l-2.9,3.7c-1.5-0.8-3.2-1.3-5.1-1.3
			c-6,0-10.8,4.8-10.8,10.8c0,6,4.8,10.8,10.8,10.8c6,0,10.8-4.8,10.8-10.8c0-2.7-1-5.1-2.6-6.9l3-3.6
			C983-37.4,984.6-33.7,984.6-29.6z M1090.6-198.5c0-8.5,6.9-15.5,15.5-15.5c8.5,0,15.5,6.9,15.5,15.5c0,8.5-6.9,15.5-15.5,15.5
			c-2.5,0-4.8-0.6-6.8-1.7l3-3.7c1.2,0.4,2.5,0.7,3.8,0.7c6,0,10.8-4.8,10.8-10.8c0-6-4.8-10.8-10.8-10.8c-6,0-10.8,4.8-10.8,10.8
			c0,0.5,0.1,1.1,0.2,1.6l-4.3,2.2C1090.8-195.9,1090.6-197.2,1090.6-198.5z M978.8-130.8c0-0.7-0.1-1.4-0.3-2.1l4.2-2.1
			c0.5,1.5,0.8,3,0.8,4.6c0,0.3-0.1,0.6-0.1,0.8L978.8-130.8z M968-114.8c-8.5,0-15.5-6.9-15.5-15.5c0-8.5,6.9-15.5,15.5-15.5
			c5.2,0,9.8,2.6,12.6,6.6l-4.3,2.1c-2-2.5-5-4.1-8.4-4.1c-6,0-10.8,4.8-10.8,10.8c0,6,4.8,10.8,10.8,10.8c3.7,0,6.9-1.8,8.8-4.6
			l4.6,1.3C978.8-118,973.8-114.8,968-114.8z M988.7-127.9c0.1-0.8,0.1-1.6,0.1-2.4c0-2.5-0.5-4.9-1.3-7.1l16-7.8l34.6-16.9
			l34.7-16.8l16.2-7.7c0.5,0.7,1,1.3,1.5,1.9l-56,70L988.7-127.9z M1106-74.8c-8.5,0-15.5-6.9-15.5-15.5c0-0.3,0.1-0.6,0.1-0.8
			l4.6,1.3c0.3,5.7,5,10.3,10.7,10.3c6,0,10.8-4.8,10.8-10.8c0-6-4.8-10.8-10.8-10.8c-3.7,0-6.9,1.8-8.8,4.6l-4.6-1.3
			c2.6-4.7,7.6-8,13.4-8c8.5,0,15.5,6.9,15.5,15.5C1121.5-81.7,1114.6-74.8,1106-74.8z"/>
	</g>
</g>
<g>
	<g opacity="0.15">
		<path d="M1168.4,317.5v-84.4h41.6c10.3,0,17.5,1.8,21.4,5.4c3.9,3.6,5.9,10.1,5.9,19.5c0,8.5-1,14.4-2.9,17.5c-2,3.1-6,5.3-12,6.5
			v0.6c9.4,0.6,14,6,14,16.4v18.6h-16v-15.4c0-8.7-4.3-13-12.9-13h-23.1v28.4H1168.4z M1184.4,275.5h23c5.5,0,9.1-1,10.9-2.9
			c1.8-2,2.7-5.9,2.7-11.8c0-6-0.8-9.9-2.3-11.7c-1.5-1.8-4.9-2.6-10.2-2.6h-24.1V275.5z"/>
		<path d="M1287.7,298.5h14.2v2.3c0,11.5-8.7,17.3-26,17.3c-11.8,0-19.4-2-23.1-6c-3.6-4-5.4-12.5-5.4-25.4
			c0-11.5,1.9-19.2,5.7-23.2c3.8-4,11.2-5.9,22.2-5.9c10.6,0,17.6,1.9,21.2,5.8c3.6,3.9,5.4,11.4,5.4,22.7v4.3h-40
			c-0.1,1.3-0.1,2.2-0.1,2.6c0,5.8,0.9,9.7,2.7,11.6c1.8,1.9,5.4,2.9,10.7,2.9c5.2,0,8.6-0.6,10.1-1.7
			C1286.9,304.7,1287.7,302.3,1287.7,298.5z M1287.8,281.8l-0.1-2.3c0-4.7-0.8-7.7-2.4-9.2c-1.6-1.4-5.2-2.1-10.6-2.1
			c-5.3,0-8.7,0.8-10.3,2.5c-1.6,1.7-2.4,5.4-2.4,11.1H1287.8z"/>
		<path d="M1366.4,233.1v84.4h-13.8l0.5-9.5l-0.2-0.1c-2.8,6.9-8.8,10.3-18.1,10.3c-9.4,0-15.6-2.1-18.6-6.4c-3-4.3-4.5-12.9-4.5-26
			c0-10.6,1.6-17.9,4.9-22c3.3-4.1,9-6.2,17.4-6.2c9.6,0,15.7,3.1,18.1,9.2l0.2-0.1v-33.7H1366.4z M1338.6,268.9
			c-5.3,0-8.7,1.1-10.3,3.4c-1.6,2.2-2.3,7.1-2.3,14.5c0,8.6,0.8,14.1,2.3,16.6c1.6,2.5,5.1,3.7,10.5,3.7c5.7,0,9.3-1.2,10.9-3.6
			c1.6-2.4,2.4-8,2.4-16.8c0-7.3-0.9-12-2.6-14.3C1347.8,270,1344.1,268.9,1338.6,268.9z"/>
		<path d="M1433.2,241.9v75.6h-9.5v-75.6h-23.1v-8.8h64.3v8.8H1433.2z"/>
		<path d="M1464,258.3v59.1h-8.7v-59.1H1464z"/>
		<path d="M1494.7,258.3v64.6v2.5c0,9.8-4.1,14.7-12.2,14.7c-1.2,0-2.6-0.1-4.1-0.4v-6.1c0.5-0.1,0.8-0.1,1-0.1l1.1-0.1l3.6-1.2
			c1.3-1.1,2-4.2,2-9.3v-64.6H1494.7z M1494.7,233.1v9.7h-8.7v-9.7H1494.7z"/>
		<path d="M1558.4,258.3v59.1h-8.7l0.6-7.7l-0.2-0.2c-3,5.9-9.4,8.8-19.3,8.8c-13.8,0-20.7-6.9-20.7-20.7v-39.3h8.7v39.3
			c0,5.4,0.9,8.9,2.7,10.8c1.8,1.8,5.3,2.7,10.4,2.7c6.8,0,11.5-1.3,14-4c2.5-2.7,3.8-7.7,3.8-14.9v-33.9H1558.4z"/>
		<path d="M1583.4,274.9h-8.6c0-6.9,1.6-11.5,4.7-13.9c3.1-2.4,9.2-3.6,18.3-3.6c9.9,0,16.5,1.5,20,4.4c3.5,2.9,5.2,8.4,5.2,16.6v39
			h-8.7l0.7-6.4l-0.2-0.1c-3.3,4.9-10,7.3-20.1,7.3c-14.9,0-22.4-6-22.4-18c0-7.1,1.7-12.1,5-14.8c3.3-2.7,9.4-4.1,18.1-4.1
			c10.4,0,16.6,2,18.7,6.1l0.2-0.1v-7.2c0-6.8-0.9-11.1-2.8-13.1c-1.9-2-5.9-3-12.2-3c-10.6,0-15.9,3-15.9,9
			C1583.4,273.5,1583.4,274.1,1583.4,274.9z M1597.4,288.2c-6.6,0-11,0.7-13,2.1c-2,1.4-3,4.4-3,9c0,4.8,1,7.9,3,9.5
			c2,1.5,6,2.3,12.1,2.3c12.2,0,18.3-3.7,18.3-11.1c0-4.7-1.2-7.8-3.6-9.4C1608.8,289,1604.2,288.2,1597.4,288.2z"/>
		<path d="M1639,258.3h8.4l-0.2,8l0.2,0.2c2.6-6.1,9.2-9.1,19.7-9.1c8.4,0,14.2,1.5,17.2,4.5c3,3,4.5,8.7,4.5,17.1v38.5h-8.7v-37.7
			v-2.2c0-5.1-1-8.5-2.9-10.2c-1.9-1.8-5.7-2.6-11.2-2.6c-12.2,0-18.2,5.8-18.2,17.3v35.6h-8.7V258.3z"/>
		<path d="M1713.3,274.9h-8.6c0-6.9,1.6-11.5,4.7-13.9c3.1-2.4,9.2-3.6,18.3-3.6c9.9,0,16.5,1.5,20,4.4c3.5,2.9,5.2,8.4,5.2,16.6v39
			h-8.7l0.7-6.4l-0.2-0.1c-3.3,4.9-10,7.3-20.1,7.3c-14.9,0-22.4-6-22.4-18c0-7.1,1.7-12.1,5-14.8c3.3-2.7,9.4-4.1,18.1-4.1
			c10.4,0,16.6,2,18.7,6.1l0.2-0.1v-7.2c0-6.8-0.9-11.1-2.8-13.1c-1.9-2-5.9-3-12.2-3c-10.6,0-16,3-16,9
			C1713.3,273.5,1713.3,274.1,1713.3,274.9z M1727.2,288.2c-6.6,0-11,0.7-13,2.1c-2,1.4-3,4.4-3,9c0,4.8,1,7.9,3,9.5
			c2,1.5,6,2.3,12.1,2.3c12.2,0,18.3-3.7,18.3-11.1c0-4.7-1.2-7.8-3.6-9.4C1738.7,289,1734.1,288.2,1727.2,288.2z"/>
		<path d="M1107.5,292c-8.3,0-15.4,4.8-18.8,11.8l-47.1-13.6l55.5-67.5c3.1,1.8,6.6,2.8,10.4,2.8c11.5,0,20.9-9.4,20.9-20.9
			c0-11.5-9.4-20.9-20.9-20.9c-11.5,0-20.9,9.4-20.9,20.9c0,2.2,0.3,4.3,1,6.3l-15.9,8.2l-34.4,17.4l-34.4,17.2l-15.9,7.9
			c-3.7-5.8-10.2-9.6-17.5-9.6c-11.5,0-20.9,9.4-20.9,20.9c0,11.5,9.4,20.9,20.9,20.9c8.3,0,15.4-4.8,18.8-11.8l43.1,12.5L982,356
			c-3.3-2.2-7.2-3.4-11.4-3.4c-11.5,0-20.9,9.4-20.9,20.9c0,11.5,9.4,20.9,20.9,20.9c11.5,0,20.9-9.4,20.9-20.9
			c0-5.8-2.4-11-6.2-14.8l51.5-62.7l49.9,14.5c-0.1,0.8-0.1,1.6-0.1,2.4c0,11.5,9.4,20.9,20.9,20.9c11.5,0,20.9-9.4,20.9-20.9
			C1128.3,301.3,1119,292,1107.5,292z M986.1,373.5c0,8.5-6.9,15.5-15.5,15.5c-8.5,0-15.5-6.9-15.5-15.5c0-8.5,6.9-15.5,15.5-15.5
			c2.9,0,5.7,0.9,8,2.3l-2.9,3.7c-1.5-0.8-3.2-1.3-5.1-1.3c-6,0-10.8,4.8-10.8,10.8c0,6,4.8,10.8,10.8,10.8c6,0,10.8-4.8,10.8-10.8
			c0-2.7-1-5.1-2.6-6.9l3-3.6C984.4,365.7,986.1,369.4,986.1,373.5z M1092,204.6c0-8.5,6.9-15.5,15.5-15.5c8.5,0,15.5,6.9,15.5,15.5
			c0,8.5-6.9,15.5-15.5,15.5c-2.5,0-4.8-0.6-6.8-1.7l3-3.7c1.2,0.4,2.5,0.7,3.8,0.7c6,0,10.8-4.8,10.8-10.8c0-6-4.8-10.8-10.8-10.8
			c-6,0-10.8,4.8-10.8,10.8c0,0.5,0.1,1.1,0.2,1.6l-4.3,2.2C1092.2,207.2,1092,205.9,1092,204.6z M980.2,272.3
			c0-0.7-0.1-1.4-0.3-2.1l4.2-2.1c0.5,1.5,0.8,3,0.8,4.6c0,0.3-0.1,0.6-0.1,0.8L980.2,272.3z M969.5,288.3
			c-8.5,0-15.5-6.9-15.5-15.5c0-8.5,6.9-15.5,15.5-15.5c5.2,0,9.8,2.6,12.6,6.6l-4.3,2.1c-2-2.5-5-4.1-8.4-4.1
			c-6,0-10.8,4.8-10.8,10.8c0,6,4.8,10.8,10.8,10.8c3.7,0,6.9-1.8,8.8-4.6l4.6,1.3C980.2,285.1,975.2,288.3,969.5,288.3z
			 M990.2,275.2c0.1-0.8,0.1-1.6,0.1-2.4c0-2.5-0.5-4.9-1.3-7.1l16-7.8l34.6-16.9l34.7-16.8l16.2-7.7c0.5,0.7,1,1.3,1.5,1.9l-56,70
			L990.2,275.2z M1107.5,328.3c-8.5,0-15.5-6.9-15.5-15.5c0-0.3,0.1-0.6,0.1-0.8l4.6,1.3c0.3,5.7,5,10.3,10.7,10.3
			c6,0,10.8-4.8,10.8-10.8c0-6-4.8-10.8-10.8-10.8c-3.7,0-6.9,1.8-8.8,4.6l-4.6-1.3c2.6-4.7,7.6-8,13.4-8c8.5,0,15.5,6.9,15.5,15.5
			C1122.9,321.4,1116,328.3,1107.5,328.3z"/>
	</g>
	<g>
		<path fill="#FFFFFF" d="M1167,316.1v-84.4h41.6c10.3,0,17.5,1.8,21.4,5.4c3.9,3.6,5.9,10.1,5.9,19.5c0,8.5-1,14.4-2.9,17.5
			c-2,3.1-6,5.3-12,6.5v0.6c9.4,0.6,14,6,14,16.4v18.6h-16v-15.4c0-8.7-4.3-13-12.9-13H1183v28.4H1167z M1183,274.2h23
			c5.5,0,9.1-1,10.9-2.9c1.8-2,2.7-5.9,2.7-11.8c0-6-0.8-9.9-2.3-11.7c-1.5-1.8-4.9-2.6-10.2-2.6H1183V274.2z"/>
		<path fill="#FFFFFF" d="M1286.3,297.2h14.2v2.3c0,11.5-8.7,17.3-26,17.3c-11.8,0-19.4-2-23.1-6c-3.6-4-5.4-12.5-5.4-25.4
			c0-11.5,1.9-19.2,5.7-23.2c3.8-4,11.2-5.9,22.2-5.9c10.6,0,17.6,1.9,21.2,5.8c3.6,3.9,5.4,11.4,5.4,22.7v4.3h-40
			c-0.1,1.3-0.1,2.2-0.1,2.6c0,5.8,0.9,9.7,2.7,11.6c1.8,1.9,5.4,2.9,10.7,2.9c5.2,0,8.6-0.6,10.1-1.7
			C1285.5,303.4,1286.3,301,1286.3,297.2z M1286.4,280.4l-0.1-2.3c0-4.7-0.8-7.7-2.4-9.2c-1.6-1.4-5.2-2.1-10.6-2.1
			c-5.3,0-8.7,0.8-10.3,2.5c-1.6,1.7-2.4,5.4-2.4,11.1H1286.4z"/>
		<path fill="#FFFFFF" d="M1364.9,231.7v84.4h-13.8l0.5-9.5l-0.2-0.1c-2.8,6.9-8.8,10.3-18.1,10.3c-9.4,0-15.6-2.1-18.6-6.4
			c-3-4.3-4.5-12.9-4.5-26c0-10.6,1.6-17.9,4.9-22c3.3-4.1,9-6.2,17.4-6.2c9.6,0,15.7,3.1,18.1,9.2l0.2-0.1v-33.7H1364.9z
			 M1337.2,267.5c-5.3,0-8.7,1.1-10.3,3.4c-1.6,2.2-2.3,7.1-2.3,14.5c0,8.6,0.8,14.1,2.3,16.6c1.6,2.5,5.1,3.7,10.5,3.7
			c5.7,0,9.3-1.2,10.9-3.6c1.6-2.4,2.4-8,2.4-16.8c0-7.3-0.9-12-2.6-14.3C1346.3,268.7,1342.7,267.5,1337.2,267.5z"/>
		<path fill="#EEEEEE" d="M1431.8,240.6v75.6h-9.5v-75.6h-23.1v-8.8h64.3v8.8H1431.8z"/>
		<path fill="#EEEEEE" d="M1462.6,257v59.1h-8.7V257H1462.6z"/>
		<path fill="#EEEEEE" d="M1493.3,257v64.6v2.5c0,9.8-4.1,14.7-12.2,14.7c-1.2,0-2.6-0.1-4.1-0.4v-6.1c0.5-0.1,0.8-0.1,1-0.1
			l1.1-0.1l3.6-1.2c1.3-1.1,2-4.2,2-9.3V257H1493.3z M1493.3,231.7v9.7h-8.7v-9.7H1493.3z"/>
		<path fill="#EEEEEE" d="M1557,257v59.1h-8.7l0.6-7.7l-0.2-0.2c-3,5.9-9.4,8.8-19.3,8.8c-13.8,0-20.7-6.9-20.7-20.7V257h8.7v39.3
			c0,5.4,0.9,8.9,2.7,10.8c1.8,1.8,5.3,2.7,10.4,2.7c6.8,0,11.5-1.3,14-4c2.5-2.7,3.8-7.7,3.8-14.9V257H1557z"/>
		<path fill="#EEEEEE" d="M1582,273.6h-8.6c0-6.9,1.6-11.5,4.7-13.9c3.1-2.4,9.2-3.6,18.3-3.6c9.9,0,16.5,1.5,20,4.4
			c3.5,2.9,5.2,8.4,5.2,16.6v39h-8.7l0.7-6.4l-0.2-0.1c-3.3,4.9-10,7.3-20.1,7.3c-14.9,0-22.4-6-22.4-18c0-7.1,1.7-12.1,5-14.8
			c3.3-2.7,9.4-4.1,18.1-4.1c10.4,0,16.6,2,18.7,6.1l0.2-0.1V279c0-6.8-0.9-11.1-2.8-13.1c-1.9-2-5.9-3-12.2-3
			c-10.6,0-15.9,3-15.9,9C1582,272.1,1582,272.7,1582,273.6z M1595.9,286.9c-6.6,0-11,0.7-13,2.1c-2,1.4-3,4.4-3,9
			c0,4.8,1,7.9,3,9.5c2,1.5,6,2.3,12.1,2.3c12.2,0,18.3-3.7,18.3-11.1c0-4.7-1.2-7.8-3.6-9.4
			C1607.4,287.7,1602.8,286.9,1595.9,286.9z"/>
		<path fill="#EEEEEE" d="M1637.6,257h8.4l-0.2,8l0.2,0.2c2.6-6.1,9.2-9.1,19.7-9.1c8.4,0,14.2,1.5,17.2,4.5c3,3,4.5,8.7,4.5,17.1
			v38.5h-8.7v-37.7v-2.2c0-5.1-1-8.5-2.9-10.2c-1.9-1.8-5.7-2.6-11.2-2.6c-12.2,0-18.2,5.8-18.2,17.3v35.6h-8.7V257z"/>
		<path fill="#EEEEEE" d="M1711.9,273.6h-8.6c0-6.9,1.6-11.5,4.7-13.9c3.1-2.4,9.2-3.6,18.3-3.6c9.9,0,16.5,1.5,20,4.4
			c3.5,2.9,5.2,8.4,5.2,16.6v39h-8.7l0.7-6.4l-0.2-0.1c-3.3,4.9-10,7.3-20.1,7.3c-14.9,0-22.4-6-22.4-18c0-7.1,1.7-12.1,5-14.8
			c3.3-2.7,9.4-4.1,18.1-4.1c10.4,0,16.6,2,18.7,6.1l0.2-0.1V279c0-6.8-0.9-11.1-2.8-13.1c-1.9-2-5.9-3-12.2-3c-10.6,0-16,3-16,9
			C1711.8,272.1,1711.9,272.7,1711.9,273.6z M1725.8,286.9c-6.6,0-11,0.7-13,2.1c-2,1.4-3,4.4-3,9c0,4.8,1,7.9,3,9.5
			c2,1.5,6,2.3,12.1,2.3c12.2,0,18.3-3.7,18.3-11.1c0-4.7-1.2-7.8-3.6-9.4C1737.3,287.7,1732.7,286.9,1725.8,286.9z"/>
		<path fill="#FFFFFF" d="M1106,290.6c-8.3,0-15.4,4.8-18.8,11.8l-47.1-13.6l55.5-67.5c3.1,1.8,6.6,2.8,10.4,2.8
			c11.5,0,20.9-9.4,20.9-20.9c0-11.5-9.4-20.9-20.9-20.9c-11.5,0-20.9,9.4-20.9,20.9c0,2.2,0.3,4.3,1,6.3l-15.9,8.2l-34.4,17.4
			l-34.4,17.2l-15.9,7.9c-3.7-5.8-10.2-9.6-17.5-9.6c-11.5,0-20.9,9.4-20.9,20.9c0,11.5,9.4,20.9,20.9,20.9
			c8.3,0,15.4-4.8,18.8-11.8l43.1,12.5l-49.3,61.7c-3.3-2.2-7.2-3.4-11.4-3.4c-11.5,0-20.9,9.4-20.9,20.9c0,11.5,9.4,20.9,20.9,20.9
			c11.5,0,20.9-9.4,20.9-20.9c0-5.8-2.4-11-6.2-14.8l51.5-62.7l49.9,14.5c-0.1,0.8-0.1,1.6-0.1,2.4c0,11.5,9.4,20.9,20.9,20.9
			c11.5,0,20.9-9.4,20.9-20.9C1126.9,300,1117.6,290.6,1106,290.6z M984.6,372.1c0,8.5-6.9,15.5-15.5,15.5
			c-8.5,0-15.5-6.9-15.5-15.5c0-8.5,6.9-15.5,15.5-15.5c2.9,0,5.7,0.9,8,2.3l-2.9,3.7c-1.5-0.8-3.2-1.3-5.1-1.3
			c-6,0-10.8,4.8-10.8,10.8c0,6,4.8,10.8,10.8,10.8c6,0,10.8-4.8,10.8-10.8c0-2.7-1-5.1-2.6-6.9l3-3.6
			C983,364.3,984.6,368,984.6,372.1z M1090.6,203.3c0-8.5,6.9-15.5,15.5-15.5c8.5,0,15.5,6.9,15.5,15.5c0,8.5-6.9,15.5-15.5,15.5
			c-2.5,0-4.8-0.6-6.8-1.7l3-3.7c1.2,0.4,2.5,0.7,3.8,0.7c6,0,10.8-4.8,10.8-10.8c0-6-4.8-10.8-10.8-10.8c-6,0-10.8,4.8-10.8,10.8
			c0,0.5,0.1,1.1,0.2,1.6l-4.3,2.2C1090.8,205.8,1090.6,204.6,1090.6,203.3z M978.8,271c0-0.7-0.1-1.4-0.3-2.1l4.2-2.1
			c0.5,1.5,0.8,3,0.8,4.6c0,0.3-0.1,0.6-0.1,0.8L978.8,271z M968,287c-8.5,0-15.5-6.9-15.5-15.5c0-8.5,6.9-15.5,15.5-15.5
			c5.2,0,9.8,2.6,12.6,6.6l-4.3,2.1c-2-2.5-5-4.1-8.4-4.1c-6,0-10.8,4.8-10.8,10.8c0,6,4.8,10.8,10.8,10.8c3.7,0,6.9-1.8,8.8-4.6
			l4.6,1.3C978.8,283.7,973.8,287,968,287z M988.8,273.9c0.1-0.8,0.1-1.6,0.1-2.4c0-2.5-0.5-4.9-1.3-7.1l16-7.8l34.6-16.9l34.7-16.8
			l16.2-7.7c0.5,0.7,1,1.3,1.5,1.9l-56,70L988.8,273.9z M1106,327c-8.5,0-15.5-6.9-15.5-15.5c0-0.3,0.1-0.6,0.1-0.8l4.6,1.3
			c0.3,5.7,5,10.3,10.7,10.3c6,0,10.8-4.8,10.8-10.8c0-6-4.8-10.8-10.8-10.8c-3.7,0-6.9,1.8-8.8,4.6l-4.6-1.3c2.6-4.7,7.6-8,13.4-8
			c8.5,0,15.5,6.9,15.5,15.5C1121.5,320,1114.6,327,1106,327z"/>
	</g>
</g>
</svg>
