<?xml version="1.0" encoding="utf-8"?>
<!-- Generator: Adobe Illustrator 16.0.0, SVG Export Plug-In . SVG Version: 6.00 Build 0)  -->
<!DOCTYPE svg PUBLIC "-//W3C//DTD SVG 1.1//EN" "http://www.w3.org/Graphics/SVG/1.1/DTD/svg11.dtd">
<svg version="1.1" xmlns="http://www.w3.org/2000/svg" xmlns:xlink="http://www.w3.org/1999/xlink" x="0px" y="0px" width="1500px"
	 height="800px" viewBox="0 0 1500 800" enable-background="new 0 0 1500 800" xml:space="preserve">
<g id="Layer_1">
</g>
<g id="Layer_3">
</g>
<g id="Layer_2">
	<g>
		<path fill="#9E1C64" d="M697.6,488.12h20.58v3.72c0,15.03-2.75,24.75-8.24,29.16c-5.48,4.41-17.62,6.61-36.39,6.61
			c-21.31,0-34.42-3.48-39.33-10.45c-4.9-6.96-7.36-25.58-7.36-55.86c0-17.83,3.32-29.55,9.97-35.17c6.64-5.62,20.55-8.42,41.7-8.42
			c15.4,0,25.69,2.31,30.85,6.92c5.17,4.61,7.76,13.78,7.76,27.49l0.08,2.46h-20.58v-2.77c0-7.07-1.33-11.59-3.99-13.57
			c-2.67-1.98-8.75-2.96-18.24-2.96c-12.71,0-20.35,1.55-22.9,4.66c-2.56,3.12-3.84,12.35-3.84,27.69c0,20.68,1.14,32.92,3.44,36.72
			c2.3,3.8,9.72,5.7,22.27,5.7c10.18,0,16.79-1.06,19.83-3.17c3.03-2.11,4.55-6.75,4.55-13.92L697.6,488.12z"/>
		<path fill="#9E1C64" d="M733.03,451.01h18.12l-1.11,10.6l0.4,0.08c4.32-7.92,11.13-11.87,20.41-11.87
			c13.29,0,19.94,8.39,19.94,25.16v5.3h-17.1c0.21-2.06,0.32-3.4,0.32-4.03c0-8.07-3.14-12.1-9.42-12.1
			c-8.97,0-13.45,5.98-13.45,17.96v44.54h-18.12V451.01z"/>
		<path fill="#9E1C64" d="M851.61,502.45h18.2v2.93c0,14.77-11.08,22.15-33.24,22.15c-15.03,0-24.87-2.56-29.51-7.67
			c-4.64-5.12-6.96-15.96-6.96-32.52c0-14.72,2.42-24.61,7.28-29.67c4.85-5.06,14.32-7.6,28.4-7.6c13.51,0,22.55,2.47,27.14,7.4
			c4.59,4.93,6.89,14.62,6.89,29.07v5.54h-51.19c-0.11,1.69-0.16,2.8-0.16,3.33c0,7.44,1.14,12.4,3.44,14.88
			c2.3,2.48,6.87,3.72,13.72,3.72c6.65,0,10.97-0.73,12.98-2.17C850.6,510.37,851.61,507.25,851.61,502.45z M851.76,481l-0.08-3
			c0-6.02-1.04-9.92-3.13-11.71c-2.09-1.79-6.6-2.69-13.57-2.69c-6.75,0-11.14,1.08-13.17,3.25c-2.03,2.17-3.04,6.88-3.04,14.16
			H851.76z"/>
		<path fill="#9E1C64" d="M905.78,472.93h-18.51c0-9.07,2.11-15.14,6.33-18.2c4.22-3.06,12.58-4.59,25.08-4.59
			c13.61,0,22.82,1.87,27.61,5.62c4.8,3.75,7.2,10.89,7.2,21.44v49.45h-18.12l0.87-10.36l-0.47-0.08
			c-3.48,7.54-11.52,11.31-24.13,11.31c-18.31,0-27.46-7.78-27.46-23.34c0-15.71,9.37-23.58,28.09-23.58
			c12.5,0,20.09,2.88,22.79,8.62h0.32v-12.26c0-5.91-1.03-9.82-3.08-11.75c-2.05-1.93-6.28-2.89-12.66-2.89
			C910.4,462.33,905.78,465.86,905.78,472.93z M917.89,492.79c-10.23,0-15.35,3.54-15.35,10.6c0,4.91,1.05,8.13,3.16,9.65
			c2.11,1.53,6.55,2.3,13.3,2.3c11.03,0,16.53-3.72,16.53-11.16C935.53,496.59,929.66,492.79,917.89,492.79z"/>
		<path fill="#9E1C64" d="M1018.74,451.01v13.77h-29.12v37.98c0,7.02,2.67,10.52,7.99,10.52c5.86,0,8.78-4.24,8.78-12.74v-3.01
			h15.43v3.8c0,3.48-0.1,6.47-0.31,8.95c-1,11.55-9.61,17.33-25.8,17.33c-16.14,0-24.21-7.41-24.21-22.23v-40.59h-9.81v-13.77h9.81
			v-16.93h18.12v16.93H1018.74z"/>
		<path fill="#9E1C64" d="M1048.3,451.01v75.64h-18.12v-75.64H1048.3z"/>
		<path fill="#9E1C64" d="M1127.54,451.01l-21.68,75.64h-28.33l-22.79-75.64h19.23l9.97,34.89c1.37,4.85,2.63,9.55,3.8,14.08
			l1.82,7.04l1.82,7.04h0.4l1.66-7.04l1.66-6.96c1.27-5.28,2.45-9.97,3.56-14.08l9.34-34.97H1127.54z"/>
		<path fill="#9E1C64" d="M1152.9,472.93h-18.51c0-9.07,2.11-15.14,6.33-18.2c4.22-3.06,12.58-4.59,25.08-4.59
			c13.6,0,22.81,1.87,27.61,5.62c4.8,3.75,7.2,10.89,7.2,21.44v49.45h-18.12l0.87-10.36l-0.47-0.08
			c-3.49,7.54-11.53,11.31-24.13,11.31c-18.31,0-27.46-7.78-27.46-23.34c0-15.71,9.37-23.58,28.09-23.58
			c12.5,0,20.1,2.88,22.79,8.62h0.32v-12.26c0-5.91-1.03-9.82-3.09-11.75c-2.05-1.93-6.28-2.89-12.65-2.89
			C1157.52,462.33,1152.9,465.86,1152.9,472.93z M1165.01,492.79c-10.23,0-15.35,3.54-15.35,10.6c0,4.91,1.05,8.13,3.16,9.65
			c2.11,1.53,6.54,2.3,13.29,2.3c11.03,0,16.54-3.72,16.54-11.16C1182.65,496.59,1176.77,492.79,1165.01,492.79z"/>
	</g>
	<path fill="#2E2A26" d="M666.9,278.49v96.69h-12.18v-96.69h-29.58v-11.31h82.29v11.31H666.9z"/>
	<path fill="#2E2A26" d="M706.26,299.54v75.64h-11.08v-75.64H706.26z"/>
	<path fill="#2E2A26" d="M745.59,299.54v82.61v3.25c0,12.5-5.2,18.75-15.59,18.75c-1.53,0-3.3-0.19-5.3-0.55v-7.83
		c0.63-0.11,1.05-0.16,1.27-0.16l1.42-0.07l4.59-1.5c1.69-1.42,2.53-5.38,2.53-11.87v-82.61H745.59z M745.59,267.18v12.42h-11.08
		v-12.42H745.59z"/>
	<path fill="#2E2A26" d="M827.08,299.54v75.64h-11.07l0.79-9.89l-0.23-0.24c-3.85,7.49-12.08,11.24-24.69,11.24
		c-17.67,0-26.5-8.81-26.5-26.43v-50.32h11.08v50.32c0,6.86,1.13,11.45,3.4,13.77c2.27,2.32,6.73,3.48,13.37,3.48
		c8.7,0,14.68-1.73,17.92-5.18c3.25-3.45,4.87-9.79,4.87-19.03v-43.36H827.08z"/>
	<path fill="#2E2A26" d="M859.13,320.75h-11c0-8.81,1.98-14.73,5.97-17.76c3.98-3.04,11.78-4.55,23.38-4.55
		c12.61,0,21.13,1.86,25.56,5.58c4.43,3.72,6.65,10.8,6.65,21.24v49.93h-11.08l0.87-8.15l-0.24-0.08
		c-4.22,6.23-12.79,9.34-25.72,9.34c-19.1,0-28.64-7.68-28.64-23.03c0-9.12,2.13-15.43,6.41-18.91c4.27-3.48,12-5.22,23.19-5.22
		c13.29,0,21.25,2.61,23.9,7.84l0.23-0.08v-9.18c0-8.65-1.18-14.25-3.56-16.81c-2.37-2.56-7.57-3.84-15.59-3.84
		c-13.61,0-20.41,3.83-20.41,11.48C859.05,318.9,859.07,319.64,859.13,320.75z M876.94,337.75c-8.5,0-14.03,0.9-16.59,2.69
		c-2.55,1.79-3.84,5.64-3.84,11.55c0,6.12,1.27,10.17,3.8,12.15c2.53,1.98,7.67,2.97,15.43,2.97c15.62,0,23.42-4.75,23.42-14.24
		c0-5.96-1.52-9.97-4.55-12.03C891.58,338.78,885.69,337.75,876.94,337.75z"/>
	<path fill="#2E2A26" d="M930.18,299.54h10.69l-0.33,10.29l0.33,0.24c3.37-7.75,11.76-11.63,25.16-11.63
		c10.82,0,18.14,1.9,21.96,5.69c3.82,3.8,5.74,11.08,5.74,21.84v49.21h-11.08v-48.27v-2.85c0-6.49-1.24-10.85-3.71-13.09
		c-2.48-2.24-7.26-3.37-14.33-3.37c-15.56,0-23.34,7.36-23.34,22.08v45.5h-11.08V299.54z"/>
	<path fill="#2E2A26" d="M1025.29,320.75h-11c0-8.81,1.99-14.73,5.98-17.76c3.98-3.04,11.78-4.55,23.38-4.55
		c12.61,0,21.13,1.86,25.55,5.58c4.43,3.72,6.65,10.8,6.65,21.24v49.93h-11.07l0.87-8.15l-0.24-0.08
		c-4.22,6.23-12.79,9.34-25.72,9.34c-19.1,0-28.63-7.68-28.63-23.03c0-9.12,2.13-15.43,6.41-18.91c4.27-3.48,11.99-5.22,23.18-5.22
		c13.3,0,21.26,2.61,23.9,7.84l0.24-0.08v-9.18c0-8.65-1.19-14.25-3.56-16.81c-2.37-2.56-7.57-3.84-15.59-3.84
		c-13.61,0-20.41,3.83-20.41,11.48C1025.21,318.9,1025.24,319.64,1025.29,320.75z M1043.09,337.75c-8.49,0-14.02,0.9-16.58,2.69
		c-2.56,1.79-3.83,5.64-3.83,11.55c0,6.12,1.26,10.17,3.8,12.15c2.53,1.98,7.67,2.97,15.43,2.97c15.61,0,23.42-4.75,23.42-14.24
		c0-5.96-1.52-9.97-4.55-12.03C1057.74,338.78,1051.85,337.75,1043.09,337.75z"/>
	<g>
		<g>
			<path fill="#9E1C64" d="M1069.17,415.35c0,15.56-12.66,28.22-28.22,28.22c-15.56,0-28.22-12.66-28.22-28.22
				c0-15.57,12.66-28.22,28.22-28.22C1056.51,387.13,1069.17,399.79,1069.17,415.35z M1061.86,415.35
				c0-11.53-9.38-20.91-20.91-20.91c-11.53,0-20.91,9.38-20.91,20.91c0,11.53,9.39,20.9,20.91,20.9
				C1052.48,436.25,1061.86,426.88,1061.86,415.35z"/>
		</g>
		<path fill="#9E1C64" d="M1055.56,415.35c0-8.07-6.54-14.61-14.61-14.61c-8.07,0-14.61,6.54-14.61,14.61
			c0,8.06,6.55,14.6,14.61,14.6C1049.02,429.96,1055.56,423.42,1055.56,415.35z"/>
	</g>
	<path fill="#9E1C64" d="M524.26,377.86l-8.94-52.14c10.52-4.1,18.01-14.32,18.01-26.28c0-15.57-12.67-28.22-28.23-28.22
		c-15.56,0-28.22,12.66-28.22,28.22c0,8.52,3.81,16.15,9.8,21.33c-0.22,0.43-0.46,0.85-0.68,1.28c-4.34,8.58-8.49,17.26-12.75,25.88
		c-4.71,9.5-9.3,19.06-13.86,28.63l-0.16-0.05c-5.71-2.14-11.39-4.38-16.85-7.14l12.12-24.66c0.84-1.74,0.82-3.9-0.26-5.67
		c-1.69-2.78-5.32-3.65-8.1-1.96l-33.61,20.49c-1.83-0.49-3.62-1.07-5.37-1.77c-2.53-1.01-4.98-2.22-7.38-3.55
		c-2.11-1.22-4.22-2.46-6.23-3.95c0.89-2.6,2.03-5.01,3.38-7.26c1.38-2.27,2.93-4.41,4.39-6.61l4.47-6.56l0.22-0.33
		c0.59-0.86,0.9-1.92,0.81-3.04c-0.2-2.62-2.48-4.59-5.1-4.39c-12.7,0.95-25.4,1.6-38.11,2c-2.75,0.07-5.5,0.13-8.26,0.19
		c-2.51-13.01-13.97-22.86-27.7-22.86c-15.56,0-28.23,12.66-28.23,28.22c0,15.56,12.66,28.22,28.23,28.22
		c14.46,0,26.4-10.94,28.02-24.97c2.74-0.14,5.49-0.27,8.23-0.4c9.22-0.37,18.45-0.54,27.69-0.62c-1.21,1.48-2.4,2.98-3.69,4.41
		c-1.79,1.95-3.8,3.76-6.07,5.36c-1.14,0.79-2.33,1.55-3.63,2.24c-1.28,0.69-2.65,1.32-4.2,1.81l-1.81,0.56
		c-0.43,0.14-0.85,0.31-1.27,0.51c-4.4,2.18-6.2,7.52-4.02,11.92c2.19,4.41,7.52,6.21,11.93,4.02c0.91-0.46,1.72-0.64,2.56-0.92
		c0.86-0.31,1.62-0.4,2.42-0.57c1.54-0.2,3.06-0.33,4.48-0.22c2.84,0.22,5.5,0.9,8.18,1.53c2.67,0.67,5.28,1.46,7.81,2.46
		c2.53,0.99,5.02,2.11,7.35,3.63c0.9,0.58,2.08,0.69,3.1,0.16l0.81-0.42l21.87-11.36l-5.88,14.38l-0.33,0.81
		c-0.08,0.2-0.15,0.4-0.19,0.62c-0.53,2.27,0.89,4.54,3.16,5.06c7.6,1.76,14.77,4.59,21.9,7.56c-2.62,5.5-5.23,10.99-7.87,16.47
		c-8.33,17.34-16.63,34.7-25.29,51.87c-4.33,8.59-8.57,17.22-13.24,25.63c-0.13,0.25-0.28,0.49-0.42,0.74
		c-3.07-1.15-6.38-1.81-9.85-1.81c-15.56,0-28.23,12.66-28.23,28.22c0,15.57,12.66,28.22,28.23,28.22s28.22-12.65,28.22-28.22
		c0-9.72-4.93-18.3-12.43-23.38c0.12-0.25,0.23-0.51,0.35-0.76c4.14-8.69,8.71-17.15,13.19-25.66
		c8.96-17.02,18.27-33.86,27.56-50.71c3.07-5.58,6.17-11.15,9.26-16.72l12.59,5.2c5.91,2.44,11.77,4.99,17.65,7.5
		c-0.42,1.92-0.65,3.91-0.65,5.96c0,15.56,12.66,28.22,28.22,28.22c15.56,0,28.23-12.66,28.23-28.22
		C551.6,390.77,539.41,378.33,524.26,377.86z M327.66,348.57c-11.53,0-20.91-9.38-20.91-20.91s9.38-20.91,20.91-20.91
		c9.7,0,17.8,6.67,20.15,15.64c-2.18,0.02-4.37,0.02-6.56,0c-2.11-5.46-7.38-9.35-13.59-9.35c-8.07,0-14.61,6.54-14.61,14.61
		c0,8.07,6.54,14.61,14.61,14.61c6.62,0,12.14-4.43,13.94-10.46c2.2-0.16,4.4-0.32,6.59-0.46
		C346.45,341.11,337.93,348.57,327.66,348.57z M420.32,504.6c0,11.53-9.38,20.91-20.91,20.91s-20.91-9.38-20.91-20.91
		c0-11.53,9.38-20.91,20.91-20.91c2.15,0,4.18,0.42,6.13,1.03c-1.09,1.86-2.19,3.72-3.33,5.55c-0.91-0.18-1.84-0.28-2.81-0.28
		c-8.07,0-14.61,6.54-14.61,14.61c0,8.07,6.54,14.61,14.61,14.61c8.06,0,14.61-6.54,14.61-14.61c0-4.18-1.77-7.92-4.58-10.58
		c0.84-2,1.72-3.99,2.61-5.97C417.04,491.88,420.32,497.84,420.32,504.6z M512.59,396.27c-2.1-0.73-4.2-1.47-6.29-2.22
		c2.07-2.93,4.88-5.28,8.14-6.83l1.12,6.53C514.44,394.44,513.46,395.3,512.59,396.27z M502.64,318.4l0.3,1.73
		c-0.37-0.04-0.74-0.05-1.1-0.11C502.1,319.47,502.38,318.94,502.64,318.4z M484.2,299.44c0-11.53,9.38-20.91,20.91-20.91
		c11.54,0,20.91,9.38,20.91,20.91c0,8.32-4.91,15.45-11.97,18.82l-1.12-6.52c4.07-2.59,6.79-7.12,6.79-12.3
		c0-8.07-6.55-14.61-14.62-14.61c-8.06,0-14.61,6.54-14.61,14.61c0,3.28,1.13,6.28,2.96,8.73c-1.1,1.96-2.16,3.95-3.22,5.94
		C486.51,310.33,484.2,305.15,484.2,299.44z M481.21,384.85l-11.77-4.47c4.94-8.92,9.87-17.86,14.68-26.85
		c4.55-8.47,9.21-16.89,13.67-25.4c0.22-0.43,0.43-0.86,0.65-1.29c1.87,0.46,3.8,0.73,5.79,0.79l8.94,52.14
		c-5.83,2.27-10.72,6.44-13.92,11.73C493.22,389.29,487.19,387.12,481.21,384.85z M523.38,426.94c-11.53,0-20.91-9.38-20.91-20.9
		c0-1.01,0.16-1.97,0.3-2.95c2.01,0.87,4.02,1.78,6.03,2.66c0,0.1-0.03,0.19-0.03,0.29c0,8.07,6.55,14.61,14.61,14.61
		c8.07,0,14.61-6.54,14.61-14.61c0-6.94-4.85-12.71-11.33-14.21l-1.11-6.48c10.5,1.1,18.74,9.9,18.74,20.69
		C544.29,417.57,534.91,426.94,523.38,426.94z"/>
	<rect y="777.49" fill="#9E1C64" width="1500" height="22.51"/>
</g>
</svg>
