<?xml version="1.0" encoding="utf-8"?>
<!-- Generator: Adobe Illustrator 19.0.0, SVG Export Plug-In . SVG Version: 6.00 Build 0)  -->
<svg version="1.1" id="Layer_1" xmlns="http://www.w3.org/2000/svg" xmlns:xlink="http://www.w3.org/1999/xlink" x="0px" y="0px"
	 viewBox="600 -325 1500 800" enable-background="new 600 -325 1500 800" xml:space="preserve">
<g id="Layer_1_1_">
</g>
<g id="Layer_3">
</g>
<rect x="600" y="75" fill="#00C9A5" width="1500" height="400"/>
<g opacity="0.13">
	<path d="M1041.6,303.5c-22.6,0-57.8-14.1-57.8-27.2c0-13.5,34.8-24.2,57.8-24.2c23.6,0,52.7,14.3,52.7,24.2
		C1094.3,290.2,1065.2,303.5,1041.6,303.5z"/>
	<path d="M1198.7,241.6v67.1h-9.7v-67.1h-23.5v-7.9h65.2v7.9H1198.7z"/>
	<path d="M1229.9,256.2v52.5h-8.8v-52.5H1229.9z"/>
	<path d="M1261.1,256.2v57.4v2.3c0,8.7-4.1,13-12.4,13c-1.2,0-2.6-0.1-4.2-0.4V323c0.5-0.1,0.8-0.1,1-0.1l1.1-0.1l3.6-1
		c1.3-1,2-3.7,2-8.2v-57.4H1261.1z M1261.1,233.7v8.6h-8.8v-8.6H1261.1z"/>
	<path d="M1325.7,256.2v52.5h-8.8l0.6-6.9l-0.2-0.2c-3.1,5.2-9.6,7.8-19.6,7.8c-14,0-21-6.1-21-18.4v-34.9h8.8v34.9
		c0,4.8,0.9,8,2.7,9.6c1.8,1.6,5.3,2.4,10.6,2.4c6.9,0,11.6-1.2,14.2-3.6c2.6-2.4,3.9-6.8,3.9-13.2v-30.1H1325.7z"/>
	<path d="M1351.1,270.9h-8.7c0-6.1,1.6-10.2,4.7-12.3c3.2-2.1,9.3-3.2,18.5-3.2c10,0,16.8,1.3,20.3,3.9c3.5,2.6,5.3,7.5,5.3,14.8
		v34.7h-8.8l0.7-5.7l-0.2-0.1c-3.4,4.3-10.1,6.5-20.4,6.5c-15.1,0-22.7-5.3-22.7-16c0-6.3,1.7-10.7,5.1-13.1
		c3.4-2.4,9.5-3.6,18.4-3.6c10.5,0,16.8,1.8,18.9,5.4l0.2-0.1v-6.4c0-6-0.9-9.9-2.8-11.7c-1.9-1.8-6-2.7-12.4-2.7
		c-10.8,0-16.2,2.7-16.2,8C1351,269.6,1351.1,270.2,1351.1,270.9z M1365.2,282.7c-6.7,0-11.1,0.6-13.1,1.9c-2,1.2-3,3.9-3,8
		c0,4.3,1,7.1,3,8.4c2,1.4,6.1,2.1,12.2,2.1c12.4,0,18.6-3.3,18.6-9.9c0-4.1-1.2-6.9-3.6-8.4
		C1376.8,283.5,1372.2,282.7,1365.2,282.7z"/>
	<path d="M1407.4,256.2h8.5l-0.3,7.1l0.3,0.2c2.7-5.4,9.3-8.1,19.9-8.1c8.6,0,14.4,1.3,17.4,4c3,2.6,4.5,7.7,4.5,15.2v34.2h-8.8
		v-33.5v-2c0-4.5-1-7.5-2.9-9.1c-2-1.6-5.7-2.3-11.4-2.3c-12.3,0-18.5,5.1-18.5,15.3v31.6h-8.8V256.2z"/>
	<path d="M1482.8,270.9h-8.7c0-6.1,1.6-10.2,4.7-12.3c3.2-2.1,9.3-3.2,18.5-3.2c10,0,16.7,1.3,20.3,3.9c3.5,2.6,5.3,7.5,5.3,14.8
		v34.7h-8.8l0.7-5.7l-0.2-0.1c-3.3,4.3-10.1,6.5-20.4,6.5c-15.1,0-22.7-5.3-22.7-16c0-6.3,1.7-10.7,5.1-13.1
		c3.4-2.4,9.5-3.6,18.4-3.6c10.5,0,16.9,1.8,19,5.4l0.2-0.1v-6.4c0-6-0.9-9.9-2.8-11.7c-1.9-1.8-6-2.7-12.4-2.7
		c-10.8,0-16.2,2.7-16.2,8C1482.8,269.6,1482.8,270.2,1482.8,270.9z M1496.9,282.7c-6.7,0-11.1,0.6-13.1,1.9c-2,1.2-3,3.9-3,8
		c0,4.3,1,7.1,3,8.4c2,1.4,6.1,2.1,12.2,2.1c12.4,0,18.6-3.3,18.6-9.9c0-4.1-1.2-6.9-3.6-8.4
		C1508.6,283.5,1503.9,282.7,1496.9,282.7z"/>
	<g>
		<path d="M1582.6,233.7V296h40.2v12.7h-56.4v-75H1582.6z"/>
		<path d="M1670.7,291.9h14.4v2c0,10.3-8.8,15.4-26.3,15.4c-11.9,0-19.7-1.8-23.4-5.3c-3.7-3.6-5.5-11.1-5.5-22.6
			c0-10.2,1.9-17.1,5.8-20.6c3.8-3.5,11.4-5.3,22.5-5.3c10.7,0,17.9,1.7,21.5,5.1c3.6,3.4,5.5,10.2,5.5,20.2v3.8h-40.6
			c-0.1,1.2-0.1,1.9-0.1,2.3c0,5.2,0.9,8.6,2.7,10.3c1.8,1.7,5.5,2.6,10.9,2.6c5.3,0,8.7-0.5,10.3-1.5
			C1669.9,297.4,1670.7,295.2,1670.7,291.9z M1670.8,277l-0.1-2.1c0-4.2-0.8-6.9-2.5-8.1c-1.7-1.2-5.2-1.9-10.8-1.9
			c-5.4,0-8.8,0.8-10.4,2.3c-1.6,1.5-2.4,4.8-2.4,9.8H1670.8z"/>
		<path d="M1737.3,291.9h14.4v2c0,10.3-8.8,15.4-26.3,15.4c-11.9,0-19.7-1.8-23.4-5.3c-3.7-3.6-5.5-11.1-5.5-22.6
			c0-10.2,1.9-17.1,5.8-20.6c3.8-3.5,11.3-5.3,22.5-5.3c10.7,0,17.9,1.7,21.5,5.1c3.6,3.4,5.5,10.2,5.5,20.2v3.8h-40.6
			c-0.1,1.2-0.1,1.9-0.1,2.3c0,5.2,0.9,8.6,2.7,10.3c1.8,1.7,5.5,2.6,10.9,2.6c5.3,0,8.7-0.5,10.3-1.5
			C1736.5,297.4,1737.3,295.2,1737.3,291.9z M1737.4,277l-0.1-2.1c0-4.2-0.8-6.9-2.5-8.1c-1.7-1.2-5.2-1.9-10.8-1.9
			c-5.4,0-8.8,0.8-10.4,2.3c-1.6,1.5-2.4,4.8-2.4,9.8H1737.4z"/>
	</g>
	<g>
		<g>
			<path d="M1041.6,266.4c-5.9,0-10.6,4.8-10.6,10.6c0,5.9,4.8,10.6,10.6,10.6c5.9,0,10.6-4.8,10.6-10.6
				C1052.2,271.1,1047.5,266.4,1041.6,266.4z"/>
			<path d="M1041.6,256.5c-11.3,0-20.5,9.2-20.5,20.5c0,11.3,9.2,20.5,20.5,20.5c11.3,0,20.5-9.2,20.5-20.5
				C1062.1,265.7,1052.9,256.5,1041.6,256.5z M1041.6,292.2c-8.4,0-15.2-6.8-15.2-15.2c0-8.4,6.8-15.2,15.2-15.2
				c8.4,0,15.2,6.8,15.2,15.2C1056.8,285.4,1050,292.2,1041.6,292.2z"/>
			<path d="M1039,187.4c-49.4,0-89.6,40.2-89.6,89.6c0,49.4,40.2,89.6,89.6,89.6c49.4,0,89.6-40.2,89.6-89.6
				C1128.6,227.6,1088.4,187.4,1039,187.4z M1039,336.1c-32.6,0-59-26.4-59-59.1c0-32.6,26.4-59,59-59c32.7,0,59.1,26.4,59.1,59
				C1098.1,309.6,1071.7,336.1,1039,336.1z"/>
		</g>
	</g>
</g>
<g>
	<path fill="#2E2A25" d="M1196.7-164v67.1h-9.7V-164h-23.5v-7.9h65.2v7.9H1196.7z"/>
	<path fill="#2E2A25" d="M1227.9-149.4v52.5h-8.8v-52.5H1227.9z"/>
	<path fill="#2E2A25" d="M1259.1-149.4V-92v2.3c0,8.7-4.1,13-12.4,13c-1.2,0-2.6-0.1-4.2-0.4v-5.4c0.5-0.1,0.8-0.1,1-0.1l1.1-0.1
		l3.6-1c1.3-1,2-3.7,2-8.2v-57.4H1259.1z M1259.1-171.9v8.6h-8.8v-8.6H1259.1z"/>
	<path fill="#2E2A25" d="M1323.7-149.4v52.5h-8.8l0.6-6.9l-0.2-0.2c-3.1,5.2-9.6,7.8-19.6,7.8c-14,0-21-6.1-21-18.4v-34.9h8.8v34.9
		c0,4.8,0.9,8,2.7,9.6c1.8,1.6,5.3,2.4,10.6,2.4c6.9,0,11.6-1.2,14.2-3.6c2.6-2.4,3.9-6.8,3.9-13.2v-30.1H1323.7z"/>
	<path fill="#2E2A25" d="M1349.1-134.7h-8.7c0-6.1,1.6-10.2,4.7-12.3c3.2-2.1,9.3-3.2,18.5-3.2c10,0,16.8,1.3,20.3,3.9
		c3.5,2.6,5.3,7.5,5.3,14.8v34.7h-8.8l0.7-5.7l-0.2-0.1c-3.4,4.3-10.1,6.5-20.4,6.5c-15.1,0-22.7-5.3-22.7-16
		c0-6.3,1.7-10.7,5.1-13.1c3.4-2.4,9.5-3.6,18.4-3.6c10.5,0,16.8,1.8,18.9,5.4l0.2-0.1v-6.4c0-6-0.9-9.9-2.8-11.7
		c-1.9-1.8-6-2.7-12.4-2.7c-10.8,0-16.2,2.7-16.2,8C1349-136,1349.1-135.5,1349.1-134.7z M1363.2-122.9c-6.7,0-11.1,0.6-13.1,1.9
		c-2,1.2-3,3.9-3,8c0,4.3,1,7.1,3,8.4c2,1.4,6.1,2.1,12.2,2.1c12.4,0,18.6-3.3,18.6-9.9c0-4.1-1.2-6.9-3.6-8.4
		C1374.8-122.2,1370.2-122.9,1363.2-122.9z"/>
	<path fill="#2E2A25" d="M1405.4-149.4h8.5l-0.3,7.1l0.3,0.2c2.7-5.4,9.3-8.1,19.9-8.1c8.6,0,14.4,1.3,17.4,4
		c3,2.6,4.5,7.7,4.5,15.2v34.2h-8.8v-33.5v-2c0-4.5-1-7.5-2.9-9.1c-2-1.6-5.7-2.3-11.4-2.3c-12.3,0-18.5,5.1-18.5,15.3v31.6h-8.8
		V-149.4z"/>
	<path fill="#2E2A25" d="M1480.8-134.7h-8.7c0-6.1,1.6-10.2,4.7-12.3c3.2-2.1,9.3-3.2,18.5-3.2c10,0,16.7,1.3,20.3,3.9
		c3.5,2.6,5.3,7.5,5.3,14.8v34.7h-8.8l0.7-5.7l-0.2-0.1c-3.3,4.3-10.1,6.5-20.4,6.5c-15.1,0-22.7-5.3-22.7-16
		c0-6.3,1.7-10.7,5.1-13.1c3.4-2.4,9.5-3.6,18.4-3.6c10.5,0,16.9,1.8,19,5.4l0.2-0.1v-6.4c0-6-0.9-9.9-2.8-11.7
		c-1.9-1.8-6-2.7-12.4-2.7c-10.8,0-16.2,2.7-16.2,8C1480.8-136,1480.8-135.5,1480.8-134.7z M1494.9-122.9c-6.7,0-11.1,0.6-13.1,1.9
		c-2,1.2-3,3.9-3,8c0,4.3,1,7.1,3,8.4c2,1.4,6.1,2.1,12.2,2.1c12.4,0,18.6-3.3,18.6-9.9c0-4.1-1.2-6.9-3.6-8.4
		C1506.6-122.2,1501.9-122.9,1494.9-122.9z"/>
	<g>
		<path fill="#00C9A5" d="M1580.6-171.9v62.2h40.2v12.7h-56.4v-75H1580.6z"/>
		<path fill="#00C9A5" d="M1668.7-113.7h14.4v2c0,10.3-8.8,15.4-26.3,15.4c-11.9,0-19.7-1.8-23.4-5.3c-3.7-3.6-5.5-11.1-5.5-22.6
			c0-10.2,1.9-17.1,5.8-20.6c3.8-3.5,11.4-5.3,22.5-5.3c10.7,0,17.9,1.7,21.5,5.1c3.6,3.4,5.5,10.2,5.5,20.2v3.8h-40.6
			c-0.1,1.2-0.1,1.9-0.1,2.3c0,5.2,0.9,8.6,2.7,10.3c1.8,1.7,5.5,2.6,10.9,2.6c5.3,0,8.7-0.5,10.3-1.5
			C1667.9-108.2,1668.7-110.4,1668.7-113.7z M1668.8-128.6l-0.1-2.1c0-4.2-0.8-6.9-2.5-8.1c-1.7-1.2-5.2-1.9-10.8-1.9
			c-5.4,0-8.8,0.8-10.4,2.3c-1.6,1.5-2.4,4.8-2.4,9.8H1668.8z"/>
		<path fill="#00C9A5" d="M1735.3-113.7h14.4v2c0,10.3-8.8,15.4-26.3,15.4c-11.9,0-19.7-1.8-23.4-5.3c-3.7-3.6-5.5-11.1-5.5-22.6
			c0-10.2,1.9-17.1,5.8-20.6c3.8-3.5,11.3-5.3,22.5-5.3c10.7,0,17.9,1.7,21.5,5.1c3.6,3.4,5.5,10.2,5.5,20.2v3.8h-40.6
			c-0.1,1.2-0.1,1.9-0.1,2.3c0,5.2,0.9,8.6,2.7,10.3c1.8,1.7,5.5,2.6,10.9,2.6c5.3,0,8.7-0.5,10.3-1.5
			C1734.5-108.2,1735.3-110.4,1735.3-113.7z M1735.4-128.6l-0.1-2.1c0-4.2-0.8-6.9-2.5-8.1c-1.7-1.2-5.2-1.9-10.8-1.9
			c-5.4,0-8.8,0.8-10.4,2.3c-1.6,1.5-2.4,4.8-2.4,9.8H1735.4z"/>
	</g>
	<g>
		<g>
			<path fill="#00C9A5" d="M1039.6-139.2c-5.9,0-10.6,4.8-10.6,10.6c0,5.9,4.8,10.6,10.6,10.6c5.9,0,10.6-4.8,10.6-10.6
				C1050.2-134.5,1045.5-139.2,1039.6-139.2z"/>
			<path fill="#00C9A5" d="M1039.6-149.1c-11.3,0-20.5,9.2-20.5,20.5c0,11.3,9.2,20.5,20.5,20.5c11.3,0,20.5-9.2,20.5-20.5
				C1060.1-139.9,1050.9-149.1,1039.6-149.1z M1039.6-113.4c-8.4,0-15.2-6.8-15.2-15.2c0-8.4,6.8-15.2,15.2-15.2
				c8.4,0,15.2,6.8,15.2,15.2C1054.8-120.2,1048-113.4,1039.6-113.4z"/>
			<path fill="#00C9A5" d="M1037-218.2c-49.4,0-89.6,40.2-89.6,89.6c0,49.4,40.2,89.6,89.6,89.6s89.6-40.2,89.6-89.6
				C1126.6-178,1086.4-218.2,1037-218.2z M1037-45.9c-45.6,0-82.7-37.1-82.7-82.7c0-45.6,37.1-82.7,82.7-82.7
				c45.6,0,82.7,37.1,82.7,82.7C1119.8-83,1082.7-45.9,1037-45.9z"/>
			<path fill="#00C9A5" d="M1037-187.7c-32.6,0-59,26.4-59,59c0,32.6,26.4,59.1,59,59.1c32.7,0,59.1-26.4,59.1-59.1
				C1096.1-161.2,1069.7-187.7,1037-187.7z M1039.6-102.1c-22.6,0-57.8-14.1-57.8-27.2c0-13.5,34.8-24.2,57.8-24.2
				c23.6,0,52.7,14.3,52.7,24.2C1092.3-115.4,1063.2-102.1,1039.6-102.1z"/>
		</g>
	</g>
</g>
<g>
	<path fill="#FFFFFF" d="M1039.6,301.5c-22.6,0-57.8-14.1-57.8-27.2c0-13.5,34.8-24.2,57.8-24.2c23.6,0,52.7,14.3,52.7,24.2
		C1092.3,288.2,1063.2,301.5,1039.6,301.5z"/>
	<path fill="#EEEEEE" d="M1196.7,239.6v67.1h-9.7v-67.1h-23.5v-7.9h65.2v7.9H1196.7z"/>
	<path fill="#EEEEEE" d="M1227.9,254.2v52.5h-8.8v-52.5H1227.9z"/>
	<path fill="#EEEEEE" d="M1259.1,254.2v57.4v2.3c0,8.7-4.1,13-12.4,13c-1.2,0-2.6-0.1-4.2-0.4V321c0.5-0.1,0.8-0.1,1-0.1l1.1-0.1
		l3.6-1c1.3-1,2-3.7,2-8.2v-57.4H1259.1z M1259.1,231.7v8.6h-8.8v-8.6H1259.1z"/>
	<path fill="#EEEEEE" d="M1323.7,254.2v52.5h-8.8l0.6-6.9l-0.2-0.2c-3.1,5.2-9.6,7.8-19.6,7.8c-14,0-21-6.1-21-18.4v-34.9h8.8v34.9
		c0,4.8,0.9,8,2.7,9.6c1.8,1.6,5.3,2.4,10.6,2.4c6.9,0,11.6-1.2,14.2-3.6c2.6-2.4,3.9-6.8,3.9-13.2v-30.1H1323.7z"/>
	<path fill="#EEEEEE" d="M1349.1,268.9h-8.7c0-6.1,1.6-10.2,4.7-12.3c3.2-2.1,9.3-3.2,18.5-3.2c10,0,16.8,1.3,20.3,3.9
		c3.5,2.6,5.3,7.5,5.3,14.8v34.7h-8.8l0.7-5.7l-0.2-0.1c-3.4,4.3-10.1,6.5-20.4,6.5c-15.1,0-22.7-5.3-22.7-16
		c0-6.3,1.7-10.7,5.1-13.1c3.4-2.4,9.5-3.6,18.4-3.6c10.5,0,16.8,1.8,18.9,5.4l0.2-0.1v-6.4c0-6-0.9-9.9-2.8-11.7
		c-1.9-1.8-6-2.7-12.4-2.7c-10.8,0-16.2,2.7-16.2,8C1349,267.6,1349.1,268.2,1349.1,268.9z M1363.2,280.7c-6.7,0-11.1,0.6-13.1,1.9
		c-2,1.2-3,3.9-3,8c0,4.3,1,7.1,3,8.4c2,1.4,6.1,2.1,12.2,2.1c12.4,0,18.6-3.3,18.6-9.9c0-4.1-1.2-6.9-3.6-8.4
		C1374.8,281.5,1370.2,280.7,1363.2,280.7z"/>
	<path fill="#EEEEEE" d="M1405.4,254.2h8.5l-0.3,7.1l0.3,0.2c2.7-5.4,9.3-8.1,19.9-8.1c8.6,0,14.4,1.3,17.4,4
		c3,2.6,4.5,7.7,4.5,15.2v34.2h-8.8v-33.5v-2c0-4.5-1-7.5-2.9-9.1c-2-1.6-5.7-2.3-11.4-2.3c-12.3,0-18.5,5.1-18.5,15.3v31.6h-8.8
		V254.2z"/>
	<path fill="#EEEEEE" d="M1480.8,268.9h-8.7c0-6.1,1.6-10.2,4.7-12.3c3.2-2.1,9.3-3.2,18.5-3.2c10,0,16.7,1.3,20.3,3.9
		c3.5,2.6,5.3,7.5,5.3,14.8v34.7h-8.8l0.7-5.7l-0.2-0.1c-3.3,4.3-10.1,6.5-20.4,6.5c-15.1,0-22.7-5.3-22.7-16
		c0-6.3,1.7-10.7,5.1-13.1c3.4-2.4,9.5-3.6,18.4-3.6c10.5,0,16.9,1.8,19,5.4l0.2-0.1v-6.4c0-6-0.9-9.9-2.8-11.7
		c-1.9-1.8-6-2.7-12.4-2.7c-10.8,0-16.2,2.7-16.2,8C1480.8,267.6,1480.8,268.2,1480.8,268.9z M1494.9,280.7
		c-6.7,0-11.1,0.6-13.1,1.9c-2,1.2-3,3.9-3,8c0,4.3,1,7.1,3,8.4c2,1.4,6.1,2.1,12.2,2.1c12.4,0,18.6-3.3,18.6-9.9
		c0-4.1-1.2-6.9-3.6-8.4C1506.6,281.5,1501.9,280.7,1494.9,280.7z"/>
	<g>
		<path fill="#FFFFFF" d="M1580.6,231.7V294h40.2v12.7h-56.4v-75H1580.6z"/>
		<path fill="#FFFFFF" d="M1668.7,289.9h14.4v2c0,10.3-8.8,15.4-26.3,15.4c-11.9,0-19.7-1.8-23.4-5.3c-3.7-3.6-5.5-11.1-5.5-22.6
			c0-10.2,1.9-17.1,5.8-20.6c3.8-3.5,11.4-5.3,22.5-5.3c10.7,0,17.9,1.7,21.5,5.1c3.6,3.4,5.5,10.2,5.5,20.2v3.8h-40.6
			c-0.1,1.2-0.1,1.9-0.1,2.3c0,5.2,0.9,8.6,2.7,10.3c1.8,1.7,5.5,2.6,10.9,2.6c5.3,0,8.7-0.5,10.3-1.5
			C1667.9,295.4,1668.7,293.2,1668.7,289.9z M1668.8,275l-0.1-2.1c0-4.2-0.8-6.9-2.5-8.1c-1.7-1.2-5.2-1.9-10.8-1.9
			c-5.4,0-8.8,0.8-10.4,2.3c-1.6,1.5-2.4,4.8-2.4,9.8H1668.8z"/>
		<path fill="#FFFFFF" d="M1735.3,289.9h14.4v2c0,10.3-8.8,15.4-26.3,15.4c-11.9,0-19.7-1.8-23.4-5.3c-3.7-3.6-5.5-11.1-5.5-22.6
			c0-10.2,1.9-17.1,5.8-20.6c3.8-3.5,11.3-5.3,22.5-5.3c10.7,0,17.9,1.7,21.5,5.1c3.6,3.4,5.5,10.2,5.5,20.2v3.8h-40.6
			c-0.1,1.2-0.1,1.9-0.1,2.3c0,5.2,0.9,8.6,2.7,10.3c1.8,1.7,5.5,2.6,10.9,2.6c5.3,0,8.7-0.5,10.3-1.5
			C1734.5,295.4,1735.3,293.2,1735.3,289.9z M1735.4,275l-0.1-2.1c0-4.2-0.8-6.9-2.5-8.1c-1.7-1.2-5.2-1.9-10.8-1.9
			c-5.4,0-8.8,0.8-10.4,2.3c-1.6,1.5-2.4,4.8-2.4,9.8H1735.4z"/>
	</g>
	<g>
		<g>
			<path fill="#00C9A5" d="M1039.6,264.4c-5.9,0-10.6,4.8-10.6,10.6c0,5.9,4.8,10.6,10.6,10.6c5.9,0,10.6-4.8,10.6-10.6
				C1050.2,269.1,1045.5,264.4,1039.6,264.4z"/>
			<path fill="#00C9A5" d="M1039.6,254.5c-11.3,0-20.5,9.2-20.5,20.5c0,11.3,9.2,20.5,20.5,20.5c11.3,0,20.5-9.2,20.5-20.5
				C1060.1,263.7,1050.9,254.5,1039.6,254.5z M1039.6,290.2c-8.4,0-15.2-6.8-15.2-15.2c0-8.4,6.8-15.2,15.2-15.2
				c8.4,0,15.2,6.8,15.2,15.2C1054.8,283.4,1048,290.2,1039.6,290.2z"/>
			<path fill="#FFFFFF" d="M1037,185.4c-49.4,0-89.6,40.2-89.6,89.6c0,49.4,40.2,89.6,89.6,89.6s89.6-40.2,89.6-89.6
				C1126.6,225.6,1086.4,185.4,1037,185.4z M1037,334.1c-32.6,0-59-26.4-59-59.1c0-32.6,26.4-59,59-59c32.7,0,59.1,26.4,59.1,59
				C1096.1,307.6,1069.7,334.1,1037,334.1z"/>
		</g>
	</g>
</g>
</svg>
