<?xml version="1.0" encoding="utf-8"?>
<!-- Generator: Adobe Illustrator 19.0.0, SVG Export Plug-In . SVG Version: 6.00 Build 0)  -->
<svg version="1.1" id="Layer_1" xmlns="http://www.w3.org/2000/svg" xmlns:xlink="http://www.w3.org/1999/xlink" x="0px" y="0px"
	 viewBox="600 -325 1500 800" enable-background="new 600 -325 1500 800" xml:space="preserve">
<g id="Layer_1_1_">
</g>
<g id="Layer_3">
</g>
<rect x="600" y="75" fill="#FFB65E" width="1500" height="400"/>
<g opacity="0.13">
	<path d="M1155.6,310.5c-3.3,0-6.4,0.8-9.2,2.1L1107,260l39.3-52.8c2.8,1.3,5.9,2.1,9.2,2.1c11.8,0,21.3-9.6,21.3-21.3
		c0-11.8-9.6-21.3-21.3-21.3c-11.8,0-21.3,9.6-21.3,21.3c0,5,1.7,9.5,4.6,13.2l-40.9,47.5l-41-47.5c2.8-3.6,4.6-8.2,4.6-13.1
		c0-11.8-9.6-21.3-21.3-21.3c-11.8,0-21.3,9.6-21.3,21.3c0,11.8,9.6,21.3,21.3,21.3c3.3,0,6.5-0.8,9.3-2.2l39.6,52.7l-39.6,52.8
		c-2.8-1.4-5.9-2.2-9.3-2.2c-11.8,0-21.3,9.6-21.3,21.4c0,11.8,9.6,21.3,21.3,21.3c11.8,0,21.3-9.6,21.3-21.3c0-5-1.7-9.5-4.6-13.1
		l41.3-47.7l40.7,47.6c-2.9,3.6-4.6,8.2-4.6,13.2c0,11.8,9.6,21.3,21.3,21.3c11.8,0,21.3-9.6,21.3-21.3
		C1176.9,320.1,1167.3,310.5,1155.6,310.5z M1139.7,188c0-8.7,7.1-15.8,15.8-15.8c8.7,0,15.8,7.1,15.8,15.8
		c0,8.7-7.1,15.8-15.8,15.8c-2.1,0-4-0.4-5.8-1.1l3-4c0.9,0.2,1.8,0.4,2.8,0.4c6.1,0,11.1-5,11.1-11.1c0-6.1-4.9-11-11.1-11
		c-6.1,0-11.1,4.9-11.1,11c0,1.8,0.5,3.5,1.3,5l-3.3,3.8C1140.8,194.4,1139.7,191.3,1139.7,188z M1040.1,203.8
		c-8.7,0-15.8-7.1-15.8-15.8c0-8.7,7.1-15.8,15.8-15.8c8.7,0,15.8,7.1,15.8,15.8c0,3.3-1,6.3-2.7,8.9l-3.3-3.8
		c0.8-1.5,1.3-3.2,1.3-5c0-6.1-4.9-11-11-11s-11.1,4.9-11.1,11c0,6.1,4.9,11.1,11.1,11.1c1,0,1.9-0.2,2.9-0.4l3,4
		C1044.1,203.4,1042.1,203.8,1040.1,203.8z M1055.9,331.9c0,8.7-7.1,15.8-15.8,15.8c-8.7,0-15.8-7.1-15.8-15.8
		c0-8.7,7.1-15.8,15.8-15.8c2.1,0,4,0.4,5.9,1.2l-3,4c-0.9-0.2-1.8-0.4-2.8-0.4c-6.1,0-11.1,4.9-11.1,11.1c0,6.1,4.9,11,11.1,11
		s11-5,11-11c0-1.8-0.5-3.5-1.3-5l3.3-3.8C1054.9,325.5,1055.9,328.6,1055.9,331.9z M1155.6,347.7c-8.7,0-15.8-7.1-15.8-15.8
		c0-3.3,1-6.4,2.8-8.9l3.3,3.8c-0.8,1.5-1.3,3.2-1.3,5.1c0,6.1,4.9,11,11.1,11c6.1,0,11.1-5,11.1-11c0-6.1-4.9-11.1-11.1-11.1
		c-1,0-1.9,0.2-2.8,0.4l-3-4c1.8-0.7,3.8-1.1,5.8-1.1c8.7,0,15.8,7.1,15.8,15.8C1171.4,340.6,1164.3,347.7,1155.6,347.7z"/>
	<g>
		<path d="M1231.7,363v-81h32.6h4c11,0,18.3,1.9,22.2,5.7c3.8,3.8,5.7,11.2,5.7,22.1c0,10.8-1.8,18-5.5,21.6
			c-3.6,3.6-11,5.3-22.1,5.3l-3.6,0.1H1247V363H1231.7z M1247,323.9h17.5c7,0,11.4-0.8,13.3-2.4c1.9-1.6,2.8-5.4,2.8-11.4
			c0-6.8-0.8-11.1-2.3-12.7c-1.6-1.6-5.6-2.5-12.2-2.5h-19V323.9z"/>
		<path d="M1318.5,322.7h-13.9c0-6.8,1.6-11.4,4.7-13.7c3.2-2.3,9.4-3.4,18.8-3.4c10.2,0,17.1,1.4,20.7,4.2
			c3.6,2.8,5.4,8.2,5.4,16.1V363h-13.6l0.7-7.8l-0.4-0.1c-2.6,5.7-8.6,8.5-18.1,8.5c-13.7,0-20.6-5.8-20.6-17.5
			c0-11.8,7-17.7,21.1-17.7c9.4,0,15.1,2.2,17.1,6.5h0.2v-9.2c0-4.4-0.8-7.4-2.3-8.8c-1.5-1.4-4.7-2.2-9.5-2.2
			C1322,314.8,1318.5,317.4,1318.5,322.7z M1327.6,337.6c-7.7,0-11.5,2.6-11.5,7.9c0,3.7,0.8,6.1,2.4,7.2c1.6,1.1,4.9,1.7,10,1.7
			c8.3,0,12.4-2.8,12.4-8.4C1340.8,340.4,1336.4,337.6,1327.6,337.6z"/>
		<path d="M1367,306.3h13.6l-0.8,8l0.3,0.1c3.2-5.9,8.3-8.9,15.3-8.9c10,0,15,6.3,15,18.9v4h-12.8c0.2-1.5,0.2-2.6,0.2-3
			c0-6.1-2.4-9.1-7.1-9.1c-6.7,0-10.1,4.5-10.1,13.5V363H1367V306.3z"/>
		<path d="M1453.2,306.3v10.3h-21.8v28.5c0,5.3,2,7.9,6,7.9c4.4,0,6.6-3.2,6.6-9.6v-2.3h11.6v2.8c0,2.6-0.1,4.8-0.2,6.7
			c-0.7,8.7-7.2,13-19.3,13c-12.1,0-18.2-5.6-18.2-16.7v-30.4h-7.4v-10.3h7.4v-12.7h13.6v12.7H1453.2z"/>
		<path d="M1475.4,282v11.3h-13.6V282H1475.4z M1475.4,306.3V363h-13.6v-56.7H1475.4z"/>
		<path d="M1523.6,341.3h13.5v2l-0.8,8.6c-1.7,7.8-9.8,11.8-24.3,11.8c-10.7,0-17.8-1.9-21.3-5.8c-3.5-3.9-5.3-11.6-5.3-23.3
			c0-11.4,1.8-19.1,5.3-23c3.5-4,10.4-5.9,20.5-5.9c9.8,0,16.5,1.4,19.9,4.3c3.5,2.9,5.2,8.3,5.2,16.4h-13.5c0-6.6-3.8-9.9-11.5-9.9
			c-5.4,0-8.8,1-10.2,3.1c-1.4,2.1-2.1,7.2-2.1,15.4c0,7.9,0.8,12.9,2.3,14.9c1.5,2,5.3,3.1,11.2,3.1c4.7,0,7.7-0.7,9-2.1
			C1523,349.4,1523.6,346.2,1523.6,341.3z"/>
		<path d="M1559.5,282v11.3h-13.6V282H1559.5z M1559.5,306.3V363h-13.6v-56.7H1559.5z"/>
		<path d="M1571.6,306.3h13.8l-0.5,8.4l0.3,0.1c3.3-6.1,9.4-9.2,18.3-9.2c8.3,0,13.9,2,17.1,6.1c3.1,4.1,4.7,11.6,4.7,22.4
			c0,11.3-1.5,19.1-4.6,23.3c-3.1,4.2-8.8,6.3-17.1,6.3c-8.9,0-14.7-3-17.5-8.9h-0.2v32.6h-14.2V306.3z M1598.4,316.3
			c-5.2,0-8.6,1.2-10.2,3.5c-1.6,2.3-2.4,7.3-2.4,14.8c0,7.4,0.8,12.2,2.5,14.6c1.7,2.4,5.2,3.6,10.4,3.6c5.3,0,8.7-1.1,10.3-3.4
			c1.6-2.3,2.4-7.2,2.4-14.8c0-7.8-0.8-12.8-2.4-15C1607.5,317.4,1603.9,316.3,1598.4,316.3z"/>
		<path d="M1649.5,322.7h-13.9c0-6.8,1.6-11.4,4.7-13.7c3.2-2.3,9.4-3.4,18.8-3.4c10.2,0,17.1,1.4,20.7,4.2
			c3.6,2.8,5.4,8.2,5.4,16.1V363h-13.6l0.7-7.8l-0.4-0.1c-2.6,5.7-8.6,8.5-18.1,8.5c-13.7,0-20.6-5.8-20.6-17.5
			c0-11.8,7-17.7,21.1-17.7c9.4,0,15.1,2.2,17.1,6.5h0.2v-9.2c0-4.4-0.8-7.4-2.3-8.8c-1.5-1.4-4.7-2.2-9.5-2.2
			C1653,314.8,1649.5,317.4,1649.5,322.7z M1658.6,337.6c-7.7,0-11.5,2.6-11.5,7.9c0,3.7,0.8,6.1,2.4,7.2c1.6,1.1,4.9,1.7,10,1.7
			c8.3,0,12.4-2.8,12.4-8.4C1671.8,340.4,1667.4,337.6,1658.6,337.6z"/>
	</g>
	<path d="M1261.2,179.3v72.5h-9.1v-72.5h-22.2v-8.5h61.7v8.5H1261.2z"/>
	<path d="M1290.7,195.1v56.7h-8.3v-56.7H1290.7z"/>
	<path d="M1320.2,195.1V257v2.4c0,9.4-3.9,14.1-11.7,14.1c-1.1,0-2.5-0.1-4-0.4v-5.9c0.5-0.1,0.8-0.1,1-0.1l1.1-0.1l3.4-1.1
		c1.3-1.1,1.9-4,1.9-8.9v-61.9H1320.2z M1320.2,170.8v9.3h-8.3v-9.3H1320.2z"/>
	<path d="M1381.3,195.1v56.7h-8.3l0.6-7.4l-0.2-0.2c-2.9,5.6-9.1,8.4-18.5,8.4c-13.3,0-19.9-6.6-19.9-19.8v-37.7h8.3v37.7
		c0,5.1,0.8,8.6,2.5,10.3c1.7,1.7,5,2.6,10,2.6c6.5,0,11-1.3,13.4-3.9c2.4-2.6,3.6-7.3,3.6-14.3v-32.5H1381.3z"/>
	<path d="M1405.3,211h-8.3c0-6.6,1.5-11,4.5-13.3c3-2.3,8.8-3.4,17.5-3.4c9.5,0,15.8,1.4,19.2,4.2c3.3,2.8,5,8.1,5,15.9v37.4h-8.3
		l0.7-6.1l-0.2-0.1c-3.2,4.7-9.6,7-19.3,7c-14.3,0-21.5-5.8-21.5-17.3c0-6.8,1.6-11.6,4.8-14.2c3.2-2.6,9-3.9,17.4-3.9
		c10,0,15.9,2,17.9,5.9l0.2-0.1v-6.9c0-6.5-0.9-10.7-2.7-12.6c-1.8-1.9-5.7-2.9-11.7-2.9c-10.2,0-15.3,2.9-15.3,8.6
		C1405.3,209.6,1405.3,210.1,1405.3,211z M1418.7,223.7c-6.4,0-10.5,0.7-12.4,2c-1.9,1.3-2.9,4.2-2.9,8.7c0,4.6,0.9,7.6,2.8,9.1
		c1.9,1.5,5.8,2.2,11.6,2.2c11.7,0,17.6-3.6,17.6-10.7c0-4.5-1.1-7.5-3.4-9C1429.7,224.5,1425.3,223.7,1418.7,223.7z"/>
	<path d="M1458.6,195.1h8l-0.2,7.7l0.2,0.2c2.5-5.8,8.8-8.7,18.9-8.7c8.1,0,13.6,1.4,16.5,4.3c2.9,2.8,4.3,8.3,4.3,16.4v36.9h-8.3
		v-36.2v-2.1c0-4.9-0.9-8.1-2.8-9.8c-1.9-1.7-5.4-2.5-10.7-2.5c-11.7,0-17.5,5.5-17.5,16.6v34.1h-8.3V195.1z"/>
	<path d="M1529.9,211h-8.2c0-6.6,1.5-11,4.5-13.3c3-2.3,8.8-3.4,17.5-3.4c9.5,0,15.8,1.4,19.2,4.2c3.3,2.8,5,8.1,5,15.9v37.4h-8.3
		l0.7-6.1l-0.2-0.1c-3.2,4.7-9.6,7-19.3,7c-14.3,0-21.5-5.8-21.5-17.3c0-6.8,1.6-11.6,4.8-14.2c3.2-2.6,9-3.9,17.4-3.9
		c10,0,15.9,2,17.9,5.9l0.2-0.1v-6.9c0-6.5-0.9-10.7-2.7-12.6c-1.8-1.9-5.7-2.9-11.7-2.9c-10.2,0-15.3,2.9-15.3,8.6
		C1529.9,209.6,1529.9,210.1,1529.9,211z M1543.3,223.7c-6.4,0-10.5,0.7-12.4,2c-1.9,1.3-2.9,4.2-2.9,8.7c0,4.6,0.9,7.6,2.8,9.1
		c1.9,1.5,5.8,2.2,11.6,2.2c11.7,0,17.6-3.6,17.6-10.7c0-4.5-1.1-7.5-3.4-9C1554.3,224.5,1549.8,223.7,1543.3,223.7z"/>
</g>
<g>
	<path fill="#FFB65E" d="M1153.6-81.7c-3.3,0-6.4,0.8-9.2,2.1l-39.3-52.6l39.3-52.8c2.8,1.3,5.9,2.1,9.2,2.1
		c11.8,0,21.3-9.6,21.3-21.3c0-11.8-9.6-21.3-21.3-21.3c-11.8,0-21.3,9.6-21.3,21.3c0,5,1.7,9.5,4.6,13.2l-40.9,47.5l-41-47.5
		c2.8-3.6,4.6-8.2,4.6-13.1c0-11.8-9.6-21.3-21.3-21.3c-11.8,0-21.3,9.6-21.3,21.3c0,11.8,9.6,21.3,21.3,21.3c3.3,0,6.5-0.8,9.3-2.2
		l39.6,52.7l-39.6,52.8c-2.8-1.4-5.9-2.2-9.3-2.2c-11.8,0-21.3,9.6-21.3,21.4c0,11.8,9.6,21.3,21.3,21.3c11.8,0,21.3-9.6,21.3-21.3
		c0-5-1.7-9.5-4.6-13.1l41.3-47.7l40.7,47.6c-2.9,3.6-4.6,8.2-4.6,13.2c0,11.8,9.6,21.3,21.3,21.3c11.8,0,21.3-9.6,21.3-21.3
		C1174.9-72.1,1165.3-81.7,1153.6-81.7z M1137.7-204.2c0-8.7,7.1-15.8,15.8-15.8c8.7,0,15.8,7.1,15.8,15.8c0,8.7-7.1,15.8-15.8,15.8
		c-2.1,0-4-0.4-5.8-1.1l3-4c0.9,0.2,1.8,0.4,2.8,0.4c6.1,0,11.1-5,11.1-11.1c0-6.1-4.9-11-11.1-11c-6.1,0-11.1,4.9-11.1,11
		c0,1.8,0.5,3.5,1.3,5l-3.3,3.8C1138.8-197.8,1137.7-200.9,1137.7-204.2z M1038.1-188.4c-8.7,0-15.8-7.1-15.8-15.8
		c0-8.7,7.1-15.8,15.8-15.8c8.7,0,15.8,7.1,15.8,15.8c0,3.3-1,6.3-2.7,8.9l-3.3-3.8c0.8-1.5,1.3-3.2,1.3-5c0-6.1-4.9-11-11-11
		s-11.1,4.9-11.1,11c0,6.1,4.9,11.1,11.1,11.1c1,0,1.9-0.2,2.9-0.4l3,4C1042.1-188.8,1040.1-188.4,1038.1-188.4z M1053.9-60.3
		c0,8.7-7.1,15.8-15.8,15.8c-8.7,0-15.8-7.1-15.8-15.8c0-8.7,7.1-15.8,15.8-15.8c2.1,0,4,0.4,5.9,1.2l-3,4c-0.9-0.2-1.8-0.4-2.8-0.4
		c-6.1,0-11.1,4.9-11.1,11.1c0,6.1,4.9,11,11.1,11s11-5,11-11c0-1.8-0.5-3.5-1.3-5l3.3-3.8C1052.9-66.7,1053.9-63.6,1053.9-60.3z
		 M1153.6-44.5c-8.7,0-15.8-7.1-15.8-15.8c0-3.3,1-6.4,2.8-8.9l3.3,3.8c-0.8,1.5-1.3,3.2-1.3,5.1c0,6.1,4.9,11,11.1,11
		c6.1,0,11.1-5,11.1-11c0-6.1-4.9-11.1-11.1-11.1c-1,0-1.9,0.2-2.8,0.4l-3-4c1.8-0.7,3.8-1.1,5.8-1.1c8.7,0,15.8,7.1,15.8,15.8
		C1169.4-51.6,1162.3-44.5,1153.6-44.5z"/>
	<g>
		<path fill="#FFB65E" d="M1229.7-29.2v-81h32.6h4c11,0,18.3,1.9,22.2,5.7c3.8,3.8,5.7,11.2,5.7,22.1c0,10.8-1.8,18-5.5,21.6
			c-3.6,3.6-11,5.3-22.1,5.3l-3.6,0.1H1245v26.2H1229.7z M1245-68.3h17.5c7,0,11.4-0.8,13.3-2.4c1.9-1.6,2.8-5.4,2.8-11.4
			c0-6.8-0.8-11.1-2.3-12.7c-1.6-1.6-5.6-2.5-12.2-2.5h-19V-68.3z"/>
		<path fill="#FFB65E" d="M1316.5-69.5h-13.9c0-6.8,1.6-11.4,4.7-13.7c3.2-2.3,9.4-3.4,18.8-3.4c10.2,0,17.1,1.4,20.7,4.2
			c3.6,2.8,5.4,8.2,5.4,16.1v37.1h-13.6l0.7-7.8L1339-37c-2.6,5.7-8.6,8.5-18.1,8.5c-13.7,0-20.6-5.8-20.6-17.5
			c0-11.8,7-17.7,21.1-17.7c9.4,0,15.1,2.2,17.1,6.5h0.2v-9.2c0-4.4-0.8-7.4-2.3-8.8c-1.5-1.4-4.7-2.2-9.5-2.2
			C1320-77.5,1316.5-74.8,1316.5-69.5z M1325.6-54.6c-7.7,0-11.5,2.6-11.5,7.9c0,3.7,0.8,6.1,2.4,7.2c1.6,1.1,4.9,1.7,10,1.7
			c8.3,0,12.4-2.8,12.4-8.4C1338.8-51.8,1334.4-54.6,1325.6-54.6z"/>
		<path fill="#FFB65E" d="M1365-85.9h13.6l-0.8,8l0.3,0.1c3.2-5.9,8.3-8.9,15.3-8.9c10,0,15,6.3,15,18.9v4h-12.8
			c0.2-1.5,0.2-2.6,0.2-3c0-6.1-2.4-9.1-7.1-9.1c-6.7,0-10.1,4.5-10.1,13.5v33.4H1365V-85.9z"/>
		<path fill="#FFB65E" d="M1451.2-85.9v10.3h-21.8v28.5c0,5.3,2,7.9,6,7.9c4.4,0,6.6-3.2,6.6-9.6V-51h11.6v2.8
			c0,2.6-0.1,4.8-0.2,6.7c-0.7,8.7-7.2,13-19.3,13c-12.1,0-18.2-5.6-18.2-16.7v-30.4h-7.4v-10.3h7.4v-12.7h13.6v12.7H1451.2z"/>
		<path fill="#FFB65E" d="M1473.4-110.2v11.3h-13.6v-11.3H1473.4z M1473.4-85.9v56.7h-13.6v-56.7H1473.4z"/>
		<path fill="#FFB65E" d="M1521.6-50.9h13.5v2l-0.8,8.6c-1.7,7.8-9.8,11.8-24.3,11.8c-10.7,0-17.8-1.9-21.3-5.8
			c-3.5-3.9-5.3-11.6-5.3-23.3c0-11.4,1.8-19.1,5.3-23c3.5-4,10.4-5.9,20.5-5.9c9.8,0,16.5,1.4,19.9,4.3c3.5,2.9,5.2,8.3,5.2,16.4
			h-13.5c0-6.6-3.8-9.9-11.5-9.9c-5.4,0-8.8,1-10.2,3.1c-1.4,2.1-2.1,7.2-2.1,15.4c0,7.9,0.8,12.9,2.3,14.9c1.5,2,5.3,3.1,11.2,3.1
			c4.7,0,7.7-0.7,9-2.1C1521-42.8,1521.6-46,1521.6-50.9z"/>
		<path fill="#FFB65E" d="M1557.5-110.2v11.3h-13.6v-11.3H1557.5z M1557.5-85.9v56.7h-13.6v-56.7H1557.5z"/>
		<path fill="#FFB65E" d="M1569.6-85.9h13.8l-0.5,8.4l0.3,0.1c3.3-6.1,9.4-9.2,18.3-9.2c8.3,0,13.9,2,17.1,6.1
			c3.1,4.1,4.7,11.6,4.7,22.4c0,11.3-1.5,19.1-4.6,23.3c-3.1,4.2-8.8,6.3-17.1,6.3c-8.9,0-14.7-3-17.5-8.9h-0.2v32.6h-14.2V-85.9z
			 M1596.4-75.9c-5.2,0-8.6,1.2-10.2,3.5c-1.6,2.3-2.4,7.3-2.4,14.8c0,7.4,0.8,12.2,2.5,14.6c1.7,2.4,5.2,3.6,10.4,3.6
			c5.3,0,8.7-1.1,10.3-3.4c1.6-2.3,2.4-7.2,2.4-14.8c0-7.8-0.8-12.8-2.4-15C1605.5-74.8,1601.9-75.9,1596.4-75.9z"/>
		<path fill="#FFB65E" d="M1647.5-69.5h-13.9c0-6.8,1.6-11.4,4.7-13.7c3.2-2.3,9.4-3.4,18.8-3.4c10.2,0,17.1,1.4,20.7,4.2
			c3.6,2.8,5.4,8.2,5.4,16.1v37.1h-13.6l0.7-7.8L1670-37c-2.6,5.7-8.6,8.5-18.1,8.5c-13.7,0-20.6-5.8-20.6-17.5
			c0-11.8,7-17.7,21.1-17.7c9.4,0,15.1,2.2,17.1,6.5h0.2v-9.2c0-4.4-0.8-7.4-2.3-8.8c-1.5-1.4-4.7-2.2-9.5-2.2
			C1651-77.5,1647.5-74.8,1647.5-69.5z M1656.6-54.6c-7.7,0-11.5,2.6-11.5,7.9c0,3.7,0.8,6.1,2.4,7.2c1.6,1.1,4.9,1.7,10,1.7
			c8.3,0,12.4-2.8,12.4-8.4C1669.8-51.8,1665.4-54.6,1656.6-54.6z"/>
	</g>
	<path fill="#2E2A25" d="M1259.2-212.9v72.5h-9.1v-72.5h-22.2v-8.5h61.7v8.5H1259.2z"/>
	<path fill="#2E2A25" d="M1288.7-197.1v56.7h-8.3v-56.7H1288.7z"/>
	<path fill="#2E2A25" d="M1318.2-197.1v61.9v2.4c0,9.4-3.9,14.1-11.7,14.1c-1.1,0-2.5-0.1-4-0.4v-5.9c0.5-0.1,0.8-0.1,1-0.1l1.1-0.1
		l3.4-1.1c1.3-1.1,1.9-4,1.9-8.9v-61.9H1318.2z M1318.2-221.4v9.3h-8.3v-9.3H1318.2z"/>
	<path fill="#2E2A25" d="M1379.3-197.1v56.7h-8.3l0.6-7.4l-0.2-0.2c-2.9,5.6-9.1,8.4-18.5,8.4c-13.3,0-19.9-6.6-19.9-19.8v-37.7h8.3
		v37.7c0,5.1,0.8,8.6,2.5,10.3c1.7,1.7,5,2.6,10,2.6c6.5,0,11-1.3,13.4-3.9c2.4-2.6,3.6-7.3,3.6-14.3v-32.5H1379.3z"/>
	<path fill="#2E2A25" d="M1403.3-181.2h-8.3c0-6.6,1.5-11,4.5-13.3c3-2.3,8.8-3.4,17.5-3.4c9.5,0,15.8,1.4,19.2,4.2
		c3.3,2.8,5,8.1,5,15.9v37.4h-8.3l0.7-6.1l-0.2-0.1c-3.2,4.7-9.6,7-19.3,7c-14.3,0-21.5-5.8-21.5-17.3c0-6.8,1.6-11.6,4.8-14.2
		c3.2-2.6,9-3.9,17.4-3.9c10,0,15.9,2,17.9,5.9l0.2-0.1v-6.9c0-6.5-0.9-10.7-2.7-12.6c-1.8-1.9-5.7-2.9-11.7-2.9
		c-10.2,0-15.3,2.9-15.3,8.6C1403.3-182.6,1403.3-182.1,1403.3-181.2z M1416.7-168.5c-6.4,0-10.5,0.7-12.4,2
		c-1.9,1.3-2.9,4.2-2.9,8.7c0,4.6,0.9,7.6,2.8,9.1c1.9,1.5,5.8,2.2,11.6,2.2c11.7,0,17.6-3.6,17.6-10.7c0-4.5-1.1-7.5-3.4-9
		C1427.7-167.7,1423.3-168.5,1416.7-168.5z"/>
	<path fill="#2E2A25" d="M1456.6-197.1h8l-0.2,7.7l0.2,0.2c2.5-5.8,8.8-8.7,18.9-8.7c8.1,0,13.6,1.4,16.5,4.3
		c2.9,2.8,4.3,8.3,4.3,16.4v36.9h-8.3v-36.2v-2.1c0-4.9-0.9-8.1-2.8-9.8c-1.9-1.7-5.4-2.5-10.7-2.5c-11.7,0-17.5,5.5-17.5,16.6v34.1
		h-8.3V-197.1z"/>
	<path fill="#2E2A25" d="M1527.9-181.2h-8.2c0-6.6,1.5-11,4.5-13.3c3-2.3,8.8-3.4,17.5-3.4c9.5,0,15.8,1.4,19.2,4.2
		c3.3,2.8,5,8.1,5,15.9v37.4h-8.3l0.7-6.1l-0.2-0.1c-3.2,4.7-9.6,7-19.3,7c-14.3,0-21.5-5.8-21.5-17.3c0-6.8,1.6-11.6,4.8-14.2
		c3.2-2.6,9-3.9,17.4-3.9c10,0,15.9,2,17.9,5.9l0.2-0.1v-6.9c0-6.5-0.9-10.7-2.7-12.6c-1.8-1.9-5.7-2.9-11.7-2.9
		c-10.2,0-15.3,2.9-15.3,8.6C1527.9-182.6,1527.9-182.1,1527.9-181.2z M1541.3-168.5c-6.4,0-10.5,0.7-12.4,2
		c-1.9,1.3-2.9,4.2-2.9,8.7c0,4.6,0.9,7.6,2.8,9.1c1.9,1.5,5.8,2.2,11.6,2.2c11.7,0,17.6-3.6,17.6-10.7c0-4.5-1.1-7.5-3.4-9
		C1552.3-167.7,1547.8-168.5,1541.3-168.5z"/>
</g>
<g>
	<path fill="#FFFFFF" d="M1153.6,308.5c-3.3,0-6.4,0.8-9.2,2.1L1105,258l39.3-52.8c2.8,1.3,5.9,2.1,9.2,2.1
		c11.8,0,21.3-9.6,21.3-21.3c0-11.8-9.6-21.3-21.3-21.3c-11.8,0-21.3,9.6-21.3,21.3c0,5,1.7,9.5,4.6,13.2l-40.9,47.5l-41-47.5
		c2.8-3.6,4.6-8.2,4.6-13.1c0-11.8-9.6-21.3-21.3-21.3c-11.8,0-21.3,9.6-21.3,21.3c0,11.8,9.6,21.3,21.3,21.3c3.3,0,6.5-0.8,9.3-2.2
		l39.6,52.7l-39.6,52.8c-2.8-1.4-5.9-2.2-9.3-2.2c-11.8,0-21.3,9.6-21.3,21.4c0,11.8,9.6,21.3,21.3,21.3c11.8,0,21.3-9.6,21.3-21.3
		c0-5-1.7-9.5-4.6-13.1l41.3-47.7l40.7,47.6c-2.9,3.6-4.6,8.2-4.6,13.2c0,11.8,9.6,21.3,21.3,21.3c11.8,0,21.3-9.6,21.3-21.3
		C1174.9,318.1,1165.3,308.5,1153.6,308.5z M1137.7,186c0-8.7,7.1-15.8,15.8-15.8c8.7,0,15.8,7.1,15.8,15.8
		c0,8.7-7.1,15.8-15.8,15.8c-2.1,0-4-0.4-5.8-1.1l3-4c0.9,0.2,1.8,0.4,2.8,0.4c6.1,0,11.1-5,11.1-11.1c0-6.1-4.9-11-11.1-11
		c-6.1,0-11.1,4.9-11.1,11c0,1.8,0.5,3.5,1.3,5l-3.3,3.8C1138.8,192.4,1137.7,189.3,1137.7,186z M1038.1,201.8
		c-8.7,0-15.8-7.1-15.8-15.8c0-8.7,7.1-15.8,15.8-15.8c8.7,0,15.8,7.1,15.8,15.8c0,3.3-1,6.3-2.7,8.9l-3.3-3.8
		c0.8-1.5,1.3-3.2,1.3-5c0-6.1-4.9-11-11-11s-11.1,4.9-11.1,11c0,6.1,4.9,11.1,11.1,11.1c1,0,1.9-0.2,2.9-0.4l3,4
		C1042.1,201.4,1040.1,201.8,1038.1,201.8z M1053.9,329.9c0,8.7-7.1,15.8-15.8,15.8c-8.7,0-15.8-7.1-15.8-15.8
		c0-8.7,7.1-15.8,15.8-15.8c2.1,0,4,0.4,5.9,1.2l-3,4c-0.9-0.2-1.8-0.4-2.8-0.4c-6.1,0-11.1,4.9-11.1,11.1c0,6.1,4.9,11,11.1,11
		s11-5,11-11c0-1.8-0.5-3.5-1.3-5l3.3-3.8C1052.9,323.5,1053.9,326.6,1053.9,329.9z M1153.6,345.7c-8.7,0-15.8-7.1-15.8-15.8
		c0-3.3,1-6.4,2.8-8.9l3.3,3.8c-0.8,1.5-1.3,3.2-1.3,5.1c0,6.1,4.9,11,11.1,11c6.1,0,11.1-5,11.1-11c0-6.1-4.9-11.1-11.1-11.1
		c-1,0-1.9,0.2-2.8,0.4l-3-4c1.8-0.7,3.8-1.1,5.8-1.1c8.7,0,15.8,7.1,15.8,15.8C1169.4,338.6,1162.3,345.7,1153.6,345.7z"/>
	<g>
		<path fill="#FFFFFF" d="M1229.7,361v-81h32.6h4c11,0,18.3,1.9,22.2,5.7c3.8,3.8,5.7,11.2,5.7,22.1c0,10.8-1.8,18-5.5,21.6
			c-3.6,3.6-11,5.3-22.1,5.3l-3.6,0.1H1245V361H1229.7z M1245,321.9h17.5c7,0,11.4-0.8,13.3-2.4c1.9-1.6,2.8-5.4,2.8-11.4
			c0-6.8-0.8-11.1-2.3-12.7c-1.6-1.6-5.6-2.5-12.2-2.5h-19V321.9z"/>
		<path fill="#FFFFFF" d="M1316.5,320.7h-13.9c0-6.8,1.6-11.4,4.7-13.7c3.2-2.3,9.4-3.4,18.8-3.4c10.2,0,17.1,1.4,20.7,4.2
			c3.6,2.8,5.4,8.2,5.4,16.1V361h-13.6l0.7-7.8l-0.4-0.1c-2.6,5.7-8.6,8.5-18.1,8.5c-13.7,0-20.6-5.8-20.6-17.5
			c0-11.8,7-17.7,21.1-17.7c9.4,0,15.1,2.2,17.1,6.5h0.2v-9.2c0-4.4-0.8-7.4-2.3-8.8c-1.5-1.4-4.7-2.2-9.5-2.2
			C1320,312.8,1316.5,315.4,1316.5,320.7z M1325.6,335.6c-7.7,0-11.5,2.6-11.5,7.9c0,3.7,0.8,6.1,2.4,7.2c1.6,1.1,4.9,1.7,10,1.7
			c8.3,0,12.4-2.8,12.4-8.4C1338.8,338.4,1334.4,335.6,1325.6,335.6z"/>
		<path fill="#FFFFFF" d="M1365,304.3h13.6l-0.8,8l0.3,0.1c3.2-5.9,8.3-8.9,15.3-8.9c10,0,15,6.3,15,18.9v4h-12.8
			c0.2-1.5,0.2-2.6,0.2-3c0-6.1-2.4-9.1-7.1-9.1c-6.7,0-10.1,4.5-10.1,13.5V361H1365V304.3z"/>
		<path fill="#FFFFFF" d="M1451.2,304.3v10.3h-21.8v28.5c0,5.3,2,7.9,6,7.9c4.4,0,6.6-3.2,6.6-9.6v-2.3h11.6v2.8
			c0,2.6-0.1,4.8-0.2,6.7c-0.7,8.7-7.2,13-19.3,13c-12.1,0-18.2-5.6-18.2-16.7v-30.4h-7.4v-10.3h7.4v-12.7h13.6v12.7H1451.2z"/>
		<path fill="#FFFFFF" d="M1473.4,280v11.3h-13.6V280H1473.4z M1473.4,304.3V361h-13.6v-56.7H1473.4z"/>
		<path fill="#FFFFFF" d="M1521.6,339.3h13.5v2l-0.8,8.6c-1.7,7.8-9.8,11.8-24.3,11.8c-10.7,0-17.8-1.9-21.3-5.8
			c-3.5-3.9-5.3-11.6-5.3-23.3c0-11.4,1.8-19.1,5.3-23c3.5-4,10.4-5.9,20.5-5.9c9.8,0,16.5,1.4,19.9,4.3c3.5,2.9,5.2,8.3,5.2,16.4
			h-13.5c0-6.6-3.8-9.9-11.5-9.9c-5.4,0-8.8,1-10.2,3.1c-1.4,2.1-2.1,7.2-2.1,15.4c0,7.9,0.8,12.9,2.3,14.9c1.5,2,5.3,3.1,11.2,3.1
			c4.7,0,7.7-0.7,9-2.1C1521,347.4,1521.6,344.2,1521.6,339.3z"/>
		<path fill="#FFFFFF" d="M1557.5,280v11.3h-13.6V280H1557.5z M1557.5,304.3V361h-13.6v-56.7H1557.5z"/>
		<path fill="#FFFFFF" d="M1569.6,304.3h13.8l-0.5,8.4l0.3,0.1c3.3-6.1,9.4-9.2,18.3-9.2c8.3,0,13.9,2,17.1,6.1
			c3.1,4.1,4.7,11.6,4.7,22.4c0,11.3-1.5,19.1-4.6,23.3c-3.1,4.2-8.8,6.3-17.1,6.3c-8.9,0-14.7-3-17.5-8.9h-0.2v32.6h-14.2V304.3z
			 M1596.4,314.3c-5.2,0-8.6,1.2-10.2,3.5c-1.6,2.3-2.4,7.3-2.4,14.8c0,7.4,0.8,12.2,2.5,14.6c1.7,2.4,5.2,3.6,10.4,3.6
			c5.3,0,8.7-1.1,10.3-3.4c1.6-2.3,2.4-7.2,2.4-14.8c0-7.8-0.8-12.8-2.4-15C1605.5,315.4,1601.9,314.3,1596.4,314.3z"/>
		<path fill="#FFFFFF" d="M1647.5,320.7h-13.9c0-6.8,1.6-11.4,4.7-13.7c3.2-2.3,9.4-3.4,18.8-3.4c10.2,0,17.1,1.4,20.7,4.2
			c3.6,2.8,5.4,8.2,5.4,16.1V361h-13.6l0.7-7.8l-0.4-0.1c-2.6,5.7-8.6,8.5-18.1,8.5c-13.7,0-20.6-5.8-20.6-17.5
			c0-11.8,7-17.7,21.1-17.7c9.4,0,15.1,2.2,17.1,6.5h0.2v-9.2c0-4.4-0.8-7.4-2.3-8.8c-1.5-1.4-4.7-2.2-9.5-2.2
			C1651,312.8,1647.5,315.4,1647.5,320.7z M1656.6,335.6c-7.7,0-11.5,2.6-11.5,7.9c0,3.7,0.8,6.1,2.4,7.2c1.6,1.1,4.9,1.7,10,1.7
			c8.3,0,12.4-2.8,12.4-8.4C1669.8,338.4,1665.4,335.6,1656.6,335.6z"/>
	</g>
	<path fill="#EEEEEE" d="M1259.2,177.3v72.5h-9.1v-72.5h-22.2v-8.5h61.7v8.5H1259.2z"/>
	<path fill="#EEEEEE" d="M1288.7,193.1v56.7h-8.3v-56.7H1288.7z"/>
	<path fill="#EEEEEE" d="M1318.2,193.1V255v2.4c0,9.4-3.9,14.1-11.7,14.1c-1.1,0-2.5-0.1-4-0.4v-5.9c0.5-0.1,0.8-0.1,1-0.1l1.1-0.1
		l3.4-1.1c1.3-1.1,1.9-4,1.9-8.9v-61.9H1318.2z M1318.2,168.8v9.3h-8.3v-9.3H1318.2z"/>
	<path fill="#EEEEEE" d="M1379.3,193.1v56.7h-8.3l0.6-7.4l-0.2-0.2c-2.9,5.6-9.1,8.4-18.5,8.4c-13.3,0-19.9-6.6-19.9-19.8v-37.7h8.3
		v37.7c0,5.1,0.8,8.6,2.5,10.3c1.7,1.7,5,2.6,10,2.6c6.5,0,11-1.3,13.4-3.9c2.4-2.6,3.6-7.3,3.6-14.3v-32.5H1379.3z"/>
	<path fill="#EEEEEE" d="M1403.3,209h-8.3c0-6.6,1.5-11,4.5-13.3c3-2.3,8.8-3.4,17.5-3.4c9.5,0,15.8,1.4,19.2,4.2
		c3.3,2.8,5,8.1,5,15.9v37.4h-8.3l0.7-6.1l-0.2-0.1c-3.2,4.7-9.6,7-19.3,7c-14.3,0-21.5-5.8-21.5-17.3c0-6.8,1.6-11.6,4.8-14.2
		c3.2-2.6,9-3.9,17.4-3.9c10,0,15.9,2,17.9,5.9l0.2-0.1v-6.9c0-6.5-0.9-10.7-2.7-12.6c-1.8-1.9-5.7-2.9-11.7-2.9
		c-10.2,0-15.3,2.9-15.3,8.6C1403.3,207.6,1403.3,208.1,1403.3,209z M1416.7,221.7c-6.4,0-10.5,0.7-12.4,2c-1.9,1.3-2.9,4.2-2.9,8.7
		c0,4.6,0.9,7.6,2.8,9.1c1.9,1.5,5.8,2.2,11.6,2.2c11.7,0,17.6-3.6,17.6-10.7c0-4.5-1.1-7.5-3.4-9
		C1427.7,222.5,1423.3,221.7,1416.7,221.7z"/>
	<path fill="#EEEEEE" d="M1456.6,193.1h8l-0.2,7.7l0.2,0.2c2.5-5.8,8.8-8.7,18.9-8.7c8.1,0,13.6,1.4,16.5,4.3
		c2.9,2.8,4.3,8.3,4.3,16.4v36.9h-8.3v-36.2v-2.1c0-4.9-0.9-8.1-2.8-9.8c-1.9-1.7-5.4-2.5-10.7-2.5c-11.7,0-17.5,5.5-17.5,16.6v34.1
		h-8.3V193.1z"/>
	<path fill="#EEEEEE" d="M1527.9,209h-8.2c0-6.6,1.5-11,4.5-13.3c3-2.3,8.8-3.4,17.5-3.4c9.5,0,15.8,1.4,19.2,4.2
		c3.3,2.8,5,8.1,5,15.9v37.4h-8.3l0.7-6.1l-0.2-0.1c-3.2,4.7-9.6,7-19.3,7c-14.3,0-21.5-5.8-21.5-17.3c0-6.8,1.6-11.6,4.8-14.2
		c3.2-2.6,9-3.9,17.4-3.9c10,0,15.9,2,17.9,5.9l0.2-0.1v-6.9c0-6.5-0.9-10.7-2.7-12.6c-1.8-1.9-5.7-2.9-11.7-2.9
		c-10.2,0-15.3,2.9-15.3,8.6C1527.9,207.6,1527.9,208.1,1527.9,209z M1541.3,221.7c-6.4,0-10.5,0.7-12.4,2c-1.9,1.3-2.9,4.2-2.9,8.7
		c0,4.6,0.9,7.6,2.8,9.1c1.9,1.5,5.8,2.2,11.6,2.2c11.7,0,17.6-3.6,17.6-10.7c0-4.5-1.1-7.5-3.4-9
		C1552.3,222.5,1547.8,221.7,1541.3,221.7z"/>
</g>
</svg>
