<?xml version="1.0" encoding="utf-8"?>
<!-- Generator: Adobe Illustrator 16.0.0, SVG Export Plug-In . SVG Version: 6.00 Build 0)  -->
<!DOCTYPE svg PUBLIC "-//W3C//DTD SVG 1.1//EN" "http://www.w3.org/Graphics/SVG/1.1/DTD/svg11.dtd">
<svg version="1.1" xmlns="http://www.w3.org/2000/svg" xmlns:xlink="http://www.w3.org/1999/xlink" x="0px" y="0px" width="1500px"
	 height="800px" viewBox="0 0 1500 800" enable-background="new 0 0 1500 800" xml:space="preserve">
<g id="Layer_1">
</g>
<g id="Layer_3">
</g>
<g id="Layer_2">
	<g>
		<path fill="#4E9D2D" d="M389.35,309.47c14.53,0,26.35-11.82,26.35-26.35c0-14.53-11.82-26.35-26.35-26.35
			c-14.53,0-26.35,11.82-26.35,26.35C363,297.65,374.82,309.47,389.35,309.47z M389.35,263.6c10.77,0,19.52,8.76,19.52,19.52
			c0,10.76-8.76,19.52-19.52,19.52c-10.77,0-19.52-8.76-19.52-19.52C369.83,272.36,378.58,263.6,389.35,263.6z"/>
		<circle fill="#4E9D2D" cx="389.35" cy="283.12" r="13.64"/>
		<path fill="#4E9D2D" d="M390.43,510.87c-12.84,0-23.55,9.24-25.87,21.42c-22.5-5.19-44.09-17.66-62.45-36.39
			c-16.99-17.33-29.29-38.54-35-59.28c10.94-3.2,18.96-13.31,18.96-25.27c0-11.77-7.77-21.77-18.44-25.14
			c8.12-28.01,27.89-59.99,54.06-78.13l-4.3,24.59l6.34,1.1l6.65-38.08l-38.46-3.87l-0.65,6.41l25.17,2.53
			c-28.09,19.58-49.24,54.15-57.76,84.29c-14.05,0.55-25.31,12.12-25.31,26.3c0,13.94,10.89,25.36,24.6,26.26
			c5.86,22.66,19,45.53,37.7,64.61c20.1,20.51,43.92,33.99,68.79,39.29c2.05,12.5,12.9,22.08,25.97,22.08
			c14.53,0,26.35-11.82,26.35-26.35C416.77,522.69,404.96,510.87,390.43,510.87z M279.24,411.33c0,8.74-5.81,16.07-13.75,18.55
			c-0.4-1.95-0.74-3.88-1.02-5.81c5.18-1.94,8.88-6.88,8.88-12.74c0-5.76-3.59-10.66-8.64-12.66c0.32-1.89,0.72-3.81,1.16-5.76
			C273.61,395.5,279.24,402.73,279.24,411.33z M240.19,411.33c0-9.8,7.29-17.85,16.7-19.23c-0.47,2.12-0.88,4.21-1.21,6.27
			c-5.55,1.73-9.61,6.85-9.61,12.97c0,6,3.9,11.04,9.29,12.86c0.27,2.1,0.61,4.21,1.02,6.32
			C247.21,428.92,240.19,420.95,240.19,411.33z M390.43,556.74c-8.82,0-16.2-5.91-18.61-13.95c2.2,0.32,4.4,0.58,6.61,0.77
			c2.29,4.32,6.78,7.29,12,7.29c7.53,0,13.64-6.1,13.64-13.63c0-7.54-6.11-13.64-13.64-13.64c-6.57,0-12.05,4.65-13.34,10.84
			c-1.94-0.21-3.88-0.48-5.81-0.79c1.7-9.05,9.63-15.92,19.16-15.92c10.76,0,19.52,8.76,19.52,19.52
			C409.94,547.98,401.19,556.74,390.43,556.74z"/>
	</g>
	<g>
		<path fill="#4E9D2D" d="M548.37,456.59h-18.69c-0.1-0.94-0.15-1.63-0.15-2.07c-0.44-5.66-1.7-9.22-3.77-10.68
			c-2.07-1.45-6.95-2.18-14.63-2.18c-9.06,0-14.99,0.84-17.77,2.51c-2.79,1.67-4.18,5.2-4.18,10.56c0,6.35,1.14,10.17,3.4,11.45
			c2.27,1.28,9.75,2.27,22.46,2.96c15.02,0.84,24.73,2.98,29.14,6.43c4.41,3.45,6.61,10.61,6.61,21.49c0,13.4-2.59,22.05-7.76,25.96
			c-5.17,3.92-16.57,5.88-34.2,5.88c-15.86,0-26.38-1.92-31.58-5.76c-5.2-3.84-7.79-11.62-7.79-23.34l-0.07-3.69h18.62l0.07,2.14
			c0,7.04,1.23,11.35,3.7,12.93c2.46,1.58,9.19,2.36,20.17,2.36c8.57,0,14.03-0.91,16.39-2.73c2.37-1.82,3.55-6.03,3.55-12.63
			c0-4.88-0.9-8.11-2.69-9.71c-1.8-1.6-5.68-2.57-11.63-2.92L507,484.88c-15.96-0.93-26.15-3.15-30.58-6.65
			c-4.43-3.5-6.65-11.01-6.65-22.53c0-11.77,2.68-19.61,8.02-23.53c5.35-3.91,16.02-5.87,32.03-5.87c15.17,0,25.38,1.8,30.65,5.39
			c5.27,3.6,7.91,10.61,7.91,21.05V456.59z"/>
		<path fill="#4E9D2D" d="M626.3,457.4v70.62h-16.92l0.96-12.11l-0.3-0.07c-3.3,8.66-10.88,12.99-22.76,12.99c-16,0-24-8-24-24
			V457.4h16.92v43.36c0,6.01,0.84,9.96,2.51,11.86c1.67,1.9,5.14,2.85,10.41,2.85c10.84,0,16.25-6.5,16.25-19.5V457.4H626.3z"/>
		<path fill="#4E9D2D" d="M702.38,476.83h-16.54c-0.1-0.59-0.18-1.03-0.22-1.33c-0.35-3.4-1.32-5.51-2.92-6.35
			c-1.6-0.84-5.48-1.26-11.63-1.26c-8.82,0-13.23,2.86-13.23,8.57c0,3.89,0.78,6.2,2.33,6.94c1.55,0.74,6.8,1.33,15.77,1.77
			c12.06,0.59,19.92,2.19,23.56,4.8c3.64,2.61,5.46,7.95,5.46,16.03c0,8.62-2.43,14.58-7.28,17.91c-4.85,3.33-13.55,4.99-26.11,4.99
			c-12.07,0-20.32-1.51-24.75-4.51c-4.43-3.01-6.65-8.62-6.65-16.85v-1.77h17.58c-0.25,0.99-0.4,1.77-0.44,2.36
			c-0.69,6.25,4.14,9.38,14.48,9.38c10.68,0,16.03-3.1,16.03-9.31c0-5.96-3.35-8.94-10.04-8.94c-15.12,0-25.08-1.42-29.88-4.28
			c-4.8-2.85-7.2-8.79-7.2-17.8c0-8.08,2.19-13.54,6.57-16.4c4.38-2.86,12.8-4.28,25.26-4.28c11.76,0,19.68,1.38,23.75,4.14
			C700.35,463.41,702.38,468.8,702.38,476.83z"/>
		<path fill="#4E9D2D" d="M763.84,457.4v12.85h-27.19v35.46c0,6.55,2.49,9.82,7.46,9.82c5.47,0,8.2-3.96,8.2-11.89v-2.81h14.4v3.55
			c0,3.25-0.1,6.03-0.3,8.34c-0.93,10.79-8.96,16.18-24.07,16.18c-15.07,0-22.61-6.92-22.61-20.76v-37.9h-9.16V457.4h9.16v-15.81
			h16.91v15.81H763.84z"/>
		<path fill="#4E9D2D" d="M821.52,505.42h16.99v2.73c0,13.79-10.34,20.68-31.02,20.68c-14.03,0-23.22-2.38-27.55-7.16
			c-4.34-4.78-6.5-14.89-6.5-30.36c0-13.74,2.26-22.97,6.79-27.7c4.53-4.73,13.38-7.09,26.52-7.09c12.61,0,21.05,2.3,25.34,6.91
			c4.28,4.6,6.43,13.65,6.43,27.15v5.17h-47.79c-0.1,1.58-0.14,2.61-0.14,3.1c0,6.94,1.07,11.57,3.22,13.89
			c2.14,2.32,6.41,3.48,12.81,3.48c6.21,0,10.24-0.68,12.12-2.03C820.58,512.81,821.52,509.9,821.52,505.42z M821.67,485.4
			l-0.08-2.81c0-5.61-0.97-9.26-2.92-10.93c-1.94-1.67-6.16-2.51-12.67-2.51c-6.3,0-10.4,1.01-12.3,3.03
			c-1.89,2.02-2.84,6.43-2.84,13.22H821.67z"/>
		<path fill="#4E9D2D" d="M852.62,457.4h16.77l-0.66,11.89l0.37,0.08c3.3-8.52,10.68-12.78,22.16-12.78
			c16.69,0,25.04,7.78,25.04,23.34v48.09h-16.91v-42.55v-2.66l-0.37-4.95c-0.79-5.27-4.93-7.9-12.41-7.9
			c-11.38,0-17.07,5.39-17.07,16.18v41.88h-16.91V457.4z"/>
		<path fill="#4E9D2D" d="M978.42,457.4v12.85h-27.18v35.46c0,6.55,2.49,9.82,7.46,9.82c5.46,0,8.2-3.96,8.2-11.89v-2.81h14.4v3.55
			c0,3.25-0.1,6.03-0.29,8.34c-0.94,10.79-8.97,16.18-24.09,16.18c-15.07,0-22.6-6.92-22.6-20.76v-37.9h-9.16V457.4h9.16v-15.81
			h16.91v15.81H978.42z"/>
		<path fill="#4E9D2D" d="M1008.18,477.86H990.9c0-8.47,1.97-14.13,5.91-16.99c3.94-2.85,11.74-4.29,23.42-4.29
			c12.7,0,21.3,1.75,25.78,5.24c4.48,3.5,6.72,10.17,6.72,20.02v46.17h-16.92l0.81-9.68l-0.44-0.07
			c-3.25,7.04-10.76,10.56-22.53,10.56c-17.09,0-25.63-7.26-25.63-21.78c0-14.68,8.75-22.02,26.23-22.02
			c11.67,0,18.76,2.69,21.27,8.05h0.29v-11.45c0-5.52-0.96-9.17-2.88-10.97c-1.92-1.8-5.86-2.7-11.82-2.7
			C1012.5,467.96,1008.18,471.26,1008.18,477.86z M1019.49,496.4c-9.55,0-14.33,3.3-14.33,9.9c0,4.58,0.99,7.59,2.95,9.01
			c1.97,1.43,6.11,2.14,12.41,2.14c10.29,0,15.44-3.47,15.44-10.41C1035.96,499.95,1030.47,496.4,1019.49,496.4z"/>
		<path fill="#4E9D2D" d="M1069.57,528.02V427.19h16.91v40.33l0.37,0.15c2.9-7.44,10.27-11.15,22.09-11.15
			c10.15,0,17.1,2.47,20.87,7.42c3.77,4.95,5.65,14.12,5.65,27.52c0,14.63-1.91,24.51-5.72,29.66c-3.82,5.15-11.14,7.72-21.98,7.72
			c-10.98,0-18.2-3.99-21.64-11.96h-0.37l0.74,11.15H1069.57z M1103.18,469.89c-10.98,0-16.47,6.82-16.47,20.46
			c0,10.68,0.93,17.54,2.8,20.57c1.88,3.03,6.11,4.54,12.71,4.54c6.89,0,11.3-1.39,13.22-4.17c1.92-2.78,2.88-9.15,2.88-19.09
			c0-9.26-0.95-15.29-2.84-18.1C1113.58,471.29,1109.48,469.89,1103.18,469.89z"/>
		<path fill="#4E9D2D" d="M1166.49,427.19v100.83h-16.92V427.19H1166.49z"/>
		<path fill="#4E9D2D" d="M1228.61,505.42h16.99v2.73c0,13.79-10.34,20.68-31.02,20.68c-14.04,0-23.22-2.38-27.56-7.16
			c-4.33-4.78-6.5-14.89-6.5-30.36c0-13.74,2.26-22.97,6.8-27.7c4.53-4.73,13.37-7.09,26.52-7.09c12.61,0,21.05,2.3,25.34,6.91
			c4.29,4.6,6.43,13.65,6.43,27.15v5.17h-47.79c-0.1,1.58-0.15,2.61-0.15,3.1c0,6.94,1.07,11.57,3.22,13.89
			c2.14,2.32,6.42,3.48,12.82,3.48c6.2,0,10.24-0.68,12.11-2.03C1227.67,512.81,1228.61,509.9,1228.61,505.42z M1228.76,485.4
			l-0.08-2.81c0-5.61-0.97-9.26-2.92-10.93c-1.95-1.67-6.17-2.51-12.67-2.51c-6.3,0-10.41,1.01-12.3,3.03
			c-1.9,2.02-2.84,6.43-2.84,13.22H1228.76z"/>
	</g>
	<path fill="#2E2A26" d="M508.34,302.76v90.27h-11.38v-90.27h-27.62V292.2h76.82v10.56H508.34z"/>
	<path fill="#2E2A26" d="M545.09,322.41v70.62h-10.35v-70.62H545.09z"/>
	<path fill="#2E2A26" d="M581.81,322.41v77.12v3.03c0,11.67-4.85,17.51-14.55,17.51c-1.43,0-3.08-0.17-4.95-0.52v-7.31
		c0.59-0.1,0.99-0.15,1.19-0.15l1.33-0.07l4.28-1.4c1.58-1.33,2.36-5.02,2.36-11.08v-77.12H581.81z M581.81,292.2v11.6h-10.34v-11.6
		H581.81z"/>
	<path fill="#2E2A26" d="M657.9,322.41v70.62h-10.34l0.74-9.23l-0.22-0.22c-3.6,6.99-11.28,10.49-23.05,10.49
		c-16.5,0-24.75-8.22-24.75-24.67v-46.98h10.35v46.98c0,6.4,1.06,10.68,3.17,12.85c2.12,2.17,6.28,3.25,12.49,3.25
		c8.12,0,13.71-1.61,16.73-4.84c3.03-3.23,4.54-9.15,4.54-17.76v-40.48H657.9z"/>
	<path fill="#2E2A26" d="M687.81,342.21h-10.27c0-8.22,1.86-13.75,5.58-16.58c3.71-2.83,10.99-4.25,21.83-4.25
		c11.77,0,19.72,1.74,23.86,5.21c4.14,3.47,6.2,10.08,6.2,19.83v46.61h-10.34l0.81-7.61l-0.22-0.07c-3.94,5.81-11.94,8.72-24,8.72
		c-17.83,0-26.74-7.17-26.74-21.5c0-8.52,1.99-14.4,5.98-17.65c3.99-3.25,11.2-4.88,21.64-4.88c12.41,0,19.85,2.44,22.31,7.32
		l0.22-0.07v-8.57c0-8.07-1.11-13.31-3.32-15.7c-2.22-2.39-7.07-3.58-14.56-3.58c-12.71,0-19.05,3.57-19.05,10.71
		C687.75,340.49,687.76,341.18,687.81,342.21z M704.44,358.09c-7.93,0-13.09,0.84-15.48,2.51c-2.39,1.67-3.58,5.27-3.58,10.78
		c0,5.72,1.18,9.49,3.55,11.34c2.36,1.85,7.16,2.77,14.4,2.77c14.58,0,21.87-4.43,21.87-13.3c0-5.56-1.42-9.31-4.25-11.23
		C718.11,359.05,712.61,358.09,704.44,358.09z"/>
	<path fill="#2E2A26" d="M754.14,322.41h9.98l-0.3,9.6l0.3,0.22c3.15-7.24,10.98-10.86,23.48-10.86c10.09,0,16.93,1.77,20.49,5.32
		c3.57,3.54,5.36,10.34,5.36,20.39v45.95h-10.34v-45.06v-2.66c0-6.06-1.16-10.13-3.48-12.23c-2.31-2.09-6.76-3.14-13.37-3.14
		c-14.53,0-21.78,6.87-21.78,20.61v42.48h-10.35V322.41z"/>
	<path fill="#2E2A26" d="M842.93,342.21h-10.26c0-8.22,1.85-13.75,5.57-16.58c3.72-2.83,11-4.25,21.83-4.25
		c11.77,0,19.73,1.74,23.86,5.21c4.14,3.47,6.21,10.08,6.21,19.83v46.61h-10.34l0.81-7.61l-0.22-0.07
		c-3.94,5.81-11.94,8.72-24.01,8.72c-17.83,0-26.73-7.17-26.73-21.5c0-8.52,1.99-14.4,5.98-17.65c3.99-3.25,11.2-4.88,21.64-4.88
		c12.42,0,19.84,2.44,22.32,7.32l0.22-0.07v-8.57c0-8.07-1.11-13.31-3.33-15.7c-2.21-2.39-7.07-3.58-14.56-3.58
		c-12.71,0-19.05,3.57-19.05,10.71C842.86,340.49,842.88,341.18,842.93,342.21z M859.55,358.09c-7.93,0-13.09,0.84-15.48,2.51
		c-2.39,1.67-3.58,5.27-3.58,10.78c0,5.72,1.18,9.49,3.54,11.34c2.37,1.85,7.17,2.77,14.4,2.77c14.58,0,21.87-4.43,21.87-13.3
		c0-5.56-1.42-9.31-4.25-11.23C873.23,359.05,867.72,358.09,859.55,358.09z"/>
	<rect y="777.49" fill="#4E9D2D" width="1500" height="22.51"/>
</g>
</svg>
