<?xml version="1.0" encoding="utf-8"?>
<!-- Generator: Adobe Illustrator 16.0.0, SVG Export Plug-In . SVG Version: 6.00 Build 0)  -->
<!DOCTYPE svg PUBLIC "-//W3C//DTD SVG 1.1//EN" "http://www.w3.org/Graphics/SVG/1.1/DTD/svg11.dtd">
<svg version="1.1" xmlns="http://www.w3.org/2000/svg" xmlns:xlink="http://www.w3.org/1999/xlink" x="0px" y="0px" width="1500px"
	 height="800px" viewBox="0 0 1500 800" enable-background="new 0 0 1500 800" xml:space="preserve">
<g id="Layer_1">
</g>
<g id="Layer_3">
</g>
<g id="Layer_2">
	<g>
		<path fill="#EB2E3E" d="M502.78,422.06V312.32h54.1c13.46,0,22.73,2.33,27.82,6.99c5.09,4.66,7.64,13.1,7.64,25.33
			c0,11.09-1.28,18.68-3.82,22.75c-2.55,4.07-7.76,6.89-15.64,8.44v0.73c12.17,0.75,18.25,7.85,18.25,21.31v24.2H570.3v-20.02
			c0-11.31-5.57-16.96-16.72-16.96h-29.99v36.98H502.78z M523.59,367.56h29.91c7.12,0,11.86-1.27,14.19-3.82
			c2.33-2.55,3.5-7.65,3.5-15.32c0-7.82-1-12.88-3.01-15.16c-2.01-2.28-6.42-3.42-13.23-3.42h-31.36V367.56z"/>
		<path fill="#EB2E3E" d="M657.86,397.46h18.5v2.97c0,15.01-11.25,22.51-33.77,22.51c-15.28,0-25.28-2.6-29.99-7.8
			c-4.72-5.2-7.07-16.21-7.07-33.04c0-14.95,2.46-25,7.4-30.15c4.93-5.14,14.55-7.72,28.86-7.72c13.72,0,22.91,2.51,27.58,7.52
			c4.66,5.01,7,14.86,7,29.55v5.63h-52.02c-0.11,1.71-0.16,2.84-0.16,3.37c0,7.56,1.16,12.6,3.5,15.12
			c2.33,2.52,6.98,3.78,13.94,3.78c6.75,0,11.15-0.74,13.19-2.21C656.84,405.52,657.86,402.34,657.86,397.46z M658.02,375.67
			l-0.09-3.05c0-6.11-1.06-10.07-3.18-11.9c-2.11-1.82-6.71-2.73-13.78-2.73c-6.86,0-11.32,1.1-13.39,3.29
			c-2.06,2.2-3.09,7-3.09,14.39H658.02z"/>
		<path fill="#EB2E3E" d="M760.13,312.32v109.74H742.2l0.64-12.38l-0.32-0.08c-3.59,8.95-11.42,13.42-23.48,13.42
			c-12.17,0-20.22-2.77-24.16-8.32c-3.94-5.54-5.91-16.82-5.91-33.81c0-13.72,2.12-23.25,6.35-28.58c4.23-5.33,11.77-8,22.59-8
			c12.54,0,20.37,3.97,23.48,11.9l0.32-0.08v-43.81H760.13z M724.03,358.87c-6.86,0-11.31,1.46-13.35,4.38
			c-2.03,2.92-3.05,9.21-3.05,18.85c0,11.15,1.02,18.33,3.05,21.55c2.04,3.22,6.6,4.82,13.67,4.82c7.4,0,12.13-1.58,14.19-4.74
			c2.06-3.16,3.1-10.45,3.1-21.87c0-9.43-1.14-15.63-3.42-18.57C735.94,360.35,731.21,358.87,724.03,358.87z"/>
		<path fill="#2E2A26" d="M847.03,323.82v98.25h-12.38v-98.25h-30.05v-11.5h83.6v11.5H847.03z"/>
		<path fill="#2E2A26" d="M887.02,345.2v76.86h-11.26V345.2H887.02z"/>
		<path fill="#2E2A26" d="M926.99,345.2v83.94v3.3c0,12.7-5.28,19.05-15.84,19.05c-1.55,0-3.35-0.19-5.39-0.56v-7.96
			c0.65-0.11,1.07-0.16,1.29-0.16l1.45-0.08l4.66-1.53c1.72-1.45,2.58-5.46,2.58-12.06V345.2H926.99z M926.99,312.32v12.62h-11.25
			v-12.62H926.99z"/>
		<path fill="#2E2A26" d="M1009.8,345.2v76.86h-11.26l0.8-10.05l-0.24-0.24c-3.92,7.61-12.28,11.42-25.09,11.42
			c-17.96,0-26.93-8.95-26.93-26.85V345.2h11.26v51.13c0,6.97,1.15,11.63,3.45,13.99c2.31,2.36,6.84,3.54,13.58,3.54
			c8.84,0,14.92-1.75,18.22-5.26c3.3-3.51,4.94-9.96,4.94-19.34V345.2H1009.8z"/>
		<path fill="#2E2A26" d="M1042.36,366.75h-11.17c0-8.95,2.02-14.97,6.07-18.05c4.05-3.08,11.97-4.62,23.75-4.62
			c12.82,0,21.48,1.89,25.97,5.67c4.51,3.78,6.75,10.98,6.75,21.59v50.73h-11.25l0.88-8.28l-0.24-0.08
			c-4.29,6.32-12.99,9.49-26.13,9.49c-19.4,0-29.1-7.8-29.1-23.4c0-9.27,2.16-15.68,6.51-19.22c4.34-3.54,12.19-5.31,23.56-5.31
			c13.51,0,21.59,2.65,24.28,7.96l0.24-0.08v-9.33c0-8.79-1.21-14.48-3.62-17.09c-2.41-2.6-7.69-3.9-15.84-3.9
			c-13.82,0-20.74,3.89-20.74,11.66C1042.28,364.87,1042.3,365.63,1042.36,366.75z M1060.45,384.04c-8.63,0-14.25,0.91-16.85,2.73
			c-2.6,1.82-3.89,5.74-3.89,11.74c0,6.22,1.28,10.33,3.85,12.34c2.58,2.01,7.8,3.01,15.68,3.01c15.86,0,23.8-4.82,23.8-14.47
			c0-6.06-1.54-10.13-4.62-12.22C1075.33,385.08,1069.34,384.04,1060.45,384.04z"/>
		<path fill="#2E2A26" d="M1114.55,345.2h10.86l-0.32,10.45l0.32,0.24c3.42-7.88,11.95-11.82,25.56-11.82
			c10.99,0,18.42,1.93,22.31,5.79c3.89,3.86,5.83,11.25,5.83,22.19v50.01h-11.26v-49.04v-2.89c0-6.59-1.26-11.03-3.77-13.31
			c-2.52-2.28-7.37-3.42-14.55-3.42c-15.81,0-23.72,7.48-23.72,22.43v46.23h-11.26V345.2z"/>
		<path fill="#2E2A26" d="M1211.19,366.75h-11.17c0-8.95,2.02-14.97,6.07-18.05c4.05-3.08,11.97-4.62,23.76-4.62
			c12.81,0,21.47,1.89,25.97,5.67c4.5,3.78,6.75,10.98,6.75,21.59v50.73h-11.25l0.89-8.28l-0.25-0.08
			c-4.29,6.32-12.99,9.49-26.13,9.49c-19.4,0-29.1-7.8-29.1-23.4c0-9.27,2.17-15.68,6.51-19.22c4.34-3.54,12.19-5.31,23.56-5.31
			c13.51,0,21.59,2.65,24.28,7.96l0.24-0.08v-9.33c0-8.79-1.21-14.48-3.62-17.09c-2.41-2.6-7.69-3.9-15.84-3.9
			c-13.83,0-20.74,3.89-20.74,11.66C1211.11,364.87,1211.14,365.63,1211.19,366.75z M1229.29,384.04c-8.63,0-14.25,0.91-16.85,2.73
			c-2.6,1.82-3.9,5.74-3.9,11.74c0,6.22,1.29,10.33,3.86,12.34c2.58,2.01,7.8,3.01,15.67,3.01c15.86,0,23.8-4.82,23.8-14.47
			c0-6.06-1.54-10.13-4.63-12.22C1244.17,385.08,1238.18,384.04,1229.29,384.04z"/>
		<path fill="#EB2E3E" d="M423.54,388.93c-10.73,0-20,6.29-24.4,15.36l-61.2-17.74l72.12-87.71c3.98,2.29,8.57,3.63,13.48,3.63
			c14.96,0,27.14-12.17,27.14-27.13c0-14.96-12.18-27.12-27.14-27.12c-14.95,0-27.12,12.17-27.12,27.12c0,2.86,0.45,5.62,1.28,8.21
			l-20.67,10.61l-44.67,22.57l-44.78,22.35l-20.69,10.3c-4.84-7.48-13.23-12.45-22.78-12.45c-14.96,0-27.12,12.17-27.12,27.12
			c0,14.96,12.17,27.13,27.12,27.13c10.73,0,20.01-6.29,24.4-15.36l56.02,16.23l-64.06,80.17c-4.27-2.81-9.38-4.46-14.87-4.46
			c-14.96,0-27.12,12.16-27.12,27.12c0,14.95,12.17,27.12,27.12,27.12c14.95,0,27.13-12.16,27.13-27.12
			c0-7.52-3.08-14.33-8.04-19.25l67.01-81.51l64.9,18.81c-0.12,1.03-0.19,2.06-0.19,3.11c0,14.96,12.17,27.13,27.12,27.13
			c14.96,0,27.13-12.17,27.13-27.13C450.67,401.09,438.49,388.93,423.54,388.93z M265.7,494.88c0,11.08-9.01,20.09-20.1,20.09
			c-11.08,0-20.09-9.01-20.09-20.09c0-11.08,9.01-20.09,20.09-20.09c3.83,0,7.37,1.13,10.42,3l-3.82,4.78
			c-1.97-1.06-4.2-1.72-6.6-1.72c-7.75,0-14.04,6.28-14.04,14.04c0,7.76,6.29,14.03,14.04,14.03c7.76,0,14.04-6.28,14.04-14.03
			c0-3.45-1.29-6.57-3.36-9.02l3.9-4.74C263.58,484.73,265.7,489.55,265.7,494.88z M403.45,275.34c0-11.08,9.01-20.09,20.09-20.09
			c11.09,0,20.11,9.01,20.11,20.09c0,11.08-9.02,20.1-20.11,20.1c-3.21,0-6.2-0.83-8.9-2.17l3.96-4.82
			c1.54,0.58,3.19,0.94,4.93,0.94c7.76,0,14.05-6.29,14.05-14.04c0-7.75-6.29-14.04-14.05-14.04c-7.75,0-14.04,6.28-14.04,14.04
			c0,0.7,0.11,1.37,0.21,2.04l-5.58,2.87C403.73,278.66,403.45,277.04,403.45,275.34z M258.08,363.41
			c-0.04-0.93-0.17-1.84-0.38-2.71l5.47-2.69c0.61,1.92,1.03,3.92,1.03,6.04c0,0.38-0.09,0.73-0.11,1.1L258.08,363.41z
			 M244.1,384.14c-11.08,0-20.09-9.02-20.09-20.1c0-11.08,9.01-20.1,20.09-20.1c6.79,0,12.79,3.41,16.43,8.59l-5.53,2.75
			c-2.57-3.2-6.47-5.28-10.9-5.28c-7.75,0-14.04,6.28-14.04,14.04s6.29,14.04,14.04,14.04c4.77,0,8.96-2.39,11.5-6.02l5.96,1.73
			C258.12,379.94,251.63,384.14,244.1,384.14z M271.04,367.16c0.12-1.03,0.19-2.06,0.19-3.12c0-3.23-0.6-6.32-1.64-9.19l20.75-10.18
			l44.95-22.01l45.05-21.79l21-9.99c0.62,0.88,1.29,1.71,2.01,2.51l-72.74,91.04L271.04,367.16z M423.54,436.15
			c-11.08,0-20.09-9.02-20.09-20.1c0-0.38,0.09-0.73,0.11-1.1l6,1.74c0.34,7.45,6.44,13.4,13.97,13.4c7.76,0,14.05-6.29,14.05-14.04
			c0-7.75-6.29-14.04-14.05-14.04c-4.76,0-8.96,2.39-11.5,6.02l-5.96-1.73c3.44-6.14,9.93-10.34,17.46-10.34
			c11.09,0,20.1,9.01,20.1,20.09C443.64,427.13,434.62,436.15,423.54,436.15z"/>
	</g>
	<rect y="773.39" fill="#EB2E3E" width="1500" height="24.87"/>
</g>
</svg>
