<?xml version="1.0" encoding="utf-8"?>
<!-- Generator: Adobe Illustrator 16.0.0, SVG Export Plug-In . SVG Version: 6.00 Build 0)  -->
<!DOCTYPE svg PUBLIC "-//W3C//DTD SVG 1.1//EN" "http://www.w3.org/Graphics/SVG/1.1/DTD/svg11.dtd">
<svg version="1.1" xmlns="http://www.w3.org/2000/svg" xmlns:xlink="http://www.w3.org/1999/xlink" x="0px" y="0px" width="1500px"
	 height="800px" viewBox="0 0 1500 800" enable-background="new 0 0 1500 800" xml:space="preserve">
<g id="Layer_1">
</g>
<g id="Layer_3">
</g>
<g id="Layer_2">
	<g>
		<path fill="#0082CA" d="M659.94,471.01h-18.05c-0.09-0.9-0.14-1.57-0.14-1.99c-0.43-5.47-1.65-8.91-3.64-10.31
			c-2-1.4-6.71-2.11-14.12-2.11c-8.75,0-14.47,0.81-17.15,2.43c-2.69,1.61-4.03,5.02-4.03,10.2c0,6.13,1.09,9.82,3.28,11.06
			c2.19,1.24,9.42,2.19,21.69,2.85c14.5,0.81,23.88,2.88,28.14,6.2c4.25,3.33,6.38,10.25,6.38,20.76c0,12.94-2.49,21.3-7.49,25.07
			c-4.99,3.78-16,5.67-33.02,5.67c-15.31,0-25.48-1.85-30.5-5.57c-5.01-3.7-7.52-11.21-7.52-22.53l-0.07-3.57h17.98l0.07,2.07
			c0,6.8,1.19,10.96,3.56,12.48c2.38,1.52,8.87,2.28,19.48,2.28c8.27,0,13.55-0.88,15.83-2.64c2.28-1.75,3.42-5.82,3.42-12.19
			c0-4.71-0.87-7.83-2.61-9.38c-1.73-1.54-5.48-2.48-11.23-2.82l-10.2-0.64c-15.41-0.91-25.25-3.04-29.53-6.42
			c-4.28-3.38-6.42-10.63-6.42-21.76c0-11.36,2.58-18.94,7.74-22.72c5.17-3.78,15.47-5.67,30.92-5.67c14.65,0,24.52,1.74,29.6,5.2
			c5.09,3.48,7.64,10.25,7.64,20.34V471.01z"/>
		<path fill="#0082CA" d="M691.61,491.56h-16.68c0-8.18,1.9-13.65,5.7-16.41c3.8-2.75,11.35-4.14,22.61-4.14
			c12.27,0,20.57,1.69,24.89,5.07c4.33,3.38,6.5,9.83,6.5,19.34V540h-16.33l0.78-9.35l-0.43-0.07c-3.14,6.8-10.39,10.19-21.76,10.19
			c-16.5,0-24.75-7.01-24.75-21.04c0-14.17,8.44-21.26,25.32-21.26c11.27,0,18.12,2.6,20.55,7.78h0.28V495.2
			c0-5.33-0.93-8.86-2.78-10.59c-1.86-1.74-5.66-2.61-11.41-2.61C695.78,482,691.61,485.19,691.61,491.56z M702.52,509.47
			c-9.22,0-13.83,3.18-13.83,9.56c0,4.42,0.95,7.32,2.85,8.7c1.9,1.38,5.9,2.07,11.99,2.07c9.94,0,14.91-3.36,14.91-10.06
			C718.43,512.89,713.13,509.47,702.52,509.47z"/>
		<path fill="#0082CA" d="M767.22,442.63V540h-16.34v-97.37H767.22z"/>
		<path fill="#0082CA" d="M843.83,471.8V540H827.5l0.93-11.69l-0.29-0.07c-3.19,8.37-10.51,12.55-21.97,12.55
			c-15.45,0-23.17-7.73-23.17-23.18V471.8h16.33v41.87c0,5.8,0.81,9.62,2.43,11.45c1.61,1.83,4.96,2.74,10.05,2.74
			c10.47,0,15.7-6.28,15.7-18.83V471.8H843.83z"/>
		<path fill="#0082CA" d="M921.09,442.63V540h-15.91l0.57-10.98l-0.28-0.08c-3.18,7.94-10.13,11.91-20.83,11.91
			c-10.79,0-17.94-2.46-21.43-7.39c-3.5-4.92-5.25-14.91-5.25-29.99c0-12.17,1.88-20.63,5.64-25.36c3.76-4.73,10.44-7.1,20.04-7.1
			c11.13,0,18.07,3.52,20.83,10.56l0.28-0.07v-38.88H921.09z M889.06,483.93c-6.09,0-10.04,1.29-11.84,3.88
			c-1.81,2.6-2.71,8.17-2.71,16.73c0,9.89,0.9,16.27,2.71,19.12c1.8,2.85,5.85,4.27,12.13,4.27c6.56,0,10.75-1.4,12.59-4.21
			c1.83-2.8,2.75-9.27,2.75-19.4c0-8.37-1.01-13.86-3.03-16.48C899.62,485.24,895.43,483.93,889.06,483.93z"/>
		<path fill="#0082CA" d="M954.11,491.56h-16.69c0-8.18,1.9-13.65,5.71-16.41c3.8-2.75,11.34-4.14,22.61-4.14
			c12.27,0,20.57,1.69,24.89,5.07c4.32,3.38,6.49,9.83,6.49,19.34V540h-16.34l0.79-9.35l-0.42-0.07
			c-3.15,6.8-10.4,10.19-21.76,10.19c-16.5,0-24.75-7.01-24.75-21.04c0-14.17,8.44-21.26,25.32-21.26c11.26,0,18.12,2.6,20.54,7.78
			h0.28V495.2c0-5.33-0.93-8.86-2.78-10.59c-1.85-1.74-5.65-2.61-11.41-2.61C958.27,482,954.11,485.19,954.11,491.56z
			 M965.03,509.47c-9.23,0-13.85,3.18-13.85,9.56c0,4.42,0.96,7.32,2.86,8.7c1.9,1.38,5.9,2.07,11.99,2.07
			c9.93,0,14.91-3.36,14.91-10.06C980.94,512.89,975.63,509.47,965.03,509.47z"/>
		<path fill="#0082CA" d="M1013.39,540v-97.37h16.33v38.95l0.37,0.14c2.8-7.18,9.91-10.78,21.32-10.78c9.8,0,16.52,2.39,20.16,7.17
			c3.63,4.78,5.45,13.64,5.45,26.58c0,14.12-1.83,23.67-5.53,28.64c-3.69,4.97-10.76,7.45-21.22,7.45
			c-10.61,0-17.57-3.85-20.9-11.55h-0.36l0.71,10.77H1013.39z M1045.85,483.86c-10.6,0-15.91,6.59-15.91,19.76
			c0,10.32,0.91,16.94,2.71,19.87c1.8,2.92,5.89,4.38,12.27,4.38c6.66,0,10.92-1.34,12.77-4.02c1.86-2.69,2.79-8.83,2.79-18.44
			c0-8.94-0.92-14.77-2.75-17.48C1055.89,485.21,1051.94,483.86,1045.85,483.86z"/>
		<path fill="#0082CA" d="M1106.98,442.63V540h-16.34v-97.37H1106.98z"/>
		<path fill="#0082CA" d="M1166.96,518.17h16.41v2.64c0,13.32-9.98,19.97-29.96,19.97c-13.55,0-22.42-2.31-26.6-6.92
			c-4.19-4.61-6.27-14.38-6.27-29.32c0-13.27,2.18-22.18,6.56-26.75c4.37-4.56,12.91-6.85,25.61-6.85c12.17,0,20.32,2.23,24.46,6.68
			c4.14,4.45,6.2,13.18,6.2,26.21v5h-46.15c-0.09,1.52-0.14,2.52-0.14,2.99c0,6.71,1.03,11.18,3.1,13.42
			c2.07,2.23,6.2,3.35,12.37,3.35c5.99,0,9.89-0.65,11.7-1.96C1166.07,525.31,1166.96,522.49,1166.96,518.17z M1167.11,498.84
			l-0.07-2.71c0-5.42-0.94-8.95-2.82-10.56c-1.88-1.61-5.95-2.42-12.23-2.42c-6.09,0-10.05,0.97-11.88,2.93
			c-1.83,1.95-2.74,6.2-2.74,12.77H1167.11z"/>
	</g>
	<path fill="#2E2A26" d="M621.61,320.53v87.17h-10.98v-87.17h-26.68v-10.2h74.19v10.2H621.61z"/>
	<path fill="#2E2A26" d="M657.09,339.51v68.19h-9.99v-68.19H657.09z"/>
	<path fill="#2E2A26" d="M692.55,339.51v74.47v2.93c0,11.27-4.68,16.9-14.05,16.9c-1.38,0-2.98-0.17-4.78-0.5v-7.05
		c0.57-0.1,0.95-0.15,1.14-0.15l1.28-0.06l4.14-1.37c1.52-1.28,2.28-4.85,2.28-10.7v-74.47H692.55z M692.55,310.33v11.2h-9.98v-11.2
		H692.55z"/>
	<path fill="#2E2A26" d="M766.03,339.51v68.19h-9.98l0.71-8.92l-0.21-0.22c-3.47,6.76-10.89,10.13-22.26,10.13
		c-15.93,0-23.89-7.94-23.89-23.83v-45.37h9.98v45.37c0,6.18,1.03,10.32,3.07,12.41c2.05,2.09,6.06,3.13,12.06,3.13
		c7.85,0,13.23-1.56,16.16-4.67c2.93-3.11,4.39-8.83,4.39-17.15v-39.09H766.03z"/>
	<path fill="#2E2A26" d="M794.92,358.63H785c0-7.95,1.79-13.29,5.38-16.02c3.59-2.74,10.62-4.1,21.08-4.1
		c11.37,0,19.05,1.67,23.04,5.03c3.99,3.36,6,9.75,6,19.15v45.01h-9.98l0.78-7.35l-0.21-0.07c-3.81,5.61-11.53,8.42-23.19,8.42
		c-17.21,0-25.81-6.92-25.81-20.76c0-8.23,1.92-13.91,5.77-17.05c3.85-3.14,10.82-4.71,20.9-4.71c11.99,0,19.17,2.36,21.55,7.07
		l0.21-0.08v-8.27c0-7.8-1.08-12.85-3.22-15.17c-2.13-2.3-6.83-3.46-14.06-3.46c-12.27,0-18.4,3.46-18.4,10.35
		C794.84,356.96,794.86,357.63,794.92,358.63z M810.97,373.96c-7.66,0-12.64,0.81-14.95,2.42c-2.3,1.62-3.46,5.09-3.46,10.42
		c0,5.52,1.14,9.17,3.43,10.95c2.28,1.79,6.92,2.67,13.9,2.67c14.07,0,21.12-4.27,21.12-12.83c0-5.37-1.37-8.99-4.11-10.84
		S818.86,373.96,810.97,373.96z"/>
	<path fill="#2E2A26" d="M858.97,339.51h9.64l-0.29,9.27l0.29,0.21c3.04-6.99,10.6-10.49,22.69-10.49c9.74,0,16.35,1.71,19.79,5.14
		c3.44,3.42,5.17,9.98,5.17,19.69v44.37h-9.98v-43.51v-2.57c0-5.85-1.11-9.78-3.35-11.81c-2.23-2.02-6.54-3.03-12.91-3.03
		c-14.04,0-21.05,6.63-21.05,19.9v41.02h-9.99V339.51z"/>
	<path fill="#2E2A26" d="M944.73,358.63h-9.91c0-7.95,1.79-13.29,5.38-16.02c3.59-2.74,10.62-4.1,21.07-4.1
		c11.37,0,19.05,1.67,23.04,5.03c4,3.36,5.99,9.75,5.99,19.15v45.01h-9.98l0.78-7.35l-0.21-0.07c-3.81,5.61-11.54,8.42-23.19,8.42
		c-17.21,0-25.81-6.92-25.81-20.76c0-8.23,1.92-13.91,5.77-17.05c3.85-3.14,10.81-4.71,20.9-4.71c11.98,0,19.17,2.36,21.54,7.07
		l0.22-0.08v-8.27c0-7.8-1.07-12.85-3.21-15.17c-2.14-2.3-6.83-3.46-14.06-3.46c-12.26,0-18.4,3.46-18.4,10.35
		C944.66,356.96,944.68,357.63,944.73,358.63z M960.79,373.96c-7.66,0-12.65,0.81-14.95,2.42c-2.32,1.62-3.46,5.09-3.46,10.42
		c0,5.52,1.14,9.17,3.42,10.95c2.28,1.79,6.92,2.67,13.91,2.67c14.07,0,21.12-4.27,21.12-12.83c0-5.37-1.37-8.99-4.11-10.84
		C973.99,374.89,968.67,373.96,960.79,373.96z"/>
	<g>
		<path fill="#0082CA" d="M496.81,467.11c-14.71-9.3-37.3-5.81-63.91,3.61c-4.64-12.41-7.86-26.22-8.78-40.95l0.32-0.03l0.56-0.08
			l2.2-0.35c1.45-0.26,2.99-0.46,4.27-0.89c5.37-1.3,10.46-3.98,14.79-7.24c4.31-3.31,7.93-7.27,10.68-11.43
			c0.78-1.02,1.36-2.09,1.99-3.14c0.63-1.06,1.29-2.09,1.79-3.18c0.6-1.03,0.88-2.24,0.83-3.57c-0.09-1.34-0.26-2.66,0.1-3.73
			c3.37-8.35,5.14-16.63,6.5-24.42c1.35-7.81,1.96-15.19,2.48-21.98c0.42-6.24,0.63-11.96,0.77-17.11
			c15.09-0.33,27.27-12.69,27.27-27.87c0-15.37-12.52-27.89-27.89-27.89c-15.38,0-27.89,12.51-27.89,27.89
			c0,12.59,8.39,23.25,19.87,26.71c-0.15,5.26-0.43,11.16-1.06,17.53c-0.6,6.55-1.58,13.6-3.16,20.87
			c-0.42,1.81-0.79,3.65-1.33,5.47c-0.25,0.91-0.5,1.83-0.75,2.76c-0.29,0.91-0.57,1.81-0.86,2.73c-1.17,3.66-2.54,7.31-4.27,10.78
			c-0.5,0.84-1.52,1.43-2.5,2.01c-1.05,0.53-1.76,1.19-2.16,2.03c-0.43,0.83-0.97,1.56-1.48,2.32c-0.51,0.75-0.99,1.55-1.58,2.22
			c-2.15,2.91-4.71,5.29-7.46,7.17c-2.77,1.86-5.74,3.3-9.06,4c-0.83,0.3-1.53,0.29-2.26,0.43l-1.1,0.19l-0.28,0.06l-0.4,0.02
			l-0.83,0.04l-3.11,0.16l-0.14-0.01l-0.35-0.02l-0.71-0.04l-1.4-0.06c-1.91,0-3.68-0.37-5.52-0.57c-0.9-0.13-1.75-0.41-2.63-0.59
			l-1.31-0.3c-0.44-0.11-0.84-0.29-1.26-0.43c-0.83-0.29-1.68-0.54-2.5-0.86l-2.37-1.12c-0.82-0.32-1.52-0.86-2.29-1.28
			c-0.75-0.44-1.52-0.86-2.2-1.43c-0.7-0.54-1.43-1.04-2.12-1.59c-0.66-0.6-1.3-1.22-1.99-1.8c-0.74-0.51-1.58-0.99-2.7-1.26
			l-1.65-0.48c-0.55-0.17-0.99-0.45-1.43-0.73c-1.62-1.22-2.45-3.04-3.56-4.66c-0.56-0.81-1.02-1.68-1.5-2.55
			c-0.46-0.86-0.97-1.7-1.4-2.59c-0.82-1.79-1.72-3.52-2.42-5.36c-0.36-0.9-0.75-1.8-1.09-2.71c-0.32-0.92-0.64-1.83-0.96-2.74
			c-0.66-1.81-1.12-3.69-1.68-5.5c-0.47-1.84-0.94-3.67-1.36-5.47c-1.66-7.27-2.59-14.34-3.22-20.89
			c-0.53-5.32-0.75-10.3-0.89-14.86c13.64-2.05,24.22-15.25,24.22-29.38c0-15.38-12.51-27.89-27.89-27.89
			c-15.37,0-27.89,12.51-27.89,27.89c0,13.9,10.23,26.91,23.56,29.27c0.18,4.78,0.51,10.01,0.97,15.68
			c0.57,6.78,1.48,14.13,2.91,21.89c0.39,1.94,0.81,3.89,1.26,5.88c0.53,1.97,0.94,3.99,1.59,5.99c0.29,1,0.59,2.02,0.88,3.03
			c0.32,1.02,0.69,2.03,1.03,3.05c0.66,2.06,1.55,4.07,2.37,6.13c0.43,1.02,0.95,2.02,1.43,3.04c0.49,1.02,0.97,2.04,1.56,3.03
			c0.58,0.99,1.14,1.99,1.72,3c0.62,0.99,1.38,1.88,1.76,3.06c0.79,2.3,0.86,5.54,2.57,7.47c0.87,0.95,1.78,1.86,2.68,2.78
			c0.96,0.88,1.99,1.71,2.98,2.57c7.99,6.61,18.63,10.38,28.73,10.92c0.98,16.82,4.75,31.68,9.41,44.1
			c-12.28,4.73-25.28,10.52-38.66,16.73c-5.04-7.25-13.43-12.02-22.91-12.02c-15.38,0-27.89,12.51-27.89,27.89
			c0,15.37,12.52,27.88,27.89,27.88c15.37,0,27.89-12.52,27.89-27.88c0-2.62-0.39-5.15-1.07-7.55
			c13.12-6.09,26.06-11.84,38.22-16.53c4.43,9.98,9.21,17.94,12.99,23.53c15.19,22.43,33.9,36.36,48.84,36.36
			c7.06,0,23.47-3.49,23.47-35.75C513.13,487.23,507.64,473.96,496.81,467.11z M450.12,304.76c0-11.39,9.26-20.66,20.66-20.66
			c11.39,0,20.66,9.27,20.66,20.66c0,11.15-8.86,20.23-19.91,20.63c0.03-2.23,0.05-4.32,0.07-6.23c7.59-0.43,13.61-6.69,13.61-14.39
			c0-7.97-6.46-14.44-14.44-14.44c-7.98,0-14.44,6.46-14.44,14.44c0,5.05,2.59,9.49,6.52,12.06c0,0.08,0,0.15,0,0.22
			c0.01,2.05,0.03,4.33,0.02,6.81C455.4,320.74,450.12,313.36,450.12,304.76z M364.83,288.55c-7.97,0-14.43,6.46-14.43,14.44
			c0,6.29,4.03,11.62,9.65,13.61c0.05,1.97,0.08,4.15,0.14,6.5c-9.16-2.12-16.01-10.31-16.01-20.11c0-11.39,9.27-20.67,20.66-20.67
			c11.4,0,20.67,9.27,20.67,20.67c0,10.19-7.42,18.64-17.12,20.33c0-2.28,0.02-4.42,0.06-6.36c6.22-1.6,10.83-7.24,10.83-13.97
			C379.27,295.01,372.81,288.55,364.83,288.55z M362.78,527.15c-11.39,0-20.66-9.26-20.66-20.66c0-11.41,9.27-20.67,20.66-20.67
			c6.58,0,12.44,3.11,16.23,7.91c-1.94,0.91-3.88,1.82-5.83,2.74c-2.63-2.73-6.31-4.43-10.39-4.43c-7.97,0-14.43,6.47-14.43,14.44
			c0,7.97,6.46,14.43,14.43,14.43c7.97,0,14.43-6.46,14.43-14.43c0-0.57-0.04-1.14-0.1-1.7c1.95-0.92,3.9-1.84,5.84-2.75
			c0.32,1.44,0.49,2.92,0.49,4.45C383.44,517.88,374.17,527.15,362.78,527.15z M489.66,533.11c-14.51,0-38.6-21.15-53.26-53.86
			c23.73-8.37,43.78-11.78,55.49-4.36c8.09,5.13,12.04,15.48,12.04,31.67C503.93,516.47,502.08,533.11,489.66,533.11z"/>
	</g>
	<rect y="777.49" fill="#0082CA" width="1500" height="22.51"/>
</g>
</svg>
