<?xml version="1.0" encoding="utf-8"?>
<!-- Generator: Adobe Illustrator 16.0.0, SVG Export Plug-In . SVG Version: 6.00 Build 0)  -->
<!DOCTYPE svg PUBLIC "-//W3C//DTD SVG 1.1//EN" "http://www.w3.org/Graphics/SVG/1.1/DTD/svg11.dtd">
<svg version="1.1" id="Layer_1" xmlns="http://www.w3.org/2000/svg" xmlns:xlink="http://www.w3.org/1999/xlink" x="0px" y="0px"
	 width="1500px" height="800px" viewBox="0 0 1500 800" enable-background="new 0 0 1500 800" xml:space="preserve">
<path fill="#FFAE5F" d="M889.008,523.75c-7.899,0-15.356,1.858-22.046,5.076l-93.998-125.852l94.021-126.21
	c6.679,3.216,14.133,5.067,22.022,5.067c28.156,0,51.065-22.903,51.065-51.061c0-28.158-22.909-51.05-51.065-51.05
	c-28.151,0-51.043,22.892-51.043,51.05c0,11.881,4.104,22.799,10.939,31.484l-97.816,113.604l-98.157-113.658
	c6.803-8.668,10.899-19.564,10.899-31.419c0-28.158-22.901-51.061-51.048-51.061c-28.163,0-51.068,22.902-51.068,51.061
	c0,28.155,22.905,51.05,51.068,51.05c7.975,0,15.494-1.892,22.226-5.165l94.749,125.994l-94.81,126.23
	c-6.711-3.261-14.21-5.143-22.165-5.143c-28.163,0-51.068,22.904-51.068,51.077c0,28.128,22.905,51.027,51.068,51.027
	c28.147,0,51.048-22.899,51.048-51.027c0-11.868-4.096-22.764-10.899-31.436L751.6,429.328l97.419,113.84
	c-6.899,8.713-11.054,19.697-11.054,31.659c0,28.128,22.892,51.027,51.043,51.027c28.156,0,51.065-22.899,51.065-51.027
	C940.073,546.654,917.164,523.75,889.008,523.75z M851.196,230.771c0-20.847,16.966-37.817,37.812-37.817
	c20.855,0,37.82,16.97,37.82,37.817c0,20.856-16.965,37.83-37.82,37.83c-4.914,0-9.593-1.018-13.91-2.734l7.192-9.636
	c2.159,0.566,4.386,0.977,6.718,0.977c14.61,0,26.435-11.842,26.435-26.437c0-14.592-11.824-26.415-26.435-26.415
	c-14.602,0-26.436,11.823-26.436,26.415c0,4.375,1.176,8.439,3.045,12.074l-7.881,9.149
	C853.618,245.941,851.196,238.643,851.196,230.771z M612.782,268.602c-20.86,0-37.833-16.974-37.833-37.819
	c0-20.857,16.972-37.828,37.833-37.828c20.845,0,37.817,16.97,37.817,37.828c0,7.846-2.41,15.128-6.514,21.172l-7.898-9.142
	c1.857-3.628,3.008-7.676,3.008-12.03c0-14.603-11.812-26.426-26.413-26.426c-14.601,0-26.44,11.823-26.44,26.426
	c0,14.584,11.839,26.432,26.44,26.432c2.375,0,4.638-0.425,6.843-1.015l7.232,9.627
	C622.493,267.584,617.755,268.602,612.782,268.602z M650.6,574.827c0,20.834-16.972,37.811-37.817,37.811
	c-20.86,0-37.833-16.977-37.833-37.811c0-20.864,16.972-37.848,37.833-37.848c4.96,0,9.67,1.02,14.009,2.766l-7.229,9.63
	c-2.18-0.572-4.432-0.992-6.78-0.992c-14.601,0-26.44,11.823-26.44,26.444c0,14.575,11.839,26.411,26.44,26.411
	c14.602,0,26.413-11.836,26.413-26.411c0-4.385-1.15-8.44-3.026-12.065l7.917-9.139C648.189,559.672,650.6,566.97,650.6,574.827z
	 M889.008,612.638c-20.846,0-37.812-16.977-37.812-37.811c0-7.931,2.464-15.267,6.644-21.354l7.84,9.166
	c-1.914,3.673-3.107,7.768-3.107,12.188c0,14.575,11.834,26.411,26.436,26.411c14.61,0,26.435-11.836,26.435-26.411
	c0-14.621-11.824-26.444-26.435-26.444c-2.332,0-4.559,0.41-6.718,0.971l-7.192-9.634c4.317-1.73,8.996-2.74,13.91-2.74
	c20.855,0,37.82,16.983,37.82,37.848C926.828,595.661,909.863,612.638,889.008,612.638z"/>
<g>
	<path fill="#EE2A37" d="M914.261,409.736c-19.532,0-36.404,11.442-44.409,27.948L758.51,405.418l131.224-159.595
		c7.232,4.17,15.593,6.6,24.527,6.6c27.215,0,49.371-22.142,49.371-49.357c0-27.217-22.156-49.353-49.371-49.353
		c-27.202,0-49.348,22.136-49.348,49.353c0,5.201,0.819,10.215,2.323,14.927l-37.607,19.312l-81.271,41.056l-81.469,40.665
		l-37.653,18.752c-8.799-13.614-24.085-22.659-41.453-22.659c-27.21,0-49.351,22.138-49.351,49.35
		c0,27.22,22.141,49.361,49.351,49.361c19.528,0,36.41-11.44,44.405-27.948l101.924,29.534L617.562,561.289
		c-7.772-5.12-17.062-8.12-27.047-8.12c-27.216,0-49.354,22.134-49.354,49.351c0,27.211,22.137,49.348,49.354,49.348
		c27.206,0,49.359-22.137,49.359-49.348c0-13.682-5.602-26.073-14.623-35.02l121.935-148.3l118.083,34.221
		c-0.214,1.864-0.356,3.749-0.356,5.669c0,27.215,22.146,49.361,49.348,49.361c27.215,0,49.37-22.146,49.37-49.361
		C963.631,431.872,941.476,409.736,914.261,409.736z M627.082,602.52c0,20.154-16.404,36.551-36.566,36.551
		c-20.165,0-36.559-16.396-36.559-36.551c0-20.168,16.394-36.562,36.559-36.562c6.968,0,13.423,2.061,18.972,5.452l-6.958,8.693
		c-3.588-1.929-7.644-3.13-12.014-3.13c-14.101,0-25.54,11.431-25.54,25.546c0,14.112,11.439,25.531,25.54,25.531
		c14.115,0,25.545-11.419,25.545-25.531c0-6.287-2.353-11.958-6.116-16.406l7.09-8.623
		C623.221,584.044,627.082,592.813,627.082,602.52z M877.708,203.065c0-20.157,16.392-36.561,36.553-36.561
		c20.173,0,36.586,16.403,36.586,36.561c0,20.161-16.413,36.561-36.586,36.561c-5.839,0-11.284-1.506-16.188-3.949l7.212-8.776
		c2.798,1.058,5.807,1.711,8.976,1.711c14.12,0,25.572-11.441,25.572-25.547c0-14.113-11.452-25.547-25.572-25.547
		c-14.106,0-25.541,11.434-25.541,25.547c0,1.266,0.199,2.489,0.382,3.705l-10.16,5.218
		C878.221,209.117,877.708,206.156,877.708,203.065z M613.208,363.309c-0.073-1.698-0.307-3.343-0.684-4.933l9.957-4.892
		c1.102,3.489,1.874,7.132,1.874,10.983c0,0.69-0.164,1.331-0.208,2.009L613.208,363.309z M587.782,401.034
		c-20.16,0-36.564-16.402-36.564-36.567c0-20.16,16.404-36.563,36.564-36.563c12.371,0,23.275,6.205,29.896,15.627l-10.059,5.014
		c-4.688-5.818-11.779-9.618-19.838-9.618c-14.099,0-25.54,11.431-25.54,25.54c0,14.114,11.441,25.553,25.54,25.553
		c8.679,0,16.299-4.348,20.928-10.952l10.843,3.148C613.287,393.38,601.48,401.034,587.782,401.034z M636.796,370.141
		c0.213-1.867,0.354-3.748,0.354-5.674c0-5.873-1.087-11.491-2.979-16.726l37.749-18.527l81.794-40.044l81.954-39.646l38.22-18.183
		c1.125,1.604,2.346,3.116,3.654,4.566L745.186,401.555L636.796,370.141z M914.261,495.657c-20.161,0-36.553-16.407-36.553-36.567
		c0-0.686,0.163-1.328,0.205-2.004l10.923,3.166c0.615,13.559,11.715,24.386,25.425,24.386c14.12,0,25.554-11.439,25.554-25.548
		c0-14.111-11.434-25.545-25.554-25.545c-8.668,0-16.297,4.34-20.925,10.942l-10.837-3.137
		c6.269-11.169,18.068-18.823,31.762-18.823c20.173,0,36.571,16.405,36.571,36.562C950.832,479.25,934.434,495.657,914.261,495.657z
		"/>
</g>
<g>
	<path fill="#4E9D2D" d="M867.964,219.549c26.435,0,47.95-21.508,47.95-47.94c0-26.434-21.516-47.942-47.95-47.942
		c-26.438,0-47.935,21.508-47.935,47.942C820.029,198.041,841.526,219.549,867.964,219.549z M867.964,136.089
		c19.593,0,35.53,15.933,35.53,35.519c0,19.584-15.938,35.515-35.53,35.515c-19.578,0-35.513-15.931-35.513-35.515
		C832.451,152.022,848.386,136.089,867.964,136.089z"/>
	<path fill="#4E9D2D" d="M867.964,196.424c13.72,0,24.827-11.11,24.827-24.815c0-13.709-11.107-24.822-24.827-24.822
		c-13.698,0-24.815,11.113-24.815,24.822C843.148,185.314,854.266,196.424,867.964,196.424z"/>
	<path fill="#4E9D2D" d="M869.931,585.977c-23.364,0-42.849,16.807-47.064,38.971c-40.956-9.441-80.227-32.13-113.648-66.217
		c-30.906-31.535-53.288-70.125-63.684-107.867c19.907-5.828,34.494-24.223,34.494-45.988c0-21.424-14.11-39.61-33.549-45.733
		c14.767-50.965,50.751-109.151,98.372-142.168l-7.835,44.75l11.543,2.012l12.112-69.282l-69.992-7.039l-1.188,11.661l45.801,4.594
		c-51.107,35.63-89.596,98.536-105.09,153.357c-25.558,1-46.055,22.047-46.055,47.849c0,25.364,19.828,46.137,44.762,47.779
		c10.679,41.235,34.572,82.838,68.602,117.552c36.583,37.314,79.926,61.845,125.161,71.484c3.732,22.74,23.463,40.177,47.259,40.177
		c26.438,0,47.938-21.51,47.938-47.945C917.869,607.48,896.369,585.977,869.931,585.977z M667.607,404.875
		c0,15.9-10.565,29.232-25.004,33.749c-0.717-3.55-1.34-7.069-1.848-10.581c9.424-3.52,16.163-12.519,16.163-23.168
		c0-10.487-6.52-19.404-15.725-23.044c0.588-3.432,1.315-6.939,2.111-10.488C657.387,376.066,667.607,389.228,667.607,404.875z
		 M596.57,404.875c0-17.833,13.256-32.486,30.391-34.999c-0.843,3.866-1.598,7.67-2.191,11.404
		c-10.11,3.143-17.486,12.458-17.486,23.595c0,10.926,7.098,20.092,16.903,23.4c0.486,3.825,1.111,7.656,1.853,11.5
		C609.338,436.878,596.57,422.377,596.57,404.875z M869.931,669.441c-16.04,0-29.47-10.75-33.866-25.376
		c3.99,0.581,8.007,1.05,12.027,1.402c4.162,7.851,12.337,13.263,21.839,13.263c13.712,0,24.814-11.1,24.814-24.809
		c0-13.711-11.103-24.823-24.814-24.823c-11.957,0-21.915,8.451-24.275,19.718c-3.536-0.384-7.063-0.865-10.577-1.445
		c3.087-16.456,17.512-28.969,34.853-28.969c19.578,0,35.513,15.93,35.513,35.52C905.443,653.503,889.509,669.441,869.931,669.441z"
		/>
</g>
<path fill="#FFAE5F" d="M889.008,523.75c-7.899,0-15.356,1.858-22.046,5.076l-93.998-125.852l94.021-126.21
	c6.679,3.216,14.133,5.067,22.022,5.067c28.156,0,51.065-22.903,51.065-51.061c0-28.158-22.909-51.05-51.065-51.05
	c-28.151,0-51.043,22.892-51.043,51.05c0,11.881,4.104,22.799,10.939,31.484l-97.816,113.604l-98.157-113.658
	c6.803-8.668,10.899-19.564,10.899-31.419c0-28.158-22.901-51.061-51.048-51.061c-28.163,0-51.068,22.902-51.068,51.061
	c0,28.155,22.905,51.05,51.068,51.05c7.975,0,15.494-1.892,22.226-5.165l94.749,125.994l-94.81,126.23
	c-6.711-3.261-14.21-5.143-22.165-5.143c-28.163,0-51.068,22.904-51.068,51.077c0,28.128,22.905,51.027,51.068,51.027
	c28.147,0,51.048-22.899,51.048-51.027c0-11.868-4.096-22.764-10.899-31.436L751.6,429.328l97.419,113.84
	c-6.899,8.713-11.054,19.697-11.054,31.659c0,28.128,22.892,51.027,51.043,51.027c28.156,0,51.065-22.899,51.065-51.027
	C940.073,546.654,917.164,523.75,889.008,523.75z M851.196,230.771c0-20.847,16.966-37.817,37.812-37.817
	c20.855,0,37.82,16.97,37.82,37.817c0,20.856-16.965,37.83-37.82,37.83c-4.914,0-9.593-1.018-13.91-2.734l7.192-9.636
	c2.159,0.566,4.386,0.977,6.718,0.977c14.61,0,26.435-11.842,26.435-26.437c0-14.592-11.824-26.415-26.435-26.415
	c-14.602,0-26.436,11.823-26.436,26.415c0,4.375,1.176,8.439,3.045,12.074l-7.881,9.149
	C853.618,245.941,851.196,238.643,851.196,230.771z M612.782,268.602c-20.86,0-37.833-16.974-37.833-37.819
	c0-20.857,16.972-37.828,37.833-37.828c20.845,0,37.817,16.97,37.817,37.828c0,7.846-2.41,15.128-6.514,21.172l-7.898-9.142
	c1.857-3.628,3.008-7.676,3.008-12.03c0-14.603-11.812-26.426-26.413-26.426c-14.601,0-26.44,11.823-26.44,26.426
	c0,14.584,11.839,26.432,26.44,26.432c2.375,0,4.638-0.425,6.843-1.015l7.232,9.627
	C622.493,267.584,617.755,268.602,612.782,268.602z M650.6,574.827c0,20.834-16.972,37.811-37.817,37.811
	c-20.86,0-37.833-16.977-37.833-37.811c0-20.864,16.972-37.848,37.833-37.848c4.96,0,9.67,1.02,14.009,2.766l-7.229,9.63
	c-2.18-0.572-4.432-0.992-6.78-0.992c-14.601,0-26.44,11.823-26.44,26.444c0,14.575,11.839,26.411,26.44,26.411
	c14.602,0,26.413-11.836,26.413-26.411c0-4.385-1.15-8.44-3.026-12.065l7.917-9.139C648.189,559.672,650.6,566.97,650.6,574.827z
	 M889.008,612.638c-20.846,0-37.812-16.977-37.812-37.811c0-7.931,2.464-15.267,6.644-21.354l7.84,9.166
	c-1.914,3.673-3.107,7.768-3.107,12.188c0,14.575,11.834,26.411,26.436,26.411c14.61,0,26.435-11.836,26.435-26.411
	c0-14.621-11.824-26.444-26.435-26.444c-2.332,0-4.559,0.41-6.718,0.971l-7.192-9.634c4.317-1.73,8.996-2.74,13.91-2.74
	c20.855,0,37.82,16.983,37.82,37.848C926.828,595.661,909.863,612.638,889.008,612.638z"/>
<path fill="#9E1C64" d="M930.557,358.582L914.29,263.71c19.151-7.468,32.766-26.061,32.766-47.809
	c0-28.325-23.046-51.356-51.351-51.356c-28.314,0-51.354,23.031-51.354,51.356c0,15.508,6.935,29.39,17.834,38.809
	c-0.407,0.787-0.837,1.549-1.237,2.331c-7.901,15.613-15.446,31.408-23.2,47.096c-8.565,17.283-16.914,34.679-25.218,52.087
	l-0.289-0.095c-10.399-3.907-20.723-7.979-30.666-12.997l22.043-44.867c1.523-3.164,1.502-7.091-0.465-10.317
	c-3.082-5.049-9.683-6.643-14.739-3.564l-61.165,37.29c-3.322-0.887-6.593-1.945-9.771-3.229c-4.598-1.827-9.053-4.036-13.416-6.463
	c-3.852-2.226-7.688-4.467-11.34-7.189c1.632-4.724,3.698-9.111,6.157-13.216c2.519-4.126,5.328-8.019,7.987-12.031l8.144-11.928
	l0.408-0.602c1.069-1.562,1.632-3.49,1.488-5.525c-0.371-4.766-4.524-8.346-9.294-7.988c-23.102,1.731-46.208,2.914-69.337,3.644
	c-5.024,0.135-10.02,0.238-15.036,0.336c-4.57-23.666-25.423-41.588-50.392-41.588c-28.316,0-51.356,23.029-51.356,51.353
	c0,28.318,23.04,51.348,51.356,51.348c26.297,0,48.045-19.902,50.986-45.436c4.982-0.263,9.98-0.501,14.97-0.724
	c16.779-0.664,33.577-0.981,50.378-1.131c-2.202,2.702-4.364,5.435-6.711,8.034c-3.264,3.55-6.91,6.838-11.036,9.76
	c-2.083,1.444-4.259,2.819-6.6,4.07c-2.337,1.258-4.816,2.41-7.639,3.293l-3.315,1.015c-0.781,0.247-1.547,0.559-2.306,0.938
	c-8.021,3.965-11.291,13.687-7.32,21.69c3.979,8.015,13.685,11.29,21.699,7.322c1.655-0.827,3.138-1.171,4.662-1.675
	c1.566-0.563,2.954-0.729,4.413-1.033c2.805-0.369,5.565-0.608,8.158-0.409c5.171,0.398,10.011,1.641,14.882,2.781
	c4.848,1.219,9.602,2.661,14.218,4.481c4.608,1.8,9.13,3.839,13.359,6.611c1.635,1.064,3.796,1.247,5.652,0.287l1.47-0.765
	l39.798-20.672l-10.687,26.169l-0.609,1.474c-0.137,0.357-0.261,0.734-0.344,1.135c-0.973,4.132,1.613,8.263,5.758,9.214
	c13.825,3.205,26.876,8.355,39.838,13.762c-4.775,10-9.522,19.992-14.324,29.975c-15.159,31.551-30.261,63.136-46.021,94.379
	c-7.875,15.626-15.588,31.324-24.082,46.639c-0.243,0.446-0.519,0.899-0.768,1.354c-5.593-2.098-11.617-3.3-17.938-3.3
	c-28.307,0-51.348,23.036-51.348,51.356c0,28.323,23.041,51.344,51.348,51.344c28.315,0,51.354-23.021,51.354-51.344
	c0-17.682-8.975-33.299-22.611-42.534c0.213-0.458,0.417-0.923,0.636-1.38c7.538-15.801,15.836-31.202,23.998-46.688
	c16.298-30.958,33.24-61.592,50.139-92.256c5.582-10.161,11.224-20.296,16.844-30.433l22.899,9.469
	c10.75,4.441,21.432,9.068,32.122,13.648c-0.76,3.5-1.173,7.117-1.173,10.833c0,28.318,23.04,51.346,51.351,51.346
	c28.314,0,51.353-23.027,51.353-51.346C980.296,382.08,958.125,359.443,930.557,358.582z M572.845,305.287
	c-20.979,0-38.042-17.065-38.042-38.04c0-20.971,17.063-38.049,38.042-38.049c17.644,0,32.389,12.136,36.662,28.46
	c-3.976,0.03-7.957,0.03-11.936,0.013c-3.85-9.94-13.433-17.005-24.726-17.005c-14.68,0-26.585,11.892-26.585,26.581
	c0,14.683,11.905,26.574,26.585,26.574c12.04,0,22.103-8.053,25.36-19.034c4.002-0.292,8.002-0.581,11.994-0.832
	C607.022,291.724,591.525,305.287,572.845,305.287z M741.435,589.191c0,20.971-17.061,38.036-38.051,38.036
	c-20.981,0-38.046-17.065-38.046-38.036c0-20.979,17.064-38.044,38.046-38.044c3.906,0,7.605,0.765,11.165,1.866
	c-1.977,3.387-3.992,6.761-6.053,10.103c-1.652-0.321-3.349-0.513-5.112-0.513c-14.666,0-26.589,11.9-26.589,26.588
	c0,14.682,11.923,26.575,26.589,26.575c14.681,0,26.592-11.894,26.592-26.575c0-7.599-3.229-14.41-8.349-19.257
	c1.542-3.642,3.128-7.256,4.754-10.854C735.47,566.043,741.435,576.883,741.435,589.191z M909.314,392.076
	c-3.826-1.339-7.645-2.685-11.453-4.038c3.765-5.336,8.873-9.604,14.826-12.438l2.021,11.875
	C912.69,388.749,910.896,390.315,909.314,392.076z M891.213,250.39l0.538,3.145c-0.667-0.071-1.343-0.097-2.015-0.195
	C890.238,252.354,890.736,251.375,891.213,250.39z M857.649,215.901c0-20.981,17.071-38.049,38.056-38.049
	c20.98,0,38.044,17.067,38.044,38.049c0,15.131-8.938,28.115-21.776,34.237l-2.03-11.864c7.403-4.713,12.351-12.954,12.351-22.374
	c0-14.689-11.91-26.583-26.588-26.583c-14.68,0-26.586,11.894-26.586,26.583c0,5.975,2.056,11.433,5.374,15.876
	c-1.992,3.567-3.924,7.189-5.853,10.799C861.865,235.706,857.649,226.289,857.649,215.901z M852.226,371.305l-21.425-8.139
	c8.995-16.236,17.957-32.491,26.699-48.852c8.286-15.416,16.766-30.733,24.883-46.226c0.402-0.773,0.783-1.57,1.18-2.356
	c3.391,0.837,6.91,1.324,10.525,1.438l16.262,94.87c-10.614,4.139-19.508,11.711-25.332,21.348
	C874.08,379.388,863.104,375.439,852.226,371.305z M928.943,447.887c-20.99,0-38.041-17.06-38.041-38.036
	c0-1.838,0.279-3.586,0.543-5.36c3.656,1.586,7.311,3.237,10.977,4.846c-0.02,0.174-0.061,0.341-0.061,0.515
	c0,14.681,11.914,26.581,26.582,26.581c14.673,0,26.585-11.9,26.585-26.581c0-12.62-8.814-23.132-20.619-25.851l-2.013-11.795
	c19.1,2.003,34.1,18.021,34.1,37.646C966.996,430.827,949.926,447.887,928.943,447.887z"/>
<g>
	<path fill="#0082CA" d="M883.488,508.808c-26.762-16.922-67.876-10.572-116.28,6.562c-8.458-22.579-14.31-47.695-15.982-74.51
		l0.575-0.045l1.015-0.141l4.011-0.631c2.636-0.467,5.441-0.835,7.767-1.613c9.769-2.371,19.034-7.238,26.907-13.172
		c7.849-6.028,14.435-13.23,19.428-20.804c1.409-1.855,2.479-3.796,3.615-5.722c1.143-1.92,2.359-3.81,3.264-5.782
		c1.105-1.875,1.61-4.064,1.514-6.498c-0.162-2.425-0.463-4.829,0.188-6.782c6.124-15.193,9.359-30.259,11.83-44.428
		c2.456-14.208,3.573-27.646,4.516-39.998c0.761-11.35,1.131-21.761,1.39-31.132c27.45-0.606,49.622-23.093,49.622-50.7
		c0-27.97-22.777-50.742-50.747-50.742c-27.979,0-50.743,22.772-50.743,50.742c0,22.909,15.27,42.307,36.152,48.604
		c-0.271,9.578-0.783,20.293-1.915,31.898c-1.096,11.921-2.895,24.748-5.76,37.967c-0.747,3.293-1.435,6.651-2.402,9.961
		c-0.462,1.647-0.923,3.316-1.366,5.006c-0.532,1.656-1.051,3.308-1.572,4.977c-2.131,6.649-4.625,13.293-7.768,19.614
		c-0.918,1.521-2.763,2.605-4.546,3.657c-1.912,0.966-3.198,2.161-3.925,3.695c-0.773,1.523-1.763,2.845-2.693,4.22
		c-0.938,1.369-1.807,2.817-2.872,4.034c-3.906,5.298-8.572,9.623-13.569,13.04c-5.053,3.394-10.451,6.007-16.49,7.271
		c-1.522,0.539-2.787,0.524-4.115,0.783l-2.001,0.354l-0.508,0.099l-0.715,0.034l-1.518,0.082l-5.65,0.284l-0.253-0.021
		l-0.634-0.035l-1.286-0.066l-2.551-0.111c-3.481,0.005-6.7-0.679-10.041-1.032c-1.65-0.235-3.188-0.743-4.784-1.082l-2.386-0.542
		c-0.791-0.195-1.518-0.521-2.282-0.771c-1.512-0.531-3.059-0.994-4.56-1.559l-4.313-2.033c-1.5-0.576-2.764-1.573-4.166-2.333
		c-1.362-0.797-2.774-1.562-4.01-2.595c-1.262-0.981-2.607-1.89-3.857-2.902c-1.196-1.095-2.37-2.215-3.608-3.273
		c-1.351-0.932-2.891-1.806-4.921-2.292l-2.997-0.868c-0.996-0.312-1.806-0.816-2.603-1.326c-2.944-2.228-4.455-5.542-6.468-8.47
		c-1.017-1.48-1.866-3.059-2.729-4.636c-0.826-1.568-1.763-3.091-2.54-4.704c-1.499-3.261-3.13-6.416-4.397-9.756
		c-0.647-1.641-1.373-3.267-1.974-4.923c-0.591-1.669-1.173-3.338-1.748-4.991c-1.2-3.297-2.032-6.716-3.047-10.016
		c-0.86-3.346-1.708-6.666-2.474-9.957c-3.03-13.23-4.71-26.09-5.862-38.006c-0.967-9.685-1.361-18.738-1.617-27.042
		c24.814-3.74,44.062-27.75,44.062-53.452c0-27.988-22.758-50.752-50.756-50.752c-27.971,0-50.745,22.764-50.745,50.752
		c0,25.296,18.614,48.959,42.869,53.266c0.332,8.695,0.932,18.218,1.762,28.524c1.031,12.333,2.688,25.711,5.294,39.833
		c0.711,3.52,1.477,7.083,2.294,10.701c0.952,3.582,1.714,7.254,2.887,10.902c0.534,1.823,1.065,3.676,1.608,5.519
		c0.58,1.855,1.256,3.698,1.874,5.553c1.198,3.747,2.828,7.401,4.312,11.15c0.782,1.862,1.727,3.676,2.595,5.531
		c0.894,1.853,1.774,3.71,2.834,5.516c1.048,1.806,2.079,3.625,3.122,5.459c1.132,1.793,2.508,3.412,3.195,5.576
		c1.449,4.192,1.574,10.073,4.68,13.591c1.57,1.718,3.23,3.378,4.873,5.066c1.741,1.608,3.614,3.114,5.424,4.678
		c14.532,12.027,33.892,18.885,52.272,19.863c1.786,30.601,8.646,57.638,17.123,80.23c-22.334,8.611-45.994,19.137-70.331,30.433
		c-9.173-13.192-24.43-21.862-41.673-21.862c-27.977,0-50.761,22.756-50.761,50.742c0,27.958,22.784,50.734,50.761,50.734
		c27.969,0,50.753-22.776,50.753-50.734c0-4.779-0.702-9.366-1.941-13.732c23.873-11.084,47.407-21.54,69.546-30.079
		c8.066,18.159,16.761,32.644,23.646,42.817c27.629,40.81,61.678,66.159,88.868,66.159c12.829,0,42.69-6.35,42.69-65.054
		C913.169,545.419,903.183,521.271,883.488,508.808z M798.525,213.412c0-20.72,16.866-37.59,37.593-37.59
		c20.735,0,37.597,16.87,37.597,37.59c0,20.28-16.133,36.81-36.221,37.532c0.059-4.06,0.096-7.864,0.121-11.343
		c13.807-0.787,24.771-12.179,24.771-26.189c0-14.505-11.762-26.267-26.269-26.267c-14.512,0-26.262,11.761-26.262,26.267
		c0,9.194,4.704,17.256,11.866,21.941c0,0.152,0,0.278,0,0.411c0.014,3.73,0.038,7.881,0.031,12.393
		C808.127,242.493,798.525,229.067,798.525,213.412z M643.336,183.928c-14.501,0-26.258,11.755-26.258,26.271
		c0,11.44,7.327,21.145,17.555,24.756c0.084,3.593,0.154,7.561,0.251,11.823c-16.674-3.845-29.145-18.755-29.145-36.579
		c0-20.73,16.88-37.601,37.596-37.601c20.744,0,37.605,16.87,37.605,37.601c0,18.533-13.495,33.914-31.153,36.986
		c0-4.147,0.026-8.027,0.119-11.572c11.312-2.916,19.703-13.173,19.703-25.414C669.609,195.683,657.861,183.928,643.336,183.928z
		 M639.607,618.057c-20.734,0-37.598-16.859-37.598-37.588c0-20.752,16.864-37.605,37.598-37.605c11.979,0,22.634,5.653,29.524,14.4
		c-3.532,1.658-7.063,3.313-10.613,4.982c-4.793-4.955-11.478-8.061-18.912-8.061c-14.511,0-26.26,11.763-26.26,26.283
		c0,14.494,11.75,26.255,26.26,26.255c14.5,0,26.257-11.761,26.257-26.255c0-1.046-0.075-2.076-0.192-3.094
		c3.546-1.669,7.093-3.346,10.633-5.002c0.578,2.611,0.897,5.312,0.897,8.096C677.202,601.197,660.345,618.057,639.607,618.057z
		 M870.479,628.89c-26.407,0-70.234-38.487-96.909-97.999c43.173-15.229,79.652-21.43,100.972-7.936
		c14.73,9.323,21.902,28.166,21.902,57.625C896.443,598.617,893.063,628.89,870.479,628.89z"/>
</g>
<g>
	<g>
		<path fill="#00AE8D" d="M757.153,377.136c-14.026,0-25.404,11.376-25.404,25.401c0,14.029,11.378,25.406,25.404,25.406
			c14.045,0,25.399-11.377,25.399-25.406C782.553,388.512,771.198,377.136,757.153,377.136z"/>
		<path fill="#00AE8D" d="M757.153,353.462c-27.062,0-49.091,22.005-49.091,49.075c0,27.067,22.028,49.079,49.091,49.079
			c27.063,0,49.068-22.012,49.068-49.079C806.222,375.467,784.217,353.462,757.153,353.462z M757.153,438.897
			c-20.047,0-36.365-16.315-36.365-36.36c0-20.048,16.318-36.356,36.365-36.356c20.053,0,36.366,16.309,36.366,36.356
			C793.52,422.582,777.206,438.897,757.153,438.897z"/>
		<path fill="#00AE8D" d="M751.035,188.251c-118.153,0-214.292,96.132-214.292,214.286c0,118.16,96.139,214.292,214.292,214.292
			c118.159,0,214.284-96.132,214.284-214.292C965.319,284.383,869.194,188.251,751.035,188.251z M751.035,600.437
			c-109.121,0-197.895-88.775-197.895-197.899c0-109.118,88.773-197.892,197.895-197.892S948.93,293.419,948.93,402.537
			C948.93,511.661,860.156,600.437,751.035,600.437z"/>
		<path fill="#00AE8D" d="M750.981,261.231c-77.97,0-141.152,63.263-141.152,141.256c0,78.099,63.183,141.363,141.152,141.363
			c78.146,0,141.383-63.265,141.383-141.363C892.364,324.494,829.127,261.231,750.981,261.231z M757.153,465.947
			c-54.149,0-138.36-33.817-138.36-64.955c0-32.391,83.19-58.008,138.351-58.008c56.522,0,126.105,34.151,126.105,58.008
			C883.25,434.178,813.667,465.947,757.153,465.947z"/>
	</g>
</g>
</svg>
