<?xml version="1.0" encoding="utf-8"?>
<!-- Generator: Adobe Illustrator 16.0.0, SVG Export Plug-In . SVG Version: 6.00 Build 0)  -->
<!DOCTYPE svg PUBLIC "-//W3C//DTD SVG 1.1//EN" "http://www.w3.org/Graphics/SVG/1.1/DTD/svg11.dtd">
<svg version="1.1" id="Layer_1" xmlns="http://www.w3.org/2000/svg" xmlns:xlink="http://www.w3.org/1999/xlink" x="0px" y="0px"
	 width="1500px" height="800px" viewBox="0 0 1500 800" enable-background="new 0 0 1500 800" xml:space="preserve">
<g id="Layer_1_1_">
</g>
<g id="Layer_3">
</g>
<g>
	<g>
		<rect x="89" y="75.4" fill="#ED2246" width="282.4" height="172.8"/>
	</g>
	<g>
		<polygon fill="#BD1B38" points="261.3,248.1 89.1,248.1 89.1,207.5 327.1,75.4 		"/>
	</g>
</g>
<g enable-background="new    ">
	<path d="M461.6,149.7h4.9c1.6,0,3,0.2,4.2,0.7c1.2,0.5,2.2,1.2,3,2.1c0.8,0.9,1.4,2,1.7,3.3c0.4,1.3,0.6,2.7,0.6,4.3
		c0,1.6-0.2,3-0.6,4.3c-0.4,1.3-1,2.4-1.7,3.3c-0.8,0.9-1.8,1.6-3,2.1c-1.2,0.5-2.6,0.7-4.2,0.7h-4.9V149.7z M466.3,169.4
		c1.4,0,2.6-0.2,3.7-0.7c1-0.5,1.9-1.1,2.5-1.9c0.7-0.8,1.1-1.8,1.5-2.9c0.3-1.1,0.5-2.4,0.5-3.8c0-1.4-0.2-2.6-0.5-3.7
		s-0.8-2.1-1.5-2.9c-0.7-0.8-1.5-1.4-2.5-1.9c-1-0.4-2.3-0.7-3.7-0.7h-3.2v18.5H466.3z"/>
	<path d="M481.4,151.7c-0.4,0-0.7-0.1-0.9-0.3s-0.4-0.5-0.4-0.9c0-0.4,0.1-0.7,0.4-0.9s0.5-0.3,0.9-0.3c0.4,0,0.7,0.1,0.9,0.3
		s0.4,0.5,0.4,0.9c0,0.4-0.1,0.7-0.4,0.9S481.8,151.7,481.4,151.7z M480.7,155.4h1.4v15.3h-1.4V155.4z"/>
	<path d="M487.9,155.4h1.2l0.1,2.8h0.1c0.5-1,1.1-1.7,1.9-2.3c0.7-0.6,1.6-0.9,2.5-0.9c0.3,0,0.6,0,0.8,0.1c0.2,0,0.5,0.1,0.7,0.3
		l-0.3,1.3c-0.3-0.1-0.5-0.2-0.7-0.2c-0.2,0-0.4,0-0.7,0c-0.7,0-1.4,0.3-2.1,0.9c-0.8,0.6-1.4,1.6-2,3v10.4h-1.4V155.4z"/>
	<path d="M496.4,163c0-1.3,0.2-2.4,0.6-3.4c0.4-1,0.9-1.8,1.5-2.5c0.6-0.7,1.3-1.2,2.1-1.6c0.8-0.4,1.6-0.6,2.5-0.6
		c1.8,0,3.3,0.6,4.3,1.8c1,1.2,1.6,3,1.6,5.2c0,0.2,0,0.4,0,0.6c0,0.2,0,0.4-0.1,0.6h-11c0,1,0.2,1.8,0.4,2.7
		c0.3,0.8,0.7,1.5,1.2,2.1c0.5,0.6,1.1,1,1.8,1.4c0.7,0.3,1.5,0.5,2.4,0.5c0.8,0,1.6-0.1,2.2-0.4c0.7-0.2,1.3-0.6,1.9-1l0.6,1.1
		c-0.6,0.4-1.3,0.7-2,1c-0.7,0.3-1.7,0.5-2.8,0.5c-1,0-1.9-0.2-2.8-0.5c-0.9-0.4-1.6-0.9-2.2-1.6c-0.6-0.7-1.1-1.5-1.5-2.5
		C496.6,165.4,496.4,164.3,496.4,163z M507.6,162.1c0-2-0.4-3.5-1.2-4.4c-0.8-1-1.9-1.5-3.3-1.5c-0.7,0-1.3,0.1-1.9,0.4
		c-0.6,0.3-1.1,0.7-1.6,1.2c-0.5,0.5-0.9,1.1-1.2,1.9c-0.3,0.7-0.5,1.6-0.6,2.5H507.6z"/>
	<path d="M511.8,163c0-1.3,0.2-2.4,0.6-3.4c0.4-1,0.9-1.8,1.5-2.5s1.4-1.2,2.2-1.6c0.8-0.4,1.7-0.5,2.7-0.5c1.1,0,1.9,0.2,2.7,0.6
		c0.7,0.4,1.3,0.8,1.8,1.3l-0.8,1c-0.5-0.5-1-0.9-1.6-1.2c-0.6-0.3-1.3-0.5-2-0.5c-0.8,0-1.5,0.2-2.2,0.5c-0.7,0.3-1.3,0.8-1.7,1.4
		c-0.5,0.6-0.9,1.3-1.2,2.1c-0.3,0.8-0.4,1.7-0.4,2.8c0,1,0.1,1.9,0.4,2.7c0.3,0.8,0.6,1.5,1.1,2.1c0.5,0.6,1.1,1.1,1.7,1.4
		c0.7,0.3,1.4,0.5,2.3,0.5c0.8,0,1.6-0.2,2.2-0.5c0.7-0.3,1.3-0.8,1.8-1.2l0.7,1c-0.7,0.6-1.4,1.1-2.2,1.5c-0.8,0.4-1.7,0.6-2.7,0.6
		c-1,0-1.9-0.2-2.8-0.5c-0.8-0.4-1.6-0.9-2.2-1.6c-0.6-0.7-1.1-1.5-1.5-2.5C512,165.4,511.8,164.3,511.8,163z"/>
	<path d="M525.5,163c0-1.3,0.2-2.4,0.6-3.4c0.4-1,0.9-1.8,1.5-2.5s1.4-1.2,2.2-1.6c0.8-0.4,1.7-0.5,2.7-0.5c1.1,0,1.9,0.2,2.7,0.6
		c0.7,0.4,1.3,0.8,1.8,1.3l-0.8,1c-0.5-0.5-1-0.9-1.6-1.2c-0.6-0.3-1.3-0.5-2-0.5c-0.8,0-1.5,0.2-2.2,0.5c-0.7,0.3-1.3,0.8-1.7,1.4
		c-0.5,0.6-0.9,1.3-1.2,2.1c-0.3,0.8-0.4,1.7-0.4,2.8c0,1,0.1,1.9,0.4,2.7c0.3,0.8,0.6,1.5,1.1,2.1c0.5,0.6,1.1,1.1,1.7,1.4
		c0.7,0.3,1.4,0.5,2.3,0.5c0.8,0,1.6-0.2,2.2-0.5c0.7-0.3,1.3-0.8,1.8-1.2l0.7,1c-0.7,0.6-1.4,1.1-2.2,1.5c-0.8,0.4-1.7,0.6-2.7,0.6
		c-1,0-1.9-0.2-2.8-0.5c-0.8-0.4-1.6-0.9-2.2-1.6c-0.6-0.7-1.1-1.5-1.5-2.5C525.7,165.4,525.5,164.3,525.5,163z"/>
	<path d="M541.8,151.7c-0.4,0-0.7-0.1-0.9-0.3s-0.4-0.5-0.4-0.9c0-0.4,0.1-0.7,0.4-0.9s0.5-0.3,0.9-0.3c0.4,0,0.7,0.1,0.9,0.3
		s0.4,0.5,0.4,0.9c0,0.4-0.1,0.7-0.4,0.9S542.2,151.7,541.8,151.7z M541.1,155.4h1.4v15.3h-1.4V155.4z"/>
	<path d="M547.1,163c0-1.3,0.2-2.4,0.6-3.4c0.4-1,0.9-1.8,1.5-2.5c0.6-0.7,1.4-1.2,2.2-1.6c0.8-0.4,1.7-0.5,2.6-0.5
		c0.9,0,1.8,0.2,2.6,0.5c0.8,0.4,1.6,0.9,2.2,1.6c0.6,0.7,1.1,1.5,1.5,2.5c0.4,1,0.6,2.1,0.6,3.4s-0.2,2.4-0.6,3.4
		c-0.4,1-0.9,1.8-1.5,2.5c-0.6,0.7-1.4,1.2-2.2,1.6c-0.8,0.4-1.7,0.5-2.6,0.5c-0.9,0-1.8-0.2-2.6-0.5c-0.8-0.4-1.6-0.9-2.2-1.6
		c-0.6-0.7-1.1-1.5-1.5-2.5C547.3,165.4,547.1,164.3,547.1,163z M548.6,163c0,1,0.1,1.9,0.4,2.7c0.3,0.8,0.7,1.5,1.1,2.1
		s1,1.1,1.7,1.4c0.7,0.3,1.4,0.5,2.1,0.5c0.8,0,1.5-0.2,2.1-0.5c0.7-0.3,1.2-0.8,1.7-1.4s0.9-1.3,1.1-2.1s0.4-1.7,0.4-2.7
		c0-1-0.1-1.9-0.4-2.8c-0.3-0.8-0.7-1.5-1.1-2.1s-1-1.1-1.7-1.4c-0.7-0.3-1.4-0.5-2.1-0.5c-0.8,0-1.5,0.2-2.1,0.5
		c-0.7,0.3-1.2,0.8-1.7,1.4s-0.9,1.3-1.1,2.1C548.7,161.1,548.6,162,548.6,163z M553.4,152.4h-1.2l2.9-4.3h1.7L553.4,152.4z"/>
	<path d="M565.4,155.4h1.2l0.1,2.4h0.1c0.8-0.8,1.6-1.4,2.4-2c0.8-0.5,1.8-0.8,2.8-0.8c1.6,0,2.8,0.5,3.5,1.4c0.7,1,1.1,2.4,1.1,4.4
		v9.8h-1.4V161c0-1.6-0.3-2.8-0.8-3.6c-0.5-0.8-1.4-1.2-2.7-1.2c-0.9,0-1.7,0.2-2.5,0.7c-0.7,0.5-1.6,1.2-2.5,2.1v11.5h-1.4V155.4z"
		/>
	<path d="M587.5,160.1c0-1.7,0.2-3.1,0.7-4.5c0.4-1.3,1.1-2.5,1.9-3.4c0.8-0.9,1.8-1.7,2.9-2.2c1.1-0.5,2.4-0.7,3.8-0.7
		c0.7,0,1.3,0.1,1.9,0.2c0.6,0.1,1.1,0.3,1.6,0.6c0.5,0.2,0.9,0.5,1.3,0.8c0.4,0.3,0.7,0.6,1,0.9l-0.9,1c-0.6-0.6-1.2-1.1-2-1.5
		c-0.8-0.4-1.7-0.6-2.9-0.6c-1.2,0-2.3,0.2-3.2,0.7s-1.8,1.1-2.4,1.9s-1.2,1.8-1.5,3c-0.4,1.2-0.5,2.5-0.5,3.9s0.2,2.8,0.5,4
		c0.3,1.2,0.8,2.2,1.5,3c0.6,0.8,1.4,1.5,2.4,1.9c0.9,0.5,2,0.7,3.2,0.7c1,0,1.8-0.1,2.7-0.4c0.8-0.3,1.5-0.7,2-1.2v-6.5h-5v-1.2
		h6.4v8.3c-0.7,0.7-1.5,1.3-2.6,1.7c-1,0.4-2.3,0.7-3.7,0.7c-1.3,0-2.6-0.3-3.7-0.8c-1.1-0.5-2-1.2-2.8-2.2
		c-0.8-0.9-1.4-2.1-1.8-3.4C587.7,163.3,587.5,161.8,587.5,160.1z"/>
	<path d="M606.6,163c0-1.3,0.2-2.4,0.6-3.4c0.4-1,0.9-1.8,1.5-2.5c0.6-0.7,1.3-1.2,2.1-1.6c0.8-0.4,1.6-0.6,2.5-0.6
		c1.8,0,3.3,0.6,4.3,1.8c1,1.2,1.6,3,1.6,5.2c0,0.2,0,0.4,0,0.6c0,0.2,0,0.4-0.1,0.6h-11c0,1,0.2,1.8,0.4,2.7
		c0.3,0.8,0.7,1.5,1.2,2.1c0.5,0.6,1.1,1,1.8,1.4c0.7,0.3,1.5,0.5,2.4,0.5c0.8,0,1.6-0.1,2.2-0.4c0.7-0.2,1.3-0.6,1.9-1l0.6,1.1
		c-0.6,0.4-1.3,0.7-2,1c-0.7,0.3-1.7,0.5-2.8,0.5c-1,0-1.9-0.2-2.8-0.5c-0.9-0.4-1.6-0.9-2.2-1.6c-0.6-0.7-1.1-1.5-1.5-2.5
		C606.8,165.4,606.6,164.3,606.6,163z M617.8,162.1c0-2-0.4-3.5-1.2-4.4c-0.8-1-1.9-1.5-3.3-1.5c-0.7,0-1.3,0.1-1.9,0.4
		c-0.6,0.3-1.1,0.7-1.6,1.2c-0.5,0.5-0.9,1.1-1.2,1.9c-0.3,0.7-0.5,1.6-0.6,2.5H617.8z"/>
	<path d="M623.2,155.4h1.2l0.1,2.4h0.1c0.8-0.8,1.6-1.4,2.4-2c0.8-0.5,1.8-0.8,2.8-0.8c1.6,0,2.8,0.5,3.5,1.4c0.7,1,1.1,2.4,1.1,4.4
		v9.8h-1.4V161c0-1.6-0.3-2.8-0.8-3.6c-0.5-0.8-1.4-1.2-2.7-1.2c-0.9,0-1.7,0.2-2.5,0.7c-0.7,0.5-1.6,1.2-2.5,2.1v11.5h-1.4V155.4z"
		/>
	<path d="M638.9,163c0-1.3,0.2-2.4,0.6-3.4c0.4-1,0.9-1.8,1.5-2.5c0.6-0.7,1.3-1.2,2.1-1.6c0.8-0.4,1.6-0.6,2.5-0.6
		c1.8,0,3.3,0.6,4.3,1.8c1,1.2,1.6,3,1.6,5.2c0,0.2,0,0.4,0,0.6c0,0.2,0,0.4-0.1,0.6h-11c0,1,0.2,1.8,0.4,2.7
		c0.3,0.8,0.7,1.5,1.2,2.1c0.5,0.6,1.1,1,1.8,1.4c0.7,0.3,1.5,0.5,2.4,0.5c0.8,0,1.6-0.1,2.2-0.4c0.7-0.2,1.3-0.6,1.9-1l0.6,1.1
		c-0.6,0.4-1.3,0.7-2,1c-0.7,0.3-1.7,0.5-2.8,0.5c-1,0-1.9-0.2-2.8-0.5c-0.9-0.4-1.6-0.9-2.2-1.6c-0.6-0.7-1.1-1.5-1.5-2.5
		C639.1,165.4,638.9,164.3,638.9,163z M650.1,162.1c0-2-0.4-3.5-1.2-4.4c-0.8-1-1.9-1.5-3.3-1.5c-0.7,0-1.3,0.1-1.9,0.4
		c-0.6,0.3-1.1,0.7-1.6,1.2c-0.5,0.5-0.9,1.1-1.2,1.9c-0.3,0.7-0.5,1.6-0.6,2.5H650.1z"/>
	<path d="M655.5,155.4h1.2l0.1,2.8h0.1c0.5-1,1.1-1.7,1.9-2.3c0.7-0.6,1.6-0.9,2.5-0.9c0.3,0,0.6,0,0.8,0.1c0.2,0,0.5,0.1,0.7,0.3
		l-0.3,1.3c-0.3-0.1-0.5-0.2-0.7-0.2c-0.2,0-0.4,0-0.7,0c-0.7,0-1.4,0.3-2.1,0.9c-0.8,0.6-1.4,1.6-2,3v10.4h-1.4V155.4z"/>
	<path d="M664,166.8c0-1.7,0.8-3,2.4-3.8s4.1-1.5,7.5-1.9c0-0.6,0-1.2-0.1-1.7c-0.1-0.6-0.3-1.1-0.5-1.6s-0.6-0.8-1.1-1.1
		c-0.5-0.3-1.1-0.4-1.8-0.4c-1,0-2,0.2-2.8,0.6c-0.8,0.4-1.5,0.8-2,1.2l-0.6-1c0.3-0.2,0.6-0.4,1-0.6c0.4-0.2,0.8-0.4,1.3-0.6
		c0.5-0.2,1-0.4,1.6-0.5c0.6-0.1,1.2-0.2,1.8-0.2c0.9,0,1.7,0.2,2.3,0.5c0.6,0.3,1.1,0.7,1.5,1.3s0.7,1.2,0.8,1.9
		c0.2,0.7,0.2,1.5,0.2,2.3v9.8h-1.2l-0.2-2h-0.1c-0.8,0.6-1.6,1.2-2.5,1.6c-0.9,0.5-1.9,0.7-2.9,0.7c-0.6,0-1.2-0.1-1.7-0.3
		c-0.5-0.2-1-0.4-1.4-0.8s-0.7-0.8-1-1.3C664.1,168.2,664,167.5,664,166.8z M665.5,166.7c0,1.1,0.3,1.9,1,2.4
		c0.6,0.5,1.4,0.7,2.3,0.7c0.9,0,1.7-0.2,2.5-0.6c0.8-0.4,1.7-1,2.6-1.8v-5.2c-1.6,0.2-2.9,0.4-4,0.7c-1.1,0.3-1.9,0.6-2.6,1
		s-1.1,0.8-1.4,1.3C665.6,165.6,665.5,166.1,665.5,166.7z"/>
	<path d="M680.7,147.8h1.4v21c0,0.3,0.1,0.6,0.2,0.7c0.1,0.2,0.3,0.2,0.5,0.2c0.1,0,0.1,0,0.2,0c0.1,0,0.2,0,0.4-0.1l0.3,1.1
		c-0.1,0-0.3,0.1-0.4,0.1s-0.3,0-0.6,0c-1.3,0-1.9-0.8-1.9-2.4V147.8z"/>
</g>
<g enable-background="new    ">
	<path d="M1158.6,149.7h1.5v21h-1.5V149.7z"/>
	<path d="M1166,155.4h1.2l0.1,2.4h0.1c0.8-0.8,1.6-1.4,2.4-2c0.8-0.5,1.8-0.8,2.8-0.8c1.6,0,2.8,0.5,3.5,1.4c0.7,1,1.1,2.4,1.1,4.4
		v9.8h-1.4V161c0-1.6-0.3-2.8-0.8-3.6c-0.5-0.8-1.4-1.2-2.7-1.2c-0.9,0-1.7,0.2-2.5,0.7c-0.7,0.5-1.6,1.2-2.5,2.1v11.5h-1.4V155.4z"
		/>
	<path d="M1180.4,155.4h1.5l3.4,9.6c0.2,0.7,0.5,1.5,0.8,2.2s0.5,1.5,0.8,2.2h0.1c0.3-0.7,0.5-1.4,0.8-2.2c0.3-0.7,0.5-1.5,0.8-2.2
		l3.4-9.6h1.4l-5.7,15.3h-1.7L1180.4,155.4z"/>
	<path d="M1197.5,151.7c-0.4,0-0.7-0.1-0.9-0.3c-0.2-0.2-0.4-0.5-0.4-0.9c0-0.4,0.1-0.7,0.4-0.9c0.2-0.2,0.5-0.3,0.9-0.3
		c0.4,0,0.7,0.1,0.9,0.3s0.4,0.5,0.4,0.9c0,0.4-0.1,0.7-0.4,0.9S1197.9,151.7,1197.5,151.7z M1196.8,155.4h1.4v15.3h-1.4V155.4z"/>
	<path d="M1204.4,156.6h-2.4v-1.1l2.4-0.1l0.2-4.4h1.2v4.4h4.4v1.2h-4.4v10c0,0.5,0,0.9,0.1,1.3c0.1,0.4,0.2,0.7,0.4,1
		c0.2,0.3,0.4,0.5,0.8,0.7c0.3,0.2,0.8,0.2,1.3,0.2c0.3,0,0.6,0,1-0.1s0.7-0.2,0.9-0.3l0.4,1.1c-0.4,0.2-0.9,0.3-1.3,0.4
		c-0.4,0.1-0.8,0.2-1.1,0.2c-0.7,0-1.4-0.1-1.8-0.3c-0.5-0.2-0.9-0.5-1.2-0.9c-0.3-0.4-0.5-0.9-0.6-1.5c-0.1-0.6-0.2-1.2-0.2-1.9
		V156.6z"/>
	<path d="M1212.4,166.8c0-1.7,0.8-3,2.4-3.8s4.1-1.5,7.5-1.9c0-0.6,0-1.2-0.1-1.7c-0.1-0.6-0.3-1.1-0.5-1.6s-0.6-0.8-1.1-1.1
		s-1.1-0.4-1.8-0.4c-1,0-2,0.2-2.8,0.6c-0.8,0.4-1.5,0.8-2,1.2l-0.6-1c0.3-0.2,0.6-0.4,1-0.6s0.8-0.4,1.3-0.6c0.5-0.2,1-0.4,1.6-0.5
		s1.2-0.2,1.8-0.2c0.9,0,1.7,0.2,2.3,0.5c0.6,0.3,1.1,0.7,1.5,1.3s0.7,1.2,0.8,1.9c0.2,0.7,0.2,1.5,0.2,2.3v9.8h-1.2l-0.2-2h-0.1
		c-0.8,0.6-1.6,1.2-2.5,1.6c-0.9,0.5-1.9,0.7-2.9,0.7c-0.6,0-1.2-0.1-1.7-0.3c-0.5-0.2-1-0.4-1.4-0.8s-0.7-0.8-1-1.3
		C1212.6,168.2,1212.4,167.5,1212.4,166.8z M1213.9,166.7c0,1.1,0.3,1.9,1,2.4c0.6,0.5,1.4,0.7,2.3,0.7c0.9,0,1.7-0.2,2.5-0.6
		c0.8-0.4,1.7-1,2.6-1.8v-5.2c-1.6,0.2-2.9,0.4-4,0.7s-1.9,0.6-2.6,1c-0.7,0.4-1.1,0.8-1.4,1.3
		C1214,165.6,1213.9,166.2,1213.9,166.7z"/>
	<path d="M1227.9,163c0-1.2,0.2-2.3,0.5-3.3c0.4-1,0.9-1.8,1.5-2.5c0.6-0.7,1.3-1.2,2.2-1.6s1.7-0.6,2.6-0.6c0.9,0,1.7,0.2,2.4,0.5
		c0.7,0.3,1.4,0.8,2.2,1.4l-0.1-2.8v-6.3h1.4v22.9h-1.2l-0.1-2h-0.1c-0.6,0.6-1.3,1.2-2.2,1.6s-1.8,0.7-2.8,0.7
		c-1.9,0-3.5-0.7-4.6-2.1C1228.5,167.6,1227.9,165.6,1227.9,163z M1229.4,163c0,1,0.1,1.9,0.3,2.8c0.2,0.8,0.5,1.5,1,2.1
		c0.4,0.6,0.9,1,1.6,1.4c0.6,0.3,1.3,0.5,2.1,0.5c0.8,0,1.7-0.2,2.4-0.7s1.6-1.1,2.4-1.9v-9.1c-0.8-0.7-1.6-1.2-2.3-1.5
		c-0.7-0.3-1.4-0.4-2.2-0.4c-0.8,0-1.5,0.2-2.1,0.5c-0.7,0.3-1.2,0.8-1.7,1.4c-0.5,0.6-0.9,1.3-1.1,2.2
		C1229.5,161.2,1229.4,162.1,1229.4,163z"/>
	<path d="M1245.2,163c0-1.3,0.2-2.4,0.6-3.4s0.9-1.8,1.5-2.5c0.6-0.7,1.4-1.2,2.2-1.6c0.8-0.4,1.7-0.5,2.6-0.5s1.8,0.2,2.6,0.5
		c0.8,0.4,1.6,0.9,2.2,1.6s1.1,1.5,1.5,2.5c0.4,1,0.6,2.1,0.6,3.4s-0.2,2.4-0.6,3.4c-0.4,1-0.9,1.8-1.5,2.5
		c-0.6,0.7-1.4,1.2-2.2,1.6c-0.8,0.4-1.7,0.5-2.6,0.5s-1.8-0.2-2.6-0.5c-0.8-0.4-1.6-0.9-2.2-1.6c-0.6-0.7-1.1-1.5-1.5-2.5
		C1245.4,165.4,1245.2,164.3,1245.2,163z M1246.7,163c0,1,0.1,1.9,0.4,2.7c0.3,0.8,0.7,1.5,1.1,2.1s1,1.1,1.7,1.4s1.4,0.5,2.1,0.5
		s1.5-0.2,2.1-0.5c0.7-0.3,1.2-0.8,1.7-1.4c0.5-0.6,0.9-1.3,1.1-2.1s0.4-1.7,0.4-2.7c0-1-0.1-1.9-0.4-2.8c-0.3-0.8-0.7-1.5-1.1-2.1
		c-0.5-0.6-1.1-1.1-1.7-1.4c-0.7-0.3-1.4-0.5-2.1-0.5s-1.5,0.2-2.1,0.5c-0.7,0.3-1.2,0.8-1.7,1.4s-0.9,1.3-1.1,2.1
		C1246.8,161.1,1246.7,162,1246.7,163z"/>
	<path d="M1262.4,167.9c0.7,0.6,1.4,1,2.1,1.4c0.7,0.4,1.7,0.6,2.8,0.6c1.2,0,2.1-0.3,2.7-0.9s0.9-1.3,0.9-2.1
		c0-0.5-0.1-0.9-0.3-1.2s-0.5-0.7-0.9-0.9c-0.4-0.3-0.8-0.5-1.2-0.7c-0.4-0.2-0.9-0.4-1.3-0.5c-0.6-0.2-1.2-0.4-1.7-0.7
		c-0.6-0.2-1.1-0.5-1.6-0.8c-0.5-0.3-0.8-0.7-1.1-1.2c-0.3-0.5-0.4-1-0.4-1.7c0-0.6,0.1-1.1,0.3-1.6c0.2-0.5,0.5-0.9,1-1.3
		c0.4-0.4,0.9-0.7,1.5-0.9c0.6-0.2,1.3-0.3,2.1-0.3c0.8,0,1.6,0.1,2.4,0.4s1.4,0.7,2,1.1l-0.8,1c-0.5-0.4-1-0.7-1.6-1
		c-0.6-0.3-1.3-0.4-2-0.4c-0.6,0-1.1,0.1-1.5,0.2c-0.4,0.2-0.8,0.4-1.1,0.6c-0.3,0.3-0.5,0.6-0.6,0.9c-0.1,0.3-0.2,0.7-0.2,1
		c0,0.4,0.1,0.8,0.3,1.1c0.2,0.3,0.5,0.6,0.8,0.8c0.3,0.2,0.7,0.4,1.2,0.6c0.4,0.2,0.9,0.4,1.3,0.5c0.6,0.2,1.2,0.5,1.8,0.7
		c0.6,0.2,1.1,0.5,1.6,0.9c0.5,0.3,0.9,0.8,1.2,1.3c0.3,0.5,0.4,1.1,0.4,1.9c0,0.6-0.1,1.1-0.3,1.6c-0.2,0.5-0.6,1-1,1.4
		s-1,0.7-1.6,0.9c-0.6,0.2-1.4,0.3-2.2,0.3c-1.1,0-2.2-0.2-3.1-0.6c-1-0.4-1.8-0.9-2.4-1.5L1262.4,167.9z"/>
</g>
<g>
	<g>
		<rect x="786" y="75.4" fill="#1DB0DD" width="282.4" height="172.8"/>
	</g>
	<g>
		<polygon fill="#158BB5" points="958.2,248.1 786.1,248.1 786.1,207.5 1024,75.4 		"/>
	</g>
</g>
<g>
	<g>
		<rect x="89" y="319.3" fill="#FECD2F" width="282.4" height="172.8"/>
	</g>
	<g>
		<polygon fill="#DDB305" points="261.3,492 89.1,492 89.1,451.4 327.1,319.3 		"/>
	</g>
</g>
<g enable-background="new    ">
	<path d="M461.6,393.5h5.7c1.2,0,2.2,0.1,3.1,0.3c0.9,0.2,1.7,0.5,2.4,1c0.6,0.5,1.1,1.1,1.5,1.8c0.3,0.7,0.5,1.7,0.5,2.7
		c0,2.1-0.7,3.6-2,4.6c-1.3,1-3.1,1.5-5.5,1.5h-4.3v9h-1.5V393.5z M467,404.3c2.1,0,3.7-0.4,4.8-1.1c1-0.8,1.6-2,1.6-3.7
		c0-0.9-0.1-1.6-0.4-2.2c-0.3-0.6-0.7-1.1-1.2-1.4c-0.5-0.4-1.2-0.6-2-0.8c-0.8-0.1-1.7-0.2-2.8-0.2h-3.9v9.5H467z"/>
	<path d="M479.2,399.2h1.2l0.1,2.8h0.1c0.5-1,1.1-1.7,1.9-2.3c0.7-0.6,1.6-0.9,2.5-0.9c0.3,0,0.6,0,0.8,0.1c0.2,0,0.5,0.1,0.7,0.3
		l-0.3,1.3c-0.3-0.1-0.5-0.2-0.7-0.2c-0.2,0-0.4,0-0.7,0c-0.7,0-1.4,0.3-2.1,0.9c-0.8,0.6-1.4,1.6-2,3v10.4h-1.4V399.2z"/>
	<path d="M487.7,406.9c0-1.3,0.2-2.4,0.6-3.4c0.4-1,0.9-1.8,1.5-2.5c0.6-0.7,1.4-1.2,2.2-1.6c0.8-0.4,1.7-0.5,2.6-0.5
		c0.9,0,1.8,0.2,2.6,0.5c0.8,0.4,1.6,0.9,2.2,1.6c0.6,0.7,1.1,1.5,1.5,2.5c0.4,1,0.6,2.1,0.6,3.4s-0.2,2.4-0.6,3.4
		c-0.4,1-0.9,1.8-1.5,2.5c-0.6,0.7-1.4,1.2-2.2,1.6c-0.8,0.4-1.7,0.5-2.6,0.5c-0.9,0-1.8-0.2-2.6-0.5c-0.8-0.4-1.6-0.9-2.2-1.6
		c-0.6-0.7-1.1-1.5-1.5-2.5C487.9,409.3,487.7,408.2,487.7,406.9z M489.2,406.9c0,1,0.1,1.9,0.4,2.7c0.3,0.8,0.7,1.5,1.1,2.1
		s1,1.1,1.7,1.4c0.7,0.3,1.4,0.5,2.1,0.5c0.8,0,1.5-0.2,2.1-0.5c0.7-0.3,1.2-0.8,1.7-1.4s0.9-1.3,1.1-2.1s0.4-1.7,0.4-2.7
		c0-1-0.1-1.9-0.4-2.8c-0.3-0.8-0.7-1.5-1.1-2.1s-1-1.1-1.7-1.4c-0.7-0.3-1.4-0.5-2.1-0.5c-0.8,0-1.5,0.2-2.1,0.5
		c-0.7,0.3-1.2,0.8-1.7,1.4s-0.9,1.3-1.1,2.1C489.3,405,489.2,405.9,489.2,406.9z"/>
	<path d="M504.7,406.9c0-1.2,0.2-2.3,0.5-3.3c0.4-1,0.9-1.8,1.5-2.5c0.6-0.7,1.3-1.2,2.2-1.6c0.8-0.4,1.7-0.6,2.6-0.6
		c0.9,0,1.7,0.2,2.4,0.5c0.7,0.3,1.4,0.8,2.2,1.4l-0.1-2.8v-6.3h1.4v22.9h-1.2l-0.1-2H516c-0.6,0.6-1.3,1.2-2.2,1.6
		c-0.8,0.5-1.8,0.7-2.8,0.7c-1.9,0-3.5-0.7-4.6-2.1C505.3,411.5,504.7,409.5,504.7,406.9z M506.2,406.9c0,1,0.1,1.9,0.3,2.8
		c0.2,0.8,0.5,1.5,1,2.1c0.4,0.6,0.9,1,1.6,1.4c0.6,0.3,1.3,0.5,2.1,0.5c0.8,0,1.7-0.2,2.4-0.7s1.6-1.1,2.4-1.9v-9.1
		c-0.8-0.7-1.6-1.2-2.3-1.5c-0.7-0.3-1.4-0.4-2.2-0.4c-0.8,0-1.5,0.2-2.1,0.5c-0.7,0.3-1.2,0.8-1.7,1.4s-0.9,1.3-1.1,2.2
		C506.4,405.1,506.2,406,506.2,406.9z"/>
	<path d="M523.1,399.2h1.4v9.6c0,1.6,0.3,2.8,0.8,3.6c0.5,0.8,1.4,1.2,2.7,1.2c0.9,0,1.7-0.2,2.5-0.7c0.7-0.5,1.6-1.3,2.4-2.4v-11.3
		h1.4v15.3h-1.2l-0.2-2.5h-0.1c-0.7,0.9-1.5,1.6-2.4,2.1c-0.8,0.5-1.8,0.8-2.8,0.8c-1.6,0-2.8-0.5-3.5-1.4c-0.7-1-1.1-2.4-1.1-4.4
		V399.2z"/>
	<path d="M538.9,406.9c0-1.3,0.2-2.4,0.6-3.4c0.4-1,0.9-1.8,1.5-2.5s1.4-1.2,2.2-1.6c0.8-0.4,1.7-0.5,2.7-0.5c1.1,0,1.9,0.2,2.7,0.6
		c0.7,0.4,1.3,0.8,1.8,1.3l-0.8,1c-0.5-0.5-1-0.9-1.6-1.2c-0.6-0.3-1.3-0.5-2-0.5c-0.8,0-1.5,0.2-2.2,0.5c-0.7,0.3-1.3,0.8-1.7,1.4
		c-0.5,0.6-0.9,1.3-1.2,2.1c-0.3,0.8-0.4,1.7-0.4,2.8c0,1,0.1,1.9,0.4,2.7c0.3,0.8,0.6,1.5,1.1,2.1c0.5,0.6,1.1,1.1,1.7,1.4
		c0.7,0.3,1.4,0.5,2.3,0.5c0.8,0,1.6-0.2,2.2-0.5c0.7-0.3,1.3-0.8,1.8-1.2l0.7,1c-0.7,0.6-1.4,1.1-2.2,1.5c-0.8,0.4-1.7,0.6-2.7,0.6
		c-1,0-1.9-0.2-2.8-0.5c-0.8-0.4-1.6-0.9-2.2-1.6c-0.6-0.7-1.1-1.5-1.5-2.5C539,409.3,538.9,408.2,538.9,406.9z"/>
	<path d="M552.6,406.9c0-1.3,0.2-2.4,0.6-3.4c0.4-1,0.9-1.8,1.5-2.5s1.4-1.2,2.2-1.6c0.8-0.4,1.7-0.5,2.7-0.5c1.1,0,1.9,0.2,2.7,0.6
		c0.7,0.4,1.3,0.8,1.8,1.3l-0.8,1c-0.5-0.5-1-0.9-1.6-1.2c-0.6-0.3-1.3-0.5-2-0.5c-0.8,0-1.5,0.2-2.2,0.5c-0.7,0.3-1.3,0.8-1.7,1.4
		c-0.5,0.6-0.9,1.3-1.2,2.1c-0.3,0.8-0.4,1.7-0.4,2.8c0,1,0.1,1.9,0.4,2.7c0.3,0.8,0.6,1.5,1.1,2.1c0.5,0.6,1.1,1.1,1.7,1.4
		c0.7,0.3,1.4,0.5,2.3,0.5c0.8,0,1.6-0.2,2.2-0.5c0.7-0.3,1.3-0.8,1.8-1.2l0.7,1c-0.7,0.6-1.4,1.1-2.2,1.5c-0.8,0.4-1.7,0.6-2.7,0.6
		c-1,0-1.9-0.2-2.8-0.5c-0.8-0.4-1.6-0.9-2.2-1.6c-0.6-0.7-1.1-1.5-1.5-2.5C552.8,409.3,552.6,408.2,552.6,406.9z"/>
	<path d="M568.9,395.6c-0.4,0-0.7-0.1-0.9-0.3s-0.4-0.5-0.4-0.9c0-0.4,0.1-0.7,0.4-0.9s0.5-0.3,0.9-0.3c0.4,0,0.7,0.1,0.9,0.3
		s0.4,0.5,0.4,0.9c0,0.4-0.1,0.7-0.4,0.9S569.2,395.6,568.9,395.6z M568.2,399.2h1.4v15.3h-1.4V399.2z"/>
	<path d="M574.2,406.9c0-1.3,0.2-2.4,0.6-3.4c0.4-1,0.9-1.8,1.5-2.5c0.6-0.7,1.4-1.2,2.2-1.6c0.8-0.4,1.7-0.5,2.6-0.5
		c0.9,0,1.8,0.2,2.6,0.5c0.8,0.4,1.6,0.9,2.2,1.6c0.6,0.7,1.1,1.5,1.5,2.5c0.4,1,0.6,2.1,0.6,3.4s-0.2,2.4-0.6,3.4
		c-0.4,1-0.9,1.8-1.5,2.5c-0.6,0.7-1.4,1.2-2.2,1.6c-0.8,0.4-1.7,0.5-2.6,0.5c-0.9,0-1.8-0.2-2.6-0.5c-0.8-0.4-1.6-0.9-2.2-1.6
		c-0.6-0.7-1.1-1.5-1.5-2.5C574.4,409.3,574.2,408.2,574.2,406.9z M575.6,406.9c0,1,0.1,1.9,0.4,2.7c0.3,0.8,0.7,1.5,1.1,2.1
		s1,1.1,1.7,1.4c0.7,0.3,1.4,0.5,2.1,0.5c0.8,0,1.5-0.2,2.1-0.5c0.7-0.3,1.2-0.8,1.7-1.4s0.9-1.3,1.1-2.1s0.4-1.7,0.4-2.7
		c0-1-0.1-1.9-0.4-2.8c-0.3-0.8-0.7-1.5-1.1-2.1s-1-1.1-1.7-1.4c-0.7-0.3-1.4-0.5-2.1-0.5c-0.8,0-1.5,0.2-2.1,0.5
		c-0.7,0.3-1.2,0.8-1.7,1.4s-0.9,1.3-1.1,2.1C575.8,405,575.6,405.9,575.6,406.9z M580.4,396.3h-1.2l2.9-4.3h1.7L580.4,396.3z"/>
	<path d="M592.5,399.2h1.2l0.1,2.4h0.1c0.8-0.8,1.6-1.4,2.4-2c0.8-0.5,1.8-0.8,2.8-0.8c1.6,0,2.8,0.5,3.5,1.4c0.7,1,1.1,2.4,1.1,4.4
		v9.8h-1.4v-9.6c0-1.6-0.3-2.8-0.8-3.6c-0.5-0.8-1.4-1.2-2.7-1.2c-0.9,0-1.7,0.2-2.5,0.7c-0.7,0.5-1.6,1.2-2.5,2.1v11.5h-1.4V399.2z
		"/>
</g>
<g enable-background="new    ">
	<path d="M1170.2,414.5l-5.7-9.6h-4.5v9.6h-1.5v-21h6c1,0,2,0.1,2.8,0.3c0.8,0.2,1.6,0.5,2.2,1c0.6,0.4,1.1,1,1.4,1.7
		c0.3,0.7,0.5,1.5,0.5,2.5c0,1.7-0.5,3-1.4,3.9s-2.3,1.5-3.9,1.7l5.8,9.7H1170.2z M1164.2,403.7c1.9,0,3.3-0.4,4.3-1.1
		c1-0.8,1.5-1.9,1.5-3.5c0-1.6-0.5-2.7-1.5-3.3s-2.4-1-4.3-1h-4.2v8.9H1164.2z"/>
	<path d="M1174.6,406.9c0-1.3,0.2-2.4,0.6-3.4c0.4-1,0.9-1.8,1.5-2.5c0.6-0.7,1.3-1.2,2.1-1.6s1.6-0.6,2.5-0.6
		c1.8,0,3.3,0.6,4.3,1.8c1,1.2,1.6,3,1.6,5.2c0,0.2,0,0.4,0,0.6c0,0.2,0,0.4-0.1,0.6h-11c0,1,0.2,1.8,0.4,2.7
		c0.3,0.8,0.7,1.5,1.2,2.1s1.1,1,1.8,1.4c0.7,0.3,1.5,0.5,2.4,0.5c0.8,0,1.6-0.1,2.2-0.4s1.3-0.6,1.9-1l0.6,1.1
		c-0.6,0.4-1.3,0.7-2,1c-0.7,0.3-1.7,0.5-2.8,0.5c-1,0-1.9-0.2-2.8-0.5c-0.9-0.4-1.6-0.9-2.2-1.6c-0.6-0.7-1.1-1.5-1.5-2.5
		C1174.8,409.3,1174.6,408.2,1174.6,406.9z M1185.8,406c0-2-0.4-3.5-1.2-4.4c-0.8-1-1.9-1.5-3.3-1.5c-0.7,0-1.3,0.1-1.9,0.4
		c-0.6,0.3-1.1,0.7-1.6,1.2c-0.5,0.5-0.9,1.1-1.2,1.9c-0.3,0.7-0.5,1.6-0.6,2.5H1185.8z"/>
	<path d="M1191.3,391.6h1.4v21c0,0.3,0.1,0.6,0.2,0.7c0.1,0.2,0.3,0.2,0.5,0.2c0.1,0,0.1,0,0.2,0c0.1,0,0.2,0,0.4-0.1l0.3,1.1
		c-0.1,0-0.3,0.1-0.4,0.1s-0.3,0-0.6,0c-1.3,0-1.9-0.8-1.9-2.4V391.6z"/>
	<path d="M1197.9,410.7c0-1.7,0.8-3,2.4-3.8c1.6-0.9,4.1-1.5,7.5-1.9c0-0.6,0-1.2-0.1-1.7s-0.3-1.1-0.5-1.6
		c-0.3-0.5-0.6-0.8-1.1-1.1c-0.5-0.3-1.1-0.4-1.8-0.4c-1,0-2,0.2-2.8,0.6c-0.8,0.4-1.5,0.8-2,1.2l-0.6-1c0.3-0.2,0.6-0.4,1-0.6
		c0.4-0.2,0.8-0.4,1.3-0.6c0.5-0.2,1-0.4,1.6-0.5c0.6-0.1,1.2-0.2,1.8-0.2c0.9,0,1.7,0.2,2.3,0.5c0.6,0.3,1.1,0.7,1.5,1.3
		c0.4,0.5,0.7,1.2,0.8,1.9c0.2,0.7,0.2,1.5,0.2,2.3v9.8h-1.2l-0.2-2h-0.1c-0.8,0.6-1.6,1.2-2.5,1.6s-1.9,0.7-2.9,0.7
		c-0.6,0-1.2-0.1-1.7-0.3c-0.5-0.2-1-0.4-1.4-0.8c-0.4-0.3-0.7-0.8-1-1.3C1198.1,412,1197.9,411.4,1197.9,410.7z M1199.4,410.6
		c0,1.1,0.3,1.9,1,2.4s1.4,0.7,2.3,0.7c0.9,0,1.7-0.2,2.5-0.6s1.7-1,2.6-1.8V406c-1.6,0.2-2.9,0.4-4,0.7c-1.1,0.3-1.9,0.6-2.6,1
		s-1.1,0.8-1.4,1.3C1199.5,409.5,1199.4,410,1199.4,410.6z"/>
	<path d="M1213.4,406.9c0-1.3,0.2-2.4,0.6-3.4c0.4-1,0.9-1.8,1.5-2.5c0.6-0.7,1.4-1.2,2.2-1.6c0.8-0.4,1.7-0.5,2.7-0.5
		c1.1,0,1.9,0.2,2.7,0.6c0.7,0.4,1.3,0.8,1.8,1.3l-0.8,1c-0.5-0.5-1-0.9-1.6-1.2c-0.6-0.3-1.3-0.5-2-0.5c-0.8,0-1.5,0.2-2.2,0.5
		c-0.7,0.3-1.3,0.8-1.7,1.4c-0.5,0.6-0.9,1.3-1.2,2.1c-0.3,0.8-0.4,1.7-0.4,2.8c0,1,0.1,1.9,0.4,2.7c0.3,0.8,0.6,1.5,1.1,2.1
		c0.5,0.6,1.1,1.1,1.7,1.4s1.4,0.5,2.3,0.5c0.8,0,1.6-0.2,2.2-0.5c0.7-0.3,1.3-0.8,1.8-1.2l0.7,1c-0.7,0.6-1.4,1.1-2.2,1.5
		c-0.8,0.4-1.7,0.6-2.7,0.6c-1,0-1.9-0.2-2.8-0.5c-0.8-0.4-1.6-0.9-2.2-1.6c-0.6-0.7-1.1-1.5-1.5-2.5
		C1213.6,409.3,1213.4,408.2,1213.4,406.9z"/>
	<path d="M1229.7,395.6c-0.4,0-0.7-0.1-0.9-0.3c-0.2-0.2-0.4-0.5-0.4-0.9c0-0.4,0.1-0.7,0.4-0.9c0.2-0.2,0.5-0.3,0.9-0.3
		s0.7,0.1,0.9,0.3s0.4,0.5,0.4,0.9c0,0.4-0.1,0.7-0.4,0.9S1230,395.6,1229.7,395.6z M1229,399.2h1.4v15.3h-1.4V399.2z"/>
	<path d="M1235,406.9c0-1.3,0.2-2.4,0.6-3.4c0.4-1,0.9-1.8,1.5-2.5c0.6-0.7,1.4-1.2,2.2-1.6c0.8-0.4,1.7-0.5,2.6-0.5
		c0.9,0,1.8,0.2,2.6,0.5s1.6,0.9,2.2,1.6c0.6,0.7,1.1,1.5,1.5,2.5s0.6,2.1,0.6,3.4s-0.2,2.4-0.6,3.4c-0.4,1-0.9,1.8-1.5,2.5
		c-0.6,0.7-1.4,1.2-2.2,1.6s-1.7,0.5-2.6,0.5c-0.9,0-1.8-0.2-2.6-0.5c-0.8-0.4-1.6-0.9-2.2-1.6c-0.6-0.7-1.1-1.5-1.5-2.5
		C1235.1,409.3,1235,408.2,1235,406.9z M1236.4,406.9c0,1,0.1,1.9,0.4,2.7s0.7,1.5,1.1,2.1s1,1.1,1.7,1.4c0.7,0.3,1.4,0.5,2.1,0.5
		c0.8,0,1.5-0.2,2.1-0.5s1.2-0.8,1.7-1.4c0.5-0.6,0.9-1.3,1.1-2.1s0.4-1.7,0.4-2.7c0-1-0.1-1.9-0.4-2.8c-0.3-0.8-0.7-1.5-1.1-2.1
		c-0.5-0.6-1-1.1-1.7-1.4c-0.7-0.3-1.4-0.5-2.1-0.5c-0.8,0-1.5,0.2-2.1,0.5c-0.7,0.3-1.2,0.8-1.7,1.4s-0.9,1.3-1.1,2.1
		C1236.6,405,1236.4,405.9,1236.4,406.9z"/>
	<path d="M1253.2,399.2h1.2l0.1,2.4h0.1c0.8-0.8,1.6-1.4,2.4-2c0.8-0.5,1.8-0.8,2.8-0.8c1.6,0,2.8,0.5,3.5,1.4s1.1,2.4,1.1,4.4v9.8
		h-1.4v-9.6c0-1.6-0.3-2.8-0.8-3.6c-0.5-0.8-1.4-1.2-2.7-1.2c-0.9,0-1.7,0.2-2.5,0.7c-0.7,0.5-1.6,1.2-2.5,2.1v11.5h-1.4V399.2z"/>
	<path d="M1268.9,406.9c0-1.3,0.2-2.4,0.6-3.4c0.4-1,0.9-1.8,1.5-2.5c0.6-0.7,1.3-1.2,2.1-1.6s1.6-0.6,2.5-0.6
		c1.8,0,3.3,0.6,4.3,1.8c1,1.2,1.6,3,1.6,5.2c0,0.2,0,0.4,0,0.6c0,0.2,0,0.4-0.1,0.6h-11c0,1,0.2,1.8,0.4,2.7
		c0.3,0.8,0.7,1.5,1.2,2.1s1.1,1,1.8,1.4c0.7,0.3,1.5,0.5,2.4,0.5c0.8,0,1.6-0.1,2.2-0.4s1.3-0.6,1.9-1l0.6,1.1
		c-0.6,0.4-1.3,0.7-2,1c-0.7,0.3-1.7,0.5-2.8,0.5c-1,0-1.9-0.2-2.8-0.5c-0.9-0.4-1.6-0.9-2.2-1.6c-0.6-0.7-1.1-1.5-1.5-2.5
		C1269.1,409.3,1268.9,408.2,1268.9,406.9z M1280.1,406c0-2-0.4-3.5-1.2-4.4c-0.8-1-1.9-1.5-3.3-1.5c-0.7,0-1.3,0.1-1.9,0.4
		c-0.6,0.3-1.1,0.7-1.6,1.2c-0.5,0.5-0.9,1.1-1.2,1.9c-0.3,0.7-0.5,1.6-0.6,2.5H1280.1z"/>
	<path d="M1284.5,411.7c0.7,0.6,1.4,1,2.1,1.4c0.7,0.4,1.7,0.6,2.8,0.6c1.2,0,2.1-0.3,2.7-0.9s0.9-1.3,0.9-2.1
		c0-0.5-0.1-0.9-0.3-1.2s-0.5-0.7-0.9-0.9c-0.4-0.3-0.8-0.5-1.2-0.7c-0.4-0.2-0.9-0.4-1.3-0.5c-0.6-0.2-1.2-0.4-1.7-0.7
		c-0.6-0.2-1.1-0.5-1.6-0.8c-0.5-0.3-0.8-0.7-1.1-1.2c-0.3-0.5-0.4-1-0.4-1.7c0-0.6,0.1-1.1,0.3-1.6c0.2-0.5,0.5-0.9,1-1.3
		c0.4-0.4,0.9-0.7,1.5-0.9c0.6-0.2,1.3-0.3,2.1-0.3c0.8,0,1.6,0.1,2.4,0.4s1.4,0.7,2,1.1l-0.8,1c-0.5-0.4-1-0.7-1.6-1
		c-0.6-0.3-1.3-0.4-2-0.4c-0.6,0-1.1,0.1-1.5,0.2c-0.4,0.2-0.8,0.4-1.1,0.6c-0.3,0.3-0.5,0.6-0.6,0.9c-0.1,0.3-0.2,0.7-0.2,1
		c0,0.4,0.1,0.8,0.3,1.1c0.2,0.3,0.5,0.6,0.8,0.8c0.3,0.2,0.7,0.4,1.2,0.6c0.4,0.2,0.9,0.4,1.3,0.5c0.6,0.2,1.2,0.5,1.8,0.7
		c0.6,0.2,1.1,0.5,1.6,0.9c0.5,0.3,0.9,0.8,1.2,1.3c0.3,0.5,0.4,1.1,0.4,1.9c0,0.6-0.1,1.1-0.3,1.6c-0.2,0.5-0.6,1-1,1.4
		s-1,0.7-1.6,0.9c-0.6,0.2-1.4,0.3-2.2,0.3c-1.1,0-2.2-0.2-3.1-0.6c-1-0.4-1.8-0.9-2.4-1.5L1284.5,411.7z"/>
	<path d="M1304.9,393.5h5.7c1.2,0,2.2,0.1,3.1,0.3c0.9,0.2,1.7,0.5,2.4,1c0.6,0.5,1.1,1.1,1.5,1.8c0.3,0.7,0.5,1.7,0.5,2.7
		c0,2.1-0.7,3.6-2,4.6c-1.3,1-3.1,1.5-5.5,1.5h-4.3v9h-1.5V393.5z M1310.3,404.3c2.1,0,3.7-0.4,4.8-1.1c1-0.8,1.6-2,1.6-3.7
		c0-0.9-0.1-1.6-0.4-2.2c-0.3-0.6-0.7-1.1-1.2-1.4s-1.2-0.6-2-0.8c-0.8-0.1-1.7-0.2-2.8-0.2h-3.9v9.5H1310.3z"/>
	<path d="M1322.3,399.2h1.4v9.6c0,1.6,0.3,2.8,0.8,3.6c0.5,0.8,1.4,1.2,2.7,1.2c0.9,0,1.7-0.2,2.5-0.7c0.7-0.5,1.6-1.3,2.4-2.4
		v-11.3h1.4v15.3h-1.2l-0.2-2.5h-0.1c-0.7,0.9-1.5,1.6-2.4,2.1c-0.8,0.5-1.8,0.8-2.8,0.8c-1.6,0-2.8-0.5-3.5-1.4
		c-0.7-1-1.1-2.4-1.1-4.4V399.2z M1327.4,396.3h-1.2l2.9-4.3h1.7L1327.4,396.3z"/>
	<path d="M1339.3,391.6h1.4v6.6l-0.1,3c0.8-0.7,1.6-1.2,2.5-1.7c0.9-0.5,1.8-0.7,2.8-0.7c2,0,3.6,0.7,4.6,2.1c1,1.4,1.5,3.3,1.5,5.7
		c0,1.3-0.2,2.4-0.5,3.5c-0.4,1-0.9,1.9-1.5,2.6c-0.6,0.7-1.3,1.3-2.2,1.6c-0.8,0.4-1.7,0.6-2.6,0.6c-0.7,0-1.5-0.2-2.3-0.5
		s-1.6-0.8-2.3-1.3h-0.1l-0.2,1.4h-1.2V391.6z M1340.7,411.7c0.8,0.7,1.7,1.2,2.4,1.5s1.5,0.4,2.1,0.4c0.8,0,1.5-0.2,2.1-0.5
		c0.7-0.3,1.2-0.8,1.7-1.4s0.8-1.4,1.1-2.2c0.3-0.9,0.4-1.8,0.4-2.8c0-0.9-0.1-1.8-0.3-2.6s-0.5-1.5-0.8-2.1s-0.9-1-1.5-1.4
		c-0.6-0.3-1.4-0.5-2.2-0.5c-0.8,0-1.6,0.2-2.4,0.7s-1.7,1.1-2.6,1.9V411.7z"/>
	<path d="M1356.6,391.6h1.4v21c0,0.3,0.1,0.6,0.2,0.7c0.1,0.2,0.3,0.2,0.5,0.2c0.1,0,0.1,0,0.2,0s0.2,0,0.4-0.1l0.3,1.1
		c-0.1,0-0.3,0.1-0.4,0.1s-0.3,0-0.6,0c-1.3,0-1.9-0.8-1.9-2.4V391.6z"/>
	<path d="M1364.9,395.6c-0.4,0-0.7-0.1-0.9-0.3s-0.4-0.5-0.4-0.9c0-0.4,0.1-0.7,0.4-0.9s0.5-0.3,0.9-0.3c0.4,0,0.7,0.1,0.9,0.3
		c0.2,0.2,0.4,0.5,0.4,0.9c0,0.4-0.1,0.7-0.4,0.9C1365.6,395.4,1365.3,395.6,1364.9,395.6z M1364.2,399.2h1.4v15.3h-1.4V399.2z"/>
	<path d="M1370.2,406.9c0-1.3,0.2-2.4,0.6-3.4c0.4-1,0.9-1.8,1.5-2.5c0.6-0.7,1.4-1.2,2.2-1.6s1.7-0.5,2.7-0.5
		c1.1,0,1.9,0.2,2.7,0.6c0.7,0.4,1.3,0.8,1.8,1.3l-0.8,1c-0.5-0.5-1-0.9-1.6-1.2s-1.3-0.5-2-0.5c-0.8,0-1.5,0.2-2.2,0.5
		c-0.7,0.3-1.3,0.8-1.8,1.4s-0.9,1.3-1.2,2.1c-0.3,0.8-0.4,1.7-0.4,2.8c0,1,0.1,1.9,0.4,2.7s0.6,1.5,1.1,2.1
		c0.5,0.6,1.1,1.1,1.8,1.4c0.7,0.3,1.4,0.5,2.3,0.5c0.8,0,1.6-0.2,2.2-0.5c0.7-0.3,1.3-0.8,1.8-1.2l0.7,1c-0.7,0.6-1.4,1.1-2.2,1.5
		c-0.8,0.4-1.7,0.6-2.7,0.6c-1,0-1.9-0.2-2.8-0.5s-1.6-0.9-2.2-1.6c-0.6-0.7-1.1-1.5-1.5-2.5
		C1370.4,409.3,1370.2,408.2,1370.2,406.9z"/>
	<path d="M1384.6,410.7c0-1.7,0.8-3,2.4-3.8c1.6-0.9,4.1-1.5,7.5-1.9c0-0.6,0-1.2-0.1-1.7s-0.3-1.1-0.5-1.6
		c-0.3-0.5-0.6-0.8-1.1-1.1c-0.5-0.3-1.1-0.4-1.8-0.4c-1,0-2,0.2-2.8,0.6c-0.8,0.4-1.5,0.8-2,1.2l-0.6-1c0.3-0.2,0.6-0.4,1-0.6
		c0.4-0.2,0.8-0.4,1.3-0.6c0.5-0.2,1-0.4,1.6-0.5c0.6-0.1,1.2-0.2,1.8-0.2c0.9,0,1.7,0.2,2.3,0.5c0.6,0.3,1.1,0.7,1.5,1.3
		c0.4,0.5,0.7,1.2,0.8,1.9c0.2,0.7,0.2,1.5,0.2,2.3v9.8h-1.2l-0.2-2h-0.1c-0.8,0.6-1.6,1.2-2.5,1.6s-1.9,0.7-2.9,0.7
		c-0.6,0-1.2-0.1-1.7-0.3c-0.5-0.2-1-0.4-1.4-0.8c-0.4-0.3-0.7-0.8-1-1.3C1384.7,412,1384.6,411.4,1384.6,410.7z M1386,410.6
		c0,1.1,0.3,1.9,1,2.4s1.4,0.7,2.3,0.7c0.9,0,1.7-0.2,2.5-0.6s1.7-1,2.6-1.8V406c-1.6,0.2-2.9,0.4-4,0.7c-1.1,0.3-1.9,0.6-2.6,1
		s-1.1,0.8-1.4,1.3C1386.2,409.5,1386,410,1386,410.6z"/>
	<path d="M1400.2,411.7c0.7,0.6,1.4,1,2.1,1.4c0.7,0.4,1.7,0.6,2.8,0.6c1.2,0,2.1-0.3,2.7-0.9c0.6-0.6,0.9-1.3,0.9-2.1
		c0-0.5-0.1-0.9-0.3-1.2s-0.5-0.7-0.9-0.9c-0.4-0.3-0.8-0.5-1.2-0.7c-0.4-0.2-0.9-0.4-1.3-0.5c-0.6-0.2-1.2-0.4-1.7-0.7
		s-1.1-0.5-1.6-0.8s-0.8-0.7-1.1-1.2s-0.4-1-0.4-1.7c0-0.6,0.1-1.1,0.3-1.6c0.2-0.5,0.5-0.9,1-1.3c0.4-0.4,0.9-0.7,1.5-0.9
		c0.6-0.2,1.3-0.3,2.1-0.3c0.8,0,1.6,0.1,2.4,0.4c0.8,0.3,1.4,0.7,2,1.1l-0.8,1c-0.5-0.4-1-0.7-1.6-1c-0.6-0.3-1.3-0.4-2-0.4
		c-0.6,0-1.1,0.1-1.5,0.2s-0.8,0.4-1.1,0.6c-0.3,0.3-0.5,0.6-0.6,0.9c-0.1,0.3-0.2,0.7-0.2,1c0,0.4,0.1,0.8,0.3,1.1
		c0.2,0.3,0.5,0.6,0.8,0.8c0.3,0.2,0.7,0.4,1.2,0.6c0.4,0.2,0.9,0.4,1.3,0.5c0.6,0.2,1.2,0.5,1.8,0.7s1.1,0.5,1.6,0.9
		c0.5,0.3,0.9,0.8,1.2,1.3c0.3,0.5,0.4,1.1,0.4,1.9c0,0.6-0.1,1.1-0.3,1.6c-0.2,0.5-0.6,1-1,1.4s-1,0.7-1.6,0.9
		c-0.6,0.2-1.4,0.3-2.2,0.3c-1.1,0-2.2-0.2-3.1-0.6c-1-0.4-1.8-0.9-2.4-1.5L1400.2,411.7z"/>
</g>
<g>
	<g>
		<rect x="786" y="319.3" fill="#684B9B" width="282.4" height="172.8"/>
	</g>
	<g>
		<polygon fill="#513D6F" points="958.2,492 786.1,492 786.1,451.4 1024,319.3 		"/>
	</g>
</g>
<g enable-background="new    ">
	<path d="M461.6,637.4h5.7c1.2,0,2.2,0.1,3.1,0.3c0.9,0.2,1.7,0.5,2.4,1c0.6,0.5,1.1,1.1,1.5,1.8c0.3,0.7,0.5,1.7,0.5,2.7
		c0,2.1-0.7,3.6-2,4.6c-1.3,1-3.1,1.5-5.5,1.5h-4.3v9h-1.5V637.4z M467,648.2c2.1,0,3.7-0.4,4.8-1.1c1-0.8,1.6-2,1.6-3.7
		c0-0.9-0.1-1.6-0.4-2.2c-0.3-0.6-0.7-1.1-1.2-1.4c-0.5-0.4-1.2-0.6-2-0.8c-0.8-0.1-1.7-0.2-2.8-0.2h-3.9v9.5H467z"/>
	<path d="M479.2,643.1h1.2l0.1,2.8h0.1c0.5-1,1.1-1.7,1.9-2.3c0.7-0.6,1.6-0.9,2.5-0.9c0.3,0,0.6,0,0.8,0.1c0.2,0,0.5,0.1,0.7,0.3
		l-0.3,1.3c-0.3-0.1-0.5-0.2-0.7-0.2c-0.2,0-0.4,0-0.7,0c-0.7,0-1.4,0.3-2.1,0.9c-0.8,0.6-1.4,1.6-2,3v10.4h-1.4V643.1z"/>
	<path d="M487.7,650.8c0-1.3,0.2-2.4,0.6-3.4c0.4-1,0.9-1.8,1.5-2.5c0.6-0.7,1.3-1.2,2.1-1.6c0.8-0.4,1.6-0.6,2.5-0.6
		c1.8,0,3.3,0.6,4.3,1.8c1,1.2,1.6,3,1.6,5.2c0,0.2,0,0.4,0,0.6c0,0.2,0,0.4-0.1,0.6h-11c0,1,0.2,1.8,0.4,2.7
		c0.3,0.8,0.7,1.5,1.2,2.1c0.5,0.6,1.1,1,1.8,1.4c0.7,0.3,1.5,0.5,2.4,0.5c0.8,0,1.6-0.1,2.2-0.4c0.7-0.2,1.3-0.6,1.9-1l0.6,1.1
		c-0.6,0.4-1.3,0.7-2,1c-0.7,0.3-1.7,0.5-2.8,0.5c-1,0-1.9-0.2-2.8-0.5c-0.9-0.4-1.6-0.9-2.2-1.6c-0.6-0.7-1.1-1.5-1.5-2.5
		C487.9,653.2,487.7,652,487.7,650.8z M498.9,649.9c0-2-0.4-3.5-1.2-4.4c-0.8-1-1.9-1.5-3.3-1.5c-0.7,0-1.3,0.1-1.9,0.4
		c-0.6,0.3-1.1,0.7-1.6,1.2c-0.5,0.5-0.9,1.1-1.2,1.9c-0.3,0.7-0.5,1.6-0.6,2.5H498.9z"/>
	<path d="M504.4,643.1h1.2l0.1,2.4h0.1c0.8-0.8,1.6-1.4,2.4-2c0.8-0.5,1.8-0.8,2.8-0.8c1.6,0,2.8,0.5,3.5,1.4c0.7,1,1.1,2.4,1.1,4.4
		v9.8h-1.4v-9.6c0-1.6-0.3-2.8-0.8-3.6c-0.5-0.8-1.4-1.2-2.7-1.2c-0.9,0-1.7,0.2-2.5,0.7c-0.7,0.5-1.6,1.2-2.5,2.1v11.5h-1.4V643.1z
		"/>
	<path d="M520.2,655.6c0.7,0.6,1.4,1,2.1,1.4c0.7,0.4,1.7,0.6,2.8,0.6c1.2,0,2.1-0.3,2.7-0.9c0.6-0.6,0.9-1.3,0.9-2.1
		c0-0.5-0.1-0.9-0.3-1.2s-0.5-0.7-0.9-0.9c-0.4-0.3-0.8-0.5-1.2-0.7c-0.4-0.2-0.9-0.4-1.3-0.5c-0.6-0.2-1.2-0.4-1.7-0.7
		c-0.6-0.2-1.1-0.5-1.6-0.8s-0.8-0.7-1.1-1.2s-0.4-1-0.4-1.7c0-0.6,0.1-1.1,0.3-1.6c0.2-0.5,0.5-0.9,1-1.3c0.4-0.4,0.9-0.7,1.5-0.9
		c0.6-0.2,1.3-0.3,2.1-0.3c0.8,0,1.6,0.1,2.4,0.4c0.8,0.3,1.4,0.7,2,1.1l-0.8,1c-0.5-0.4-1-0.7-1.6-1c-0.6-0.3-1.3-0.4-2-0.4
		c-0.6,0-1.1,0.1-1.5,0.2c-0.4,0.2-0.8,0.4-1.1,0.6c-0.3,0.3-0.5,0.6-0.6,0.9c-0.1,0.3-0.2,0.7-0.2,1c0,0.4,0.1,0.8,0.3,1.1
		c0.2,0.3,0.5,0.6,0.8,0.8c0.3,0.2,0.7,0.4,1.2,0.6c0.4,0.2,0.9,0.4,1.3,0.5c0.6,0.2,1.2,0.5,1.8,0.7c0.6,0.2,1.1,0.5,1.6,0.9
		c0.5,0.3,0.9,0.8,1.2,1.3c0.3,0.5,0.4,1.1,0.4,1.9c0,0.6-0.1,1.1-0.3,1.6c-0.2,0.5-0.6,1-1,1.4s-1,0.7-1.6,0.9
		c-0.6,0.2-1.4,0.3-2.2,0.3c-1.1,0-2.2-0.2-3.1-0.6c-1-0.4-1.8-0.9-2.4-1.5L520.2,655.6z"/>
	<path d="M533.3,654.6c0-1.7,0.8-3,2.4-3.8s4.1-1.5,7.5-1.9c0-0.6,0-1.2-0.1-1.7c-0.1-0.6-0.3-1.1-0.5-1.6s-0.6-0.8-1.1-1.1
		c-0.5-0.3-1.1-0.4-1.8-0.4c-1,0-2,0.2-2.8,0.6c-0.8,0.4-1.5,0.8-2,1.2l-0.6-1c0.3-0.2,0.6-0.4,1-0.6c0.4-0.2,0.8-0.4,1.3-0.6
		c0.5-0.2,1-0.4,1.6-0.5c0.6-0.1,1.2-0.2,1.8-0.2c0.9,0,1.7,0.2,2.3,0.5c0.6,0.3,1.1,0.7,1.5,1.3s0.7,1.2,0.8,1.9
		c0.2,0.7,0.2,1.5,0.2,2.3v9.8h-1.2l-0.2-2h-0.1c-0.8,0.6-1.6,1.2-2.5,1.6c-0.9,0.5-1.9,0.7-2.9,0.7c-0.6,0-1.2-0.1-1.7-0.3
		c-0.5-0.2-1-0.4-1.4-0.8s-0.7-0.8-1-1.3C533.4,655.9,533.3,655.3,533.3,654.6z M534.8,654.5c0,1.1,0.3,1.9,1,2.4
		c0.6,0.5,1.4,0.7,2.3,0.7c0.9,0,1.7-0.2,2.5-0.6c0.8-0.4,1.7-1,2.6-1.8v-5.2c-1.6,0.2-2.9,0.4-4,0.7c-1.1,0.3-1.9,0.6-2.6,1
		s-1.1,0.8-1.4,1.3C534.9,653.4,534.8,653.9,534.8,654.5z"/>
	<path d="M555.1,664c0.2,0.1,0.4,0.1,0.7,0.1c1,0,1.7-0.4,2.4-1.1c0.6-0.8,1.1-1.7,1.5-2.9l0.4-1.3l-6.3-15.6h1.5l3.7,9.6
		c0.2,0.6,0.5,1.3,0.8,2.1c0.3,0.8,0.6,1.5,0.9,2.2h0.1c0.2-0.7,0.5-1.4,0.7-2.2c0.2-0.8,0.5-1.5,0.7-2.1l3.3-9.6h1.4l-6,17.2
		c-0.2,0.6-0.5,1.3-0.8,1.9c-0.3,0.6-0.7,1.1-1.1,1.6c-0.4,0.5-0.9,0.9-1.4,1.1c-0.5,0.3-1.2,0.4-1.8,0.4c-0.6,0-1.1-0.1-1.6-0.3
		l0.3-1.2C554.7,663.9,554.9,663.9,555.1,664z"/>
	<path d="M576.7,637.4h4.9c1.6,0,3,0.2,4.2,0.7c1.2,0.5,2.2,1.2,3,2.1c0.8,0.9,1.4,2,1.7,3.3c0.4,1.3,0.6,2.7,0.6,4.3
		c0,1.6-0.2,3-0.6,4.3c-0.4,1.3-1,2.4-1.7,3.3c-0.8,0.9-1.8,1.6-3,2.1c-1.2,0.5-2.6,0.7-4.2,0.7h-4.9V637.4z M581.4,657.2
		c1.4,0,2.6-0.2,3.7-0.7c1-0.5,1.9-1.1,2.5-1.9c0.7-0.8,1.1-1.8,1.5-2.9c0.3-1.1,0.5-2.4,0.5-3.8c0-1.4-0.2-2.6-0.5-3.7
		s-0.8-2.1-1.5-2.9c-0.7-0.8-1.5-1.4-2.5-1.9c-1-0.4-2.3-0.7-3.7-0.7h-3.2v18.5H581.4z"/>
	<path d="M596.5,639.4c-0.4,0-0.7-0.1-0.9-0.3s-0.4-0.5-0.4-0.9c0-0.4,0.1-0.7,0.4-0.9s0.5-0.3,0.9-0.3c0.4,0,0.7,0.1,0.9,0.3
		s0.4,0.5,0.4,0.9c0,0.4-0.1,0.7-0.4,0.9S596.9,639.4,596.5,639.4z M595.8,643.1h1.4v15.3h-1.4V643.1z"/>
	<path d="M608.9,636.8c-0.3-0.2-0.6-0.3-0.9-0.3c-0.3-0.1-0.6-0.1-0.9-0.1c-0.8,0-1.4,0.3-1.8,0.9c-0.4,0.6-0.6,1.5-0.6,2.6v3.3h3.5
		v1.2h-3.5v14.1h-1.4v-14.1h-2.1v-1.1l2.1-0.1v-3.4c0-1.5,0.3-2.7,1-3.4c0.7-0.8,1.6-1.1,2.8-1.1c0.7,0,1.5,0.2,2.2,0.5L608.9,636.8
		z"/>
	<path d="M610.5,643.1h1.4v9.6c0,1.6,0.3,2.8,0.8,3.6c0.5,0.8,1.4,1.2,2.7,1.2c0.9,0,1.7-0.2,2.5-0.7c0.7-0.5,1.6-1.3,2.4-2.4v-11.3
		h1.4v15.3h-1.2l-0.2-2.5h-0.1c-0.7,0.9-1.5,1.6-2.4,2.1c-0.8,0.5-1.8,0.8-2.8,0.8c-1.6,0-2.8-0.5-3.5-1.4c-0.7-1-1.1-2.4-1.1-4.4
		V643.1z"/>
	<path d="M626.5,655.6c0.7,0.6,1.4,1,2.1,1.4c0.7,0.4,1.7,0.6,2.8,0.6c1.2,0,2.1-0.3,2.7-0.9c0.6-0.6,0.9-1.3,0.9-2.1
		c0-0.5-0.1-0.9-0.3-1.2s-0.5-0.7-0.9-0.9c-0.4-0.3-0.8-0.5-1.2-0.7c-0.4-0.2-0.9-0.4-1.3-0.5c-0.6-0.2-1.2-0.4-1.7-0.7
		c-0.6-0.2-1.1-0.5-1.6-0.8s-0.8-0.7-1.1-1.2s-0.4-1-0.4-1.7c0-0.6,0.1-1.1,0.3-1.6c0.2-0.5,0.5-0.9,1-1.3c0.4-0.4,0.9-0.7,1.5-0.9
		c0.6-0.2,1.3-0.3,2.1-0.3c0.8,0,1.6,0.1,2.4,0.4c0.8,0.3,1.4,0.7,2,1.1l-0.8,1c-0.5-0.4-1-0.7-1.6-1c-0.6-0.3-1.3-0.4-2-0.4
		c-0.6,0-1.1,0.1-1.5,0.2c-0.4,0.2-0.8,0.4-1.1,0.6c-0.3,0.3-0.5,0.6-0.6,0.9c-0.1,0.3-0.2,0.7-0.2,1c0,0.4,0.1,0.8,0.3,1.1
		c0.2,0.3,0.5,0.6,0.8,0.8c0.3,0.2,0.7,0.4,1.2,0.6c0.4,0.2,0.9,0.4,1.3,0.5c0.6,0.2,1.2,0.5,1.8,0.7c0.6,0.2,1.1,0.5,1.6,0.9
		c0.5,0.3,0.9,0.8,1.2,1.3c0.3,0.5,0.4,1.1,0.4,1.9c0,0.6-0.1,1.1-0.3,1.6c-0.2,0.5-0.6,1-1,1.4s-1,0.7-1.6,0.9
		c-0.6,0.2-1.4,0.3-2.2,0.3c-1.1,0-2.2-0.2-3.1-0.6c-1-0.4-1.8-0.9-2.4-1.5L626.5,655.6z"/>
	<path d="M641.1,639.4c-0.4,0-0.7-0.1-0.9-0.3s-0.4-0.5-0.4-0.9c0-0.4,0.1-0.7,0.4-0.9s0.5-0.3,0.9-0.3c0.4,0,0.7,0.1,0.9,0.3
		s0.4,0.5,0.4,0.9c0,0.4-0.1,0.7-0.4,0.9S641.5,639.4,641.1,639.4z M640.4,643.1h1.4v15.3h-1.4V643.1z"/>
	<path d="M646.4,650.8c0-1.3,0.2-2.4,0.6-3.4c0.4-1,0.9-1.8,1.5-2.5c0.6-0.7,1.4-1.2,2.2-1.6c0.8-0.4,1.7-0.5,2.6-0.5
		c0.9,0,1.8,0.2,2.6,0.5c0.8,0.4,1.6,0.9,2.2,1.6c0.6,0.7,1.1,1.5,1.5,2.5c0.4,1,0.6,2.1,0.6,3.4s-0.2,2.4-0.6,3.4
		c-0.4,1-0.9,1.8-1.5,2.5c-0.6,0.7-1.4,1.2-2.2,1.6c-0.8,0.4-1.7,0.5-2.6,0.5c-0.9,0-1.8-0.2-2.6-0.5c-0.8-0.4-1.6-0.9-2.2-1.6
		c-0.6-0.7-1.1-1.5-1.5-2.5C646.6,653.2,646.4,652.1,646.4,650.8z M647.9,650.8c0,1,0.1,1.9,0.4,2.7c0.3,0.8,0.7,1.5,1.1,2.1
		s1,1.1,1.7,1.4c0.7,0.3,1.4,0.5,2.1,0.5c0.8,0,1.5-0.2,2.1-0.5c0.7-0.3,1.2-0.8,1.7-1.4s0.9-1.3,1.1-2.1s0.4-1.7,0.4-2.7
		c0-1-0.1-1.9-0.4-2.8c-0.3-0.8-0.7-1.5-1.1-2.1s-1-1.1-1.7-1.4c-0.7-0.3-1.4-0.5-2.1-0.5c-0.8,0-1.5,0.2-2.1,0.5
		c-0.7,0.3-1.2,0.8-1.7,1.4s-0.9,1.3-1.1,2.1C648,648.9,647.9,649.8,647.9,650.8z M652.7,640.2h-1.2l2.9-4.3h1.7L652.7,640.2z"/>
	<path d="M664.7,643.1h1.2l0.1,2.4h0.1c0.8-0.8,1.6-1.4,2.4-2c0.8-0.5,1.8-0.8,2.8-0.8c1.6,0,2.8,0.5,3.5,1.4c0.7,1,1.1,2.4,1.1,4.4
		v9.8h-1.4v-9.6c0-1.6-0.3-2.8-0.8-3.6c-0.5-0.8-1.4-1.2-2.7-1.2c-0.9,0-1.7,0.2-2.5,0.7c-0.7,0.5-1.6,1.2-2.5,2.1v11.5h-1.4V643.1z
		"/>
</g>
<g>
	<g>
		<rect x="89" y="563.2" fill="#F47E24" width="282.4" height="172.8"/>
	</g>
	<g>
		<polygon fill="#D46F2C" points="261.3,735.9 89.1,735.9 89.1,695.3 327.1,563.2 		"/>
	</g>
</g>
<g enable-background="new    ">
	<path d="M1158.6,637.4h5.7c1.2,0,2.2,0.1,3.1,0.3c0.9,0.2,1.7,0.5,2.4,1c0.6,0.5,1.1,1.1,1.5,1.8s0.5,1.7,0.5,2.7
		c0,2.1-0.7,3.6-2,4.6c-1.3,1-3.1,1.5-5.5,1.5h-4.3v9h-1.5V637.4z M1163.9,648.2c2.1,0,3.7-0.4,4.8-1.1c1-0.8,1.6-2,1.6-3.7
		c0-0.9-0.1-1.6-0.4-2.2c-0.3-0.6-0.7-1.1-1.2-1.4c-0.5-0.4-1.2-0.6-2-0.8c-0.8-0.1-1.7-0.2-2.8-0.2h-3.9v9.5H1163.9z"/>
	<path d="M1176.2,643.1h1.2l0.1,2.8h0.1c0.5-1,1.1-1.7,1.9-2.3c0.7-0.6,1.6-0.9,2.5-0.9c0.3,0,0.6,0,0.8,0.1c0.2,0,0.5,0.1,0.7,0.3
		l-0.3,1.3c-0.3-0.1-0.5-0.2-0.7-0.2c-0.2,0-0.4,0-0.7,0c-0.7,0-1.4,0.3-2.1,0.9c-0.8,0.6-1.4,1.6-2,3v10.4h-1.4V643.1z"/>
	<path d="M1184.7,650.8c0-1.3,0.2-2.4,0.6-3.4s0.9-1.8,1.5-2.5c0.6-0.7,1.4-1.2,2.2-1.6c0.8-0.4,1.7-0.5,2.6-0.5
		c0.9,0,1.8,0.2,2.6,0.5s1.6,0.9,2.2,1.6c0.6,0.7,1.1,1.5,1.5,2.5s0.6,2.1,0.6,3.4s-0.2,2.4-0.6,3.4c-0.4,1-0.9,1.8-1.5,2.5
		c-0.6,0.7-1.4,1.2-2.2,1.6s-1.7,0.5-2.6,0.5c-0.9,0-1.8-0.2-2.6-0.5c-0.8-0.4-1.6-0.9-2.2-1.6c-0.6-0.7-1.1-1.5-1.5-2.5
		C1184.9,653.2,1184.7,652.1,1184.7,650.8z M1186.1,650.8c0,1,0.1,1.9,0.4,2.7s0.7,1.5,1.1,2.1c0.5,0.6,1,1.1,1.7,1.4
		s1.4,0.5,2.1,0.5c0.8,0,1.5-0.2,2.1-0.5c0.7-0.3,1.2-0.8,1.7-1.4s0.9-1.3,1.1-2.1s0.4-1.7,0.4-2.7c0-1-0.1-1.9-0.4-2.8
		c-0.3-0.8-0.7-1.5-1.1-2.1s-1-1.1-1.7-1.4c-0.7-0.3-1.4-0.5-2.1-0.5c-0.8,0-1.5,0.2-2.1,0.5c-0.7,0.3-1.2,0.8-1.7,1.4
		c-0.5,0.6-0.9,1.3-1.1,2.1C1186.3,648.9,1186.1,649.8,1186.1,650.8z"/>
	<path d="M1201.7,661.5c0-0.7,0.2-1.3,0.6-2c0.4-0.6,1-1.2,1.7-1.7v-0.1c-0.4-0.2-0.7-0.6-1-1c-0.3-0.4-0.4-0.9-0.4-1.5
		c0-0.7,0.2-1.3,0.6-1.7c0.4-0.5,0.7-0.8,1.1-1.1v-0.1c-0.5-0.4-0.9-1-1.3-1.7c-0.4-0.7-0.6-1.5-0.6-2.5c0-0.8,0.1-1.5,0.4-2.2
		s0.7-1.2,1.1-1.7c0.5-0.5,1.1-0.8,1.7-1.1c0.7-0.3,1.4-0.4,2.1-0.4c0.4,0,0.8,0,1.1,0.1s0.6,0.2,0.9,0.3h5.2v1.2h-3.6
		c0.5,0.4,0.9,1,1.2,1.6c0.3,0.7,0.5,1.4,0.5,2.2c0,0.8-0.1,1.5-0.4,2.2s-0.7,1.2-1.1,1.7c-0.5,0.5-1,0.8-1.7,1.1
		c-0.6,0.3-1.3,0.4-2.1,0.4c-0.4,0-0.9-0.1-1.3-0.2c-0.5-0.1-0.9-0.3-1.2-0.5c-0.3,0.3-0.6,0.6-0.9,0.9c-0.2,0.3-0.4,0.8-0.4,1.3
		c0,0.6,0.2,1,0.6,1.4c0.4,0.4,1.2,0.6,2.3,0.6h3.3c1.7,0,3,0.3,3.8,0.8s1.2,1.4,1.2,2.7c0,0.7-0.2,1.3-0.5,1.9
		c-0.3,0.6-0.8,1.2-1.4,1.7c-0.6,0.5-1.4,0.9-2.3,1.1s-1.9,0.4-3,0.4c-1.9,0-3.5-0.4-4.6-1.1
		C1202.3,663.8,1201.7,662.8,1201.7,661.5z M1203,661.4c0,1,0.4,1.7,1.3,2.3s2.1,0.9,3.8,0.9c0.8,0,1.6-0.1,2.3-0.3s1.3-0.5,1.8-0.9
		c0.5-0.4,0.9-0.8,1.1-1.2s0.4-0.9,0.4-1.4c0-0.8-0.3-1.4-0.9-1.8s-1.5-0.5-2.6-0.5h-3.3c-0.2,0-0.4,0-0.8,0c-0.3,0-0.7-0.1-1.1-0.2
		c-0.7,0.5-1.2,1-1.5,1.6C1203.2,660.3,1203,660.8,1203,661.4z M1207.7,652.4c0.5,0,1-0.1,1.5-0.3c0.5-0.2,0.9-0.5,1.3-0.9
		c0.4-0.4,0.6-0.8,0.9-1.4c0.2-0.5,0.3-1.1,0.3-1.8c0-0.6-0.1-1.2-0.3-1.7c-0.2-0.5-0.5-1-0.8-1.3c-0.3-0.4-0.8-0.6-1.3-0.8
		c-0.5-0.2-1-0.3-1.5-0.3c-0.6,0-1.1,0.1-1.5,0.3c-0.5,0.2-0.9,0.5-1.3,0.8c-0.4,0.4-0.6,0.8-0.9,1.3s-0.3,1.1-0.3,1.8
		c0,0.6,0.1,1.2,0.3,1.8s0.5,1,0.9,1.4c0.4,0.4,0.8,0.7,1.3,0.9C1206.7,652.3,1207.2,652.4,1207.7,652.4z"/>
	<path d="M1218.5,643.1h1.2l0.1,2.8h0.1c0.5-1,1.1-1.7,1.9-2.3s1.6-0.9,2.5-0.9c0.3,0,0.6,0,0.8,0.1c0.2,0,0.5,0.1,0.7,0.3l-0.3,1.3
		c-0.3-0.1-0.5-0.2-0.7-0.2c-0.2,0-0.4,0-0.7,0c-0.7,0-1.4,0.3-2.1,0.9c-0.8,0.6-1.4,1.6-2,3v10.4h-1.4V643.1z"/>
	<path d="M1226.9,654.6c0-1.7,0.8-3,2.4-3.8c1.6-0.9,4.1-1.5,7.5-1.9c0-0.6,0-1.2-0.1-1.7s-0.3-1.1-0.5-1.6
		c-0.3-0.5-0.6-0.8-1.1-1.1c-0.5-0.3-1.1-0.4-1.8-0.4c-1,0-2,0.2-2.8,0.6c-0.8,0.4-1.5,0.8-2,1.2l-0.6-1c0.3-0.2,0.6-0.4,1-0.6
		c0.4-0.2,0.8-0.4,1.3-0.6c0.5-0.2,1-0.4,1.6-0.5c0.6-0.1,1.2-0.2,1.8-0.2c0.9,0,1.7,0.2,2.3,0.5c0.6,0.3,1.1,0.7,1.5,1.3
		c0.4,0.5,0.7,1.2,0.8,1.9c0.2,0.7,0.2,1.5,0.2,2.3v9.8h-1.2l-0.2-2h-0.1c-0.8,0.6-1.6,1.2-2.5,1.6s-1.9,0.7-2.9,0.7
		c-0.6,0-1.2-0.1-1.7-0.3c-0.5-0.2-1-0.4-1.4-0.8c-0.4-0.3-0.7-0.8-1-1.3C1227.1,655.9,1226.9,655.3,1226.9,654.6z M1228.4,654.5
		c0,1.1,0.3,1.9,1,2.4s1.4,0.7,2.3,0.7c0.9,0,1.7-0.2,2.5-0.6s1.7-1,2.6-1.8v-5.2c-1.6,0.2-2.9,0.4-4,0.7c-1.1,0.3-1.9,0.6-2.6,1
		s-1.1,0.8-1.4,1.3C1228.6,653.4,1228.4,653.9,1228.4,654.5z"/>
	<path d="M1243.7,643.1h1.2l0.1,2.4h0.1c0.7-0.8,1.4-1.4,2.3-2c0.8-0.5,1.7-0.8,2.5-0.8c1.2,0,2.2,0.3,2.8,0.8
		c0.7,0.6,1.1,1.3,1.4,2.3c0.9-1,1.8-1.7,2.6-2.3c0.8-0.6,1.7-0.8,2.6-0.8c3.1,0,4.6,2,4.6,5.9v9.8h-1.4v-9.6c0-1.6-0.3-2.8-0.8-3.6
		c-0.6-0.8-1.4-1.2-2.6-1.2c-1.4,0-2.9,1-4.6,2.9v11.5h-1.4v-9.6c0-1.6-0.3-2.8-0.8-3.6c-0.6-0.8-1.4-1.2-2.6-1.2
		c-1.4,0-2.9,1-4.6,2.9v11.5h-1.4V643.1z"/>
	<path d="M1268.6,654.6c0-1.7,0.8-3,2.4-3.8s4.1-1.5,7.5-1.9c0-0.6,0-1.2-0.1-1.7s-0.3-1.1-0.5-1.6s-0.6-0.8-1.1-1.1
		c-0.5-0.3-1.1-0.4-1.8-0.4c-1,0-2,0.2-2.8,0.6c-0.8,0.4-1.5,0.8-2,1.2l-0.6-1c0.3-0.2,0.6-0.4,1-0.6c0.4-0.2,0.8-0.4,1.3-0.6
		c0.5-0.2,1-0.4,1.6-0.5c0.6-0.1,1.2-0.2,1.8-0.2c0.9,0,1.7,0.2,2.3,0.5c0.6,0.3,1.1,0.7,1.5,1.3s0.7,1.2,0.8,1.9
		c0.2,0.7,0.2,1.5,0.2,2.3v9.8h-1.2l-0.2-2h-0.1c-0.8,0.6-1.6,1.2-2.5,1.6c-0.9,0.5-1.9,0.7-2.9,0.7c-0.6,0-1.2-0.1-1.7-0.3
		c-0.5-0.2-1-0.4-1.4-0.8s-0.7-0.8-1-1.3C1268.8,655.9,1268.6,655.3,1268.6,654.6z M1270.1,654.5c0,1.1,0.3,1.9,1,2.4
		c0.6,0.5,1.4,0.7,2.3,0.7c0.9,0,1.7-0.2,2.5-0.6c0.8-0.4,1.7-1,2.6-1.8v-5.2c-1.6,0.2-2.9,0.4-4,0.7c-1.1,0.3-1.9,0.6-2.6,1
		c-0.7,0.4-1.1,0.8-1.4,1.3C1270.2,653.4,1270.1,653.9,1270.1,654.5z"/>
	<path d="M1284.1,650.8c0-1.3,0.2-2.4,0.6-3.4c0.4-1,0.9-1.8,1.5-2.5s1.4-1.2,2.2-1.6s1.7-0.5,2.7-0.5c1.1,0,1.9,0.2,2.7,0.6
		c0.7,0.4,1.3,0.8,1.8,1.3l-0.8,1c-0.5-0.5-1-0.9-1.6-1.2s-1.3-0.5-2-0.5c-0.8,0-1.5,0.2-2.2,0.5c-0.7,0.3-1.3,0.8-1.8,1.4
		s-0.9,1.3-1.2,2.1c-0.3,0.8-0.4,1.7-0.4,2.8c0,1,0.1,1.9,0.4,2.7c0.3,0.8,0.6,1.5,1.1,2.1s1.1,1.1,1.7,1.4s1.4,0.5,2.3,0.5
		c0.8,0,1.6-0.2,2.2-0.5c0.7-0.3,1.3-0.8,1.8-1.2l0.7,1c-0.7,0.6-1.4,1.1-2.2,1.5c-0.8,0.4-1.7,0.6-2.7,0.6c-1,0-1.9-0.2-2.8-0.5
		s-1.6-0.9-2.2-1.6c-0.6-0.7-1.1-1.5-1.5-2.5C1284.3,653.2,1284.1,652.1,1284.1,650.8z"/>
	<path d="M1300.4,639.4c-0.4,0-0.7-0.1-0.9-0.3s-0.4-0.5-0.4-0.9c0-0.4,0.1-0.7,0.4-0.9s0.5-0.3,0.9-0.3c0.4,0,0.7,0.1,0.9,0.3
		c0.2,0.2,0.4,0.5,0.4,0.9c0,0.4-0.1,0.7-0.4,0.9C1301,639.3,1300.7,639.4,1300.4,639.4z M1299.7,643.1h1.4v15.3h-1.4V643.1z"/>
	<path d="M1305.7,650.8c0-1.3,0.2-2.4,0.6-3.4s0.9-1.8,1.5-2.5c0.6-0.7,1.4-1.2,2.2-1.6c0.8-0.4,1.7-0.5,2.6-0.5
		c0.9,0,1.8,0.2,2.6,0.5s1.6,0.9,2.2,1.6c0.6,0.7,1.1,1.5,1.5,2.5s0.6,2.1,0.6,3.4s-0.2,2.4-0.6,3.4c-0.4,1-0.9,1.8-1.5,2.5
		c-0.6,0.7-1.4,1.2-2.2,1.6s-1.7,0.5-2.6,0.5c-0.9,0-1.8-0.2-2.6-0.5c-0.8-0.4-1.6-0.9-2.2-1.6c-0.6-0.7-1.1-1.5-1.5-2.5
		C1305.8,653.2,1305.7,652.1,1305.7,650.8z M1307.1,650.8c0,1,0.1,1.9,0.4,2.7s0.7,1.5,1.1,2.1c0.5,0.6,1,1.1,1.7,1.4
		s1.4,0.5,2.1,0.5c0.8,0,1.5-0.2,2.1-0.5c0.7-0.3,1.2-0.8,1.7-1.4s0.9-1.3,1.1-2.1s0.4-1.7,0.4-2.7c0-1-0.1-1.9-0.4-2.8
		c-0.3-0.8-0.7-1.5-1.1-2.1s-1-1.1-1.7-1.4c-0.7-0.3-1.4-0.5-2.1-0.5c-0.8,0-1.5,0.2-2.1,0.5c-0.7,0.3-1.2,0.8-1.7,1.4
		c-0.5,0.6-0.9,1.3-1.1,2.1C1307.3,648.9,1307.1,649.8,1307.1,650.8z M1311.9,640.2h-1.2l2.9-4.3h1.7L1311.9,640.2z"/>
	<path d="M1324,643.1h1.2l0.1,2.4h0.1c0.8-0.8,1.6-1.4,2.4-2c0.8-0.5,1.8-0.8,2.8-0.8c1.6,0,2.8,0.5,3.5,1.4c0.7,1,1.1,2.4,1.1,4.4
		v9.8h-1.4v-9.6c0-1.6-0.3-2.8-0.8-3.6c-0.5-0.8-1.4-1.2-2.7-1.2c-0.9,0-1.7,0.2-2.5,0.7c-0.7,0.5-1.6,1.2-2.5,2.1v11.5h-1.4V643.1z
		"/>
</g>
<g>
	<g>
		<rect x="786" y="563.2" fill="#19AC7D" width="282.4" height="172.8"/>
	</g>
	<g>
		<polygon fill="#148470" points="958.2,735.9 786.1,735.9 786.1,695.3 1024,563.2 		"/>
	</g>
</g>
</svg>
