<?xml version="1.0" encoding="utf-8"?>
<!-- Generator: Adobe Illustrator 16.0.0, SVG Export Plug-In . SVG Version: 6.00 Build 0)  -->
<!DOCTYPE svg PUBLIC "-//W3C//DTD SVG 1.1//EN" "http://www.w3.org/Graphics/SVG/1.1/DTD/svg11.dtd">
<svg version="1.1" xmlns="http://www.w3.org/2000/svg" xmlns:xlink="http://www.w3.org/1999/xlink" x="0px" y="0px" width="1500px"
	 height="800px" viewBox="0 0 1500 800" enable-background="new 0 0 1500 800" xml:space="preserve">
<g id="Layer_1">
</g>
<g id="Layer_3">
</g>
<g id="Layer_2">
	<g>
		<g>
			<g>
				<path fill="#ED2246" d="M1064.5,306.1"/>
			</g>
		</g>
		<g>
			<g>
				<g>
					<rect x="524.8" y="548.7" fill="#ED2246" width="25.6" height="153.7"/>
				</g>
			</g>
			<g>
				<g>
					<polygon fill="#ED2246" points="578.2,548.7 550.4,629.2 577.9,702.4 602.3,702.4 574.8,629.2 602.6,548.7 					"/>
				</g>
			</g>
			<g>
				<g>
					<path fill="#ED2246" d="M675.1,548.7v90.9l25.6-90.9h16.3c0,0,2.8,0.8,6.1,4.7c2.2,2.6,2.8,6.1,2.8,6.1v142.9h-24.8v-77l-26,77
						h-26V559.5c0,0,0.7-3.2,3.9-6.8c2.4-2.8,6.2-4,6.2-4H675.1z"/>
				</g>
			</g>
			<g>
				<g>
					<path fill="#ED2246" d="M792.5,669c0,0,2.9-0.2,8.3-4.9c5.8-5,7.5-9.7,7.5-9.7v-59.8c0,0-2.2-6.3-6.3-10.3
						c-4.1-4-9.5-6.3-9.5-6.3h-11.8v-10.1h26.2v-19.2h-37.1h-37.1v19.2H759V578h-11.8c0,0-5.4,2.3-9.5,6.3c-4.1,4-6.3,10.3-6.3,10.3
						v59.8c0,0,1.7,4.8,7.5,9.7c5.4,4.6,8.3,4.9,8.3,4.9h10.6v11.2h-25.6v22.2h37.7h37.7v-22.2h-25.6V669H792.5z M769.9,648.1H757
						v-48.6h12.9h12.9v48.6H769.9z"/>
				</g>
			</g>
			<g>
				<g>
					<rect x="813.3" y="548.7" fill="#ED2246" width="25.6" height="153.7"/>
				</g>
			</g>
			<g>
				<g>
					<polygon fill="#ED2246" points="866.7,548.7 838.9,629.2 866.4,702.4 890.8,702.4 863.3,629.2 891.1,548.7 					"/>
				</g>
			</g>
			<g>
				<g>
					<polygon fill="#ED2246" points="643.8,548.7 599.2,548.7 607.8,702.4 635.2,702.4 					"/>
				</g>
			</g>
			<g>
				<g>
					<rect x="599.2" y="725.6" fill="#ED2246" width="44.5" height="30.5"/>
				</g>
			</g>
			<g>
				<g>
					<polygon fill="#ED2246" points="893.8,702.1 926.8,702.1 920.4,588.4 900.1,588.4 					"/>
				</g>
			</g>
			<g>
				<g>
					<rect x="893.8" y="548.7" fill="#ED2246" width="32.9" height="22.6"/>
				</g>
			</g>
			<g>
				<g>
					<g>
						<path fill="#ED2246" d="M650,729h5.2v1.4h-3.6v2.5h3.3v1.4h-3.3v3.8H650V729z"/>
					</g>
				</g>
				<g>
					<g>
						<path fill="#ED2246" d="M667.8,734.1h-3.4v2.7h3.8v1.4h-5.5v-9h5.3v1.4h-3.6v2.3h3.4V734.1z"/>
					</g>
				</g>
				<g>
					<g>
						<path fill="#ED2246" d="M675.5,736.3c0.5,0.3,1.3,0.6,2.2,0.6c1.1,0,1.7-0.5,1.7-1.2c0-0.7-0.5-1.1-1.6-1.5
							c-1.5-0.5-2.4-1.3-2.4-2.6c0-1.5,1.2-2.6,3.2-2.6c1,0,1.7,0.2,2.2,0.5l-0.4,1.3c-0.3-0.2-1-0.4-1.8-0.4c-1,0-1.5,0.6-1.5,1.1
							c0,0.7,0.5,1,1.7,1.5c1.6,0.6,2.3,1.4,2.3,2.7c0,1.4-1.1,2.7-3.4,2.7c-0.9,0-1.9-0.3-2.4-0.6L675.5,736.3z"/>
					</g>
				</g>
				<g>
					<g>
						<path fill="#ED2246" d="M690.2,730.4h-2.6V729h6.8v1.4h-2.6v7.7h-1.7V730.4z"/>
					</g>
				</g>
				<g>
					<g>
						<path fill="#ED2246" d="M703.1,729v9h-1.6v-9H703.1z"/>
					</g>
				</g>
				<g>
					<g>
						<path fill="#ED2246" d="M712.9,738.1l-2.9-9h1.8l1.2,4.1c0.3,1.1,0.6,2.2,0.9,3.3h0c0.2-1.1,0.6-2.2,0.9-3.3l1.3-4.1h1.8
							l-3.1,9H712.9z"/>
					</g>
				</g>
				<g>
					<g>
						<path fill="#ED2246" d="M725.9,735.5l-0.8,2.6h-1.7l2.9-9h2.1l2.9,9h-1.8l-0.8-2.6H725.9z M728.5,734.3l-0.7-2.2
							c-0.2-0.5-0.3-1.2-0.5-1.7h0c-0.1,0.5-0.3,1.1-0.4,1.7l-0.7,2.2H728.5z"/>
					</g>
				</g>
				<g>
					<g>
						<path fill="#ED2246" d="M738.6,729h1.7v7.7h3.7v1.4h-5.4V729z"/>
					</g>
				</g>
				<g>
					<g>
						<path fill="#ED2246" d="M761.4,729v9h-1.6v-9H761.4z"/>
					</g>
				</g>
				<g>
					<g>
						<path fill="#ED2246" d="M769.3,738.1v-9h1.9l2.3,3.9c0.6,1,1.1,2.1,1.6,3h0c-0.1-1.2-0.1-2.4-0.1-3.8V729h1.5v9h-1.7l-2.4-4
							c-0.6-1-1.2-2.1-1.6-3.1l0,0c0.1,1.2,0.1,2.4,0.1,3.9v3.2H769.3z"/>
					</g>
				</g>
				<g>
					<g>
						<path fill="#ED2246" d="M786,730.4h-2.6V729h6.8v1.4h-2.6v7.7H786V730.4z"/>
					</g>
				</g>
				<g>
					<g>
						<path fill="#ED2246" d="M802.3,734.1h-3.4v2.7h3.8v1.4h-5.5v-9h5.3v1.4h-3.6v2.3h3.4V734.1z"/>
					</g>
				</g>
				<g>
					<g>
						<path fill="#ED2246" d="M810,729.2c0.6-0.1,1.5-0.2,2.5-0.2c1.3,0,2.2,0.2,2.8,0.7c0.5,0.4,0.8,1.1,0.8,1.8
							c0,1.2-0.8,2-1.6,2.3v0c0.6,0.2,1,0.9,1.3,1.7c0.3,1.1,0.5,2.2,0.7,2.5h-1.7c-0.1-0.3-0.4-1-0.6-2.1c-0.2-1.2-0.7-1.6-1.6-1.6
							h-0.8v3.7H810V729.2z M811.7,733.2h1c1.1,0,1.8-0.6,1.8-1.5c0-1-0.7-1.5-1.8-1.5c-0.5,0-0.9,0-1,0.1V733.2z"/>
					</g>
				</g>
				<g>
					<g>
						<path fill="#ED2246" d="M823.6,738.1v-9h1.9l2.3,3.9c0.6,1,1.1,2.1,1.5,3h0c-0.1-1.2-0.2-2.4-0.2-3.8V729h1.5v9h-1.7l-2.4-4
							c-0.6-1-1.2-2.1-1.6-3.1l0,0c0.1,1.2,0.1,2.4,0.1,3.9v3.2H823.6z"/>
					</g>
				</g>
				<g>
					<g>
						<path fill="#ED2246" d="M840.4,735.5l-0.8,2.6h-1.7l2.9-9h2.1l2.9,9h-1.8l-0.8-2.6H840.4z M843,734.3l-0.7-2.2
							c-0.2-0.5-0.3-1.2-0.5-1.7h0c-0.1,0.5-0.3,1.1-0.4,1.7l-0.7,2.2H843z"/>
					</g>
				</g>
				<g>
					<g>
						<path fill="#ED2246" d="M859.2,737.8c-0.4,0.2-1.3,0.4-2.3,0.4c-2.9,0-4.6-1.8-4.6-4.6c0-3,2.1-4.8,4.8-4.8
							c1.1,0,1.9,0.2,2.2,0.4l-0.4,1.3c-0.4-0.2-1-0.4-1.8-0.4c-1.8,0-3.2,1.1-3.2,3.3c0,2,1.2,3.3,3.2,3.3c0.7,0,1.4-0.1,1.8-0.3
							L859.2,737.8z"/>
					</g>
				</g>
				<g>
					<g>
						<path fill="#ED2246" d="M868.2,729v9h-1.6v-9H868.2z"/>
					</g>
				</g>
				<g>
					<g>
						<path fill="#ED2246" d="M884,733.5c0,3-1.8,4.8-4.3,4.8c-2.5,0-4.2-2-4.2-4.6c0-2.8,1.7-4.7,4.3-4.7
							C882.5,728.9,884,730.9,884,733.5z M877.3,733.6c0,1.8,0.9,3.3,2.5,3.3c1.6,0,2.5-1.5,2.5-3.4c0-1.7-0.8-3.3-2.5-3.3
							C878.2,730.2,877.3,731.7,877.3,733.6z"/>
					</g>
				</g>
				<g>
					<g>
						<path fill="#ED2246" d="M891.4,738.1v-9h1.9l2.3,3.9c0.6,1,1.1,2.1,1.5,3h0c-0.1-1.2-0.1-2.4-0.1-3.8V729h1.5v9h-1.7l-2.4-4
							c-0.6-1-1.2-2.1-1.6-3.1l0,0c0.1,1.2,0.1,2.4,0.1,3.9v3.2H891.4z"/>
					</g>
				</g>
				<g>
					<g>
						<path fill="#ED2246" d="M908.2,735.5l-0.8,2.6h-1.7l2.9-9h2.1l2.9,9h-1.8l-0.8-2.6H908.2z M910.8,734.3l-0.7-2.2
							c-0.2-0.5-0.3-1.2-0.5-1.7h0c-0.1,0.5-0.3,1.1-0.4,1.7l-0.7,2.2H910.8z"/>
					</g>
				</g>
				<g>
					<g>
						<path fill="#ED2246" d="M920.8,729h1.7v7.7h3.7v1.4h-5.4V729z"/>
					</g>
				</g>
				<g>
					<g>
						<path fill="#ED2246" d="M650,745.3c0.7-0.1,1.6-0.2,2.6-0.2c1.7,0,2.9,0.3,3.7,1c0.9,0.7,1.4,1.8,1.4,3.3
							c0,1.6-0.5,2.8-1.4,3.6c-0.9,0.8-2.3,1.2-4.1,1.2c-1,0-1.7-0.1-2.2-0.1V745.3z M651.6,752.9c0.2,0,0.6,0,0.9,0
							c2.2,0,3.4-1.2,3.4-3.5c0-2-1.1-3.1-3.2-3.1c-0.5,0-0.9,0-1.1,0.1V752.9z"/>
					</g>
				</g>
				<g>
					<g>
						<path fill="#ED2246" d="M670.3,750.2h-3.4v2.7h3.8v1.4h-5.5v-9h5.3v1.3h-3.6v2.3h3.4V750.2z"/>
					</g>
				</g>
				<g>
					<g>
						<path fill="#ED2246" d="M702.3,753.9c-0.4,0.2-1.2,0.4-2.3,0.4c-2.9,0-4.6-1.8-4.6-4.5c0-3,2.1-4.8,4.8-4.8
							c1.1,0,1.9,0.2,2.2,0.4l-0.4,1.3c-0.4-0.2-1-0.3-1.8-0.3c-1.8,0-3.2,1.2-3.2,3.3c0,2,1.2,3.3,3.1,3.3c0.7,0,1.4-0.1,1.8-0.3
							L702.3,753.9z"/>
					</g>
				</g>
				<g>
					<g>
						<path fill="#ED2246" d="M711.4,745.1v9h-1.7v-9H711.4z"/>
					</g>
				</g>
				<g>
					<g>
						<path fill="#ED2246" d="M719.4,754.2v-9h1.9l2.3,3.9c0.6,1,1.1,2,1.5,3h0c-0.1-1.2-0.1-2.4-0.1-3.8v-3.1h1.5v9h-1.7l-2.4-4
							c-0.6-1-1.2-2.1-1.6-3.1l0,0c0.1,1.2,0.1,2.4,0.1,3.9v3.2H719.4z"/>
					</g>
				</g>
				<g>
					<g>
						<path fill="#ED2246" d="M739.5,750.2h-3.4v2.7h3.8v1.4h-5.5v-9h5.3v1.3h-3.6v2.3h3.4V750.2z"/>
					</g>
				</g>
				<g>
					<g>
						<path fill="#ED2246" d="M766.7,745.1v5.3c0,1.8,0.7,2.6,1.9,2.6c1.2,0,1.9-0.8,1.9-2.6v-5.3h1.7v5.2c0,2.8-1.4,4-3.6,4
							c-2.1,0-3.4-1.2-3.4-4v-5.2H766.7z"/>
					</g>
				</g>
				<g>
					<g>
						<path fill="#ED2246" d="M780.1,754.2v-9h1.9l2.3,3.9c0.6,1,1.1,2,1.5,3h0c-0.1-1.2-0.1-2.4-0.1-3.8v-3.1h1.5v9h-1.7l-2.4-4
							c-0.6-1-1.2-2.1-1.6-3.1l0,0c0.1,1.2,0.1,2.4,0.1,3.9v3.2H780.1z"/>
					</g>
				</g>
				<g>
					<g>
						<path fill="#ED2246" d="M796.9,745.1v9h-1.6v-9H796.9z"/>
					</g>
				</g>
				<g>
					<g>
						<path fill="#ED2246" d="M806.9,754.2l-2.9-9h1.8l1.2,4.1c0.3,1.1,0.6,2.2,0.9,3.3h0c0.2-1.1,0.6-2.2,0.9-3.3l1.3-4.1h1.8
							l-3.1,9H806.9z"/>
					</g>
				</g>
				<g>
					<g>
						<path fill="#ED2246" d="M824,750.2h-3.4v2.7h3.8v1.4h-5.5v-9h5.3v1.3h-3.6v2.3h3.4V750.2z"/>
					</g>
				</g>
				<g>
					<g>
						<path fill="#ED2246" d="M831.9,745.3c0.6-0.1,1.5-0.2,2.5-0.2c1.3,0,2.2,0.2,2.8,0.7c0.5,0.4,0.8,1,0.8,1.8
							c0,1.2-0.8,2-1.6,2.3v0c0.6,0.2,1,0.9,1.3,1.7c0.3,1.1,0.5,2.2,0.7,2.5h-1.7c-0.1-0.3-0.3-1-0.6-2.1c-0.3-1.2-0.7-1.6-1.6-1.6
							h-0.8v3.7h-1.6V745.3z M833.5,749.3h1c1.1,0,1.8-0.6,1.8-1.5c0-1-0.7-1.5-1.8-1.5c-0.5,0-0.9,0-1,0.1V749.3z"/>
					</g>
				</g>
				<g>
					<g>
						<path fill="#ED2246" d="M845.5,752.4c0.5,0.3,1.3,0.6,2.2,0.6c1.1,0,1.7-0.5,1.7-1.2c0-0.7-0.5-1.1-1.6-1.5
							c-1.5-0.5-2.4-1.3-2.4-2.6c0-1.5,1.2-2.6,3.2-2.6c1,0,1.7,0.2,2.2,0.4l-0.4,1.3c-0.3-0.2-1-0.4-1.8-0.4c-1,0-1.5,0.6-1.5,1.1
							c0,0.7,0.5,1,1.7,1.5c1.6,0.6,2.3,1.4,2.3,2.7c0,1.5-1.1,2.7-3.4,2.7c-0.9,0-1.9-0.3-2.4-0.6L845.5,752.4z"/>
					</g>
				</g>
				<g>
					<g>
						<path fill="#ED2246" d="M860.2,745.1v9h-1.6v-9H860.2z"/>
					</g>
				</g>
				<g>
					<g>
						<path fill="#ED2246" d="M869.9,746.5h-2.6v-1.4h6.8v1.4h-2.6v7.7h-1.7V746.5z"/>
					</g>
				</g>
				<g>
					<g>
						<path fill="#ED2246" d="M882.1,751.6l-0.8,2.6h-1.7l2.9-9h2.1l2.9,9h-1.8l-0.8-2.6H882.1z M884.7,750.4l-0.7-2.2
							c-0.2-0.5-0.3-1.2-0.5-1.7h0c-0.1,0.5-0.3,1.2-0.4,1.7l-0.7,2.2H884.7z"/>
					</g>
				</g>
				<g>
					<g>
						<path fill="#ED2246" d="M894.9,745.3c0.6-0.1,1.5-0.2,2.5-0.2c1.3,0,2.2,0.2,2.8,0.7c0.5,0.4,0.8,1,0.8,1.8
							c0,1.2-0.8,2-1.6,2.3v0c0.6,0.2,1,0.9,1.3,1.7c0.3,1.1,0.5,2.2,0.7,2.5h-1.7c-0.1-0.3-0.4-1-0.6-2.1c-0.3-1.2-0.7-1.6-1.6-1.6
							h-0.8v3.7h-1.6V745.3z M896.5,749.3h1c1.1,0,1.8-0.6,1.8-1.5c0-1-0.7-1.5-1.8-1.5c-0.5,0-0.8,0-1,0.1V749.3z"/>
					</g>
				</g>
				<g>
					<g>
						<path fill="#ED2246" d="M910.2,745.1v9h-1.7v-9H910.2z"/>
					</g>
				</g>
				<g>
					<g>
						<path fill="#ED2246" d="M926.2,749.6c0,3-1.8,4.8-4.3,4.8c-2.6,0-4.2-1.9-4.2-4.6c0-2.8,1.7-4.7,4.3-4.7
							C924.6,745,926.2,747,926.2,749.6z M919.4,749.7c0,1.8,0.9,3.3,2.5,3.3c1.6,0,2.5-1.5,2.5-3.4c0-1.7-0.8-3.3-2.5-3.3
							C920.3,746.3,919.4,747.8,919.4,749.7z"/>
					</g>
				</g>
			</g>
		</g>
		<g>
			<path fill="#ED2246" d="M493.9,406.1c-41.7,0-73.1-19.7-90.9-56.9c-14.4-30.1-16.5-64.4-16.5-82.2c0-23.8,13.4-60.1,39.5-85.3
				l-9.9-14.7c-34.3,25.9-56.4,67-56.4,113.2c0,78.3,63.5,141.8,141.8,141.8c26.7,0,51.6-7.4,72.9-20.2L564,386.6
				C545.8,398.4,522.8,406.1,493.9,406.1z"/>
			<path fill="#ED2246" d="M494.5,172.6h-0.6c-16.2,0.1-30.3,5.1-42.1,13l116.5,172.9c25.6-24.7,35.3-59.9,35.3-81.4
				C603.6,266.5,600.6,172.6,494.5,172.6z"/>
			<path fill="#ED2246" d="M405.7,267c0,16.2,1.9,47.3,14.6,73.9c14.6,30.5,39.3,45.9,73.5,45.9c24.4,0,43.9-6.4,59.3-16.3
				L436.9,198C416.5,219,405.7,248.2,405.7,267z"/>
			<path fill="#ED2246" d="M643.3,280.3c0-78.3-63.5-141.8-141.8-141.8c-25.2,0-48.8,6.6-69.3,18.1l8.8,13
				c14.7-9.9,32.4-16.2,52.9-16.3h0.6c101.3,0,128.4,77.8,128.4,123.8c0,25.8-11.9,68.5-43.6,97.6l10.9,16.2
				C622.5,365,643.3,325.1,643.3,280.3z"/>
			<path fill="#ED2246" d="M585.5,418.4l15.9-10.8l-11.3-16.7c-5,4-10.3,7.7-15.8,11L585.5,418.4z"/>
			<path fill="#ED2246" d="M423.9,144.3l-16,10.8l8.1,12.1c5.1-3.9,10.5-7.4,16.1-10.5L423.9,144.3z"/>
		</g>
		<g>
			<g>
				<rect x="668.8" y="168.3" fill="#ED2246" width="19.2" height="185.9"/>
			</g>
		</g>
		<g>
			<path fill="#ED2246" d="M846.8,138.5c-30.3,0-58.4,9.5-81.4,25.7l0.5,13.1c18.2-9.5,51.7-23.7,85.2-21.2
				c31.6,2.4,113.7,26.7,113.7,109.6c0,47.6-20.2,78.3-37.1,95.7c-21.8,22.4-51.4,35.9-81.1,36.9c-2.2,0.1-4.4,0.1-6.4,0.1
				c-49.3,0-71.8-21.6-97.1-63.1l15.8-9.6c26.5,43.5,46,55.6,87.1,54.2c62.8-2.2,100.4-59.8,100.4-114.2c0-29.7-12.5-53.3-37-70.1
				c-20.2-13.8-44.7-20-59.6-21.1c-42.1-3.2-86.9,25.9-87.4,26.2l-13.7,9l-1.1-30.5c-26.2,25.7-42.5,61.5-42.5,101.2
				c0,78.3,63.5,141.8,141.8,141.8c78.3,0,141.8-63.5,141.8-141.8C988.6,202,925.1,138.5,846.8,138.5z"/>
			<path fill="#ED2246" d="M764.1,123.2l104.8-4.6l-0.8-18.5L745,105.6l2.4,73.6c5.6-5.5,11.6-10.4,18-14.9L764.1,123.2z
				 M826.4,88.3"/>
		</g>
		<path fill="#ED2246" d="M1318,583.2c-6.3-21.9-16.3-276-21.5-443.4c1.6-9.2,2.1-16.4-4-20.3c-2.3-1.4-5-1.8-7.6-1.2
			c-6.5,0.5-38.3,2.9-49.1,2.9c-7.4,0-26.9-1.7-34.4-3c-1.5-0.3-4.6-1.1-6-0.4c-0.9,0.4-4.9,4-4.9,4c-0.6,0.5-60.4,47.3-80.3,62.5
			c-23,17.6-89.4,72.2-89.4,78.7c0,4.7,16.3,16.4,27.2,23.8c-2.1,34.9-26.1,91.6-69,133.6c-26.2,25.6-69.8,55.9-129.7,54.5
			c-133.1-3.1-312.9-0.2-457.4,2.2c-85.6,1.4-167.3,2.7-198.4,1.8c7.3-8.8,19.3-21.9,31-34.7c76.8-83.9,150.1-169.7,129.7-216
			c-8.2-18.6-29.9-28.1-64.4-28.1c0,0-0.1,0-0.1,0c-45.9,0-66.4,35.1-67.3,36.6l16.7,9.5c0.2-0.3,15.7-26.9,50.6-26.9
			c0,0,0.1,0,0.1,0c18.1,0,40.8,2.9,46.8,16.6c17,38.7-79.7,144.5-126.3,195.3C173,472,167,479.2,168,487.4c0.4,3.1,2.1,5.9,4.6,7.6
			c3.4,2.3,10.2,3.4,50.4,3.4c31.3,0,83.1-0.7,169.3-2.1c144.3-2.3,323.9-5.2,456.6-2.2c5.4,0.1,10.7,0,15.8-0.3
			c4.6,0,167.5-1,205.4-1c10.6,5,63.1,29.7,115.5,53.6c89.7,41,115.4,51.9,125,51.9c3.7,0,5-1.6,6.7-3.8
			C1319.9,591.1,1320.1,586.8,1318,583.2z M1045.8,260.8c-2.3-3.6,58.5-50.7,76.3-64.3c17.7-13.5,66.9-48.4,79.4-58.8
			c8.2,0.9,26.6,2.7,34.4,2.7c4.2,0,11.1-0.3,18.5-0.8c-4.4,3.2-8.7,6.5-13,9.7c-26,19.3-52.8,39.3-77.3,55.6
			c-50,33.5-89.1,57.8-103,65.7C1061.2,270.7,1047.7,263.9,1045.8,260.8z M1072.3,483.1L1072.3,483.1L1072.3,483.1L1072.3,483.1z
			 M1081.9,477c-0.2-14.6-0.8-53.5-2.3-92.5c-2.4-59.2-5.5-86-9-98.7c16.4-9.4,56.9-33.1,104.3-64.8c24.8-16.6,51.9-36.7,78-56.2
			c8.1-6,16.4-12.2,24.6-18.2c0.8,26.1,3.9,119.6,7.7,213.1c5.5,135.5,9.3,191.2,12.1,215C1259.8,559.6,1153.3,510.6,1081.9,477z"/>
		<g>
			<g>
				<path fill="#ED2246" d="M802.4,84.9c-13.7,0-22.2-15-22.2-28.8c0-11.6,11.4-18.5,22.5-18.5c4.7,0,9.3,1.2,13,3.5
					c8,4.8,10.8,15.3,10.8,22.8c0,9-6.7,18.9-21.7,20.9C804,84.9,803.2,84.9,802.4,84.9z M802.7,48.5c-5.6,0-11.6,2.9-11.6,7.6
					c0,8.5,4.8,18,11.3,18c0.3,0,0.7,0,1-0.1c7.5-1,12.3-5,12.3-10.1c0-5.9-2.3-11.5-5.5-13.4C808,49.2,805.5,48.5,802.7,48.5z"/>
			</g>
		</g>
	</g>
	<g>
		<path fill="none" d="M1164.2,205c24.4-16.3,51.3-36.3,77.3-55.6c4.3-3.2,8.7-6.4,13-9.7c-7.4,0.4-14.3,0.8-18.5,0.8
			c-7.8,0-26.2-1.8-34.4-2.7c-12.6,10.3-61.7,45.2-79.4,58.8c-17.8,13.6-78.5,60.7-76.3,64.3c1.9,3.1,15.4,9.9,15.4,9.9
			C1075.1,262.8,1114.2,238.4,1164.2,205z"/>
		<path fill="none" d="M802.4,74.1c0.3,0,0.7,0,1-0.1c7.5-1,12.3-5,12.3-10.1c0-5.9-2.3-11.5-5.5-13.4c-2.1-1.3-4.7-1.9-7.4-1.9
			c-5.6,0-11.6,2.9-11.6,7.6C791.1,64.6,795.9,74.1,802.4,74.1z"/>
		<path fill="none" d="M762.2,200.7c0.4-0.3,45.2-29.4,87.4-26.2c14.9,1.1,39.4,7.3,59.6,21.1c24.6,16.8,37,40.4,37,70.1
			c0,44.9-25.6,92-69.9,108.3l16.7,12.5c12.7-6.2,24.5-14.7,34.6-25.1c16.9-17.4,37.1-48.1,37.1-95.7c0-82.9-82.1-107.3-113.7-109.6
			c-33.5-2.5-67,11.8-85.2,21.2l-0.5-13.1c-6.4,4.5-12.4,9.5-18,14.9l1.1,30.5L762.2,200.7z"/>
		<path fill="none" d="M1174.9,221c-47.5,31.7-87.9,55.4-104.3,64.8c3.5,12.7,6.6,39.5,9,98.7c1.6,39,2.2,77.9,2.3,92.5
			c71.5,33.6,177.9,82.6,215.5,97.6c-2.8-23.8-6.6-79.5-12.1-215c-3.8-93.5-6.9-187-7.7-213.1c-8.2,6-16.5,12.2-24.6,18.2
			C1226.8,184.2,1199.7,204.4,1174.9,221z"/>
		<polygon fill="#BD1B38" points="524.8,548.7 524.8,702.4 550.4,702.4 550.4,629.2 550.4,548.7 		"/>
		<polygon fill="#BD1B38" points="578.2,548.7 550.4,629.2 577.9,702.4 602.3,702.4 574.8,629.2 599.7,557.1 599.2,548.7 		"/>
		<path fill="#BD1B38" d="M701.1,702.4h24.8V559.5c0,0-0.6-3.5-2.8-6.1c-3.3-3.9-6.1-4.7-6.1-4.7h-16.3l-25.6,90.9v-90.9h-15.9
			c0,0-3.8,1.2-6.2,4c-3.2,3.7-3.9,6.8-3.9,6.8v142.9h26l26-77V702.4z"/>
		<path fill="#BD1B38" d="M732.2,680.2v22.2h37.7h37.7v-22.2h-25.6V669h10.6c0,0,2.9-0.2,8.3-4.9c5.8-5,7.5-9.7,7.5-9.7v-59.8
			c0,0-2.2-6.3-6.3-10.3c-4.1-4-9.5-6.3-9.5-6.3h-11.8v-10.1h26.2v-19.2h-37.1h-37.1v19.2H759V578h-11.8c0,0-5.4,2.3-9.5,6.3
			c-4.1,4-6.3,10.3-6.3,10.3v59.8c0,0,1.7,4.8,7.5,9.7c5.4,4.6,8.3,4.9,8.3,4.9h10.6v11.2H732.2z M757,648.1v-48.6h12.9h12.9v48.6
			h-12.9H757z"/>
		<polygon fill="#BD1B38" points="813.3,548.7 813.3,702.4 838.9,702.4 838.9,629.2 838.9,548.7 		"/>
		<polygon fill="#BD1B38" points="866.7,548.7 838.9,629.2 866.4,702.4 890.8,702.4 863.3,629.2 891.1,548.7 		"/>
		<polygon fill="#BD1B38" points="599.7,557.1 607.8,702.4 635.2,702.4 643.8,548.7 602.6,548.7 		"/>
		<polygon fill="#BD1B38" points="599.2,548.7 599.7,557.1 602.6,548.7 		"/>
		<rect x="599.2" y="725.6" fill="#BD1B38" width="44.5" height="30.5"/>
		<polygon fill="#BD1B38" points="900.1,588.4 893.8,702.1 926.8,702.1 920.4,588.4 		"/>
		<rect x="893.8" y="548.7" fill="#BD1B38" width="32.9" height="22.6"/>
		<polygon fill="#BD1B38" points="655.2,730.4 655.2,729 650,729 650,738.1 651.6,738.1 651.6,734.2 655,734.2 655,732.9 
			651.6,732.9 651.6,730.4 		"/>
		<polygon fill="#BD1B38" points="668,730.4 668,729 662.7,729 662.7,738.1 668.2,738.1 668.2,736.7 664.4,736.7 664.4,734.1 
			667.8,734.1 667.8,732.7 664.4,732.7 664.4,730.4 		"/>
		<path fill="#BD1B38" d="M678.7,732.8c-1.2-0.5-1.7-0.8-1.7-1.5c0-0.5,0.5-1.1,1.5-1.1c0.8,0,1.5,0.3,1.8,0.4l0.4-1.3
			c-0.5-0.2-1.2-0.5-2.2-0.5c-2,0-3.2,1.1-3.2,2.6c0,1.3,1,2.1,2.4,2.6c1.2,0.4,1.6,0.8,1.6,1.5c0,0.7-0.6,1.2-1.7,1.2
			c-0.8,0-1.7-0.3-2.2-0.6l-0.4,1.4c0.5,0.3,1.5,0.6,2.4,0.6c2.3,0,3.4-1.3,3.4-2.7C681,734.2,680.3,733.4,678.7,732.8z"/>
		<polygon fill="#BD1B38" points="687.6,730.4 690.2,730.4 690.2,738.1 691.8,738.1 691.8,730.4 694.4,730.4 694.4,729 687.6,729 		
			"/>
		<rect x="701.4" y="729" fill="#BD1B38" width="1.6" height="9"/>
		<path fill="#BD1B38" d="M714.9,733.2c-0.4,1.1-0.7,2.2-0.9,3.3h0c-0.2-1.1-0.5-2.2-0.9-3.3l-1.2-4.1H710l2.9,9h1.9l3.1-9h-1.8
			L714.9,733.2z"/>
		<path fill="#BD1B38" d="M726.3,729l-2.9,9h1.7l0.8-2.6h2.9l0.8,2.6h1.8l-2.9-9H726.3z M726.2,734.3l0.7-2.2
			c0.2-0.5,0.3-1.2,0.4-1.7h0c0.1,0.5,0.3,1.1,0.5,1.7l0.7,2.2H726.2z"/>
		<polygon fill="#BD1B38" points="740.2,729 738.6,729 738.6,738.1 743.9,738.1 743.9,736.7 740.2,736.7 		"/>
		<rect x="759.8" y="729" fill="#BD1B38" width="1.6" height="9"/>
		<path fill="#BD1B38" d="M774.9,732.2c0,1.4,0,2.6,0.1,3.8h0c-0.4-1-0.9-2-1.6-3l-2.3-3.9h-1.9v9h1.5v-3.2c0-1.5,0-2.7-0.1-3.9l0,0
			c0.4,1,1,2.1,1.6,3.1l2.4,4h1.7v-9h-1.5V732.2z"/>
		<polygon fill="#BD1B38" points="783.4,730.4 786,730.4 786,738.1 787.6,738.1 787.6,730.4 790.2,730.4 790.2,729 783.4,729 		"/>
		<polygon fill="#BD1B38" points="798.8,734.1 802.3,734.1 802.3,732.7 798.8,732.7 798.8,730.4 802.5,730.4 802.5,729 797.2,729 
			797.2,738.1 802.7,738.1 802.7,736.7 798.8,736.7 		"/>
		<path fill="#BD1B38" d="M814.5,733.8L814.5,733.8c0.8-0.3,1.6-1.1,1.6-2.3c0-0.8-0.3-1.4-0.8-1.8c-0.6-0.5-1.5-0.7-2.8-0.7
			c-1,0-1.9,0.1-2.5,0.2v8.9h1.6v-3.7h0.8c0.9,0,1.4,0.4,1.6,1.6c0.3,1.1,0.5,1.9,0.6,2.1h1.7c-0.2-0.4-0.4-1.4-0.7-2.5
			C815.5,734.7,815.1,734.1,814.5,733.8z M812.7,733.2h-1v-2.9c0.2,0,0.5-0.1,1-0.1c1.1,0,1.8,0.5,1.8,1.5
			C814.5,732.6,813.8,733.2,812.7,733.2z"/>
		<path fill="#BD1B38" d="M829.2,732.2c0,1.4,0,2.6,0.2,3.8h0c-0.4-1-0.9-2-1.5-3l-2.3-3.9h-1.9v9h1.5v-3.2c0-1.5,0-2.7-0.1-3.9l0,0
			c0.4,1,1,2.1,1.6,3.1l2.4,4h1.7v-9h-1.5V732.2z"/>
		<path fill="#BD1B38" d="M842.9,729h-2.1l-2.9,9h1.7l0.8-2.6h2.9l0.8,2.6h1.8L842.9,729z M840.7,734.3l0.7-2.2
			c0.2-0.5,0.3-1.2,0.4-1.7h0c0.1,0.5,0.3,1.1,0.5,1.7l0.7,2.2H840.7z"/>
		<path fill="#BD1B38" d="M859,736.5c-0.4,0.2-1.1,0.3-1.8,0.3c-2,0-3.2-1.3-3.2-3.3c0-2.2,1.3-3.3,3.2-3.3c0.7,0,1.3,0.2,1.8,0.4
			l0.4-1.3c-0.3-0.2-1.1-0.4-2.2-0.4c-2.8,0-4.8,1.8-4.8,4.8c0,2.8,1.7,4.6,4.6,4.6c1.1,0,2-0.2,2.3-0.4L859,736.5z"/>
		<rect x="866.6" y="729" fill="#BD1B38" width="1.6" height="9"/>
		<path fill="#BD1B38" d="M884,733.5c0-2.6-1.6-4.6-4.2-4.6c-2.6,0-4.3,2-4.3,4.7c0,2.7,1.6,4.6,4.2,4.6
			C882.2,738.2,884,736.5,884,733.5z M877.3,733.6c0-1.9,0.9-3.4,2.5-3.4c1.7,0,2.5,1.6,2.5,3.3c0,1.9-0.9,3.4-2.5,3.4
			C878.2,736.9,877.3,735.4,877.3,733.6z"/>
		<path fill="#BD1B38" d="M894.5,734.1l2.4,4h1.7v-9H897v3.2c0,1.4,0,2.6,0.1,3.8h0c-0.4-1-0.9-2-1.5-3l-2.3-3.9h-1.9v9h1.5v-3.2
			c0-1.5,0-2.7-0.1-3.9l0,0C893.3,732,893.9,733.1,894.5,734.1z"/>
		<path fill="#BD1B38" d="M908.6,729l-2.9,9h1.7l0.8-2.6h2.9l0.8,2.6h1.8l-2.9-9H908.6z M908.5,734.3l0.7-2.2
			c0.2-0.5,0.3-1.2,0.4-1.7h0c0.1,0.5,0.3,1.1,0.5,1.7l0.7,2.2H908.5z"/>
		<polygon fill="#BD1B38" points="920.8,729 920.8,738.1 926.2,738.1 926.2,736.7 922.5,736.7 922.5,729 		"/>
		<path fill="#BD1B38" d="M652.6,745.1c-1,0-1.9,0.1-2.6,0.2v8.9c0.5,0.1,1.3,0.1,2.2,0.1c1.8,0,3.2-0.4,4.1-1.2
			c0.9-0.8,1.4-2,1.4-3.6c0-1.5-0.5-2.6-1.4-3.3C655.5,745.4,654.3,745.1,652.6,745.1z M652.6,753c-0.3,0-0.7,0-0.9,0v-6.5
			c0.2,0,0.6-0.1,1.1-0.1c2.1,0,3.2,1.1,3.2,3.1C656,751.8,654.7,753,652.6,753z"/>
		<polygon fill="#BD1B38" points="666.9,750.2 670.3,750.2 670.3,748.8 666.9,748.8 666.9,746.5 670.5,746.5 670.5,745.1 
			665.2,745.1 665.2,754.2 670.7,754.2 670.7,752.8 666.9,752.8 		"/>
		<path fill="#BD1B38" d="M700.3,746.4c0.7,0,1.3,0.2,1.8,0.3l0.4-1.3c-0.3-0.2-1.1-0.4-2.2-0.4c-2.8,0-4.8,1.8-4.8,4.8
			c0,2.8,1.7,4.5,4.6,4.5c1.1,0,1.9-0.2,2.3-0.4l-0.3-1.3c-0.4,0.2-1.1,0.3-1.8,0.3c-2,0-3.1-1.3-3.1-3.3
			C697.1,747.5,698.4,746.4,700.3,746.4z"/>
		<rect x="709.8" y="745.1" fill="#BD1B38" width="1.7" height="9"/>
		<path fill="#BD1B38" d="M725,748.3c0,1.4,0,2.5,0.1,3.8h0c-0.4-1-0.9-2-1.5-3l-2.3-3.9h-1.9v9h1.5V751c0-1.5,0-2.7-0.1-3.9l0,0
			c0.4,1,1.1,2.1,1.6,3.1l2.4,4h1.7v-9H725V748.3z"/>
		<polygon fill="#BD1B38" points="736.1,750.2 739.5,750.2 739.5,748.8 736.1,748.8 736.1,746.5 739.7,746.5 739.7,745.1 
			734.5,745.1 734.5,754.2 739.9,754.2 739.9,752.8 736.1,752.8 		"/>
		<path fill="#BD1B38" d="M770.5,750.4c0,1.8-0.7,2.6-1.9,2.6c-1.1,0-1.9-0.8-1.9-2.6v-5.3h-1.6v5.2c0,2.8,1.4,4,3.4,4
			c2.2,0,3.6-1.2,3.6-4v-5.2h-1.7V750.4z"/>
		<path fill="#BD1B38" d="M785.7,748.3c0,1.4,0,2.5,0.1,3.8h0c-0.4-1-0.9-2-1.5-3l-2.3-3.9h-1.9v9h1.5V751c0-1.5,0-2.7-0.1-3.9l0,0
			c0.4,1,1,2.1,1.6,3.1l2.4,4h1.7v-9h-1.5V748.3z"/>
		<rect x="795.2" y="745.1" fill="#BD1B38" width="1.6" height="9"/>
		<path fill="#BD1B38" d="M808.8,749.3c-0.4,1.1-0.7,2.2-0.9,3.3h0c-0.2-1.1-0.5-2.2-0.9-3.3l-1.2-4.1h-1.8l2.9,9h1.9l3.1-9h-1.8
			L808.8,749.3z"/>
		<polygon fill="#BD1B38" points="820.6,750.2 824,750.2 824,748.8 820.6,748.8 820.6,746.5 824.2,746.5 824.2,745.1 818.9,745.1 
			818.9,754.2 824.4,754.2 824.4,752.8 820.6,752.8 		"/>
		<path fill="#BD1B38" d="M836.3,749.9L836.3,749.9c0.8-0.3,1.6-1.1,1.6-2.3c0-0.8-0.3-1.4-0.8-1.8c-0.6-0.5-1.5-0.7-2.8-0.7
			c-1,0-1.9,0.1-2.5,0.2v8.9h1.6v-3.7h0.8c0.9,0,1.4,0.4,1.6,1.6c0.3,1.1,0.5,1.9,0.6,2.1h1.7c-0.2-0.4-0.4-1.4-0.7-2.5
			C837.4,750.8,837,750.2,836.3,749.9z M834.5,749.3h-1v-2.9c0.2,0,0.5-0.1,1-0.1c1.1,0,1.8,0.5,1.8,1.5
			C836.3,748.7,835.6,749.3,834.5,749.3z"/>
		<path fill="#BD1B38" d="M848.7,748.9c-1.2-0.5-1.7-0.8-1.7-1.5c0-0.5,0.5-1.1,1.5-1.1c0.9,0,1.5,0.3,1.8,0.4l0.4-1.3
			c-0.5-0.2-1.2-0.4-2.2-0.4c-2,0-3.2,1.1-3.2,2.6c0,1.3,0.9,2.1,2.4,2.6c1.2,0.4,1.6,0.8,1.6,1.5c0,0.7-0.6,1.2-1.7,1.2
			c-0.8,0-1.6-0.3-2.2-0.6l-0.4,1.4c0.5,0.3,1.5,0.6,2.4,0.6c2.3,0,3.4-1.3,3.4-2.7C851.1,750.3,850.3,749.5,848.7,748.9z"/>
		<rect x="858.6" y="745.1" fill="#BD1B38" width="1.6" height="9"/>
		<polygon fill="#BD1B38" points="867.3,746.5 869.9,746.5 869.9,754.2 871.6,754.2 871.6,746.5 874.2,746.5 874.2,745.1 
			867.3,745.1 		"/>
		<path fill="#BD1B38" d="M882.5,745.1l-2.9,9h1.7l0.8-2.6h2.9l0.8,2.6h1.8l-2.9-9H882.5z M882.4,750.4l0.7-2.2
			c0.1-0.5,0.3-1.2,0.4-1.7h0c0.1,0.5,0.3,1.1,0.5,1.7l0.7,2.2H882.4z"/>
		<path fill="#BD1B38" d="M899.3,749.9L899.3,749.9c0.8-0.3,1.6-1.1,1.6-2.3c0-0.8-0.3-1.4-0.8-1.8c-0.6-0.5-1.5-0.7-2.8-0.7
			c-1,0-1.9,0.1-2.5,0.2v8.9h1.6v-3.7h0.8c0.9,0,1.4,0.4,1.6,1.6c0.3,1.1,0.5,1.9,0.6,2.1h1.7c-0.2-0.4-0.4-1.4-0.7-2.5
			C900.4,750.8,900,750.2,899.3,749.9z M897.5,749.3h-1v-2.9c0.2,0,0.5-0.1,1-0.1c1.1,0,1.8,0.5,1.8,1.5
			C899.3,748.7,898.6,749.3,897.5,749.3z"/>
		<rect x="908.6" y="745.1" fill="#BD1B38" width="1.7" height="9"/>
		<path fill="#BD1B38" d="M922,745c-2.6,0-4.3,2-4.3,4.7c0,2.7,1.6,4.6,4.2,4.6c2.5,0,4.3-1.7,4.3-4.8C926.2,747,924.6,745,922,745z
			 M922,753c-1.6,0-2.5-1.5-2.5-3.3c0-1.9,0.9-3.4,2.5-3.4c1.7,0,2.5,1.6,2.5,3.3C924.4,751.5,923.6,753,922,753z"/>
		<path fill="#BD1B38" d="M501.4,422.1c26.7,0,51.6-7.4,72.9-20.2L564,386.6c-18.2,11.8-41.3,19.5-70.1,19.5
			c-41.7,0-73.1-19.7-90.9-56.9c-14.4-30.1-16.5-64.4-16.5-82.2c0-23.8,13.4-60.1,39.5-85.3l-9.9-14.7
			c-34.3,25.9-56.4,67-56.4,113.2C359.6,358.6,423.1,422.1,501.4,422.1z"/>
		<path fill="#BD1B38" d="M603.6,277.2c0-10.7-3.1-104.6-109.2-104.6h-0.6c-16.2,0.1-30.3,5.1-42.1,13l116.5,172.9
			C593.9,333.8,603.6,298.6,603.6,277.2z"/>
		<path fill="#BD1B38" d="M420.3,340.9c14.6,30.5,39.3,45.9,73.5,45.9c24.4,0,43.9-6.4,59.3-16.3L436.9,198
			c-20.4,21-31.2,50.2-31.2,69C405.7,283.2,407.6,314.3,420.3,340.9z"/>
		<path fill="#BD1B38" d="M493.8,153.3h0.6c101.3,0,128.4,77.8,128.4,123.8c0,25.8-11.9,68.5-43.6,97.6l10.9,16.2
			c32.4-26,53.1-65.9,53.1-110.6c0-78.3-63.5-141.8-141.8-141.8c-25.2,0-48.8,6.6-69.3,18.1l8.8,13
			C455.7,159.7,473.3,153.4,493.8,153.3z"/>
		<path fill="#ED2246" d="M585.5,418.4l15.9-10.8l-11.3-16.7c-5,4-10.3,7.7-15.8,11L585.5,418.4z"/>
		<path fill="#BD1B38" d="M423.9,144.3l-16,10.8l8.1,12.1c5.1-3.9,10.5-7.4,16.1-10.5L423.9,144.3z"/>
		<polygon fill="#ED2246" points="688,168.3 668.8,168.3 668.8,218.5 688,232.9 		"/>
		<polygon fill="#BD1B38" points="688,354.3 688,232.9 668.8,218.5 668.8,354.3 		"/>
		<path fill="#ED2246" d="M851,156.1c31.6,2.4,113.7,26.7,113.7,109.6c0,47.6-20.2,78.3-37.1,95.7c-10.1,10.4-21.9,18.9-34.6,25.1
			l23.3,17.4c43.2-24.3,72.3-70.6,72.3-123.6c0-78.3-63.5-141.8-141.8-141.8c-30.3,0-58.4,9.5-81.4,25.7l0.5,13.1
			C784,167.8,817.5,153.6,851,156.1z"/>
		<path fill="#ED2246" d="M946.2,265.7c0-29.7-12.5-53.3-37-70.1c-20.2-13.8-44.7-20-59.6-21.1c-42.1-3.2-86.9,25.9-87.4,26.2
			l-13.7,9l-1.1-30.5c-18.9,18.6-32.7,42.4-38.8,69.2L876.3,374C920.6,357.7,946.2,310.6,946.2,265.7z"/>
		<path fill="#BD1B38" d="M846.8,422.1c25.3,0,49-6.6,69.5-18.2L893,386.5c-14.7,7.2-30.6,11.3-46.5,11.9c-2.2,0.1-4.4,0.1-6.4,0.1
			c-49.3,0-71.8-21.6-97.1-63.1l15.8-9.6c26.5,43.5,46,55.6,87.1,54.2c11-0.4,21.1-2.5,30.5-5.9L708.6,248.3
			c-2.4,10.3-3.6,21-3.6,32C704.9,358.6,768.5,422.1,846.8,422.1z"/>
		<path fill="#ED2246" d="M764.1,123.2l104.8-4.6l-0.8-18.5L745,105.6l2.4,73.6c5.6-5.5,11.6-10.4,18-14.9L764.1,123.2z"/>
		<path fill="#ED2246" d="M1070.2,492.7c10.6,5,63.1,29.7,115.5,53.6c89.7,41,115.4,51.9,125,51.9c3.7,0,5-1.6,6.7-3.8
			c2.6-3.3,2.8-7.6,0.7-11.2c-6.3-21.9-16.3-276-21.5-443.4c1.6-9.2,2.1-16.4-4-20.3c-2.3-1.4-5-1.8-7.6-1.2
			c-6.5,0.5-38.3,2.9-49.1,2.9c-7.4,0-26.9-1.7-34.4-3c-1.5-0.3-4.6-1.1-6-0.4c-0.9,0.4-4.9,4-4.9,4c-0.6,0.5-60.4,47.3-80.3,62.5
			c-23,17.6-89.4,72.2-89.4,78.7c0,4.7,16.3,16.4,27.2,23.8c-2.1,34.9-26.1,91.6-69,133.6c-5.5,5.4-11.9,11-18.9,16.5l74.7,56
			C1050.1,492.8,1062.6,492.7,1070.2,492.7z M1072.3,483.1L1072.3,483.1L1072.3,483.1z M1285.3,359.6c5.5,135.5,9.3,191.2,12.1,215
			c-37.6-15-144-64-215.5-97.6c-0.2-14.6-0.8-53.5-2.3-92.5c-2.4-59.2-5.5-86-9-98.7c16.4-9.4,56.9-33.1,104.3-64.8
			c24.8-16.6,51.9-36.7,78-56.2c8.1-6,16.4-12.2,24.6-18.2C1278.4,172.6,1281.4,266.1,1285.3,359.6z M1045.8,260.8
			c-2.3-3.6,58.5-50.7,76.3-64.3c17.7-13.5,66.9-48.4,79.4-58.8c8.2,0.9,26.6,2.7,34.4,2.7c4.2,0,11.1-0.3,18.5-0.8
			c-4.4,3.2-8.7,6.5-13,9.7c-26,19.3-52.8,39.3-77.3,55.6c-50,33.5-89.1,57.8-103,65.7C1061.2,270.7,1047.7,263.9,1045.8,260.8z"/>
		<path fill="#BD1B38" d="M849.4,474.9c-133.1-3.1-312.9-0.2-457.4,2.2c-85.6,1.4-167.3,2.7-198.4,1.8c7.3-8.8,19.3-21.9,31-34.7
			c76.8-83.9,150.1-169.7,129.7-216c-8.2-18.6-29.9-28.1-64.4-28.1c0,0-0.1,0-0.1,0c-45.9,0-66.4,35.1-67.3,36.6l16.7,9.5
			c0.2-0.3,15.7-26.9,50.6-26.9c0,0,0.1,0,0.1,0c18.1,0,40.8,2.9,46.8,16.6c17,38.7-79.7,144.5-126.3,195.3
			C173,472,167,479.2,168,487.4c0.4,3.1,2.1,5.9,4.6,7.6c3.4,2.3,10.2,3.4,50.4,3.4c31.3,0,83.1-0.7,169.3-2.1
			c144.3-2.3,323.9-5.2,456.6-2.2c5.4,0.1,10.7,0,15.8-0.3c3.7,0,108.9-0.7,170.1-0.9l-74.7-56C933.8,457.3,896.7,476,849.4,474.9z"
			/>
		<path fill="#ED2246" d="M802.4,84.9c0.8,0,1.6-0.1,2.4-0.2c15-2,21.7-11.9,21.7-20.9c0-7.5-2.8-18-10.8-22.8
			c-3.8-2.3-8.3-3.5-13-3.5c-11.1,0-22.5,6.9-22.5,18.5C780.2,70,788.7,84.9,802.4,84.9z M802.7,48.5c2.8,0,5.3,0.7,7.4,1.9
			c3.2,1.9,5.5,7.6,5.5,13.4c0,5.2-4.8,9.1-12.3,10.1c-0.3,0-0.7,0.1-1,0.1c-6.5,0-11.3-9.5-11.3-18
			C791.1,51.4,797.1,48.5,802.7,48.5z"/>
	</g>
	<g>
		<g>
			<g>
				<defs>
					<rect id="SVGID_29_" x="1137.9" y="5831.9" width="341.5" height="606.7"/>
				</defs>
				<clipPath id="SVGID_2_">
					<use xlink:href="#SVGID_29_"  overflow="visible"/>
				</clipPath>
			</g>
		</g>
	</g>
</g>
</svg>
