<?xml version="1.0" encoding="utf-8"?>
<!-- Generator: Adobe Illustrator 19.0.0, SVG Export Plug-In . SVG Version: 6.00 Build 0)  -->
<svg version="1.1" id="Layer_1" xmlns="http://www.w3.org/2000/svg" xmlns:xlink="http://www.w3.org/1999/xlink" x="0px" y="0px"
	 viewBox="126 -200 551 551" enable-background="new 126 -200 551 551" xml:space="preserve">
<g id="XMLID_13_">
	<path id="XMLID_17_" fill="#FFFFFF" d="M512.9-200H290.2C199.6-200,126-126.4,126-35.9v222.7c0,90.5,73.6,164.2,164.2,164.2h222.7
		c90.5,0,164.2-73.6,164.2-164.2V-35.9C677-126.4,603.4-200,512.9-200z M621.6,186.8c0,60-48.7,108.7-108.7,108.7H290.2
		c-60,0-108.7-48.7-108.7-108.7V-35.9c0-60,48.7-108.7,108.7-108.7h222.7c60,0,108.7,48.7,108.7,108.7V186.8L621.6,186.8z"/>
	<path id="XMLID_81_" fill="#FFFFFF" d="M401.5-67C322.9-67,259-3.1,259,75.5S322.9,218,401.5,218S544,154.1,544,75.5
		S480.1-67,401.5-67z M401.5,162.6c-48.1,0-87.1-39-87.1-87.1s39-87.1,87.1-87.1c48.1,0,87.1,39,87.1,87.1
		C488.6,123.6,449.6,162.6,401.5,162.6z"/>
	<circle id="XMLID_83_" fill="#FFFFFF" cx="544.3" cy="-66" r="34.1"/>
</g>
</svg>
