<?xml version="1.0" encoding="utf-8"?>
<!-- Generator: Adobe Illustrator 16.0.0, SVG Export Plug-In . SVG Version: 6.00 Build 0)  -->
<!DOCTYPE svg PUBLIC "-//W3C//DTD SVG 1.1//EN" "http://www.w3.org/Graphics/SVG/1.1/DTD/svg11.dtd">
<svg version="1.1" id="Layer_1" xmlns="http://www.w3.org/2000/svg" xmlns:xlink="http://www.w3.org/1999/xlink" x="0px" y="0px"
	 width="70px" height="90px" viewBox="0 0 70 90" enable-background="new 0 0 70 90" xml:space="preserve">
<g id="Spinner">
	<g>
		<path fill="#272727" d="M35.677,59.742c8.279,0,15,6.718,15,14.999h-3.75c0-6.214-5.036-11.25-11.25-11.25V59.742z"/>
		<circle fill="none" cx="35.677" cy="74.741" r="15"/>
		
			<animateTransform  type="rotate" fill="remove" calcMode="linear" additive="replace" to="360 35.5 74.5" from="0 35.5 74.5" restart="always" accumulate="none" attributeName="transform" dur="0.8s" repeatCount="indefinite">
			</animateTransform>
	</g>
	<path opacity="0.25" fill="#272727" enable-background="new    " d="M35.677,59.742c-8.284,0-15,6.718-15,14.999
		c0,8.282,6.716,15,15,15c8.279,0,15-6.718,15-15C50.677,66.46,43.957,59.742,35.677,59.742 M35.677,63.491
		c6.214,0,11.25,5.036,11.25,11.25c0,6.215-5.036,11.25-11.25,11.25c-6.215,0-11.25-5.035-11.25-11.25
		C24.427,68.527,29.464,63.491,35.677,63.491"/>
</g>
<path stroke="#000000" stroke-width="13" stroke-miterlimit="10" d="M35.677,73.5"/>
<path d="M39.336,13.719c-1.775,0-3.254-1.479-3.254-3.254c0-1.578,1.085-2.86,2.465-3.254c-0.986-0.395-2.169-0.69-3.353-0.69
	c-4.438,0-8.086,3.55-8.086,8.086c0,4.438,3.649,7.988,8.086,7.988s8.085-3.55,8.085-7.988c0-1.282-0.295-2.367-0.788-3.452
	C42.195,12.634,40.914,13.719,39.336,13.719z"/>
<path d="M35.392,0.406c-19.032,0-34.811,14.299-34.811,14.299s15.778,14.201,34.811,14.201c19.033,0,34.021-14.201,34.021-14.201
	S54.424,0.406,35.392,0.406z M4.556,14.702C13.458,7.426,23.796,2.641,35.38,2.641c11.583,0,21.157,4.787,30.06,12.062
	c-8.903,7.276-18.478,11.871-30.06,11.871C23.797,26.573,13.458,21.978,4.556,14.702z"/>
</svg>
