<?xml version="1.0" encoding="utf-8"?>
<!-- Generator: Adobe Illustrator 16.0.0, SVG Export Plug-In . SVG Version: 6.00 Build 0)  -->
<!DOCTYPE svg PUBLIC "-//W3C//DTD SVG 1.1//EN" "http://www.w3.org/Graphics/SVG/1.1/DTD/svg11.dtd">
<svg version="1.1" xmlns="http://www.w3.org/2000/svg" xmlns:xlink="http://www.w3.org/1999/xlink" x="0px" y="0px"
	 width="123.061px" height="111.973px" viewBox="0 0 123.061 111.973" enable-background="new 0 0 123.061 111.973"
	 xml:space="preserve">
<g id="Logo">
	<g>
		<path fill="#FFFFFF" d="M0.117-0.141v111.86h122.669V-0.141H0.117z M45.274,84.529c1.83-1.492,8.693-6.305,16.185-6.305
			c7.661,0,13.96,4.811,15.732,6.299c-2.022,1.479-9.273,6.523-15.627,6.523C55.046,91.047,47.325,86.015,45.274,84.529z"/>
	</g>
	<g>
		<polygon fill="#272727" points="103.862,62.261 90.939,62.261 90.939,47.213 92.459,47.213 92.459,60.741 103.862,60.741 		"/>
	</g>
	<path fill="#272727" d="M57.75,25.445c0-0.295,0.001-0.59,0.001-0.883v-0.267l14.357-8.145H57.751l-0.005-1.312
		c0.727-0.071,0.825-0.275,0.825-0.45c0-0.117,0-0.474-1.338-0.474s-1.338,0.356-1.338,0.474c0,0.175,0.101,0.379,0.826,0.45
		l-0.007,1.312h-3.66v1.274h3.655l-0.005,1.251c0,0.367-0.003,0.751-0.002,1.146l0.001,3.601l-5.812,3.296h5.819l0.028,6.23
		c0.002,0.375,0.004,0.737,0.009,1.078c0.004,0.545,0.016,1.046,0.028,1.491l0.021,0.621l0.102,1.766h0.643l0.126-2.388
		c0.013-0.444,0.024-0.944,0.029-1.488c0.006-0.352,0.008-0.722,0.01-1.106l0.036-6.204h18.042v-1.275L57.75,25.445L57.75,25.445z
		 M57.758,18.713l-0.003-1.286h9.522l-9.522,5.401l0.004-3.002C57.76,19.44,57.76,19.068,57.758,18.713z M56.706,25.445h-0.98
		l0.979-0.556C56.705,25.074,56.705,25.26,56.706,25.445z"/>
	<polygon fill="#272727" points="118.997,-0.198 106.804,3.874 110.206,7.274 14.039,97.173 8.127,97.173 8.127,97.933 
		13.225,97.933 11.758,99.304 6.102,99.206 6.089,99.965 10.96,100.051 9.691,101.236 4.063,101.236 4.063,101.999 8.879,101.999 
		7.518,103.267 2.033,103.267 2.033,104.028 6.705,104.028 5.344,105.299 0,105.299 0,106.059 4.532,106.059 3.458,107.064 
		4.67,108.358 5.716,107.381 5.716,111.774 6.476,111.774 6.476,106.673 7.748,105.482 7.748,109.743 8.508,109.743 8.508,104.771 
		9.778,103.585 9.778,107.714 10.54,107.714 10.54,102.874 11.767,101.724 11.81,105.683 12.57,105.676 12.519,101.021 
		13.843,99.783 13.843,103.648 14.602,103.648 14.602,99.073 111.461,8.528 114.932,12.001 	"/>
	<polygon fill="#272727" points="123.059,105.299 117.715,105.299 116.354,104.028 121.028,104.028 121.028,103.267 
		115.541,103.267 114.181,101.999 118.997,101.999 118.997,101.236 113.37,101.236 112.099,100.051 116.971,99.965 116.958,99.206 
		111.302,99.304 109.834,97.933 114.932,97.933 114.932,97.173 109.021,97.173 12.853,7.274 16.256,3.874 4.063,-0.198 
		8.128,12.001 11.599,8.529 108.458,99.073 108.458,103.648 109.219,103.648 109.219,99.783 110.541,101.021 110.491,105.676 
		111.25,105.683 111.293,101.724 112.519,102.874 112.519,107.714 113.282,107.714 113.282,103.585 114.552,104.771 
		114.552,109.743 115.312,109.743 115.312,105.482 116.584,106.673 116.584,111.774 117.344,111.774 117.344,107.381 
		118.391,108.358 119.601,107.064 118.528,106.059 123.059,106.059 	"/>
	<g>
		<polygon fill="#272727" points="14.706,73.351 13.667,72.241 33.02,54.142 22.408,55.559 33.046,45.607 34.162,46.64 
			27.498,53.14 37.903,51.638 		"/>
	</g>
	<g id="Layer_2">
		<g>
			<path fill="#272727" d="M61.564,91.877c-8.169,0-16.493-6.551-16.843-6.828l-0.565-0.449l0.528-0.492
				c0.293-0.275,7.296-6.713,16.775-6.713c9.694,0,16.451,6.445,16.734,6.721l0.509,0.49l-0.552,0.441
				C77.802,85.326,69.529,91.877,61.564,91.877z M46.105,84.529c2.051,1.486,8.941,6.102,15.459,6.102
				c6.354,0,13.189-4.629,15.213-6.107c-1.773-1.488-7.657-5.883-15.318-5.883C53.967,78.64,47.936,83.037,46.105,84.529z"/>
		</g>
	</g>
</g>
<g id="Par">
			<path fill="#272727" d="M45.197,84.558c0,0,8.915-6.655,16.208-6.572s16.209,6.605,16.209,6.605s-8.586-6.063-16.209-6.23
		C53.78,78.194,45.197,84.558,45.197,84.558z"> 
		<animate type="translate" 
			attributeName="d"
			keyTimes="0;.3;.32;.33;.34;.35;1"
		    dur="7s" 
		    repeatCount="indefinite"
			values="M45.197,84.558c0,0,8.915-6.655,16.208-6.572s16.209,6.605,16.209,6.605s-8.586-6.063-16.209-6.23
		C53.78,78.194,45.197,84.558,45.197,84.558z;
		M45.197,84.558c0,0,8.915-6.655,16.208-6.572s16.209,6.605,16.209,6.605s-8.586-6.063-16.209-6.23
		C53.78,78.194,45.197,84.558,45.197,84.558z;
		M45.197,84.558c0,0,8.915-6.655,16.208-6.572s16.209,6.605,16.209,6.605s-8.461,0.749-16.084,0.582
		C53.906,85.007,45.197,84.558,45.197,84.558z;
		M45.197,84.558c0,0,8.915-6.655,16.208-6.572s16.209,6.605,16.209,6.605s-8.586,6.562-16.209,6.395
		C53.78,90.819,45.197,84.558,45.197,84.558z;
		M45.197,84.558c0,0,8.915-6.655,16.208-6.572s16.209,6.605,16.209,6.605s-8.461,0.749-16.084,0.582
		C53.906,85.007,45.197,84.558,45.197,84.558z;
		M45.197,84.558c0,0,8.915-6.655,16.208-6.572s16.209,6.605,16.209,6.605s-8.586-6.063-16.209-6.23
		C53.78,78.194,45.197,84.558,45.197,84.558z;
		M45.197,84.558c0,0,8.915-6.655,16.208-6.572s16.209,6.605,16.209,6.605s-8.586-6.063-16.209-6.23
		C53.78,78.194,45.197,84.558,45.197,84.558z"
		 />
	</path>
</g>
</svg>
