<?xml version="1.0" encoding="utf-8"?>
<!-- Generator: Adobe Illustrator 16.0.0, SVG Export Plug-In . SVG Version: 6.00 Build 0)  -->
<!DOCTYPE svg PUBLIC "-//W3C//DTD SVG 1.1//EN" "http://www.w3.org/Graphics/SVG/1.1/DTD/svg11.dtd">
<svg version="1.1" xmlns="http://www.w3.org/2000/svg" xmlns:xlink="http://www.w3.org/1999/xlink" x="0px" y="0px"
	 width="123.061px" height="111.973px" viewBox="0 0 123.061 111.973" enable-background="new 0 0 123.061 111.973"
	 xml:space="preserve">
<g id="Logo">
			<path fill="#272727" d="M73.275,29.412c0-1.875-0.433-3.46-1.151-5.046c-0.434,2.162-2.309,3.748-4.613,3.748
				c-2.596,0-4.759-2.162-4.759-4.758c0-2.307,1.586-4.181,3.604-4.757c-1.44-0.577-3.171-1.01-4.9-1.01
				c-6.489,0-11.823,5.19-11.823,11.823c0,6.487,5.334,11.678,11.823,11.678C67.942,41.09,73.275,35.9,73.275,29.412z"/>
			<path fill="#272727" d="M62.792,78.35l26.631-15.201H62.945c0.033-4.192,0.062-8.49,0.088-12.846
				c27.21-0.624,48.449-20.747,48.449-20.747S90.395,9.444,63.327,8.676V2.737c1.146-0.032,2.738-0.439,2.738-0.718
				c0-0.144,0-1.152,0-1.297C66.067,0.433,65.058,0,61.741,0s-4.325,0.433-4.325,0.721c0,0.145,0,1.153,0,1.297
				c0,0.275,1.706,0.682,2.738,0.717v5.94c-27.11,0.767-49.308,20.88-49.308,20.88s22.201,19.979,49.315,20.736
				c0.024,4.358,0.053,8.661,0.086,12.855H48.333v2.738h11.938c0.031,3.609,0.067,7.127,0.107,10.521l-17.381,9.952h17.52
				c0.181,10.9,0.433,19.853,0.79,25.377h0.577c0.359-5.524,0.61-14.477,0.791-25.377h35.108v-2.885H62.722
				C62.746,81.807,62.769,80.096,62.792,78.35z M61.741,11.39c17.444,0,31.862,7.209,45.271,18.166
				C93.605,40.513,79.187,47.434,61.741,47.434s-33.017-6.92-46.425-17.878C28.726,18.599,44.297,11.39,61.741,11.39z
				 M62.923,65.887h15.831l-15.923,9.117C62.865,72.047,62.895,69,62.923,65.887z M53.812,83.477l6.608-3.772
				c0.018,1.28,0.035,2.537,0.053,3.772H53.812z"/>
</g>

<g id="Parpado">
	<path fill="#272727" d="M13.531,29.341c0,0,20.768-19.854,47.634-19.854s47.616,19.854,47.616,19.854S86.448,10.487,61.156,10.487
		S13.531,29.341,13.531,29.341z">

		<animate type="translate" 
			attributeName="d"
			keyTimes="0;.3;.4;.5;1"
		    dur="7s" 
		    repeatCount="indefinite"
		    calcMode="spline"
		    keySplines="
            0,0,1,1; 
            0.47, 0, 0.745, 0.715; 
            0.47, 0, 0.745, 0.715; 
            0,0,1,1" 
			values="
			M12.509,29.238c0,0,26.962-20.128,49.02-19.876c22.06,0.251,49.022,19.978,49.022,19.978
			S84.583,11,61.529,10.495C38.468,9.99,12.509,29.238,12.509,29.238z;
			M12.509,29.238c0,0,26.962-20.128,49.02-19.876c22.06,0.251,49.022,19.978,49.022,19.978
			S84.583,11,61.529,10.495C38.468,9.99,12.509,29.238,12.509,29.238z;
			M13.531,29.341c0,0,20.768-19.854,47.634-19.854s47.616,19.854,47.616,19.854S86.448,48.82,61.156,48.82
			S13.531,29.341,13.531,29.341z;
			M12.509,29.238c0,0,26.962-20.128,49.02-19.876c22.06,0.251,49.022,19.978,49.022,19.978
			S84.583,11,61.529,10.495C38.468,9.99,12.509,29.238,12.509,29.238z;
			M12.509,29.238c0,0,26.962-20.128,49.02-19.876c22.06,0.251,49.022,19.978,49.022,19.978
			S84.583,11,61.529,10.495C38.468,9.99,12.509,29.238,12.509,29.238z
			"/>
	</path>
</g>
</svg>
