<?xml version="1.0" encoding="utf-8"?>
<!-- Generator: Adobe Illustrator 19.0.0, SVG Export Plug-In . SVG Version: 6.00 Build 0)  -->
<svg version="1.1" xmlns="http://www.w3.org/2000/svg" xmlns:xlink="http://www.w3.org/1999/xlink" x="0px" y="0px"
	 viewBox="27 -11 123.1 112" enable-background="new 27 -11 123.1 112" xml:space="preserve">
	<g id="Parpado">
		<path fill="#272727" d="M59.8,52.9c0,0,8.7-12.3,28.5-12.3S118,52.9,118,52.9S107.4,37,88.4,37S59.8,52.9,59.8,52.9z		">
				<animate
					type="translate"
					fill="remove"
					calcMode="spline"
					attributeName="d"
					values="
					M59.8,52.9c0,0,8.7-12.3,28.5-12.3S118,52.9,118,52.9S107.4,37,88.4,37S59.8,52.9,59.8,52.9z;
					M59.8,52.9c0,0,8.7-12.3,28.5-12.3S118,52.9,118,52.9S107.4,37,88.4,37S59.8,52.9,59.8,52.9z;
					M59.8,52.9c0,0,8.7,12.8,28.5,12.8S118,52.9,118,52.9S107.4,37,88.4,37S59.8,52.9,59.8,52.9z;
					M59.8,52.9c0,0,8.7-12.3,28.5-12.3S118,52.9,118,52.9S107.4,37,88.4,37S59.8,52.9,59.8,52.9z;
					M59.8,52.9c0,0,8.7-12.3,28.5-12.3S118,52.9,118,52.9S107.4,37,88.4,37S59.8,52.9,59.8,52.9z"
					additive="replace" dur="7s" accumulate="none" restart="always" repeatCount="indefinite"
					keyTimes="0;.3;.35;.4;1"
					keySplines="
					0.1 0.8 0.2 1;
					0.1 0.8 0.2 1;
					0.1 0.8 0.2 1;
					0.1 0.8 0.2 1;">
				</animate>
		</path>
</g>
<g id="Logo">
	<g>
		<path fill="#272727" d="M149.5,29.9c-0.2-0.1-0.6-0.2-1-0.3c-0.2-0.1-0.4-0.1-0.7-0.2c-0.3-0.1-0.6-0.1-0.9-0.2
			c-0.6-0.2-1.4-0.3-2.2-0.5c-0.8-0.2-1.7-0.4-2.7-0.6c-0.5-0.1-1-0.2-1.6-0.3c-0.5-0.1-1.1-0.2-1.7-0.3c-1.1-0.2-2.3-0.4-3.6-0.7
			c0.2-0.8,0.3-1.5,0.5-2.3c0.1-0.7,0.3-1.4,0.4-2c0.1-0.7,0.2-1.3,0.3-2c0.4-2.6,0.8-5.1,1.1-7.5c0.7-4.7,1.1-8.8,1.5-12.2
			c0.4-3.4,0.6-6.1,0.7-7.9c0.1-0.9,0.1-1.6,0.2-2.1c0-0.5,0-0.7,0-0.7s-0.1,1-0.4,2.8c-0.3,1.8-0.7,4.4-1.3,7.8
			c-0.6,3.3-1.4,7.4-2.3,12c-0.5,2.3-1,4.8-1.6,7.4c-0.1,0.6-0.3,1.3-0.4,2c-0.1,0.7-0.3,1.3-0.4,2c-0.2,0.8-0.3,1.6-0.5,2.4
			c-0.7-0.1-1.4-0.1-2.1-0.2c-0.7-0.1-1.5-0.1-2.2-0.2c-0.4,0-0.8-0.1-1.1-0.1c-0.4,0-0.8-0.1-1.2-0.1c-1.6-0.1-3.2-0.3-4.8-0.4
			c-1.7-0.1-3.4-0.3-5.1-0.3c-0.9-0.1-1.8-0.1-2.6-0.2c-0.4,0-0.9-0.1-1.3-0.1c-0.5,0-0.9,0-1.4-0.1c-0.9,0-1.8-0.1-2.7-0.1
			c-0.6-0.2-1.1-0.2-1.5-0.2c-0.5,0-0.9,0-1.4,0c-0.9,0-1.9-0.1-2.8-0.1c-0.9,0-1.9-0.1-2.9-0.1c-1.9,0-3.8-0.1-5.8-0.1
			c-1,0-1.9,0-2.9,0s-1.9,0-2.9,0c-7.8,0.1-15.5,0.6-22.8,1.4c-7,0.7-13.5,1.6-19.2,2.6c-0.2-0.9-0.3-1.7-0.5-2.5
			c-0.6-2.6-1.1-5-1.5-7.4c-0.5-2.3-0.8-4.5-1.2-6.5s-0.7-3.9-0.9-5.5c-0.5-3.4-0.9-6-1.1-7.8s-0.3-2.8-0.3-2.8s0,0.2,0,0.7
			s0,1.2,0.1,2.1C40.9,0.3,41,3,41.3,6.4c0.3,3.4,0.7,7.5,1.3,12.2c0.3,2.4,0.7,4.9,1.1,7.5c0.1,0.8,0.3,1.7,0.5,2.5
			c-0.2,0-0.3,0.1-0.5,0.1c-0.3,0.1-0.7,0.1-1,0.2c-0.3,0.1-0.7,0.1-1,0.2c-1.3,0.3-2.5,0.6-3.7,0.9c-1.2,0.2-2.2,0.5-3.2,0.8
			s-1.9,0.5-2.7,0.8c-1.6,0.5-2.9,0.9-3.8,1.2c-0.4,0.1-0.8,0.3-1,0.3c-0.1,0-0.2,0.1-0.2,0.1c0.2,0,0.6-0.1,1.3-0.2
			c0.9-0.1,2.2-0.3,3.9-0.6c0.8-0.1,1.8-0.3,2.8-0.4c1-0.1,2.1-0.3,3.3-0.4c1.2-0.2,2.4-0.3,3.7-0.5c0.7-0.1,1.3-0.2,2-0.3
			c0.2,0,0.4-0.1,0.6-0.1c0.3,1.2,0.5,2.4,0.8,3.6c1.3,5.7,2.8,11.9,4.9,18.3c1,3.2,2.2,6.5,3.5,9.7c1.3,3.3,2.8,6.6,4.4,9.9
			c1.7,3.3,3.5,6.5,5.7,9.7c1.1,1.6,2.3,3.1,3.5,4.6c1.3,1.5,2.6,2.9,4,4.2c2.9,2.7,6.2,5,9.9,6.6c0.9,0.4,1.9,0.8,2.8,1.1
			c0.2,0.1,0.5,0.2,0.7,0.2l0.7,0.2c0.2,0.1,0.5,0.1,0.7,0.2c0.1,0,0.2,0.1,0.4,0.1l0.4,0.1c0.2,0.1,0.5,0.1,0.7,0.2l0.4,0.1
			l0.4,0.1c0.5,0.1,1,0.1,1.5,0.2c1,0.1,2,0.1,3.1,0c2-0.1,4.1-0.6,6-1.3c1.9-0.7,3.7-1.7,5.3-2.9s3.1-2.5,4.5-3.9
			c1.4-1.4,2.6-2.9,3.8-4.5c2.3-3.1,4.3-6.4,6.1-9.8c1.8-3.4,3.3-6.8,4.7-10.2c2.8-6.8,4.9-13.5,6.8-20c1.8-6.4,3.3-12.5,4.5-18.2
			c0,0,0,0,0.1,0c1.3,0.1,2.6,0.2,3.7,0.2c1.2,0.1,2.3,0.2,3.3,0.2c1,0.1,2,0.2,2.8,0.2c1.7,0.2,3,0.3,3.9,0.4
			c0.9,0.1,1.4,0.2,1.4,0.2S149.7,29.9,149.5,29.9z M88.4,63.9c-11.9,0-24.3-8.5-27.5-10.9c1.2-1,3.9-3.1,7.6-5.2
			c3.1-1.7,7.3-3.7,12.3-4.8c-1.1,1.6-1.8,3.6-1.8,5.7c0,5.5,4.5,10,10,10c5.5,0,10-4.5,10-10c0-1.5-0.3-2.9-0.9-4.2
			c-0.4,1.8-2,3.1-4,3.1c-2.3,0-4.1-1.8-4.1-4.1c0-0.6,0.1-1.1,0.3-1.6c7.7,0.2,14.5,3.3,19,5.9c3.6,2.1,6.2,4.2,7.5,5.2
			C113.9,55.4,102,63.9,88.4,63.9z"/>
		<path fill="#272727" d="M27.1,33.2C27,33.2,27,33.2,27.1,33.2C27,33.2,27,33.2,27.1,33.2z"/>
	</g>
</g>
</svg>
