<?xml version="1.0" encoding="utf-8"?>
<!-- Generator: Adobe Illustrator 19.0.0, SVG Export Plug-In . SVG Version: 6.00 Build 0)  -->
<svg version="1.1" id="Layer_1" xmlns="http://www.w3.org/2000/svg" xmlns:xlink="http://www.w3.org/1999/xlink" x="0px" y="0px"
	 viewBox="204 -8 707.5 166" enable-background="new 204 -8 707.5 166" xml:space="preserve">
<g id="XMLID_13_">
	<path id="XMLID_17_" fill="#FFFFFF" d="M661.9,32.1H626c-14.6,0-26.5,11.9-26.5,26.5v35.9c0,14.6,11.9,26.5,26.5,26.5h35.9
		c14.6,0,26.5-11.9,26.5-26.5V58.6C688.4,44,676.5,32.1,661.9,32.1z M679.5,94.5c0,9.7-7.8,17.5-17.5,17.5H626
		c-9.7,0-17.5-7.8-17.5-17.5V58.6c0-9.7,7.8-17.5,17.5-17.5h35.9c9.7,0,17.5,7.8,17.5,17.5V94.5L679.5,94.5z"/>
	<path id="XMLID_81_" fill="#FFFFFF" d="M644,53.6c-12.7,0-23,10.3-23,23s10.3,23,23,23s23-10.3,23-23S656.7,53.6,644,53.6z
		 M644,90.6c-7.8,0-14-6.3-14-14s6.3-14,14-14c7.8,0,14,6.3,14,14C658,84.3,651.7,90.6,644,90.6z"/>
	<circle id="XMLID_83_" fill="#FFFFFF" cx="667" cy="53.7" r="5.5"/>
</g>
<path fill="#FFFFFF" d="M327.5,38.6h-83.1c-5,0-9.1,4.1-9.1,9.1v58.6c0,5,4.1,9.1,9.1,9.1h83.1c5,0,9.1-4.1,9.1-9.1V47.7
	C336.6,42.7,332.5,38.6,327.5,38.6z M243.9,52.8l39.8,34l0.3,0.2c0,0,0.1,0,0.1,0.1l0.8,0.4h0.1c0.1,0,0.1,0,0.2,0.1l0.2,0.1h0
	c0,0,0.1,0,0.1,0l0.6,0.1c0.2,0,0.4,0,0.7,0c0.1,0,0.3,0,0.5-0.1l0.5-0.1c0,0,0,0,0,0l1.2-0.6l39-33.3v52.5c0,0.2-0.2,0.5-0.5,0.5
	h-83.1c-0.2,0-0.5-0.2-0.5-0.5V52.8z M250.6,47.2h71.8l-35.9,30.7L250.6,47.2z"/>
<path fill="#FFFFFF" d="M476.1,53.7c4.1,0,7.5-3.4,7.5-7.5V32c0-4.1-3.4-7.5-7.5-7.5h-12c-0.2,0-0.4,0-0.7,0
	c-2.7,0-11.9,0.5-19.3,7.3c-8,7.3-7.6,16.2-7.2,19v4.9h-4.7c-4.1,0-7.5,3.4-7.5,7.5v15.2c0,4.1,3.4,7.5,7.5,7.5h4.2v35.9
	c0,4.1,3.4,7.5,7.5,7.5h17.3c4.1,0,7.5-3.4,7.5-7.5V86.2h5.7c3.8,0,7-2.9,7.4-6.6l1.8-15.4c0.2-2.1-0.4-4.3-1.9-5.8
	c-1.4-1.6-3.5-2.5-5.6-2.5h-7.5v-2.1H476.1z M460.6,80.2v41.2h-16.3V80v-2h-2h-9.7V63.7h10.2h2v-2V50.4v-0.2l0-0.2
	c-0.2-1.2-0.9-7.2,4.7-12.4c5.3-4.8,11.9-5.2,13.9-5.2c0.2,0,0.4,0,0.5,0l0,0h0h11.7v13.2h-8.3c-4.2,0-6.7,2.4-6.7,6.4v9.7v2h2h12.9
	l-1.7,14.4h-11.3h-2V80.2z"/>
</svg>
