<?xml version="1.0" encoding="utf-8"?>
<!-- Generator: Adobe Illustrator 16.0.0, SVG Export Plug-In . SVG Version: 6.00 Build 0)  -->
<!DOCTYPE svg PUBLIC "-//W3C//DTD SVG 1.1//EN" "http://www.w3.org/Graphics/SVG/1.1/DTD/svg11.dtd">
<svg version="1.1" id="Layer_1" xmlns="http://www.w3.org/2000/svg" xmlns:xlink="http://www.w3.org/1999/xlink" x="0px" y="0px"
	 width="707.539px" height="166.047px" viewBox="0 0 707.539 166.047" enable-background="new 0 0 707.539 166.047"
	 xml:space="preserve">
<path fill="#FFFFFF" d="M42.847,50.874v63.5h78.128v-63.5H42.847z M108.777,57.973L82.189,79.334L55.595,57.973H108.777z
	 M49.945,62.541l23.732,19.063l-23.732,21.083V62.541z M51.465,107.275l25.723-22.854l5.001,4.016l4.997-4.016l25.722,22.854H51.465
	z M113.875,102.195L90.691,81.604l23.184-18.619V102.195z"/>
<path fill="#FFFFFF" d="M659.68,62.157c-3.017,1.34-6.271,2.246-9.673,2.652c3.479-2.086,6.152-5.385,7.404-9.317
	c-3.26,1.931-6.854,3.331-10.699,4.084c-3.062-3.274-7.45-5.317-12.299-5.317c-9.293,0-16.836,7.543-16.836,16.846
	c0,1.322,0.146,2.604,0.433,3.836c-13.999-0.703-26.406-7.404-34.724-17.604c-1.451,2.497-2.283,5.39-2.283,8.479
	c0,5.839,2.975,10.998,7.498,14.021c-2.764-0.084-5.361-0.849-7.635-2.103v0.207c0,8.167,5.805,14.98,13.519,16.523
	c-1.417,0.396-2.904,0.595-4.438,0.595c-1.088,0-2.146-0.104-3.173-0.302c2.146,6.688,8.363,11.562,15.738,11.693
	c-5.771,4.521-13.032,7.213-20.927,7.213c-1.354,0-2.702-0.074-4.021-0.231c7.454,4.774,16.312,7.565,25.825,7.565
	c30.99,0,47.927-25.668,47.927-47.937c0-0.731-0.011-1.462-0.042-2.179C654.568,68.505,657.43,65.535,659.68,62.157"/>
<path fill="#FFFFFF" d="M430.188,42.373c-0.521,4.255-1.485,7.766-2.891,10.515c-1.394,2.767-3.251,5.127-5.562,7.088
	c-2.312,1.962-5.079,3.479-8.33,4.53V76.18h9.126v28.944c0,3.774,0.389,6.655,1.185,8.646c0.786,1.979,2.208,3.862,4.256,5.629
	c2.047,1.762,4.521,3.11,7.42,4.071c2.893,0.947,6.229,1.429,10.008,1.429c3.313,0,6.404-0.33,9.271-1.01
	c2.862-0.662,6.046-1.834,9.581-3.486v-13.021c-4.143,2.711-8.293,4.076-12.473,4.076c-2.354,0-4.438-0.541-6.256-1.643
	c-1.396-0.81-2.33-1.896-2.832-3.26c-0.516-1.353-0.762-4.421-0.762-9.212V76.18h19.578V63.23h-19.578V42.373H430.188z"/>
<path fill="#FFFFFF" d="M239.672,82.007h8.533v42.877h15.988V82.007h12.652l0.95-12.346h-13.603v-9.637
	c0-3.316,2.971-4.505,6.291-4.505c3.316,0,6.869,1.028,6.869,1.028l2.133-12.641c0,0-4.529-1.535-15.293-1.535
	c-6.604,0-10.441,2.517-13.241,6.217c-2.657,3.486-2.747,9.123-2.747,12.781v8.291h-8.533L239.672,82.007L239.672,82.007z"/>
</svg>
