<?xml version="1.0" encoding="utf-8"?>
<!-- Generator: Adobe Illustrator 16.0.0, SVG Export Plug-In . SVG Version: 6.00 Build 0)  -->
<!DOCTYPE svg PUBLIC "-//W3C//DTD SVG 1.1//EN" "http://www.w3.org/Graphics/SVG/1.1/DTD/svg11.dtd">
<svg version="1.1" xmlns="http://www.w3.org/2000/svg" xmlns:xlink="http://www.w3.org/1999/xlink" x="0px" y="0px" width="1500px"
	 height="800px" viewBox="0 0 1500 800" enable-background="new 0 0 1500 800" xml:space="preserve">
<g id="Layer_1">
	<g>
		<rect fill="#ED2246" width="1500" height="800"/>
		<polygon opacity="0.3" fill="#BD1B38" points="1444.9,800 377.2,0 0,0 0,210.3 276,800 		"/>
	</g>
</g>
<g id="Layer_3">
</g>
<g id="Layer_2">
	<g>
		<g>
			<g>
				<path fill="#BD1B38" stroke="#010101" stroke-width="5" stroke-miterlimit="10" d="M622.5,352.8"/>
			</g>
		</g>
		<g>
			<g>
				<g>
					<rect x="383.2" y="460.4" fill="#BD1B38" width="11.4" height="68.2"/>
				</g>
			</g>
			<g>
				<g>
					<polygon fill="#BD1B38" points="406.8,460.4 394.5,496.1 406.7,528.5 417.5,528.5 405.3,496.1 417.7,460.4 					"/>
				</g>
			</g>
			<g>
				<g>
					<path fill="#BD1B38" d="M449.8,460.4v40.3l11.4-40.3h7.2c0,0,1.3,0.3,2.7,2.1c1,1.2,1.3,2.7,1.3,2.7v63.4h-11v-34.1l-11.5,34.1
						h-11.5v-63.4c0,0,0.3-1.4,1.7-3c1.1-1.2,2.8-1.8,2.8-1.8H449.8z"/>
				</g>
			</g>
			<g>
				<g>
					<path fill="#BD1B38" d="M501.9,513.7c0,0,1.3-0.1,3.7-2.2c2.6-2.2,3.3-4.3,3.3-4.3v-26.5c0,0-1-2.8-2.8-4.6
						c-1.8-1.8-4.2-2.8-4.2-2.8h-5.2v-4.5h11.6v-8.5h-16.4h-16.4v8.5H487v4.5h-5.2c0,0-2.4,1-4.2,2.8c-1.8,1.8-2.8,4.6-2.8,4.6v26.5
						c0,0,0.8,2.1,3.3,4.3c2.4,2.1,3.7,2.2,3.7,2.2h4.7v5h-11.4v9.8h16.7h16.7v-9.8h-11.4v-5H501.9z M491.8,504.4h-5.7v-21.6h5.7
						h5.7v21.6H491.8z"/>
				</g>
			</g>
			<g>
				<g>
					<rect x="511.1" y="460.4" fill="#BD1B38" width="11.4" height="68.2"/>
				</g>
			</g>
			<g>
				<g>
					<polygon fill="#BD1B38" points="534.8,460.4 522.5,496.1 534.6,528.5 545.5,528.5 533.3,496.1 545.6,460.4 					"/>
				</g>
			</g>
			<g>
				<g>
					<polygon fill="#BD1B38" points="435.9,460.4 416.2,460.4 420,528.5 432.1,528.5 					"/>
				</g>
			</g>
			<g>
				<g>
					<rect x="415.2" y="537.8" fill="#BD1B38" width="19.8" height="13.5"/>
				</g>
			</g>
			<g>
				<g>
					<polygon fill="#BD1B38" points="546.8,528.4 561.4,528.4 558.6,478 549.6,478 					"/>
				</g>
			</g>
			<g>
				<g>
					<rect x="546.8" y="460.4" fill="#BD1B38" width="14.6" height="10"/>
				</g>
			</g>
			<g>
				<g>
					<g>
						<path fill="#BD1B38" d="M437.2,538.9h2.3v0.6h-1.6v1.1h1.5v0.6h-1.5v1.7h-0.7V538.9z"/>
					</g>
				</g>
				<g>
					<g>
						<path fill="#BD1B38" d="M445.1,541.1h-1.5v1.2h1.7v0.6h-2.4v-4h2.3v0.6h-1.6v1h1.5V541.1z"/>
					</g>
				</g>
				<g>
					<g>
						<path fill="#BD1B38" d="M448.5,542.1c0.2,0.1,0.6,0.3,1,0.3c0.5,0,0.7-0.2,0.7-0.5c0-0.3-0.2-0.5-0.7-0.7
							c-0.7-0.2-1.1-0.6-1.1-1.2c0-0.7,0.6-1.2,1.4-1.2c0.4,0,0.8,0.1,1,0.2l-0.2,0.6c-0.1-0.1-0.4-0.2-0.8-0.2
							c-0.5,0-0.7,0.3-0.7,0.5c0,0.3,0.2,0.5,0.8,0.7c0.7,0.3,1,0.6,1,1.2c0,0.6-0.5,1.2-1.5,1.2c-0.4,0-0.9-0.1-1.1-0.3
							L448.5,542.1z"/>
					</g>
				</g>
				<g>
					<g>
						<path fill="#BD1B38" d="M455,539.5h-1.1v-0.6h3v0.6h-1.2v3.4H455V539.5z"/>
					</g>
				</g>
				<g>
					<g>
						<path fill="#BD1B38" d="M460.7,538.9v4H460v-4H460.7z"/>
					</g>
				</g>
				<g>
					<g>
						<path fill="#BD1B38" d="M465.1,542.9l-1.3-4h0.8l0.5,1.8c0.2,0.5,0.3,1,0.4,1.5h0c0.1-0.5,0.2-1,0.4-1.4l0.6-1.8h0.8l-1.4,4
							H465.1z"/>
					</g>
				</g>
				<g>
					<g>
						<path fill="#BD1B38" d="M470.9,541.7l-0.3,1.1h-0.8l1.3-4h0.9l1.3,4h-0.8l-0.4-1.1H470.9z M472,541.2l-0.3-1
							c-0.1-0.2-0.1-0.5-0.2-0.7h0c-0.1,0.2-0.1,0.5-0.2,0.7l-0.3,1H472z"/>
					</g>
				</g>
				<g>
					<g>
						<path fill="#BD1B38" d="M476.5,538.9h0.7v3.4h1.6v0.6h-2.4V538.9z"/>
					</g>
				</g>
				<g>
					<g>
						<path fill="#BD1B38" d="M486.6,538.9v4h-0.7v-4H486.6z"/>
					</g>
				</g>
				<g>
					<g>
						<path fill="#BD1B38" d="M490.1,542.9v-4h0.8l1,1.7c0.3,0.4,0.5,0.9,0.7,1.3h0c0-0.5-0.1-1.1-0.1-1.7v-1.4h0.7v4h-0.8l-1-1.8
							c-0.3-0.4-0.5-0.9-0.7-1.4l0,0c0,0.5,0,1,0,1.7v1.4H490.1z"/>
					</g>
				</g>
				<g>
					<g>
						<path fill="#BD1B38" d="M497.5,539.5h-1.1v-0.6h3v0.6h-1.2v3.4h-0.7V539.5z"/>
					</g>
				</g>
				<g>
					<g>
						<path fill="#BD1B38" d="M504.7,541.1h-1.5v1.2h1.7v0.6h-2.4v-4h2.3v0.6h-1.6v1h1.5V541.1z"/>
					</g>
				</g>
				<g>
					<g>
						<path fill="#BD1B38" d="M508.2,538.9c0.3,0,0.7-0.1,1.1-0.1c0.6,0,1,0.1,1.2,0.3c0.2,0.2,0.3,0.5,0.3,0.8c0,0.5-0.3,0.9-0.7,1
							v0c0.3,0.1,0.5,0.4,0.6,0.8c0.1,0.5,0.2,1,0.3,1.1h-0.8c-0.1-0.1-0.2-0.4-0.3-0.9c-0.1-0.5-0.3-0.7-0.7-0.7h-0.4v1.6h-0.7
							V538.9z M508.9,540.7h0.4c0.5,0,0.8-0.3,0.8-0.7c0-0.4-0.3-0.6-0.8-0.6c-0.2,0-0.4,0-0.4,0V540.7z"/>
					</g>
				</g>
				<g>
					<g>
						<path fill="#BD1B38" d="M514.2,542.9v-4h0.8l1,1.7c0.3,0.4,0.5,0.9,0.7,1.3h0c0-0.5-0.1-1.1-0.1-1.7v-1.4h0.7v4h-0.8l-1-1.8
							c-0.3-0.4-0.5-0.9-0.7-1.4l0,0c0,0.5,0,1,0,1.7v1.4H514.2z"/>
					</g>
				</g>
				<g>
					<g>
						<path fill="#BD1B38" d="M521.6,541.7l-0.3,1.1h-0.8l1.3-4h0.9l1.3,4h-0.8l-0.4-1.1H521.6z M522.8,541.2l-0.3-1
							c-0.1-0.2-0.1-0.5-0.2-0.7h0c-0.1,0.2-0.1,0.5-0.2,0.7l-0.3,1H522.8z"/>
					</g>
				</g>
				<g>
					<g>
						<path fill="#BD1B38" d="M530,542.7c-0.2,0.1-0.6,0.2-1,0.2c-1.3,0-2-0.8-2-2c0-1.3,0.9-2.1,2.1-2.1c0.5,0,0.8,0.1,1,0.2
							l-0.2,0.6c-0.2-0.1-0.5-0.2-0.8-0.2c-0.8,0-1.4,0.5-1.4,1.5c0,0.9,0.5,1.4,1.4,1.4c0.3,0,0.6-0.1,0.8-0.1L530,542.7z"/>
					</g>
				</g>
				<g>
					<g>
						<path fill="#BD1B38" d="M534,538.9v4h-0.7v-4H534z"/>
					</g>
				</g>
				<g>
					<g>
						<path fill="#BD1B38" d="M541,540.8c0,1.3-0.8,2.1-1.9,2.1c-1.1,0-1.8-0.9-1.8-2c0-1.2,0.8-2.1,1.9-2.1
							C540.3,538.8,541,539.7,541,540.8z M538,540.9c0,0.8,0.4,1.5,1.1,1.5c0.7,0,1.1-0.7,1.1-1.5c0-0.8-0.4-1.5-1.1-1.5
							C538.4,539.4,538,540.1,538,540.9z"/>
					</g>
				</g>
				<g>
					<g>
						<path fill="#BD1B38" d="M544.3,542.9v-4h0.8l1,1.7c0.3,0.4,0.5,0.9,0.7,1.3h0c0-0.5-0.1-1.1-0.1-1.7v-1.4h0.7v4h-0.8l-1.1-1.8
							c-0.3-0.4-0.5-0.9-0.7-1.4l0,0c0,0.5,0,1,0,1.7v1.4H544.3z"/>
					</g>
				</g>
				<g>
					<g>
						<path fill="#BD1B38" d="M551.7,541.7l-0.3,1.1h-0.8l1.3-4h0.9l1.3,4h-0.8l-0.4-1.1H551.7z M552.8,541.2l-0.3-1
							c-0.1-0.2-0.1-0.5-0.2-0.7h0c-0.1,0.2-0.1,0.5-0.2,0.7l-0.3,1H552.8z"/>
					</g>
				</g>
				<g>
					<g>
						<path fill="#BD1B38" d="M557.3,538.9h0.7v3.4h1.7v0.6h-2.4V538.9z"/>
					</g>
				</g>
				<g>
					<g>
						<path fill="#BD1B38" d="M437.2,546c0.3,0,0.7-0.1,1.2-0.1c0.8,0,1.3,0.2,1.6,0.5c0.4,0.3,0.6,0.8,0.6,1.5
							c0,0.7-0.2,1.3-0.6,1.6c-0.4,0.4-1,0.5-1.8,0.5c-0.4,0-0.7,0-1-0.1V546z M437.9,549.4c0.1,0,0.3,0,0.4,0c1,0,1.5-0.5,1.5-1.5
							c0-0.9-0.5-1.4-1.4-1.4c-0.2,0-0.4,0-0.5,0V549.4z"/>
					</g>
				</g>
				<g>
					<g>
						<path fill="#BD1B38" d="M446.2,548.2h-1.5v1.2h1.7v0.6h-2.4v-4h2.3v0.6h-1.6v1h1.5V548.2z"/>
					</g>
				</g>
				<g>
					<g>
						<path fill="#BD1B38" d="M460.4,549.9c-0.2,0.1-0.5,0.2-1,0.2c-1.3,0-2-0.8-2-2c0-1.3,0.9-2.1,2.1-2.1c0.5,0,0.8,0.1,1,0.2
							l-0.2,0.6c-0.2-0.1-0.5-0.2-0.8-0.2c-0.8,0-1.4,0.5-1.4,1.5c0,0.9,0.5,1.4,1.4,1.4c0.3,0,0.6-0.1,0.8-0.2L460.4,549.9z"/>
					</g>
				</g>
				<g>
					<g>
						<path fill="#BD1B38" d="M464.4,546v4h-0.7v-4H464.4z"/>
					</g>
				</g>
				<g>
					<g>
						<path fill="#BD1B38" d="M468,550v-4h0.8l1,1.7c0.3,0.4,0.5,0.9,0.7,1.3h0c0-0.5-0.1-1.1-0.1-1.7V546h0.7v4h-0.8l-1-1.8
							c-0.3-0.4-0.5-0.9-0.7-1.4l0,0c0,0.5,0,1.1,0,1.7v1.4H468z"/>
					</g>
				</g>
				<g>
					<g>
						<path fill="#BD1B38" d="M476.9,548.2h-1.5v1.2h1.7v0.6h-2.4v-4h2.3v0.6h-1.6v1h1.5V548.2z"/>
					</g>
				</g>
				<g>
					<g>
						<path fill="#BD1B38" d="M489,546v2.3c0,0.8,0.3,1.2,0.8,1.2c0.5,0,0.8-0.4,0.8-1.2V546h0.7v2.3c0,1.2-0.6,1.8-1.6,1.8
							c-0.9,0-1.5-0.5-1.5-1.8V546H489z"/>
					</g>
				</g>
				<g>
					<g>
						<path fill="#BD1B38" d="M494.9,550v-4h0.8l1,1.7c0.3,0.4,0.5,0.9,0.7,1.3h0c0-0.5-0.1-1.1-0.1-1.7V546h0.7v4h-0.8l-1-1.8
							c-0.3-0.4-0.5-0.9-0.7-1.4l0,0c0,0.5,0,1.1,0,1.7v1.4H494.9z"/>
					</g>
				</g>
				<g>
					<g>
						<path fill="#BD1B38" d="M502.3,546v4h-0.7v-4H502.3z"/>
					</g>
				</g>
				<g>
					<g>
						<path fill="#BD1B38" d="M506.8,550l-1.3-4h0.8l0.6,1.8c0.2,0.5,0.3,1,0.4,1.5h0c0.1-0.5,0.3-1,0.4-1.4l0.6-1.8h0.8l-1.4,4
							H506.8z"/>
					</g>
				</g>
				<g>
					<g>
						<path fill="#BD1B38" d="M514.4,548.2h-1.5v1.2h1.7v0.6h-2.4v-4h2.3v0.6h-1.6v1h1.5V548.2z"/>
					</g>
				</g>
				<g>
					<g>
						<path fill="#BD1B38" d="M517.9,546c0.3,0,0.7-0.1,1.1-0.1c0.6,0,1,0.1,1.2,0.3c0.2,0.2,0.3,0.5,0.3,0.8c0,0.5-0.4,0.9-0.7,1v0
							c0.3,0.1,0.5,0.4,0.6,0.8c0.1,0.5,0.2,1,0.3,1.1H520c-0.1-0.1-0.2-0.4-0.3-0.9c-0.1-0.5-0.3-0.7-0.7-0.7h-0.4v1.7h-0.7V546z
							 M518.6,547.8h0.4c0.5,0,0.8-0.3,0.8-0.7c0-0.4-0.3-0.6-0.8-0.6c-0.2,0-0.4,0-0.5,0V547.8z"/>
					</g>
				</g>
				<g>
					<g>
						<path fill="#BD1B38" d="M523.9,549.2c0.2,0.1,0.6,0.3,1,0.3c0.5,0,0.7-0.2,0.7-0.5c0-0.3-0.2-0.5-0.7-0.7
							c-0.7-0.2-1.1-0.6-1.1-1.2c0-0.7,0.5-1.2,1.4-1.2c0.4,0,0.8,0.1,1,0.2l-0.2,0.6c-0.1-0.1-0.4-0.2-0.8-0.2
							c-0.5,0-0.7,0.2-0.7,0.5c0,0.3,0.2,0.5,0.8,0.7c0.7,0.3,1,0.6,1,1.2c0,0.6-0.5,1.2-1.5,1.2c-0.4,0-0.9-0.1-1.1-0.2
							L523.9,549.2z"/>
					</g>
				</g>
				<g>
					<g>
						<path fill="#BD1B38" d="M530.4,546v4h-0.7v-4H530.4z"/>
					</g>
				</g>
				<g>
					<g>
						<path fill="#BD1B38" d="M534.7,546.6h-1.1V546h3v0.6h-1.1v3.4h-0.7V546.6z"/>
					</g>
				</g>
				<g>
					<g>
						<path fill="#BD1B38" d="M540.1,548.9l-0.3,1.1H539l1.3-4h0.9l1.3,4h-0.8l-0.4-1.1H540.1z M541.3,548.3l-0.3-1
							c-0.1-0.2-0.1-0.5-0.2-0.8h0c-0.1,0.2-0.1,0.5-0.2,0.8l-0.3,1H541.3z"/>
					</g>
				</g>
				<g>
					<g>
						<path fill="#BD1B38" d="M545.8,546c0.3,0,0.7-0.1,1.1-0.1c0.6,0,1,0.1,1.2,0.3c0.2,0.2,0.3,0.5,0.3,0.8c0,0.5-0.4,0.9-0.7,1v0
							c0.3,0.1,0.5,0.4,0.6,0.8c0.1,0.5,0.2,1,0.3,1.1h-0.8c-0.1-0.1-0.2-0.4-0.3-0.9c-0.1-0.5-0.3-0.7-0.7-0.7h-0.4v1.7h-0.7V546z
							 M546.5,547.8h0.4c0.5,0,0.8-0.3,0.8-0.7c0-0.4-0.3-0.6-0.8-0.6c-0.2,0-0.4,0-0.4,0V547.8z"/>
					</g>
				</g>
				<g>
					<g>
						<path fill="#BD1B38" d="M552.6,546v4h-0.7v-4H552.6z"/>
					</g>
				</g>
				<g>
					<g>
						<path fill="#BD1B38" d="M559.7,548c0,1.3-0.8,2.1-1.9,2.1c-1.1,0-1.8-0.9-1.8-2c0-1.2,0.8-2.1,1.9-2.1
							C559,545.9,559.7,546.8,559.7,548z M556.7,548c0,0.8,0.4,1.5,1.1,1.5c0.7,0,1.1-0.7,1.1-1.5c0-0.8-0.4-1.5-1.1-1.5
							C557.1,546.5,556.7,547.2,556.7,548z"/>
					</g>
				</g>
			</g>
		</g>
		<g>
			<path fill="#BD1B38" d="M369.4,397.1c-18.5,0-32.4-8.7-40.3-25.2c-6.4-13.3-7.3-28.6-7.3-36.4c0-10.6,5.9-26.7,17.5-37.8
				l-4.4-6.5c-15.2,11.5-25,29.7-25,50.2c0,34.7,28.2,62.9,62.9,62.9c11.8,0,22.9-3.3,32.3-8.9l-4.6-6.8
				C392.5,393.7,382.2,397.1,369.4,397.1z"/>
			<path fill="#BD1B38" d="M369.7,293.5h-0.3c-7.2,0-13.4,2.3-18.7,5.8l51.7,76.7c11.4-11,15.7-26.6,15.7-36.1
				C418.1,335.2,416.8,293.5,369.7,293.5z"/>
			<path fill="#BD1B38" d="M330.3,335.4c0,7.2,0.8,21,6.5,32.8c6.5,13.5,17.4,20.4,32.6,20.4c10.8,0,19.5-2.8,26.3-7.2l-51.6-76.5
				C335.1,314.1,330.3,327.1,330.3,335.4z"/>
			<path fill="#BD1B38" d="M435.7,341.3c0-34.7-28.2-62.9-62.9-62.9c-11.2,0-21.6,2.9-30.7,8l3.9,5.8c6.5-4.4,14.4-7.2,23.4-7.2h0.3
				c44.9,0,56.9,34.5,56.9,54.9c0,11.4-5.3,30.4-19.3,43.3l4.8,7.2C426.5,378.9,435.7,361.2,435.7,341.3z"/>
			<path fill="#BD1B38" d="M410.1,402.6l7.1-4.8l-5-7.4c-2.2,1.8-4.6,3.4-7,4.9L410.1,402.6z"/>
			<path fill="#BD1B38" d="M338.4,281l-7.1,4.8l3.6,5.4c2.3-1.7,4.7-3.3,7.1-4.7L338.4,281z"/>
		</g>
		<g>
			<g>
				<rect x="447" y="291.7" fill="#BD1B38" width="8.5" height="82.5"/>
			</g>
		</g>
		<g>
			<path fill="#BD1B38" d="M525.9,278.4c-13.4,0-25.9,4.2-36.1,11.4l0.2,5.8c8.1-4.2,22.9-10.5,37.8-9.4c14,1.1,50.4,11.8,50.4,48.6
				c0,21.1-8.9,34.7-16.4,42.5c-9.7,9.9-22.8,15.9-36,16.4c-1,0-1.9,0.1-2.9,0.1c-21.9,0-31.8-9.6-43.1-28l7-4.3
				c11.8,19.3,20.4,24.7,38.6,24c27.9-1,44.5-26.5,44.5-50.7c0-13.2-5.5-23.6-16.4-31.1c-8.9-6.1-19.8-8.9-26.4-9.4
				c-18.7-1.4-38.6,11.5-38.8,11.6l-6.1,4l-0.5-13.5c-11.6,11.4-18.8,27.3-18.8,44.9c0,34.7,28.2,62.9,62.9,62.9
				c34.7,0,62.9-28.2,62.9-62.9C588.8,306.6,560.7,278.4,525.9,278.4z"/>
			<path fill="#BD1B38" d="M489.3,271.7l46.5-2l-0.4-8.2l-54.6,2.4l1.1,32.6c2.5-2.4,5.1-4.6,8-6.6L489.3,271.7z M516.9,256.2"/>
		</g>
		<path fill="#BD1B38" d="M734.9,475.6c-2.8-9.7-7.2-122.4-9.5-196.6c0.7-4.1,0.9-7.3-1.8-9c-1-0.6-2.2-0.8-3.4-0.6
			c-2.9,0.2-17,1.3-21.8,1.3c-3.3,0-11.9-0.7-15.3-1.3c-0.7-0.1-2-0.5-2.6-0.2c-0.4,0.2-2.2,1.8-2.2,1.8c-0.3,0.2-26.8,21-35.6,27.7
			c-10.2,7.8-39.6,32-39.6,34.9c0,2.1,7.2,7.3,12.1,10.5c-0.9,15.5-11.6,40.6-30.6,59.3c-11.6,11.4-31,24.8-57.5,24.2
			c-59-1.4-138.8-0.1-202.8,1c-38,0.6-74.2,1.2-88,0.8c3.2-3.9,8.5-9.7,13.7-15.4c34.1-37.2,66.6-75.3,57.5-95.8
			c-3.6-8.3-13.3-12.4-28.6-12.4c0,0,0,0,0,0c-20.4,0-29.5,15.6-29.8,16.2l7.4,4.2c0.1-0.1,7-11.9,22.4-11.9c0,0,0,0,0,0
			c8,0,18.1,1.3,20.8,7.3c7.6,17.2-35.4,64.1-56,86.6c-16.6,18.1-19.2,21.3-18.8,24.9c0.2,1.4,0.9,2.6,2.1,3.4
			c1.5,1,4.5,1.5,22.3,1.5c13.9,0,36.8-0.3,75.1-0.9c64-1,143.7-2.3,202.5-1c2.4,0.1,4.7,0,7-0.1c2.1,0,74.3-0.4,91.1-0.5
			c4.7,2.2,28,13.2,51.2,23.8c39.8,18.2,51.2,23,55.4,23c1.7,0,2.2-0.7,3-1.7C735.8,479.2,735.9,477.2,734.9,475.6z M614.2,332.7
			c-1-1.6,26-22.5,33.8-28.5c7.9-6,29.7-21.5,35.2-26.1c3.6,0.4,11.8,1.2,15.3,1.2c1.9,0,4.9-0.1,8.2-0.3c-1.9,1.4-3.9,2.9-5.8,4.3
			c-11.5,8.6-23.4,17.4-34.3,24.7c-22.2,14.8-39.5,25.6-45.7,29.1C621.1,337.1,615.1,334,614.2,332.7z M626,431.3L626,431.3
			L626,431.3L626,431.3z M630.2,428.5c-0.1-6.5-0.3-23.7-1-41c-1.1-26.3-2.4-38.1-4-43.8c7.3-4.2,25.2-14.7,46.3-28.8
			c11-7.4,23-16.3,34.6-24.9c3.6-2.7,7.3-5.4,10.9-8.1c0.4,11.6,1.7,53,3.4,94.5c2.5,60.1,4.1,84.8,5.4,95.3
			C709.1,465.2,661.9,443.4,630.2,428.5z"/>
		<g>
			<g>
				<path fill="#BD1B38" d="M506.2,254.7c-6.1,0-9.8-6.6-9.8-12.8c0-5.1,5.1-8.2,10-8.2c2.1,0,4.1,0.5,5.8,1.5
					c3.5,2.1,4.8,6.8,4.8,10.1c0,4-3,8.4-9.6,9.3C507,254.7,506.6,254.7,506.2,254.7z M506.4,238.5c-2.5,0-5.2,1.3-5.2,3.4
					c0,3.8,2.1,8,5,8c0.1,0,0.3,0,0.4,0c3.3-0.4,5.5-2.2,5.5-4.5c0-2.6-1-5.1-2.4-6C508.8,238.8,507.6,238.5,506.4,238.5z"/>
			</g>
		</g>
	</g>
	<rect x="823.2" y="488.5" fill="#BD1B38" width="286.3" height="38.5"/>
	<text transform="matrix(1 0 0 1 823.4131 294.2451)" fill="#BD1B38" font-family="'SourceSansPro-Semibold'" font-size="52.1758">KINOKI</text>
	<text transform="matrix(1 0 0 1 823.4131 352.0552)"><tspan x="0" y="0" fill="#BD1B38" font-family="'SourceSansPro-Light'" font-size="52.1758">Festival Internacional</tspan><tspan x="0" y="62.6" fill="#BD1B38" font-family="'SourceSansPro-Light'" font-size="52.1758">de Cine Universitario</tspan></text>
	<text transform="matrix(1 0 0 1 823.4131 466.6938)" fill="#BD1B38" font-family="'SourceSansPro-LightIt'" font-size="38.7807">Decimoprimera Edición</text>
	<rect x="821.1" y="486.3" fill="#FFFFFF" width="286.3" height="38.5"/>
	<g>
		<g>
			<g>
				<path fill="#FFFFFF" stroke="#010101" stroke-width="5" stroke-miterlimit="10" d="M620.3,350.5"/>
			</g>
		</g>
		<g>
			<g>
				<g>
					<rect x="380.9" y="458.1" fill="#FFFFFF" width="11.4" height="68.2"/>
				</g>
			</g>
			<g>
				<g>
					<polygon fill="#FFFFFF" points="404.6,458.1 392.3,493.8 404.4,526.3 415.3,526.3 403.1,493.8 415.4,458.1 					"/>
				</g>
			</g>
			<g>
				<g>
					<path fill="#FFFFFF" d="M447.5,458.1v40.3l11.4-40.3h7.2c0,0,1.3,0.3,2.7,2.1c1,1.2,1.3,2.7,1.3,2.7v63.4h-11v-34.1l-11.5,34.1
						H436v-63.4c0,0,0.3-1.4,1.7-3c1.1-1.2,2.8-1.8,2.8-1.8H447.5z"/>
				</g>
			</g>
			<g>
				<g>
					<path fill="#FFFFFF" d="M499.6,511.4c0,0,1.3-0.1,3.7-2.2c2.6-2.2,3.3-4.3,3.3-4.3v-26.5c0,0-1-2.8-2.8-4.6
						c-1.8-1.8-4.2-2.8-4.2-2.8h-5.2v-4.5H506v-8.5h-16.4h-16.4v8.5h11.6v4.5h-5.2c0,0-2.4,1-4.2,2.8c-1.8,1.8-2.8,4.6-2.8,4.6V505
						c0,0,0.8,2.1,3.3,4.3c2.4,2.1,3.7,2.2,3.7,2.2h4.7v5h-11.4v9.8h16.7h16.7v-9.8h-11.4v-5H499.6z M489.6,502.2h-5.7v-21.6h5.7
						h5.7v21.6H489.6z"/>
				</g>
			</g>
			<g>
				<g>
					<rect x="508.8" y="458.1" fill="#FFFFFF" width="11.4" height="68.2"/>
				</g>
			</g>
			<g>
				<g>
					<polygon fill="#FFFFFF" points="532.5,458.1 520.2,493.8 532.4,526.3 543.2,526.3 531,493.8 543.3,458.1 					"/>
				</g>
			</g>
			<g>
				<g>
					<polygon fill="#FFFFFF" points="433.6,458.1 413.9,458.1 417.7,526.3 429.9,526.3 					"/>
				</g>
			</g>
			<g>
				<g>
					<rect x="413.9" y="536.5" fill="#FFFFFF" width="19.8" height="13.5"/>
				</g>
			</g>
			<g>
				<g>
					<polygon fill="#FFFFFF" points="544.5,526.1 559.2,526.1 556.3,475.7 547.3,475.7 					"/>
				</g>
			</g>
			<g>
				<g>
					<rect x="544.5" y="458.1" fill="#FFFFFF" width="14.6" height="10"/>
				</g>
			</g>
			<g>
				<g>
					<g>
						<path fill="#FFFFFF" d="M436.4,538.1h2.3v0.6h-1.6v1.1h1.5v0.6h-1.5v1.7h-0.7V538.1z"/>
					</g>
				</g>
				<g>
					<g>
						<path fill="#FFFFFF" d="M444.3,540.3h-1.5v1.2h1.7v0.6h-2.4v-4h2.3v0.6h-1.6v1h1.5V540.3z"/>
					</g>
				</g>
				<g>
					<g>
						<path fill="#FFFFFF" d="M447.7,541.3c0.2,0.1,0.6,0.3,1,0.3c0.5,0,0.7-0.2,0.7-0.5c0-0.3-0.2-0.5-0.7-0.7
							c-0.7-0.2-1.1-0.6-1.1-1.2c0-0.7,0.6-1.2,1.4-1.2c0.4,0,0.8,0.1,1,0.2l-0.2,0.6c-0.1-0.1-0.4-0.2-0.8-0.2
							c-0.5,0-0.7,0.3-0.7,0.5c0,0.3,0.2,0.5,0.8,0.7c0.7,0.3,1,0.6,1,1.2c0,0.6-0.5,1.2-1.5,1.2c-0.4,0-0.9-0.1-1.1-0.2
							L447.7,541.3z"/>
					</g>
				</g>
				<g>
					<g>
						<path fill="#FFFFFF" d="M454.2,538.7h-1.1v-0.6h3v0.6H455v3.4h-0.7V538.7z"/>
					</g>
				</g>
				<g>
					<g>
						<path fill="#FFFFFF" d="M459.9,538.1v4h-0.7v-4H459.9z"/>
					</g>
				</g>
				<g>
					<g>
						<path fill="#FFFFFF" d="M464.3,542.1l-1.3-4h0.8l0.5,1.8c0.2,0.5,0.3,1,0.4,1.5h0c0.1-0.5,0.2-1,0.4-1.4l0.6-1.8h0.8l-1.4,4
							H464.3z"/>
					</g>
				</g>
				<g>
					<g>
						<path fill="#FFFFFF" d="M470.1,540.9l-0.3,1.1H469l1.3-4h0.9l1.3,4h-0.8l-0.4-1.1H470.1z M471.2,540.4l-0.3-1
							c-0.1-0.2-0.1-0.5-0.2-0.7h0c-0.1,0.2-0.1,0.5-0.2,0.7l-0.3,1H471.2z"/>
					</g>
				</g>
				<g>
					<g>
						<path fill="#FFFFFF" d="M475.7,538.1h0.7v3.4h1.6v0.6h-2.4V538.1z"/>
					</g>
				</g>
				<g>
					<g>
						<path fill="#FFFFFF" d="M485.8,538.1v4h-0.7v-4H485.8z"/>
					</g>
				</g>
				<g>
					<g>
						<path fill="#FFFFFF" d="M489.3,542.1v-4h0.8l1,1.7c0.3,0.4,0.5,0.9,0.7,1.3h0c0-0.5-0.1-1.1-0.1-1.7v-1.4h0.7v4h-0.8l-1-1.8
							c-0.3-0.4-0.5-0.9-0.7-1.4l0,0c0,0.5,0,1,0,1.7v1.4H489.3z"/>
					</g>
				</g>
				<g>
					<g>
						<path fill="#FFFFFF" d="M496.7,538.7h-1.1v-0.6h3v0.6h-1.2v3.4h-0.7V538.7z"/>
					</g>
				</g>
				<g>
					<g>
						<path fill="#FFFFFF" d="M503.9,540.3h-1.5v1.2h1.7v0.6h-2.4v-4h2.3v0.6h-1.6v1h1.5V540.3z"/>
					</g>
				</g>
				<g>
					<g>
						<path fill="#FFFFFF" d="M507.4,538.1c0.3,0,0.7-0.1,1.1-0.1c0.6,0,1,0.1,1.2,0.3c0.2,0.2,0.3,0.5,0.3,0.8c0,0.5-0.3,0.9-0.7,1
							v0c0.3,0.1,0.5,0.4,0.6,0.8c0.1,0.5,0.2,1,0.3,1.1h-0.8c-0.1-0.1-0.2-0.4-0.3-0.9c-0.1-0.5-0.3-0.7-0.7-0.7h-0.4v1.6h-0.7
							V538.1z M508.1,539.9h0.4c0.5,0,0.8-0.3,0.8-0.7c0-0.4-0.3-0.6-0.8-0.6c-0.2,0-0.4,0-0.4,0V539.9z"/>
					</g>
				</g>
				<g>
					<g>
						<path fill="#FFFFFF" d="M513.4,542.1v-4h0.8l1,1.7c0.3,0.4,0.5,0.9,0.7,1.3h0c0-0.5-0.1-1.1-0.1-1.7v-1.4h0.7v4h-0.8l-1-1.8
							c-0.3-0.4-0.5-0.9-0.7-1.4l0,0c0,0.5,0,1,0,1.7v1.4H513.4z"/>
					</g>
				</g>
				<g>
					<g>
						<path fill="#FFFFFF" d="M520.9,540.9l-0.3,1.1h-0.8l1.3-4h0.9l1.3,4h-0.8l-0.4-1.1H520.9z M522,540.4l-0.3-1
							c-0.1-0.2-0.1-0.5-0.2-0.7h0c-0.1,0.2-0.1,0.5-0.2,0.7l-0.3,1H522z"/>
					</g>
				</g>
				<g>
					<g>
						<path fill="#FFFFFF" d="M529.2,542c-0.2,0.1-0.6,0.2-1,0.2c-1.3,0-2-0.8-2-2c0-1.3,0.9-2.1,2.1-2.1c0.5,0,0.8,0.1,1,0.2
							l-0.2,0.6c-0.2-0.1-0.5-0.2-0.8-0.2c-0.8,0-1.4,0.5-1.4,1.5c0,0.9,0.5,1.4,1.4,1.4c0.3,0,0.6-0.1,0.8-0.1L529.2,542z"/>
					</g>
				</g>
				<g>
					<g>
						<path fill="#FFFFFF" d="M533.2,538.1v4h-0.7v-4H533.2z"/>
					</g>
				</g>
				<g>
					<g>
						<path fill="#FFFFFF" d="M540.2,540c0,1.3-0.8,2.1-1.9,2.1c-1.1,0-1.8-0.9-1.8-2c0-1.2,0.8-2.1,1.9-2.1
							C539.5,538,540.2,538.9,540.2,540z M537.2,540.1c0,0.8,0.4,1.5,1.1,1.5c0.7,0,1.1-0.7,1.1-1.5c0-0.8-0.4-1.5-1.1-1.5
							C537.6,538.6,537.2,539.3,537.2,540.1z"/>
					</g>
				</g>
				<g>
					<g>
						<path fill="#FFFFFF" d="M543.5,542.1v-4h0.8l1,1.7c0.3,0.4,0.5,0.9,0.7,1.3h0c0-0.5-0.1-1.1-0.1-1.7v-1.4h0.7v4h-0.8l-1.1-1.8
							c-0.3-0.4-0.5-0.9-0.7-1.4l0,0c0,0.5,0,1,0,1.7v1.4H543.5z"/>
					</g>
				</g>
				<g>
					<g>
						<path fill="#FFFFFF" d="M550.9,540.9l-0.3,1.1h-0.8l1.3-4h0.9l1.3,4h-0.8l-0.4-1.1H550.9z M552.1,540.4l-0.3-1
							c-0.1-0.2-0.1-0.5-0.2-0.7h0c-0.1,0.2-0.1,0.5-0.2,0.7l-0.3,1H552.1z"/>
					</g>
				</g>
				<g>
					<g>
						<path fill="#FFFFFF" d="M556.5,538.1h0.7v3.4h1.7v0.6h-2.4V538.1z"/>
					</g>
				</g>
				<g>
					<g>
						<path fill="#FFFFFF" d="M436.4,545.3c0.3,0,0.7-0.1,1.2-0.1c0.8,0,1.3,0.2,1.6,0.5c0.4,0.3,0.6,0.8,0.6,1.5
							c0,0.7-0.2,1.3-0.6,1.6c-0.4,0.4-1,0.5-1.8,0.5c-0.4,0-0.7,0-1-0.1V545.3z M437.1,548.7c0.1,0,0.3,0,0.4,0
							c1,0,1.5-0.5,1.5-1.5c0-0.9-0.5-1.4-1.4-1.4c-0.2,0-0.4,0-0.5,0V548.7z"/>
					</g>
				</g>
				<g>
					<g>
						<path fill="#FFFFFF" d="M445.4,547.4h-1.5v1.2h1.7v0.6h-2.4v-4h2.3v0.6h-1.6v1h1.5V547.4z"/>
					</g>
				</g>
				<g>
					<g>
						<path fill="#FFFFFF" d="M459.6,549.1c-0.2,0.1-0.6,0.2-1,0.2c-1.3,0-2-0.8-2-2c0-1.3,0.9-2.1,2.1-2.1c0.5,0,0.8,0.1,1,0.2
							l-0.2,0.6c-0.2-0.1-0.5-0.2-0.8-0.2c-0.8,0-1.4,0.5-1.4,1.5c0,0.9,0.5,1.4,1.4,1.4c0.3,0,0.6-0.1,0.8-0.2L459.6,549.1z"/>
					</g>
				</g>
				<g>
					<g>
						<path fill="#FFFFFF" d="M463.7,545.2v4h-0.7v-4H463.7z"/>
					</g>
				</g>
				<g>
					<g>
						<path fill="#FFFFFF" d="M467.2,549.2v-4h0.8l1,1.7c0.3,0.4,0.5,0.9,0.7,1.3h0c0-0.5-0.1-1.1-0.1-1.7v-1.4h0.7v4h-0.8l-1-1.8
							c-0.3-0.4-0.5-0.9-0.7-1.4l0,0c0,0.5,0,1.1,0,1.7v1.4H467.2z"/>
					</g>
				</g>
				<g>
					<g>
						<path fill="#FFFFFF" d="M476.1,547.4h-1.5v1.2h1.7v0.6h-2.4v-4h2.3v0.6h-1.6v1h1.5V547.4z"/>
					</g>
				</g>
				<g>
					<g>
						<path fill="#FFFFFF" d="M488.2,545.2v2.3c0,0.8,0.3,1.2,0.8,1.2c0.5,0,0.8-0.4,0.8-1.2v-2.3h0.7v2.3c0,1.2-0.6,1.8-1.6,1.8
							c-0.9,0-1.5-0.5-1.5-1.8v-2.3H488.2z"/>
					</g>
				</g>
				<g>
					<g>
						<path fill="#FFFFFF" d="M494.1,549.2v-4h0.8l1,1.7c0.3,0.4,0.5,0.9,0.7,1.3h0c0-0.5-0.1-1.1-0.1-1.7v-1.4h0.7v4h-0.8l-1-1.8
							c-0.3-0.4-0.5-0.9-0.7-1.4l0,0c0,0.5,0,1.1,0,1.7v1.4H494.1z"/>
					</g>
				</g>
				<g>
					<g>
						<path fill="#FFFFFF" d="M501.5,545.2v4h-0.7v-4H501.5z"/>
					</g>
				</g>
				<g>
					<g>
						<path fill="#FFFFFF" d="M506,549.2l-1.3-4h0.8l0.6,1.8c0.2,0.5,0.3,1,0.4,1.5h0c0.1-0.5,0.3-1,0.4-1.4l0.6-1.8h0.8l-1.4,4H506
							z"/>
					</g>
				</g>
				<g>
					<g>
						<path fill="#FFFFFF" d="M513.6,547.4h-1.5v1.2h1.7v0.6h-2.4v-4h2.3v0.6h-1.6v1h1.5V547.4z"/>
					</g>
				</g>
				<g>
					<g>
						<path fill="#FFFFFF" d="M517.1,545.3c0.3,0,0.7-0.1,1.1-0.1c0.6,0,1,0.1,1.2,0.3c0.2,0.2,0.3,0.5,0.3,0.8c0,0.5-0.4,0.9-0.7,1
							v0c0.3,0.1,0.5,0.4,0.6,0.8c0.1,0.5,0.2,1,0.3,1.1h-0.8c-0.1-0.1-0.2-0.4-0.3-0.9c-0.1-0.5-0.3-0.7-0.7-0.7h-0.4v1.7h-0.7
							V545.3z M517.8,547h0.4c0.5,0,0.8-0.3,0.8-0.7c0-0.4-0.3-0.6-0.8-0.6c-0.2,0-0.4,0-0.5,0V547z"/>
					</g>
				</g>
				<g>
					<g>
						<path fill="#FFFFFF" d="M523.1,548.4c0.2,0.1,0.6,0.3,1,0.3c0.5,0,0.7-0.2,0.7-0.5c0-0.3-0.2-0.5-0.7-0.7
							c-0.7-0.2-1.1-0.6-1.1-1.2c0-0.7,0.5-1.2,1.4-1.2c0.4,0,0.8,0.1,1,0.2l-0.2,0.6c-0.1-0.1-0.4-0.2-0.8-0.2
							c-0.5,0-0.7,0.3-0.7,0.5c0,0.3,0.2,0.5,0.8,0.7c0.7,0.3,1,0.6,1,1.2c0,0.6-0.5,1.2-1.5,1.2c-0.4,0-0.9-0.1-1.1-0.2
							L523.1,548.4z"/>
					</g>
				</g>
				<g>
					<g>
						<path fill="#FFFFFF" d="M529.7,545.2v4h-0.7v-4H529.7z"/>
					</g>
				</g>
				<g>
					<g>
						<path fill="#FFFFFF" d="M533.9,545.8h-1.1v-0.6h3v0.6h-1.1v3.4h-0.7V545.8z"/>
					</g>
				</g>
				<g>
					<g>
						<path fill="#FFFFFF" d="M539.4,548.1l-0.3,1.1h-0.8l1.3-4h0.9l1.3,4H541l-0.4-1.1H539.4z M540.5,547.5l-0.3-1
							c-0.1-0.2-0.1-0.5-0.2-0.8h0c-0.1,0.2-0.1,0.5-0.2,0.8l-0.3,1H540.5z"/>
					</g>
				</g>
				<g>
					<g>
						<path fill="#FFFFFF" d="M545,545.3c0.3,0,0.7-0.1,1.1-0.1c0.6,0,1,0.1,1.2,0.3c0.2,0.2,0.3,0.5,0.3,0.8c0,0.5-0.4,0.9-0.7,1v0
							c0.3,0.1,0.5,0.4,0.6,0.8c0.1,0.5,0.2,1,0.3,1.1h-0.8c-0.1-0.1-0.2-0.4-0.3-0.9c-0.1-0.5-0.3-0.7-0.7-0.7h-0.4v1.7H545V545.3z
							 M545.7,547h0.4c0.5,0,0.8-0.3,0.8-0.7c0-0.4-0.3-0.6-0.8-0.6c-0.2,0-0.4,0-0.4,0V547z"/>
					</g>
				</g>
				<g>
					<g>
						<path fill="#FFFFFF" d="M551.8,545.2v4h-0.7v-4H551.8z"/>
					</g>
				</g>
				<g>
					<g>
						<path fill="#FFFFFF" d="M558.9,547.2c0,1.3-0.8,2.1-1.9,2.1c-1.1,0-1.8-0.9-1.8-2c0-1.2,0.8-2.1,1.9-2.1
							C558.2,545.1,558.9,546,558.9,547.2z M555.9,547.2c0,0.8,0.4,1.5,1.1,1.5c0.7,0,1.1-0.7,1.1-1.5c0-0.8-0.4-1.5-1.1-1.5
							C556.3,545.7,555.9,546.4,555.9,547.2z"/>
					</g>
				</g>
			</g>
		</g>
		<g>
			<path fill="#FFFFFF" d="M367.2,394.8c-18.5,0-32.4-8.7-40.3-25.2c-6.4-13.3-7.3-28.6-7.3-36.4c0-10.6,5.9-26.7,17.5-37.8
				l-4.4-6.5c-15.2,11.5-25,29.7-25,50.2c0,34.7,28.2,62.9,62.9,62.9c11.8,0,22.9-3.3,32.3-8.9l-4.6-6.8
				C390.2,391.4,380,394.8,367.2,394.8z"/>
			<path fill="#FFFFFF" d="M367.4,291.3h-0.3c-7.2,0-13.4,2.3-18.7,5.8l51.7,76.7c11.4-11,15.7-26.6,15.7-36.1
				C415.8,332.9,414.5,291.3,367.4,291.3z"/>
			<path fill="#FFFFFF" d="M328.1,333.2c0,7.2,0.8,21,6.5,32.8c6.5,13.5,17.4,20.4,32.6,20.4c10.8,0,19.5-2.8,26.3-7.2l-51.5-76.5
				C332.9,311.9,328.1,324.8,328.1,333.2z"/>
			<path fill="#FFFFFF" d="M433.4,339.1c0-34.7-28.2-62.9-62.9-62.9c-11.2,0-21.6,2.9-30.7,8l3.9,5.8c6.5-4.4,14.4-7.2,23.4-7.2h0.3
				c44.9,0,56.9,34.5,56.9,54.9c0,11.4-5.3,30.4-19.3,43.3l4.8,7.2C424.2,376.6,433.4,358.9,433.4,339.1z"/>
			<path fill="#FFFFFF" d="M407.8,400.3l7.1-4.8l-5-7.4c-2.2,1.8-4.6,3.4-7,4.9L407.8,400.3z"/>
			<path fill="#FFFFFF" d="M336.1,278.7l-7.1,4.8l3.6,5.4c2.3-1.7,4.7-3.3,7.1-4.7L336.1,278.7z"/>
		</g>
		<g>
			<g>
				<rect x="444.7" y="289.4" fill="#FFFFFF" width="8.5" height="82.5"/>
			</g>
		</g>
		<g>
			<path fill="#FFFFFF" d="M523.7,276.2c-13.4,0-25.9,4.2-36.1,11.4l0.2,5.8c8.1-4.2,22.9-10.5,37.8-9.4c14,1.1,50.4,11.8,50.4,48.6
				c0,21.1-8.9,34.7-16.4,42.5c-9.7,9.9-22.8,15.9-36,16.4c-1,0-1.9,0.1-2.9,0.1c-21.9,0-31.8-9.6-43.1-28l7-4.3
				c11.8,19.3,20.4,24.7,38.6,24c27.9-1,44.5-26.5,44.5-50.7c0-13.2-5.5-23.6-16.4-31.1c-8.9-6.1-19.8-8.9-26.4-9.4
				c-18.7-1.4-38.6,11.5-38.8,11.6l-6.1,4l-0.5-13.5c-11.6,11.4-18.8,27.3-18.8,44.9c0,34.7,28.2,62.9,62.9,62.9
				c34.7,0,62.9-28.2,62.9-62.9C586.6,304.3,558.4,276.2,523.7,276.2z"/>
			<path fill="#FFFFFF" d="M487,269.4l46.5-2l-0.4-8.2l-54.6,2.4l1.1,32.6c2.5-2.4,5.1-4.6,8-6.6L487,269.4z M514.7,253.9"/>
		</g>
		<path fill="#FFFFFF" d="M732.7,473.4c-2.8-9.7-7.2-122.4-9.5-196.6c0.7-4.1,0.9-7.3-1.8-9c-1-0.6-2.2-0.8-3.4-0.6
			c-2.9,0.2-17,1.3-21.8,1.3c-3.3,0-11.9-0.7-15.3-1.3c-0.7-0.1-2-0.5-2.6-0.2c-0.4,0.2-2.2,1.8-2.2,1.8c-0.3,0.2-26.8,21-35.6,27.7
			c-10.2,7.8-39.6,32-39.6,34.9c0,2.1,7.2,7.3,12.1,10.5c-0.9,15.5-11.6,40.6-30.6,59.3c-11.6,11.4-31,24.8-57.5,24.2
			c-59-1.4-138.8-0.1-202.8,1c-38,0.6-74.2,1.2-88,0.8c3.2-3.9,8.5-9.7,13.7-15.4c34.1-37.2,66.6-75.3,57.5-95.8
			c-3.6-8.3-13.3-12.4-28.6-12.4c0,0,0,0,0,0c-20.4,0-29.5,15.6-29.8,16.2l7.4,4.2c0.1-0.1,7-11.9,22.4-11.9c0,0,0,0,0,0
			c8,0,18.1,1.3,20.8,7.3c7.6,17.2-35.4,64.1-56,86.6c-16.6,18.1-19.2,21.3-18.8,24.9c0.2,1.4,0.9,2.6,2.1,3.4
			c1.5,1,4.5,1.5,22.3,1.5c13.9,0,36.8-0.3,75.1-0.9c64-1,143.7-2.3,202.5-1c2.4,0.1,4.7,0,7-0.1c2.1,0,74.3-0.4,91.1-0.5
			c4.7,2.2,28,13.2,51.2,23.8c39.8,18.2,51.2,23,55.4,23c1.7,0,2.2-0.7,3-1.7C733.5,476.9,733.6,475,732.7,473.4z M611.9,330.4
			c-1-1.6,26-22.5,33.8-28.5c7.9-6,29.7-21.5,35.2-26.1c3.6,0.4,11.8,1.2,15.3,1.2c1.9,0,4.9-0.1,8.2-0.3c-1.9,1.4-3.9,2.9-5.8,4.3
			c-11.5,8.6-23.4,17.4-34.3,24.7c-22.2,14.8-39.5,25.6-45.7,29.1C618.8,334.8,612.8,331.8,611.9,330.4z M623.7,429L623.7,429
			L623.7,429L623.7,429z M627.9,426.3c-0.1-6.5-0.3-23.7-1-41c-1.1-26.3-2.4-38.1-4-43.8c7.3-4.2,25.2-14.7,46.3-28.8
			c11-7.4,23-16.3,34.6-24.9c3.6-2.7,7.3-5.4,10.9-8.1c0.4,11.6,1.7,53,3.4,94.5c2.5,60.1,4.1,84.8,5.4,95.3
			C706.8,462.9,659.6,441.2,627.9,426.3z"/>
		<g>
			<g>
				<path fill="#FFFFFF" d="M504,252.4c-6.1,0-9.8-6.6-9.8-12.8c0-5.1,5.1-8.2,10-8.2c2.1,0,4.1,0.5,5.8,1.5
					c3.5,2.1,4.8,6.8,4.8,10.1c0,4-3,8.4-9.6,9.3C504.7,252.4,504.3,252.4,504,252.4z M504.1,236.2c-2.5,0-5.2,1.3-5.2,3.4
					c0,3.8,2.1,8,5,8c0.1,0,0.3,0,0.4,0c3.3-0.4,5.5-2.2,5.5-4.5c0-2.6-1-5.1-2.4-6C506.5,236.5,505.4,236.2,504.1,236.2z"/>
			</g>
		</g>
	</g>
	<g>
		<text transform="matrix(1 0 0 1 834.1582 515.209)"><tspan x="0" y="0" fill="#BD1B38" font-family="'SourceSansPro-Light'" font-size="32.1567">28 sep </tspan><tspan x="89.2" y="0" fill="#BD1B38" font-family="'SourceSansPro-Bold'" font-size="32.1567">-</tspan><tspan x="99.8" y="0" fill="#BD1B38" font-family="'SourceSansPro-Light'" font-size="32.1567"> 02 oct 2015</tspan></text>
	</g>
	<text transform="matrix(1 0 0 1 821.2793 292.1123)" fill="#FFFFFF" font-family="'SourceSansPro-Semibold'" font-size="52.1758">KINOKI</text>
	<text transform="matrix(1 0 0 1 821.2793 349.9229)"><tspan x="0" y="0" fill="#FFFFFF" font-family="'SourceSansPro-Light'" font-size="52.1758">Festival Internacional</tspan><tspan x="0" y="62.6" fill="#FFFFFF" font-family="'SourceSansPro-Light'" font-size="52.1758">de Cine Universitario</tspan></text>
	<text transform="matrix(1 0 0 1 821.2793 464.5615)" fill="#FFFFFF" font-family="'SourceSansPro-LightIt'" font-size="38.7807">Decimoprimera Edición</text>
</g>
</svg>
