<?xml version="1.0" encoding="utf-8"?>
<!-- Generator: Adobe Illustrator 16.0.0, SVG Export Plug-In . SVG Version: 6.00 Build 0)  -->
<!DOCTYPE svg PUBLIC "-//W3C//DTD SVG 1.1//EN" "http://www.w3.org/Graphics/SVG/1.1/DTD/svg11.dtd">
<svg version="1.1" xmlns="http://www.w3.org/2000/svg" xmlns:xlink="http://www.w3.org/1999/xlink" x="0px" y="0px" width="1500px"
	 height="800px" viewBox="0 0 1500 800" enable-background="new 0 0 1500 800" xml:space="preserve">
<g id="Layer_1">
	<g>
		<path fill="#EAEAEA" d="M1083.2,33.7V13.5c0-7.2-5.8-13-13-13H17.5c-7.2,0-13,5.8-13,13.1v20.2L1083.2,33.7z"/>
		<circle fill="#404040" cx="20.8" cy="17.5" r="2.7"/>
		<circle fill="#404040" cx="30.7" cy="17.5" r="2.7"/>
		<circle fill="#404040" cx="40.6" cy="17.5" r="2.7"/>
		<path fill="#404040" d="M1070.5,12.9c0,0.5-0.4,0.9-0.9,0.9h-14.1c-0.5,0-0.9-0.4-0.9-0.9l0,0c0-0.5,0.4-0.9,0.9-0.9h14.1
			C1070.1,12,1070.5,12.4,1070.5,12.9L1070.5,12.9z"/>
		<path fill="#404040" d="M1070.5,17c0,0.5-0.4,0.9-0.9,0.9h-14.1c-0.5,0-0.9-0.4-0.9-0.9l0,0c0-0.5,0.4-0.9,0.9-0.9h14.1
			C1070.1,16.1,1070.5,16.5,1070.5,17L1070.5,17z"/>
		<path fill="#404040" d="M1070.5,21.4c0,0.5-0.4,0.9-0.9,0.9h-14.1c-0.5,0-0.9-0.4-0.9-0.9l0,0c0-0.5,0.4-0.9,0.9-0.9h14.1
			C1070.1,20.5,1070.5,20.9,1070.5,21.4L1070.5,21.4z"/>
		<path fill="#FFFFFF" d="M1040.7,16.8c0,4.2-3.4,7.5-7.5,7.5H68.5c-4.2,0-7.5-3.4-7.5-7.5l0,0c0-4.2,3.4-7.5,7.5-7.5h964.6
			C1037.3,9.2,1040.7,12.6,1040.7,16.8L1040.7,16.8z"/>
		<path fill="#ED2246" d="M4.4,33.6V786c0,7.2,5.8,13,13,13h1052.7c7.2,0,13-5.8,13-13V33.6L4.4,33.6z"/>
		<path fill="#BD1B38" d="M6.3,792.7c2.3,3.8,6.4,6.3,11.2,6.3h1052.7c4.7,0,8.9-2.5,11.2-6.3H6.3z"/>
	</g>
	<g>
		<path fill="#EAEAEA" d="M1498.6,744.3c0,30.8-25.5,55.8-57,55.8h-265.9c-31.5,0-57-25-57-55.8V55.7c0-30.8,25.5-55.8,57-55.8
			h265.9c31.5,0,57,25,57,55.8V744.3z"/>
		<path fill="#FFFFFF" d="M1491,739.4c0,29.4-25.6,53.2-55.6,53.2h-253.5c-30,0-55.6-23.8-55.6-53.2V61.2
			c0-29.4,25.6-53.2,55.6-53.2h253.5c30,0,55.6,23.8,55.6,53.2V739.4z"/>
		<g>
			<defs>
				<rect id="SVGID_1_" x="1137.9" y="92" width="341.5" height="606.7"/>
			</defs>
			<clipPath id="SVGID_2_">
				<use xlink:href="#SVGID_1_"  overflow="visible"/>
			</clipPath>
			<rect x="1125.2" y="92" clip-path="url(#SVGID_2_)" fill="#ED2246" width="367.3" height="604.7"/>
			<rect x="1125" y="694.7" clip-path="url(#SVGID_2_)" fill="#BD1B38" width="367.6" height="4"/>
		</g>
		<circle fill="#EAEAEA" cx="1308.7" cy="744.5" r="29.3"/>
		<g>
			<circle fill="#EAEAEA" cx="1259.4" cy="55.2" r="4.4"/>
			<path fill="#EAEAEA" d="M1362.3,55.2c0,2.1-1.7,3.7-3.7,3.7h-84.1c-2.1,0-3.7-1.7-3.7-3.7l0,0c0-2.1,1.7-3.7,3.7-3.7h84.1
				C1360.6,51.5,1362.3,53.2,1362.3,55.2L1362.3,55.2z"/>
		</g>
	</g>
	<rect x="1155.5" y="109.6" fill="#FFFFFF" width="34.3" height="3.8"/>
	<rect x="1155.5" y="119.7" fill="#FFFFFF" width="34.3" height="3.8"/>
	<rect x="1155.5" y="129.8" fill="#FFFFFF" width="34.3" height="3.8"/>
	<rect x="26.2" y="57.3" fill="#FFFFFF" width="34.3" height="3.8"/>
	<rect x="26.2" y="67.4" fill="#FFFFFF" width="34.3" height="3.8"/>
	<rect x="26.2" y="77.6" fill="#FFFFFF" width="34.3" height="3.8"/>
	<polygon fill="#BD1B38" points="542.4,747.1 558.3,747.1 550.4,760.9 542.4,774.6 534.5,760.9 526.5,747.1 	"/>
	<polygon fill="#BD1B38" points="1303.1,658.6 1319,658.6 1311,672.3 1303.1,686.1 1295.1,672.3 1287.2,658.6 	"/>
</g>
<g id="Layer_3">
</g>
<g id="Layer_2">
	<g>
		<g>
			<g>
				<g>
					<path fill="#BD1B38" stroke="#010101" stroke-width="5" stroke-miterlimit="10" d="M407.8,383.8"/>
				</g>
			</g>
			<g>
				<g>
					<g>
						<rect x="234.1" y="461.9" fill="#BD1B38" width="8.2" height="49.5"/>
					</g>
				</g>
				<g>
					<g>
						<polygon fill="#BD1B38" points="251.3,461.9 242.3,487.8 251.2,511.3 259,511.3 250.2,487.8 259.1,461.9 						"/>
					</g>
				</g>
				<g>
					<g>
						<path fill="#BD1B38" d="M282.4,461.9v29.2l8.2-29.2h5.2c0,0,0.9,0.2,2,1.5c0.7,0.8,0.9,2,0.9,2v46h-8v-24.8l-8.4,24.8h-8.4
							v-46c0,0,0.2-1,1.3-2.2c0.8-0.9,2-1.3,2-1.3H282.4z"/>
					</g>
				</g>
				<g>
					<g>
						<path fill="#BD1B38" d="M320.2,500.6c0,0,0.9-0.1,2.7-1.6c1.9-1.6,2.4-3.1,2.4-3.1v-19.2c0,0-0.7-2-2-3.3c-1.3-1.3-3-2-3-2
							h-3.8v-3.2h8.4v-6.2h-11.9H301v6.2h8.4v3.2h-3.8c0,0-1.7,0.8-3,2c-1.3,1.3-2,3.3-2,3.3v19.2c0,0,0.5,1.5,2.4,3.1
							c1.7,1.5,2.7,1.6,2.7,1.6h3.4v3.6h-8.2v7.1h12.1H325v-7.1h-8.2v-3.6H320.2z M312.9,493.9h-4.1v-15.6h4.1h4.1v15.6H312.9z"/>
					</g>
				</g>
				<g>
					<g>
						<rect x="326.9" y="461.9" fill="#BD1B38" width="8.2" height="49.5"/>
					</g>
				</g>
				<g>
					<g>
						<polygon fill="#BD1B38" points="344.1,461.9 335.2,487.8 344,511.3 351.8,511.3 343,487.8 351.9,461.9 						"/>
					</g>
				</g>
				<g>
					<g>
						<polygon fill="#BD1B38" points="272.4,461.9 258,461.9 260.8,511.3 269.6,511.3 						"/>
					</g>
				</g>
				<g>
					<g>
						<rect x="257.3" y="518.1" fill="#BD1B38" width="14.3" height="9.8"/>
					</g>
				</g>
				<g>
					<g>
						<polygon fill="#BD1B38" points="352.8,511.2 363.4,511.2 361.4,474.7 354.9,474.7 						"/>
					</g>
				</g>
				<g>
					<g>
						<rect x="352.8" y="461.9" fill="#BD1B38" width="10.6" height="7.3"/>
					</g>
				</g>
				<g>
					<g>
						<g>
							<path fill="#BD1B38" d="M273.3,518.8h1.7v0.4h-1.2v0.8h1.1v0.4h-1.1v1.2h-0.5V518.8z"/>
						</g>
					</g>
					<g>
						<g>
							<path fill="#BD1B38" d="M279,520.5h-1.1v0.9h1.2v0.4h-1.8v-2.9h1.7v0.4h-1.2v0.8h1.1V520.5z"/>
						</g>
					</g>
					<g>
						<g>
							<path fill="#BD1B38" d="M281.5,521.2c0.2,0.1,0.4,0.2,0.7,0.2c0.3,0,0.5-0.2,0.5-0.4c0-0.2-0.1-0.3-0.5-0.5
								c-0.5-0.2-0.8-0.4-0.8-0.8c0-0.5,0.4-0.8,1-0.8c0.3,0,0.5,0.1,0.7,0.1l-0.1,0.4c-0.1-0.1-0.3-0.1-0.6-0.1
								c-0.3,0-0.5,0.2-0.5,0.4c0,0.2,0.2,0.3,0.6,0.5c0.5,0.2,0.8,0.4,0.8,0.9c0,0.5-0.4,0.9-1.1,0.9c-0.3,0-0.6-0.1-0.8-0.2
								L281.5,521.2z"/>
						</g>
					</g>
					<g>
						<g>
							<path fill="#BD1B38" d="M286.2,519.3h-0.8v-0.4h2.2v0.4h-0.8v2.5h-0.5V519.3z"/>
						</g>
					</g>
					<g>
						<g>
							<path fill="#BD1B38" d="M290.4,518.8v2.9h-0.5v-2.9H290.4z"/>
						</g>
					</g>
					<g>
						<g>
							<path fill="#BD1B38" d="M293.5,521.8l-0.9-2.9h0.6l0.4,1.3c0.1,0.4,0.2,0.7,0.3,1.1h0c0.1-0.3,0.2-0.7,0.3-1.1l0.4-1.3h0.6
								l-1,2.9H293.5z"/>
						</g>
					</g>
					<g>
						<g>
							<path fill="#BD1B38" d="M297.7,520.9l-0.3,0.8h-0.5l0.9-2.9h0.7l0.9,2.9h-0.6l-0.3-0.8H297.7z M298.6,520.5l-0.2-0.7
								c-0.1-0.2-0.1-0.4-0.1-0.5h0c0,0.2-0.1,0.4-0.1,0.5l-0.2,0.7H298.6z"/>
						</g>
					</g>
					<g>
						<g>
							<path fill="#BD1B38" d="M301.8,518.8h0.5v2.5h1.2v0.4h-1.7V518.8z"/>
						</g>
					</g>
					<g>
						<g>
							<path fill="#BD1B38" d="M309.2,518.8v2.9h-0.5v-2.9H309.2z"/>
						</g>
					</g>
					<g>
						<g>
							<path fill="#BD1B38" d="M311.7,521.8v-2.9h0.6l0.7,1.2c0.2,0.3,0.4,0.7,0.5,1h0c0-0.4,0-0.8,0-1.2v-1h0.5v2.9h-0.5l-0.8-1.3
								c-0.2-0.3-0.4-0.7-0.5-1l0,0c0,0.4,0,0.8,0,1.2v1H311.7z"/>
						</g>
					</g>
					<g>
						<g>
							<path fill="#BD1B38" d="M317,519.3h-0.8v-0.4h2.2v0.4h-0.8v2.5H317V519.3z"/>
						</g>
					</g>
					<g>
						<g>
							<path fill="#BD1B38" d="M322.3,520.5h-1.1v0.9h1.2v0.4h-1.8v-2.9h1.7v0.4h-1.2v0.8h1.1V520.5z"/>
						</g>
					</g>
					<g>
						<g>
							<path fill="#BD1B38" d="M324.8,518.9c0.2,0,0.5-0.1,0.8-0.1c0.4,0,0.7,0.1,0.9,0.2c0.2,0.1,0.2,0.3,0.2,0.6
								c0,0.4-0.3,0.6-0.5,0.7v0c0.2,0.1,0.3,0.3,0.4,0.6c0.1,0.4,0.2,0.7,0.2,0.8h-0.5c0-0.1-0.1-0.3-0.2-0.7
								c-0.1-0.4-0.2-0.5-0.5-0.5h-0.3v1.2h-0.5V518.9z M325.3,520.2h0.3c0.4,0,0.6-0.2,0.6-0.5c0-0.3-0.2-0.5-0.6-0.5
								c-0.2,0-0.3,0-0.3,0V520.2z"/>
						</g>
					</g>
					<g>
						<g>
							<path fill="#BD1B38" d="M329.2,521.8v-2.9h0.6l0.8,1.2c0.2,0.3,0.4,0.7,0.5,1h0c0-0.4-0.1-0.8-0.1-1.2v-1h0.5v2.9h-0.5
								l-0.8-1.3c-0.2-0.3-0.4-0.7-0.5-1l0,0c0,0.4,0,0.8,0,1.2v1H329.2z"/>
						</g>
					</g>
					<g>
						<g>
							<path fill="#BD1B38" d="M334.6,520.9l-0.3,0.8h-0.5l0.9-2.9h0.7l0.9,2.9h-0.6l-0.3-0.8H334.6z M335.4,520.5l-0.2-0.7
								c-0.1-0.2-0.1-0.4-0.1-0.5h0c0,0.2-0.1,0.4-0.1,0.5l-0.2,0.7H335.4z"/>
						</g>
					</g>
					<g>
						<g>
							<path fill="#BD1B38" d="M340.6,521.7c-0.1,0.1-0.4,0.1-0.8,0.1c-0.9,0-1.5-0.6-1.5-1.5c0-1,0.7-1.5,1.6-1.5
								c0.3,0,0.6,0.1,0.7,0.1l-0.1,0.4c-0.1-0.1-0.3-0.1-0.6-0.1c-0.6,0-1,0.4-1,1.1c0,0.6,0.4,1,1,1c0.2,0,0.4,0,0.6-0.1
								L340.6,521.7z"/>
						</g>
					</g>
					<g>
						<g>
							<path fill="#BD1B38" d="M343.5,518.8v2.9H343v-2.9H343.5z"/>
						</g>
					</g>
					<g>
						<g>
							<path fill="#BD1B38" d="M348.6,520.3c0,1-0.6,1.5-1.4,1.5c-0.8,0-1.3-0.6-1.3-1.5c0-0.9,0.6-1.5,1.4-1.5
								C348.1,518.8,348.6,519.4,348.6,520.3z M346.4,520.3c0,0.6,0.3,1.1,0.8,1.1c0.5,0,0.8-0.5,0.8-1.1c0-0.6-0.3-1.1-0.8-1.1
								C346.7,519.2,346.4,519.7,346.4,520.3z"/>
						</g>
					</g>
					<g>
						<g>
							<path fill="#BD1B38" d="M351,521.8v-2.9h0.6l0.8,1.2c0.2,0.3,0.4,0.7,0.5,1h0c0-0.4,0-0.8,0-1.2v-1h0.5v2.9h-0.5l-0.8-1.3
								c-0.2-0.3-0.4-0.7-0.5-1l0,0c0,0.4,0,0.8,0,1.2v1H351z"/>
						</g>
					</g>
					<g>
						<g>
							<path fill="#BD1B38" d="M356.4,520.9l-0.3,0.8h-0.5l0.9-2.9h0.7l0.9,2.9h-0.6l-0.3-0.8H356.4z M357.2,520.5l-0.2-0.7
								c-0.1-0.2-0.1-0.4-0.1-0.5h0c0,0.2-0.1,0.4-0.1,0.5l-0.2,0.7H357.2z"/>
						</g>
					</g>
					<g>
						<g>
							<path fill="#BD1B38" d="M360.4,518.8h0.5v2.5h1.2v0.4h-1.7V518.8z"/>
						</g>
					</g>
					<g>
						<g>
							<path fill="#BD1B38" d="M273.3,524.1c0.2,0,0.5-0.1,0.8-0.1c0.5,0,0.9,0.1,1.2,0.3c0.3,0.2,0.5,0.6,0.5,1.1
								c0,0.5-0.2,0.9-0.5,1.2c-0.3,0.3-0.7,0.4-1.3,0.4c-0.3,0-0.5,0-0.7,0V524.1z M273.8,526.5c0.1,0,0.2,0,0.3,0
								c0.7,0,1.1-0.4,1.1-1.1c0-0.6-0.4-1-1-1c-0.2,0-0.3,0-0.4,0V526.5z"/>
						</g>
					</g>
					<g>
						<g>
							<path fill="#BD1B38" d="M279.8,525.6h-1.1v0.9h1.2v0.4h-1.8V524h1.7v0.4h-1.2v0.8h1.1V525.6z"/>
						</g>
					</g>
					<g>
						<g>
							<path fill="#BD1B38" d="M290.1,526.8c-0.1,0.1-0.4,0.1-0.8,0.1c-0.9,0-1.5-0.6-1.5-1.5c0-1,0.7-1.5,1.6-1.5
								c0.4,0,0.6,0.1,0.7,0.1l-0.1,0.4c-0.1-0.1-0.3-0.1-0.6-0.1c-0.6,0-1,0.4-1,1.1c0,0.6,0.4,1.1,1,1.1c0.2,0,0.4,0,0.6-0.1
								L290.1,526.8z"/>
						</g>
					</g>
					<g>
						<g>
							<path fill="#BD1B38" d="M293.1,524v2.9h-0.5V524H293.1z"/>
						</g>
					</g>
					<g>
						<g>
							<path fill="#BD1B38" d="M295.6,526.9V524h0.6l0.8,1.2c0.2,0.3,0.4,0.7,0.5,1h0c0-0.4,0-0.8,0-1.2v-1h0.5v2.9h-0.5l-0.8-1.3
								c-0.2-0.3-0.4-0.7-0.5-1l0,0c0,0.4,0,0.8,0,1.2v1H295.6z"/>
						</g>
					</g>
					<g>
						<g>
							<path fill="#BD1B38" d="M302.1,525.6H301v0.9h1.2v0.4h-1.8V524h1.7v0.4H301v0.8h1.1V525.6z"/>
						</g>
					</g>
					<g>
						<g>
							<path fill="#BD1B38" d="M310.9,524v1.7c0,0.6,0.2,0.8,0.6,0.8c0.4,0,0.6-0.3,0.6-0.8V524h0.5v1.7c0,0.9-0.5,1.3-1.2,1.3
								c-0.7,0-1.1-0.4-1.1-1.3V524H310.9z"/>
						</g>
					</g>
					<g>
						<g>
							<path fill="#BD1B38" d="M315.2,526.9V524h0.6l0.8,1.2c0.2,0.3,0.4,0.7,0.5,1h0c0-0.4,0-0.8,0-1.2v-1h0.5v2.9h-0.5l-0.8-1.3
								c-0.2-0.3-0.4-0.7-0.5-1l0,0c0,0.4,0,0.8,0,1.2v1H315.2z"/>
						</g>
					</g>
					<g>
						<g>
							<path fill="#BD1B38" d="M320.6,524v2.9H320V524H320.6z"/>
						</g>
					</g>
					<g>
						<g>
							<path fill="#BD1B38" d="M323.8,526.9l-0.9-2.9h0.6l0.4,1.3c0.1,0.4,0.2,0.7,0.3,1.1h0c0.1-0.3,0.2-0.7,0.3-1.1l0.4-1.3h0.6
								l-1,2.9H323.8z"/>
						</g>
					</g>
					<g>
						<g>
							<path fill="#BD1B38" d="M329.3,525.6h-1.1v0.9h1.2v0.4h-1.8V524h1.7v0.4h-1.2v0.8h1.1V525.6z"/>
						</g>
					</g>
					<g>
						<g>
							<path fill="#BD1B38" d="M331.8,524.1c0.2,0,0.5-0.1,0.8-0.1c0.4,0,0.7,0.1,0.9,0.2c0.2,0.1,0.2,0.3,0.2,0.6
								c0,0.4-0.3,0.6-0.5,0.7v0c0.2,0.1,0.3,0.3,0.4,0.6c0.1,0.4,0.2,0.7,0.2,0.8h-0.5c0-0.1-0.1-0.3-0.2-0.7
								c-0.1-0.4-0.2-0.5-0.5-0.5h-0.3v1.2h-0.5V524.1z M332.4,525.3h0.3c0.4,0,0.6-0.2,0.6-0.5c0-0.3-0.2-0.5-0.6-0.5
								c-0.2,0-0.3,0-0.3,0V525.3z"/>
						</g>
					</g>
					<g>
						<g>
							<path fill="#BD1B38" d="M336.2,526.4c0.2,0.1,0.4,0.2,0.7,0.2c0.3,0,0.5-0.2,0.5-0.4c0-0.2-0.1-0.3-0.5-0.5
								c-0.5-0.2-0.8-0.4-0.8-0.8c0-0.5,0.4-0.8,1-0.8c0.3,0,0.5,0.1,0.7,0.1l-0.1,0.4c-0.1-0.1-0.3-0.1-0.6-0.1
								c-0.3,0-0.5,0.2-0.5,0.3c0,0.2,0.2,0.3,0.6,0.5c0.5,0.2,0.8,0.4,0.8,0.9c0,0.5-0.4,0.9-1.1,0.9c-0.3,0-0.6-0.1-0.8-0.2
								L336.2,526.4z"/>
						</g>
					</g>
					<g>
						<g>
							<path fill="#BD1B38" d="M340.9,524v2.9h-0.5V524H340.9z"/>
						</g>
					</g>
					<g>
						<g>
							<path fill="#BD1B38" d="M344.1,524.5h-0.8V524h2.2v0.4h-0.8v2.5h-0.5V524.5z"/>
						</g>
					</g>
					<g>
						<g>
							<path fill="#BD1B38" d="M348,526.1l-0.2,0.8h-0.6l0.9-2.9h0.7l0.9,2.9h-0.6l-0.3-0.8H348z M348.8,525.7l-0.2-0.7
								c-0.1-0.2-0.1-0.4-0.1-0.5h0c0,0.2-0.1,0.4-0.1,0.5l-0.2,0.7H348.8z"/>
						</g>
					</g>
					<g>
						<g>
							<path fill="#BD1B38" d="M352.1,524.1c0.2,0,0.5-0.1,0.8-0.1c0.4,0,0.7,0.1,0.9,0.2c0.2,0.1,0.3,0.3,0.3,0.6
								c0,0.4-0.3,0.6-0.5,0.7v0c0.2,0.1,0.3,0.3,0.4,0.6c0.1,0.4,0.2,0.7,0.2,0.8h-0.5c0-0.1-0.1-0.3-0.2-0.7
								c-0.1-0.4-0.2-0.5-0.5-0.5h-0.3v1.2h-0.5V524.1z M352.6,525.3h0.3c0.4,0,0.6-0.2,0.6-0.5c0-0.3-0.2-0.5-0.6-0.5
								c-0.2,0-0.3,0-0.3,0V525.3z"/>
						</g>
					</g>
					<g>
						<g>
							<path fill="#BD1B38" d="M357,524v2.9h-0.5V524H357z"/>
						</g>
					</g>
					<g>
						<g>
							<path fill="#BD1B38" d="M362.2,525.4c0,1-0.6,1.5-1.4,1.5c-0.8,0-1.3-0.6-1.3-1.5c0-0.9,0.6-1.5,1.4-1.5
								C361.7,524,362.2,524.6,362.2,525.4z M360,525.5c0,0.6,0.3,1.1,0.8,1.1c0.5,0,0.8-0.5,0.8-1.1c0-0.5-0.3-1.1-0.8-1.1
								C360.3,524.4,360,524.9,360,525.5z"/>
						</g>
					</g>
				</g>
			</g>
			<g>
				<path fill="#BD1B38" d="M224.1,416c-13.4,0-23.5-6.3-29.2-18.3c-4.6-9.7-5.3-20.7-5.3-26.4c0-7.7,4.3-19.3,12.7-27.4l-3.2-4.7
					c-11,8.3-18.2,21.5-18.2,36.4c0,25.2,20.4,45.6,45.6,45.6c8.6,0,16.6-2.4,23.5-6.5l-3.3-5C240.8,413.5,233.4,416,224.1,416z"/>
				<path fill="#BD1B38" d="M224.3,340.8h-0.2c-5.2,0-9.7,1.6-13.6,4.2l37.5,55.6c8.2-8,11.4-19.3,11.4-26.2
					C259.4,371.1,258.5,340.8,224.3,340.8z"/>
				<path fill="#BD1B38" d="M195.8,371.2c0,5.2,0.6,15.2,4.7,23.8c4.7,9.8,12.6,14.8,23.7,14.8c7.8,0,14.1-2.1,19.1-5.3L205.8,349
					C199.2,355.8,195.8,365.2,195.8,371.2z"/>
				<path fill="#BD1B38" d="M272.2,375.5c0-25.2-20.4-45.6-45.6-45.6c-8.1,0-15.7,2.1-22.3,5.8l2.8,4.2c4.7-3.2,10.4-5.2,17-5.2h0.2
					c32.6,0,41.3,25,41.3,39.9c0,8.3-3.8,22-14,31.4l3.5,5.2C265.5,402.8,272.2,389.9,272.2,375.5z"/>
				<path fill="#BD1B38" d="M253.6,420l5.1-3.5l-3.6-5.4c-1.6,1.3-3.3,2.5-5.1,3.5L253.6,420z"/>
				<path fill="#BD1B38" d="M201.6,331.7l-5.1,3.5l2.6,3.9c1.6-1.2,3.4-2.4,5.2-3.4L201.6,331.7z"/>
			</g>
			<g>
				<g>
					<rect x="280.4" y="339.5" fill="#BD1B38" width="6.2" height="59.8"/>
				</g>
			</g>
			<g>
				<path fill="#BD1B38" d="M337.7,329.9c-9.8,0-18.8,3.1-26.2,8.3l0.2,4.2c5.8-3,16.6-7.6,27.4-6.8c10.2,0.8,36.6,8.6,36.6,35.3
					c0,15.3-6.5,25.2-11.9,30.8c-7,7.2-16.5,11.5-26.1,11.9c-0.7,0-1.4,0-2.1,0c-15.9,0-23.1-7-31.2-20.3l5.1-3.1
					c8.5,14,14.8,17.9,28,17.4c20.2-0.7,32.3-19.3,32.3-36.8c0-9.6-4-17.1-11.9-22.6c-6.5-4.4-14.4-6.4-19.2-6.8
					c-13.6-1-28,8.3-28.1,8.4l-4.4,2.9l-0.4-9.8c-8.4,8.3-13.7,19.8-13.7,32.6c0,25.2,20.4,45.6,45.6,45.6
					c25.2,0,45.6-20.4,45.6-45.6C383.3,350.3,362.9,329.9,337.7,329.9z"/>
				<path fill="#BD1B38" d="M311.1,325l33.7-1.5l-0.3-5.9l-39.6,1.7l0.8,23.7c1.8-1.8,3.7-3.4,5.8-4.8L311.1,325z M331.1,313.7"/>
			</g>
			<path fill="#BD1B38" d="M489.3,473c-2-7.1-5.2-88.8-6.9-142.7c0.5-2.9,0.7-5.3-1.3-6.5c-0.7-0.5-1.6-0.6-2.4-0.4
				c-2.1,0.2-12.3,0.9-15.8,0.9c-2.4,0-8.7-0.5-11.1-1c-0.5-0.1-1.5-0.4-1.9-0.1c-0.3,0.1-1.6,1.3-1.6,1.3
				c-0.2,0.2-19.4,15.2-25.8,20.1c-7.4,5.7-28.8,23.2-28.8,25.3c0,1.5,5.2,5.3,8.7,7.7c-0.7,11.2-8.4,29.5-22.2,43
				c-8.4,8.2-22.5,18-41.7,17.5c-42.8-1-100.7-0.1-147.2,0.7c-27.6,0.4-53.8,0.9-63.9,0.6c2.3-2.8,6.2-7,10-11.2
				c24.7-27,48.3-54.6,41.7-69.5c-2.6-6-9.6-9-20.7-9c0,0,0,0,0,0c-14.8,0-21.4,11.3-21.6,11.8l5.4,3.1c0-0.1,5.1-8.6,16.3-8.6
				c0,0,0,0,0,0c5.8,0,13.1,0.9,15.1,5.3c5.5,12.4-25.7,46.5-40.6,62.8c-12,13.2-14,15.5-13.6,18.1c0.1,1,0.7,1.9,1.5,2.4
				c1.1,0.7,3.3,1.1,16.2,1.1c10.1,0,26.7-0.2,54.5-0.7c46.4-0.7,104.2-1.7,146.9-0.7c1.7,0,3.4,0,5.1-0.1c1.5,0,53.9-0.3,66.1-0.3
				c3.4,1.6,20.3,9.5,37.2,17.2c28.9,13.2,37.1,16.7,40.2,16.7c1.2,0,1.6-0.5,2.2-1.2C489.9,475.5,490,474.1,489.3,473z
				 M401.7,369.2c-0.7-1.2,18.8-16.3,24.6-20.7c5.7-4.4,21.5-15.6,25.6-18.9c2.6,0.3,8.6,0.9,11.1,0.9c1.4,0,3.6-0.1,6-0.2
				c-1.4,1-2.8,2.1-4.2,3.1c-8.4,6.2-17,12.6-24.9,17.9c-16.1,10.8-28.7,18.6-33.1,21.1C406.7,372.4,402.4,370.2,401.7,369.2z
				 M410.3,440.8L410.3,440.8L410.3,440.8L410.3,440.8z M413.3,438.8c-0.1-4.7-0.2-17.2-0.7-29.8c-0.8-19.1-1.8-27.7-2.9-31.7
				c5.3-3,18.3-10.6,33.6-20.9c8-5.3,16.7-11.8,25.1-18.1c2.6-1.9,5.3-3.9,7.9-5.9c0.3,8.4,1.3,38.5,2.5,68.6
				c1.8,43.6,3,61.5,3.9,69.2C470.6,465.4,436.3,449.6,413.3,438.8z"/>
			<g>
				<g>
					<path fill="#BD1B38" d="M323.4,312.6c-4.4,0-7.1-4.8-7.1-9.3c0-3.7,3.7-5.9,7.2-5.9c1.5,0,3,0.4,4.2,1.1
						c2.6,1.5,3.5,4.9,3.5,7.3c0,2.9-2.2,6.1-7,6.7C323.9,312.6,323.6,312.6,323.4,312.6z M323.5,300.9c-1.8,0-3.7,0.9-3.7,2.5
						c0,2.7,1.6,5.8,3.6,5.8c0.1,0,0.2,0,0.3,0c2.4-0.3,4-1.6,4-3.3c0-1.9-0.7-3.7-1.8-4.3C325.2,301.1,324.4,300.9,323.5,300.9z"/>
				</g>
			</g>
		</g>
		<g>
			<g>
				<g>
					<path fill="#FFFFFF" stroke="#010101" stroke-width="5" stroke-miterlimit="10" d="M406.8,381.2"/>
				</g>
			</g>
			<g>
				<g>
					<g>
						<rect x="233.1" y="459.2" fill="#FFFFFF" width="8.2" height="49.5"/>
					</g>
				</g>
				<g>
					<g>
						<polygon fill="#FFFFFF" points="250.3,459.2 241.3,485.1 250.2,508.7 258,508.7 249.2,485.1 258.1,459.2 						"/>
					</g>
				</g>
				<g>
					<g>
						<path fill="#FFFFFF" d="M281.4,459.2v29.2l8.2-29.2h5.2c0,0,0.9,0.2,2,1.5c0.7,0.8,0.9,2,0.9,2v46h-8v-24.8l-8.4,24.8h-8.4
							v-46c0,0,0.2-1,1.3-2.2c0.8-0.9,2-1.3,2-1.3H281.4z"/>
					</g>
				</g>
				<g>
					<g>
						<path fill="#FFFFFF" d="M319.2,498c0,0,0.9-0.1,2.7-1.6c1.9-1.6,2.4-3.1,2.4-3.1V474c0,0-0.7-2-2-3.3c-1.3-1.3-3-2-3-2h-3.8
							v-3.2h8.4v-6.2h-11.9H300v6.2h8.4v3.2h-3.8c0,0-1.7,0.8-3,2c-1.3,1.3-2,3.3-2,3.3v19.2c0,0,0.5,1.5,2.4,3.1
							c1.7,1.5,2.7,1.6,2.7,1.6h3.4v3.6h-8.2v7.1h12.1H324v-7.1h-8.2V498H319.2z M311.9,491.2h-4.1v-15.6h4.1h4.1v15.6H311.9z"/>
					</g>
				</g>
				<g>
					<g>
						<rect x="325.9" y="459.2" fill="#FFFFFF" width="8.2" height="49.5"/>
					</g>
				</g>
				<g>
					<g>
						<polygon fill="#FFFFFF" points="343.1,459.2 334.2,485.1 343,508.7 350.8,508.7 342,485.1 350.9,459.2 						"/>
					</g>
				</g>
				<g>
					<g>
						<polygon fill="#FFFFFF" points="271.4,459.2 257,459.2 259.8,508.7 268.6,508.7 						"/>
					</g>
				</g>
				<g>
					<g>
						<rect x="257" y="516.2" fill="#FFFFFF" width="14.3" height="9.8"/>
					</g>
				</g>
				<g>
					<g>
						<polygon fill="#FFFFFF" points="351.8,508.6 362.4,508.6 360.4,472 353.9,472 						"/>
					</g>
				</g>
				<g>
					<g>
						<rect x="351.8" y="459.2" fill="#FFFFFF" width="10.6" height="7.3"/>
					</g>
				</g>
				<g>
					<g>
						<g>
							<path fill="#FFFFFF" d="M273.4,517.3h1.7v0.4h-1.1v0.8h1.1v0.4h-1.1v1.2h-0.5V517.3z"/>
						</g>
					</g>
					<g>
						<g>
							<path fill="#FFFFFF" d="M279.1,518.9H278v0.9h1.2v0.4h-1.8v-2.9h1.7v0.4H278v0.8h1.1V518.9z"/>
						</g>
					</g>
					<g>
						<g>
							<path fill="#FFFFFF" d="M281.6,519.6c0.2,0.1,0.4,0.2,0.7,0.2c0.3,0,0.5-0.2,0.5-0.4c0-0.2-0.1-0.3-0.5-0.5
								c-0.5-0.2-0.8-0.4-0.8-0.8c0-0.5,0.4-0.8,1-0.8c0.3,0,0.5,0.1,0.7,0.1l-0.1,0.4c-0.1-0.1-0.3-0.1-0.6-0.1
								c-0.3,0-0.5,0.2-0.5,0.4c0,0.2,0.2,0.3,0.6,0.5c0.5,0.2,0.8,0.4,0.8,0.9c0,0.5-0.4,0.9-1.1,0.9c-0.3,0-0.6-0.1-0.8-0.2
								L281.6,519.6z"/>
						</g>
					</g>
					<g>
						<g>
							<path fill="#FFFFFF" d="M286.3,517.7h-0.8v-0.4h2.2v0.4h-0.8v2.5h-0.5V517.7z"/>
						</g>
					</g>
					<g>
						<g>
							<path fill="#FFFFFF" d="M290.4,517.3v2.9h-0.5v-2.9H290.4z"/>
						</g>
					</g>
					<g>
						<g>
							<path fill="#FFFFFF" d="M293.6,520.2l-0.9-2.9h0.6l0.4,1.3c0.1,0.4,0.2,0.7,0.3,1.1h0c0.1-0.3,0.2-0.7,0.3-1l0.4-1.3h0.6
								l-1,2.9H293.6z"/>
						</g>
					</g>
					<g>
						<g>
							<path fill="#FFFFFF" d="M297.8,519.4l-0.3,0.8H297l0.9-2.9h0.7l0.9,2.9H299l-0.3-0.8H297.8z M298.6,519l-0.2-0.7
								c-0.1-0.2-0.1-0.4-0.1-0.5h0c0,0.2-0.1,0.4-0.1,0.5l-0.2,0.7H298.6z"/>
						</g>
					</g>
					<g>
						<g>
							<path fill="#FFFFFF" d="M301.9,517.3h0.5v2.5h1.2v0.4h-1.7V517.3z"/>
						</g>
					</g>
					<g>
						<g>
							<path fill="#FFFFFF" d="M309.2,517.3v2.9h-0.5v-2.9H309.2z"/>
						</g>
					</g>
					<g>
						<g>
							<path fill="#FFFFFF" d="M311.7,520.2v-2.9h0.6l0.8,1.2c0.2,0.3,0.4,0.7,0.5,1h0c0-0.4,0-0.8,0-1.2v-1h0.5v2.9h-0.5l-0.8-1.3
								c-0.2-0.3-0.4-0.7-0.5-1l0,0c0,0.4,0,0.8,0,1.2v1H311.7z"/>
						</g>
					</g>
					<g>
						<g>
							<path fill="#FFFFFF" d="M317.1,517.7h-0.8v-0.4h2.2v0.4h-0.8v2.5h-0.5V517.7z"/>
						</g>
					</g>
					<g>
						<g>
							<path fill="#FFFFFF" d="M322.4,518.9h-1.1v0.9h1.2v0.4h-1.8v-2.9h1.7v0.4h-1.2v0.8h1.1V518.9z"/>
						</g>
					</g>
					<g>
						<g>
							<path fill="#FFFFFF" d="M324.9,517.3c0.2,0,0.5-0.1,0.8-0.1c0.4,0,0.7,0.1,0.9,0.2c0.2,0.1,0.3,0.3,0.3,0.6
								c0,0.4-0.3,0.6-0.5,0.7v0c0.2,0.1,0.3,0.3,0.4,0.6c0.1,0.4,0.2,0.7,0.2,0.8h-0.5c0-0.1-0.1-0.3-0.2-0.7
								c-0.1-0.4-0.2-0.5-0.5-0.5h-0.3v1.2h-0.5V517.3z M325.4,518.6h0.3c0.4,0,0.6-0.2,0.6-0.5c0-0.3-0.2-0.5-0.6-0.5
								c-0.2,0-0.3,0-0.3,0V518.6z"/>
						</g>
					</g>
					<g>
						<g>
							<path fill="#FFFFFF" d="M329.2,520.2v-2.9h0.6l0.8,1.2c0.2,0.3,0.4,0.7,0.5,1h0c0-0.4,0-0.8,0-1.2v-1h0.5v2.9H331l-0.8-1.3
								c-0.2-0.3-0.4-0.7-0.5-1l0,0c0,0.4,0,0.8,0,1.2v1H329.2z"/>
						</g>
					</g>
					<g>
						<g>
							<path fill="#FFFFFF" d="M334.6,519.4l-0.3,0.8h-0.5l0.9-2.9h0.7l0.9,2.9h-0.6l-0.3-0.8H334.6z M335.5,519l-0.2-0.7
								c-0.1-0.2-0.1-0.4-0.1-0.5h0c0,0.2-0.1,0.4-0.1,0.5l-0.2,0.7H335.5z"/>
						</g>
					</g>
					<g>
						<g>
							<path fill="#FFFFFF" d="M340.7,520.1c-0.1,0.1-0.4,0.1-0.8,0.1c-0.9,0-1.5-0.6-1.5-1.5c0-1,0.7-1.5,1.6-1.5
								c0.3,0,0.6,0.1,0.7,0.1l-0.1,0.4c-0.1-0.1-0.3-0.1-0.6-0.1c-0.6,0-1,0.4-1,1.1c0,0.6,0.4,1,1,1c0.2,0,0.4,0,0.6-0.1
								L340.7,520.1z"/>
						</g>
					</g>
					<g>
						<g>
							<path fill="#FFFFFF" d="M343.6,517.3v2.9H343v-2.9H343.6z"/>
						</g>
					</g>
					<g>
						<g>
							<path fill="#FFFFFF" d="M348.7,518.7c0,1-0.6,1.5-1.4,1.5c-0.8,0-1.3-0.6-1.3-1.5c0-0.9,0.6-1.5,1.4-1.5
								C348.2,517.2,348.7,517.9,348.7,518.7z M346.5,518.7c0,0.6,0.3,1.1,0.8,1.1c0.5,0,0.8-0.5,0.8-1.1c0-0.6-0.3-1.1-0.8-1.1
								C346.8,517.6,346.5,518.1,346.5,518.7z"/>
						</g>
					</g>
					<g>
						<g>
							<path fill="#FFFFFF" d="M351,520.2v-2.9h0.6l0.8,1.2c0.2,0.3,0.4,0.7,0.5,1h0c0-0.4,0-0.8,0-1.2v-1h0.5v2.9h-0.5l-0.8-1.3
								c-0.2-0.3-0.4-0.7-0.5-1l0,0c0,0.4,0,0.8,0,1.2v1H351z"/>
						</g>
					</g>
					<g>
						<g>
							<path fill="#FFFFFF" d="M356.4,519.4l-0.3,0.8h-0.5l0.9-2.9h0.7l0.9,2.9h-0.6l-0.3-0.8H356.4z M357.3,519l-0.2-0.7
								c-0.1-0.2-0.1-0.4-0.1-0.5h0c0,0.2-0.1,0.4-0.1,0.5l-0.2,0.7H357.3z"/>
						</g>
					</g>
					<g>
						<g>
							<path fill="#FFFFFF" d="M360.5,517.3h0.5v2.5h1.2v0.4h-1.7V517.3z"/>
						</g>
					</g>
					<g>
						<g>
							<path fill="#FFFFFF" d="M273.4,522.5c0.2,0,0.5-0.1,0.8-0.1c0.5,0,0.9,0.1,1.2,0.3c0.3,0.2,0.5,0.6,0.5,1.1
								c0,0.5-0.2,0.9-0.5,1.2c-0.3,0.3-0.7,0.4-1.3,0.4c-0.3,0-0.5,0-0.7,0V522.5z M273.9,525c0.1,0,0.2,0,0.3,0
								c0.7,0,1.1-0.4,1.1-1.1c0-0.6-0.4-1-1-1c-0.2,0-0.3,0-0.4,0V525z"/>
						</g>
					</g>
					<g>
						<g>
							<path fill="#FFFFFF" d="M279.9,524.1h-1.1v0.9h1.2v0.4h-1.8v-2.9h1.7v0.4h-1.2v0.8h1.1V524.1z"/>
						</g>
					</g>
					<g>
						<g>
							<path fill="#FFFFFF" d="M290.2,525.3c-0.1,0.1-0.4,0.1-0.8,0.1c-0.9,0-1.5-0.6-1.5-1.5c0-1,0.7-1.5,1.6-1.5
								c0.3,0,0.6,0.1,0.7,0.1l-0.1,0.4c-0.1-0.1-0.3-0.1-0.6-0.1c-0.6,0-1,0.4-1,1.1c0,0.6,0.4,1,1,1c0.2,0,0.4,0,0.6-0.1
								L290.2,525.3z"/>
						</g>
					</g>
					<g>
						<g>
							<path fill="#FFFFFF" d="M293.1,522.5v2.9h-0.5v-2.9H293.1z"/>
						</g>
					</g>
					<g>
						<g>
							<path fill="#FFFFFF" d="M295.7,525.4v-2.9h0.6l0.8,1.2c0.2,0.3,0.4,0.7,0.5,1h0c0-0.4,0-0.8,0-1.2v-1h0.5v2.9h-0.5l-0.8-1.3
								c-0.2-0.3-0.4-0.7-0.5-1l0,0c0,0.4,0,0.8,0,1.2v1H295.7z"/>
						</g>
					</g>
					<g>
						<g>
							<path fill="#FFFFFF" d="M302.2,524.1h-1.1v0.9h1.2v0.4h-1.8v-2.9h1.7v0.4h-1.2v0.8h1.1V524.1z"/>
						</g>
					</g>
					<g>
						<g>
							<path fill="#FFFFFF" d="M310.9,522.5v1.7c0,0.6,0.2,0.8,0.6,0.8c0.4,0,0.6-0.3,0.6-0.8v-1.7h0.5v1.7c0,0.9-0.5,1.3-1.2,1.3
								c-0.7,0-1.1-0.4-1.1-1.3v-1.7H310.9z"/>
						</g>
					</g>
					<g>
						<g>
							<path fill="#FFFFFF" d="M315.2,525.4v-2.9h0.6l0.8,1.2c0.2,0.3,0.4,0.7,0.5,1h0c0-0.4,0-0.8,0-1.2v-1h0.5v2.9H317l-0.8-1.3
								c-0.2-0.3-0.4-0.7-0.5-1l0,0c0,0.4,0,0.8,0,1.2v1H315.2z"/>
						</g>
					</g>
					<g>
						<g>
							<path fill="#FFFFFF" d="M320.6,522.5v2.9h-0.5v-2.9H320.6z"/>
						</g>
					</g>
					<g>
						<g>
							<path fill="#FFFFFF" d="M323.8,525.4l-0.9-2.9h0.6l0.4,1.3c0.1,0.4,0.2,0.7,0.3,1.1h0c0.1-0.3,0.2-0.7,0.3-1.1l0.4-1.3h0.6
								l-1,2.9H323.8z"/>
						</g>
					</g>
					<g>
						<g>
							<path fill="#FFFFFF" d="M329.4,524.1h-1.1v0.9h1.2v0.4h-1.8v-2.9h1.7v0.4h-1.2v0.8h1.1V524.1z"/>
						</g>
					</g>
					<g>
						<g>
							<path fill="#FFFFFF" d="M331.9,522.5c0.2,0,0.5-0.1,0.8-0.1c0.4,0,0.7,0.1,0.9,0.2c0.2,0.1,0.2,0.3,0.2,0.6
								c0,0.4-0.3,0.6-0.5,0.7v0c0.2,0.1,0.3,0.3,0.4,0.6c0.1,0.4,0.2,0.7,0.2,0.8h-0.5c0-0.1-0.1-0.3-0.2-0.7
								c-0.1-0.4-0.2-0.5-0.5-0.5h-0.3v1.2h-0.5V522.5z M332.4,523.8h0.3c0.4,0,0.6-0.2,0.6-0.5c0-0.3-0.2-0.5-0.6-0.5
								c-0.2,0-0.3,0-0.3,0V523.8z"/>
						</g>
					</g>
					<g>
						<g>
							<path fill="#FFFFFF" d="M336.3,524.8c0.2,0.1,0.4,0.2,0.7,0.2c0.3,0,0.5-0.2,0.5-0.4c0-0.2-0.1-0.4-0.5-0.5
								c-0.5-0.2-0.8-0.4-0.8-0.8c0-0.5,0.4-0.8,1-0.8c0.3,0,0.5,0.1,0.7,0.1l-0.1,0.4c-0.1-0.1-0.3-0.1-0.6-0.1
								c-0.3,0-0.5,0.2-0.5,0.3c0,0.2,0.2,0.3,0.6,0.5c0.5,0.2,0.8,0.4,0.8,0.9c0,0.5-0.4,0.9-1.1,0.9c-0.3,0-0.6-0.1-0.8-0.2
								L336.3,524.8z"/>
						</g>
					</g>
					<g>
						<g>
							<path fill="#FFFFFF" d="M341,522.5v2.9h-0.5v-2.9H341z"/>
						</g>
					</g>
					<g>
						<g>
							<path fill="#FFFFFF" d="M344.1,522.9h-0.8v-0.4h2.2v0.4h-0.8v2.5h-0.5V522.9z"/>
						</g>
					</g>
					<g>
						<g>
							<path fill="#FFFFFF" d="M348.1,524.5l-0.2,0.8h-0.6l0.9-2.9h0.7l0.9,2.9h-0.6l-0.3-0.8H348.1z M348.9,524.1l-0.2-0.7
								c-0.1-0.2-0.1-0.4-0.1-0.5h0c0,0.2-0.1,0.4-0.1,0.5l-0.2,0.7H348.9z"/>
						</g>
					</g>
					<g>
						<g>
							<path fill="#FFFFFF" d="M352.2,522.5c0.2,0,0.5-0.1,0.8-0.1c0.4,0,0.7,0.1,0.9,0.2c0.2,0.1,0.3,0.3,0.3,0.6
								c0,0.4-0.3,0.6-0.5,0.7v0c0.2,0.1,0.3,0.3,0.4,0.6c0.1,0.4,0.2,0.7,0.2,0.8h-0.5c0-0.1-0.1-0.3-0.2-0.7
								c-0.1-0.4-0.2-0.5-0.5-0.5h-0.3v1.2h-0.5V522.5z M352.7,523.8h0.3c0.4,0,0.6-0.2,0.6-0.5c0-0.3-0.2-0.5-0.6-0.5
								c-0.2,0-0.3,0-0.3,0V523.8z"/>
						</g>
					</g>
					<g>
						<g>
							<path fill="#FFFFFF" d="M357.1,522.5v2.9h-0.5v-2.9H357.1z"/>
						</g>
					</g>
					<g>
						<g>
							<path fill="#FFFFFF" d="M362.2,523.9c0,1-0.6,1.5-1.4,1.5c-0.8,0-1.3-0.6-1.3-1.5c0-0.9,0.6-1.5,1.4-1.5
								C361.7,522.4,362.2,523,362.2,523.9z M360.1,523.9c0,0.6,0.3,1.1,0.8,1.1c0.5,0,0.8-0.5,0.8-1.1c0-0.5-0.3-1.1-0.8-1.1
								C360.4,522.8,360.1,523.3,360.1,523.9z"/>
						</g>
					</g>
				</g>
			</g>
			<g>
				<path fill="#FFFFFF" d="M223.1,413.3c-13.4,0-23.5-6.3-29.2-18.3c-4.6-9.7-5.3-20.7-5.3-26.4c0-7.7,4.3-19.3,12.7-27.4l-3.2-4.7
					c-11,8.3-18.2,21.6-18.2,36.4c0,25.2,20.4,45.6,45.6,45.6c8.6,0,16.6-2.4,23.5-6.5l-3.3-5C239.8,410.9,232.4,413.3,223.1,413.3z
					"/>
				<path fill="#FFFFFF" d="M223.3,338.2h-0.2c-5.2,0-9.7,1.6-13.6,4.2l37.5,55.6c8.2-8,11.4-19.3,11.4-26.2
					C258.4,368.4,257.5,338.2,223.3,338.2z"/>
				<path fill="#FFFFFF" d="M194.8,368.6c0,5.2,0.6,15.2,4.7,23.8c4.7,9.8,12.6,14.8,23.7,14.8c7.8,0,14.1-2.1,19.1-5.3l-37.4-55.5
					C198.2,353.1,194.8,362.5,194.8,368.6z"/>
				<path fill="#FFFFFF" d="M271.2,372.9c0-25.2-20.4-45.6-45.6-45.6c-8.1,0-15.7,2.1-22.3,5.8l2.8,4.2c4.7-3.2,10.4-5.2,17-5.2h0.2
					c32.6,0,41.3,25.1,41.3,39.8c0,8.3-3.8,22-14,31.4l3.5,5.2C264.5,400.1,271.2,387.3,271.2,372.9z"/>
				<path fill="#FFFFFF" d="M252.6,417.3l5.1-3.5l-3.6-5.4c-1.6,1.3-3.3,2.5-5.1,3.5L252.6,417.3z"/>
				<path fill="#FFFFFF" d="M200.6,329.1l-5.1,3.5l2.6,3.9c1.6-1.2,3.4-2.4,5.2-3.4L200.6,329.1z"/>
			</g>
			<g>
				<g>
					<rect x="279.4" y="336.8" fill="#FFFFFF" width="6.2" height="59.8"/>
				</g>
			</g>
			<g>
				<path fill="#FFFFFF" d="M336.7,327.2c-9.8,0-18.8,3.1-26.2,8.3l0.2,4.2c5.8-3,16.6-7.6,27.4-6.8c10.2,0.8,36.6,8.6,36.6,35.3
					c0,15.3-6.5,25.2-11.9,30.8c-7,7.2-16.5,11.5-26.1,11.9c-0.7,0-1.4,0-2.1,0c-15.9,0-23.1-7-31.2-20.3l5.1-3.1
					c8.5,14,14.8,17.9,28,17.4c20.2-0.7,32.3-19.3,32.3-36.8c0-9.6-4-17.1-11.9-22.6c-6.5-4.4-14.4-6.4-19.2-6.8
					c-13.6-1-28,8.3-28.1,8.4l-4.4,2.9l-0.4-9.8c-8.4,8.3-13.7,19.8-13.7,32.6c0,25.2,20.4,45.6,45.6,45.6
					c25.2,0,45.6-20.4,45.6-45.6S361.9,327.2,336.7,327.2z"/>
				<path fill="#FFFFFF" d="M310.1,322.3l33.7-1.5l-0.3-5.9l-39.6,1.7l0.8,23.7c1.8-1.8,3.7-3.4,5.8-4.8L310.1,322.3z M330.1,311.1"
					/>
			</g>
			<path fill="#FFFFFF" d="M488.3,470.3c-2-7.1-5.2-88.8-6.9-142.7c0.5-2.9,0.7-5.3-1.3-6.5c-0.7-0.5-1.6-0.6-2.4-0.4
				c-2.1,0.2-12.3,0.9-15.8,0.9c-2.4,0-8.7-0.5-11.1-1c-0.5-0.1-1.5-0.4-1.9-0.1c-0.3,0.1-1.6,1.3-1.6,1.3
				c-0.2,0.2-19.4,15.2-25.8,20.1c-7.4,5.7-28.8,23.2-28.8,25.3c0,1.5,5.2,5.3,8.7,7.7c-0.7,11.2-8.4,29.5-22.2,43
				c-8.4,8.2-22.5,18-41.7,17.5c-42.8-1-100.7-0.1-147.2,0.7c-27.6,0.4-53.8,0.9-63.9,0.6c2.3-2.8,6.2-7,10-11.2
				c24.7-27,48.3-54.6,41.7-69.5c-2.6-6-9.6-9-20.7-9c0,0,0,0,0,0c-14.8,0-21.4,11.3-21.6,11.8l5.4,3.1c0-0.1,5.1-8.6,16.3-8.6
				c0,0,0,0,0,0c5.8,0,13.1,0.9,15.1,5.3c5.5,12.4-25.7,46.5-40.6,62.8c-12,13.2-14,15.5-13.6,18.1c0.1,1,0.7,1.9,1.5,2.4
				c1.1,0.7,3.3,1.1,16.2,1.1c10.1,0,26.7-0.2,54.5-0.7c46.4-0.7,104.2-1.7,146.9-0.7c1.7,0,3.4,0,5.1-0.1c1.5,0,53.9-0.3,66.1-0.3
				c3.4,1.6,20.3,9.5,37.2,17.2c28.9,13.2,37.1,16.7,40.2,16.7c1.2,0,1.6-0.5,2.2-1.2C488.9,472.9,489,471.5,488.3,470.3z
				 M400.7,366.6c-0.7-1.2,18.8-16.3,24.6-20.7c5.7-4.4,21.5-15.6,25.6-18.9c2.6,0.3,8.6,0.9,11.1,0.9c1.4,0,3.6-0.1,6-0.2
				c-1.4,1-2.8,2.1-4.2,3.1c-8.4,6.2-17,12.6-24.9,17.9c-16.1,10.8-28.7,18.6-33.1,21.2C405.7,369.8,401.4,367.6,400.7,366.6z
				 M409.3,438.1L409.3,438.1L409.3,438.1L409.3,438.1z M412.3,436.2c-0.1-4.7-0.2-17.2-0.7-29.8c-0.8-19.1-1.8-27.7-2.9-31.7
				c5.3-3,18.3-10.6,33.6-20.9c8-5.3,16.7-11.8,25.1-18.1c2.6-1.9,5.3-3.9,7.9-5.9c0.3,8.4,1.3,38.5,2.5,68.6
				c1.8,43.6,3,61.5,3.9,69.2C469.6,462.7,435.3,447,412.3,436.2z"/>
			<g>
				<g>
					<path fill="#FFFFFF" d="M322.4,310c-4.4,0-7.1-4.8-7.1-9.3c0-3.7,3.7-5.9,7.2-5.9c1.5,0,3,0.4,4.2,1.1c2.6,1.5,3.5,4.9,3.5,7.3
						c0,2.9-2.2,6.1-7,6.7C322.9,310,322.6,310,322.4,310z M322.5,298.3c-1.8,0-3.7,0.9-3.7,2.4c0,2.7,1.6,5.8,3.6,5.8
						c0.1,0,0.2,0,0.3,0c2.4-0.3,4-1.6,4-3.3c0-1.9-0.7-3.7-1.8-4.3C324.2,298.5,323.4,298.3,322.5,298.3z"/>
				</g>
			</g>
		</g>
	</g>
	<g>
		<rect x="565.2" y="491.1" fill="#BD1B38" width="236.5" height="32.6"/>
		<rect x="562.7" y="487.9" fill="#FFFFFF" width="236.3" height="33.2"/>
		<g>
			<text transform="matrix(1 0 0 1 573.3315 512.9414)"><tspan x="0" y="0" fill="#BD1B38" font-family="'SourceSansPro-Light'" font-size="25">28 sep </tspan><tspan x="73.7" y="0" fill="#BD1B38" font-family="'SourceSansPro-Bold'" font-size="25">-</tspan><tspan x="82.6" y="0" fill="#BD1B38" font-family="'SourceSansPro-Light'" font-size="25"> 02 oct 2015</tspan></text>
		</g>
	</g>
	
		<text transform="matrix(1 0 0 1 562.6562 306.2544)" fill="#FFFFFF" font-family="'SourceSansPro-Semibold'" font-size="40" letter-spacing="4">KINOKI</text>
	<text transform="matrix(1 0 0 1 562.6562 361.3271)"><tspan x="0" y="0" fill="#FFFFFF" font-family="'SourceSansPro-Light'" font-size="42" letter-spacing="3">Festival Internacional</tspan><tspan x="0" y="55" fill="#FFFFFF" font-family="'SourceSansPro-Light'" font-size="42" letter-spacing="3">de Cine Universitario</tspan></text>
	
		<text transform="matrix(1 0 0 1 562.6562 461.748)" fill="#FFFFFF" font-family="'SourceSansPro-LightIt'" font-size="30" letter-spacing="2">Decimoprimera Edición</text>
	<text transform="matrix(1 0 0 1 1022.9893 68.7886)"><tspan x="0" y="0" fill="#FFFFFF" font-family="'SourceSansPro-Semibold'" font-size="14.2575">Es </tspan><tspan x="16.7" y="0" fill="#FFFFFF" font-family="'SourceSansPro-Light'" font-size="14.2575">/ En</tspan></text>
	<text transform="matrix(1 0 0 1 1417.9863 128.021)"><tspan x="0" y="0" fill="#FFFFFF" font-family="'SourceSansPro-Semibold'" font-size="15.6979">Es </tspan><tspan x="18.4" y="0" fill="#FFFFFF" font-family="'SourceSansPro-Light'" font-size="15.6979">/ En</tspan></text>
	<g>
		<g>
			<g>
				<g>
					<path fill="#BD1B38" stroke="#010101" stroke-width="5" stroke-miterlimit="10" d="M1364.7,269.9"/>
				</g>
			</g>
			<g>
				<g>
					<g>
						<rect x="1262.1" y="316" fill="#BD1B38" width="4.9" height="29.2"/>
					</g>
				</g>
				<g>
					<g>
						<polygon fill="#BD1B38" points="1272.2,316 1266.9,331.3 1272.1,345.2 1276.8,345.2 1271.6,331.3 1276.8,316 						"/>
					</g>
				</g>
				<g>
					<g>
						<path fill="#BD1B38" d="M1290.6,316v17.3l4.9-17.3h3.1c0,0,0.5,0.1,1.2,0.9c0.4,0.5,0.5,1.2,0.5,1.2v27.2h-4.7v-14.6
							l-4.9,14.6h-5V318c0,0,0.1-0.6,0.8-1.3c0.5-0.5,1.2-0.8,1.2-0.8H1290.6z"/>
					</g>
				</g>
				<g>
					<g>
						<path fill="#BD1B38" d="M1313,338.9c0,0,0.6,0,1.6-0.9c1.1-0.9,1.4-1.8,1.4-1.8v-11.4c0,0-0.4-1.2-1.2-2
							c-0.8-0.8-1.8-1.2-1.8-1.2h-2.2v-1.9h5V316h-7h-7v3.7h5v1.9h-2.2c0,0-1,0.4-1.8,1.2c-0.8,0.8-1.2,2-1.2,2v11.4
							c0,0,0.3,0.9,1.4,1.8c1,0.9,1.6,0.9,1.6,0.9h2v2.1h-4.9v4.2h7.2h7.2V341h-4.9v-2.1H1313z M1308.7,334.9h-2.4v-9.2h2.4h2.4v9.2
							H1308.7z"/>
					</g>
				</g>
				<g>
					<g>
						<rect x="1316.9" y="316" fill="#BD1B38" width="4.9" height="29.2"/>
					</g>
				</g>
				<g>
					<g>
						<polygon fill="#BD1B38" points="1327.1,316 1321.8,331.3 1327,345.2 1331.7,345.2 1326.4,331.3 1331.7,316 						"/>
					</g>
				</g>
				<g>
					<g>
						<polygon fill="#BD1B38" points="1284.7,316 1276.2,316 1277.8,345.2 1283.1,345.2 						"/>
					</g>
				</g>
				<g>
					<g>
						<rect x="1275.8" y="349.2" fill="#BD1B38" width="8.5" height="5.8"/>
					</g>
				</g>
				<g>
					<g>
						<polygon fill="#BD1B38" points="1332.2,345.2 1338.5,345.2 1337.3,323.5 1333.4,323.5 						"/>
					</g>
				</g>
				<g>
					<g>
						<rect x="1332.2" y="316" fill="#BD1B38" width="6.3" height="4.3"/>
					</g>
				</g>
				<g>
					<g>
						<g>
							<path fill="#BD1B38" d="M1285.2,349.6h1v0.3h-0.7v0.5h0.6v0.3h-0.6v0.7h-0.3V349.6z"/>
						</g>
					</g>
					<g>
						<g>
							<path fill="#BD1B38" d="M1288.6,350.6h-0.6v0.5h0.7v0.3h-1v-1.7h1v0.3h-0.7v0.4h0.6V350.6z"/>
						</g>
					</g>
					<g>
						<g>
							<path fill="#BD1B38" d="M1290.1,351c0.1,0.1,0.3,0.1,0.4,0.1c0.2,0,0.3-0.1,0.3-0.2c0-0.1-0.1-0.2-0.3-0.3
								c-0.3-0.1-0.5-0.3-0.5-0.5c0-0.3,0.2-0.5,0.6-0.5c0.2,0,0.3,0,0.4,0.1l-0.1,0.3c-0.1,0-0.2-0.1-0.3-0.1
								c-0.2,0-0.3,0.1-0.3,0.2c0,0.1,0.1,0.2,0.3,0.3c0.3,0.1,0.4,0.3,0.4,0.5c0,0.3-0.2,0.5-0.7,0.5c-0.2,0-0.4-0.1-0.5-0.1
								L1290.1,351z"/>
						</g>
					</g>
					<g>
						<g>
							<path fill="#BD1B38" d="M1292.9,349.9h-0.5v-0.3h1.3v0.3h-0.5v1.5h-0.3V349.9z"/>
						</g>
					</g>
					<g>
						<g>
							<path fill="#BD1B38" d="M1295.3,349.6v1.7h-0.3v-1.7H1295.3z"/>
						</g>
					</g>
					<g>
						<g>
							<path fill="#BD1B38" d="M1297.2,351.4l-0.6-1.7h0.3l0.2,0.8c0.1,0.2,0.1,0.4,0.2,0.6h0c0-0.2,0.1-0.4,0.2-0.6l0.2-0.8h0.3
								l-0.6,1.7H1297.2z"/>
						</g>
					</g>
					<g>
						<g>
							<path fill="#BD1B38" d="M1299.7,350.9l-0.1,0.5h-0.3l0.6-1.7h0.4l0.6,1.7h-0.3l-0.2-0.5H1299.7z M1300.2,350.6l-0.1-0.4
								c0-0.1-0.1-0.2-0.1-0.3h0c0,0.1,0,0.2-0.1,0.3l-0.1,0.4H1300.2z"/>
						</g>
					</g>
					<g>
						<g>
							<path fill="#BD1B38" d="M1302.1,349.6h0.3v1.5h0.7v0.3h-1V349.6z"/>
						</g>
					</g>
					<g>
						<g>
							<path fill="#BD1B38" d="M1306.4,349.6v1.7h-0.3v-1.7H1306.4z"/>
						</g>
					</g>
					<g>
						<g>
							<path fill="#BD1B38" d="M1307.9,351.4v-1.7h0.4l0.4,0.7c0.1,0.2,0.2,0.4,0.3,0.6h0c0-0.2,0-0.5,0-0.7v-0.6h0.3v1.7h-0.3
								l-0.4-0.8c-0.1-0.2-0.2-0.4-0.3-0.6l0,0c0,0.2,0,0.4,0,0.7v0.6H1307.9z"/>
						</g>
					</g>
					<g>
						<g>
							<path fill="#BD1B38" d="M1311.1,349.9h-0.5v-0.3h1.3v0.3h-0.5v1.5h-0.3V349.9z"/>
						</g>
					</g>
					<g>
						<g>
							<path fill="#BD1B38" d="M1314.2,350.6h-0.6v0.5h0.7v0.3h-1v-1.7h1v0.3h-0.7v0.4h0.6V350.6z"/>
						</g>
					</g>
					<g>
						<g>
							<path fill="#BD1B38" d="M1315.7,349.7c0.1,0,0.3,0,0.5,0c0.2,0,0.4,0,0.5,0.1c0.1,0.1,0.1,0.2,0.1,0.3c0,0.2-0.2,0.4-0.3,0.4
								v0c0.1,0,0.2,0.2,0.2,0.3c0.1,0.2,0.1,0.4,0.1,0.5h-0.3c0-0.1-0.1-0.2-0.1-0.4c0-0.2-0.1-0.3-0.3-0.3h-0.2v0.7h-0.3V349.7z
								 M1316,350.4h0.2c0.2,0,0.3-0.1,0.3-0.3c0-0.2-0.1-0.3-0.3-0.3c-0.1,0-0.2,0-0.2,0V350.4z"/>
						</g>
					</g>
					<g>
						<g>
							<path fill="#BD1B38" d="M1318.2,351.4v-1.7h0.4l0.4,0.7c0.1,0.2,0.2,0.4,0.3,0.6h0c0-0.2,0-0.5,0-0.7v-0.6h0.3v1.7h-0.3
								l-0.5-0.8c-0.1-0.2-0.2-0.4-0.3-0.6l0,0c0,0.2,0,0.4,0,0.7v0.6H1318.2z"/>
						</g>
					</g>
					<g>
						<g>
							<path fill="#BD1B38" d="M1321.4,350.9l-0.1,0.5h-0.3l0.6-1.7h0.4l0.6,1.7h-0.3l-0.2-0.5H1321.4z M1321.9,350.6l-0.1-0.4
								c0-0.1-0.1-0.2-0.1-0.3h0c0,0.1-0.1,0.2-0.1,0.3l-0.1,0.4H1321.9z"/>
						</g>
					</g>
					<g>
						<g>
							<path fill="#BD1B38" d="M1325,351.3c-0.1,0-0.2,0.1-0.4,0.1c-0.5,0-0.9-0.3-0.9-0.9c0-0.6,0.4-0.9,0.9-0.9
								c0.2,0,0.4,0,0.4,0.1l-0.1,0.3c-0.1,0-0.2-0.1-0.3-0.1c-0.4,0-0.6,0.2-0.6,0.6c0,0.4,0.2,0.6,0.6,0.6c0.1,0,0.3,0,0.3-0.1
								L1325,351.3z"/>
						</g>
					</g>
					<g>
						<g>
							<path fill="#BD1B38" d="M1326.7,349.6v1.7h-0.3v-1.7H1326.7z"/>
						</g>
					</g>
					<g>
						<g>
							<path fill="#BD1B38" d="M1329.7,350.5c0,0.6-0.4,0.9-0.8,0.9c-0.5,0-0.8-0.4-0.8-0.9c0-0.5,0.3-0.9,0.8-0.9
								C1329.4,349.6,1329.7,350,1329.7,350.5z M1328.5,350.5c0,0.3,0.2,0.6,0.5,0.6c0.3,0,0.5-0.3,0.5-0.6c0-0.3-0.2-0.6-0.5-0.6
								C1328.6,349.9,1328.5,350.2,1328.5,350.5z"/>
						</g>
					</g>
					<g>
						<g>
							<path fill="#BD1B38" d="M1331.1,351.4v-1.7h0.4l0.4,0.7c0.1,0.2,0.2,0.4,0.3,0.6h0c0-0.2,0-0.5,0-0.7v-0.6h0.3v1.7h-0.3
								l-0.5-0.8c-0.1-0.2-0.2-0.4-0.3-0.6l0,0c0,0.2,0,0.4,0,0.7v0.6H1331.1z"/>
						</g>
					</g>
					<g>
						<g>
							<path fill="#BD1B38" d="M1334.3,350.9l-0.1,0.5h-0.3l0.6-1.7h0.4l0.6,1.7h-0.3l-0.2-0.5H1334.3z M1334.8,350.6l-0.1-0.4
								c0-0.1-0.1-0.2-0.1-0.3h0c0,0.1,0,0.2-0.1,0.3l-0.1,0.4H1334.8z"/>
						</g>
					</g>
					<g>
						<g>
							<path fill="#BD1B38" d="M1336.7,349.6h0.3v1.5h0.7v0.3h-1V349.6z"/>
						</g>
					</g>
					<g>
						<g>
							<path fill="#BD1B38" d="M1285.2,352.7c0.1,0,0.3,0,0.5,0c0.3,0,0.5,0.1,0.7,0.2c0.2,0.1,0.3,0.3,0.3,0.6
								c0,0.3-0.1,0.5-0.3,0.7c-0.2,0.2-0.4,0.2-0.8,0.2c-0.2,0-0.3,0-0.4,0V352.7z M1285.5,354.2c0,0,0.1,0,0.2,0
								c0.4,0,0.7-0.2,0.7-0.7c0-0.4-0.2-0.6-0.6-0.6c-0.1,0-0.2,0-0.2,0V354.2z"/>
						</g>
					</g>
					<g>
						<g>
							<path fill="#BD1B38" d="M1289.1,353.7h-0.6v0.5h0.7v0.3h-1v-1.7h1v0.3h-0.7v0.4h0.6V353.7z"/>
						</g>
					</g>
					<g>
						<g>
							<path fill="#BD1B38" d="M1295.2,354.4c-0.1,0-0.2,0.1-0.4,0.1c-0.5,0-0.9-0.3-0.9-0.9c0-0.6,0.4-0.9,0.9-0.9
								c0.2,0,0.4,0,0.4,0.1l-0.1,0.2c-0.1,0-0.2-0.1-0.3-0.1c-0.4,0-0.6,0.2-0.6,0.6c0,0.4,0.2,0.6,0.6,0.6c0.1,0,0.3,0,0.3-0.1
								L1295.2,354.4z"/>
						</g>
					</g>
					<g>
						<g>
							<path fill="#BD1B38" d="M1296.9,352.7v1.7h-0.3v-1.7H1296.9z"/>
						</g>
					</g>
					<g>
						<g>
							<path fill="#BD1B38" d="M1298.4,354.4v-1.7h0.4l0.4,0.7c0.1,0.2,0.2,0.4,0.3,0.6h0c0-0.2,0-0.5,0-0.7v-0.6h0.3v1.7h-0.3
								l-0.4-0.8c-0.1-0.2-0.2-0.4-0.3-0.6l0,0c0,0.2,0,0.5,0,0.7v0.6H1298.4z"/>
						</g>
					</g>
					<g>
						<g>
							<path fill="#BD1B38" d="M1302.3,353.7h-0.6v0.5h0.7v0.3h-1v-1.7h1v0.3h-0.7v0.4h0.6V353.7z"/>
						</g>
					</g>
					<g>
						<g>
							<path fill="#BD1B38" d="M1307.4,352.7v1c0,0.3,0.1,0.5,0.4,0.5c0.2,0,0.4-0.2,0.4-0.5v-1h0.3v1c0,0.5-0.3,0.8-0.7,0.8
								c-0.4,0-0.7-0.2-0.7-0.8v-1H1307.4z"/>
						</g>
					</g>
					<g>
						<g>
							<path fill="#BD1B38" d="M1310,354.4v-1.7h0.4l0.4,0.7c0.1,0.2,0.2,0.4,0.3,0.6h0c0-0.2,0-0.5,0-0.7v-0.6h0.3v1.7h-0.3
								l-0.4-0.8c-0.1-0.2-0.2-0.4-0.3-0.6l0,0c0,0.2,0,0.5,0,0.7v0.6H1310z"/>
						</g>
					</g>
					<g>
						<g>
							<path fill="#BD1B38" d="M1313.2,352.7v1.7h-0.3v-1.7H1313.2z"/>
						</g>
					</g>
					<g>
						<g>
							<path fill="#BD1B38" d="M1315.1,354.4l-0.6-1.7h0.3l0.2,0.8c0.1,0.2,0.1,0.4,0.2,0.6h0c0-0.2,0.1-0.4,0.2-0.6l0.2-0.8h0.3
								l-0.6,1.7H1315.1z"/>
						</g>
					</g>
					<g>
						<g>
							<path fill="#BD1B38" d="M1318.3,353.7h-0.6v0.5h0.7v0.3h-1v-1.7h1v0.3h-0.7v0.4h0.6V353.7z"/>
						</g>
					</g>
					<g>
						<g>
							<path fill="#BD1B38" d="M1319.8,352.7c0.1,0,0.3,0,0.5,0c0.2,0,0.4,0,0.5,0.1c0.1,0.1,0.1,0.2,0.1,0.3c0,0.2-0.2,0.4-0.3,0.4
								v0c0.1,0,0.2,0.2,0.2,0.3c0.1,0.2,0.1,0.4,0.1,0.5h-0.3c0-0.1-0.1-0.2-0.1-0.4c0-0.2-0.1-0.3-0.3-0.3h-0.2v0.7h-0.3V352.7z
								 M1320.1,353.5h0.2c0.2,0,0.3-0.1,0.3-0.3c0-0.2-0.1-0.3-0.3-0.3c-0.1,0-0.2,0-0.2,0V353.5z"/>
						</g>
					</g>
					<g>
						<g>
							<path fill="#BD1B38" d="M1322.4,354.1c0.1,0.1,0.3,0.1,0.4,0.1c0.2,0,0.3-0.1,0.3-0.2c0-0.1-0.1-0.2-0.3-0.3
								c-0.3-0.1-0.5-0.3-0.5-0.5c0-0.3,0.2-0.5,0.6-0.5c0.2,0,0.3,0,0.4,0.1l-0.1,0.3c-0.1,0-0.2-0.1-0.3-0.1
								c-0.2,0-0.3,0.1-0.3,0.2c0,0.1,0.1,0.2,0.3,0.3c0.3,0.1,0.4,0.3,0.4,0.5c0,0.3-0.2,0.5-0.7,0.5c-0.2,0-0.4,0-0.5-0.1
								L1322.4,354.1z"/>
						</g>
					</g>
					<g>
						<g>
							<path fill="#BD1B38" d="M1325.2,352.7v1.7h-0.3v-1.7H1325.2z"/>
						</g>
					</g>
					<g>
						<g>
							<path fill="#BD1B38" d="M1327.1,353h-0.5v-0.3h1.3v0.3h-0.5v1.5h-0.3V353z"/>
						</g>
					</g>
					<g>
						<g>
							<path fill="#BD1B38" d="M1329.4,353.9l-0.1,0.5h-0.3l0.6-1.7h0.4l0.6,1.7h-0.3l-0.2-0.5H1329.4z M1329.9,353.7l-0.1-0.4
								c0-0.1-0.1-0.2-0.1-0.3h0c0,0.1-0.1,0.2-0.1,0.3l-0.1,0.4H1329.9z"/>
						</g>
					</g>
					<g>
						<g>
							<path fill="#BD1B38" d="M1331.8,352.7c0.1,0,0.3,0,0.5,0c0.2,0,0.4,0,0.5,0.1c0.1,0.1,0.1,0.2,0.1,0.3c0,0.2-0.2,0.4-0.3,0.4
								v0c0.1,0,0.2,0.2,0.2,0.3c0.1,0.2,0.1,0.4,0.1,0.5h-0.3c0-0.1-0.1-0.2-0.1-0.4c0-0.2-0.1-0.3-0.3-0.3h-0.2v0.7h-0.3V352.7z
								 M1332.1,353.5h0.2c0.2,0,0.3-0.1,0.3-0.3c0-0.2-0.1-0.3-0.3-0.3c-0.1,0-0.2,0-0.2,0V353.5z"/>
						</g>
					</g>
					<g>
						<g>
							<path fill="#BD1B38" d="M1334.7,352.7v1.7h-0.3v-1.7H1334.7z"/>
						</g>
					</g>
					<g>
						<g>
							<path fill="#BD1B38" d="M1337.8,353.6c0,0.6-0.3,0.9-0.8,0.9c-0.5,0-0.8-0.4-0.8-0.9c0-0.5,0.3-0.9,0.8-0.9
								C1337.5,352.7,1337.8,353.1,1337.8,353.6z M1336.5,353.6c0,0.3,0.2,0.6,0.5,0.6c0.3,0,0.5-0.3,0.5-0.6c0-0.3-0.2-0.6-0.5-0.6
								C1336.6,352.9,1336.5,353.2,1336.5,353.6z"/>
						</g>
					</g>
				</g>
			</g>
			<g>
				<path fill="#BD1B38" d="M1256.2,288.9c-7.9,0-13.9-3.7-17.3-10.8c-2.7-5.7-3.1-12.2-3.1-15.6c0-4.5,2.6-11.4,7.5-16.2l-1.9-2.8
					c-6.5,4.9-10.7,12.7-10.7,21.5c0,14.9,12.1,27,27,27c5.1,0,9.8-1.4,13.9-3.8l-2-2.9C1266,287.4,1261.7,288.9,1256.2,288.9z"/>
				<path fill="#BD1B38" d="M1256.3,244.5h-0.1c-3.1,0-5.8,1-8,2.5l22.2,32.9c4.9-4.7,6.7-11.4,6.7-15.5
					C1277,262.3,1276.5,244.5,1256.3,244.5z"/>
				<path fill="#BD1B38" d="M1239.4,262.4c0,3.1,0.4,9,2.8,14.1c2.8,5.8,7.5,8.7,14,8.7c4.6,0,8.3-1.2,11.3-3.1l-22.1-32.8
					C1241.5,253.3,1239.4,258.8,1239.4,262.4z"/>
				<path fill="#BD1B38" d="M1284.6,264.9c0-14.9-12.1-27-27-27c-4.8,0-9.3,1.3-13.2,3.4l1.7,2.5c2.8-1.9,6.2-3.1,10.1-3.1h0.1
					c19.3,0,24.4,14.8,24.4,23.6c0,4.9-2.3,13-8.3,18.6l2.1,3.1C1280.6,281,1284.6,273.5,1284.6,264.9z"/>
				<path fill="#BD1B38" d="M1273.6,291.2l3-2l-2.1-3.2c-1,0.8-2,1.5-3,2.1L1273.6,291.2z"/>
				<path fill="#BD1B38" d="M1242.9,239.1l-3,2l1.5,2.3c1-0.7,2-1.4,3.1-2L1242.9,239.1z"/>
			</g>
			<g>
				<g>
					<rect x="1289.4" y="243.6" fill="#BD1B38" width="3.7" height="35.4"/>
				</g>
			</g>
			<g>
				<path fill="#BD1B38" d="M1323.3,238c-5.8,0-11.1,1.8-15.5,4.9l0.1,2.5c3.5-1.8,9.8-4.5,16.2-4c6,0.5,21.6,5.1,21.6,20.8
					c0,9.1-3.8,14.9-7.1,18.2c-4.1,4.3-9.8,6.8-15.4,7c-0.4,0-0.8,0-1.2,0c-9.4,0-13.6-4.1-18.5-12l3-1.8c5,8.3,8.7,10.6,16.6,10.3
					c11.9-0.4,19.1-11.4,19.1-21.7c0-5.6-2.4-10.1-7-13.3c-3.8-2.6-8.5-3.8-11.3-4c-8-0.6-16.5,4.9-16.6,5l-2.6,1.7l-0.2-5.8
					c-5,4.9-8.1,11.7-8.1,19.2c0,14.9,12.1,27,27,27c14.9,0,27-12.1,27-27C1350.3,250.1,1338.2,238,1323.3,238z"/>
				<path fill="#BD1B38" d="M1307.6,235.1l19.9-0.9l-0.2-3.5l-23.4,1l0.5,14c1.1-1,2.2-2,3.4-2.8L1307.6,235.1z M1319.4,228.4"/>
			</g>
			<path fill="#BD1B38" d="M1412.9,322.5c-1.2-4.2-3.1-52.5-4.1-84.3c0.3-1.7,0.4-3.1-0.8-3.9c-0.4-0.3-1-0.4-1.4-0.2
				c-1.2,0.1-7.3,0.6-9.3,0.6c-1.4,0-5.1-0.3-6.5-0.6c-0.3,0-0.9-0.2-1.1-0.1c-0.2,0.1-0.9,0.8-0.9,0.8c-0.1,0.1-11.5,9-15.3,11.9
				c-4.4,3.3-17,13.7-17,15c0,0.9,3.1,3.1,5.2,4.5c-0.4,6.6-5,17.4-13.1,25.4c-5,4.9-13.3,10.6-24.7,10.4c-25.3-0.6-59.5,0-87,0.4
				c-16.3,0.3-31.8,0.5-37.7,0.3c1.4-1.7,3.7-4.2,5.9-6.6c14.6-16,28.5-32.3,24.7-41.1c-1.6-3.5-5.7-5.3-12.3-5.3c0,0,0,0,0,0
				c-8.7,0-12.6,6.7-12.8,7l3.2,1.8c0-0.1,3-5.1,9.6-5.1c0,0,0,0,0,0c3.4,0,7.8,0.5,8.9,3.2c3.2,7.4-15.2,27.5-24,37.1
				c-7.1,7.8-8.2,9.1-8.1,10.7c0.1,0.6,0.4,1.1,0.9,1.4c0.6,0.4,1.9,0.6,9.6,0.6c6,0,15.8-0.1,32.2-0.4c27.4-0.4,61.6-1,86.8-0.4
				c1,0,2,0,3-0.1c0.9,0,31.8-0.2,39.1-0.2c2,0.9,12,5.6,22,10.2c17.1,7.8,21.9,9.9,23.8,9.9c0.7,0,1-0.3,1.3-0.7
				C1413.3,324.1,1413.3,323.2,1412.9,322.5z M1361.1,261.2c-0.4-0.7,11.1-9.6,14.5-12.2c3.4-2.6,12.7-9.2,15.1-11.2
				c1.6,0.2,5.1,0.5,6.5,0.5c0.8,0,2.1-0.1,3.5-0.1c-0.8,0.6-1.7,1.2-2.5,1.8c-4.9,3.7-10,7.5-14.7,10.6c-9.5,6.4-16.9,11-19.6,12.5
				C1364.1,263.1,1361.5,261.8,1361.1,261.2z M1366.2,303.5L1366.2,303.5L1366.2,303.5L1366.2,303.5z M1368,302.3
				c0-2.8-0.1-10.2-0.4-17.6c-0.5-11.3-1-16.4-1.7-18.8c3.1-1.8,10.8-6.3,19.8-12.3c4.7-3.2,9.9-7,14.8-10.7
				c1.5-1.1,3.1-2.3,4.7-3.5c0.2,5,0.7,22.7,1.5,40.5c1.1,25.8,1.8,36.4,2.3,40.9C1401.8,318.1,1381.6,308.7,1368,302.3z"/>
			<g>
				<g>
					<path fill="#BD1B38" d="M1314.8,227.8c-2.6,0-4.2-2.8-4.2-5.5c0-2.2,2.2-3.5,4.3-3.5c0.9,0,1.8,0.2,2.5,0.7
						c1.5,0.9,2.1,2.9,2.1,4.3c0,1.7-1.3,3.6-4.1,4C1315.1,227.8,1315,227.8,1314.8,227.8z M1314.9,220.9c-1.1,0-2.2,0.6-2.2,1.4
						c0,1.6,0.9,3.4,2.1,3.4c0.1,0,0.1,0,0.2,0c1.4-0.2,2.3-0.9,2.3-1.9c0-1.1-0.4-2.2-1-2.6C1315.9,221,1315.4,220.9,1314.9,220.9z
						"/>
				</g>
			</g>
		</g>
		<g>
			<g>
				<g>
					<path fill="#FFFFFF" stroke="#010101" stroke-width="5" stroke-miterlimit="10" d="M1364.1,268.3"/>
				</g>
			</g>
			<g>
				<g>
					<g>
						<rect x="1261.5" y="314.4" fill="#FFFFFF" width="4.9" height="29.2"/>
					</g>
				</g>
				<g>
					<g>
						<polygon fill="#FFFFFF" points="1271.6,314.4 1266.3,329.7 1271.6,343.7 1276.2,343.7 1271,329.7 1276.3,314.4 						"/>
					</g>
				</g>
				<g>
					<g>
						<path fill="#FFFFFF" d="M1290,314.4v17.3l4.9-17.3h3.1c0,0,0.5,0.1,1.2,0.9c0.4,0.5,0.5,1.2,0.5,1.2v27.2h-4.7V329l-4.9,14.6
							h-5v-27.2c0,0,0.1-0.6,0.8-1.3c0.5-0.5,1.2-0.8,1.2-0.8H1290z"/>
					</g>
				</g>
				<g>
					<g>
						<path fill="#FFFFFF" d="M1312.4,337.3c0,0,0.6,0,1.6-0.9c1.1-0.9,1.4-1.8,1.4-1.8v-11.4c0,0-0.4-1.2-1.2-2
							c-0.8-0.8-1.8-1.2-1.8-1.2h-2.2v-1.9h5v-3.7h-7h-7v3.7h5v1.9h-2.2c0,0-1,0.4-1.8,1.2c-0.8,0.8-1.2,2-1.2,2v11.4
							c0,0,0.3,0.9,1.4,1.8c1,0.9,1.6,0.9,1.6,0.9h2v2.1h-4.9v4.2h7.2h7.2v-4.2h-4.9v-2.1H1312.4z M1308.1,333.3h-2.4v-9.2h2.4h2.4
							v9.2H1308.1z"/>
					</g>
				</g>
				<g>
					<g>
						<rect x="1316.3" y="314.4" fill="#FFFFFF" width="4.9" height="29.2"/>
					</g>
				</g>
				<g>
					<g>
						<polygon fill="#FFFFFF" points="1326.5,314.4 1321.2,329.7 1326.4,343.7 1331.1,343.7 1325.8,329.7 1331.1,314.4 						"/>
					</g>
				</g>
				<g>
					<g>
						<polygon fill="#FFFFFF" points="1284.1,314.4 1275.6,314.4 1277.2,343.7 1282.5,343.7 						"/>
					</g>
				</g>
				<g>
					<g>
						<rect x="1275.6" y="348.1" fill="#FFFFFF" width="8.5" height="5.8"/>
					</g>
				</g>
				<g>
					<g>
						<polygon fill="#FFFFFF" points="1331.6,343.6 1337.9,343.6 1336.7,322 1332.8,322 						"/>
					</g>
				</g>
				<g>
					<g>
						<rect x="1331.6" y="314.4" fill="#FFFFFF" width="6.3" height="4.3"/>
					</g>
				</g>
				<g>
					<g>
						<g>
							<path fill="#FFFFFF" d="M1285.3,348.7h1v0.3h-0.7v0.5h0.6v0.3h-0.6v0.7h-0.3V348.7z"/>
						</g>
					</g>
					<g>
						<g>
							<path fill="#FFFFFF" d="M1288.7,349.7h-0.6v0.5h0.7v0.3h-1v-1.7h1v0.3h-0.7v0.4h0.6V349.7z"/>
						</g>
					</g>
					<g>
						<g>
							<path fill="#FFFFFF" d="M1290.1,350.1c0.1,0.1,0.3,0.1,0.4,0.1c0.2,0,0.3-0.1,0.3-0.2c0-0.1-0.1-0.2-0.3-0.3
								c-0.3-0.1-0.5-0.3-0.5-0.5c0-0.3,0.2-0.5,0.6-0.5c0.2,0,0.3,0,0.4,0.1l-0.1,0.3c-0.1,0-0.2-0.1-0.3-0.1
								c-0.2,0-0.3,0.1-0.3,0.2c0,0.1,0.1,0.2,0.3,0.3c0.3,0.1,0.4,0.3,0.4,0.5c0,0.3-0.2,0.5-0.7,0.5c-0.2,0-0.4-0.1-0.5-0.1
								L1290.1,350.1z"/>
						</g>
					</g>
					<g>
						<g>
							<path fill="#FFFFFF" d="M1292.9,349h-0.5v-0.3h1.3v0.3h-0.5v1.5h-0.3V349z"/>
						</g>
					</g>
					<g>
						<g>
							<path fill="#FFFFFF" d="M1295.4,348.7v1.7h-0.3v-1.7H1295.4z"/>
						</g>
					</g>
					<g>
						<g>
							<path fill="#FFFFFF" d="M1297.2,350.4l-0.6-1.7h0.3l0.2,0.8c0.1,0.2,0.1,0.4,0.2,0.6h0c0-0.2,0.1-0.4,0.2-0.6l0.2-0.8h0.3
								l-0.6,1.7H1297.2z"/>
						</g>
					</g>
					<g>
						<g>
							<path fill="#FFFFFF" d="M1299.7,350l-0.1,0.5h-0.3l0.6-1.7h0.4l0.6,1.7h-0.3l-0.2-0.5H1299.7z M1300.2,349.7l-0.1-0.4
								c0-0.1-0.1-0.2-0.1-0.3h0c0,0.1-0.1,0.2-0.1,0.3l-0.1,0.4H1300.2z"/>
						</g>
					</g>
					<g>
						<g>
							<path fill="#FFFFFF" d="M1302.1,348.7h0.3v1.5h0.7v0.3h-1V348.7z"/>
						</g>
					</g>
					<g>
						<g>
							<path fill="#FFFFFF" d="M1306.5,348.7v1.7h-0.3v-1.7H1306.5z"/>
						</g>
					</g>
					<g>
						<g>
							<path fill="#FFFFFF" d="M1308,350.4v-1.7h0.4l0.4,0.7c0.1,0.2,0.2,0.4,0.3,0.6h0c0-0.2,0-0.5,0-0.7v-0.6h0.3v1.7h-0.3
								l-0.4-0.8c-0.1-0.2-0.2-0.4-0.3-0.6l0,0c0,0.2,0,0.5,0,0.7v0.6H1308z"/>
						</g>
					</g>
					<g>
						<g>
							<path fill="#FFFFFF" d="M1311.1,349h-0.5v-0.3h1.3v0.3h-0.5v1.5h-0.3V349z"/>
						</g>
					</g>
					<g>
						<g>
							<path fill="#FFFFFF" d="M1314.2,349.7h-0.6v0.5h0.7v0.3h-1v-1.7h1v0.3h-0.7v0.4h0.6V349.7z"/>
						</g>
					</g>
					<g>
						<g>
							<path fill="#FFFFFF" d="M1315.7,348.7c0.1,0,0.3,0,0.5,0c0.2,0,0.4,0,0.5,0.1c0.1,0.1,0.1,0.2,0.1,0.3c0,0.2-0.2,0.4-0.3,0.4
								v0c0.1,0,0.2,0.2,0.2,0.3c0.1,0.2,0.1,0.4,0.1,0.5h-0.3c0,0-0.1-0.2-0.1-0.4c0-0.2-0.1-0.3-0.3-0.3h-0.2v0.7h-0.3V348.7z
								 M1316,349.5h0.2c0.2,0,0.3-0.1,0.3-0.3c0-0.2-0.1-0.3-0.3-0.3c-0.1,0-0.2,0-0.2,0V349.5z"/>
						</g>
					</g>
					<g>
						<g>
							<path fill="#FFFFFF" d="M1318.3,350.4v-1.7h0.4l0.4,0.7c0.1,0.2,0.2,0.4,0.3,0.6h0c0-0.2,0-0.5,0-0.7v-0.6h0.3v1.7h-0.3
								l-0.5-0.8c-0.1-0.2-0.2-0.4-0.3-0.6l0,0c0,0.2,0,0.5,0,0.7v0.6H1318.3z"/>
						</g>
					</g>
					<g>
						<g>
							<path fill="#FFFFFF" d="M1321.5,350l-0.1,0.5h-0.3l0.5-1.7h0.4l0.6,1.7h-0.3l-0.2-0.5H1321.5z M1322,349.7l-0.1-0.4
								c0-0.1-0.1-0.2-0.1-0.3h0c0,0.1-0.1,0.2-0.1,0.3l-0.1,0.4H1322z"/>
						</g>
					</g>
					<g>
						<g>
							<path fill="#FFFFFF" d="M1325.1,350.4c-0.1,0-0.2,0.1-0.4,0.1c-0.5,0-0.9-0.3-0.9-0.9c0-0.6,0.4-0.9,0.9-0.9
								c0.2,0,0.4,0,0.4,0.1l-0.1,0.2c-0.1,0-0.2-0.1-0.3-0.1c-0.4,0-0.6,0.2-0.6,0.6c0,0.4,0.2,0.6,0.6,0.6c0.1,0,0.3,0,0.3-0.1
								L1325.1,350.4z"/>
						</g>
					</g>
					<g>
						<g>
							<path fill="#FFFFFF" d="M1326.8,348.7v1.7h-0.3v-1.7H1326.8z"/>
						</g>
					</g>
					<g>
						<g>
							<path fill="#FFFFFF" d="M1329.8,349.6c0,0.6-0.3,0.9-0.8,0.9c-0.5,0-0.8-0.4-0.8-0.9c0-0.5,0.3-0.9,0.8-0.9
								C1329.5,348.7,1329.8,349.1,1329.8,349.6z M1328.5,349.6c0,0.3,0.2,0.6,0.5,0.6c0.3,0,0.5-0.3,0.5-0.6c0-0.3-0.2-0.6-0.5-0.6
								C1328.7,348.9,1328.5,349.2,1328.5,349.6z"/>
						</g>
					</g>
					<g>
						<g>
							<path fill="#FFFFFF" d="M1331.2,350.4v-1.7h0.4l0.4,0.7c0.1,0.2,0.2,0.4,0.3,0.6h0c0-0.2,0-0.5,0-0.7v-0.6h0.3v1.7h-0.3
								l-0.4-0.8c-0.1-0.2-0.2-0.4-0.3-0.6l0,0c0,0.2,0,0.5,0,0.7v0.6H1331.2z"/>
						</g>
					</g>
					<g>
						<g>
							<path fill="#FFFFFF" d="M1334.4,350l-0.1,0.5h-0.3l0.6-1.7h0.4l0.6,1.7h-0.3l-0.2-0.5H1334.4z M1334.9,349.7l-0.1-0.4
								c0-0.1-0.1-0.2-0.1-0.3h0c0,0.1,0,0.2-0.1,0.3l-0.1,0.4H1334.9z"/>
						</g>
					</g>
					<g>
						<g>
							<path fill="#FFFFFF" d="M1336.8,348.7h0.3v1.5h0.7v0.3h-1V348.7z"/>
						</g>
					</g>
					<g>
						<g>
							<path fill="#FFFFFF" d="M1285.3,351.8c0.1,0,0.3,0,0.5,0c0.3,0,0.5,0.1,0.7,0.2c0.2,0.1,0.3,0.3,0.3,0.6
								c0,0.3-0.1,0.5-0.3,0.7c-0.2,0.2-0.4,0.2-0.8,0.2c-0.2,0-0.3,0-0.4,0V351.8z M1285.6,353.3c0,0,0.1,0,0.2,0
								c0.4,0,0.7-0.2,0.7-0.7c0-0.4-0.2-0.6-0.6-0.6c-0.1,0-0.2,0-0.2,0V353.3z"/>
						</g>
					</g>
					<g>
						<g>
							<path fill="#FFFFFF" d="M1289.1,352.7h-0.6v0.5h0.7v0.3h-1v-1.7h1v0.3h-0.7v0.4h0.6V352.7z"/>
						</g>
					</g>
					<g>
						<g>
							<path fill="#FFFFFF" d="M1295.2,353.4c-0.1,0-0.2,0.1-0.4,0.1c-0.5,0-0.9-0.3-0.9-0.9c0-0.6,0.4-0.9,0.9-0.9
								c0.2,0,0.4,0,0.4,0.1l-0.1,0.2c-0.1,0-0.2-0.1-0.3-0.1c-0.3,0-0.6,0.2-0.6,0.6c0,0.4,0.2,0.6,0.6,0.6c0.1,0,0.3,0,0.3-0.1
								L1295.2,353.4z"/>
						</g>
					</g>
					<g>
						<g>
							<path fill="#FFFFFF" d="M1297,351.8v1.7h-0.3v-1.7H1297z"/>
						</g>
					</g>
					<g>
						<g>
							<path fill="#FFFFFF" d="M1298.5,353.5v-1.7h0.4l0.4,0.7c0.1,0.2,0.2,0.4,0.3,0.6h0c0-0.2,0-0.5,0-0.7v-0.6h0.3v1.7h-0.3
								l-0.4-0.8c-0.1-0.2-0.2-0.4-0.3-0.6l0,0c0,0.2,0,0.5,0,0.7v0.6H1298.5z"/>
						</g>
					</g>
					<g>
						<g>
							<path fill="#FFFFFF" d="M1302.3,352.7h-0.6v0.5h0.7v0.3h-1v-1.7h1v0.3h-0.7v0.4h0.6V352.7z"/>
						</g>
					</g>
					<g>
						<g>
							<path fill="#FFFFFF" d="M1307.5,351.8v1c0,0.3,0.1,0.5,0.4,0.5c0.2,0,0.4-0.2,0.4-0.5v-1h0.3v1c0,0.5-0.3,0.8-0.7,0.8
								c-0.4,0-0.7-0.2-0.7-0.8v-1H1307.5z"/>
						</g>
					</g>
					<g>
						<g>
							<path fill="#FFFFFF" d="M1310,353.5v-1.7h0.4l0.4,0.7c0.1,0.2,0.2,0.4,0.3,0.6h0c0-0.2,0-0.5,0-0.7v-0.6h0.3v1.7h-0.3
								l-0.5-0.8c-0.1-0.2-0.2-0.4-0.3-0.6l0,0c0,0.2,0,0.5,0,0.7v0.6H1310z"/>
						</g>
					</g>
					<g>
						<g>
							<path fill="#FFFFFF" d="M1313.2,351.8v1.7h-0.3v-1.7H1313.2z"/>
						</g>
					</g>
					<g>
						<g>
							<path fill="#FFFFFF" d="M1315.1,353.5l-0.6-1.7h0.3l0.2,0.8c0.1,0.2,0.1,0.4,0.2,0.6h0c0-0.2,0.1-0.4,0.2-0.6l0.3-0.8h0.3
								l-0.6,1.7H1315.1z"/>
						</g>
					</g>
					<g>
						<g>
							<path fill="#FFFFFF" d="M1318.4,352.7h-0.6v0.5h0.7v0.3h-1v-1.7h1v0.3h-0.7v0.4h0.6V352.7z"/>
						</g>
					</g>
					<g>
						<g>
							<path fill="#FFFFFF" d="M1319.9,351.8c0.1,0,0.3,0,0.5,0c0.2,0,0.4,0,0.5,0.1c0.1,0.1,0.1,0.2,0.1,0.3c0,0.2-0.2,0.4-0.3,0.4
								v0c0.1,0,0.2,0.2,0.2,0.3c0.1,0.2,0.1,0.4,0.1,0.5h-0.3c0-0.1-0.1-0.2-0.1-0.4c0-0.2-0.1-0.3-0.3-0.3h-0.2v0.7h-0.3V351.8z
								 M1320.2,352.6h0.2c0.2,0,0.3-0.1,0.3-0.3c0-0.2-0.1-0.3-0.3-0.3c-0.1,0-0.2,0-0.2,0V352.6z"/>
						</g>
					</g>
					<g>
						<g>
							<path fill="#FFFFFF" d="M1322.5,353.2c0.1,0.1,0.3,0.1,0.4,0.1c0.2,0,0.3-0.1,0.3-0.2c0-0.1-0.1-0.2-0.3-0.3
								c-0.3-0.1-0.5-0.3-0.5-0.5c0-0.3,0.2-0.5,0.6-0.5c0.2,0,0.3,0,0.4,0.1l-0.1,0.3c-0.1,0-0.2-0.1-0.3-0.1
								c-0.2,0-0.3,0.1-0.3,0.2c0,0.1,0.1,0.2,0.3,0.3c0.3,0.1,0.4,0.3,0.4,0.5c0,0.3-0.2,0.5-0.7,0.5c-0.2,0-0.4-0.1-0.5-0.1
								L1322.5,353.2z"/>
						</g>
					</g>
					<g>
						<g>
							<path fill="#FFFFFF" d="M1325.3,351.8v1.7h-0.3v-1.7H1325.3z"/>
						</g>
					</g>
					<g>
						<g>
							<path fill="#FFFFFF" d="M1327.1,352h-0.5v-0.3h1.3v0.3h-0.5v1.5h-0.3V352z"/>
						</g>
					</g>
					<g>
						<g>
							<path fill="#FFFFFF" d="M1329.4,353l-0.1,0.5h-0.3l0.6-1.7h0.4l0.6,1.7h-0.3l-0.2-0.5H1329.4z M1329.9,352.8l-0.1-0.4
								c0-0.1-0.1-0.2-0.1-0.3h0c0,0.1-0.1,0.2-0.1,0.3l-0.1,0.4H1329.9z"/>
						</g>
					</g>
					<g>
						<g>
							<path fill="#FFFFFF" d="M1331.8,351.8c0.1,0,0.3,0,0.5,0c0.2,0,0.4,0,0.5,0.1c0.1,0.1,0.1,0.2,0.1,0.3c0,0.2-0.2,0.4-0.3,0.4
								v0c0.1,0,0.2,0.2,0.2,0.3c0.1,0.2,0.1,0.4,0.1,0.5h-0.3c0-0.1-0.1-0.2-0.1-0.4c0-0.2-0.1-0.3-0.3-0.3h-0.2v0.7h-0.3V351.8z
								 M1332.2,352.6h0.2c0.2,0,0.3-0.1,0.3-0.3c0-0.2-0.1-0.3-0.3-0.3c-0.1,0-0.2,0-0.2,0V352.6z"/>
						</g>
					</g>
					<g>
						<g>
							<path fill="#FFFFFF" d="M1334.8,351.8v1.7h-0.3v-1.7H1334.8z"/>
						</g>
					</g>
					<g>
						<g>
							<path fill="#FFFFFF" d="M1337.8,352.6c0,0.6-0.4,0.9-0.8,0.9c-0.5,0-0.8-0.4-0.8-0.9c0-0.5,0.3-0.9,0.8-0.9
								C1337.5,351.8,1337.8,352.1,1337.8,352.6z M1336.5,352.6c0,0.3,0.2,0.6,0.5,0.6c0.3,0,0.5-0.3,0.5-0.6c0-0.3-0.2-0.6-0.5-0.6
								C1336.7,352,1336.5,352.3,1336.5,352.6z"/>
						</g>
					</g>
				</g>
			</g>
			<g>
				<path fill="#FFFFFF" d="M1255.6,287.3c-7.9,0-13.9-3.7-17.3-10.8c-2.7-5.7-3.1-12.2-3.1-15.6c0-4.5,2.5-11.4,7.5-16.2l-1.9-2.8
					c-6.5,4.9-10.7,12.7-10.7,21.5c0,14.9,12.1,27,27,27c5.1,0,9.8-1.4,13.9-3.8l-2-2.9C1265.5,285.8,1261.1,287.3,1255.6,287.3z"/>
				<path fill="#FFFFFF" d="M1255.7,242.9h-0.1c-3.1,0-5.8,1-8,2.5l22.2,32.9c4.9-4.7,6.7-11.4,6.7-15.5
					C1276.5,260.8,1275.9,242.9,1255.7,242.9z"/>
				<path fill="#FFFFFF" d="M1238.8,260.9c0,3.1,0.4,9,2.8,14.1c2.8,5.8,7.5,8.7,14,8.7c4.6,0,8.3-1.2,11.3-3.1l-22.1-32.8
					C1240.9,251.7,1238.8,257.3,1238.8,260.9z"/>
				<path fill="#FFFFFF" d="M1284,263.4c0-14.9-12.1-27-27-27c-4.8,0-9.3,1.3-13.2,3.4l1.7,2.5c2.8-1.9,6.2-3.1,10.1-3.1h0.1
					c19.3,0,24.4,14.8,24.4,23.5c0,4.9-2.3,13-8.3,18.6l2.1,3.1C1280,279.5,1284,271.9,1284,263.4z"/>
				<path fill="#FFFFFF" d="M1273,289.6l3-2l-2.1-3.2c-1,0.8-2,1.5-3,2.1L1273,289.6z"/>
				<path fill="#FFFFFF" d="M1242.3,237.5l-3,2l1.5,2.3c1-0.7,2-1.4,3.1-2L1242.3,237.5z"/>
			</g>
			<g>
				<g>
					<rect x="1288.8" y="242.1" fill="#FFFFFF" width="3.7" height="35.4"/>
				</g>
			</g>
			<g>
				<path fill="#FFFFFF" d="M1322.7,236.4c-5.8,0-11.1,1.8-15.5,4.9l0.1,2.5c3.5-1.8,9.8-4.5,16.2-4c6,0.5,21.6,5.1,21.6,20.9
					c0,9.1-3.8,14.9-7,18.2c-4.1,4.3-9.8,6.8-15.4,7c-0.4,0-0.8,0-1.2,0c-9.4,0-13.6-4.1-18.5-12l3-1.8c5,8.3,8.7,10.6,16.6,10.3
					c11.9-0.4,19.1-11.4,19.1-21.7c0-5.6-2.4-10.1-7-13.3c-3.8-2.6-8.5-3.8-11.3-4c-8-0.6-16.5,4.9-16.6,5l-2.6,1.7l-0.2-5.8
					c-5,4.9-8.1,11.7-8.1,19.2c0,14.9,12.1,27,27,27c14.9,0,27-12.1,27-27C1349.7,248.5,1337.6,236.4,1322.7,236.4z"/>
				<path fill="#FFFFFF" d="M1307,233.5l19.9-0.9l-0.2-3.5l-23.4,1l0.5,14c1.1-1,2.2-2,3.4-2.8L1307,233.5z M1318.8,226.9"/>
			</g>
			<path fill="#FFFFFF" d="M1412.3,321c-1.2-4.2-3.1-52.5-4.1-84.3c0.3-1.7,0.4-3.1-0.8-3.9c-0.4-0.3-1-0.4-1.4-0.2
				c-1.2,0.1-7.3,0.6-9.3,0.6c-1.4,0-5.1-0.3-6.5-0.6c-0.3,0-0.9-0.2-1.1-0.1c-0.2,0.1-0.9,0.8-0.9,0.8c-0.1,0.1-11.5,9-15.3,11.9
				c-4.4,3.3-17,13.7-17,15c0,0.9,3.1,3.1,5.2,4.5c-0.4,6.6-5,17.4-13.1,25.4c-5,4.9-13.3,10.6-24.7,10.4c-25.3-0.6-59.5,0-87,0.4
				c-16.3,0.3-31.8,0.5-37.7,0.3c1.4-1.7,3.7-4.2,5.9-6.6c14.6-16,28.5-32.3,24.7-41.1c-1.6-3.5-5.7-5.3-12.3-5.3c0,0,0,0,0,0
				c-8.7,0-12.6,6.7-12.8,7l3.2,1.8c0-0.1,3-5.1,9.6-5.1c0,0,0,0,0,0c3.4,0,7.8,0.5,8.9,3.2c3.2,7.4-15.2,27.5-24,37.1
				c-7.1,7.8-8.2,9.1-8.1,10.7c0.1,0.6,0.4,1.1,0.9,1.4c0.6,0.4,1.9,0.6,9.6,0.6c6,0,15.8-0.1,32.2-0.4c27.4-0.4,61.6-1,86.8-0.4
				c1,0,2,0,3-0.1c0.9,0,31.8-0.2,39.1-0.2c2,0.9,12,5.6,22,10.2c17.1,7.8,21.9,9.9,23.8,9.9c0.7,0,1-0.3,1.3-0.7
				C1412.7,322.5,1412.7,321.7,1412.3,321z M1360.5,259.7c-0.4-0.7,11.1-9.6,14.5-12.2c3.4-2.6,12.7-9.2,15.1-11.2
				c1.6,0.2,5.1,0.5,6.5,0.5c0.8,0,2.1-0.1,3.5-0.1c-0.8,0.6-1.7,1.2-2.5,1.8c-4.9,3.7-10,7.5-14.7,10.6c-9.5,6.4-16.9,11-19.6,12.5
				C1363.5,261.6,1360.9,260.3,1360.5,259.7z M1365.6,301.9L1365.6,301.9L1365.6,301.9L1365.6,301.9z M1367.4,300.8
				c0-2.8-0.1-10.2-0.4-17.6c-0.5-11.3-1-16.4-1.7-18.8c3.1-1.8,10.8-6.3,19.8-12.3c4.7-3.2,9.9-7,14.8-10.7
				c1.5-1.1,3.1-2.3,4.7-3.5c0.2,5,0.7,22.7,1.5,40.5c1.1,25.8,1.8,36.4,2.3,40.9C1401.2,316.5,1381,307.2,1367.4,300.8z"/>
			<g>
				<g>
					<path fill="#FFFFFF" d="M1314.2,226.2c-2.6,0-4.2-2.8-4.2-5.5c0-2.2,2.2-3.5,4.3-3.5c0.9,0,1.8,0.2,2.5,0.7
						c1.5,0.9,2,2.9,2,4.3c0,1.7-1.3,3.6-4.1,4C1314.5,226.2,1314.4,226.2,1314.2,226.2z M1314.3,219.3c-1.1,0-2.2,0.6-2.2,1.4
						c0,1.6,0.9,3.4,2.1,3.4c0.1,0,0.1,0,0.2,0c1.4-0.2,2.3-0.9,2.3-1.9c0-1.1-0.4-2.2-1-2.6
						C1315.3,219.4,1314.8,219.3,1314.3,219.3z"/>
				</g>
			</g>
		</g>
	</g>
	<g>
		<g>
			<rect x="1185.2" y="544.4" fill="#BD1B38" width="137" height="18.9"/>
			<rect x="1183.7" y="542.5" fill="#FFFFFF" width="136.9" height="19.3"/>
			<g>
				<text transform="matrix(1 0 0 1 1189.8438 557.042)"><tspan x="0" y="0" fill="#BD1B38" font-family="'SourceSansPro-Light'" font-size="14.4841">28 sep </tspan><tspan x="42.7" y="0" fill="#BD1B38" font-family="'SourceSansPro-Bold'" font-size="14.4841">-</tspan><tspan x="47.9" y="0" fill="#BD1B38" font-family="'SourceSansPro-Light'" font-size="14.4841"> 02 oct 2015</tspan></text>
			</g>
		</g>
		
			<text transform="matrix(1 0 0 1 1183.6582 437.2949)" fill="#FFFFFF" font-family="'SourceSansPro-Semibold'" font-size="23.1746" letter-spacing="2">KINOKI</text>
		<text transform="matrix(1 0 0 1 1183.6582 469.2012)"><tspan x="0" y="0" fill="#FFFFFF" font-family="'SourceSansPro-Light'" font-size="24.3333" letter-spacing="1">Festival Internacional</tspan><tspan x="0" y="31.9" fill="#FFFFFF" font-family="'SourceSansPro-Light'" font-size="24.3333" letter-spacing="1">de Cine Universitario</tspan></text>
		
			<text transform="matrix(1 0 0 1 1183.6582 527.3818)" fill="#FFFFFF" font-family="'SourceSansPro-LightIt'" font-size="17.3809" letter-spacing="1">Decimoprimera Edición</text>
	</g>
</g>
</svg>
