<?xml version="1.0" encoding="utf-8"?>
<!-- Generator: Adobe Illustrator 16.0.0, SVG Export Plug-In . SVG Version: 6.00 Build 0)  -->
<!DOCTYPE svg PUBLIC "-//W3C//DTD SVG 1.1//EN" "http://www.w3.org/Graphics/SVG/1.1/DTD/svg11.dtd">
<svg version="1.1" xmlns="http://www.w3.org/2000/svg" xmlns:xlink="http://www.w3.org/1999/xlink" x="0px" y="0px" width="1500px"
	 height="800px" viewBox="0 0 1500 800" enable-background="new 0 0 1500 800" xml:space="preserve">
<g id="Layer_1">
</g>
<g id="Layer_3">
</g>
<g id="Layer_2">
	<g>
		<g>
			<defs>
				<path id="SVGID_3_" d="M4.4,33.6V786c0,7.2,5.8,13,13,13h1052.7c7.2,0,13-5.8,13-13V33.6L4.4,33.6z"/>
			</defs>
			<clipPath id="SVGID_2_">
				<use xlink:href="#SVGID_3_"  overflow="visible"/>
			</clipPath>
			<path clip-path="url(#SVGID_2_)" fill="#FECD2F" d="M-42.4,0.4V818c0,7.8,6.3,14.2,14.2,14.2h1144c7.8,0,14.2-6.3,14.2-14.2V0.4
				L-42.4,0.4z"/>
			<polygon opacity="0.5" clip-path="url(#SVGID_2_)" fill="#DDB305" points="463.3,916.6 1070.5,888.9 1270.8,799 312.3,11 
				126.6,6.6 			"/>
			<path clip-path="url(#SVGID_2_)" fill="#DDB305" d="M6.3,792.7c2.3,3.8,6.4,6.3,11.2,6.3h1052.7c4.7,0,8.9-2.5,11.2-6.3H6.3z"/>
		</g>
		<path fill="#EAEAEA" d="M1083.2,33.7V13.5c0-7.2-5.8-13-13-13H17.5c-7.2,0-13,5.8-13,13.1v20.2L1083.2,33.7z"/>
		<circle fill="#404040" cx="20.8" cy="17.5" r="2.7"/>
		<circle fill="#404040" cx="30.7" cy="17.5" r="2.7"/>
		<circle fill="#404040" cx="40.6" cy="17.5" r="2.7"/>
		<path fill="#404040" d="M1070.5,12.9c0,0.5-0.4,0.9-0.9,0.9h-14.1c-0.5,0-0.9-0.4-0.9-0.9l0,0c0-0.5,0.4-0.9,0.9-0.9h14.1
			C1070.1,12,1070.5,12.4,1070.5,12.9L1070.5,12.9z"/>
		<path fill="#404040" d="M1070.5,17c0,0.5-0.4,0.9-0.9,0.9h-14.1c-0.5,0-0.9-0.4-0.9-0.9l0,0c0-0.5,0.4-0.9,0.9-0.9h14.1
			C1070.1,16.1,1070.5,16.5,1070.5,17L1070.5,17z"/>
		<path fill="#404040" d="M1070.5,21.4c0,0.5-0.4,0.9-0.9,0.9h-14.1c-0.5,0-0.9-0.4-0.9-0.9l0,0c0-0.5,0.4-0.9,0.9-0.9h14.1
			C1070.1,20.5,1070.5,20.9,1070.5,21.4L1070.5,21.4z"/>
		<path fill="#FFFFFF" d="M1040.7,16.8c0,4.2-3.4,7.5-7.5,7.5H68.5c-4.2,0-7.5-3.4-7.5-7.5l0,0c0-4.2,3.4-7.5,7.5-7.5h964.6
			C1037.3,9.2,1040.7,12.6,1040.7,16.8L1040.7,16.8z"/>
	</g>
	<g>
		<path fill="#EAEAEA" d="M1498.6,744.3c0,30.8-25.5,55.8-57,55.8h-265.9c-31.5,0-57-25-57-55.8V55.7c0-30.8,25.5-55.8,57-55.8
			h265.9c31.5,0,57,25,57,55.8V744.3z"/>
		<path fill="#FFFFFF" d="M1491,739.4c0,29.4-25.6,53.2-55.6,53.2h-253.5c-30,0-55.6-23.8-55.6-53.2V61.2
			c0-29.4,25.6-53.2,55.6-53.2h253.5c30,0,55.6,23.8,55.6,53.2V739.4z"/>
		<g>
			<defs>
				<rect id="SVGID_5_" x="1137.9" y="92" width="341.5" height="606.7"/>
			</defs>
			<clipPath id="SVGID_4_">
				<use xlink:href="#SVGID_5_"  overflow="visible"/>
			</clipPath>
			<rect x="1127" y="83.2" clip-path="url(#SVGID_4_)" fill="#FECD2F" width="372" height="663.9"/>
			<polygon opacity="0.5" clip-path="url(#SVGID_4_)" fill="#DDB305" points="1355.9,863.3 1530,863.3 1556.9,487 1097.9,81.4 
				1085.8,248.4 			"/>
			<rect x="1224.5" y="686.1" clip-path="url(#SVGID_4_)" fill="#DDB305" width="174" height="38.5"/>
			<rect x="1221.5" y="683.1" clip-path="url(#SVGID_4_)" fill="#FFFFFF" width="174" height="38.5"/>
			<rect x="1148.6" y="657" clip-path="url(#SVGID_4_)" fill="#DDB305" width="319.7" height="286"/>
			<rect x="1146.6" y="655" clip-path="url(#SVGID_4_)" fill="#FFFFFF" width="319.7" height="127.6"/>
			<g clip-path="url(#SVGID_4_)">
				<rect x="1166.4" y="678.6" fill="none" width="284.1" height="97.7"/>
				<text transform="matrix(1 0 0 1 1166.3613 688.6533)"><tspan x="0" y="0" font-family="'SourceSansPro-Light'" font-size="14">Año c</tspan><tspan x="30.7" y="0" font-family="'SourceSansPro-LightIt'" font-size="14">on año el festival KINOKI celebra los mejores </tspan><tspan x="0" y="21" font-family="'SourceSansPro-LightIt'" font-size="14">trabajos estudiantiles del séptimo arte, proyectando </tspan><tspan x="0" y="42" font-family="'SourceSansPro-LightIt'" font-size="14">lo más destacable a nivel nacional e internacional. </tspan><tspan x="0" y="63" font-family="'SourceSansPro-LightIt'" font-size="14">ión 2015</tspan></text>
			</g>
		</g>
		<circle fill="#EAEAEA" cx="1308.7" cy="744.5" r="29.3"/>
		<g>
			<circle fill="#EAEAEA" cx="1259.4" cy="55.2" r="4.4"/>
			<path fill="#EAEAEA" d="M1362.3,55.2c0,2.1-1.7,3.7-3.7,3.7h-84.1c-2.1,0-3.7-1.7-3.7-3.7l0,0c0-2.1,1.7-3.7,3.7-3.7h84.1
				C1360.6,51.5,1362.3,53.2,1362.3,55.2L1362.3,55.2z"/>
		</g>
	</g>
	<rect x="1155.5" y="109.6" fill="#FFFFFF" width="34.3" height="3.8"/>
	<rect x="1155.5" y="119.7" fill="#FFFFFF" width="34.3" height="3.8"/>
	<rect x="1155.5" y="129.8" fill="#FFFFFF" width="34.3" height="3.8"/>
	<rect x="26.2" y="57.3" fill="#FFFFFF" width="34.3" height="3.8"/>
	<rect x="26.2" y="67.4" fill="#FFFFFF" width="34.3" height="3.8"/>
	<rect x="26.2" y="77.6" fill="#FFFFFF" width="34.3" height="3.8"/>
	
		<text transform="matrix(1 0 0 1 562.6562 461.7471)" fill="#FFFFFF" font-family="'SourceSansPro-LightIt'" font-size="30" letter-spacing="2">Decimoprimera Edición</text>
	<g>
		<rect x="346.7" y="120.9" fill="#DDB305" width="396.3" height="66.3"/>
		<rect x="342.3" y="116.9" fill="#FFFFFF" width="397.7" height="67.7"/>
		<g>
			<text transform="matrix(1 0 0 1 391.0371 161.833)" fill="#DDB305" font-family="'SourceSansPro-Light'" font-size="31.7545">ACERCA DEL FESTIVAL</text>
		</g>
	</g>
	<text transform="matrix(1 0 0 1 132.7046 246.585)" fill="#DDB305" font-family="'SourceSansPro-Light'" font-size="22.4904">Presentación</text>
	<text transform="matrix(1 0 0 1 130.7031 244.583)" fill="#FFFFFF" font-family="'SourceSansPro-Light'" font-size="22.4904">Presentación</text>
	<rect x="131.5" y="269.2" fill="#FFFFFF" width="819.7" height="1.5"/>
	<text transform="matrix(1 0 0 1 132.7046 760.0244)" fill="#DDB305" font-family="'SourceSansPro-Light'" font-size="22.4904">Convocatoria</text>
	<text transform="matrix(1 0 0 1 130.7031 758.0234)" fill="#FFFFFF" font-family="'SourceSansPro-Light'" font-size="22.4904">Convocatoria</text>
	<rect x="131.5" y="782.7" fill="#FFFFFF" width="819.7" height="1.5"/>
	<rect x="130.7" y="291.2" fill="none" width="820.5" height="147.1"/>
	<text transform="matrix(1 0 0 1 130.7031 301.3008)"><tspan x="0" y="0" fill="#FFFFFF" font-family="'SourceSansPro-Light'" font-size="14">En 2004, estudiantes de la Universidad Iberoamericana crearon el primer Festival Internacional de Cine Universitario KINOKI. Inspirados en el </tspan><tspan x="0" y="21" fill="#FFFFFF" font-family="'SourceSansPro-Light'" font-size="14">&quot;kino-pravda&quot; (cine-verdad) de Dziga Vértov y en los pequeños equipos que filmaban los más recónditos lugares de la Unión Soviética, el festival </tspan><tspan x="0" y="42" fill="#FFFFFF" font-family="'SourceSansPro-Light'" font-size="14">siempre ha buscado acercar a la juventud con el séptimo arte. A lo largo de 11 años, el KINOKI ha tenido el objetivo de ofrecer un panorama general </tspan><tspan x="0" y="63" fill="#FFFFFF" font-family="'SourceSansPro-Light'" font-size="14">de las propuestas y tendencias de los estudiantes de cine alrededor del mundo. </tspan><tspan x="0" y="84" fill="#FFFFFF" font-family="'SourceSansPro-Light'" font-size="14">El Kinoki siempre se ha mantenido como una iniciativa estudiantil dirigida a la misma comunidad de la que brota. De esta forma se ha buscado </tspan><tspan x="0" y="105" fill="#FFFFFF" font-family="'SourceSansPro-Light'" font-size="14">mantener correspondencia entre la realidad estudiantil y los diferentes aspectos del festival.</tspan></text>
	<rect x="168.6" y="431.2" fill="#DDB305" width="750" height="286"/>
	<rect x="166.6" y="429.2" fill="#FFFFFF" width="750" height="286"/>
	<rect x="181.7" y="452.7" fill="none" width="715.4" height="243"/>
	<text transform="matrix(1 0 0 1 181.7056 462.7939)"><tspan x="0" y="0" font-family="'SourceSansPro-Light'" font-size="14">Año c</tspan><tspan x="30.7" y="0" font-family="'SourceSansPro-LightIt'" font-size="14">on año el festival KINOKI celebra los mejores trabajos estudiantiles del séptimo arte, proyectando lo más destacable a nivel </tspan><tspan x="0" y="21" font-family="'SourceSansPro-LightIt'" font-size="14">nacional e internacional. Para nosotros es muy importante que el festival, además de servir como puente de acceso y exhibición de </tspan><tspan x="0" y="42" font-family="'SourceSansPro-LightIt'" font-size="14">trabajos estudiantiles, se convierta en un espacio en donde el aprendizaje del quehacer cinematográfico sea una constante presente </tspan><tspan x="0" y="63" font-family="'SourceSansPro-LightIt'" font-size="14">en cada uno de los eventos que se realicen. De esta manera se buscará generar relaciones entre creadores que sirvan para estable</tspan><tspan x="700.9" y="63" font-family="'SourceSansPro-LightIt'" font-size="14">-</tspan><tspan x="0" y="84" font-family="'SourceSansPro-LightIt'" font-size="14">cer lazos entre creador-espectador y viceversa.</tspan><tspan x="0" y="105" font-family="'SourceSansPro-LightIt'" font-size="14">Nos interesa propiciar espacios de discusión y aprendizaje en los que, tanto estudiantes como creadores, puedan analizar la realidad </tspan><tspan x="0" y="126" font-family="'SourceSansPro-LightIt'" font-size="14">actual en la que se encuentra el mundo. El objetivo es que se logre generar contenidos cinematográficos conscientes, críticos, propo</tspan><tspan x="707.5" y="126" font-family="'SourceSansPro-LightIt'" font-size="14">-</tspan><tspan x="0" y="147" font-family="'SourceSansPro-LightIt'" font-size="14">sitivos y de calidad. Estos espacios de diálogo se darán a través de conferencias y master classes impartidas por profesionales en el </tspan><tspan x="0" y="168" font-family="'SourceSansPro-LightIt'" font-size="14">ámbito cinematográfico nacional e internacional.</tspan><tspan x="0" y="208" font-family="'SourceSansPro-Semibold'" font-size="14">Diego Rodríguez</tspan><tspan x="0" y="229" font-family="'SourceSansPro-Light'" font-size="14">Director General, </tspan><tspan x="95.7" y="229" font-family="'SourceSansPro-LightIt'" font-size="14">Edición 2015</tspan></text>
	<text transform="matrix(1 0 0 1 182.7061 671.6729)" opacity="0.3" font-family="'SourceSansPro-Semibold'" font-size="14">Diego Rodríguez</text>
	<g>
		<rect x="1222.8" y="117" fill="#DDB305" width="176.2" height="74.7"/>
		<rect x="1220.9" y="113.5" fill="#FFFFFF" width="175.5" height="76.2"/>
		<g>
			<text transform="matrix(1 0 0 1 1258.6748 145.8154)"><tspan x="0" y="0" fill="#DDB305" font-family="'SourceSansPro-Light'" font-size="19.7883">ACERCA DEL</tspan><tspan x="13.1" y="22" fill="#DDB305" font-family="'SourceSansPro-Light'" font-size="19.7883">FESTIVAL</tspan></text>
		</g>
	</g>
	<text transform="matrix(1 0 0 1 1166.3613 248.4375)" fill="#DDB305" font-family="'SourceSansPro-Light'" font-size="19">Presentación</text>
	<text transform="matrix(1 0 0 1 1164.3594 246.4365)" fill="#FFFFFF" font-family="'SourceSansPro-Light'" font-size="19">Presentación</text>
	<rect x="1166.2" y="270.1" fill="#FFFFFF" width="284.3" height="1.5"/>
	<rect x="1163.4" y="294.1" fill="none" width="294.7" height="354.6"/>
	<text transform="matrix(1 0 0 1 1163.3564 304.1611)"><tspan x="0" y="0" fill="#FFFFFF" font-family="'SourceSansPro-Light'" font-size="14">En</tspan><tspan x="14.4" y="0" fill="#FFFFFF" font-family="'SourceSansPro-Light'" font-size="14" letter-spacing="16"> </tspan><tspan x="33.5" y="0" fill="#FFFFFF" font-family="'SourceSansPro-Light'" font-size="14">2004,</tspan><tspan x="62.7" y="0" fill="#FFFFFF" font-family="'SourceSansPro-Light'" font-size="14" letter-spacing="16"> </tspan><tspan x="81.9" y="0" fill="#FFFFFF" font-family="'SourceSansPro-Light'" font-size="14">estudiantes</tspan><tspan x="146.6" y="0" fill="#FFFFFF" font-family="'SourceSansPro-Light'" font-size="14" letter-spacing="16"> </tspan><tspan x="165.8" y="0" fill="#FFFFFF" font-family="'SourceSansPro-Light'" font-size="14">de</tspan><tspan x="179.9" y="0" fill="#FFFFFF" font-family="'SourceSansPro-Light'" font-size="14" letter-spacing="16"> </tspan><tspan x="199" y="0" fill="#FFFFFF" font-family="'SourceSansPro-Light'" font-size="14">la</tspan><tspan x="209" y="0" fill="#FFFFFF" font-family="'SourceSansPro-Light'" font-size="14" letter-spacing="16"> </tspan><tspan x="228.2" y="0" fill="#FFFFFF" font-family="'SourceSansPro-Light'" font-size="14">Universidad </tspan><tspan x="0" y="21" fill="#FFFFFF" font-family="'SourceSansPro-Light'" font-size="14">Iberoamericana</tspan><tspan x="88.2" y="21" fill="#FFFFFF" font-family="'SourceSansPro-Light'" font-size="14" letter-spacing="15"> </tspan><tspan x="106.9" y="21" fill="#FFFFFF" font-family="'SourceSansPro-Light'" font-size="14">crearon</tspan><tspan x="149.7" y="21" fill="#FFFFFF" font-family="'SourceSansPro-Light'" font-size="14" letter-spacing="15"> </tspan><tspan x="168.4" y="21" fill="#FFFFFF" font-family="'SourceSansPro-Light'" font-size="14">el</tspan><tspan x="178.2" y="21" fill="#FFFFFF" font-family="'SourceSansPro-Light'" font-size="14" letter-spacing="15"> </tspan><tspan x="196.9" y="21" fill="#FFFFFF" font-family="'SourceSansPro-Light'" font-size="14">primer</tspan><tspan x="233.9" y="21" fill="#FFFFFF" font-family="'SourceSansPro-Light'" font-size="14" letter-spacing="15"> </tspan><tspan x="252.6" y="21" fill="#FFFFFF" font-family="'SourceSansPro-Light'" font-size="14">Festival </tspan><tspan x="0" y="42" fill="#FFFFFF" font-family="'SourceSansPro-Light'" font-size="14">Internacional</tspan><tspan x="73.7" y="42" fill="#FFFFFF" font-family="'SourceSansPro-Light'" font-size="14"> </tspan><tspan x="75.9" y="42" fill="#FFFFFF" font-family="'SourceSansPro-Light'" font-size="14">de</tspan><tspan x="90" y="42" fill="#FFFFFF" font-family="'SourceSansPro-Light'" font-size="14"> </tspan><tspan x="92.3" y="42" fill="#FFFFFF" font-family="'SourceSansPro-Light'" font-size="14">Cine</tspan><tspan x="117" y="42" fill="#FFFFFF" font-family="'SourceSansPro-Light'" font-size="14"> </tspan><tspan x="119.2" y="42" fill="#FFFFFF" font-family="'SourceSansPro-Light'" font-size="14">Universitario</tspan><tspan x="189.6" y="42" fill="#FFFFFF" font-family="'SourceSansPro-Light'" font-size="14"> </tspan><tspan x="191.8" y="42" fill="#FFFFFF" font-family="'SourceSansPro-Light'" font-size="14">KINOKI.</tspan><tspan x="234.2" y="42" fill="#FFFFFF" font-family="'SourceSansPro-Light'" font-size="14"> </tspan><tspan x="236.5" y="42" fill="#FFFFFF" font-family="'SourceSansPro-Light'" font-size="14">Inspirados </tspan><tspan x="0" y="63" fill="#FFFFFF" font-family="'SourceSansPro-Light'" font-size="14">en el &quot;kino-pravda&quot; (cine-verdad) de Dziga Vértov y en </tspan><tspan x="0" y="84" fill="#FFFFFF" font-family="'SourceSansPro-Light'" font-size="14">los</tspan><tspan x="16.1" y="84" fill="#FFFFFF" font-family="'SourceSansPro-Light'" font-size="14" letter-spacing="8"> </tspan><tspan x="27.4" y="84" fill="#FFFFFF" font-family="'SourceSansPro-Light'" font-size="14">pequeños</tspan><tspan x="82.9" y="84" fill="#FFFFFF" font-family="'SourceSansPro-Light'" font-size="14" letter-spacing="8"> </tspan><tspan x="94.2" y="84" fill="#FFFFFF" font-family="'SourceSansPro-Light'" font-size="14">equipos</tspan><tspan x="138.9" y="84" fill="#FFFFFF" font-family="'SourceSansPro-Light'" font-size="14" letter-spacing="8"> </tspan><tspan x="150.2" y="84" fill="#FFFFFF" font-family="'SourceSansPro-Light'" font-size="14">que</tspan><tspan x="171.5" y="84" fill="#FFFFFF" font-family="'SourceSansPro-Light'" font-size="14" letter-spacing="8"> </tspan><tspan x="182.8" y="84" fill="#FFFFFF" font-family="'SourceSansPro-Light'" font-size="14">filmaban</tspan><tspan x="232.3" y="84" fill="#FFFFFF" font-family="'SourceSansPro-Light'" font-size="14" letter-spacing="8"> </tspan><tspan x="243.6" y="84" fill="#FFFFFF" font-family="'SourceSansPro-Light'" font-size="14">los</tspan><tspan x="259.6" y="84" fill="#FFFFFF" font-family="'SourceSansPro-Light'" font-size="14" letter-spacing="8"> </tspan><tspan x="271" y="84" fill="#FFFFFF" font-family="'SourceSansPro-Light'" font-size="14">más </tspan><tspan x="0" y="105" fill="#FFFFFF" font-family="'SourceSansPro-Light'" font-size="14">recónditos</tspan><tspan x="59.4" y="105" fill="#FFFFFF" font-family="'SourceSansPro-Light'" font-size="14" letter-spacing="2"> </tspan><tspan x="64.3" y="105" fill="#FFFFFF" font-family="'SourceSansPro-Light'" font-size="14">lugares</tspan><tspan x="104.8" y="105" fill="#FFFFFF" font-family="'SourceSansPro-Light'" font-size="14" letter-spacing="2"> </tspan><tspan x="109.7" y="105" fill="#FFFFFF" font-family="'SourceSansPro-Light'" font-size="14">de</tspan><tspan x="123.8" y="105" fill="#FFFFFF" font-family="'SourceSansPro-Light'" font-size="14" letter-spacing="2"> </tspan><tspan x="128.8" y="105" fill="#FFFFFF" font-family="'SourceSansPro-Light'" font-size="14">la</tspan><tspan x="138.8" y="105" fill="#FFFFFF" font-family="'SourceSansPro-Light'" font-size="14" letter-spacing="2"> </tspan><tspan x="143.8" y="105" fill="#FFFFFF" font-family="'SourceSansPro-Light'" font-size="14">Unión</tspan><tspan x="177.6" y="105" fill="#FFFFFF" font-family="'SourceSansPro-Light'" font-size="14" letter-spacing="2"> </tspan><tspan x="182.5" y="105" fill="#FFFFFF" font-family="'SourceSansPro-Light'" font-size="14">Soviética,</tspan><tspan x="235.9" y="105" fill="#FFFFFF" font-family="'SourceSansPro-Light'" font-size="14" letter-spacing="2"> </tspan><tspan x="240.8" y="105" fill="#FFFFFF" font-family="'SourceSansPro-Light'" font-size="14">el</tspan><tspan x="250.6" y="105" fill="#FFFFFF" font-family="'SourceSansPro-Light'" font-size="14" letter-spacing="2"> </tspan><tspan x="255.6" y="105" fill="#FFFFFF" font-family="'SourceSansPro-Light'" font-size="14">festival </tspan><tspan x="0" y="126" fill="#FFFFFF" font-family="'SourceSansPro-Light'" font-size="14">siempre</tspan><tspan x="44.8" y="126" fill="#FFFFFF" font-family="'SourceSansPro-Light'" font-size="14" letter-spacing="3"> </tspan><tspan x="51.1" y="126" fill="#FFFFFF" font-family="'SourceSansPro-Light'" font-size="14">ha</tspan><tspan x="65.2" y="126" fill="#FFFFFF" font-family="'SourceSansPro-Light'" font-size="14" letter-spacing="3"> </tspan><tspan x="71.4" y="126" fill="#FFFFFF" font-family="'SourceSansPro-Light'" font-size="14">buscado</tspan><tspan x="119.5" y="126" fill="#FFFFFF" font-family="'SourceSansPro-Light'" font-size="14" letter-spacing="3"> </tspan><tspan x="125.7" y="126" fill="#FFFFFF" font-family="'SourceSansPro-Light'" font-size="14">acercar</tspan><tspan x="166.9" y="126" fill="#FFFFFF" font-family="'SourceSansPro-Light'" font-size="14" letter-spacing="3"> </tspan><tspan x="173.1" y="126" fill="#FFFFFF" font-family="'SourceSansPro-Light'" font-size="14">a</tspan><tspan x="179.9" y="126" fill="#FFFFFF" font-family="'SourceSansPro-Light'" font-size="14" letter-spacing="3"> </tspan><tspan x="186.1" y="126" fill="#FFFFFF" font-family="'SourceSansPro-Light'" font-size="14">la</tspan><tspan x="196.2" y="126" fill="#FFFFFF" font-family="'SourceSansPro-Light'" font-size="14" letter-spacing="3"> </tspan><tspan x="202.4" y="126" fill="#FFFFFF" font-family="'SourceSansPro-Light'" font-size="14">juventud</tspan><tspan x="251.5" y="126" fill="#FFFFFF" font-family="'SourceSansPro-Light'" font-size="14" letter-spacing="3"> </tspan><tspan x="257.7" y="126" fill="#FFFFFF" font-family="'SourceSansPro-Light'" font-size="14">con</tspan><tspan x="278.5" y="126" fill="#FFFFFF" font-family="'SourceSansPro-Light'" font-size="14" letter-spacing="3"> </tspan><tspan x="284.8" y="126" fill="#FFFFFF" font-family="'SourceSansPro-Light'" font-size="14">el </tspan><tspan x="0" y="147" fill="#FFFFFF" font-family="'SourceSansPro-Light'" font-size="14">séptimo</tspan><tspan x="45.5" y="147" fill="#FFFFFF" font-family="'SourceSansPro-Light'" font-size="14" letter-spacing="2"> </tspan><tspan x="51.2" y="147" fill="#FFFFFF" font-family="'SourceSansPro-Light'" font-size="14">arte.</tspan><tspan x="76.2" y="147" fill="#FFFFFF" font-family="'SourceSansPro-Light'" font-size="14" letter-spacing="2"> </tspan><tspan x="81.9" y="147" fill="#FFFFFF" font-family="'SourceSansPro-Light'" font-size="14">A</tspan><tspan x="89.1" y="147" fill="#FFFFFF" font-family="'SourceSansPro-Light'" font-size="14" letter-spacing="2"> </tspan><tspan x="94.9" y="147" fill="#FFFFFF" font-family="'SourceSansPro-Light'" font-size="14">lo</tspan><tspan x="105.4" y="147" fill="#FFFFFF" font-family="'SourceSansPro-Light'" font-size="14" letter-spacing="2"> </tspan><tspan x="111.1" y="147" fill="#FFFFFF" font-family="'SourceSansPro-Light'" font-size="14">largo</tspan><tspan x="139.5" y="147" fill="#FFFFFF" font-family="'SourceSansPro-Light'" font-size="14" letter-spacing="2"> </tspan><tspan x="145.2" y="147" fill="#FFFFFF" font-family="'SourceSansPro-Light'" font-size="14">de</tspan><tspan x="159.3" y="147" fill="#FFFFFF" font-family="'SourceSansPro-Light'" font-size="14" letter-spacing="2"> </tspan><tspan x="165.1" y="147" fill="#FFFFFF" font-family="'SourceSansPro-Light'" font-size="14">11</tspan><tspan x="178.2" y="147" fill="#FFFFFF" font-family="'SourceSansPro-Light'" font-size="14" letter-spacing="2"> </tspan><tspan x="183.9" y="147" fill="#FFFFFF" font-family="'SourceSansPro-Light'" font-size="14">años,</tspan><tspan x="213.9" y="147" fill="#FFFFFF" font-family="'SourceSansPro-Light'" font-size="14" letter-spacing="2"> </tspan><tspan x="219.6" y="147" fill="#FFFFFF" font-family="'SourceSansPro-Light'" font-size="14">el</tspan><tspan x="229.4" y="147" fill="#FFFFFF" font-family="'SourceSansPro-Light'" font-size="14" letter-spacing="2"> </tspan><tspan x="235.2" y="147" fill="#FFFFFF" font-family="'SourceSansPro-Light'" font-size="14">KINOKI</tspan><tspan x="274.7" y="147" fill="#FFFFFF" font-family="'SourceSansPro-Light'" font-size="14" letter-spacing="2"> </tspan><tspan x="280.5" y="147" fill="#FFFFFF" font-family="'SourceSansPro-Light'" font-size="14">ha </tspan><tspan x="0" y="168" fill="#FFFFFF" font-family="'SourceSansPro-Light'" font-size="14">tenido</tspan><tspan x="36" y="168" fill="#FFFFFF" font-family="'SourceSansPro-Light'" font-size="14"> </tspan><tspan x="38.8" y="168" fill="#FFFFFF" font-family="'SourceSansPro-Light'" font-size="14">el</tspan><tspan x="48.6" y="168" fill="#FFFFFF" font-family="'SourceSansPro-Light'" font-size="14"> </tspan><tspan x="51.4" y="168" fill="#FFFFFF" font-family="'SourceSansPro-Light'" font-size="14">objetivo</tspan><tspan x="96.5" y="168" fill="#FFFFFF" font-family="'SourceSansPro-Light'" font-size="14"> </tspan><tspan x="99.3" y="168" fill="#FFFFFF" font-family="'SourceSansPro-Light'" font-size="14">de</tspan><tspan x="113.4" y="168" fill="#FFFFFF" font-family="'SourceSansPro-Light'" font-size="14"> </tspan><tspan x="116.2" y="168" fill="#FFFFFF" font-family="'SourceSansPro-Light'" font-size="14">ofrecer</tspan><tspan x="155" y="168" fill="#FFFFFF" font-family="'SourceSansPro-Light'" font-size="14"> </tspan><tspan x="157.8" y="168" fill="#FFFFFF" font-family="'SourceSansPro-Light'" font-size="14">un</tspan><tspan x="172.4" y="168" fill="#FFFFFF" font-family="'SourceSansPro-Light'" font-size="14"> </tspan><tspan x="175.2" y="168" fill="#FFFFFF" font-family="'SourceSansPro-Light'" font-size="14">panorama</tspan><tspan x="233.4" y="168" fill="#FFFFFF" font-family="'SourceSansPro-Light'" font-size="14"> </tspan><tspan x="236.1" y="168" fill="#FFFFFF" font-family="'SourceSansPro-Light'" font-size="14">general</tspan><tspan x="277.7" y="168" fill="#FFFFFF" font-family="'SourceSansPro-Light'" font-size="14"> </tspan><tspan x="280.5" y="168" fill="#FFFFFF" font-family="'SourceSansPro-Light'" font-size="14">de </tspan><tspan x="0" y="189" fill="#FFFFFF" font-family="'SourceSansPro-Light'" font-size="14">las</tspan><tspan x="15.6" y="189" fill="#FFFFFF" font-family="'SourceSansPro-Light'" font-size="14"> </tspan><tspan x="17.7" y="189" fill="#FFFFFF" font-family="'SourceSansPro-Light'" font-size="14">propuestas</tspan><tspan x="80.3" y="189" fill="#FFFFFF" font-family="'SourceSansPro-Light'" font-size="14"> </tspan><tspan x="82.5" y="189" fill="#FFFFFF" font-family="'SourceSansPro-Light'" font-size="14">y</tspan><tspan x="88.4" y="189" fill="#FFFFFF" font-family="'SourceSansPro-Light'" font-size="14"> </tspan><tspan x="90.6" y="189" fill="#FFFFFF" font-family="'SourceSansPro-Light'" font-size="14">tendencias</tspan><tspan x="151.7" y="189" fill="#FFFFFF" font-family="'SourceSansPro-Light'" font-size="14"> </tspan><tspan x="153.9" y="189" fill="#FFFFFF" font-family="'SourceSansPro-Light'" font-size="14">de</tspan><tspan x="168" y="189" fill="#FFFFFF" font-family="'SourceSansPro-Light'" font-size="14"> </tspan><tspan x="170.1" y="189" fill="#FFFFFF" font-family="'SourceSansPro-Light'" font-size="14">los</tspan><tspan x="186.2" y="189" fill="#FFFFFF" font-family="'SourceSansPro-Light'" font-size="14"> </tspan><tspan x="188.3" y="189" fill="#FFFFFF" font-family="'SourceSansPro-Light'" font-size="14">estudiantes</tspan><tspan x="253" y="189" fill="#FFFFFF" font-family="'SourceSansPro-Light'" font-size="14"> </tspan><tspan x="255.2" y="189" fill="#FFFFFF" font-family="'SourceSansPro-Light'" font-size="14">de</tspan><tspan x="269.3" y="189" fill="#FFFFFF" font-family="'SourceSansPro-Light'" font-size="14"> </tspan><tspan x="271.4" y="189" fill="#FFFFFF" font-family="'SourceSansPro-Light'" font-size="14">cine </tspan><tspan x="0" y="210" fill="#FFFFFF" font-family="'SourceSansPro-Light'" font-size="14">alrededor del mundo. </tspan><tspan x="0" y="231" fill="#FFFFFF" font-family="'SourceSansPro-Light'" font-size="14">El</tspan><tspan x="10.2" y="231" fill="#FFFFFF" font-family="'SourceSansPro-Light'" font-size="14" letter-spacing="6"> </tspan><tspan x="19.3" y="231" fill="#FFFFFF" font-family="'SourceSansPro-Light'" font-size="14">Kinoki</tspan><tspan x="54.1" y="231" fill="#FFFFFF" font-family="'SourceSansPro-Light'" font-size="14" letter-spacing="6"> </tspan><tspan x="63.2" y="231" fill="#FFFFFF" font-family="'SourceSansPro-Light'" font-size="14">siempre</tspan><tspan x="108" y="231" fill="#FFFFFF" font-family="'SourceSansPro-Light'" font-size="14" letter-spacing="6"> </tspan><tspan x="117.1" y="231" fill="#FFFFFF" font-family="'SourceSansPro-Light'" font-size="14">se</tspan><tspan x="129.3" y="231" fill="#FFFFFF" font-family="'SourceSansPro-Light'" font-size="14" letter-spacing="6"> </tspan><tspan x="138.3" y="231" fill="#FFFFFF" font-family="'SourceSansPro-Light'" font-size="14">ha</tspan><tspan x="152.4" y="231" fill="#FFFFFF" font-family="'SourceSansPro-Light'" font-size="14" letter-spacing="6"> </tspan><tspan x="161.5" y="231" fill="#FFFFFF" font-family="'SourceSansPro-Light'" font-size="14">mantenido</tspan><tspan x="222.9" y="231" fill="#FFFFFF" font-family="'SourceSansPro-Light'" font-size="14" letter-spacing="6"> </tspan><tspan x="232" y="231" fill="#FFFFFF" font-family="'SourceSansPro-Light'" font-size="14">como</tspan><tspan x="264.1" y="231" fill="#FFFFFF" font-family="'SourceSansPro-Light'" font-size="14" letter-spacing="6"> </tspan><tspan x="273.1" y="231" fill="#FFFFFF" font-family="'SourceSansPro-Light'" font-size="14">una </tspan><tspan x="0" y="252" fill="#FFFFFF" font-family="'SourceSansPro-Light'" font-size="14">iniciativa</tspan><tspan x="49.6" y="252" fill="#FFFFFF" font-family="'SourceSansPro-Light'" font-size="14" letter-spacing="1"> </tspan><tspan x="53.8" y="252" fill="#FFFFFF" font-family="'SourceSansPro-Light'" font-size="14">estudiantil</tspan><tspan x="112.6" y="252" fill="#FFFFFF" font-family="'SourceSansPro-Light'" font-size="14" letter-spacing="1"> </tspan><tspan x="116.8" y="252" fill="#FFFFFF" font-family="'SourceSansPro-Light'" font-size="14">dirigida</tspan><tspan x="158.8" y="252" fill="#FFFFFF" font-family="'SourceSansPro-Light'" font-size="14" letter-spacing="1"> </tspan><tspan x="163" y="252" fill="#FFFFFF" font-family="'SourceSansPro-Light'" font-size="14">a</tspan><tspan x="169.8" y="252" fill="#FFFFFF" font-family="'SourceSansPro-Light'" font-size="14" letter-spacing="1"> </tspan><tspan x="174.1" y="252" fill="#FFFFFF" font-family="'SourceSansPro-Light'" font-size="14">la</tspan><tspan x="184.1" y="252" fill="#FFFFFF" font-family="'SourceSansPro-Light'" font-size="14" letter-spacing="1"> </tspan><tspan x="188.3" y="252" fill="#FFFFFF" font-family="'SourceSansPro-Light'" font-size="14">misma</tspan><tspan x="226.2" y="252" fill="#FFFFFF" font-family="'SourceSansPro-Light'" font-size="14" letter-spacing="1"> </tspan><tspan x="230.4" y="252" fill="#FFFFFF" font-family="'SourceSansPro-Light'" font-size="14">comunidad </tspan><tspan x="0" y="273" fill="#FFFFFF" font-family="'SourceSansPro-Light'" font-size="14">de</tspan><tspan x="14.1" y="273" fill="#FFFFFF" font-family="'SourceSansPro-Light'" font-size="14" letter-spacing="5"> </tspan><tspan x="21.9" y="273" fill="#FFFFFF" font-family="'SourceSansPro-Light'" font-size="14">la</tspan><tspan x="31.9" y="273" fill="#FFFFFF" font-family="'SourceSansPro-Light'" font-size="14" letter-spacing="5"> </tspan><tspan x="39.7" y="273" fill="#FFFFFF" font-family="'SourceSansPro-Light'" font-size="14">que</tspan><tspan x="61" y="273" fill="#FFFFFF" font-family="'SourceSansPro-Light'" font-size="14" letter-spacing="5"> </tspan><tspan x="68.8" y="273" fill="#FFFFFF" font-family="'SourceSansPro-Light'" font-size="14">brota.</tspan><tspan x="101.9" y="273" fill="#FFFFFF" font-family="'SourceSansPro-Light'" font-size="14" letter-spacing="5"> </tspan><tspan x="109.7" y="273" fill="#FFFFFF" font-family="'SourceSansPro-Light'" font-size="14">De</tspan><tspan x="124.7" y="273" fill="#FFFFFF" font-family="'SourceSansPro-Light'" font-size="14" letter-spacing="5"> </tspan><tspan x="132.5" y="273" fill="#FFFFFF" font-family="'SourceSansPro-Light'" font-size="14">esta</tspan><tspan x="155.7" y="273" fill="#FFFFFF" font-family="'SourceSansPro-Light'" font-size="14" letter-spacing="5"> </tspan><tspan x="163.5" y="273" fill="#FFFFFF" font-family="'SourceSansPro-Light'" font-size="14">forma</tspan><tspan x="196.8" y="273" fill="#FFFFFF" font-family="'SourceSansPro-Light'" font-size="14" letter-spacing="5"> </tspan><tspan x="204.6" y="273" fill="#FFFFFF" font-family="'SourceSansPro-Light'" font-size="14">se</tspan><tspan x="216.8" y="273" fill="#FFFFFF" font-family="'SourceSansPro-Light'" font-size="14" letter-spacing="5"> </tspan><tspan x="224.6" y="273" fill="#FFFFFF" font-family="'SourceSansPro-Light'" font-size="14">ha</tspan><tspan x="238.7" y="273" fill="#FFFFFF" font-family="'SourceSansPro-Light'" font-size="14" letter-spacing="5"> </tspan><tspan x="246.5" y="273" fill="#FFFFFF" font-family="'SourceSansPro-Light'" font-size="14">buscado </tspan><tspan x="0" y="294" fill="#FFFFFF" font-family="'SourceSansPro-Light'" font-size="14">mantener</tspan><tspan x="54.5" y="294" fill="#FFFFFF" font-family="'SourceSansPro-Light'" font-size="14" letter-spacing="12"> </tspan><tspan x="69.8" y="294" fill="#FFFFFF" font-family="'SourceSansPro-Light'" font-size="14">correspondencia</tspan><tspan x="163.6" y="294" fill="#FFFFFF" font-family="'SourceSansPro-Light'" font-size="14" letter-spacing="12"> </tspan><tspan x="179" y="294" fill="#FFFFFF" font-family="'SourceSansPro-Light'" font-size="14">entre</tspan><tspan x="208.1" y="294" fill="#FFFFFF" font-family="'SourceSansPro-Light'" font-size="14" letter-spacing="12"> </tspan><tspan x="223.4" y="294" fill="#FFFFFF" font-family="'SourceSansPro-Light'" font-size="14">la</tspan><tspan x="233.4" y="294" fill="#FFFFFF" font-family="'SourceSansPro-Light'" font-size="14" letter-spacing="12"> </tspan><tspan x="248.8" y="294" fill="#FFFFFF" font-family="'SourceSansPro-Light'" font-size="14">realidad </tspan><tspan x="0" y="315" fill="#FFFFFF" font-family="'SourceSansPro-Light'" font-size="14">estudiantil y los diferentes aspectos del festival.</tspan></text>
		</g>
	</svg>