<?xml version="1.0" encoding="utf-8"?>
<!-- Generator: Adobe Illustrator 16.0.0, SVG Export Plug-In . SVG Version: 6.00 Build 0)  -->
<!DOCTYPE svg PUBLIC "-//W3C//DTD SVG 1.1//EN" "http://www.w3.org/Graphics/SVG/1.1/DTD/svg11.dtd">
<svg version="1.1" id="Layer_1" xmlns="http://www.w3.org/2000/svg" xmlns:xlink="http://www.w3.org/1999/xlink" x="0px" y="0px"
	 width="1500px" height="800px" viewBox="0 0 1500 800" enable-background="new 0 0 1500 800" xml:space="preserve">
<g id="Layer_1_1_">
</g>
<g id="Layer_3">
</g>
<g id="Layer_2">
	<rect x="150.8" y="-67.1" fill="none" width="444.3" height="243"/>
	<g>
		<path fill="#EAEAEA" d="M1083.2,33.7V13.5c0-7.2-5.8-13-13-13H17.5c-7.2,0-13,5.8-13,13.1v20.2L1083.2,33.7z"/>
		<circle fill="#404040" cx="20.8" cy="17.5" r="2.7"/>
		<circle fill="#404040" cx="30.7" cy="17.5" r="2.7"/>
		<circle fill="#404040" cx="40.6" cy="17.5" r="2.7"/>
		<path fill="#404040" d="M1070.5,12.9c0,0.5-0.4,0.9-0.9,0.9h-14.1c-0.5,0-0.9-0.4-0.9-0.9l0,0c0-0.5,0.4-0.9,0.9-0.9h14.1
			C1070.1,12,1070.5,12.4,1070.5,12.9L1070.5,12.9z"/>
		<path fill="#404040" d="M1070.5,17c0,0.5-0.4,0.9-0.9,0.9h-14.1c-0.5,0-0.9-0.4-0.9-0.9l0,0c0-0.5,0.4-0.9,0.9-0.9h14.1
			C1070.1,16.1,1070.5,16.5,1070.5,17L1070.5,17z"/>
		<path fill="#404040" d="M1070.5,21.4c0,0.5-0.4,0.9-0.9,0.9h-14.1c-0.5,0-0.9-0.4-0.9-0.9l0,0c0-0.5,0.4-0.9,0.9-0.9h14.1
			C1070.1,20.5,1070.5,20.9,1070.5,21.4L1070.5,21.4z"/>
		<path fill="#FFFFFF" d="M1040.7,16.8c0,4.2-3.4,7.5-7.5,7.5H68.5c-4.2,0-7.5-3.4-7.5-7.5l0,0c0-4.2,3.4-7.5,7.5-7.5h964.6
			C1037.3,9.2,1040.7,12.6,1040.7,16.8L1040.7,16.8z"/>
		<path fill="#F47E24" d="M4.4,33.6V786c0,7.2,5.8,13,13,13h1052.7c7.2,0,13-5.8,13-13V33.6H4.4z"/>
		<g>
			<g>
				<g>
					<defs>
						<path id="SVGID_1_" d="M4.4,33.6V786c0,7.2,5.8,13,13,13h1052.7c7.2,0,13-5.8,13-13V33.6H4.4z"/>
					</defs>
					<clipPath id="SVGID_2_">
						<use xlink:href="#SVGID_1_"  overflow="visible"/>
					</clipPath>
					<rect y="8" clip-path="url(#SVGID_2_)" fill="#FECD2F" width="1230" height="276.9"/>
				</g>
			</g>
			<g>
				<g>
					<defs>
						<path id="SVGID_3_" d="M4.4,33.6V786c0,7.2,5.8,13,13,13h1052.7c7.2,0,13-5.8,13-13V33.6H4.4z"/>
					</defs>
					<clipPath id="SVGID_4_">
						<use xlink:href="#SVGID_3_"  overflow="visible"/>
					</clipPath>
					<polygon opacity="0.5" clip-path="url(#SVGID_4_)" fill="#DDB305" enable-background="new    " points="404.1,387.6 
						1011.4,359.9 1211.6,270 898.87,12.9 267.2,17.5 					"/>
				</g>
			</g>
			<g>
				<g>
					<defs>
						<path id="SVGID_5_" d="M4.4,33.6V786c0,7.2,5.8,13,13,13h1052.7c7.2,0,13-5.8,13-13V33.6H4.4z"/>
					</defs>
					<clipPath id="SVGID_6_">
						<use xlink:href="#SVGID_5_"  overflow="visible"/>
					</clipPath>
					<rect x="-23.9" y="282.7" clip-path="url(#SVGID_6_)" fill="#ED2246" width="1253.9" height="544.3"/>
				</g>
			</g>
			<g>
				<g>
					<defs>
						<path id="SVGID_7_" d="M4.4,33.6V786c0,7.2,5.8,13,13,13h1052.7c7.2,0,13-5.8,13-13V33.6H4.4z"/>
					</defs>
					<clipPath id="SVGID_8_">
						<use xlink:href="#SVGID_7_"  overflow="visible"/>
					</clipPath>
					<rect x="-23.9" y="280.4" clip-path="url(#SVGID_8_)" fill="#DDB305" width="1253.9" height="4.5"/>
				</g>
			</g>
			<g>
				<g>
					<defs>
						<path id="SVGID_9_" d="M4.4,33.6V786c0,7.2,5.8,13,13,13h1052.7c7.2,0,13-5.8,13-13V33.6H4.4z"/>
					</defs>
					<clipPath id="SVGID_10_">
						<use xlink:href="#SVGID_9_"  overflow="visible"/>
					</clipPath>
					<rect x="-23.9" y="566.3" clip-path="url(#SVGID_10_)" fill="#BD1B38" width="1253.9" height="195.7"/>
				</g>
			</g>
			<g>
				<g>
					<defs>
						<path id="SVGID_11_" d="M4.4,33.6V786c0,7.2,5.8,13,13,13h1052.7c7.2,0,13-5.8,13-13V33.6H4.4z"/>
					</defs>
					<clipPath id="SVGID_12_">
						<use xlink:href="#SVGID_11_"  overflow="visible"/>
					</clipPath>
					<rect x="-29" y="792.7" clip-path="url(#SVGID_12_)" fill="#BD1B38" width="1140.2" height="50.8"/>
				</g>
			</g>
		</g>
	</g>
	<rect x="1155.5" y="109.6" fill="#FFFFFF" width="34.3" height="3.8"/>
	<rect x="1155.5" y="119.7" fill="#FFFFFF" width="34.3" height="3.8"/>
	<rect x="1155.5" y="129.8" fill="#FFFFFF" width="34.3" height="3.8"/>
	<rect x="26.2" y="57.3" fill="#FFFFFF" width="34.3" height="3.8"/>
	<rect x="26.2" y="67.4" fill="#FFFFFF" width="34.3" height="3.8"/>
	<rect x="26.2" y="77.6" fill="#FFFFFF" width="34.3" height="3.8"/>
	<g>
		<text transform="matrix(1 0 0 1 431.0386 400.123)" fill="#BD1B38" font-family="'SourceSansPro-Light'" font-size="22.4904">¡Conéc</text>
		<text transform="matrix(1 0 0 1 494.5088 400.123)" fill="#BD1B38" font-family="'SourceSansPro-Light'" font-size="22.4904">t</text>
		<text transform="matrix(1 0 0 1 501.0488 400.123)" fill="#BD1B38" font-family="'SourceSansPro-Light'" font-size="22.4904">a</text>
		<text transform="matrix(1 0 0 1 512.2686 400.123)" fill="#BD1B38" font-family="'SourceSansPro-Light'" font-size="22.4904">t</text>
		<text transform="matrix(1 0 0 1 519.0684 400.123)" fill="#BD1B38" font-family="'SourceSansPro-Light'" font-size="22.4904">e </text>
		<text transform="matrix(1 0 0 1 534.3984 400.123)" fill="#BD1B38" font-family="'SourceSansPro-Light'" font-size="22.4904">c</text>
		<text transform="matrix(1 0 0 1 544.1187 400.123)" fill="#BD1B38" font-family="'SourceSansPro-Light'" font-size="22.4904">on el </text>
		<text transform="matrix(1 0 0 1 593.2588 400.123)" fill="#BD1B38" font-family="'SourceSansPro-Light'" font-size="22.4904">f</text>
		<text transform="matrix(1 0 0 1 598.9487 400.123)" fill="#BD1B38" font-family="'SourceSansPro-Light'" font-size="22.4904">esti</text>
		<text transform="matrix(1 0 0 1 631.0889 400.123)" fill="#BD1B38" font-family="'SourceSansPro-Light'" font-size="22.4904">v</text>
		<text transform="matrix(1 0 0 1 640.3984 400.123)" fill="#BD1B38" font-family="'SourceSansPro-Light'" font-size="22.4904">al!</text>
	</g>
	<g>
		<text transform="matrix(1 0 0 1 429.0371 398.1211)" fill="#FFFFFF" font-family="'SourceSansPro-Light'" font-size="22.4904">¡Conéc</text>
		<text transform="matrix(1 0 0 1 492.5073 398.1211)" fill="#FFFFFF" font-family="'SourceSansPro-Light'" font-size="22.4904">t</text>
		<text transform="matrix(1 0 0 1 499.0469 398.1211)" fill="#FFFFFF" font-family="'SourceSansPro-Light'" font-size="22.4904">a</text>
		<text transform="matrix(1 0 0 1 510.2671 398.1211)" fill="#FFFFFF" font-family="'SourceSansPro-Light'" font-size="22.4904">t</text>
		<text transform="matrix(1 0 0 1 517.0674 398.1211)" fill="#FFFFFF" font-family="'SourceSansPro-Light'" font-size="22.4904">e </text>
		<text transform="matrix(1 0 0 1 532.397 398.1211)" fill="#FFFFFF" font-family="'SourceSansPro-Light'" font-size="22.4904">c</text>
		<text transform="matrix(1 0 0 1 542.1172 398.1211)" fill="#FFFFFF" font-family="'SourceSansPro-Light'" font-size="22.4904">on el </text>
		<text transform="matrix(1 0 0 1 591.2568 398.1211)" fill="#FFFFFF" font-family="'SourceSansPro-Light'" font-size="22.4904">f</text>
		<text transform="matrix(1 0 0 1 596.9473 398.1211)" fill="#FFFFFF" font-family="'SourceSansPro-Light'" font-size="22.4904">esti</text>
		<text transform="matrix(1 0 0 1 629.0869 398.1211)" fill="#FFFFFF" font-family="'SourceSansPro-Light'" font-size="22.4904">v</text>
		<text transform="matrix(1 0 0 1 638.397 398.1211)" fill="#FFFFFF" font-family="'SourceSansPro-Light'" font-size="22.4904">al!</text>
	</g>
	<rect x="276" y="35.1" fill="none" width="536" height="240.8"/>
	<text transform="matrix(1 0 0 1 276 45.1816)" fill="#FFFFFF" font-family="'SourceSansPro-Light'" font-size="14">A</text>
	<text transform="matrix(1 0 0 1 283.2402 45.1816)" fill="#FFFFFF" font-family="'SourceSansPro-Light'" font-size="14">unque el </text>
	<text transform="matrix(1 0 0 1 335.4302 45.1816)" fill="#FFFFFF" font-family="'SourceSansPro-Light'" font-size="14">f</text>
	<text transform="matrix(1 0 0 1 338.9702 45.1816)" fill="#FFFFFF" font-family="'SourceSansPro-Light'" font-size="14">esti</text>
	<text transform="matrix(1 0 0 1 358.98 45.1816)" fill="#FFFFFF" font-family="'SourceSansPro-Light'" font-size="14">v</text>
	<text transform="matrix(1 0 0 1 364.77 45.1816)" fill="#FFFFFF" font-family="'SourceSansPro-Light'" font-size="14">al no puede cubrir el t</text>
	<text transform="matrix(1 0 0 1 487.9399 45.1816)" fill="#FFFFFF" font-family="'SourceSansPro-Light'" font-size="14">r</text>
	<text transform="matrix(1 0 0 1 492.0601 45.1816)" fill="#FFFFFF" font-family="'SourceSansPro-Light'" font-size="14">aslado a la Ciudad de Méxi</text>
	<text transform="matrix(1 0 0 1 641.9902 45.1816)" fill="#FFFFFF" font-family="'SourceSansPro-Light'" font-size="14">c</text>
	<text transform="matrix(1 0 0 1 648.04 45.1816)" fill="#FFFFFF" font-family="'SourceSansPro-Light'" font-size="14">o</text>
	<text transform="matrix(1 0 0 1 655.3901 45.1816)" fill="#FFFFFF" font-family="'SourceSansPro-Light'" font-size="14">, si </text>
	<text transform="matrix(1 0 0 1 672.9102 45.1816)" fill="#FFFFFF" font-family="'SourceSansPro-Light'" font-size="14">t</text>
	<text transform="matrix(1 0 0 1 677.1499 45.1816)" fill="#FFFFFF" font-family="'SourceSansPro-Light'" font-size="14">u </text>
	<text transform="matrix(1 0 0 1 687.3398 45.1816)" fill="#FFFFFF" font-family="'SourceSansPro-Light'" font-size="14">c</text>
	<text transform="matrix(1 0 0 1 693.3901 45.1816)" fill="#FFFFFF" font-family="'SourceSansPro-Light'" font-size="14">or</text>
	<text transform="matrix(1 0 0 1 705.3198 45.1816)" fill="#FFFFFF" font-family="'SourceSansPro-Light'" font-size="14">t</text>
	<text transform="matrix(1 0 0 1 709.54 45.1816)" fill="#FFFFFF" font-family="'SourceSansPro-Light'" font-size="14">om</text>
	<text transform="matrix(1 0 0 1 728.3999 45.1816)" fill="#FFFFFF" font-family="'SourceSansPro-Light'" font-size="14">e</text>
	<text transform="matrix(1 0 0 1 735.0098 45.1816)" fill="#FFFFFF" font-family="'SourceSansPro-Light'" font-size="14">t</text>
	<text transform="matrix(1 0 0 1 739.3799 45.1816)" fill="#FFFFFF" font-family="'SourceSansPro-Light'" font-size="14">r</text>
	<text transform="matrix(1 0 0 1 743.4902 45.1816)" fill="#FFFFFF" font-family="'SourceSansPro-Light'" font-size="14">aje </text>
	<text transform="matrix(1 0 0 1 763.2305 45.1816)" fill="#FFFFFF" font-family="'SourceSansPro-Light'" font-size="14">f</text>
	<text transform="matrix(1 0 0 1 766.6094 45.1816)" fill="#FFFFFF" font-family="'SourceSansPro-Light'" font-size="14">ue selec</text>
	<text transform="matrix(1 0 0 1 801.2002 45.1816)" fill="#FFFFFF" font-family="'SourceSansPro-Light'" font-size="14">-</text>
	<text transform="matrix(1 0 0 1 276 66.1816)" fill="#FFFFFF" font-family="'SourceSansPro-Light'" font-size="14">cionad</text>
	<text transform="matrix(1 0 0 1 315.0298 66.1816)" fill="#FFFFFF" font-family="'SourceSansPro-Light'" font-size="14">o</text>
	<text transform="matrix(1 0 0 1 322.3799 66.1816)" fill="#FFFFFF" font-family="'SourceSansPro-Light'" font-size="14">, nos </text>
	<text transform="matrix(1 0 0 1 351.6299 66.1816)" fill="#FFFFFF" font-family="'SourceSansPro-Light'" font-size="14">c</text>
	<text transform="matrix(1 0 0 1 357.6699 66.1816)" fill="#FFFFFF" font-family="'SourceSansPro-Light'" font-size="14">omp</text>
	<text transform="matrix(1 0 0 1 384.1499 66.1816)" fill="#FFFFFF" font-family="'SourceSansPro-Light'" font-size="14">r</text>
	<text transform="matrix(1 0 0 1 388.4502 66.1816)" fill="#FFFFFF" font-family="'SourceSansPro-Light'" font-size="14">om</text>
	<text transform="matrix(1 0 0 1 407.2998 66.1816)" fill="#FFFFFF" font-family="'SourceSansPro-Light'" font-size="14">e</text>
	<text transform="matrix(1 0 0 1 413.9102 66.1816)" fill="#FFFFFF" font-family="'SourceSansPro-Light'" font-size="14">t</text>
	<text transform="matrix(1 0 0 1 418.1401 66.1816)" fill="#FFFFFF" font-family="'SourceSansPro-Light'" font-size="14">emos a p</text>
	<text transform="matrix(1 0 0 1 469.6001 66.1816)" fill="#FFFFFF" font-family="'SourceSansPro-Light'" font-size="14">r</text>
	<text transform="matrix(1 0 0 1 473.8999 66.1816)" fill="#FFFFFF" font-family="'SourceSansPro-Light'" font-size="14">oveer las </text>
	<text transform="matrix(1 0 0 1 526.9697 66.1816)" fill="#FFFFFF" font-family="'SourceSansPro-Light'" font-size="14">c</text>
	<text transform="matrix(1 0 0 1 533.02 66.1816)" fill="#FFFFFF" font-family="'SourceSansPro-Light'" font-size="14">omidas y el t</text>
	<text transform="matrix(1 0 0 1 604.27 66.1816)" fill="#FFFFFF" font-family="'SourceSansPro-Light'" font-size="14">r</text>
	<text transform="matrix(1 0 0 1 608.3799 66.1816)" fill="#FFFFFF" font-family="'SourceSansPro-Light'" font-size="14">anspor</text>
	<text transform="matrix(1 0 0 1 648.0303 66.1816)" fill="#FFFFFF" font-family="'SourceSansPro-Light'" font-size="14">t</text>
	<text transform="matrix(1 0 0 1 652.2598 66.1816)" fill="#FFFFFF" font-family="'SourceSansPro-Light'" font-size="14">e dent</text>
	<text transform="matrix(1 0 0 1 688 66.1816)" fill="#FFFFFF" font-family="'SourceSansPro-Light'" font-size="14">r</text>
	<text transform="matrix(1 0 0 1 692.2998 66.1816)" fill="#FFFFFF" font-family="'SourceSansPro-Light'" font-size="14">o de la ciudad. Si lo </text>
	<text transform="matrix(1 0 0 1 276 87.1816)" fill="#FFFFFF" font-family="'SourceSansPro-Light'" font-size="14">r</text>
	<text transform="matrix(1 0 0 1 280.2998 87.1816)" fill="#FFFFFF" font-family="'SourceSansPro-Light'" font-size="14">equie</text>
	<text transform="matrix(1 0 0 1 311.9502 87.1816)" fill="#FFFFFF" font-family="'SourceSansPro-Light'" font-size="14">r</text>
	<text transform="matrix(1 0 0 1 316.25 87.1816)" fill="#FFFFFF" font-family="'SourceSansPro-Light'" font-size="14">en </text>
	<text transform="matrix(1 0 0 1 333.2402 87.1816)" fill="#FFFFFF" font-family="'SourceSansPro-Light'" font-size="14">t</text>
	<text transform="matrix(1 0 0 1 337.3198 87.1816)" fill="#FFFFFF" font-family="'SourceSansPro-Light'" font-size="14">ambién of</text>
	<text transform="matrix(1 0 0 1 394.6602 87.1816)" fill="#FFFFFF" font-family="'SourceSansPro-Light'" font-size="14">r</text>
	<text transform="matrix(1 0 0 1 398.96 87.1816)" fill="#FFFFFF" font-family="'SourceSansPro-Light'" font-size="14">e</text>
	<text transform="matrix(1 0 0 1 405.7202 87.1816)" fill="#FFFFFF" font-family="'SourceSansPro-Light'" font-size="14">c</text>
	<text transform="matrix(1 0 0 1 411.77 87.1816)" fill="#FFFFFF" font-family="'SourceSansPro-Light'" font-size="14">emos alojamien</text>
	<text transform="matrix(1 0 0 1 502.6099 87.1816)" fill="#FFFFFF" font-family="'SourceSansPro-Light'" font-size="14">t</text>
	<text transform="matrix(1 0 0 1 506.8398 87.1816)" fill="#FFFFFF" font-family="'SourceSansPro-Light'" font-size="14">o en los ho</text>
	<text transform="matrix(1 0 0 1 568.2598 87.1816)" fill="#FFFFFF" font-family="'SourceSansPro-Light'" font-size="14">g</text>
	<text transform="matrix(1 0 0 1 574.8701 87.1816)" fill="#FFFFFF" font-family="'SourceSansPro-Light'" font-size="14">a</text>
	<text transform="matrix(1 0 0 1 581.8501 87.1816)" fill="#FFFFFF" font-family="'SourceSansPro-Light'" font-size="14">r</text>
	<text transform="matrix(1 0 0 1 586.1499 87.1816)" fill="#FFFFFF" font-family="'SourceSansPro-Light'" font-size="14">es del s</text>
	<text transform="matrix(1 0 0 1 627.52 87.1816)" fill="#FFFFFF" font-family="'SourceSansPro-Light'" font-size="14">t</text>
	<text transform="matrix(1 0 0 1 631.5898 87.1816)" fill="#FFFFFF" font-family="'SourceSansPro-Light'" font-size="14">aff del </text>
	<text transform="matrix(1 0 0 1 669.21 87.1816)" fill="#FFFFFF" font-family="'SourceSansPro-Light'" font-size="14">F</text>
	<text transform="matrix(1 0 0 1 675.73 87.1816)" fill="#FFFFFF" font-family="'SourceSansPro-Light'" font-size="14">esti</text>
	<text transform="matrix(1 0 0 1 695.7402 87.1816)" fill="#FFFFFF" font-family="'SourceSansPro-Light'" font-size="14">v</text>
	<text transform="matrix(1 0 0 1 701.54 87.1816)" fill="#FFFFFF" font-family="'SourceSansPro-Light'" font-size="14">al, por lo cual el cupo </text>
	<text transform="matrix(1 0 0 1 276 108.1816)" fill="#FFFFFF" font-family="'SourceSansPro-Light'" font-size="14">es limi</text>
	<text transform="matrix(1 0 0 1 312.3198 108.1816)" fill="#FFFFFF" font-family="'SourceSansPro-Light'" font-size="14">t</text>
	<text transform="matrix(1 0 0 1 316.3901 108.1816)" fill="#FFFFFF" font-family="'SourceSansPro-Light'" font-size="14">ad</text>
	<text transform="matrix(1 0 0 1 330.9902 108.1816)" fill="#FFFFFF" font-family="'SourceSansPro-Light'" font-size="14">o</text>
	<text transform="matrix(1 0 0 1 338.3398 108.1816)" fill="#FFFFFF" font-family="'SourceSansPro-Light'" font-size="14">.</text>
	<polygon fill="#DDB305" points="542.4,221.8 558.3,221.8 550.4,235.5 542.4,249.3 534.5,235.5 526.5,221.8 	"/>
	<text transform="matrix(1 0 0 1 171.7041 611.2715)" fill="#FFFFFF" font-family="'SourceSansPro-Semibold'" font-size="14">Casa</text>
	<text transform="matrix(1 0 0 1 268.7026 611.2715)" fill="#FFFFFF" font-family="'SourceSansPro-Semibold'" font-size="14">In</text>
	<text transform="matrix(1 0 0 1 280.4927 611.2715)" fill="#FFFFFF" font-family="'SourceSansPro-Semibold'" font-size="14">f</text>
	<text transform="matrix(1 0 0 1 284.7925 611.2715)" fill="#FFFFFF" font-family="'SourceSansPro-Semibold'" font-size="14">ormación</text>
	<text transform="matrix(1 0 0 1 411.2183 611.2715)" fill="#FFFFFF" font-family="'SourceSansPro-Semibold'" font-size="14">Blog</text>
	<text transform="matrix(1 0 0 1 519.7183 611.2715)" enable-background="new    "><tspan x="0" y="0" fill="#FFFFFF" font-family="'SourceSansPro-Semibold'" font-size="14">R</tspan><tspan x="8.25" y="0" fill="#FFFFFF" font-family="'SourceSansPro-Semibold'" font-size="14">e</tspan></text>
	<text transform="matrix(1 0 0 1 534.9185 611.2715)" fill="#FFFFFF" font-family="'SourceSansPro-Semibold'" font-size="14">gist</text>
	<text transform="matrix(1 0 0 1 556.9585 611.2715)" fill="#FFFFFF" font-family="'SourceSansPro-Semibold'" font-size="14">r</text>
	<text transform="matrix(1 0 0 1 562.0381 611.2715)" fill="#FFFFFF" font-family="'SourceSansPro-Semibold'" font-size="14">o</text>
	<text transform="matrix(1 0 0 1 466.3857 674.2715)" fill="#FFFFFF" font-family="'SourceSansPro-Regular'" font-size="14">C</text>
	<text transform="matrix(1 0 0 1 473.9756 674.2715)" fill="#FFFFFF" font-family="'SourceSansPro-Regular'" font-size="14">O</text>
	<text transform="matrix(1 0 0 1 483.2656 674.2715)" fill="#FFFFFF" font-family="'SourceSansPro-Regular'" font-size="14">P</text>
	<text transform="matrix(1 0 0 1 491.1958 674.2715)" fill="#FFFFFF" font-family="'SourceSansPro-Regular'" font-size="14">YRIGHT © 2015 KINOKI</text>
	<text transform="matrix(1 0 0 1 637.7188 611.2715)" fill="#FFFFFF" font-family="'SourceSansPro-Semibold'" font-size="14">Con</text>
	<text transform="matrix(1 0 0 1 661.3086 611.2715)" fill="#FFFFFF" font-family="'SourceSansPro-Semibold'" font-size="14">t</text>
	<text transform="matrix(1 0 0 1 666.1489 611.2715)" fill="#FFFFFF" font-family="'SourceSansPro-Semibold'" font-size="14">ac</text>
	<text transform="matrix(1 0 0 1 679.939 611.2715)" fill="#FFFFFF" font-family="'SourceSansPro-Semibold'" font-size="14">t</text>
	<text transform="matrix(1 0 0 1 684.8589 611.2715)" fill="#FFFFFF" font-family="'SourceSansPro-Semibold'" font-size="14">o</text>
	<text transform="matrix(1 0 0 1 771.7246 611.2715)" fill="#FFFFFF" font-family="'SourceSansPro-Semibold'" font-size="14">F</text>
	<text transform="matrix(1 0 0 1 778.334 611.2715)" fill="#FFFFFF" font-family="'SourceSansPro-Semibold'" font-size="14">A</text>
	<text transform="matrix(1 0 0 1 786.0049 611.2715)" fill="#FFFFFF" font-family="'SourceSansPro-Semibold'" font-size="14">Q</text>
	<text transform="matrix(1 0 0 1 872.7256 611.2715)" fill="#FFFFFF" font-family="'SourceSansPro-Semibold'" font-size="14">P</text>
	<text transform="matrix(1 0 0 1 880.4854 611.2715)" fill="#FFFFFF" font-family="'SourceSansPro-Semibold'" font-size="14">at</text>
	<text transform="matrix(1 0 0 1 892.8555 611.2715)" fill="#FFFFFF" font-family="'SourceSansPro-Semibold'" font-size="14">r</text>
	<text transform="matrix(1 0 0 1 897.9355 611.2715)" fill="#FFFFFF" font-family="'SourceSansPro-Semibold'" font-size="14">ocinio</text>
	<g>
		<g>
			<g>
				<rect x="515.5" y="686.6" fill="#FFFFFF" width="4.1" height="24.8"/>
			</g>
		</g>
		<g>
			<g>
				<polygon fill="#FFFFFF" points="524.1,686.6 519.6,699.6 524.1,711.4 528,711.4 523.6,699.6 528.1,686.6 				"/>
			</g>
		</g>
		<g>
			<g>
				<path fill="#FFFFFF" d="M539.7,686.6v14.6l4.1-14.6h2.6c0,0,0.5,0.1,1,0.8c0.4,0.4,0.5,1,0.5,1v23h-4V699l-4.2,12.4h-4.2v-23
					c0,0,0.1-0.5,0.6-1.1c0.4-0.4,1-0.6,1-0.6h2.6V686.6L539.7,686.6z"/>
			</g>
		</g>
		<g>
			<g>
				<path fill="#FFFFFF" d="M558.7,706c0,0,0.5,0,1.3-0.8c0.9-0.8,1.2-1.6,1.2-1.6V694c0,0-0.4-1-1-1.7c-0.7-0.6-1.5-1-1.5-1h-1.9
					v-1.6h4.2v-3.1h-6h-6v3.1h4.2v1.6h-1.9c0,0-0.9,0.4-1.5,1c-0.7,0.7-1,1.7-1,1.7v9.6c0,0,0.3,0.8,1.2,1.6
					c0.9,0.7,1.3,0.8,1.3,0.8h1.7v1.8h-4.1v3.6h6.1h6.1v-3.6H557V706H558.7z M555,702.6h-2.1v-7.8h2.1h2.1v7.8H555z"/>
			</g>
		</g>
		<g>
			<g>
				<rect x="562" y="686.6" fill="#FFFFFF" width="4.1" height="24.8"/>
			</g>
		</g>
		<g>
			<g>
				<polygon fill="#FFFFFF" points="570.6,686.6 566.2,699.6 570.6,711.4 574.5,711.4 570.1,699.6 574.6,686.6 				"/>
			</g>
		</g>
		<g>
			<g>
				<polygon fill="#FFFFFF" points="534.7,686.6 527.5,686.6 528.9,711.4 533.3,711.4 				"/>
			</g>
		</g>
		<g>
			<g>
				<rect x="527.5" y="715.1" fill="#FFFFFF" width="7.2" height="4.9"/>
			</g>
		</g>
		<g>
			<g>
				<polygon fill="#FFFFFF" points="575,711.3 580.3,711.3 579.3,693 576,693 				"/>
			</g>
		</g>
		<g>
			<g>
				<rect x="575" y="686.6" fill="#FFFFFF" width="5.3" height="3.6"/>
			</g>
		</g>
		<g>
			<g>
				<g>
					<path fill="#FFFFFF" d="M535.7,715.6h0.8v0.2H536v0.4h0.5v0.2H536v0.6h-0.3V715.6z"/>
				</g>
			</g>
			<g>
				<g>
					<path fill="#FFFFFF" d="M538.6,716.5H538v0.4h0.6v0.2h-0.9v-1.5h0.8v0.2H538v0.4h0.6V716.5z"/>
				</g>
			</g>
			<g>
				<g>
					<path fill="#FFFFFF" d="M539.8,716.8c0.1,0,0.2,0.1,0.4,0.1s0.3-0.1,0.3-0.2c0-0.1-0.1-0.2-0.3-0.2c-0.2-0.1-0.4-0.2-0.4-0.4
						c0-0.2,0.2-0.4,0.5-0.4c0.2,0,0.3,0,0.4,0.1l-0.1,0.2c-0.1,0-0.2-0.1-0.3-0.1c-0.2,0-0.2,0.1-0.2,0.2c0,0.1,0.1,0.2,0.3,0.2
						c0.3,0.1,0.4,0.2,0.4,0.4s-0.2,0.4-0.6,0.4c-0.2,0-0.3,0-0.4-0.1V716.8L539.8,716.8z"/>
				</g>
			</g>
			<g>
				<g>
					<path fill="#FFFFFF" d="M542.2,715.9h-0.4v-0.2h1.1v0.2h-0.4v1.2h-0.3V715.9L542.2,715.9z"/>
				</g>
			</g>
			<g>
				<g>
					<path fill="#FFFFFF" d="M544.3,715.6v1.5H544v-1.5H544.3z"/>
				</g>
			</g>
			<g>
				<g>
					<path fill="#FFFFFF" d="M545.8,717.1l-0.5-1.5h0.3l0.2,0.7c0.1,0.2,0.1,0.4,0.1,0.5l0,0c0-0.2,0.1-0.4,0.1-0.5l0.2-0.7h0.3
						l-0.5,1.5H545.8z"/>
				</g>
			</g>
			<g>
				<g>
					<path fill="#FFFFFF" d="M547.9,716.7l-0.1,0.4h-0.3l0.5-1.5h0.3l0.5,1.5h-0.3l-0.1-0.4H547.9z M548.4,716.5l-0.1-0.4
						c0-0.1-0.1-0.2-0.1-0.3l0,0c0,0.1,0,0.2-0.1,0.3l-0.1,0.4H548.4z"/>
				</g>
			</g>
			<g>
				<g>
					<path fill="#FFFFFF" d="M550,715.6h0.3v1.2h0.6v0.2H550V715.6z"/>
				</g>
			</g>
			<g>
				<g>
					<path fill="#FFFFFF" d="M553.7,715.6v1.5h-0.3v-1.5H553.7z"/>
				</g>
			</g>
			<g>
				<g>
					<path fill="#FFFFFF" d="M554.9,717.1v-1.5h0.3l0.4,0.6c0.1,0.2,0.2,0.3,0.2,0.5l0,0c0-0.2,0-0.4,0-0.6v-0.5h0.2v1.5h-0.3
						l-0.4-0.6c-0.1-0.2-0.2-0.3-0.3-0.5l0,0c0,0.2,0,0.4,0,0.6v0.5H554.9z"/>
				</g>
			</g>
			<g>
				<g>
					<path fill="#FFFFFF" d="M557.6,715.9h-0.4v-0.2h1.1v0.2h-0.4v1.2h-0.3V715.9L557.6,715.9z"/>
				</g>
			</g>
			<g>
				<g>
					<path fill="#FFFFFF" d="M560.2,716.5h-0.6v0.4h0.6v0.2h-0.9v-1.5h0.8v0.2h-0.6v0.4h0.6v0.3H560.2L560.2,716.5z"/>
				</g>
			</g>
			<g>
				<g>
					<path fill="#FFFFFF" d="M561.5,715.7c0.1,0,0.2,0,0.4,0c0.2,0,0.4,0,0.5,0.1c0.1,0.1,0.1,0.2,0.1,0.3c0,0.2-0.1,0.3-0.3,0.4
						l0,0c0.1,0,0.2,0.1,0.2,0.3s0.1,0.3,0.1,0.4h-0.3c0,0-0.1-0.2-0.1-0.3c0-0.2-0.1-0.3-0.3-0.3h-0.1v0.6h-0.3v-1.5H561.5z
						 M561.8,716.3h0.2c0.2,0,0.3-0.1,0.3-0.2c0-0.2-0.1-0.2-0.3-0.2c-0.1,0-0.1,0-0.2,0V716.3z"/>
				</g>
			</g>
			<g>
				<g>
					<path fill="#FFFFFF" d="M563.7,717.1v-1.5h0.3l0.4,0.6c0.1,0.2,0.2,0.3,0.2,0.5l0,0c0-0.2,0-0.4,0-0.6v-0.5h0.2v1.5h-0.3
						l-0.4-0.6c-0.1-0.2-0.2-0.3-0.3-0.5l0,0c0,0.2,0,0.4,0,0.6v0.5H563.7z"/>
				</g>
			</g>
			<g>
				<g>
					<path fill="#FFFFFF" d="M566.4,716.7l-0.1,0.4H566l0.5-1.5h0.3l0.5,1.5H567l-0.1-0.4H566.4z M566.8,716.5l-0.1-0.4
						c0-0.1-0.1-0.2-0.1-0.3l0,0c0,0.1,0,0.2-0.1,0.3l-0.1,0.4H566.8z"/>
				</g>
			</g>
			<g>
				<g>
					<path fill="#FFFFFF" d="M569.4,717.1c-0.1,0-0.2,0.1-0.4,0.1c-0.5,0-0.7-0.3-0.7-0.7c0-0.5,0.3-0.8,0.8-0.8
						c0.2,0,0.3,0,0.4,0.1l-0.1,0.2c-0.1,0-0.2-0.1-0.3-0.1c-0.3,0-0.5,0.2-0.5,0.5c0,0.3,0.2,0.5,0.5,0.5c0.1,0,0.2,0,0.3-0.1
						V717.1z"/>
				</g>
			</g>
			<g>
				<g>
					<path fill="#FFFFFF" d="M570.9,715.6v1.5h-0.3v-1.5H570.9z"/>
				</g>
			</g>
			<g>
				<g>
					<path fill="#FFFFFF" d="M573.4,716.4c0,0.5-0.3,0.8-0.7,0.8c-0.4,0-0.7-0.3-0.7-0.7s0.3-0.8,0.7-0.8
						C573.2,715.6,573.4,715.9,573.4,716.4z M572.3,716.4c0,0.3,0.2,0.5,0.4,0.5c0.3,0,0.4-0.2,0.4-0.5c0-0.3-0.1-0.5-0.4-0.5
						C572.5,715.8,572.3,716.1,572.3,716.4z"/>
				</g>
			</g>
			<g>
				<g>
					<path fill="#FFFFFF" d="M574.6,717.1v-1.5h0.3l0.4,0.6c0.1,0.2,0.2,0.3,0.2,0.5l0,0c0-0.2,0-0.4,0-0.6v-0.5h0.2v1.5h-0.3
						l-0.4-0.6c-0.1-0.2-0.2-0.3-0.3-0.5l0,0c0,0.2,0,0.4,0,0.6v0.5H574.6z"/>
				</g>
			</g>
			<g>
				<g>
					<path fill="#FFFFFF" d="M577.3,716.7l-0.1,0.4h-0.3l0.5-1.5h0.3l0.5,1.5h-0.3l-0.1-0.4H577.3z M577.7,716.5l-0.1-0.4
						c0-0.1-0.1-0.2-0.1-0.3l0,0c0,0.1,0,0.2-0.1,0.3l-0.1,0.4H577.7z"/>
				</g>
			</g>
			<g>
				<g>
					<path fill="#FFFFFF" d="M579.4,715.6h0.3v1.2h0.6v0.2h-0.9V715.6L579.4,715.6z"/>
				</g>
			</g>
			<g>
				<g>
					<path fill="#FFFFFF" d="M535.7,718.3c0.1,0,0.3,0,0.4,0c0.3,0,0.5,0.1,0.6,0.2c0.1,0.1,0.2,0.3,0.2,0.5c0,0.3-0.1,0.5-0.2,0.6
						c-0.1,0.1-0.4,0.2-0.7,0.2c-0.2,0-0.3,0-0.4,0v-1.5H535.7z M536,719.5h0.1c0.3,0,0.6-0.2,0.6-0.6c0-0.3-0.2-0.5-0.5-0.5
						c-0.1,0-0.1,0-0.2,0V719.5L536,719.5z"/>
				</g>
			</g>
			<g>
				<g>
					<path fill="#FFFFFF" d="M539,719.1h-0.6v0.4h0.6v0.2h-0.9v-1.5h0.8v0.2h-0.6v0.4h0.6v0.3H539L539,719.1z"/>
				</g>
			</g>
			<g>
				<g>
					<path fill="#FFFFFF" d="M544.1,719.7c-0.1,0-0.2,0.1-0.4,0.1c-0.5,0-0.7-0.3-0.7-0.7c0-0.5,0.3-0.8,0.8-0.8
						c0.2,0,0.3,0,0.4,0.1l-0.1,0.2c-0.1,0-0.2-0.1-0.3-0.1c-0.3,0-0.5,0.2-0.5,0.5s0.2,0.5,0.5,0.5c0.1,0,0.2,0,0.3-0.1V719.7z"/>
				</g>
			</g>
			<g>
				<g>
					<path fill="#FFFFFF" d="M545.6,718.2v1.5h-0.3v-1.5H545.6z"/>
				</g>
			</g>
			<g>
				<g>
					<path fill="#FFFFFF" d="M546.9,719.7v-1.5h0.3l0.4,0.6c0.1,0.2,0.2,0.3,0.2,0.5l0,0c0-0.2,0-0.4,0-0.6v-0.5h0.2v1.5h-0.3
						l-0.4-0.6c-0.1-0.2-0.2-0.3-0.3-0.5l0,0c0,0.2,0,0.4,0,0.6v0.5H546.9z"/>
				</g>
			</g>
			<g>
				<g>
					<path fill="#FFFFFF" d="M550.1,719.1h-0.5v0.4h0.6v0.2h-0.9v-1.5h0.8v0.2h-0.6v0.4h0.5v0.3H550.1L550.1,719.1z"/>
				</g>
			</g>
			<g>
				<g>
					<path fill="#FFFFFF" d="M554.5,718.2v0.8c0,0.3,0.1,0.4,0.3,0.4s0.3-0.1,0.3-0.4v-0.8h0.3v0.8c0,0.5-0.2,0.7-0.6,0.7
						c-0.3,0-0.6-0.2-0.6-0.6v-0.8h0.3V718.2z"/>
				</g>
			</g>
			<g>
				<g>
					<path fill="#FFFFFF" d="M556.7,719.7v-1.5h0.3l0.4,0.6c0.1,0.2,0.2,0.3,0.2,0.5l0,0c0-0.2,0-0.4,0-0.6v-0.5h0.2v1.5h-0.3
						l-0.4-0.6c-0.1-0.2-0.2-0.3-0.3-0.5l0,0c0,0.2,0,0.4,0,0.6v0.5H556.7z"/>
				</g>
			</g>
			<g>
				<g>
					<path fill="#FFFFFF" d="M559.4,718.2v1.5h-0.3v-1.5H559.4z"/>
				</g>
			</g>
			<g>
				<g>
					<path fill="#FFFFFF" d="M561,719.7l-0.5-1.5h0.3l0.2,0.7c0.1,0.2,0.1,0.4,0.1,0.5l0,0c0-0.2,0.1-0.3,0.1-0.5l0.2-0.7h0.3
						l-0.5,1.5H561z"/>
				</g>
			</g>
			<g>
				<g>
					<path fill="#FFFFFF" d="M563.7,719.1h-0.5v0.4h0.6v0.2h-0.9v-1.5h0.8v0.2h-0.6v0.4h0.5v0.3H563.7L563.7,719.1z"/>
				</g>
			</g>
			<g>
				<g>
					<path fill="#FFFFFF" d="M565,718.3c0.1,0,0.2,0,0.4,0c0.2,0,0.4,0,0.5,0.1c0.1,0.1,0.1,0.2,0.1,0.3c0,0.2-0.1,0.3-0.3,0.4l0,0
						c0.1,0,0.2,0.1,0.2,0.3c0,0.2,0.1,0.3,0.1,0.4h-0.3c0,0-0.1-0.2-0.1-0.3c0-0.2-0.1-0.3-0.3-0.3h-0.1v0.6H565V718.3z
						 M565.3,718.9h0.2c0.2,0,0.3-0.1,0.3-0.2c0-0.2-0.1-0.2-0.3-0.2c-0.1,0-0.1,0-0.2,0V718.9z"/>
				</g>
			</g>
			<g>
				<g>
					<path fill="#FFFFFF" d="M567.2,719.4c0.1,0.1,0.2,0.1,0.4,0.1c0.2,0,0.3-0.1,0.3-0.2c0-0.1-0.1-0.2-0.3-0.2
						c-0.2-0.1-0.4-0.2-0.4-0.4s0.2-0.4,0.5-0.4c0.2,0,0.3,0,0.4,0.1l-0.1,0.2c-0.1,0-0.2-0.1-0.3-0.1c-0.2,0-0.2,0.1-0.2,0.2
						c0,0.1,0.1,0.2,0.3,0.2c0.3,0.1,0.4,0.2,0.4,0.4s-0.2,0.4-0.6,0.4c-0.2,0-0.3,0-0.4-0.1V719.4L567.2,719.4z"/>
				</g>
			</g>
			<g>
				<g>
					<path fill="#FFFFFF" d="M569.6,718.2v1.5h-0.3v-1.5H569.6z"/>
				</g>
			</g>
			<g>
				<g>
					<path fill="#FFFFFF" d="M571.2,718.5h-0.4v-0.2h1.1v0.2h-0.4v1.2h-0.3V718.5L571.2,718.5z"/>
				</g>
			</g>
			<g>
				<g>
					<path fill="#FFFFFF" d="M573.1,719.3l-0.1,0.4h-0.3l0.5-1.5h0.3l0.5,1.5h-0.3l-0.1-0.4H573.1z M573.5,719.1l-0.1-0.4
						c0-0.1-0.1-0.2-0.1-0.3l0,0c0,0.1,0,0.2-0.1,0.3l-0.1,0.4H573.5z"/>
				</g>
			</g>
			<g>
				<g>
					<path fill="#FFFFFF" d="M575.2,718.3c0.1,0,0.2,0,0.4,0c0.2,0,0.4,0,0.5,0.1c0.1,0.1,0.1,0.2,0.1,0.3c0,0.2-0.1,0.3-0.3,0.4
						l0,0c0.1,0,0.2,0.1,0.2,0.3c0,0.2,0.1,0.3,0.1,0.4h-0.3c0,0-0.1-0.2-0.1-0.3c0-0.2-0.1-0.3-0.3-0.3h-0.1v0.6h-0.3v-1.5H575.2z
						 M575.4,718.9h0.2c0.2,0,0.3-0.1,0.3-0.2c0-0.2-0.1-0.2-0.3-0.2c-0.1,0-0.1,0-0.2,0V718.9z"/>
				</g>
			</g>
			<g>
				<g>
					<path fill="#FFFFFF" d="M577.6,718.2v1.5h-0.3v-1.5H577.6z"/>
				</g>
			</g>
			<g>
				<g>
					<path fill="#FFFFFF" d="M580.2,719c0,0.5-0.3,0.8-0.7,0.8s-0.7-0.3-0.7-0.7c0-0.4,0.3-0.8,0.7-0.8
						C580,718.2,580.2,718.5,580.2,719z M579.1,719c0,0.3,0.1,0.5,0.4,0.5s0.4-0.2,0.4-0.5s-0.1-0.5-0.4-0.5
						C579.3,718.4,579.1,718.7,579.1,719z"/>
				</g>
			</g>
		</g>
	</g>
	<g>
		<path opacity="0.15" enable-background="new    " d="M818.7,518.2c1.1-2.1,2.1-4.2,3.4-6.7c-3.7,0-7,0-10.2,0
			c-5.8,0-8.9-3-8.9-8.8c0-15.2,0-30.5,0-45.7c0-5.8,3-8.8,8.8-8.8c15.2,0,30.5,0,45.7,0c5.8,0,8.6,2.9,8.6,8.6c0,15.3,0,30.7,0,46
			c0,5.9-2.9,8.7-8.8,8.8c-7.1,0-14.1-0.1-21.2,0.1c-2.3,0.1-4.6,0.7-6.7,1.7c-3.5,1.6-6.8,3.6-10.3,5.4
			C819,518.5,818.9,518.3,818.7,518.2z M855.5,462c-13.9,0-27.4,0-41.1,0c0,1.9,0,3.7,0,5.4c13.9,0,27.5,0,41.1,0
			C855.5,465.5,855.5,463.9,855.5,462z M814.4,481.9c13.8,0,27.4,0,41.1,0c0-1.9,0-3.6,0-5.5c-13.8,0-27.4,0-41.1,0
			C814.4,478.3,814.4,480,814.4,481.9z M855.5,496.3c0-2.1,0-3.8,0-5.5c-13.8,0-27.4,0-41,0c0,2,0,3.7,0,5.5
			C828.2,496.3,841.8,496.3,855.5,496.3z"/>
		<path fill="#FFFFFF" d="M815.6,514.3c1.1-2.1,2.1-4.2,3.4-6.7c-3.7,0-7,0-10.2,0c-5.8,0-8.9-3-8.9-8.8c0-15.2,0-30.5,0-45.7
			c0-5.8,3-8.8,8.8-8.8c15.2,0,30.5,0,45.7,0c5.8,0,8.6,2.9,8.6,8.6c0,15.3,0,30.7,0,46c0,5.8-2.9,8.7-8.8,8.8
			c-7.1,0-14.1-0.1-21.2,0.1c-2.3,0.1-4.7,0.7-6.7,1.7c-3.5,1.6-6.8,3.6-10.3,5.4C815.9,514.6,815.8,514.5,815.6,514.3z
			 M852.5,458.1c-13.9,0-27.4,0-41.1,0c0,1.9,0,3.7,0,5.4c13.9,0,27.5,0,41.1,0C852.5,461.7,852.5,460,852.5,458.1z M811.3,478
			c13.8,0,27.4,0,41.2,0c0-1.9,0-3.6,0-5.5c-13.8,0-27.4,0-41.2,0C811.3,474.4,811.3,476.1,811.3,478z M852.4,492.4
			c0-2.1,0-3.8,0-5.5c-13.8,0-27.4,0-41,0c0,2,0,3.7,0,5.5C825.1,492.4,838.7,492.4,852.4,492.4z"/>
	</g>
	<g>
		<path opacity="0.15" enable-background="new    " d="M623.4,481.1h6.6v33.2h12.4v-33.2h9.8l0.7-9.6h-10.5V464
			c0-2.6,2.3-3.5,4.9-3.5c2.6,0,5.3,0.8,5.3,0.8l1.7-9.8c0,0-3.5-1.2-11.8-1.2c-5.1,0-8.1,1.9-10.2,4.8c-2.1,2.7-2.1,7.1-2.1,9.9
			v6.4h-6.6L623.4,481.1L623.4,481.1z"/>
		<path fill="#FFFFFF" d="M621.1,478.8h6.6V512h12.4v-33.2h9.8l0.7-9.6h-10.5v-7.5c0-2.6,2.3-3.5,4.9-3.5s5.3,0.8,5.3,0.8l1.7-9.8
			c0,0-3.5-1.2-11.8-1.2c-5.1,0-8.1,1.9-10.2,4.8c-2.1,2.7-2.1,7.1-2.1,9.9v6.4h-6.6L621.1,478.8L621.1,478.8z"/>
	</g>
	<g>
		<path id="Layer_1_2_" opacity="0.15" enable-background="new    " d="M262.3,484.5l19.9,17.7h-47.6l19.9-17.7l3.9,3.1L262.3,484.5
			z M258.4,480.6L237.9,464H279L258.4,480.6z M265,482.3l17.9-14.4v30.3L265,482.3z M288.5,507.7v-49.1H228v49.1H288.5L288.5,507.7z
			 M251.9,482.3l-18.4,16.3v-31.1L251.9,482.3z"/>
		<path id="Layer_1_3_" fill="#FFFFFF" d="M259.2,481.4l19.9,17.7h-47.6l19.9-17.7l3.9,3.1L259.2,481.4z M255.3,477.5L234.8,461H276
			L255.3,477.5z M261.9,479.2l17.9-14.4v30.3L261.9,479.2z M285.4,504.6v-49.1h-60.5v49.1H285.4L285.4,504.6z M248.8,479.2
			l-18.4,16.3v-31.1L248.8,479.2z"/>
	</g>
	<g>
		<path opacity="0.15" enable-background="new    " d="M483.2,463c-2.3,1-4.9,1.7-7.5,2.1c2.7-1.6,4.8-4.2,5.7-7.2
			c-2.5,1.5-5.3,2.6-8.3,3.2c-2.4-2.5-5.8-4.1-9.5-4.1c-7.2,0-13,5.8-13,13c0,1,0.1,2,0.3,3c-10.8-0.5-20.4-5.7-26.9-13.6
			c-1.1,1.9-1.8,4.2-1.8,6.6c0,4.5,2.3,8.5,5.8,10.9c-2.1-0.1-4.1-0.7-5.9-1.6v0.2c0,6.3,4.5,11.6,10.5,12.8
			c-1.1,0.3-2.2,0.5-3.4,0.5c-0.8,0-1.7-0.1-2.5-0.2c1.7,5.2,6.5,9,12.2,9c-4.5,3.5-10.1,5.6-16.2,5.6c-1,0-2.1-0.1-3.1-0.2
			c5.8,3.7,12.6,5.9,20,5.9c24,0,37.1-19.9,37.1-37.1c0-0.6,0-1.1,0-1.7C479.3,467.9,481.5,465.6,483.2,463"/>
		<path fill="#FFFFFF" d="M480.1,459.9c-2.3,1-4.9,1.7-7.5,2.1c2.7-1.6,4.8-4.2,5.7-7.2c-2.5,1.5-5.3,2.6-8.3,3.2
			c-2.4-2.5-5.8-4.1-9.5-4.1c-7.2,0-13,5.8-13,13c0,1,0.1,2,0.3,3c-10.8-0.5-20.4-5.7-26.9-13.6c-1.1,1.9-1.8,4.2-1.8,6.6
			c0,4.5,2.3,8.5,5.8,10.9c-2.1-0.1-4.1-0.7-5.9-1.6v0.2c0,6.3,4.5,11.6,10.5,12.8c-1.1,0.3-2.2,0.5-3.4,0.5c-0.8,0-1.7-0.1-2.5-0.2
			c1.7,5.2,6.5,8.9,12.2,9.1c-4.5,3.5-10.1,5.6-16.2,5.6c-1,0-2.1-0.1-3.1-0.2c5.8,3.7,12.6,5.9,20,5.9c24,0,37.1-19.9,37.1-37.1
			c0-0.6,0-1.1,0-1.7C476.2,464.8,478.4,462.5,480.1,459.9"/>
	</g>
	<g>
		<g>
			<path fill="#EAEAEA" d="M1498.6,744.3c0,30.8-25.5,55.8-57,55.8h-265.9c-31.5,0-57-25-57-55.8V55.7c0-30.8,25.5-55.8,57-55.8
				h265.9c31.5,0,57,25,57,55.8V744.3z"/>
			<path fill="#FFFFFF" d="M1491,739.4c0,29.4-25.6,53.2-55.6,53.2h-253.5c-30,0-55.6-23.8-55.6-53.2V61.2
				c0-29.4,25.6-53.2,55.6-53.2h253.5c30,0,55.6,23.8,55.6,53.2V739.4z"/>
			<g>
				<g>
					<g>
						<defs>
							<rect id="SVGID_13_" x="1137.9" y="91" width="341.5" height="606.7"/>
						</defs>
						<clipPath id="SVGID_14_">
							<use xlink:href="#SVGID_13_"  overflow="visible"/>
						</clipPath>
						<rect x="1119.9" y="33.6" clip-path="url(#SVGID_14_)" fill="#ED2246" width="422.7" height="659.3"/>
					</g>
				</g>
				<g>
					<g>
						<defs>
							<rect id="SVGID_15_" x="1137.9" y="91" width="341.5" height="606.7"/>
						</defs>
						<clipPath id="SVGID_16_">
							<use xlink:href="#SVGID_15_"  overflow="visible"/>
						</clipPath>
						<rect x="1119.9" y="389.2" clip-path="url(#SVGID_16_)" fill="#BD1B38" width="422.7" height="268.8"/>
					</g>
				</g>
				<g>
					<g>
						<defs>
							<rect id="SVGID_17_" x="1137.9" y="91" width="341.5" height="606.7"/>
						</defs>
						<clipPath id="SVGID_18_">
							<use xlink:href="#SVGID_17_"  overflow="visible"/>
						</clipPath>
						<rect x="1119.4" y="691.7" clip-path="url(#SVGID_18_)" fill="#BD1B38" width="422.7" height="50.8"/>
					</g>
				</g>
			</g>
			<circle fill="#EAEAEA" cx="1308.7" cy="744.5" r="29.3"/>
			<g>
				<circle fill="#EAEAEA" cx="1259.4" cy="55.2" r="4.4"/>
				<path fill="#EAEAEA" d="M1362.3,55.2c0,2.1-1.7,3.7-3.7,3.7h-84.1c-2.1,0-3.7-1.7-3.7-3.7l0,0c0-2.1,1.7-3.7,3.7-3.7h84.1
					C1360.6,51.5,1362.3,53.2,1362.3,55.2L1362.3,55.2z"/>
			</g>
		</g>
	</g>
	<g>
		<g>
			<text transform="matrix(1 0 0 1 1213.04 157.1221)" fill="#BD1B38" font-family="'SourceSansPro-Light'" font-size="19">¡Conéc</text>
			<text transform="matrix(1 0 0 1 1266.6602 157.1221)" fill="#BD1B38" font-family="'SourceSansPro-Light'" font-size="19">t</text>
			<text transform="matrix(1 0 0 1 1272.1895 157.1221)" fill="#BD1B38" font-family="'SourceSansPro-Light'" font-size="19">a</text>
			<text transform="matrix(1 0 0 1 1281.6699 157.1221)" fill="#BD1B38" font-family="'SourceSansPro-Light'" font-size="19">t</text>
			<text transform="matrix(1 0 0 1 1287.4004 157.1221)" fill="#BD1B38" font-family="'SourceSansPro-Light'" font-size="19">e </text>
			<text transform="matrix(1 0 0 1 1300.3594 157.1221)" fill="#BD1B38" font-family="'SourceSansPro-Light'" font-size="19">c</text>
			<text transform="matrix(1 0 0 1 1308.5703 157.1221)" fill="#BD1B38" font-family="'SourceSansPro-Light'" font-size="19">on el </text>
			<text transform="matrix(1 0 0 1 1350.0801 157.1221)" fill="#BD1B38" font-family="'SourceSansPro-Light'" font-size="19">f</text>
			<text transform="matrix(1 0 0 1 1354.8906 157.1221)" fill="#BD1B38" font-family="'SourceSansPro-Light'" font-size="19">esti</text>
			<text transform="matrix(1 0 0 1 1382.04 157.1221)" fill="#BD1B38" font-family="'SourceSansPro-Light'" font-size="19">v</text>
			<text transform="matrix(1 0 0 1 1389.9102 157.1221)" fill="#BD1B38" font-family="'SourceSansPro-Light'" font-size="19">al!</text>
		</g>
		<g>
			<text transform="matrix(1 0 0 1 1211.0391 155.1211)" fill="#FFFFFF" font-family="'SourceSansPro-Light'" font-size="19">¡Conéc</text>
			<text transform="matrix(1 0 0 1 1264.6592 155.1211)" fill="#FFFFFF" font-family="'SourceSansPro-Light'" font-size="19">t</text>
			<text transform="matrix(1 0 0 1 1270.1895 155.1211)" fill="#FFFFFF" font-family="'SourceSansPro-Light'" font-size="19">a</text>
			<text transform="matrix(1 0 0 1 1279.6689 155.1211)" fill="#FFFFFF" font-family="'SourceSansPro-Light'" font-size="19">t</text>
			<text transform="matrix(1 0 0 1 1285.4092 155.1211)" fill="#FFFFFF" font-family="'SourceSansPro-Light'" font-size="19">e </text>
			<text transform="matrix(1 0 0 1 1298.3594 155.1211)" fill="#FFFFFF" font-family="'SourceSansPro-Light'" font-size="19">c</text>
			<text transform="matrix(1 0 0 1 1306.5693 155.1211)" fill="#FFFFFF" font-family="'SourceSansPro-Light'" font-size="19">on el </text>
			<text transform="matrix(1 0 0 1 1348.0791 155.1211)" fill="#FFFFFF" font-family="'SourceSansPro-Light'" font-size="19">f</text>
			<text transform="matrix(1 0 0 1 1352.8887 155.1211)" fill="#FFFFFF" font-family="'SourceSansPro-Light'" font-size="19">esti</text>
			<text transform="matrix(1 0 0 1 1380.0391 155.1211)" fill="#FFFFFF" font-family="'SourceSansPro-Light'" font-size="19">v</text>
			<text transform="matrix(1 0 0 1 1387.9092 155.1211)" fill="#FFFFFF" font-family="'SourceSansPro-Light'" font-size="19">al!</text>
		</g>
	</g>
	<g>
		<path opacity="0.15" enable-background="new    " d="M1375.4,347.9c0.8-1.7,1.7-3.3,2.7-5.3c-3,0-5.5,0-8.1,0
			c-4.6,0-7.1-2.4-7.1-7c0-12.1,0-24.3,0-36.4c0-4.6,2.4-7,7-7c12.1,0,24.3,0,36.4,0c4.6,0,6.9,2.3,6.9,6.9c0,12.2,0,24.5,0,36.7
			c0,4.7-2.3,7-7.1,7c-5.6,0-11.3-0.1-16.9,0.1c-1.8,0.1-3.7,0.6-5.4,1.3c-2.8,1.2-5.5,2.8-8.2,4.3
			C1375.6,348.1,1375.5,348,1375.4,347.9z M1404.7,303.1c-11.1,0-21.9,0-32.7,0c0,1.6,0,3,0,4.3c11.1,0,21.9,0,32.7,0
			C1404.7,305.9,1404.7,304.6,1404.7,303.1z M1371.9,319c11,0,21.8,0,32.8,0c0-1.5,0-2.9,0-4.4c-11,0-21.8,0-32.8,0
			C1371.9,316.1,1371.9,317.5,1371.9,319z M1404.7,330.4c0-1.6,0-3,0-4.4c-11,0-21.9,0-32.7,0c0,1.6,0,3,0,4.4
			C1383,330.4,1393.8,330.4,1404.7,330.4z"/>
		<path fill="#FFFFFF" d="M1372.9,344.8c0.8-1.7,1.7-3.3,2.7-5.3c-3,0-5.5,0-8.1,0c-4.6,0-7.1-2.4-7.1-7c0-12.1,0-24.3,0-36.4
			c0-4.6,2.4-7,7-7c12.1,0,24.3,0,36.4,0c4.6,0,6.9,2.3,6.9,6.9c0,12.2,0,24.5,0,36.7c0,4.7-2.3,7-7.1,7c-5.6,0-11.3-0.1-16.9,0.1
			c-1.8,0.1-3.7,0.6-5.4,1.3c-2.8,1.2-5.5,2.8-8.2,4.3C1373.1,345.1,1373,344.9,1372.9,344.8z M1402.3,300c-11.1,0-21.9,0-32.8,0
			c0,1.6,0,3,0,4.3c11.1,0,21.9,0,32.8,0C1402.3,302.8,1402.3,301.5,1402.3,300z M1369.5,315.9c11,0,21.8,0,32.8,0
			c0-1.5,0-2.9,0-4.4c-11,0-21.8,0-32.8,0C1369.5,313,1369.5,314.4,1369.5,315.9z M1402.2,327.3c0-1.6,0-3,0-4.4
			c-11,0-21.9,0-32.7,0c0,1.6,0,3,0,4.4C1380.5,327.3,1391.3,327.3,1402.2,327.3z"/>
	</g>
	<g>
		<path opacity="0.15" enable-background="new    " d="M1219.7,318.3h5.3v26.5h9.9v-26.5h7.8l0.6-7.6h-8.4v-5.9c0-2,1.8-2.8,3.9-2.8
			c2,0,4.2,0.6,4.2,0.6l1.3-7.8c0,0-2.8-0.9-9.4-0.9c-4.1,0-6.4,1.6-8.2,3.8c-1.6,2.2-1.7,5.6-1.7,7.9v5.1h-5.3V318.3L1219.7,318.3z
			"/>
		<path fill="#FFFFFF" d="M1217.8,316.5h5.3V343h9.9v-26.5h7.8l0.6-7.6h-8.4V303c0-2,1.8-2.8,3.9-2.8c2,0,4.2,0.6,4.2,0.6l1.3-7.8
			c0,0-2.8-0.9-9.4-0.9c-4.1,0-6.4,1.6-8.2,3.8c-1.6,2.1-1.7,5.6-1.7,7.9v5.1h-5.3V316.5L1217.8,316.5z"/>
	</g>
	<g>
		<path id="Layer_1_4_" opacity="0.15" enable-background="new    " d="M1237,229.7l15.9,14.1H1215l15.9-14.1l3.1,2.5L1237,229.7z
			 M1233.9,226.5l-16.4-13.2h32.8L1233.9,226.5z M1239.1,227.9l14.3-11.5v24.2L1239.1,227.9z M1257.8,248.1V209h-48.2v39.2h48.2
			V248.1z M1228.6,227.9l-14.6,13v-24.8L1228.6,227.9z"/>
		<path id="Layer_1_5_" fill="#FFFFFF" d="M1234.5,227.2l15.9,14.1h-37.9l15.9-14.1l3.1,2.5L1234.5,227.2z M1231.4,224.1l-16.4-13.2
			h32.8L1231.4,224.1z M1236.7,225.5L1251,214v24.2L1236.7,225.5z M1255.4,245.7v-39.2h-48.2v39.2H1255.4L1255.4,245.7z
			 M1226.2,225.5l-14.6,13v-24.8L1226.2,225.5z"/>
	</g>
	<g>
		<path opacity="0.15" enable-background="new    " d="M1413.1,212.5c-1.9,0.8-3.9,1.4-6,1.6c2.1-1.3,3.8-3.3,4.6-5.8
			c-2,1.2-4.2,2.1-6.6,2.5c-1.9-2-4.6-3.3-7.6-3.3c-5.7,0-10.4,4.7-10.4,10.4c0,0.8,0.1,1.6,0.3,2.4c-8.6-0.4-16.3-4.6-21.4-10.9
			c-0.9,1.5-1.4,3.3-1.4,5.2c0,3.6,1.8,6.8,4.6,8.7c-1.7-0.1-3.3-0.5-4.7-1.3v0.1c0,5,3.6,9.2,8.3,10.2c-0.9,0.2-1.8,0.4-2.7,0.4
			c-0.7,0-1.3-0.1-2-0.2c1.3,4.1,5.2,7.1,9.7,7.2c-3.6,2.8-8,4.5-12.9,4.5c-0.8,0-1.7,0-2.5-0.1c4.6,2.9,10.1,4.7,15.9,4.7
			c19.1,0,29.6-15.8,29.6-29.6c0-0.5,0-0.9,0-1.3C1410,216.4,1411.7,214.6,1413.1,212.5"/>
		<path fill="#FFFFFF" d="M1410.6,210c-1.9,0.8-3.9,1.4-6,1.6c2.1-1.3,3.8-3.3,4.6-5.8c-2,1.2-4.2,2.1-6.6,2.5
			c-1.9-2-4.6-3.3-7.6-3.3c-5.7,0-10.4,4.7-10.4,10.4c0,0.8,0.1,1.6,0.3,2.4c-8.6-0.4-16.3-4.6-21.4-10.9c-0.9,1.5-1.4,3.3-1.4,5.2
			c0,3.6,1.8,6.8,4.6,8.7c-1.7-0.1-3.3-0.5-4.7-1.3v0.1c0,5,3.6,9.2,8.3,10.2c-0.9,0.2-1.8,0.4-2.7,0.4c-0.7,0-1.3-0.1-2-0.2
			c1.3,4.1,5.2,7.1,9.7,7.2c-3.6,2.8-8,4.5-12.9,4.5c-0.8,0-1.7,0-2.5-0.1c4.6,2.9,10.1,4.7,15.9,4.7c19.1,0,29.6-15.8,29.6-29.6
			c0-0.5,0-0.9,0-1.3C1407.5,213.9,1409.3,212.1,1410.6,210"/>
	</g>
	<text transform="matrix(1 0 0 1 1165.6914 435.293)" fill="#FFFFFF" font-family="'SourceSansPro-Semibold'" font-size="14">Casa</text>
	<text transform="matrix(1 0 0 1 1228.668 435.293)" fill="#FFFFFF" font-family="'SourceSansPro-Semibold'" font-size="14">In</text>
	<text transform="matrix(1 0 0 1 1240.458 435.293)" fill="#FFFFFF" font-family="'SourceSansPro-Semibold'" font-size="14">f</text>
	<text transform="matrix(1 0 0 1 1244.7578 435.293)" fill="#FFFFFF" font-family="'SourceSansPro-Semibold'" font-size="14">ormación</text>
	<text transform="matrix(1 0 0 1 1342.165 435.293)" fill="#FFFFFF" font-family="'SourceSansPro-Semibold'" font-size="14">Blog</text>
	<text transform="matrix(1 0 0 1 1401.6338 435.293)" enable-background="new    "><tspan x="0" y="0" fill="#FFFFFF" font-family="'SourceSansPro-Semibold'" font-size="14">R</tspan><tspan x="8.25" y="0" fill="#FFFFFF" font-family="'SourceSansPro-Semibold'" font-size="14">e</tspan></text>
	<text transform="matrix(1 0 0 1 1416.834 435.293)" fill="#FFFFFF" font-family="'SourceSansPro-Semibold'" font-size="14">gist</text>
	<text transform="matrix(1 0 0 1 1438.874 435.293)" fill="#FFFFFF" font-family="'SourceSansPro-Semibold'" font-size="14">r</text>
	<text transform="matrix(1 0 0 1 1443.9531 435.293)" fill="#FFFFFF" font-family="'SourceSansPro-Semibold'" font-size="14">o</text>
	<text transform="matrix(1 0 0 1 1184.6807 474.2949)" fill="#FFFFFF" font-family="'SourceSansPro-Semibold'" font-size="14">Con</text>
	<text transform="matrix(1 0 0 1 1208.2705 474.2949)" fill="#FFFFFF" font-family="'SourceSansPro-Semibold'" font-size="14">t</text>
	<text transform="matrix(1 0 0 1 1213.1113 474.2949)" fill="#FFFFFF" font-family="'SourceSansPro-Semibold'" font-size="14">ac</text>
	<text transform="matrix(1 0 0 1 1226.9004 474.2949)" fill="#FFFFFF" font-family="'SourceSansPro-Semibold'" font-size="14">t</text>
	<text transform="matrix(1 0 0 1 1231.8203 474.2949)" fill="#FFFFFF" font-family="'SourceSansPro-Semibold'" font-size="14">o</text>
	<text transform="matrix(1 0 0 1 1296.6719 474.2949)" fill="#FFFFFF" font-family="'SourceSansPro-Semibold'" font-size="14">F</text>
	<text transform="matrix(1 0 0 1 1303.2812 474.2949)" fill="#FFFFFF" font-family="'SourceSansPro-Semibold'" font-size="14">A</text>
	<text transform="matrix(1 0 0 1 1310.9521 474.2949)" fill="#FFFFFF" font-family="'SourceSansPro-Semibold'" font-size="14">Q</text>
	<text transform="matrix(1 0 0 1 1369.6562 474.2949)" fill="#FFFFFF" font-family="'SourceSansPro-Semibold'" font-size="14">P</text>
	<text transform="matrix(1 0 0 1 1377.416 474.2949)" fill="#FFFFFF" font-family="'SourceSansPro-Semibold'" font-size="14">at</text>
	<text transform="matrix(1 0 0 1 1389.7861 474.2949)" fill="#FFFFFF" font-family="'SourceSansPro-Semibold'" font-size="14">r</text>
	<text transform="matrix(1 0 0 1 1394.8662 474.2949)" fill="#FFFFFF" font-family="'SourceSansPro-Semibold'" font-size="14">ocinio</text>
	<text transform="matrix(1 0 0 1 1231.3242 542.2686)" fill="#FFFFFF" font-family="'SourceSansPro-Regular'" font-size="14">C</text>
	<text transform="matrix(1 0 0 1 1238.9141 542.2686)" fill="#FFFFFF" font-family="'SourceSansPro-Regular'" font-size="14">O</text>
	<text transform="matrix(1 0 0 1 1248.2041 542.2686)" fill="#FFFFFF" font-family="'SourceSansPro-Regular'" font-size="14">P</text>
	<text transform="matrix(1 0 0 1 1256.1348 542.2686)" fill="#FFFFFF" font-family="'SourceSansPro-Regular'" font-size="14">YRIGHT © 2015 KINOKI</text>
	<g>
		<g>
			<g>
				<rect x="1263" y="561.1" fill="#FFFFFF" width="5.7" height="34.3"/>
			</g>
		</g>
		<g>
			<g>
				<polygon fill="#FFFFFF" points="1274.9,561.1 1268.7,579.1 1274.8,595.5 1280.3,595.5 1274.1,579.1 1280.3,561.1 				"/>
			</g>
		</g>
		<g>
			<g>
				<path fill="#FFFFFF" d="M1296.5,561.1v20.3l5.7-20.3h3.6c0,0,0.6,0.2,1.4,1c0.5,0.6,0.6,1.4,0.6,1.4v31.9h-5.5v-17.2l-5.8,17.2
					h-5.8v-31.9c0,0,0.2-0.7,0.9-1.5c0.5-0.6,1.4-0.9,1.4-0.9H1296.5z"/>
			</g>
		</g>
		<g>
			<g>
				<path fill="#FFFFFF" d="M1322.8,588c0,0,0.6-0.1,1.9-1.1c1.3-1.1,1.7-2.2,1.7-2.2v-13.4c0,0-0.5-1.4-1.4-2.3s-2.1-1.4-2.1-1.4
					h-2.6v-2.2h5.9v-4.3h-8.3h-8.3v4.3h5.9v2.2h-2.6c0,0-1.2,0.5-2.1,1.4c-0.9,0.9-1.4,2.3-1.4,2.3v13.4c0,0,0.4,1.1,1.7,2.2
					c1.2,1,1.9,1.1,1.9,1.1h2.4v2.5h-5.7v5h8.4h8.4v-5h-5.7V588H1322.8z M1317.7,583.3h-2.9v-10.9h2.9h2.9v10.9H1317.7z"/>
			</g>
		</g>
		<g>
			<g>
				<rect x="1327.4" y="561.1" fill="#FFFFFF" width="5.7" height="34.3"/>
			</g>
		</g>
		<g>
			<g>
				<polygon fill="#FFFFFF" points="1339.3,561.1 1333.1,579.1 1339.3,595.5 1344.7,595.5 1338.6,579.1 1344.8,561.1 				"/>
			</g>
		</g>
		<g>
			<g>
				<polygon fill="#FFFFFF" points="1289.5,561.1 1279.6,561.1 1281.5,595.5 1287.6,595.5 				"/>
			</g>
		</g>
		<g>
			<g>
				<rect x="1279.6" y="600.6" fill="#FFFFFF" width="9.9" height="6.8"/>
			</g>
		</g>
		<g>
			<g>
				<polygon fill="#FFFFFF" points="1345.4,595.4 1352.8,595.4 1351.3,570 1346.8,570 				"/>
			</g>
		</g>
		<g>
			<g>
				<rect x="1345.4" y="561.1" fill="#FFFFFF" width="7.4" height="5"/>
			</g>
		</g>
		<g>
			<g>
				<g>
					<path fill="#FFFFFF" d="M1290.9,601.4h1.2v0.3h-0.8v0.6h0.7v0.3h-0.7v0.9h-0.4V601.4L1290.9,601.4z"/>
				</g>
			</g>
			<g>
				<g>
					<path fill="#FFFFFF" d="M1294.9,602.5h-0.8v0.6h0.9v0.3h-1.2v-2h1.2v0.3h-0.8v0.5h0.8v0.3H1294.9L1294.9,602.5z"/>
				</g>
			</g>
			<g>
				<g>
					<path fill="#FFFFFF" d="M1296.6,603c0.1,0.1,0.3,0.1,0.5,0.1c0.2,0,0.4-0.1,0.4-0.3s-0.1-0.2-0.4-0.3c-0.3-0.1-0.5-0.3-0.5-0.6
						c0-0.3,0.3-0.6,0.7-0.6c0.2,0,0.4,0,0.5,0.1l-0.1,0.3c-0.1,0-0.2-0.1-0.4-0.1s-0.3,0.1-0.3,0.2c0,0.2,0.1,0.2,0.4,0.3
						c0.4,0.1,0.5,0.3,0.5,0.6s-0.2,0.6-0.8,0.6c-0.2,0-0.4-0.1-0.5-0.1V603L1296.6,603z"/>
				</g>
			</g>
			<g>
				<g>
					<path fill="#FFFFFF" d="M1299.9,601.7h-0.6v-0.3h1.5v0.3h-0.6v1.7h-0.4v-1.7H1299.9z"/>
				</g>
			</g>
			<g>
				<g>
					<path fill="#FFFFFF" d="M1302.8,601.4v2h-0.4v-2H1302.8z"/>
				</g>
			</g>
			<g>
				<g>
					<path fill="#FFFFFF" d="M1305,603.4l-0.7-2h0.4l0.3,0.9c0.1,0.3,0.1,0.5,0.2,0.7l0,0c0.1-0.2,0.1-0.5,0.2-0.7l0.3-0.9h0.4
						l-0.7,2H1305z"/>
				</g>
			</g>
			<g>
				<g>
					<path fill="#FFFFFF" d="M1307.9,602.9l-0.2,0.6h-0.4l0.6-2h0.5l0.7,2h-0.4l-0.2-0.6H1307.9z M1308.5,602.6l-0.2-0.5
						c0-0.1-0.1-0.3-0.1-0.4l0,0c0,0.1-0.1,0.3-0.1,0.4l-0.2,0.5H1308.5z"/>
				</g>
			</g>
			<g>
				<g>
					<path fill="#FFFFFF" d="M1310.7,601.4h0.4v1.7h0.8v0.3h-1.2V601.4L1310.7,601.4z"/>
				</g>
			</g>
			<g>
				<g>
					<path fill="#FFFFFF" d="M1315.8,601.4v2h-0.4v-2H1315.8z"/>
				</g>
			</g>
			<g>
				<g>
					<path fill="#FFFFFF" d="M1317.6,603.4v-2h0.4l0.5,0.9c0.1,0.2,0.3,0.5,0.3,0.7l0,0c0-0.3,0-0.5,0-0.8v-0.7h0.3v2h-0.4l-0.5-0.9
						c-0.1-0.2-0.3-0.5-0.4-0.7l0,0c0,0.3,0,0.5,0,0.9v0.7h-0.2V603.4L1317.6,603.4z"/>
				</g>
			</g>
			<g>
				<g>
					<path fill="#FFFFFF" d="M1321.3,601.7h-0.6v-0.3h1.5v0.3h-0.6v1.7h-0.4v-1.7H1321.3z"/>
				</g>
			</g>
			<g>
				<g>
					<path fill="#FFFFFF" d="M1324.9,602.5h-0.8v0.6h0.9v0.3h-1.2v-2h1.2v0.3h-0.8v0.5h0.8v0.3H1324.9L1324.9,602.5z"/>
				</g>
			</g>
			<g>
				<g>
					<path fill="#FFFFFF" d="M1326.7,601.4c0.1,0,0.3,0,0.6,0s0.5,0,0.6,0.2c0.1,0.1,0.2,0.2,0.2,0.4c0,0.3-0.2,0.4-0.4,0.5l0,0
						c0.1,0.1,0.2,0.2,0.3,0.4c0.1,0.3,0.1,0.5,0.2,0.6h-0.4c0-0.1-0.1-0.2-0.1-0.5c-0.1-0.3-0.2-0.4-0.4-0.4h-0.2v0.8h-0.4V601.4
						L1326.7,601.4z M1327,602.3h0.2c0.2,0,0.4-0.1,0.4-0.3s-0.2-0.3-0.4-0.3c-0.1,0-0.2,0-0.2,0V602.3z"/>
				</g>
			</g>
			<g>
				<g>
					<path fill="#FFFFFF" d="M1329.7,603.4v-2h0.4l0.5,0.9c0.1,0.2,0.3,0.5,0.3,0.7l0,0c0-0.3,0-0.5,0-0.8v-0.7h0.3v2h-0.4l-0.5-0.9
						c-0.1-0.2-0.3-0.5-0.4-0.7l0,0c0,0.3,0,0.5,0,0.9v0.7h-0.2V603.4L1329.7,603.4z"/>
				</g>
			</g>
			<g>
				<g>
					<path fill="#FFFFFF" d="M1333.5,602.9l-0.2,0.6h-0.4l0.6-2h0.5l0.7,2h-0.4l-0.2-0.6H1333.5z M1334,602.6l-0.2-0.5
						c0-0.1-0.1-0.3-0.1-0.4l0,0c0,0.1-0.1,0.3-0.1,0.4l-0.2,0.5H1334z"/>
				</g>
			</g>
			<g>
				<g>
					<path fill="#FFFFFF" d="M1337.7,603.4c-0.1,0-0.3,0.1-0.5,0.1c-0.6,0-1-0.4-1-1c0-0.7,0.5-1.1,1.1-1.1c0.2,0,0.4,0.1,0.5,0.1
						l-0.1,0.3c-0.1,0-0.2-0.1-0.4-0.1c-0.4,0-0.7,0.3-0.7,0.7c0,0.4,0.3,0.7,0.7,0.7c0.2,0,0.3,0,0.4-0.1V603.4z"/>
				</g>
			</g>
			<g>
				<g>
					<path fill="#FFFFFF" d="M1339.7,601.4v2h-0.4v-2H1339.7z"/>
				</g>
			</g>
			<g>
				<g>
					<path fill="#FFFFFF" d="M1343.2,602.4c0,0.7-0.4,1.1-1,1.1c-0.6,0-0.9-0.4-0.9-1s0.4-1.1,1-1.1
						C1342.9,601.4,1343.2,601.8,1343.2,602.4z M1341.7,602.4c0,0.4,0.2,0.7,0.6,0.7c0.4,0,0.6-0.3,0.6-0.8c0-0.4-0.2-0.7-0.6-0.7
						C1341.9,601.7,1341.7,602,1341.7,602.4z"/>
				</g>
			</g>
			<g>
				<g>
					<path fill="#FFFFFF" d="M1344.9,603.4v-2h0.4l0.5,0.9c0.1,0.2,0.2,0.5,0.3,0.7l0,0c0-0.3,0-0.5,0-0.8v-0.7h0.3v2h-0.4l-0.5-0.9
						c-0.1-0.2-0.3-0.5-0.4-0.7l0,0c0,0.3,0,0.5,0,0.9v0.7h-0.2V603.4L1344.9,603.4z"/>
				</g>
			</g>
			<g>
				<g>
					<path fill="#FFFFFF" d="M1348.6,602.9l-0.2,0.6h-0.4l0.6-2h0.5l0.7,2h-0.4l-0.2-0.6H1348.6z M1349.2,602.6l-0.2-0.5
						c0-0.1-0.1-0.3-0.1-0.4l0,0c0,0.1-0.1,0.3-0.1,0.4l-0.2,0.5H1349.2z"/>
				</g>
			</g>
			<g>
				<g>
					<path fill="#FFFFFF" d="M1351.4,601.4h0.4v1.7h0.8v0.3h-1.2V601.4L1351.4,601.4z"/>
				</g>
			</g>
			<g>
				<g>
					<path fill="#FFFFFF" d="M1290.9,605c0.2,0,0.4,0,0.6,0c0.4,0,0.6,0.1,0.8,0.2c0.2,0.2,0.3,0.4,0.3,0.7c0,0.4-0.1,0.6-0.3,0.8
						s-0.5,0.3-0.9,0.3c-0.2,0-0.4,0-0.5,0V605z M1291.3,606.8c0.1,0,0.1,0,0.2,0c0.5,0,0.8-0.3,0.8-0.8c0-0.4-0.3-0.7-0.7-0.7
						c-0.1,0-0.2,0-0.3,0V606.8z"/>
				</g>
			</g>
			<g>
				<g>
					<path fill="#FFFFFF" d="M1295.5,606.1h-0.8v0.6h0.9v0.3h-1.2v-2h1.2v0.3h-0.8v0.5h0.8v0.3H1295.5L1295.5,606.1z"/>
				</g>
			</g>
			<g>
				<g>
					<path fill="#FFFFFF" d="M1302.6,607c-0.1,0-0.3,0.1-0.5,0.1c-0.6,0-1-0.4-1-1c0-0.7,0.5-1.1,1.1-1.1c0.2,0,0.4,0,0.5,0.1
						l-0.1,0.3c-0.1,0-0.2-0.1-0.4-0.1c-0.4,0-0.7,0.3-0.7,0.7s0.3,0.7,0.7,0.7c0.2,0,0.3,0,0.4-0.1V607z"/>
				</g>
			</g>
			<g>
				<g>
					<path fill="#FFFFFF" d="M1304.6,605v2h-0.4v-2H1304.6z"/>
				</g>
			</g>
			<g>
				<g>
					<path fill="#FFFFFF" d="M1306.4,607v-2h0.4l0.5,0.9c0.1,0.2,0.3,0.5,0.3,0.7l0,0c0-0.3,0-0.5,0-0.8V605h0.3v2h-0.4l-0.5-0.9
						c-0.1-0.2-0.3-0.5-0.4-0.7l0,0c0,0.3,0,0.5,0,0.9v0.7H1306.4z"/>
				</g>
			</g>
			<g>
				<g>
					<path fill="#FFFFFF" d="M1310.9,606.1h-0.8v0.6h0.8v0.3h-1.2v-2h1.2v0.3h-0.8v0.5h0.8V606.1z"/>
				</g>
			</g>
			<g>
				<g>
					<path fill="#FFFFFF" d="M1317,605v1.2c0,0.4,0.2,0.6,0.4,0.6c0.3,0,0.4-0.2,0.4-0.6V605h0.4v1.2c0,0.6-0.3,0.9-0.8,0.9
						s-0.8-0.3-0.8-0.9V605H1317z"/>
				</g>
			</g>
			<g>
				<g>
					<path fill="#FFFFFF" d="M1320,607v-2h0.4l0.5,0.9c0.1,0.2,0.3,0.5,0.3,0.7l0,0c0-0.3,0-0.5,0-0.8V605h0.3v2h-0.4l-0.5-0.9
						c-0.1-0.2-0.3-0.5-0.4-0.7l0,0c0,0.3,0,0.5,0,0.9v0.7H1320z"/>
				</g>
			</g>
			<g>
				<g>
					<path fill="#FFFFFF" d="M1323.7,605v2h-0.4v-2H1323.7z"/>
				</g>
			</g>
			<g>
				<g>
					<path fill="#FFFFFF" d="M1326,607l-0.7-2h0.4l0.3,0.9c0.1,0.3,0.1,0.5,0.2,0.7l0,0c0.1-0.2,0.1-0.5,0.2-0.7l0.3-0.9h0.4l-0.7,2
						H1326z"/>
				</g>
			</g>
			<g>
				<g>
					<path fill="#FFFFFF" d="M1329.8,606.1h-0.8v0.6h0.9v0.3h-1.2v-2h1.2v0.3h-0.8v0.5h0.8v0.3H1329.8L1329.8,606.1z"/>
				</g>
			</g>
			<g>
				<g>
					<path fill="#FFFFFF" d="M1331.6,605c0.1,0,0.3,0,0.6,0s0.5,0,0.6,0.2c0.1,0.1,0.2,0.2,0.2,0.4c0,0.3-0.2,0.4-0.4,0.5l0,0
						c0.1,0.1,0.2,0.2,0.3,0.4c0.1,0.3,0.1,0.5,0.2,0.6h-0.4c0-0.1-0.1-0.2-0.1-0.5c-0.1-0.3-0.2-0.4-0.4-0.4h-0.2v0.8h-0.4V605
						L1331.6,605z M1331.9,605.9h0.2c0.2,0,0.4-0.1,0.4-0.3c0-0.2-0.2-0.3-0.4-0.3c-0.1,0-0.2,0-0.2,0V605.9z"/>
				</g>
			</g>
			<g>
				<g>
					<path fill="#FFFFFF" d="M1334.6,606.6c0.1,0.1,0.3,0.1,0.5,0.1c0.2,0,0.4-0.1,0.4-0.3c0-0.2-0.1-0.2-0.4-0.3
						c-0.3-0.1-0.5-0.3-0.5-0.6s0.3-0.6,0.7-0.6c0.2,0,0.4,0,0.5,0.1l-0.1,0.3c-0.1,0-0.2-0.1-0.4-0.1s-0.3,0.1-0.3,0.2
						c0,0.2,0.1,0.2,0.4,0.3c0.4,0.1,0.5,0.3,0.5,0.6s-0.2,0.6-0.8,0.6c-0.2,0-0.4-0.1-0.5-0.1V606.6L1334.6,606.6z"/>
				</g>
			</g>
			<g>
				<g>
					<path fill="#FFFFFF" d="M1337.9,605v2h-0.4v-2H1337.9z"/>
				</g>
			</g>
			<g>
				<g>
					<path fill="#FFFFFF" d="M1340.1,605.3h-0.6V605h1.5v0.3h-0.6v1.7h-0.4v-1.7H1340.1z"/>
				</g>
			</g>
			<g>
				<g>
					<path fill="#FFFFFF" d="M1342.8,606.5l-0.2,0.6h-0.4l0.6-2h0.5l0.7,2h-0.4l-0.2-0.6H1342.8z M1343.4,606.2l-0.2-0.5
						c0-0.1-0.1-0.3-0.1-0.4l0,0c0,0.1-0.1,0.3-0.1,0.4l-0.2,0.5H1343.4z"/>
				</g>
			</g>
			<g>
				<g>
					<path fill="#FFFFFF" d="M1345.6,605c0.1,0,0.3,0,0.6,0s0.5,0,0.6,0.2c0.1,0.1,0.2,0.2,0.2,0.4c0,0.3-0.2,0.4-0.4,0.5l0,0
						c0.1,0.1,0.2,0.2,0.3,0.4c0.1,0.3,0.1,0.5,0.2,0.6h-0.4c0-0.1-0.1-0.2-0.1-0.5c-0.1-0.3-0.2-0.4-0.4-0.4h-0.2v0.8h-0.4V605
						L1345.6,605z M1346,605.9h0.2c0.2,0,0.4-0.1,0.4-0.3c0-0.2-0.2-0.3-0.4-0.3c-0.1,0-0.2,0-0.2,0V605.9z"/>
				</g>
			</g>
			<g>
				<g>
					<path fill="#FFFFFF" d="M1349.1,605v2h-0.4v-2H1349.1z"/>
				</g>
			</g>
			<g>
				<g>
					<path fill="#FFFFFF" d="M1352.6,606c0,0.7-0.4,1.1-1,1.1c-0.6,0-0.9-0.4-0.9-1c0-0.6,0.4-1.1,1-1.1
						C1352.3,605,1352.6,605.4,1352.6,606z M1351.1,606c0,0.4,0.2,0.7,0.6,0.7c0.4,0,0.6-0.3,0.6-0.8c0-0.4-0.2-0.7-0.6-0.7
						C1351.3,605.3,1351.1,605.6,1351.1,606z"/>
				</g>
			</g>
		</g>
	</g>
</g>
</svg>
