<?xml version="1.0" encoding="utf-8"?>
<!-- Generator: Adobe Illustrator 21.1.0, SVG Export Plug-In . SVG Version: 6.00 Build 0)  -->
<svg version="1.1" id="Layer_1" xmlns="http://www.w3.org/2000/svg" xmlns:xlink="http://www.w3.org/1999/xlink" x="0px" y="0px"
	 viewBox="0 0 1500 800" style="enable-background:new 0 0 1500 800;" xml:space="preserve">
<style type="text/css">
	.st0{fill:#FFFFFF;}
	.st1{fill:#D63116;}
</style>
<g id="Layer_1_1_">
</g>
<g id="Layer_3">
</g>
<g>
	<g>
		<g>
			<g>
				<g>
					<g>
						<path class="st0" d="M512.6,315v-29h3.6v25.8h9.2v3.1H512.6z"/>
						<path class="st0" d="M542,315l-1.6-7.3h-8.1l-1.6,7.3h-3.7l7-29h4.8l6.9,29H542z M536.4,288.7l-3.4,15.8h6.7L536.4,288.7z"/>
						<path class="st0" d="M562.5,306.7c0,1.7-0.2,3.1-0.6,4.2c-0.4,1.1-0.9,2-1.7,2.6c-0.7,0.6-1.6,1.1-2.6,1.3
							c-1,0.2-2.1,0.4-3.4,0.4c-0.7,0-1.4-0.1-2.4-0.2c-0.9-0.1-1.7-0.3-2.4-0.5v-3c0.6,0.2,1.4,0.3,2.2,0.4c0.9,0.1,1.8,0.2,3,0.2
							c1.4,0,2.5-0.4,3.1-1.2c0.6-0.8,1-2.1,1-3.8c0-1-0.1-1.8-0.2-2.5c-0.1-0.7-0.3-1.2-0.6-1.7c-0.3-0.4-0.6-0.8-1.1-1
							c-0.4-0.2-0.9-0.4-1.5-0.5c-1.2-0.2-2.1-0.6-2.9-1c-0.8-0.4-1.4-0.9-1.9-1.5c-0.5-0.6-0.9-1.4-1.1-2.2
							c-0.2-0.9-0.4-1.9-0.4-3.1c0-1.5,0.2-2.7,0.6-3.7c0.4-1,1-1.8,1.7-2.5c0.7-0.6,1.6-1.1,2.6-1.4c1-0.3,2.1-0.4,3.3-0.4
							c0.7,0,1.4,0.1,2.3,0.2c0.8,0.1,1.5,0.3,2.1,0.4v3c-0.7-0.2-1.5-0.3-2.4-0.4c-0.9-0.1-1.7-0.2-2.4-0.2c-0.5,0-1,0.1-1.5,0.2
							c-0.5,0.2-0.9,0.4-1.3,0.8c-0.4,0.4-0.7,0.8-0.9,1.4c-0.2,0.6-0.4,1.3-0.4,2.1s0,1.5,0.1,2.1c0.1,0.6,0.2,1,0.5,1.4
							c0.2,0.4,0.6,0.6,1,0.8c0.4,0.2,1,0.4,1.6,0.5c1,0.2,1.9,0.5,2.7,0.8c0.8,0.4,1.5,0.9,2,1.5c0.6,0.6,1,1.5,1.3,2.5
							C562.4,303.9,562.5,305.2,562.5,306.7z"/>
					</g>
				</g>
			</g>
			<path class="st0" d="M476.1,300c0,3.1-0.2,5.6-0.5,7.6c-0.3,2-0.9,3.5-1.6,4.7c-0.7,1.1-1.6,1.9-2.6,2.3c-1,0.4-2.3,0.6-3.6,0.6
				c-0.8,0-1.6,0-2.5,0c-0.8,0-1.6,0-2.3-0.1c-0.8-0.1-1.6-0.1-2.4-0.2v-29c0.7-0.1,1.5-0.1,2.3-0.2c0.7-0.1,1.4-0.1,2.2-0.1
				c0.8,0,1.5,0,2.3,0c1.5,0,2.7,0.2,3.8,0.5c1.1,0.3,2,1,2.8,2.1c0.7,1,1.3,2.5,1.7,4.3C475.9,294.5,476.1,296.9,476.1,300z
				 M472.4,300.3c0-2.5-0.1-4.5-0.3-6c-0.2-1.5-0.5-2.7-0.9-3.5c-0.4-0.8-0.8-1.4-1.3-1.7c-0.5-0.3-1.1-0.4-1.7-0.4
				c-0.4,0-0.8,0-1.3,0c-0.5,0-0.9,0-1.3,0.1c-0.5,0-1,0.1-1.4,0.1v23.2c0.4,0,0.9,0.1,1.3,0.1c0.4,0,0.8,0,1.3,0.1
				c0.5,0,0.9,0,1.4,0c0.6,0,1.2-0.2,1.8-0.6c0.5-0.4,1-1,1.4-2c0.4-0.9,0.7-2.2,0.9-3.7C472.3,304.5,472.4,302.6,472.4,300.3z"/>
			<path class="st0" d="M482.3,315v-29h13.6v3h-10v9.5h8.9v3h-8.9v10.4h10v3H482.3z"/>
			<path class="st0" d="M362.3,300c0,3.1-0.2,5.6-0.5,7.6c-0.3,2-0.9,3.5-1.6,4.7c-0.7,1.1-1.6,1.9-2.6,2.3c-1,0.4-2.3,0.6-3.6,0.6
				c-0.8,0-1.6,0-2.5,0c-0.8,0-1.6,0-2.3-0.1c-0.8-0.1-1.6-0.1-2.4-0.2v-29c0.7-0.1,1.5-0.1,2.3-0.2c0.7-0.1,1.4-0.1,2.2-0.1
				c0.8,0,1.5,0,2.3,0c1.5,0,2.7,0.2,3.8,0.5c1.1,0.3,2,1,2.8,2.1c0.7,1,1.3,2.5,1.7,4.3C362.1,294.5,362.3,296.9,362.3,300z
				 M358.6,300.3c0-2.5-0.1-4.5-0.3-6c-0.2-1.5-0.5-2.7-0.9-3.5c-0.4-0.8-0.8-1.4-1.3-1.7c-0.5-0.3-1.1-0.4-1.7-0.4
				c-0.4,0-0.8,0-1.3,0c-0.5,0-0.9,0-1.3,0.1c-0.5,0-1,0.1-1.4,0.1v23.2c0.4,0,0.9,0.1,1.3,0.1c0.4,0,0.8,0,1.3,0.1
				c0.5,0,0.9,0,1.4,0c0.6,0,1.2-0.2,1.8-0.6c0.5-0.4,1-1,1.4-2c0.4-0.9,0.7-2.2,0.9-3.7C358.5,304.5,358.6,302.6,358.6,300.3z"/>
			<path class="st0" d="M380.1,315l-1.6-7.3h-8.1l-1.6,7.3h-3.7l7-29h4.8l6.9,29H380.1z M374.5,288.7l-3.4,15.8h6.7L374.5,288.7z"/>
			<path class="st0" d="M398,315l-6.3-25.9V315h-3.4v-29h5.9l6.4,25.9V286h3.4v29H398z"/>
			<path class="st0" d="M413,311.9h10.2v3.1h-13.9v-3.6L420,289h-9.7V286h13.4v3.6L413,311.9z"/>
			<path class="st0" d="M441.5,315l-1.6-7.3h-8.1l-1.6,7.3h-3.7l7-29h4.8l6.9,29H441.5z M435.9,288.7l-3.4,15.8h6.7L435.9,288.7z"/>
			<path class="st0" d="M298.3,315v-29h3.6v25.8h9.2v3.1H298.3z"/>
			<path class="st0" d="M327.7,315l-1.6-7.3h-8.1l-1.6,7.3h-3.7l7-29h4.8l6.9,29H327.7z M322.1,288.7l-3.4,15.8h6.7L322.1,288.7z"/>
		</g>
	</g>
	<g>
		<path class="st1" d="M298,507.5V328.1h97v27l-67.2-0.8l-1,50.1h60.1v25.2h-60.1l1.3,78H298z"/>
		<path class="st1" d="M460,507.8l1-82.6l-1-97h30.3l-1,79.6l1,100.1H460z"/>
		<path class="st1" d="M568.5,507.5V328.1h97v26.2l-67-0.8l-1.3,50.3h61.9v25.4h-61.9l1.3,52.6l67-0.5v26.2H568.5z"/>
		<path class="st1" d="M796.5,324.8c41.2,0,61.9,19.3,61.9,57.8c0,28.4-12.5,46.1-37.5,53.1v1.3l41.8,70.6h-35.2l-34.9-67.8l-28.2-1
			v68.8h-30.3l1.3-84.2l-0.8-95C753.8,326,774.4,324.8,796.5,324.8z M764.1,413c13.5,1.5,25.4,2.3,35.5,2.3
			c10.2,0,17.3-2.5,21.3-7.6c4-5,6-14.1,6-27.2c0-13.1-2.1-21.9-6.2-26.6c-3.6-3.8-11-5.6-22.2-5.6c-11.2,0-22.6,0.8-34.3,2.3
			L764.1,413z"/>
		<path class="st1" d="M907.9,507.5l51.1-179.4h36.4l50.8,179.4h-31.1l-11.3-44.1h-53.4l-11.6,44.1H907.9z M956.1,438.2h42.1
			l-20.3-83.7h-1.5L956.1,438.2z"/>
		<path class="st1" d="M1148.6,483.9c15.1,0,22.6-8.2,22.6-24.6c0-7-2.8-12.9-8.5-17.7c-5.6-4.8-13.5-9.5-23.5-14
			c-10-4.5-15.7-7.2-17.2-8c-1.5-0.8-4.1-2.2-7.8-4.2c-3.8-2.1-6.4-3.8-7.8-5.1c-1.5-1.4-3.5-3.4-6.2-6c-2.7-2.7-4.5-5.3-5.5-8.1
			c-2.9-7.4-4.4-14.5-4.4-21.6c0-14.5,5-26.5,15-35.8c10-9.3,24.3-14,42.7-14c13.5,0,26.9,1.9,40,5.6l6.9,1.8l-4.9,25.2
			c-18.7-3.6-32.9-5.4-42.7-5.4c-9.8,0-16.6,1.6-20.4,4.7c-3.8,3.2-5.6,8.2-5.6,15.1c0,6.9,2.4,12.3,7.1,16.2
			c4.7,3.9,10.2,7.3,16.4,10.3c6.2,3,11.3,5.4,15.1,7.1c3.9,1.7,6.8,3,8.7,4c2,0.9,4.7,2.4,8.1,4.4c3.4,2,6.1,3.8,8,5.4
			c1.9,1.6,4.1,3.8,6.7,6.4c2.6,2.7,4.4,5.4,5.6,8.1c3.2,6.7,4.9,13.9,4.9,21.6c0,16.6-5.4,30-16.2,40.3
			c-10.8,10.3-24.9,15.4-42.4,15.4c-8.9,0-18.2-1.3-27.8-3.9c-9.7-2.6-17.1-5.1-22.2-7.7l-8-4.1c1.5-4.6,2.8-8.3,3.8-11.2
			c1-2.8,1.9-5.2,2.6-7.2c0.7-2,1.5-4.1,2.3-6.3C1113.9,479.4,1132,483.9,1148.6,483.9z"/>
	</g>
</g>
</svg>
