<?xml version="1.0" encoding="utf-8"?>
<!-- Generator: Adobe Illustrator 16.0.0, SVG Export Plug-In . SVG Version: 6.00 Build 0)  -->
<!DOCTYPE svg PUBLIC "-//W3C//DTD SVG 1.1//EN" "http://www.w3.org/Graphics/SVG/1.1/DTD/svg11.dtd">
<svg version="1.1" id="Layer_1" xmlns="http://www.w3.org/2000/svg" xmlns:xlink="http://www.w3.org/1999/xlink" x="0px" y="0px"
	 width="50px" height="40px" viewBox="0 0 50 40" enable-background="new 0 0 50 40" xml:space="preserve">
<g>
	<g>
		<path fill="#231F20" d="M24.994,38.485c-13.05,0-23.667-8.225-23.667-18.334S11.944,1.817,24.994,1.817
			c13.189,0,23.917,8.225,23.917,18.334S38.183,38.485,24.994,38.485z M24.994,3.817c-11.947,0-21.667,7.327-21.667,16.334
			s9.72,16.334,21.667,16.334c12.085,0,21.917-7.327,21.917-16.334S37.079,3.817,24.994,3.817z"/>
	</g>
	<g>
		<path fill="#231F20" d="M25.119,36.026c-8.753,0-15.875-7.121-15.875-15.875S16.365,4.276,25.119,4.276
			c8.754,0,15.875,7.121,15.875,15.875S33.873,36.026,25.119,36.026z M25.119,6.276c-7.651,0-13.875,6.225-13.875,13.875
			s6.224,13.875,13.875,13.875s13.875-6.225,13.875-13.875S32.77,6.276,25.119,6.276z"/>
	</g>
	<g>
		<path fill="#231F20" d="M30.021,19.55c-2.105,0-3.807-1.703-3.807-3.811c0-1.804,1.254-3.31,2.938-3.702
			c-1.193-0.557-2.523-0.872-3.927-0.872c-5.172,0-9.373,4.196-9.373,9.374s4.198,9.373,9.373,9.373
			c5.177,0,9.375-4.195,9.375-9.373c0-1.4-0.316-2.726-0.867-3.923C33.334,18.303,31.824,19.55,30.021,19.55z"/>
	</g>
</g>
</svg>
