<?xml version="1.0" encoding="utf-8"?>
<!-- Generator: Adobe Illustrator 16.0.0, SVG Export Plug-In . SVG Version: 6.00 Build 0)  -->
<!DOCTYPE svg PUBLIC "-//W3C//DTD SVG 1.1//EN" "http://www.w3.org/Graphics/SVG/1.1/DTD/svg11.dtd">
<svg version="1.1" id="Layer_1" xmlns="http://www.w3.org/2000/svg" xmlns:xlink="http://www.w3.org/1999/xlink" x="0px" y="0px"
	 width="580px" height="363px" viewBox="0 0 580 363" enable-background="new 0 0 580 363" xml:space="preserve">
<g>
	<path fill="#272727" d="M297.957,82.701c-114.913,0-199.521,81.739-199.521,81.739s100.382,80.3,195.742,80.3
		c98.23,0,195.744-80.3,195.744-80.3S408.183,82.701,297.957,82.701z M167.852,192.234c-19.435-10.509-35.609-21.114-46.32-28.607
		c14.667-11.584,40.876-30.008,74.791-44.547c-10.578,15.194-15.226,30.792-13.809,46.586c1.581,17.641,10.448,32.35,19.623,43.135
		C189.522,203.443,177.914,197.674,167.852,192.234z M230.55,219.37l0.071-0.108c-0.337-0.219-33.785-22.283-36.683-54.619
		c-1.617-18.057,6.667-36.229,24.594-54.061c11.39-3.835,23.433-7.081,36.026-9.436c-20.479,13.204-34.077,36.198-34.077,62.321
		c0,26.161,13.642,49.188,34.173,62.375C246.483,224.08,238.422,221.883,230.55,219.37z M229.087,163.468
		c0-36.181,29.333-65.511,65.513-65.511c36.182,0,65.515,29.33,65.515,65.511c0,36.177-29.333,65.507-65.515,65.507
		C258.42,228.977,229.087,199.646,229.087,163.468z M360.631,218.921c-8.59,2.781-17.388,5.187-26.303,7.063
		c20.648-13.17,34.39-36.266,34.39-62.517c0-26.941-14.456-50.562-36.011-63.542c12.681,2.079,24.828,5.181,36.33,8.959
		c19.532,18.544,28.613,37.479,26.946,56.288C393.459,193.729,366.911,214.409,360.631,218.921z M407.408,166.255
		c1.476-16.494-3.672-32.773-15.269-48.604c34.145,14.741,60.563,34,75.105,45.917c-15.877,11.345-44.401,29.997-78.552,44.723
		C397.537,197.615,405.88,183.309,407.408,166.255z"/>
	<path fill="#272727" d="M317.834,158.715c-9.899,0-17.925-8.025-17.925-17.926c0-8.486,5.903-15.578,13.822-17.435
		c-5.624-2.605-11.867-4.097-18.479-4.097c-24.351,0-44.093,19.744-44.093,44.097c0,24.346,19.742,44.087,44.093,44.087
		c24.354,0,44.097-19.741,44.097-44.087c0-6.596-1.49-12.831-4.085-18.449C333.403,152.819,326.315,158.715,317.834,158.715z"/>
</g>
</svg>
