<?xml version="1.0" encoding="utf-8"?>
<!-- Generator: Adobe Illustrator 16.0.0, SVG Export Plug-In . SVG Version: 6.00 Build 0)  -->
<!DOCTYPE svg PUBLIC "-//W3C//DTD SVG 1.1//EN" "http://www.w3.org/Graphics/SVG/1.1/DTD/svg11.dtd">
<svg version="1.1" xmlns="http://www.w3.org/2000/svg" xmlns:xlink="http://www.w3.org/1999/xlink" x="0px" y="0px" width="70px"
	 height="90px" viewBox="259.209 285.01 70 90" enable-background="new 259.209 285.01 70 90" xml:space="preserve">
<g id="Layout">
	<g>
		<path fill="#272727" d="M294.886,285.01c-20.548,0-35.676,14.615-35.676,14.615s17.949,14.357,35,14.357
			c17.564,0,35-14.357,35-14.357S314.595,285.01,294.886,285.01z M271.622,304.595c-3.475-1.879-6.367-3.774-8.282-5.115
			c2.623-2.07,7.309-5.365,13.373-7.965c-1.892,2.716-2.723,5.506-2.469,8.33c0.283,3.154,1.868,5.784,3.509,7.712
			C275.496,306.6,273.421,305.567,271.622,304.595z M282.832,309.447l0.013-0.021c-0.06-0.039-6.042-3.983-6.559-9.765
			c-0.29-3.229,1.192-6.479,4.397-9.668c2.036-0.686,4.189-1.265,6.441-1.687c-3.662,2.36-6.093,6.473-6.093,11.144
			c0,4.678,2.439,8.795,6.111,11.152C285.681,310.289,284.24,309.896,282.832,309.447z M282.571,299.451
			c0-6.469,5.245-11.714,11.713-11.714c6.471,0,11.715,5.245,11.715,11.714s-5.244,11.713-11.715,11.713
			C287.816,311.165,282.571,305.921,282.571,299.451z M306.092,309.366c-1.536,0.498-3.109,0.928-4.703,1.263
			c3.691-2.354,6.148-6.483,6.148-11.178c0-4.817-2.584-9.041-6.438-11.362c2.268,0.372,4.439,0.927,6.496,1.603
			c3.493,3.315,5.116,6.702,4.818,10.064C311.962,304.861,307.215,308.561,306.092,309.366z M314.456,299.95
			c0.264-2.949-0.657-5.86-2.73-8.691c6.104,2.636,10.828,6.08,13.43,8.211c-2.839,2.028-7.939,5.362-14.047,7.996
			C312.69,305.558,314.183,302.999,314.456,299.95z"/>
		<path fill="#272727" d="M298.439,298.602c-1.771,0-3.205-1.436-3.205-3.206c0-1.517,1.055-2.785,2.472-3.117
			c-1.006-0.465-2.122-0.732-3.305-0.732c-4.354,0-7.884,3.53-7.884,7.886c0,4.353,3.53,7.882,7.884,7.882
			c4.354,0,7.885-3.529,7.885-7.882c0-1.181-0.267-2.295-0.73-3.299C301.224,297.547,299.955,298.602,298.439,298.602z"/>
	</g>
	<path opacity="0.25" fill="#272727" enable-background="new    " d="M294.484,345.011c-8.284,0-15,6.718-15,14.999
		c0,8.282,6.716,15,15,15c8.28,0,15-6.718,15-15C309.484,351.729,302.765,345.011,294.484,345.011 M294.484,348.76
		c6.213,0,11.25,5.037,11.25,11.25c0,6.214-5.037,11.25-11.25,11.25c-6.214,0-11.25-5.036-11.25-11.25
		C283.234,353.797,288.271,348.76,294.484,348.76"/>
</g>
<g id="Spinner">
	<g>
		<path fill="#272727" d="M294.484,345.011c8.28,0,15,6.718,15,14.999h-3.75c0-6.213-5.037-11.25-11.25-11.25V345.011z		"/>
		<circle fill="none" cx="294.484" cy="360.01" r="15"/>
	</g>
	<animateTransform  type="rotate" fill="remove" calcMode="linear" restart="always" to="360 294.484 360.01" from="0 294.484 360.01" additive="replace" dur="0.8s" accumulate="none" attributeName="transform" repeatCount="indefinite">
				</animateTransform>
</g>
</svg>
