<?xml version="1.0" encoding="utf-8"?>
<!-- Generator: Adobe Illustrator 16.0.0, SVG Export Plug-In . SVG Version: 6.00 Build 0)  -->
<!DOCTYPE svg PUBLIC "-//W3C//DTD SVG 1.1//EN" "http://www.w3.org/Graphics/SVG/1.1/DTD/svg11.dtd">
<svg version="1.1" xmlns="http://www.w3.org/2000/svg" xmlns:xlink="http://www.w3.org/1999/xlink" x="0px" y="0px" width="300px"
	 height="300px" viewBox="-86 -86 300 300" enable-background="new -86 -86 300 300" xml:space="preserve">
<g id="Layer_1">
	<g>
		<polygon points="165.888,81.543 134.801,81.543 134.801,45.339 138.456,45.339 138.456,77.885 165.888,77.885 		"/>
	</g>
	<path d="M54.958-7.024c0-0.709,0.002-1.419,0.002-2.124v-0.643L89.5-29.382H54.96l-0.012-3.156c1.749-0.17,1.986-0.662,1.986-1.083
		c0-0.281,0-1.14-3.218-1.14c-3.219,0-3.219,0.859-3.219,1.14c0,0.421,0.241,0.913,1.988,1.083l-0.018,3.156h-8.804v3.064h8.792
		l-0.012,3.009c0,0.883-0.007,1.807-0.004,2.759l0.002,8.661L38.46-3.959h13.998l0.07,14.989c0.002,0.902,0.007,1.774,0.019,2.594
		c0.009,1.311,0.039,2.516,0.069,3.587l0.05,1.494l0.246,4.247h1.545l0.303-5.744c0.032-1.069,0.06-2.272,0.072-3.581
		c0.013-0.847,0.018-1.736,0.022-2.663l0.087-14.925h43.403v-3.067L54.958-7.024L54.958-7.024z M54.977-23.221l-0.007-3.094h22.909
		L54.969-13.32l0.01-7.222C54.985-21.47,54.981-22.365,54.977-23.221z M52.446-7.024h-2.357l2.355-1.338
		C52.444-7.917,52.444-7.472,52.446-7.024z"/>
	<polygon fill="#231F20" points="202.294,-68.712 172.967,-58.918 181.146,-50.737 -50.195,165.523 -64.417,165.523 
		-64.417,167.355 -52.15,167.355 -55.683,170.654 -69.286,170.415 -69.32,172.242 -57.602,172.449 -60.652,175.301 -74.191,175.301 
		-74.191,177.134 -62.608,177.134 -65.879,180.188 -79.076,180.188 -79.076,182.018 -67.837,182.018 -71.109,185.074 
		-83.968,185.074 -83.968,186.904 -73.064,186.904 -75.649,189.321 -72.733,192.435 -70.217,190.083 -70.217,200.652 
		-68.386,200.652 -68.386,188.377 -65.329,185.516 -65.329,195.766 -63.501,195.766 -63.501,183.806 -60.443,180.948 
		-60.443,190.881 -58.612,190.881 -58.612,179.238 -55.658,176.476 -55.555,186 -53.727,185.98 -53.849,174.784 -50.667,171.806 
		-50.667,181.104 -48.838,181.104 -48.838,170.098 184.168,-47.72 192.52,-39.367 	"/>
	<polygon fill="#231F20" points="212.069,185.074 199.212,185.074 195.939,182.018 207.184,182.018 207.184,180.188 
		193.982,180.188 190.713,177.134 202.294,177.134 202.294,175.301 188.758,175.301 185.704,172.449 197.425,172.242 
		197.39,170.415 183.787,170.654 180.254,167.355 192.52,167.355 192.52,165.523 178.299,165.523 -53.045,-50.737 -44.862,-58.918 
		-74.191,-68.712 -64.415,-39.367 -56.062,-47.718 176.941,170.098 176.941,181.104 178.773,181.104 178.773,171.806 
		181.955,174.784 181.832,185.98 183.66,186 183.764,176.476 186.714,179.238 186.714,190.881 188.547,190.881 188.547,180.948 
		191.605,183.806 191.605,195.766 193.433,195.766 193.433,185.516 196.492,188.377 196.492,200.652 198.322,200.652 
		198.322,190.083 200.84,192.435 203.751,189.321 201.169,186.904 212.069,186.904 	"/>
	<g>
		<polygon fill="#231F20" points="-48.59,108.221 -51.09,105.55 -4.531,62.011 -30.062,65.417 -4.471,41.479 -1.786,43.964 
			-17.817,59.601 7.215,55.986 		"/>
	</g>
	<path fill="#FFFFFF" d="M63.673,67L-40.75,165.914h206.638L63.673,67z M25.774,135.181c4.407-3.592,19.933-15.182,37.976-15.182
		c18.446,0,33.615,11.585,37.882,15.168C96.761,138.73,79.3,150.876,64,150.876C48.306,150.876,30.712,138.762,25.774,135.181z"/>
</g>
<g id="Layer_2">
	<g>
		<path fill="#231F20" d="M64,152.875c-19.673,0-39.715-15.772-40.559-16.443l-1.361-1.083l1.271-1.188
			C24.058,133.502,40.921,118,63.75,118c23.34,0,39.613,15.521,40.294,16.181l1.222,1.185l-1.328,1.063
			C103.1,137.101,83.181,152.875,64,152.875z M26.774,135.181c4.938,3.581,21.531,14.694,37.226,14.694
			c15.3,0,31.76-11.145,36.631-14.708C96.364,131.584,82.196,121,63.75,121C45.707,121,31.182,131.589,26.774,135.181z"/>
	</g>
</g>
</svg>
