<?xml version="1.0" encoding="utf-8"?>
<!-- Generator: Adobe Illustrator 16.0.0, SVG Export Plug-In . SVG Version: 6.00 Build 0)  -->
<!DOCTYPE svg PUBLIC "-//W3C//DTD SVG 1.1//EN" "http://www.w3.org/Graphics/SVG/1.1/DTD/svg11.dtd">
<svg version="1.1" id="Layer_1" xmlns="http://www.w3.org/2000/svg" xmlns:xlink="http://www.w3.org/1999/xlink" x="0px" y="0px"
	 width="296.036px" height="269.364px" viewBox="3.964 15.318 296.036 269.364"
	 enable-background="new 3.964 15.318 296.036 269.364" xml:space="preserve">
<path fill="#FFFFFF" d="M3.964,15.318v269.364h295.394V15.318H3.964z M112.706,219.211c4.407-3.592,20.934-15.182,38.976-15.182
	c18.446,0,33.615,11.584,37.882,15.168c-4.871,3.562-22.332,15.709-37.632,15.709C136.238,234.906,117.644,222.791,112.706,219.211z
	"/>
<g>
	<g id="Layer_1_1_">
		<g>
			<polygon points="253.82,165.572 222.732,165.572 222.732,129.369 226.388,129.369 226.388,161.914 253.82,161.914 			"/>
		</g>
		<path d="M142.891,77.006c0-0.709,0.002-1.419,0.002-2.124v-0.643l34.539-19.591h-34.539l-0.012-3.156
			c1.749-0.17,1.986-0.662,1.986-1.083c0-0.281,0-1.14-3.218-1.14c-3.219,0-3.219,0.859-3.219,1.14c0,0.421,0.241,0.913,1.988,1.083
			l-0.018,3.156h-8.804v3.064h8.792l-0.012,3.009c0,0.883-0.007,1.807-0.004,2.759l0.002,8.661l-13.981,7.93h13.998l0.07,14.989
			c0.002,0.902,0.007,1.774,0.019,2.594c0.009,1.311,0.039,2.516,0.069,3.587l0.05,1.494l0.246,4.247h1.545l0.303-5.744
			c0.032-1.069,0.06-2.272,0.072-3.581c0.013-0.847,0.018-1.736,0.022-2.663l0.087-14.925h43.402v-3.067L142.891,77.006
			L142.891,77.006z M142.91,60.809l-0.007-3.094h22.908L142.902,70.71l0.01-7.222C142.917,62.56,142.914,61.665,142.91,60.809z
			 M140.378,77.006h-2.357l2.355-1.338C140.376,76.113,140.376,76.558,140.378,77.006z"/>
		<polygon fill="#272727" points="290.226,15.318 260.898,25.112 269.078,33.293 37.738,249.553 23.516,249.553 23.516,251.385 
			35.783,251.385 32.25,254.684 18.646,254.445 18.613,256.271 30.331,256.479 27.281,259.33 13.742,259.33 13.742,261.164 
			25.325,261.164 22.054,264.217 8.856,264.217 8.856,266.047 20.096,266.047 16.824,269.104 3.965,269.104 3.965,270.934 
			14.869,270.934 12.284,273.35 15.2,276.465 17.716,274.113 17.716,284.682 19.546,284.682 19.546,272.406 22.604,269.545 
			22.604,279.795 24.432,279.795 24.432,267.836 27.49,264.979 27.49,274.91 29.321,274.91 29.321,263.268 32.274,260.506 
			32.377,270.029 34.206,270.01 34.083,258.814 37.266,255.836 37.266,265.133 39.095,265.133 39.095,254.127 272.1,36.31 
			280.451,44.663 		"/>
		<polygon fill="#272727" points="300,269.104 287.144,269.104 283.871,266.047 295.115,266.047 295.115,264.217 281.914,264.217 
			278.645,261.164 290.226,261.164 290.226,259.33 276.689,259.33 273.636,256.479 285.356,256.271 285.322,254.445 
			271.719,254.684 268.186,251.385 280.451,251.385 280.451,249.553 266.23,249.553 34.888,33.293 43.071,25.112 13.742,15.318 
			23.518,44.663 31.871,36.312 264.873,254.127 264.873,265.133 266.705,265.133 266.705,255.836 269.887,258.814 269.764,270.01 
			271.592,270.029 271.695,260.506 274.646,263.268 274.646,274.91 276.479,274.91 276.479,264.979 279.537,267.836 
			279.537,279.795 281.365,279.795 281.365,269.545 284.424,272.406 284.424,284.682 286.254,284.682 286.254,274.113 
			288.771,276.465 291.683,273.35 289.101,270.934 300,270.934 		"/>
		<g>
			<polygon fill="#272727" points="39.343,192.251 36.843,189.58 83.402,146.041 57.871,149.447 83.461,125.509 86.146,127.994 
				70.116,143.631 95.147,140.016 			"/>
		</g>
	</g>
	<g id="Layer_2">
		<g>
			<path fill="#272727" d="M151.932,236.904c-19.672,0-39.714-15.771-40.558-16.442l-1.361-1.083l1.271-1.188
				c0.707-0.66,17.57-16.162,40.398-16.162c23.34,0,39.612,15.521,40.294,16.182l1.223,1.186l-1.328,1.062
				C191.032,221.131,171.112,236.904,151.932,236.904z M114.707,219.211c4.938,3.58,21.531,14.693,37.225,14.693
				c15.3,0,31.76-11.145,36.631-14.707c-4.267-3.584-18.435-14.168-36.881-14.168C133.64,205.029,119.115,215.619,114.707,219.211z"
				/>
		</g>
	</g>
</g>
</svg>
