<?xml version="1.0" encoding="utf-8"?>
<!-- Generator: Adobe Illustrator 16.0.0, SVG Export Plug-In . SVG Version: 6.00 Build 0)  -->
<!DOCTYPE svg PUBLIC "-//W3C//DTD SVG 1.1//EN" "http://www.w3.org/Graphics/SVG/1.1/DTD/svg11.dtd">
<svg version="1.1" id="Layer_1" xmlns="http://www.w3.org/2000/svg" xmlns:xlink="http://www.w3.org/1999/xlink" x="0px" y="0px"
	 width="123.06px" height="111.972px" viewBox="2.521 9.984 123.06 111.972" enable-background="new 2.521 9.984 123.06 111.972"
	 xml:space="preserve">
<g>
	<polygon fill="#272727" points="106.384,72.443 93.461,72.443 93.461,57.394 94.98,57.394 94.98,70.923 106.384,70.923 	"/>
</g>
<path fill="#272727" d="M60.271,35.627c0-0.295,0.001-0.59,0.001-0.883v-0.267l14.358-8.144H60.272l-0.005-1.312
	c0.727-0.071,0.826-0.275,0.826-0.45c0-0.117,0-0.474-1.338-0.474s-1.338,0.357-1.338,0.474c0,0.175,0.1,0.379,0.826,0.45
	l-0.007,1.312h-3.66v1.274h3.655l-0.005,1.251c0,0.367-0.003,0.751-0.002,1.147l0.001,3.6l-5.812,3.296h5.819l0.029,6.231
	c0.001,0.375,0.003,0.737,0.008,1.078c0.004,0.545,0.016,1.046,0.029,1.491l0.021,0.621l0.102,1.766h0.642l0.126-2.388
	c0.013-0.444,0.025-0.944,0.03-1.488c0.005-0.352,0.007-0.722,0.009-1.107l0.036-6.204h18.042v-1.275L60.271,35.627L60.271,35.627z
	 M60.279,28.894l-0.003-1.286h9.523l-9.523,5.402l0.004-3.002C60.282,29.622,60.281,29.25,60.279,28.894z M59.227,35.627h-0.98
	l0.979-0.556C59.226,35.256,59.226,35.441,59.227,35.627z"/>
<g>
	<path fill="#272727" d="M64.26,87.613c-10.154,0-17.629,7.223-17.629,7.223s8.87,7.096,17.295,7.096
		c8.678,0,17.295-7.096,17.295-7.096S73.998,87.613,64.26,87.613z M52.765,97.291c-1.718-0.928-3.147-1.865-4.093-2.527
		c1.296-1.023,3.612-2.652,6.608-3.937c-0.934,1.343-1.345,2.72-1.22,4.116c0.14,1.56,0.923,2.858,1.734,3.811
		C54.679,98.282,53.653,97.771,52.765,97.291z M58.304,99.689l0.006-0.012c-0.03-0.018-2.985-1.969-3.241-4.826
		c-0.142-1.597,0.59-3.199,2.173-4.776c1.007-0.337,2.07-0.625,3.184-0.832c-1.809,1.165-3.011,3.196-3.011,5.505
		c0,2.312,1.206,4.347,3.02,5.514C59.711,100.105,59,99.912,58.304,99.689z M58.174,94.748c0-3.196,2.592-5.788,5.789-5.788
		c3.196,0,5.789,2.592,5.789,5.788c0,3.197-2.593,5.79-5.789,5.79C60.767,100.538,58.174,97.945,58.174,94.748z M69.798,99.648
		c-0.76,0.246-1.536,0.459-2.323,0.625c1.823-1.164,3.037-3.205,3.037-5.523c0-2.38-1.277-4.468-3.182-5.614
		c1.12,0.185,2.193,0.458,3.21,0.791c1.726,1.64,2.528,3.312,2.381,4.976C72.695,97.424,70.352,99.251,69.798,99.648z M73.93,94.996
		c0.133-1.458-0.322-2.896-1.348-4.296c3.016,1.304,5.352,3.004,6.636,4.057c-1.403,1.004-3.924,2.652-6.94,3.953
		C73.059,97.768,73.795,96.503,73.93,94.996z"/>
	<path fill="#272727" d="M66.016,94.329c-0.875,0-1.583-0.708-1.583-1.584c0-0.75,0.522-1.376,1.221-1.539
		c-0.496-0.231-1.049-0.362-1.632-0.362c-2.15,0-3.896,1.744-3.896,3.896s1.745,3.896,3.896,3.896c2.152,0,3.897-1.744,3.897-3.896
		c0-0.582-0.132-1.133-0.36-1.631C67.393,93.811,66.766,94.329,66.016,94.329z"/>
</g>
<polygon fill="#272727" points="121.518,9.984 109.326,14.055 112.727,17.456 16.56,107.354 10.648,107.354 10.648,108.115 
	15.747,108.115 14.279,109.486 8.624,109.387 8.61,110.146 13.481,110.232 12.213,111.418 6.585,111.418 6.585,112.18 11.4,112.18 
	10.04,113.449 4.554,113.449 4.554,114.21 9.226,114.21 7.866,115.48 2.521,115.48 2.521,116.241 7.053,116.241 5.979,117.246 
	7.191,118.54 8.237,117.562 8.237,121.956 8.998,121.956 8.998,116.854 10.269,115.664 10.269,119.925 11.029,119.925 
	11.029,114.953 12.3,113.766 12.3,117.895 13.061,117.895 13.061,113.055 14.289,111.906 14.332,115.865 15.092,115.857 
	15.041,111.203 16.364,109.965 16.364,113.83 17.124,113.83 17.124,109.255 113.982,18.71 117.454,22.182 "/>
<polygon fill="#272727" points="125.581,115.48 120.236,115.48 118.876,114.21 123.55,114.21 123.55,113.449 118.062,113.449 
	116.703,112.18 121.518,112.18 121.518,111.418 115.891,111.418 114.621,110.232 119.493,110.146 119.479,109.387 113.824,109.486 
	112.355,108.115 117.454,108.115 117.454,107.354 111.543,107.354 15.375,17.456 18.777,14.055 6.585,9.984 10.649,22.182 
	14.121,18.711 110.979,109.255 110.979,113.83 111.74,113.83 111.74,109.965 113.062,111.203 113.012,115.857 113.771,115.865 
	113.814,111.906 115.041,113.055 115.041,117.895 115.803,117.895 115.803,113.766 117.074,114.953 117.074,119.925 
	117.834,119.925 117.834,115.664 119.105,116.854 119.105,121.956 119.866,121.956 119.866,117.562 120.913,118.54 122.123,117.246 
	121.05,116.241 125.581,116.241 "/>
<g>
	<polygon fill="#272727" points="17.227,83.533 16.188,82.423 35.542,64.324 24.929,65.74 35.567,55.789 36.683,56.822 
		30.019,63.322 40.425,61.82 	"/>
</g>
</svg>
