<?xml version="1.0" encoding="utf-8"?>
<!-- Generator: Adobe Illustrator 16.0.0, SVG Export Plug-In . SVG Version: 6.00 Build 0)  -->
<!DOCTYPE svg PUBLIC "-//W3C//DTD SVG 1.1//EN" "http://www.w3.org/Graphics/SVG/1.1/DTD/svg11.dtd">
<svg version="1.1" xmlns="http://www.w3.org/2000/svg" xmlns:xlink="http://www.w3.org/1999/xlink" x="0px" y="0px"
	 width="123.061px" height="111.973px" viewBox="0 0 123.061 111.973" enable-background="new 0 0 123.061 111.973"
	 xml:space="preserve">
<g id="Logo">
	<g>
		<polygon fill="#272727" points="103.862,62.261 90.939,62.261 90.939,47.213 92.459,47.213 92.459,60.741 103.862,60.741 		"/>
	</g>
	<path fill="#272727" d="M57.75,25.445c0-0.295,0.001-0.59,0.001-0.883v-0.267l14.357-8.145H57.751l-0.005-1.312
		c0.727-0.071,0.825-0.275,0.825-0.45c0-0.117,0-0.474-1.338-0.474s-1.338,0.356-1.338,0.474c0,0.175,0.101,0.379,0.826,0.45
		l-0.007,1.312h-3.66v1.274h3.655l-0.005,1.251c0,0.367-0.003,0.751-0.002,1.146l0.001,3.601l-5.812,3.296h5.819l0.028,6.23
		c0.002,0.375,0.004,0.737,0.009,1.078c0.004,0.545,0.016,1.046,0.028,1.491l0.021,0.621l0.102,1.766h0.643l0.126-2.388
		c0.013-0.444,0.024-0.944,0.029-1.488c0.006-0.352,0.008-0.722,0.01-1.106l0.036-6.204h18.042v-1.275L57.75,25.445L57.75,25.445z
		 M57.758,18.713l-0.003-1.286h9.522l-9.522,5.401l0.004-3.002C57.76,19.44,57.76,19.068,57.758,18.713z M56.706,25.445h-0.98
		l0.979-0.556C56.705,25.074,56.705,25.26,56.706,25.445z"/>
	<g>
		<path fill="#272727" d="M61.738,77.431c-10.153,0-17.629,7.223-17.629,7.223s8.87,7.097,17.295,7.097
			c8.679,0,17.296-7.097,17.296-7.097S71.476,77.431,61.738,77.431z M50.244,87.109c-1.719-0.928-3.147-1.865-4.094-2.526
			c1.296-1.023,3.612-2.652,6.608-3.938c-0.934,1.343-1.345,2.72-1.22,4.116c0.14,1.56,0.923,2.857,1.733,3.811
			C52.158,88.1,51.132,87.59,50.244,87.109z M55.783,89.508l0.006-0.013c-0.03-0.018-2.985-1.969-3.241-4.825
			c-0.143-1.598,0.59-3.199,2.173-4.776c1.007-0.337,2.07-0.625,3.184-0.832c-1.809,1.165-3.011,3.196-3.011,5.505
			c0,2.312,1.206,4.347,3.021,5.514C57.189,89.924,56.478,89.73,55.783,89.508z M55.652,84.566c0-3.196,2.593-5.788,5.789-5.788
			s5.789,2.592,5.789,5.788c0,3.197-2.593,5.79-5.789,5.79C58.246,90.356,55.652,87.763,55.652,84.566z M67.276,89.467
			c-0.76,0.246-1.535,0.459-2.322,0.625c1.822-1.164,3.037-3.205,3.037-5.523c0-2.38-1.277-4.468-3.183-5.614
			c1.12,0.186,2.193,0.458,3.21,0.791c1.727,1.641,2.528,3.312,2.381,4.977C70.174,87.242,67.831,89.069,67.276,89.467z
			 M71.409,84.814c0.133-1.458-0.322-2.896-1.349-4.296c3.017,1.304,5.353,3.004,6.636,4.057c-1.402,1.004-3.924,2.652-6.939,3.953
			C70.538,87.587,71.273,86.321,71.409,84.814z"/>
		<path fill="#272727" d="M63.495,84.147c-0.875,0-1.583-0.708-1.583-1.584c0-0.75,0.521-1.376,1.221-1.539
			c-0.496-0.23-1.049-0.362-1.632-0.362c-2.15,0-3.896,1.744-3.896,3.896s1.745,3.896,3.896,3.896s3.896-1.743,3.896-3.896
			c0-0.582-0.132-1.133-0.359-1.631C64.872,83.63,64.245,84.147,63.495,84.147z"/>
	</g>
	<polygon fill="#272727" points="118.997,-0.198 106.804,3.874 110.206,7.274 14.039,97.173 8.127,97.173 8.127,97.933 
		13.225,97.933 11.758,99.304 6.102,99.206 6.089,99.965 10.96,100.051 9.691,101.236 4.063,101.236 4.063,101.999 8.879,101.999 
		7.518,103.267 2.033,103.267 2.033,104.028 6.705,104.028 5.344,105.299 0,105.299 0,106.059 4.532,106.059 3.458,107.064 
		4.67,108.358 5.716,107.381 5.716,111.774 6.476,111.774 6.476,106.673 7.748,105.482 7.748,109.743 8.508,109.743 8.508,104.771 
		9.778,103.585 9.778,107.714 10.54,107.714 10.54,102.874 11.767,101.724 11.81,105.683 12.57,105.676 12.519,101.021 
		13.843,99.783 13.843,103.648 14.602,103.648 14.602,99.073 111.461,8.528 114.932,12.001 	"/>
	<polygon fill="#272727" points="123.059,105.299 117.715,105.299 116.354,104.028 121.028,104.028 121.028,103.267 
		115.541,103.267 114.181,101.999 118.997,101.999 118.997,101.236 113.37,101.236 112.099,100.051 116.971,99.965 116.958,99.206 
		111.302,99.304 109.834,97.933 114.932,97.933 114.932,97.173 109.021,97.173 12.853,7.274 16.256,3.874 4.063,-0.198 
		8.128,12.001 11.599,8.529 108.458,99.073 108.458,103.648 109.219,103.648 109.219,99.783 110.541,101.021 110.491,105.676 
		111.25,105.683 111.293,101.724 112.519,102.874 112.519,107.714 113.282,107.714 113.282,103.585 114.552,104.771 
		114.552,109.743 115.312,109.743 115.312,105.482 116.584,106.673 116.584,111.774 117.344,111.774 117.344,107.381 
		118.391,108.358 119.601,107.064 118.528,106.059 123.059,106.059 	"/>
	<g>
		<polygon fill="#272727" points="14.706,73.351 13.667,72.241 33.02,54.142 22.408,55.559 33.046,45.607 34.162,46.64 
			27.498,53.14 37.903,51.638 		"/>
	</g>
</g>
<g id="Par">
		<path fill="#272727" d="M45.197,84.558c0,0,8.915-6.655,16.208-6.572s16.209,6.605,16.209,6.605s-8.586-6.063-16.209-6.23
		C53.78,78.194,45.197,84.558,45.197,84.558z"> 
		<animate type="translate" 
			attributeName="d"
			keyTimes="0;.3;.32;.33;.34;.35;1"
		    dur="7s" 
		    repeatCount="indefinite"
			values="M45.197,84.558c0,0,8.915-6.655,16.208-6.572s16.209,6.605,16.209,6.605s-8.586-6.063-16.209-6.23
		C53.78,78.194,45.197,84.558,45.197,84.558z;
		M45.197,84.558c0,0,8.915-6.655,16.208-6.572s16.209,6.605,16.209,6.605s-8.586-6.063-16.209-6.23
		C53.78,78.194,45.197,84.558,45.197,84.558z;
		M45.197,84.558c0,0,8.915-6.655,16.208-6.572s16.209,6.605,16.209,6.605s-8.461,0.749-16.084,0.582
		C53.906,85.007,45.197,84.558,45.197,84.558z;
		M45.197,84.558c0,0,8.915-6.655,16.208-6.572s16.209,6.605,16.209,6.605s-8.586,6.562-16.209,6.395
		C53.78,90.819,45.197,84.558,45.197,84.558z;
		M45.197,84.558c0,0,8.915-6.655,16.208-6.572s16.209,6.605,16.209,6.605s-8.461,0.749-16.084,0.582
		C53.906,85.007,45.197,84.558,45.197,84.558z;
		M45.197,84.558c0,0,8.915-6.655,16.208-6.572s16.209,6.605,16.209,6.605s-8.586-6.063-16.209-6.23
		C53.78,78.194,45.197,84.558,45.197,84.558z;
		M45.197,84.558c0,0,8.915-6.655,16.208-6.572s16.209,6.605,16.209,6.605s-8.586-6.063-16.209-6.23
		C53.78,78.194,45.197,84.558,45.197,84.558z"
		 />
	</path>
</g>
</svg>
