<?xml version="1.0" encoding="utf-8"?>
<!-- Generator: Adobe Illustrator 19.0.0, SVG Export Plug-In . SVG Version: 6.00 Build 0)  -->
<svg version="1.1" xmlns="http://www.w3.org/2000/svg" xmlns:xlink="http://www.w3.org/1999/xlink" x="0px" y="0px"
	 viewBox="-87 20 123.1 112" style="enable-background:new -87 20 123.1 112;" xml:space="preserve">
<style type="text/css">
	.st0{fill:#272727;}
</style>
<g id="Toro">
	<g>
		<path class="st0" d="M35.7,60.4c-0.2-0.1-0.6-0.2-1-0.3C34.5,60,34.3,60,34,59.9c-0.3-0.1-0.6-0.1-0.9-0.2
			c-0.6-0.2-1.4-0.3-2.2-0.5c-0.8-0.2-1.7-0.4-2.7-0.6c-0.5-0.1-1-0.2-1.6-0.3c-0.5-0.1-1.1-0.2-1.7-0.3c-1.1-0.2-2.3-0.4-3.6-0.7
			c0.2-0.8,0.3-1.5,0.5-2.3c0.1-0.7,0.3-1.4,0.4-2c0.1-0.7,0.2-1.3,0.3-2c0.4-2.6,0.8-5.1,1.1-7.5c0.7-4.7,1.1-8.8,1.5-12.2
			c0.4-3.4,0.6-6.1,0.7-7.9c0.1-0.9,0.1-1.6,0.2-2.1c0-0.5,0-0.7,0-0.7s-0.1,1-0.4,2.8c-0.3,1.8-0.7,4.4-1.3,7.8
			c-0.6,3.3-1.4,7.4-2.3,12c-0.5,2.3-1,4.8-1.6,7.4c-0.1,0.6-0.3,1.3-0.4,2c-0.1,0.7-0.3,1.3-0.4,2c-0.2,0.8-0.3,1.6-0.5,2.4
			c0,0,0,0,0,0c-0.7-0.1-1.4-0.1-2.1-0.2c-0.7-0.1-1.5-0.1-2.2-0.2c-0.4,0-0.8-0.1-1.1-0.1c-0.4,0-0.8-0.1-1.2-0.1
			c-1.6-0.1-3.2-0.3-4.8-0.4c-1.7-0.1-3.4-0.3-5.1-0.3c-0.9-0.1-1.8-0.1-2.6-0.2c-0.4,0-0.9-0.1-1.3-0.1c-0.5,0-0.9,0-1.4-0.1
			c-0.9,0-1.8-0.1-2.7-0.1C-6,55-6.5,55-6.9,55c-0.5,0-0.9,0-1.4,0c-0.9,0-1.9-0.1-2.8-0.1c-0.9,0-1.9-0.1-2.9-0.1
			c-1.9,0-3.8-0.1-5.8-0.1c-1,0-1.9,0-2.9,0c-1,0-1.9,0-2.9,0c-7.8,0.1-15.5,0.6-22.8,1.4c-7,0.7-13.5,1.6-19.2,2.6
			c-0.2-0.9-0.3-1.7-0.5-2.5c-0.6-2.6-1.1-5-1.5-7.4c-0.5-2.3-0.8-4.5-1.2-6.5c-0.4-2-0.7-3.9-0.9-5.5c-0.5-3.4-0.9-6-1.1-7.8
			c-0.2-1.8-0.3-2.8-0.3-2.8s0,0.2,0,0.7c0,0.5,0,1.2,0.1,2.1c0.1,1.8,0.2,4.5,0.5,7.9c0.3,3.4,0.7,7.5,1.3,12.2
			c0.3,2.4,0.7,4.9,1.1,7.5c0.1,0.8,0.3,1.7,0.5,2.5c-0.2,0-0.3,0.1-0.5,0.1c-0.3,0.1-0.7,0.1-1,0.2c-0.3,0.1-0.7,0.1-1,0.2
			c-1.3,0.3-2.5,0.6-3.7,0.9C-77,60.7-78,61-79,61.3c-1,0.3-1.9,0.5-2.7,0.8c-1.6,0.5-2.9,0.9-3.8,1.2c-0.4,0.1-0.8,0.3-1,0.3
			c-0.2,0.1-0.3,0.1-0.3,0.1s0.5-0.1,1.4-0.2c0.9-0.1,2.2-0.3,3.9-0.6c0.8-0.1,1.8-0.3,2.8-0.4c1-0.1,2.1-0.3,3.3-0.4
			c1.2-0.2,2.4-0.3,3.7-0.5c0.7-0.1,1.3-0.2,2-0.3c0.2,0,0.4-0.1,0.6-0.1c0.3,1.2,0.5,2.4,0.8,3.6c1.3,5.7,2.8,11.9,4.9,18.3
			c1,3.2,2.2,6.5,3.5,9.7c1.3,3.3,2.8,6.6,4.4,9.9c1.7,3.3,3.5,6.5,5.7,9.7c1.1,1.6,2.3,3.1,3.5,4.6c1.3,1.5,2.6,2.9,4,4.2
			c2.9,2.7,6.2,5,9.9,6.6c0.9,0.4,1.9,0.8,2.8,1.1c0.2,0.1,0.5,0.2,0.7,0.2l0.7,0.2c0.2,0.1,0.5,0.1,0.7,0.2c0.1,0,0.2,0.1,0.4,0.1
			l0.4,0.1c0.2,0.1,0.5,0.1,0.7,0.2l0.4,0.1l0.4,0.1c0.5,0.1,1,0.1,1.5,0.2c1,0.1,2,0.1,3.1,0c2-0.1,4.1-0.6,6-1.3
			c1.9-0.7,3.7-1.7,5.3-2.9c1.6-1.2,3.1-2.5,4.5-3.9c1.4-1.4,2.6-2.9,3.8-4.5c2.3-3.1,4.3-6.4,6.1-9.8c1.8-3.4,3.3-6.8,4.7-10.2
			c2.8-6.8,4.9-13.5,6.8-20c1.8-6.4,3.3-12.5,4.5-18.2c0,0,0,0,0.1,0c1.3,0.1,2.6,0.2,3.7,0.2c1.2,0.1,2.3,0.2,3.3,0.2
			c1,0.1,2,0.2,2.8,0.2c1.7,0.2,3,0.3,3.9,0.4c0.9,0.1,1.4,0.2,1.4,0.2S35.9,60.4,35.7,60.4z M-25.4,94.4
			c-11.9,0-24.3-8.5-27.5-10.9c1.2-1,3.9-3.1,7.6-5.2c4.8-2.7,12.4-5.9,21.3-5.9c0,0,0,0,0,0c8,0,15.1,3.2,19.7,5.9
			c3.6,2.1,6.2,4.2,7.5,5.2C0.1,85.9-11.8,94.4-25.4,94.4z"/>
	</g>
</g>
<g id="Parpado">
	<path class="st0" d="M-54,83.4c0,0,8.7-12.3,28.5-12.3S4.2,83.4,4.2,83.4S-6.4,67.5-25.4,67.5S-54,83.4-54,83.4z">

		<animate  type="translate"
							fill="remove"
							calcMode="spline"
							additive="replace"
							restart="always"
							accumulate="none"
							attributeName="d"
							dur="7s"
							values="
							M-54,83.4c0,0,8.7-12.3,28.5-12.3S4.2,83.4,4.2,83.4S-6.4,67.5-25.4,67.5S-54,83.4-54,83.4z;
							M-54,83.4c0,0,8.7-12.3,28.5-12.3S4.2,83.4,4.2,83.4S-6.4,67.5-25.4,67.5S-54,83.4-54,83.4z;
							M-54,83.4c0,0,8.7,12.5,28.5,12.5S4.2,83.4,4.2,83.4S-6.4,67.5-25.4,67.5S-54,83.4-54,83.4z;
							M-54,83.4c0,0,8.7-12.3,28.5-12.3S4.2,83.4,4.2,83.4S-6.4,67.5-25.4,67.5S-54,83.4-54,83.4z;
							M-54,83.4c0,0,8.7-12.3,28.5-12.3S4.2,83.4,4.2,83.4S-6.4,67.5-25.4,67.5S-54,83.4-54,83.4z"
							keyTimes="0;.3;.35;.4;1"
							keySplines="0.1 0.8 0.2 1;
													0.1 0.8 0.2 1;
													0.1 0.8 0.2 1;
													0.1 0.8 0.2 1;"
							repeatCount="indefinite">
		</animate>
	</path>
</g>
</svg>
