<?xml version="1.0" encoding="utf-8"?>
<!-- Generator: Adobe Illustrator 16.0.0, SVG Export Plug-In . SVG Version: 6.00 Build 0)  -->
<!DOCTYPE svg PUBLIC "-//W3C//DTD SVG 1.1//EN" "http://www.w3.org/Graphics/SVG/1.1/DTD/svg11.dtd">
<svg version="1.1" id="Layer_1" xmlns="http://www.w3.org/2000/svg" xmlns:xlink="http://www.w3.org/1999/xlink" x="0px" y="0px"
	 width="707.539px" height="348.539px" viewBox="0 0 707.539 348.539" enable-background="new 0 0 707.539 348.539"
	 xml:space="preserve">
<g>
	<polygon fill="#232323" points="82.189,88.327 77.188,84.311 51.465,107.165 112.908,107.165 87.186,84.311 	"/>
	<polygon fill="#232323" points="108.777,57.862 55.595,57.862 82.189,79.223 	"/>
	<polygon fill="#232323" points="113.875,102.085 113.875,62.874 90.691,81.493 	"/>
	<path fill="#232323" d="M82.205,1.322C36.806,1.322,0,38.128,0,83.523c0,45.4,36.805,82.199,82.205,82.199
		c45.396,0,82.201-36.799,82.201-82.199C164.406,38.128,127.602,1.322,82.205,1.322z M120.975,114.263H42.847v-63.5h78.127V114.263
		L120.975,114.263z"/>
	<polygon fill="#232323" points="49.945,62.43 49.945,102.577 73.677,81.493 	"/>
</g>
<path fill="#232323" d="M618.561,165.957c-45.276,0-81.981-36.699-81.981-81.979c0-45.271,36.705-81.978,81.981-81.978
	c45.271,0,81.972,36.705,81.972,81.978C700.532,129.256,663.831,165.957,618.561,165.957 M659.68,62.502
	c-3.017,1.34-6.271,2.246-9.673,2.652c3.479-2.086,6.152-5.385,7.404-9.317c-3.26,1.931-6.854,3.331-10.699,4.084
	c-3.063-3.274-7.45-5.317-12.299-5.317c-9.293,0-16.836,7.543-16.836,16.846c0,1.322,0.146,2.604,0.433,3.836
	c-13.999-0.703-26.406-7.404-34.724-17.604c-1.451,2.497-2.283,5.39-2.283,8.479c0,5.839,2.975,10.998,7.498,14.021
	c-2.764-0.084-5.361-0.849-7.635-2.103v0.207c0,8.166,5.805,14.98,13.519,16.523c-1.417,0.395-2.904,0.594-4.438,0.594
	c-1.088,0-2.146-0.104-3.173-0.301c2.146,6.689,8.365,11.562,15.74,11.693c-5.771,4.521-13.033,7.213-20.927,7.213
	c-1.355,0-2.702-0.074-4.021-0.232c7.456,4.775,16.314,7.566,25.827,7.566c30.99,0,47.925-25.668,47.925-47.937
	c0-0.731-0.009-1.462-0.042-2.179C654.568,68.85,657.43,65.88,659.68,62.502"/>
<path fill="#232323" d="M441.028,166.047c-45.572,0-82.518-36.948-82.518-82.528C358.511,37.945,395.456,1,441.028,1
	c45.584,0,82.533,36.945,82.533,82.518C523.562,129.099,486.612,166.047,441.028,166.047 M430.187,42.263
	c-0.521,4.255-1.486,7.766-2.89,10.515c-1.394,2.767-3.251,5.127-5.562,7.088c-2.312,1.962-5.079,3.479-8.33,4.53V76.07h9.126
	v28.944c0,3.774,0.389,6.655,1.185,8.645c0.786,1.979,2.208,3.863,4.256,5.629c2.047,1.762,4.521,3.111,7.42,4.072
	c2.891,0.947,6.227,1.428,10.006,1.428c3.315,0,6.406-0.33,9.271-1.01c2.862-0.662,6.046-1.834,9.581-3.486v-13.021
	c-4.143,2.711-8.293,4.076-12.473,4.076c-2.353,0-4.437-0.541-6.256-1.642c-1.394-0.81-2.33-1.896-2.832-3.261
	c-0.514-1.352-0.76-4.42-0.76-9.211V76.07h19.578v-12.95h-19.578V42.263H430.187z"/>
<path fill="#232323" d="M259.579,166.017c-45.563,0-82.506-36.938-82.506-82.508C177.073,37.944,214.016,1,259.579,1
	s82.507,36.942,82.507,82.508C342.086,129.079,305.143,166.017,259.579,166.017 M239.672,81.883h8.533v42.877h15.988V81.883h12.652
	l0.95-12.346h-13.603v-9.637c0-3.316,2.971-4.505,6.291-4.505c3.316,0,6.869,1.028,6.869,1.028l2.133-12.641
	c0,0-4.529-1.535-15.293-1.535c-6.604,0-10.441,2.517-13.241,6.217c-2.657,3.486-2.747,9.123-2.747,12.781v8.291h-8.533V81.883z"/>
<path opacity="0.8" fill="#232323" d="M618.561,343.744c-45.276,0-81.981-36.699-81.981-81.979
	c0-45.271,36.705-81.978,81.981-81.978c45.271,0,81.972,36.705,81.972,81.978C700.532,307.043,663.831,343.744,618.561,343.744
	 M659.68,240.289c-3.017,1.34-6.271,2.246-9.673,2.652c3.479-2.086,6.152-5.385,7.404-9.317c-3.26,1.931-6.854,3.331-10.699,4.084
	c-3.063-3.274-7.45-5.317-12.299-5.317c-9.293,0-16.836,7.543-16.836,16.846c0,1.322,0.146,2.604,0.433,3.836
	c-13.999-0.703-26.406-7.404-34.724-17.604c-1.451,2.497-2.283,5.39-2.283,8.479c0,5.839,2.975,10.998,7.498,14.021
	c-2.764-0.084-5.361-0.849-7.635-2.103v0.207c0,8.166,5.805,14.98,13.519,16.523c-1.417,0.395-2.904,0.594-4.438,0.594
	c-1.088,0-2.146-0.104-3.173-0.301c2.146,6.689,8.365,11.562,15.74,11.693c-5.771,4.521-13.033,7.213-20.927,7.213
	c-1.355,0-2.702-0.074-4.021-0.232c7.456,4.775,16.314,7.566,25.827,7.566c30.99,0,47.925-25.668,47.925-47.937
	c0-0.731-0.009-1.462-0.042-2.179C654.568,246.637,657.43,243.667,659.68,240.289"/>
<path opacity="0.8" fill="#232323" d="M441.028,343.834c-45.572,0-82.518-36.948-82.518-82.528
	c0-45.573,36.945-82.519,82.518-82.519c45.584,0,82.533,36.945,82.533,82.519C523.562,306.886,486.612,343.834,441.028,343.834
	 M430.187,220.05c-0.521,4.255-1.486,7.766-2.89,10.515c-1.394,2.768-3.251,5.127-5.562,7.088c-2.312,1.963-5.079,3.479-8.33,4.53
	v11.675h9.126v28.944c0,3.774,0.389,6.655,1.185,8.645c0.786,1.979,2.208,3.863,4.256,5.629c2.047,1.762,4.521,3.111,7.42,4.072
	c2.891,0.947,6.227,1.428,10.006,1.428c3.315,0,6.406-0.33,9.271-1.01c2.862-0.662,6.046-1.834,9.581-3.486v-13.021
	c-4.143,2.711-8.293,4.076-12.473,4.076c-2.353,0-4.437-0.541-6.256-1.642c-1.394-0.81-2.33-1.896-2.832-3.261
	c-0.514-1.352-0.76-4.42-0.76-9.211v-21.163h19.578v-12.949h-19.578V220.05H430.187z"/>
<path opacity="0.8" fill="#232323" d="M259.579,343.804c-45.563,0-82.506-36.938-82.506-82.509
	c0-45.564,36.942-82.508,82.506-82.508s82.507,36.943,82.507,82.508C342.086,306.866,305.143,343.804,259.579,343.804
	 M239.672,259.67h8.533v42.878h15.988V259.67h12.652l0.95-12.346h-13.603v-9.637c0-3.316,2.971-4.504,6.291-4.504
	c3.316,0,6.869,1.027,6.869,1.027l2.133-12.641c0,0-4.529-1.535-15.293-1.535c-6.604,0-10.441,2.518-13.241,6.217
	c-2.657,3.486-2.747,9.123-2.747,12.781v8.291h-8.533V259.67z"/>
<g opacity="0.8">
	<polygon fill="#232323" points="82.189,266.102 77.188,262.085 51.465,284.939 112.908,284.939 87.186,262.085 	"/>
	<polygon fill="#232323" points="108.777,235.637 55.595,235.637 82.189,256.997 	"/>
	<polygon fill="#232323" points="113.875,279.859 113.875,240.648 90.691,259.268 	"/>
	<path fill="#232323" d="M82.205,179.096C36.806,179.096,0,215.902,0,261.297c0,45.4,36.805,82.199,82.205,82.199
		c45.396,0,82.201-36.799,82.201-82.199C164.406,215.902,127.602,179.096,82.205,179.096z M120.975,292.037H42.847v-63.5h78.127
		V292.037L120.975,292.037z"/>
	<polygon fill="#232323" points="49.945,240.204 49.945,280.352 73.677,259.268 	"/>
</g>
</svg>
