<?xml version="1.0" encoding="utf-8"?>
<!-- Generator: Adobe Illustrator 21.0.2, SVG Export Plug-In . SVG Version: 6.00 Build 0)  -->
<svg version="1.1" id="Layer_1" xmlns="http://www.w3.org/2000/svg" xmlns:xlink="http://www.w3.org/1999/xlink" x="0px" y="0px"
	 viewBox="0 0 707.5 166" style="enable-background:new 0 0 707.5 166;" xml:space="preserve">
<style type="text/css">
	.st0{fill:#FFFFFF;}
</style>
<g id="XMLID_13_">
	<path id="XMLID_17_" class="st0" d="M457.9,40.1H422c-14.6,0-26.5,11.9-26.5,26.5v35.9c0,14.6,11.9,26.5,26.5,26.5h35.9
		c14.6,0,26.5-11.9,26.5-26.5V66.6C484.4,52,472.5,40.1,457.9,40.1z M475.5,102.5c0,9.7-7.8,17.5-17.5,17.5h-36
		c-9.7,0-17.5-7.8-17.5-17.5V66.6c0-9.7,7.8-17.5,17.5-17.5h35.9c9.7,0,17.5,7.8,17.5,17.5L475.5,102.5L475.5,102.5z"/>
	<path id="XMLID_81_" class="st0" d="M440,61.6c-12.7,0-23,10.3-23,23s10.3,23,23,23s23-10.3,23-23S452.7,61.6,440,61.6z M440,98.6
		c-7.8,0-14-6.3-14-14s6.3-14,14-14c7.8,0,14,6.3,14,14S447.7,98.6,440,98.6z"/>
	<circle id="XMLID_83_" class="st0" cx="463" cy="61.7" r="5.5"/>
</g>
<path class="st0" d="M256.6,88.2v41.2h-16.3V88v-2h-2h-9.7V71.7h10.2h2v-2V58.4v-0.2V58c-0.2-1.2-0.9-7.2,4.7-12.4
	c5.3-4.8,11.9-5.2,13.9-5.2c0.2,0,0.4,0,0.5,0l0,0l0,0h11.7v13.2h-8.3c-4.2,0-6.7,2.4-6.7,6.4v9.7v2h2h12.9l-1.7,14.4h-11.3h-2
	L256.6,88.2L256.6,88.2z"/>
<g>
	<path class="st0" d="M655.6,63.6c-4-6.8-9.4-12.2-16.2-16.2c-6.8-4-14.3-6-22.4-6c-8.1,0-15.5,2-22.4,6c-6.8,4-12.2,9.4-16.2,16.2
		c-4,6.8-6,14.3-6,22.4c0,9.7,2.8,18.4,8.5,26.2c5.7,7.8,13,13.1,22,16.1c1,0.2,1.8,0.1,2.3-0.4c0.5-0.5,0.8-1,0.8-1.7
		c0-0.1,0-1.2,0-3.1c0-2,0-3.7,0-5.2l-1.3,0.2c-0.9,0.2-1.9,0.2-3.2,0.2c-1.3,0-2.6-0.2-4-0.4c-1.4-0.3-2.7-0.8-3.9-1.7
		c-1.2-0.9-2-2.1-2.6-3.6l-0.6-1.3c-0.4-0.9-1-1.9-1.8-3c-0.8-1.1-1.7-1.8-2.5-2.2l-0.4-0.3c-0.3-0.2-0.5-0.4-0.8-0.7
		c-0.2-0.3-0.4-0.5-0.5-0.8c-0.1-0.3,0-0.5,0.3-0.7c0.3-0.2,0.9-0.3,1.7-0.3l1.2,0.2c0.8,0.2,1.7,0.6,2.9,1.4c1.1,0.8,2.1,1.8,2.8,3
		c0.9,1.6,2,2.8,3.2,3.6c1.3,0.8,2.5,1.2,3.8,1.2s2.4-0.1,3.3-0.3c0.9-0.2,1.8-0.5,2.6-0.9c0.3-2.6,1.3-4.6,2.8-6
		c-2.2-0.2-4.2-0.6-5.9-1c-1.8-0.5-3.6-1.2-5.5-2.3c-1.9-1-3.4-2.3-4.7-3.9c-1.2-1.5-2.3-3.6-3-6.1c-0.8-2.5-1.2-5.4-1.2-8.7
		c0-4.7,1.5-8.7,4.6-11.9c-1.4-3.5-1.3-7.5,0.4-11.8c1.1-0.3,2.8-0.1,5,0.8c2.2,0.9,3.8,1.6,4.8,2.2c1,0.6,1.8,1.1,2.5,1.6
		c3.6-1,7.3-1.5,11.1-1.5c3.8,0,7.5,0.5,11.1,1.5l2.2-1.4c1.5-0.9,3.3-1.8,5.3-2.6c2-0.8,3.6-1,4.7-0.6c1.7,4.4,1.9,8.3,0.5,11.8
		c3.1,3.3,4.6,7.3,4.6,11.9c0,3.3-0.4,6.2-1.2,8.7c-0.8,2.5-1.8,4.6-3.1,6.1c-1.3,1.5-2.8,2.8-4.7,3.9c-1.9,1-3.7,1.8-5.5,2.3
		c-1.8,0.5-3.7,0.8-5.9,1c2,1.7,3,4.5,3,8.2v12.2c0,0.7,0.2,1.3,0.7,1.7c0.5,0.5,1.2,0.6,2.3,0.4c9-3,16.3-8.3,22-16.1
		c5.7-7.8,8.5-16.5,8.5-26.2C661.5,77.9,659.5,70.5,655.6,63.6z"/>
</g>
<g>
	<polygon class="st0" points="81.3,42.2 126.4,70.3 36.2,70.3 	"/>
	<path class="st0" d="M127,115.3L127,115.3c0,4.5-3.7,8.2-8.2,8.2h-75c-4.5,0-8.2-3.7-8.2-8.2V72.1c0-0.5,0-0.9,0.1-1.4l43.1,26.9
		c0.1,0,0.1,0.1,0.2,0.1c0.1,0,0.1,0.1,0.2,0.1c0.3,0.2,0.6,0.3,0.9,0.4c0,0,0.1,0,0.1,0c0.4,0.1,0.7,0.1,1.1,0.1h0c0,0,0,0,0,0
		c0.4,0,0.7-0.1,1.1-0.1c0,0,0.1,0,0.1,0c0.3-0.1,0.6-0.2,0.9-0.4c0.1,0,0.1-0.1,0.2-0.1c0.1,0,0.1-0.1,0.2-0.1l43.1-26.9
		c0.1,0.5,0.1,0.9,0.1,1.4L127,115.3L127,115.3z"/>
</g>
</svg>
