<?xml version="1.0" encoding="utf-8"?>
<!-- Generator: Adobe Illustrator 16.0.0, SVG Export Plug-In . SVG Version: 6.00 Build 0)  -->
<!DOCTYPE svg PUBLIC "-//W3C//DTD SVG 1.1//EN" "http://www.w3.org/Graphics/SVG/1.1/DTD/svg11.dtd">
<svg version="1.1" id="Layer_1" xmlns="http://www.w3.org/2000/svg" xmlns:xlink="http://www.w3.org/1999/xlink" x="0px" y="0px"
	 width="1500px" height="800px" viewBox="0 0 1500 800" enable-background="new 0 0 1500 800" xml:space="preserve">
<g>
	<path fill="#202429" d="M70.044,33.187v752.048c0,7.204,5.841,13.043,13.045,13.043h763.164c7.204,0,13.045-5.839,13.045-13.043
		V33.186L70.044,33.187z"/>
	<path fill="#F2F2F2" d="M859.298,33.204V13.049c0-7.205-5.841-13.045-13.045-13.045H83.089c-7.204,0-13.045,5.84-13.045,13.046
		v20.154H859.298z"/>
	<circle fill="#454951" cx="86.398" cy="17.097" r="2.712"/>
	<circle fill="#454951" cx="96.342" cy="17.097" r="2.712"/>
	<circle fill="#454951" cx="106.204" cy="17.097" r="2.712"/>
	<path fill="#454951" d="M846.642,12.413c0,0.499-0.405,0.904-0.904,0.904h-14.135c-0.499,0-0.903-0.405-0.903-0.904l0,0
		c0-0.499,0.404-0.904,0.903-0.904h14.135C846.236,11.508,846.642,11.914,846.642,12.413L846.642,12.413z"/>
	<path fill="#454951" d="M846.642,16.604c0,0.499-0.405,0.904-0.904,0.904h-14.135c-0.499,0-0.903-0.405-0.903-0.904l0,0
		c0-0.5,0.404-0.904,0.903-0.904h14.135C846.236,15.7,846.642,16.104,846.642,16.604L846.642,16.604z"/>
	<path fill="#454951" d="M846.642,20.96c0,0.499-0.405,0.904-0.904,0.904h-14.135c-0.499,0-0.903-0.405-0.903-0.904l0,0
		c0-0.5,0.404-0.905,0.903-0.905h14.135C846.236,20.055,846.642,20.46,846.642,20.96L846.642,20.96z"/>
	<path fill="#FFFFFF" d="M816.811,16.352c0,4.166-3.377,7.544-7.542,7.544H134.145c-4.168,0-7.545-3.378-7.545-7.544l0,0
		c0-4.166,3.376-7.544,7.545-7.544h675.124C813.434,8.808,816.811,12.186,816.811,16.352L816.811,16.352z"/>
</g>
<g>
	<path fill="#F2F2F2" d="M1339.063,742.881c0,30.84-25.509,55.839-56.978,55.839H1016.19c-31.468,0-56.977-24.999-56.977-55.839
		V54.187c0-30.84,25.509-55.84,56.977-55.84h265.896c31.469,0,56.978,25,56.978,55.84V742.881z"/>
	<path fill="#FFFFFF" d="M1331.514,737.982c0,29.4-25.634,53.233-55.633,53.233h-253.484c-29.999,0-55.632-23.833-55.632-53.233
		V59.748c0-29.4,25.633-53.234,55.632-53.234h253.484c29.999,0,55.633,23.833,55.633,53.234V737.982z"/>
	<rect x="978.412" y="90.525" fill="#202429" width="341.451" height="606.734"/>
	<circle fill="#F2F2F2" cx="1149.139" cy="743.005" r="29.33"/>
	<g>
		<circle fill="#F2F2F2" cx="1099.89" cy="53.752" r="4.378"/>
		<path fill="#F2F2F2" d="M1202.764,53.752c0,2.056-1.666,3.722-3.721,3.722h-84.051c-2.055,0-3.721-1.667-3.721-3.722l0,0
			c0-2.055,1.666-3.721,3.721-3.721h84.051C1201.098,50.031,1202.764,51.698,1202.764,53.752L1202.764,53.752z"/>
	</g>
</g>
</svg>
