<?xml version="1.0" encoding="utf-8"?>
<!-- Generator: Adobe Illustrator 16.0.0, SVG Export Plug-In . SVG Version: 6.00 Build 0)  -->
<!DOCTYPE svg PUBLIC "-//W3C//DTD SVG 1.1//EN" "http://www.w3.org/Graphics/SVG/1.1/DTD/svg11.dtd">
<svg version="1.1" id="Layer_2" xmlns="http://www.w3.org/2000/svg" xmlns:xlink="http://www.w3.org/1999/xlink" x="0px" y="0px"
	 width="1500px" height="800px" viewBox="0 0 1500 800" enable-background="new 0 0 1500 800" xml:space="preserve">
<g>
	<g>
		<path d="M277.28,694.72c-6.61,0-12.21-2.52-16.62-7.48c-16.82-18.89-14.71-73.21-7.19-145.78c-8.67-11.59-18.88-21.93-30.67-30.03
			c-1.87-1.29-2.34-3.84-1.06-5.71c1.29-1.87,3.84-2.34,5.71-1.06c9.79,6.73,18.94,15.23,27.24,25.18
			c1.87-17.25,3.98-35.44,6.18-54.33c15.41-132.37,34.58-297.1-9.37-381.68c-1.05-2.01-0.26-4.49,1.75-5.54
			c2.01-1.04,4.49-0.26,5.54,1.75c45.12,86.82,25.78,252.94,10.24,386.42c-2.53,21.76-4.99,42.86-7.07,62.77
			c10.82,15.05,19.88,32.77,26.63,52.37c11.03,32.03,14.22,65.42,8.12,85.05C291.82,692.38,282.44,694.72,277.28,694.72z
			 M260.67,551.92c-6.34,64.27-7.89,114.12,6.13,129.87c2.83,3.18,6.26,4.73,10.49,4.73c5.15,0,9.04-4.13,11.58-12.29
			C296.56,649.42,287.9,594.73,260.67,551.92z"/>
	</g>
	<g>
		<path d="M500.98,530.74h-11.93v-71.4h-12.58v-10.77h36.72v10.77h-12.21V530.74z"/>
	</g>
	<g>
		<path d="M557.02,530.74h-12.13v-40.05h-14.76v40.05h-12.13v-82.17h12.13v31.66h14.76v-31.66h12.13V530.74z"/>
	</g>
	<g>
		<path d="M598.48,530.74h-30.22v-82.17h30.22v10.46H580.4v24.4h16.04v10.46H580.4v26.4h18.09V530.74z"/>
	</g>
	<g>
		<path d="M653.07,531.74c-16.72,0-25.2-13.72-25.2-40.77c0-14.51,2.05-25.48,6.08-32.59c4.1-7.23,10.46-10.9,18.91-10.9
			c3.13,0,6.26,0.83,9.31,2.48l0.32,0.17v11.16l-0.89-0.43c-2.7-1.31-4.97-1.98-6.75-1.98c-2.45,0-4.57,0.61-6.31,1.8
			c-1.75,1.21-3.22,3.11-4.37,5.65c-1.18,2.59-2.06,5.93-2.62,9.92c-0.57,4.03-0.86,8.86-0.86,14.35c0,19.49,4.96,29.37,14.74,29.37
			c1.69,0,3.77-0.55,6.2-1.62l0.87-0.39v11.32l-0.31,0.18C659.47,530.97,656.41,531.74,653.07,531.74z"/>
	</g>
	<g>
		<path d="M690.18,531.74c-8.08,0-13.86-3.38-17.17-10.04c-3.21-6.38-4.83-17.81-4.83-33.98c0-14.43,1.61-24.81,4.79-30.85
			c3.28-6.2,8.9-9.35,16.69-9.35c6.96,0,12.21,2.43,15.6,7.23c2.21,3.17,3.83,7.72,4.82,13.51c0.98,5.32,1.48,13.19,1.48,23.38
			c0,14.33-1.63,24.67-4.84,30.74C703.43,528.6,697.87,531.74,690.18,531.74z M689.92,458.61c-3.61,0-5.95,1.93-7.17,5.91
			c-1.23,4.18-1.86,12.76-1.86,25.51c0,11.74,0.66,19.97,1.97,24.47c1.28,4.07,3.59,6.06,7.06,6.06c3.41,0,5.68-1.85,6.97-5.66
			c1.34-3.94,2.01-11.36,2.01-22.08c0-13.89-0.63-23.22-1.87-27.73C695.84,460.73,693.52,458.61,689.92,458.61z"/>
	</g>
	<path d="M765.19,530.74h-9.53l-5.8-35.48c-0.03-0.09-0.12-0.69-0.26-1.74c-0.14-1.01-0.35-2.46-0.63-4.35l-1.1-8.08
		c-0.07-0.64-0.19-1.58-0.34-2.84c-0.05-0.41-0.1-0.86-0.16-1.35c-0.07,0.83-0.13,1.54-0.19,2.14c-0.12,1.28-0.21,2.07-0.24,2.35
		l-1.67,11.89c-0.21,1.48-0.29,1.87-0.34,2.05l-6,35.41h-9.79l-14.21-82.17h11.8l6.47,43.66c0.42,3.02,0.74,5.8,0.95,8.28l0.25,2.98
		c0.31-3.09,0.63-6.01,0.96-8.71c0.47-3.84,0.99-7.42,1.55-10.67l5.9-35.53h9.44l5.54,34.54c0.8,5.02,1.48,9.73,2.02,14.02
		c0.25,2.01,0.48,4,0.7,5.94c0.19-1.89,0.38-3.75,0.59-5.56c0.43-3.81,0.9-7.62,1.39-11.33l5.53-37.6h11.7l-0.13,0.72L765.19,530.74
		z"/>
	<g>
		<path d="M821.69,530.74h-12.07l-3.04-15.78h-15.02l-3.09,15.78H776.7l17.88-82.17h9.49L821.69,530.74z M793.31,505.29h11.46
			l-2.27-12.17c-1.3-7.11-2.42-14.68-3.33-22.57c-0.37,3.05-0.79,6.13-1.27,9.21c-0.77,4.96-1.68,10.3-2.73,15.88L793.31,505.29z"/>
	</g>
	<g>
		<path d="M865.01,530.74h-12.38l-13.79-36.84v36.84H826.7v-82.17h14.98c6.08,0,10.69,1.49,13.69,4.42
			c3.77,3.78,5.69,9.59,5.69,17.27c0,5.88-1,10.68-2.99,14.27c-1.9,3.43-4.6,5.67-8.03,6.65L865.01,530.74z M838.84,458.77v25.65
			c3.71-0.09,6.36-1,7.89-2.72c1.64-1.83,2.46-5.03,2.46-9.5c0-2.46-0.18-4.59-0.54-6.32c-0.35-1.69-0.9-3.08-1.63-4.12
			c-0.72-1.02-1.65-1.77-2.78-2.25c-1.16-0.49-2.57-0.74-4.19-0.74H838.84z"/>
	</g>
	<g>
		<path d="M881.36,530.74h-9.42v-82.17h14.04c4.13,0,7.67,0.47,10.52,1.39c2.68,0.91,5.1,2.53,7.19,4.84
			c3.09,3.42,5.33,7.92,6.64,13.37c1.3,5.22,1.95,12.81,1.95,22.53c0,8.92-0.73,16.31-2.16,21.96c-1.43,5.48-3.82,9.73-7.11,12.63
			C898.96,528.91,891.68,530.74,881.36,530.74z M884.08,458.98v60.98c6.03-0.12,10.12-2.04,12.16-5.7
			c2.24-3.91,3.38-11.69,3.38-23.13c0-12.32-1.09-20.9-3.24-25.48c-2.11-4.49-5.89-6.67-11.55-6.67H884.08z"/>
	</g>
	<g>
		<path d="M967.7,531.74c-16.72,0-25.2-13.72-25.2-40.77c0-14.51,2.05-25.48,6.08-32.59c4.1-7.23,10.46-10.9,18.91-10.9
			c3.13,0,6.26,0.83,9.31,2.48l0.32,0.17v11.16l-0.89-0.43c-2.69-1.31-4.97-1.98-6.75-1.98c-2.45,0-4.57,0.61-6.31,1.8
			c-1.75,1.21-3.22,3.11-4.38,5.65c-1.17,2.59-2.06,5.93-2.62,9.92c-0.57,4.03-0.86,8.86-0.86,14.35c0,19.49,4.96,29.37,14.75,29.37
			c1.69,0,3.77-0.55,6.2-1.62l0.87-0.39v11.32l-0.32,0.18C974.11,530.97,971.04,531.74,967.7,531.74z"/>
	</g>
	<g>
		<path d="M1004.82,531.74c-8.08,0-13.86-3.38-17.17-10.04c-3.21-6.38-4.83-17.82-4.83-33.98c0-14.43,1.61-24.81,4.79-30.85
			c3.28-6.2,8.9-9.35,16.69-9.35c6.96,0,12.21,2.43,15.6,7.23c2.21,3.17,3.83,7.72,4.82,13.51c0.98,5.32,1.48,13.19,1.48,23.38
			c0,14.33-1.63,24.67-4.84,30.74C1018.07,528.6,1012.5,531.74,1004.82,531.74z M1004.55,458.61c-3.61,0-5.95,1.93-7.17,5.91
			c-1.23,4.18-1.86,12.77-1.86,25.51c0,11.74,0.66,19.97,1.97,24.47c1.28,4.07,3.59,6.06,7.06,6.06c3.41,0,5.68-1.85,6.97-5.66
			c1.33-3.94,2.01-11.37,2.01-22.08c0-13.89-0.63-23.22-1.87-27.73C1010.48,460.73,1008.15,458.61,1004.55,458.61z"/>
	</g>
	<g>
		<path d="M1089.26,530.74h-11.68l-0.04-0.57l-2.02-31.09c-0.05-1.03-0.08-1.88-0.08-2.55l-0.47-10.82l-0.12-4.83
			c-0.01,0.08-0.03,0.16-0.04,0.24c-0.23,1.44-0.43,2.65-0.61,3.63l-1.89,10.18l-6.91,35.83h-8.35l-0.1-0.49l-6.4-30.51
			c-0.87-4.02-1.66-8.15-2.34-12.27c-0.35-2.13-0.69-4.33-1.01-6.57l-2.81,49.83h-11.53l0.06-0.67l6.7-81.5h10.4l7.23,33.51
			c0.88,4.16,1.68,8.33,2.39,12.42c0.49,2.81,0.95,5.73,1.38,8.73l1.16-7.07l1.36-8.8l1.21-5.85l6.44-32.94h10.5l0.05,0.56
			L1089.26,530.74z"/>
	</g>
	<g>
		<path d="M1150.49,530.74h-11.68l-0.04-0.57l-2.02-31.09c-0.05-1.03-0.08-1.88-0.08-2.55l-0.47-10.82l-0.13-4.83
			c-0.01,0.08-0.02,0.16-0.04,0.24c-0.23,1.44-0.43,2.65-0.6,3.63l-1.89,10.18l-6.91,35.83h-8.35l-0.1-0.49l-6.4-30.51
			c-0.87-4.02-1.66-8.15-2.33-12.27c-0.35-2.13-0.69-4.33-1.01-6.57l-2.81,49.83h-11.53l0.05-0.67l6.7-81.5h10.4l7.23,33.51
			c0.88,4.16,1.68,8.33,2.39,12.42c0.49,2.81,0.95,5.73,1.38,8.73l1.15-7.07l1.36-8.8l1.21-5.85l6.44-32.94h10.5l0.05,0.56
			L1150.49,530.74z"/>
	</g>
	<g>
		<path d="M1170.35,530.74h-12.14v-82.17h12.14V530.74z"/>
	</g>
	<path d="M1199.65,530.74h-11.93v-71.4h-12.58v-10.77h36.72v10.77h-12.21V530.74z"/>
	<g>
		<path d="M1211.87,448.57h35.07v10.77h-12.21v71.4h-11.93v-71.4h-10.93V448.57z"/>
	</g>
	<g>
		<path d="M1281.95,530.74h-30.22v-82.17h30.22v10.46h-18.08v24.4h16.04v10.46h-16.04v26.4h18.08V530.74z"/>
	</g>
	<g>
		<path d="M1320.95,530.74h-30.22v-82.17h30.22v10.46h-18.08v24.4h16.04v10.46h-16.04v26.4h18.08V530.74z"/>
	</g>
	<g>
		<path d="M433.97,516.72c-3.91,0-7.36-1.54-10.23-4.59c-2.82-3.07-4.24-6.77-4.24-11.01c0-2.86,0.67-5.59,1.99-8.11
			c1.25-2.43,3.42-5.25,6.44-8.39c-3.18-5.15-4.79-10.05-4.79-14.58c0-3.54,1.19-6.51,3.54-8.83c2.38-2.29,5.43-3.45,9.06-3.45
			c3.66,0,6.64,1.08,8.86,3.21c2.25,2.16,3.39,5,3.39,8.43c0,2.89-0.69,5.55-2.04,7.9c-0.62,1.14-1.56,2.48-2.77,3.97
			c-1.13,1.4-2.56,2.97-4.25,4.68l7.41,12.13l4.87-6.92l6.24,4.96l-6.69,9.33l6.97,10.9h-10.58l-2.67-4.39
			C441.43,515.12,437.91,516.72,433.97,516.72z M432.44,492.13c-2.61,3.04-3.93,5.92-3.93,8.55c0,2.24,0.64,4.13,1.89,5.64
			c1.25,1.52,2.7,2.26,4.44,2.26c1.83,0,3.69-1.13,5.52-3.35L432.44,492.13z M436.25,465.27c-1.19,0-2.19,0.46-3.06,1.4
			c-0.86,0.93-1.28,2.01-1.28,3.3c0,1.83,1,4.75,2.97,8.69c0.88-0.93,1.63-1.78,2.25-2.51c0.75-0.89,1.32-1.68,1.7-2.33
			c0.77-1.29,1.16-2.7,1.16-4.21c0-1.37-0.34-2.42-1.04-3.2C438.26,465.64,437.38,465.27,436.25,465.27z"/>
	</g>
	<path fill-rule="evenodd" clip-rule="evenodd" d="M374.18,482.45c-3.37,4.9-6.44,9.25-9.34,13.71c-0.52,0.8-0.48,2.05-0.48,3.09
		c0.03,30.22,0.1,60.45,0.15,90.67c0.01,4.05-1.36,6.06-4.1,6.09c-2.76,0.03-4.2-2.03-4.2-6.02c-0.02-25.87-0.03-51.74-0.04-77.61
		c0-1.3,0-2.59,0-4.44c-2.76,3.23-5.03,6.22-7.64,8.85c-3.69,3.72-7.49,7.37-11.53,10.69c-3.37,2.77-7.36,4.26-11.92,3.5
		c-0.8-0.13-1.76,0.25-2.55,0.61c-3.04,1.43-6.09,2.86-9.06,4.44c-5.31,2.82-10.38,2.54-15.33-0.82c-0.67-0.46-1.42-0.82-2.13-1.21
		c-0.06-0.04-0.16,0-0.63,0c-0.1,1.63-0.04,3.32-0.35,4.94c-0.51,2.72-0.87,5.57-1.99,8.05c-2.47,5.46-8.71,6.32-12.4,1.65
		c-4.91-6.21-6.58-13.51-5.67-21.31c0.4-3.45,2.85-5.62,5.75-5.83c1.92-0.15,3.46,0.53,4.23,2.3c0.74,1.7,0.48,3.35-0.89,4.77
		c-0.53,0.55-1.24,1.3-1.22,1.93c0.16,4.02,1.1,7.87,2.98,11.43c0.25-0.01,0.5-0.02,0.75-0.03c0.14-3.15,0.35-6.29,0.39-9.44
		c0.02-1.8-0.19-3.61-0.39-5.4c-0.23-2.01-0.02-3.81,1.91-4.93c1.9-1.1,3.6-0.44,5.29,0.64c3.04,1.94,6.16,3.77,9.18,5.76
		c2.14,1.4,4.21,1.56,6.47,0.38c2.62-1.37,5.27-2.67,7.94-3.92c1.19-0.55,1.38-1.19,1.11-2.5c-2.4-11.39-1.26-22.56,2.76-33.39
		c0.97-2.62,2.66-5.13,4.54-7.21c3.25-3.58,7.81-4.03,11.84-1.34c1.94,1.3,3.65,3.04,5.18,4.83c1.59,1.87,1.2,4.24-0.57,5.69
		c-1.77,1.45-3.97,1.25-5.73-0.52c-0.17-0.17-0.32-0.37-0.49-0.56c-3.47-3.82-4.64-3.76-6.64,0.97c-3.97,9.4-4.79,19.2-3.01,29.21
		c0.56,3.15,1.4,3.5,4.16,1.83c2.02-1.22,4.11-2.57,5.64-4.32c6.48-7.4,12.78-14.96,19.07-22.53c0.56-0.67,0.8-1.81,0.79-2.72
		c-0.4-20.44-0.67-40.89-3.34-61.21c-2.3-17.51-7.47-34.25-13.44-50.79c-0.31-0.85-0.62-1.69-0.9-2.55
		c-0.91-2.78,0.02-5.05,2.37-5.84c2.25-0.76,4.48,0.36,5.34,3.02c3.58,11.07,7.39,22.08,10.52,33.28
		c4.15,14.84,5.68,30.13,6.49,45.48c0.31,5.73,0.54,11.47,0.82,17.35c2.02,0.37,4,0.85,6,1.04c0.56,0.05,1.42-0.63,1.78-1.21
		c2.75-4.37,5.43-8.8,8.1-13.22c1.91-3.15,4-4.07,6.36-2.74c2.35,1.33,2.66,3.73,0.8,6.83c-2.74,4.57-5.53,9.12-8,13.19
		c4.25,4.27,8.66,8.19,12.46,12.64c4.82,5.65,8.16,12.28,10.82,19.22c1.14,2.96,0.33,5.28-2.05,6.18c-2.38,0.9-4.4-0.28-5.64-3.27
		c-3.09-7.48-6.92-14.54-12.56-20.43C379.64,486.95,376.96,484.9,374.18,482.45z M365.87,479.88l-1.95-0.22v3.13L365.87,479.88z"/>
</g>
</svg>
