<?xml version="1.0" encoding="utf-8"?>
<!-- Generator: Adobe Illustrator 19.0.0, SVG Export Plug-In . SVG Version: 6.00 Build 0)  -->
<svg version="1.1" id="Layer_1" xmlns="http://www.w3.org/2000/svg" xmlns:xlink="http://www.w3.org/1999/xlink" x="0px" y="0px"
	 viewBox="40 -30 150 150" enable-background="new 40 -30 150 150" xml:space="preserve">
<g id="XMLID_13_">
	<path id="XMLID_17_" fill="#231F20" d="M102.4,0.6H66.5C51.9,0.6,40,12.4,40,27.1V63c0,14.6,11.9,26.5,26.5,26.5h35.9
		c14.6,0,26.5-11.9,26.5-26.5V27.1C128.9,12.3,117,0.6,102.4,0.6z M120,63c0,9.7-7.8,17.5-17.5,17.5h-36C56.8,80.4,49,72.6,49,63
		V27.1c0-9.7,7.8-17.5,17.5-17.5h35.9c9.7,0,17.5,7.8,17.5,17.5L120,63L120,63z"/>
	<path id="XMLID_81_" fill="#231F20" d="M84.5,22.1c-12.7,0-23,10.3-23,23s10.3,23,23,23s23-10.3,23-23S97.2,22.1,84.5,22.1z
		 M84.5,59c-7.8,0-14-6.3-14-14s6.3-14,14-14c7.8,0,14,6.3,14,14S92.2,59,84.5,59z"/>
	<circle id="XMLID_83_" fill="#231F20" cx="107.5" cy="22.2" r="5.5"/>
</g>
</svg>
