<?xml version="1.0" encoding="utf-8"?>
<!-- Generator: Adobe Illustrator 19.0.0, SVG Export Plug-In . SVG Version: 6.00 Build 0)  -->
<svg version="1.1" id="Layer_1" xmlns="http://www.w3.org/2000/svg" xmlns:xlink="http://www.w3.org/1999/xlink" x="0px" y="0px"
	 viewBox="40 -30 150 150" enable-background="new 40 -30 150 150" xml:space="preserve">
<path fill="#231F20" d="M134.3,20.7c4.1,0,7.5-3.4,7.5-7.5V-1c0-4.1-3.4-7.5-7.5-7.5h-12c-0.2,0-0.4,0-0.7,0
	c-2.7,0-11.9,0.5-19.3,7.3c-8,7.3-7.6,16.2-7.2,19v4.9h-4.7c-4.1,0-7.5,3.4-7.5,7.5v15.2c0,4.1,3.4,7.5,7.5,7.5h4.2v35.9
	c0,4.1,3.4,7.5,7.5,7.5h17.3c4.1,0,7.5-3.4,7.5-7.5V53.2h5.7c3.8,0,7-2.9,7.4-6.6l1.8-15.4c0.2-2.1-0.4-4.3-1.9-5.8
	c-1.4-1.6-3.5-2.5-5.6-2.5h-7.5v-2.1L134.3,20.7L134.3,20.7z M118.8,47.2v41.2h-16.3V47v-2h-2h-9.7V30.7H101h2v-2V17.4v-0.2V17
	c-0.2-1.2-0.9-7.2,4.7-12.4c5.3-4.8,11.9-5.2,13.9-5.2c0.2,0,0.4,0,0.5,0l0,0l0,0h11.7v13.2h-8.3c-4.2,0-6.7,2.4-6.7,6.4v9.7v2h2
	h12.9L132,45.1h-11.3h-2L118.8,47.2L118.8,47.2z"/>
</svg>
