<?xml version="1.0" encoding="utf-8"?>
<!-- Generator: Adobe Illustrator 19.0.0, SVG Export Plug-In . SVG Version: 6.00 Build 0)  -->
<svg version="1.1" id="Layer_1" xmlns="http://www.w3.org/2000/svg" xmlns:xlink="http://www.w3.org/1999/xlink" x="0px" y="0px"
	 viewBox="40 -30 150 150" enable-background="new 40 -30 150 150" xml:space="preserve">
<g id="XMLID_13_">
	<path id="XMLID_17_" fill="#231F20" d="M132.9-0.9H97C82.4-0.9,70.5,11,70.5,25.6v35.9C70.5,76.1,82.4,88,97,88h35.9
		c14.6,0,26.5-11.9,26.5-26.5V25.6C159.4,11,147.5-0.9,132.9-0.9z M150.5,61.5c0,9.7-7.8,17.5-17.5,17.5H97
		c-9.7,0-17.5-7.8-17.5-17.5V25.6c0-9.7,7.8-17.5,17.5-17.5h35.9c9.7,0,17.5,7.8,17.5,17.5L150.5,61.5L150.5,61.5z"/>
	<path id="XMLID_81_" fill="#231F20" d="M115,20.6c-12.7,0-23,10.3-23,23s10.3,23,23,23s23-10.3,23-23S127.7,20.6,115,20.6z
		 M115,57.6c-7.8,0-14-6.3-14-14s6.3-14,14-14c7.8,0,14,6.3,14,14S122.7,57.6,115,57.6z"/>
	<circle id="XMLID_83_" fill="#231F20" cx="138" cy="20.7" r="5.5"/>
</g>
</svg>
