<?xml version="1.0" encoding="utf-8"?>
<!-- Generator: Adobe Illustrator 19.0.0, SVG Export Plug-In . SVG Version: 6.00 Build 0)  -->
<svg version="1.1" id="Layer_1" xmlns="http://www.w3.org/2000/svg" xmlns:xlink="http://www.w3.org/1999/xlink" x="0px" y="0px"
	 viewBox="40 -30 150 150" enable-background="new 40 -30 150 150" xml:space="preserve">
<path fill="#231F20" d="M156.6,5.6H73.4c-5,0-9.1,4.1-9.1,9.1v58.6c0,5,4.1,9.1,9.1,9.1h83.1c5,0,9.1-4.1,9.1-9.1V14.7
	C165.7,9.7,161.6,5.6,156.6,5.6z M72.9,19.8l39.8,34L113,54c0,0,0.1,0,0.1,0.1l0.8,0.4h0.1c0.1,0,0.1,0,0.2,0.1l0.2,0.1l0,0h0.1
	l0.6,0.1c0.2,0,0.4,0,0.7,0c0.1,0,0.3,0,0.5-0.1l0.5-0.1l0,0l1.2-0.6l39-33.3v52.5c0,0.2-0.2,0.5-0.5,0.5H73.5
	c-0.2,0-0.5-0.2-0.5-0.5L72.9,19.8L72.9,19.8z M79.7,14.2h71.8l-35.9,30.7L79.7,14.2z"/>
</svg>
