<?xml version="1.0" encoding="utf-8"?>
<!-- Generator: Adobe Illustrator 19.0.0, SVG Export Plug-In . SVG Version: 6.00 Build 0)  -->
<svg version="1.1" id="Layer_1" xmlns="http://www.w3.org/2000/svg" xmlns:xlink="http://www.w3.org/1999/xlink" x="0px" y="0px"
	 viewBox="40 -30 150 150" enable-background="new 40 -30 150 150" xml:space="preserve">
<path fill="#231F20" d="M146.6,6.6H63.4c-5,0-9.1,4.1-9.1,9.1v58.6c0,5,4.1,9.1,9.1,9.1h83.1c5,0,9.1-4.1,9.1-9.1V15.7
	C155.7,10.7,151.6,6.6,146.6,6.6z M62.9,20.8l39.8,34L103,55c0,0,0.1,0,0.1,0.1l0.8,0.4h0.1c0.1,0,0.1,0,0.2,0.1l0.2,0.1l0,0h0.1
	l0.6,0.1c0.2,0,0.4,0,0.7,0c0.1,0,0.3,0,0.5-0.1l0.5-0.1l0,0L108,55l39-33.3v52.5c0,0.2-0.2,0.5-0.5,0.5h-83c-0.2,0-0.5-0.2-0.5-0.5
	L62.9,20.8L62.9,20.8z M69.7,15.2h71.8l-35.9,30.7L69.7,15.2z"/>
</svg>
