<?xml version="1.0" encoding="utf-8"?>
<!-- Generator: Adobe Illustrator 16.0.0, SVG Export Plug-In . SVG Version: 6.00 Build 0)  -->
<!DOCTYPE svg PUBLIC "-//W3C//DTD SVG 1.1//EN" "http://www.w3.org/Graphics/SVG/1.1/DTD/svg11.dtd">
<svg version="1.1" xmlns="http://www.w3.org/2000/svg" xmlns:xlink="http://www.w3.org/1999/xlink" x="0px" y="0px" width="1500px"
	 height="800px" viewBox="0 0 1500 800" enable-background="new 0 0 1500 800" xml:space="preserve">

<g id="creativa_1_">
	<path fill="#9E1C64" d="M1316.6,598.2l-8.6-49.9c10.1-3.9,17.2-13.7,17.2-25.2c0-14.9-12.1-27-27-27c-14.9,0-27,12.1-27,27
		c0,8.2,3.7,15.5,9.4,20.4c-0.2,0.4-0.4,0.8-0.7,1.2c-4.2,8.2-8.1,16.5-12.2,24.8c-4.5,9.1-8.9,18.3-13.3,27.4l-0.2,0
		c-5.5-2.1-10.9-4.2-16.1-6.8l11.6-23.6c0.8-1.7,0.8-3.7-0.2-5.4c-1.6-2.7-5.1-3.5-7.8-1.9l-32.2,19.6c-1.7-0.5-3.5-1-5.1-1.7
		c-2.4-1-4.8-2.1-7.1-3.4c-2-1.2-4-2.4-6-3.8c0.9-2.5,1.9-4.8,3.2-7c1.3-2.2,2.8-4.2,4.2-6.3l4.3-6.3l0.2-0.3
		c0.6-0.8,0.9-1.8,0.8-2.9c-0.2-2.5-2.4-4.4-4.9-4.2c-12.2,0.9-24.3,1.5-36.5,1.9c-2.6,0.1-5.3,0.1-7.9,0.2
		c-2.4-12.5-13.4-21.9-26.5-21.9c-14.9,0-27,12.1-27,27c0,14.9,12.1,27,27,27c13.8,0,25.3-10.5,26.8-23.9c2.6-0.1,5.3-0.3,7.9-0.4
		c8.8-0.3,17.7-0.5,26.5-0.6c-1.2,1.4-2.3,2.9-3.5,4.2c-1.7,1.9-3.6,3.6-5.8,5.1c-1.1,0.8-2.2,1.5-3.5,2.1c-1.2,0.7-2.5,1.3-4,1.7
		l-1.7,0.5c-0.4,0.1-0.8,0.3-1.2,0.5c-4.2,2.1-5.9,7.2-3.9,11.4c2.1,4.2,7.2,5.9,11.4,3.9c0.9-0.4,1.7-0.6,2.5-0.9
		c0.8-0.3,1.6-0.4,2.3-0.5c1.5-0.2,2.9-0.3,4.3-0.2c2.7,0.2,5.3,0.9,7.8,1.5c2.6,0.6,5.1,1.4,7.5,2.4c2.4,0.9,4.8,2,7,3.5
		c0.9,0.6,2,0.7,3,0.2l0.8-0.4l21-10.9l-5.6,13.8l-0.3,0.8c-0.1,0.2-0.1,0.4-0.2,0.6c-0.5,2.2,0.8,4.3,3,4.9
		c7.3,1.7,14.1,4.4,21,7.2c-2.5,5.3-5,10.5-7.5,15.8c-8,16.6-15.9,33.2-24.2,49.7c-4.1,8.2-8.2,16.5-12.7,24.6
		c-0.1,0.2-0.3,0.5-0.4,0.7c-2.9-1.1-6.1-1.7-9.4-1.7c-14.9,0-27,12.1-27,27c0,14.9,12.1,27,27,27c14.9,0,27-12.1,27-27
		c0-9.3-4.7-17.5-11.9-22.4c0.1-0.2,0.2-0.5,0.3-0.7c4-8.3,8.3-16.4,12.6-24.6c8.6-16.3,17.5-32.4,26.4-48.6
		c2.9-5.3,5.9-10.7,8.9-16l12.1,5c5.7,2.3,11.3,4.8,16.9,7.2c-0.4,1.8-0.6,3.7-0.6,5.7c0,14.9,12.1,27,27,27c14.9,0,27-12.1,27-27
		C1342.8,610.5,1331.1,598.6,1316.6,598.2z M1128.3,570.1c-11,0-20-9-20-20c0-11,9-20,20-20c9.3,0,17.1,6.4,19.3,15
		c-2.1,0-4.2,0-6.3,0c-2-5.2-7.1-9-13-9c-7.7,0-14,6.3-14,14c0,7.7,6.3,14,14,14c6.3,0,11.6-4.2,13.4-10c2.1-0.2,4.2-0.3,6.3-0.4
		C1146.3,563,1138.1,570.1,1128.3,570.1z M1217,719.6c0,11-9,20-20,20c-11,0-20-9-20-20c0-11,9-20,20-20c2.1,0,4,0.4,5.9,1
		c-1,1.8-2.1,3.6-3.2,5.3c-0.9-0.2-1.8-0.3-2.7-0.3c-7.7,0-14,6.3-14,14c0,7.7,6.3,14,14,14c7.7,0,14-6.3,14-14
		c0-4-1.7-7.6-4.4-10.1c0.8-1.9,1.6-3.8,2.5-5.7C1213.9,707.4,1217,713.1,1217,719.6z M1305.4,615.8c-2-0.7-4-1.4-6-2.1
		c2-2.8,4.7-5.1,7.8-6.5l1.1,6.3C1307.2,614,1306.2,614.9,1305.4,615.8z M1295.9,541.2l0.3,1.7c-0.4,0-0.7-0.1-1.1-0.1
		C1295.4,542.2,1295.6,541.7,1295.9,541.2z M1278.2,523.1c0-11,9-20,20-20c11,0,20,9,20,20c0,8-4.7,14.8-11.5,18l-1.1-6.2
		c3.9-2.5,6.5-6.8,6.5-11.8c0-7.7-6.3-14-14-14c-7.7,0-14,6.3-14,14c0,3.1,1.1,6,2.8,8.4c-1,1.9-2.1,3.8-3.1,5.7
		C1280.4,533.5,1278.2,528.5,1278.2,523.1z M1275.4,604.9l-11.3-4.3c4.7-8.5,9.5-17.1,14.1-25.7c4.4-8.1,8.8-16.2,13.1-24.3
		c0.2-0.4,0.4-0.8,0.6-1.2c1.8,0.4,3.6,0.7,5.5,0.8l8.6,49.9c-5.6,2.2-10.3,6.2-13.3,11.2C1286.9,609.1,1281.1,607,1275.4,604.9z
		 M1315.7,645.2c-11,0-20-9-20-20c0-1,0.1-1.9,0.3-2.8c1.9,0.8,3.8,1.7,5.8,2.6c0,0.1,0,0.2,0,0.3c0,7.7,6.3,14,14,14
		c7.7,0,14-6.3,14-14c0-6.6-4.6-12.2-10.9-13.6l-1.1-6.2c10.1,1.1,18,9.5,18,19.8C1335.8,636.2,1326.8,645.2,1315.7,645.2z"/>
</g>
<g id="lee">
	<g>
		<path fill="#00AE8D" d="M264.6,607.9c-7.4,0-13.4,6-13.4,13.4c0,7.4,6,13.4,13.4,13.4c7.4,0,13.4-6,13.4-13.4
			C277.9,613.9,272,607.9,264.6,607.9z"/>
		<path fill="#00AE8D" d="M264.6,595.5c-14.2,0-25.8,11.6-25.8,25.8c0,14.2,11.6,25.8,25.8,25.8c14.2,0,25.8-11.6,25.8-25.8
			C290.4,607.1,278.8,595.5,264.6,595.5z M264.6,640.4c-10.6,0-19.1-8.6-19.1-19.1c0-10.6,8.6-19.1,19.1-19.1
			c10.6,0,19.1,8.6,19.1,19.1C283.7,631.9,275.1,640.4,264.6,640.4z"/>
		<path fill="#00AE8D" d="M261.3,508.5c-62.2,0-112.8,50.6-112.8,112.8c0,62.2,50.6,112.8,112.8,112.8
			c62.2,0,112.8-50.6,112.8-112.8C374.2,559.1,323.6,508.5,261.3,508.5z M261.3,725.5c-57.4,0-104.2-46.7-104.2-104.2
			c0-57.4,46.7-104.2,104.2-104.2c57.4,0,104.2,46.7,104.2,104.2C365.5,678.8,318.8,725.5,261.3,725.5z"/>
		<path fill="#00AE8D" d="M261.3,546.9c-41,0-74.3,33.3-74.3,74.4c0,41.1,33.3,74.4,74.3,74.4c41.1,0,74.4-33.3,74.4-74.4
			C335.7,580.2,302.5,546.9,261.3,546.9z M264.6,654.7c-28.5,0-72.8-17.8-72.8-34.2c0-17.1,43.8-30.5,72.8-30.5
			c29.8,0,66.4,18,66.4,30.5C331,638,294.3,654.7,264.6,654.7z"/>
	</g>
</g>
<g id="participa">
	<path fill="#FFAE5F" d="M1294.7,270.8c-4.2,0-8.1,1-11.6,2.7l-49.5-66.3l49.5-66.4c3.5,1.7,7.4,2.7,11.6,2.7
		c14.8,0,26.9-12.1,26.9-26.9c0-14.8-12.1-26.9-26.9-26.9c-14.8,0-26.9,12.1-26.9,26.9c0,6.3,2.2,12,5.8,16.6l-51.5,59.8l-51.7-59.8
		c3.6-4.6,5.7-10.3,5.7-16.5c0-14.8-12.1-26.9-26.9-26.9c-14.8,0-26.9,12.1-26.9,26.9c0,14.8,12.1,26.9,26.9,26.9
		c4.2,0,8.2-1,11.7-2.7l49.9,66.3l-49.9,66.5c-3.5-1.7-7.5-2.7-11.7-2.7c-14.8,0-26.9,12.1-26.9,26.9c0,14.8,12.1,26.9,26.9,26.9
		c14.8,0,26.9-12.1,26.9-26.9c0-6.2-2.2-12-5.7-16.5l51.9-60l51.3,59.9c-3.6,4.6-5.8,10.4-5.8,16.7c0,14.8,12.1,26.9,26.9,26.9
		c14.8,0,26.9-12.1,26.9-26.9C1321.6,282.9,1309.5,270.8,1294.7,270.8z M1274.8,116.6c0-11,8.9-19.9,19.9-19.9
		c11,0,19.9,8.9,19.9,19.9c0,11-8.9,19.9-19.9,19.9c-2.6,0-5-0.5-7.3-1.4l3.8-5.1c1.1,0.3,2.3,0.5,3.5,0.5c7.7,0,13.9-6.2,13.9-13.9
		c0-7.7-6.2-13.9-13.9-13.9c-7.7,0-13.9,6.2-13.9,13.9c0,2.3,0.6,4.4,1.6,6.4l-4.1,4.8C1276.1,124.6,1274.8,120.7,1274.8,116.6z
		 M1149.3,136.5c-11,0-19.9-8.9-19.9-19.9c0-11,8.9-19.9,19.9-19.9c11,0,19.9,8.9,19.9,19.9c0,4.1-1.3,8-3.4,11.1l-4.2-4.8
		c1-1.9,1.6-4,1.6-6.3c0-7.7-6.2-13.9-13.9-13.9s-13.9,6.2-13.9,13.9c0,7.7,6.2,13.9,13.9,13.9c1.2,0,2.4-0.2,3.6-0.5l3.8,5.1
		C1154.4,136,1151.9,136.5,1149.3,136.5z M1169.2,297.7c0,11-8.9,19.9-19.9,19.9c-11,0-19.9-8.9-19.9-19.9c0-11,8.9-19.9,19.9-19.9
		c2.6,0,5.1,0.5,7.4,1.5l-3.8,5.1c-1.1-0.3-2.3-0.5-3.6-0.5c-7.7,0-13.9,6.2-13.9,13.9c0,7.7,6.2,13.9,13.9,13.9s13.9-6.2,13.9-13.9
		c0-2.3-0.6-4.4-1.6-6.4l4.2-4.8C1167.9,289.7,1169.2,293.6,1169.2,297.7z M1294.7,317.6c-11,0-19.9-8.9-19.9-19.9
		c0-4.2,1.3-8,3.5-11.2l4.1,4.8c-1,1.9-1.6,4.1-1.6,6.4c0,7.7,6.2,13.9,13.9,13.9c7.7,0,13.9-6.2,13.9-13.9
		c0-7.7-6.2-13.9-13.9-13.9c-1.2,0-2.4,0.2-3.5,0.5l-3.8-5.1c2.3-0.9,4.7-1.4,7.3-1.4c11,0,19.9,8.9,19.9,19.9
		C1314.6,308.7,1305.7,317.6,1294.7,317.6z"/>
</g>
<g id="sustentable">
	<g>
		<path fill="#4E9D2D" d="M812.5,287.8c-12.3,0-22.6,8.8-24.8,20.5c-21.6-5-42.2-16.9-59.8-34.9c-16.3-16.6-28.1-36.9-33.5-56.8
			c10.5-3.1,18.2-12.8,18.2-24.2c0-11.3-7.4-20.9-17.7-24.1c7.8-26.8,26.7-57.5,51.8-74.8l-4.1,23.6l6.1,1.1l6.4-36.5L718.1,78
			l-0.6,6.1l24.1,2.4c-26.9,18.8-47.2,51.9-55.3,80.7c-13.5,0.5-24.2,11.6-24.2,25.2c0,13.4,10.4,24.3,23.6,25.2
			c5.6,21.7,18.2,43.6,36.1,61.9c19.3,19.6,42.1,32.6,65.9,37.6c2,12,12.4,21.1,24.9,21.1c13.9,0,25.2-11.3,25.2-25.2
			C837.7,299.1,826.4,287.8,812.5,287.8z M706,192.4c0,8.4-5.6,15.4-13.2,17.8c-0.4-1.9-0.7-3.7-1-5.6c5-1.9,8.5-6.6,8.5-12.2
			c0-5.5-3.4-10.2-8.3-12.1c0.3-1.8,0.7-3.7,1.1-5.5C700.6,177.3,706,184.2,706,192.4z M668.6,192.4c0-9.4,7-17.1,16-18.4
			c-0.4,2-0.8,4-1.2,6c-5.3,1.7-9.2,6.6-9.2,12.4c0,5.8,3.7,10.6,8.9,12.3c0.3,2,0.6,4,1,6.1C675.3,209.3,668.6,201.7,668.6,192.4z
			 M812.5,331.7c-8.4,0-15.5-5.7-17.8-13.4c2.1,0.3,4.2,0.6,6.3,0.7c2.2,4.1,6.5,7,11.5,7c7.2,0,13.1-5.8,13.1-13.1
			c0-7.2-5.8-13.1-13.1-13.1c-6.3,0-11.5,4.4-12.8,10.4c-1.9-0.2-3.7-0.5-5.6-0.8c1.6-8.7,9.2-15.2,18.3-15.2
			c10.3,0,18.7,8.4,18.7,18.7C831.2,323.3,822.8,331.7,812.5,331.7z"/>
	</g>
	<path fill="#4E9D2D" d="M812.5,287.8c-12.3,0-22.6,8.8-24.8,20.5c-21.6-5-42.2-16.9-59.8-34.9c-16.3-16.6-28.1-36.9-33.5-56.8
		c10.5-3.1,18.2-12.8,18.2-24.2c0-11.3-7.4-20.9-17.7-24.1c7.8-26.8,26.7-57.5,51.8-74.8l-4.1,23.6l6.1,1.1l6.4-36.5L718.1,78
		l-0.6,6.1l24.1,2.4c-26.9,18.8-47.2,51.9-55.3,80.7c-13.5,0.5-24.2,11.6-24.2,25.2c0,13.4,10.4,24.3,23.6,25.2
		c5.6,21.7,18.2,43.6,36.1,61.9c19.3,19.6,42.1,32.6,65.9,37.6c2,12,12.4,21.1,24.9,21.1c13.9,0,25.2-11.3,25.2-25.2
		C837.7,299.1,826.4,287.8,812.5,287.8z M706,192.4c0,8.4-5.6,15.4-13.2,17.8c-0.4-1.9-0.7-3.7-1-5.6c5-1.9,8.5-6.6,8.5-12.2
		c0-5.5-3.4-10.2-8.3-12.1c0.3-1.8,0.7-3.7,1.1-5.5C700.6,177.3,706,184.2,706,192.4z M668.6,192.4c0-9.4,7-17.1,16-18.4
		c-0.4,2-0.8,4-1.2,6c-5.3,1.7-9.2,6.6-9.2,12.4c0,5.8,3.7,10.6,8.9,12.3c0.3,2,0.6,4,1,6.1C675.3,209.3,668.6,201.7,668.6,192.4z
		 M812.5,331.7c-8.4,0-15.5-5.7-17.8-13.4c2.1,0.3,4.2,0.6,6.3,0.7c2.2,4.1,6.5,7,11.5,7c7.2,0,13.1-5.8,13.1-13.1
		c0-7.2-5.8-13.1-13.1-13.1c-6.3,0-11.5,4.4-12.8,10.4c-1.9-0.2-3.7-0.5-5.6-0.8c1.6-8.7,9.2-15.2,18.3-15.2
		c10.3,0,18.7,8.4,18.7,18.7C831.2,323.3,822.8,331.7,812.5,331.7z"/>
	<path fill="#4E9D2D" d="M811.4,94.9c13.9,0,25.2-11.3,25.2-25.2c0-13.9-11.3-25.2-25.2-25.2c-13.9,0-25.2,11.3-25.2,25.2
		C786.2,83.6,797.5,94.9,811.4,94.9z M811.4,50.9c10.3,0,18.7,8.4,18.7,18.7c0,10.3-8.4,18.7-18.7,18.7c-10.3,0-18.7-8.4-18.7-18.7
		C792.7,59.3,801.1,50.9,811.4,50.9z"/>
	<path fill="#4E9D2D" d="M811.4,82.7c7.2,0,13.1-5.8,13.1-13.1c0-7.2-5.8-13.1-13.1-13.1c-7.2,0-13.1,5.9-13.1,13.1
		C798.4,76.9,804.2,82.7,811.4,82.7z"/>
</g>
<g id="red">
	<g>
		<path fill="#EB2E3E" d="M347.3,210.8c-10.3,0-19.2,6-23.4,14.7l-58.6-17l69.1-84c3.8,2.2,8.2,3.5,12.9,3.5c14.3,0,26-11.7,26-26
			c0-14.3-11.7-26-26-26c-14.3,0-26,11.7-26,26c0,2.7,0.4,5.4,1.2,7.9L302.7,120l-42.8,21.6L217.1,163l-19.8,9.9
			c-4.6-7.2-12.7-11.9-21.8-11.9c-14.3,0-26,11.7-26,26c0,14.3,11.7,26,26,26c10.3,0,19.2-6,23.4-14.7l53.7,15.5l-61.4,76.8
			c-4.1-2.7-9-4.3-14.2-4.3c-14.3,0-26,11.7-26,26c0,14.3,11.7,26,26,26c14.3,0,26-11.7,26-26c0-7.2-2.9-13.7-7.7-18.4l64.2-78.1
			l62.2,18c-0.1,1-0.2,2-0.2,3c0,14.3,11.7,26,26,26c14.3,0,26-11.7,26-26C373.3,222.4,361.6,210.8,347.3,210.8z M196.1,312.3
			c0,10.6-8.6,19.2-19.2,19.2c-10.6,0-19.2-8.6-19.2-19.2c0-10.6,8.6-19.2,19.2-19.2c3.7,0,7.1,1.1,10,2.9l-3.7,4.6
			c-1.9-1-4-1.6-6.3-1.6c-7.4,0-13.4,6-13.4,13.4c0,7.4,6,13.4,13.4,13.4c7.4,0,13.4-6,13.4-13.4c0-3.3-1.2-6.3-3.2-8.6l3.7-4.5
			C194.1,302.6,196.1,307.2,196.1,312.3z M328,102c0-10.6,8.6-19.2,19.2-19.2c10.6,0,19.3,8.6,19.3,19.2c0,10.6-8.6,19.2-19.3,19.2
			c-3.1,0-5.9-0.8-8.5-2.1l3.8-4.6c1.5,0.6,3.1,0.9,4.7,0.9c7.4,0,13.5-6,13.5-13.4c0-7.4-6-13.4-13.5-13.4c-7.4,0-13.4,6-13.4,13.4
			c0,0.7,0.1,1.3,0.2,2l-5.3,2.7C328.3,105.2,328,103.6,328,102z M188.8,186.4c0-0.9-0.2-1.8-0.4-2.6l5.2-2.6c0.6,1.8,1,3.8,1,5.8
			c0,0.4-0.1,0.7-0.1,1.1L188.8,186.4z M175.4,206.2c-10.6,0-19.2-8.6-19.2-19.2c0-10.6,8.6-19.2,19.2-19.2c6.5,0,12.3,3.3,15.7,8.2
			l-5.3,2.6c-2.5-3.1-6.2-5.1-10.4-5.1c-7.4,0-13.4,6-13.4,13.4c0,7.4,6,13.5,13.4,13.5c4.6,0,8.6-2.3,11-5.8l5.7,1.7
			C188.8,202.2,182.6,206.2,175.4,206.2z M201.2,190c0.1-1,0.2-2,0.2-3c0-3.1-0.6-6-1.6-8.8l19.9-9.8l43.1-21.1l43.1-20.9l20.1-9.6
			c0.6,0.8,1.2,1.6,1.9,2.4l-69.7,87.2L201.2,190z M347.3,256c-10.6,0-19.2-8.6-19.2-19.2c0-0.4,0.1-0.7,0.1-1.1l5.7,1.7
			c0.3,7.1,6.2,12.8,13.4,12.8c7.4,0,13.5-6,13.5-13.4c0-7.4-6-13.4-13.5-13.4c-4.6,0-8.6,2.3-11,5.8l-5.7-1.7
			c3.3-5.9,9.5-9.9,16.7-9.9c10.6,0,19.3,8.6,19.3,19.2C366.5,247.4,357.9,256,347.3,256z"/>
	</g>
</g>
<g id="saludable">
	<g>
		<path fill="#0082CA" d="M819.6,677.3c-14.1-8.9-35.7-5.6-61.2,3.5c-4.5-11.9-7.5-25.1-8.4-39.2l0.3,0l0.5-0.1l2.1-0.3
			c1.4-0.2,2.9-0.4,4.1-0.8c5.1-1.2,10-3.8,14.2-6.9c4.1-3.2,7.6-7,10.2-11c0.7-1,1.3-2,1.9-3c0.6-1,1.2-2,1.7-3
			c0.6-1,0.8-2.1,0.8-3.4c-0.1-1.3-0.2-2.5,0.1-3.6c3.2-8,4.9-15.9,6.2-23.4c1.3-7.5,1.9-14.6,2.4-21.1c0.4-6,0.6-11.5,0.7-16.4
			c14.5-0.3,26.1-12.2,26.1-26.7c0-14.7-12-26.7-26.7-26.7c-14.7,0-26.7,12-26.7,26.7c0,12.1,8,22.3,19,25.6c-0.1,5-0.4,10.7-1,16.8
			c-0.6,6.3-1.5,13-3,20c-0.4,1.7-0.8,3.5-1.3,5.2c-0.2,0.9-0.5,1.7-0.7,2.6c-0.3,0.9-0.6,1.7-0.8,2.6c-1.1,3.5-2.4,7-4.1,10.3
			c-0.5,0.8-1.5,1.4-2.4,1.9c-1,0.5-1.7,1.1-2.1,1.9c-0.4,0.8-0.9,1.5-1.4,2.2c-0.5,0.7-1,1.5-1.5,2.1c-2.1,2.8-4.5,5.1-7.1,6.9
			c-2.7,1.8-5.5,3.2-8.7,3.8c-0.8,0.3-1.5,0.3-2.2,0.4l-1.1,0.2l-0.3,0.1l-0.4,0l-0.8,0l-3,0.2l-0.1,0l-0.3,0l-0.7,0l-1.3-0.1
			c-1.8,0-3.5-0.4-5.3-0.5c-0.9-0.1-1.7-0.4-2.5-0.6l-1.3-0.3c-0.4-0.1-0.8-0.3-1.2-0.4c-0.8-0.3-1.6-0.5-2.4-0.8l-2.3-1.1
			c-0.8-0.3-1.5-0.8-2.2-1.2c-0.7-0.4-1.5-0.8-2.1-1.4c-0.7-0.5-1.4-1-2-1.5c-0.6-0.6-1.2-1.2-1.9-1.7c-0.7-0.5-1.5-1-2.6-1.2
			l-1.6-0.5c-0.5-0.2-1-0.4-1.4-0.7c-1.6-1.2-2.3-2.9-3.4-4.5c-0.5-0.8-1-1.6-1.4-2.4c-0.4-0.8-0.9-1.6-1.3-2.5
			c-0.8-1.7-1.6-3.4-2.3-5.1c-0.3-0.9-0.7-1.7-1-2.6c-0.3-0.9-0.6-1.8-0.9-2.6c-0.6-1.7-1.1-3.5-1.6-5.3c-0.5-1.8-0.9-3.5-1.3-5.2
			c-1.6-7-2.5-13.7-3.1-20c-0.5-5.1-0.7-9.9-0.9-14.2c13.1-2,23.2-14.6,23.2-28.1c0-14.7-12-26.7-26.7-26.7
			c-14.7,0-26.7,12-26.7,26.7c0,13.3,9.8,25.8,22.6,28c0.2,4.6,0.5,9.6,0.9,15c0.5,6.5,1.4,13.5,2.8,21c0.4,1.9,0.8,3.7,1.2,5.6
			c0.5,1.9,0.9,3.8,1.5,5.7c0.3,1,0.6,1.9,0.8,2.9c0.3,1,0.7,1.9,1,2.9c0.6,2,1.5,3.9,2.3,5.9c0.4,1,0.9,1.9,1.4,2.9
			c0.5,1,0.9,2,1.5,2.9c0.6,1,1.1,1.9,1.6,2.9c0.6,0.9,1.3,1.8,1.7,2.9c0.8,2.2,0.8,5.3,2.5,7.2c0.8,0.9,1.7,1.8,2.6,2.7
			c0.9,0.8,1.9,1.6,2.9,2.5c7.6,6.3,17.8,9.9,27.5,10.5c0.9,16.1,4.6,30.3,9,42.2c-11.8,4.5-24.2,10.1-37,16
			c-4.8-6.9-12.9-11.5-21.9-11.5c-14.7,0-26.7,12-26.7,26.7c0,14.7,12,26.7,26.7,26.7c14.7,0,26.7-12,26.7-26.7c0-2.5-0.4-4.9-1-7.2
			c12.6-5.8,25-11.3,36.6-15.8c4.2,9.6,8.8,17.2,12.4,22.5c14.5,21.5,32.5,34.8,46.8,34.8c6.8,0,22.5-3.3,22.5-34.2
			C835.2,696.5,830,683.8,819.6,677.3z M774.9,521.7c0-10.9,8.9-19.8,19.8-19.8c10.9,0,19.8,8.9,19.8,19.8
			c0,10.7-8.5,19.4-19.1,19.8c0-2.1,0.1-4.1,0.1-6c7.3-0.4,13-6.4,13-13.8c0-7.6-6.2-13.8-13.8-13.8c-7.6,0-13.8,6.2-13.8,13.8
			c0,4.8,2.5,9.1,6.2,11.6c0,0.1,0,0.1,0,0.2c0,2,0,4.1,0,6.5C779.9,537.1,774.9,530,774.9,521.7z M693.2,506.2
			c-7.6,0-13.8,6.2-13.8,13.8c0,6,3.9,11.1,9.2,13c0,1.9,0.1,4,0.1,6.2c-8.8-2-15.3-9.9-15.3-19.3c0-10.9,8.9-19.8,19.8-19.8
			c10.9,0,19.8,8.9,19.8,19.8c0,9.8-7.1,17.9-16.4,19.5c0-2.2,0-4.2,0.1-6.1c6-1.5,10.4-6.9,10.4-13.4
			C707,512.4,700.8,506.2,693.2,506.2z M691.2,734.8c-10.9,0-19.8-8.9-19.8-19.8c0-10.9,8.9-19.8,19.8-19.8c6.3,0,11.9,3,15.5,7.6
			c-1.9,0.9-3.7,1.7-5.6,2.6c-2.5-2.6-6-4.2-10-4.2c-7.6,0-13.8,6.2-13.8,13.8c0,7.6,6.2,13.8,13.8,13.8c7.6,0,13.8-6.2,13.8-13.8
			c0-0.6,0-1.1-0.1-1.6c1.9-0.9,3.7-1.8,5.6-2.6c0.3,1.4,0.5,2.8,0.5,4.3C711,725.9,702.1,734.8,691.2,734.8z M812.8,740.5
			c-13.9,0-37-20.3-51-51.6c22.7-8,41.9-11.3,53.2-4.2c7.8,4.9,11.5,14.8,11.5,30.3C826.4,724.5,824.6,740.5,812.8,740.5z"/>
	</g>
</g>
</svg>
