<?xml version="1.0" encoding="utf-8"?>
<!-- Generator: Adobe Illustrator 16.0.0, SVG Export Plug-In . SVG Version: 6.00 Build 0)  -->
<!DOCTYPE svg PUBLIC "-//W3C//DTD SVG 1.1//EN" "http://www.w3.org/Graphics/SVG/1.1/DTD/svg11.dtd">
<svg version="1.1" xmlns="http://www.w3.org/2000/svg" xmlns:xlink="http://www.w3.org/1999/xlink" x="0px" y="0px" width="1500px"
	 height="800px" viewBox="0 0 1500 800" enable-background="new 0 0 1500 800" xml:space="preserve">
<g id="Layer_1">
</g>
<g id="Layer_3">
</g>
<g id="Layer_2">
	<path fill="#2E2A26" d="M553.55,340.78v88.27h-12.7v-88.27h-30.83v-10.33h85.77v10.33H553.55z"/>
	<path fill="#2E2A26" d="M594.58,360v69.06h-11.54V360H594.58z"/>
	<path fill="#2E2A26" d="M635.59,360v75.42v2.96c0,11.41-5.41,17.12-16.25,17.12c-1.59,0-3.43-0.17-5.53-0.51v-7.15
		c0.66-0.1,1.1-0.15,1.32-0.15l1.48-0.07l4.78-1.37c1.76-1.3,2.64-4.91,2.64-10.83V360H635.59z M635.59,330.45v11.34h-11.55v-11.34
		H635.59z"/>
	<path fill="#2E2A26" d="M720.54,360v69.06h-11.55l0.83-9.03l-0.25-0.22c-4.02,6.84-12.6,10.26-25.74,10.26
		c-18.42,0-27.62-8.04-27.62-24.13V360h11.55v45.94c0,6.26,1.18,10.45,3.54,12.57c2.36,2.12,7.01,3.18,13.94,3.18
		c9.07,0,15.3-1.58,18.68-4.73c3.38-3.15,5.07-8.94,5.07-17.37V360H720.54z"/>
	<path fill="#2E2A26" d="M753.94,379.36h-11.47c0-8.04,2.07-13.45,6.22-16.22c4.16-2.77,12.28-4.15,24.37-4.15
		c13.15,0,22.04,1.69,26.64,5.09c4.62,3.39,6.93,9.86,6.93,19.4v45.58H795.1l0.9-7.44l-0.24-0.07c-4.41,5.68-13.34,8.52-26.81,8.52
		c-19.91,0-29.85-7.01-29.85-21.02c0-8.33,2.22-14.09,6.67-17.27c4.45-3.18,12.51-4.76,24.17-4.76c13.85,0,22.15,2.38,24.9,7.15
		l0.26-0.07v-8.38c0-7.9-1.24-13.01-3.71-15.35c-2.48-2.33-7.89-3.5-16.25-3.5c-14.18,0-21.28,3.5-21.28,10.48
		C753.86,377.67,753.88,378.34,753.94,379.36z M772.5,394.89c-8.86,0-14.62,0.82-17.28,2.46c-2.68,1.64-4,5.15-4,10.54
		c0,5.59,1.32,9.29,3.96,11.09c2.64,1.81,8,2.71,16.08,2.71c16.27,0,24.42-4.33,24.42-13c0-5.44-1.59-9.1-4.75-10.98
		C787.76,395.83,781.62,394.89,772.5,394.89z"/>
	<path fill="#2E2A26" d="M827.99,360h11.14l-0.33,9.39l0.33,0.22c3.52-7.08,12.26-10.62,26.23-10.62c11.27,0,18.9,1.73,22.88,5.2
		c3.99,3.47,5.98,10.11,5.98,19.94v44.93h-11.54v-44.06v-2.6c0-5.93-1.29-9.91-3.87-11.96c-2.58-2.05-7.56-3.07-14.93-3.07
		c-16.22,0-24.33,6.72-24.33,20.15v41.54h-11.55V360z"/>
	<path fill="#2E2A26" d="M927.14,379.36h-11.47c0-8.04,2.08-13.45,6.23-16.22c4.14-2.77,12.28-4.15,24.37-4.15
		c13.14,0,22.02,1.69,26.64,5.09c4.62,3.39,6.93,9.86,6.93,19.4v45.58h-11.55l0.91-7.44l-0.25-0.07c-4.4,5.68-13.33,8.52-26.81,8.52
		c-19.91,0-29.85-7.01-29.85-21.02c0-8.33,2.22-14.09,6.68-17.27c4.45-3.18,12.51-4.76,24.16-4.76c13.87,0,22.16,2.38,24.92,7.15
		l0.25-0.07v-8.38c0-7.9-1.24-13.01-3.71-15.35c-2.47-2.33-7.89-3.5-16.25-3.5c-14.19,0-21.28,3.5-21.28,10.48
		C927.05,377.67,927.07,378.34,927.14,379.36z M945.69,394.89c-8.85,0-14.61,0.82-17.28,2.46c-2.66,1.64-4,5.15-4,10.54
		c0,5.59,1.31,9.29,3.96,11.09c2.64,1.81,8,2.71,16.08,2.71c16.28,0,24.42-4.33,24.42-13c0-5.44-1.58-9.1-4.75-10.98
		C960.96,395.83,954.81,394.89,945.69,394.89z"/>
	<g>
		<path fill="#00AE8D" d="M1058.28,330.45v81.84h52.81v16.76h-74.16v-98.6H1058.28z"/>
		<path fill="#00AE8D" d="M1174.14,406.95h18.97v2.67c0,13.48-11.54,20.23-34.64,20.23c-15.67,0-25.93-2.34-30.77-7.01
			c-4.84-4.67-7.26-14.57-7.26-29.69c0-13.44,2.53-22.46,7.59-27.09c5.05-4.62,14.93-6.94,29.6-6.94c14.08,0,23.51,2.25,28.29,6.76
			c4.78,4.5,7.18,13.35,7.18,26.55v5.06h-53.37c-0.11,1.54-0.17,2.55-0.17,3.03c0,6.79,1.2,11.32,3.59,13.58
			c2.4,2.26,7.17,3.4,14.31,3.4c6.93,0,11.43-0.66,13.53-1.99C1173.09,414.18,1174.14,411.33,1174.14,406.95z M1174.31,387.37
			l-0.08-2.75c0-5.49-1.09-9.05-3.26-10.69s-6.88-2.46-14.15-2.46c-7.04,0-11.61,0.99-13.72,2.96c-2.12,1.98-3.18,6.29-3.18,12.93
			H1174.31z"/>
		<path fill="#00AE8D" d="M1261.69,406.95h18.97v2.67c0,13.48-11.55,20.23-34.64,20.23c-15.67,0-25.92-2.34-30.76-7.01
			c-4.84-4.67-7.26-14.57-7.26-29.69c0-13.44,2.53-22.46,7.59-27.09c5.05-4.62,14.92-6.94,29.6-6.94c14.08,0,23.51,2.25,28.29,6.76
			c4.79,4.5,7.18,13.35,7.18,26.55v5.06h-53.36c-0.12,1.54-0.17,2.55-0.17,3.03c0,6.79,1.2,11.32,3.58,13.58
			c2.39,2.26,7.17,3.4,14.31,3.4c6.93,0,11.44-0.66,13.53-1.99C1260.64,414.18,1261.69,411.33,1261.69,406.95z M1261.85,387.37
			l-0.08-2.75c0-5.49-1.09-9.05-3.25-10.69c-2.17-1.64-6.89-2.46-14.15-2.46c-7.04,0-11.61,0.99-13.73,2.96
			c-2.12,1.98-3.17,6.29-3.17,12.93H1261.85z"/>
	</g>
	<g>
		<g>
			<path fill="#00AE8D" d="M347.03,373.38c-7.71,0-13.96,6.25-13.96,13.96c0,7.71,6.25,13.96,13.96,13.96
				c7.72,0,13.96-6.25,13.96-13.96C360.99,379.63,354.74,373.38,347.03,373.38z"/>
			<path fill="#00AE8D" d="M347.03,360.37c-14.88,0-26.98,12.09-26.98,26.97c0,14.87,12.1,26.97,26.98,26.97
				c14.87,0,26.97-12.1,26.97-26.97C374,372.46,361.9,360.37,347.03,360.37z M347.03,407.32c-11.02,0-19.98-8.97-19.98-19.98
				c0-11.02,8.97-19.98,19.98-19.98c11.02,0,19.98,8.96,19.98,19.98C367.01,398.35,358.05,407.32,347.03,407.32z"/>
			<path fill="#00AE8D" d="M343.67,269.56c-64.94,0-117.78,52.83-117.78,117.77c0,64.94,52.84,117.78,117.78,117.78
				s117.77-52.83,117.77-117.78C461.44,322.4,408.6,269.56,343.67,269.56z M343.67,496.1c-59.97,0-108.77-48.79-108.77-108.77
				c0-59.97,48.79-108.76,108.77-108.76c59.97,0,108.76,48.79,108.76,108.76C452.43,447.31,403.64,496.1,343.67,496.1z"/>
			<path fill="#00AE8D" d="M343.63,309.67c-42.86,0-77.58,34.77-77.58,77.63c0,42.93,34.72,77.7,77.58,77.7
				c42.95,0,77.7-34.77,77.7-77.7C421.34,344.44,386.58,309.67,343.63,309.67z M347.03,422.19c-29.76,0-76.04-18.59-76.04-35.7
				c0-17.8,45.72-31.88,76.04-31.88c31.07,0,69.31,18.77,69.31,31.88C416.33,404.73,378.09,422.19,347.03,422.19z"/>
		</g>
	</g>
	<rect y="777.49" fill="#00AE8D" width="1500" height="22.51"/>
</g>
</svg>
