<?xml version="1.0" encoding="utf-8"?>
<!-- Generator: Adobe Illustrator 19.0.0, SVG Export Plug-In . SVG Version: 6.00 Build 0)  -->
<svg version="1.1" xmlns="http://www.w3.org/2000/svg" xmlns:xlink="http://www.w3.org/1999/xlink" x="0px" y="0px"
	 viewBox="0 0 1500 800" enable-background="new 0 0 1500 800" xml:space="preserve">
<g id="Layer_1">
</g>
<g id="Layer_3">
</g>
<g id="Layer_2">
	<rect x="0" y="0" fill="#EB3C40" width="1500" height="800"/>
	<g>
		<g>
			<path fill="#FFFFFF" d="M320.6,363c0.6-0.2,0.4-0.4,0-0.4c-3.9,0.7-7.1,2.6-7.8,3.4c-0.6,0.6-0.4,0.7-0.2,1.5
				c0.2,0.7,0.6,1.5,0.7,1.1C313.9,367.9,317.2,364.5,320.6,363z M302.3,496.8c0.9,0.2,0.6-1.7,1.1-5.4c1.3-9.2,2.8-17.4,4.9-26.5
				c5.2-23,13.3-74.9,16.3-90.6c0.4-2.2,0.9-4.3,0.4-4.3c-1.5,0-5,0.6-9.5,1.3c-1.5,0.2-2.4,1.1-3.7,3.2c-1.5,2.4-2.4,5-3.4,9.7
				c-5.6,27.8-9.5,52.5-13.6,78.3c0,0.4,1.1,0.6,1.3-0.2c4.1-17,5.2-34,8.2-48.8c0-0.4,1.1-0.4,1.1,0c-0.7,11.8-7.1,50.1-8.4,51.2
				c-0.7,0.7-2.6-1.1-3,0.2c-1.5,5-2.8,12-4.1,17.2c-1.1,2.8,0.2,5.4,1.3,7.8c1.3,2.8,10.3-22,13.8-41.9c0.4-2.4,0.9-1.5,0.7,0
				c-3.2,17.8-9.3,37-12.1,41.5C291.8,491.9,296.9,496,302.3,496.8z M383.7,505.7c-9.9-2.4-23.4-2.6-34.6-2.6c-0.6,0-0.6-0.9,0-1.1
				c6.7-1.3,35.9,0.7,36.2,0c1.1-2.6,0.6-8.4-0.2-8.8c-0.9-0.4-5.8,0.4-24.3,1.5c-14,0.9-48,4.9-48.6,5.8c-0.6,0.9,0.9,2.6,0,2.6
				c-4.1-0.2-3.2,6-2.8,9.9c0.2,1.3,5.2,1.1,5.8,2.1c0.4,0.7,4.3,0.2,6.4,0c15.9-1.3,32.5-5,44.7-5c0.4,0,0.4-0.9,0-0.9
				c-12.1-0.2-18.9-0.2-28.2,1.1c-0.6,0-0.9-0.7,0.4-0.9c6.5-1.3,20.9-1.7,30.6-0.9c0.4,0-0.7,1.5,0,1.5c4.1,0,8,0,11.8,0
				C382.3,509.9,384.5,505.9,383.7,505.7z M330.7,489.9c8.4-0.7,30.3-2.4,40.9-2.4c5,0,11.8-0.4,12-0.9c0.2-0.7-0.2-1.7-0.7-1.7
				c-3.9-0.2-9.9,0.4-14.9-0.4c-0.7-0.2-0.6-0.9,0.2-0.7c5,0.7,11.8-0.2,14.4-1.1c0.6-0.2-2.1-5.6-5.4-6.5c-3.5-0.9-20.2-0.6-27.7,0
				c-8.2,0.6-15.9,1.3-22,2.1c2.6-10.6,3.6-20.4,6.4-31c8.2-1.3,13.8-2.1,21.5-3c0.6,0,0.6-0.9,0-0.9c0.4,0-14.6,0-15.1,0
				c-0.6,0-0.6-0.9,0-0.9c5.6,0,17.7-1.5,17.9-1.1c0.6,0.9-0.6,2.4,0.2,2.4c0.6,0,4.1-0.4,7.3-0.9c1.1-0.2,2.4-1.9,1.9-2.4
				c-0.9-0.9-5.4-3.6-17.2-3.2c-0.6,0-0.6-0.7,0-0.7c14.2-0.2,15.7,1.9,17.7,2.2c0.9,0.2,1.9-3.7,1.5-8c-0.4-3.6-1.3-3-7.5-2.2
				c-2.6,0.4-33.8,3.6-38.5,3.6c-0.4,4.5-6.7,32.1-9,43.7c-1.1,5.2-2.6,13.5-3.4,15.1c-0.2,0.4-0.4,0.6-0.9,0.9
				c-0.6,0.4-0.2,0.9,0.2,0.7C317.2,490.6,322.8,490.6,330.7,489.9z M408,357.8c-1.7,0-3.9,1.1-9.3,2.1c-24.7,4.3-32.1,4.1-36.6,4.9
				c-0.9,0.2-0.4,1.1,0.6,1.1c4.1-0.4,29.9-3.4,42.6-5.4c0.4,0,0.4,1.3,0,1.3c-16.6,2.1-49,5.4-66.3,7.5c-1.7,0.2-3,0.2-4.7,0.4
				c-0.9,0.2-0.9,3-1.3,5.4c-1.9,14.4-6.5,40.7-7.8,47.5c6.2,0,10.8-0.2,19.4-0.9c5-0.4,17.6-1.1,22.8-2.4c0.7-0.2,0-3.2-0.6-3.2
				c-2.4,0-14.2-0.7-17-1.9c-1.3-0.6-0.9-0.7-0.2-0.6c4.7,1.1,8.8,1.1,16.8,1.1c0.6,0-1.7-4.5-3.4-5c-1.9-0.6-6.9,0-12.1,0.4
				c-3.4,0.2-9.2,0.7-9.7,0.6c1.1-6.4,3.2-15.9,4.7-23c0.2-1.7,0.6-3.4,0.4-4.7c14.8-2.4,33.4-4.3,40.2-5c1.1-0.2,0.6-1.1,0.2-1.1
				c-6.9,0.4-29.9,2.4-35.5,3.6c-0.7,0.2-1.1-0.7-0.4-0.9c13.6-2.6,37.4-5.2,37.9-4.5c0.7,0.9-0.2,2.8,0.4,2.8
				c5.2-0.7,8.6-0.7,13.8-1.7c2.8-0.6,5-4.3,4.1-4.5c-13.6-3.2-28.8-1.5-43.2,0.4c-0.6,0-0.7-0.4-0.2-0.6c6-1.1,14-1.9,20-2.2
				c7.8-0.6,15.1-0.7,23.2,0.9c1.3,0.2,1.9-1.1,2.2-2.8C409.9,363.2,409.3,357.8,408,357.8z M317.2,362.4c6.4-2.4,16.3-2.2,25.4-3.6
				c6.5-0.9,13.3-1.3,21.1-2.2c9.5-1.1,20-2.1,29.1-3c-0.2,0,14.2-0.6,14.4-1.1c0.2-0.6-0.6-2.8-0.9-2.8c-5.4,1.1-13.6,1.5-19.1,1.3
				c-0.9,0-0.9-0.6,0-0.6c5.4,0.2,12.3-0.6,17.6-1.7c2.8-0.7-1.5-5-5.6-5.4c-9-0.7-23.2,1.7-29.9,2.6c-12.9,1.9-20.7,2.1-28,3.2
				c-11.8,1.7-16.6,1.9-23.5,4.5c-4.3,1.7-6.4,5.4-5.8,10.8C312.2,365.6,313.5,363.7,317.2,362.4z"/>
		</g>
		<path fill="#FFFFFF" d="M470.9,414.8c-0.6-0.7-1.5-1.9-1.9-2.8c0.6-0.7,0.9-1.5,1.5-2.2c0.6,0.7,1.5,1.9,2.1,2.6
			C472,413.3,471.5,414,470.9,414.8z M457.5,393.7c-0.4-0.6,0.2-0.9,0.7-0.2c3.6,4.9,7.5,9.5,11.4,14.8c-0.6,0.7-1.1,1.7-1.7,2.4
			C464.6,404.7,461.2,399.8,457.5,393.7z M387.9,558.1c14.8-21.3,33.6-48.8,43.7-63.3c0.2-0.4-0.4-0.7-0.6-0.4
			c-9.9,14.2-31.4,45-36.8,52.7c-0.9,1.5-1.5,0.7-0.9-0.4c0,0.2,26-39.6,36.6-55.3c0.2-0.2,0.7,1.1,0.9,0.9
			c17.7-27.5,34.9-52.9,52.3-79.2c-16.8-27.7-36.8-56.6-51.4-81.3c-8-13.5-10.5-17.2-20.4-36.1c-1.5-3-11.4,5-9,9.3
			c2.6,4.7,12.1,21.9,20.9,36.1c15.7,25.4,28.8,46.9,43.7,70.8c-15.3,23.7-28.6,42.6-43.2,65c-0.2,0.4,0,0.7,0.4,0.4
			c15.9-23,28.4-41.1,43.5-64.1c0.6,0.9,0.9,1.7,1.5,2.4c-16.1,23.2-35.7,49.5-47.8,68.4c-0.4,0.7-2.6,0-3.4,1.1
			c-8.8,13.3-18.5,25.6-28,39.4c-3.7,5.4-8.8,19.8-6.9,18.9c1.7-0.9,59.4-82.6,87.4-124.1c0.4-0.4,1.1-0.2,0.7,0.2
			c-23.2,34.6-81.1,118.8-88.7,126.5C380.8,548,385.3,559.4,387.9,558.1z M551.6,489.9c-12.5-24.5-27.8-50.3-40.4-75.1
			c-14.9,24.8,52.1-80.7,64.6-103.5c0.7-1.3-0.7-1.5-0.2-2.6c1.3-2.6,11.2-17.2,13.5-23.5c1.9-5.2-5.8-9.2-6.4-8.8
			c-3,1.5-55.5,84.5-60,91.9c-9.3,14.8-19.1,29.5-28.8,44.3c-0.9-1.7,43.5,73.6,48,81.7c3.7,6.4,20,32.5,21.5,34.9
			c0.9,1.5,1.9-2.4,1.3-3.6c-3.7-6.9-10.5-18.3-16.4-29.3c-0.4-0.6,0.2-1.1,0.6-0.6c6.2,10.8,12.3,21.1,16.6,28.2
			c0.6,0.9,1.7-3.7,0.9-5.8C564.5,512.3,556.3,499,551.6,489.9z M558.9,539.8c-0.4-0.7-8.6-15.3-12.3-21.3
			c-7.1-12-14-23.7-20.9-35.3c0-0.2,0.6-0.2,0.6-0.4c-19.4-30.8-1.7-1.5-37.9-61.7c-1.7,2.6-3.6,5.2-5.2,7.8
			c-18.9,27.5-38.5,57.9-57.5,85.2c-6.7,10.1-26.3,40.7-28.4,44.8c-0.7,1.5,4.5,0.7,5.2-0.4c1.1-1.7,18.9-28,30.3-44.3
			c0.4-0.6,0.9,0,0.6,0.6c-11.2,16.4-26.9,41.3-26.9,42.2c0,2.1,11-4.9,13.5-7.7c1.9-2.2,68.6-101.5,68.6-101.5
			c8.4,13.8,12.5,21.3,21.3,36.2c0.2,0.4,0.9,0.7,0.2-0.6c-7.5-13.6-13.5-23.5-20.7-36.6c0.4-0.6,0.9-1.1,1.3-1.7
			c8,14.9,16.4,30.1,26.5,44.7c-0.6,0.4-2.1,1.3-2.8,1.9c6.7,11.8,13.5,23.7,20,35.9c3,5,11.8,13.1,11,10.8
			c-2.4-7.5-39.2-73.4-51.9-96.8c0-0.4,0.2-0.4,0.4-0.7c5.6,9,51.9,92.7,54.7,99.8C548.8,542.2,561.3,543.9,558.9,539.8z M496.5,374
			c0.2-0.4,0.9-0.6,0.6,0.2c-0.7,1.7-3.6,7.7-4.1,9c-0.4-0.6-0.9-1.1-1.3-1.9C492.6,380,495.8,375.2,496.5,374z M417.8,292.8
			c1.7,2.2,45.2,67.4,71,110.6c18.5-28.2,37-56.6,56.2-85.9c3-4.9,25.6-38.9,26.7-41.1c1.3-2.6-9.3-1.3-12.1,2.1
			c-4.7,5.4-17,24.3-26.5,38.5c-14.2,21.1-42.8,64.5-42,63.2c-13.1-19.4-34-54.7-56.8-86.9C431.1,288.5,415.6,289.8,417.8,292.8z"/>
		<path fill="#FFFFFF" d="M659.6,350.3c1.9,1.5,3.7,2.4,5.2,2.2c2.6-0.2,8.8-3.2,8-4.5c-4.5-7.5-9.9-12.7-17.9-16.3
			c-9.3-4.1-19.2-3.9-29.5-0.4c-13.8,4.9-27.1,21.7-33.8,34c-4.9,9.2-8,17.4-11.2,30.3c-3.2,13.1-4.5,22.8-1.5,36.8
			c1.9,8.8,5.8,17.2,12.1,21.1c6.9,4.1,17.2,3.7,26.3,2.2c4.9-0.7,7.7-1.7,12-3.9c2.2-1.1,4.5-2.4,6.7-4.3c1.1-0.9,5.2-4.9,7.5-7.3
			c-1.7,1.7,5.8-5.2,6-5.8c0.4-0.9-1.7-2.8-2.2-2.2c-0.6,0.6-4.9,4.3-7.3,6.7c-4.5,4.5-9.2,7.3-12.9,9.5c-2.2,1.3-3.6,2.1-6.9,3.4
			c-2.6,0.9-4.9,1.1-1.3,0c2.8-0.9,5-2.1,11-5.8c2.4-1.7,8.8-7.1,10.3-8.6c1.3-1.3,3.9-3.9,4.7-4.7c0.6-0.6,1.5-1.3,1.5-1.7
			c0-1.1-2.1-2.1-3.2-1.7c-1.9,0.6-4.5,2.4-7.1,5c-2.6,2.8-8,6.5-11.8,8.6c-5,2.8-9.3,3-14.6,3c-14.2,0-17.9-8.8-18.5-24.8
			c-0.2-5.8,1.9-17.8,3.6-23.4c7.1-22.2,15.9-43,35.1-51.2C640.7,342.1,651.2,341.9,659.6,350.3z M684.5,339.4
			c0.9-2.8-0.6-6.7-1.5-8.6c-3-5.8-7.1-11.2-13.5-15.3c-13.6-8.8-29.5-11-48.2-5.6c-15.1,4.5-29.3,15.3-40.9,29
			c-6.7,8.4-17.2,29.7-20.2,39.8c-1.9,6.5-3.5,12.1-4.7,18.5c-1.1,6.4-1.7,12.7-1.9,18.9c-0.2,7.8,0.9,15.3,2.4,23
			c1.3,6,3.7,14.4,7.7,19.8c3,4.3,5.4,6.2,2.6,2.6c-3.2-3.9-4.9-7.3-6-10.8c-2.1-6.4-3.6-12.3-5-22c-0.7-4.1-0.9-8-0.7-12.1
			c0.2-6,0.9-12.3,2.2-18.7c0.7-3.5,4.1-17.9,7.1-25.4c1.1-2.8,6-13.1,7.3-15.7c0.4-0.7,0.9-0.6,0.6,0.4c0,0.2-6.2,14.9-8,21.1
			c-1.1,3.9-4.1,14.8-5,19.6c-0.9,5.2-1.7,9.7-2.2,14.9c-0.6,5.4-0.6,9.3,0.4,15.7c0.4,2.6,0.9,5,1.9,9.9c0.9,5.2,3.9,13.6,5.4,16.4
			c2.1,3.7,5.8,8.8,9.3,12.3c3.4,3.7,5.4,6,8.6,7.8c3.6,2.1,8.4,4.1,14.8,4.9c2.8,0.4,6,0.6,9.2,0.6c0.6,0-1.3,1.3,0.4,1.1
			c6.9-0.7,8.6-0.9,10.3-1.1c9.3-0.9,15.5-3.4,24.1-7.1c4.3-1.9,6.9-3.7,9.2-5.2c2.2-1.5,5.8-5,7.1-6.5c1.5-1.7,3.2-3.6,4.3-5.4
			c0.6-0.9,1.9-2.8,2.4-3.6c0.2-0.4,0.9-1.3,2.1-3.6c1.1-2.1,1.7-3.9,1.7-4.5c0-0.4,0-0.6-0.2-0.4c-0.2,0.2-1.9,2.2-3.9,4.3
			c-2.2,2.2-3.4,3.4-4.3,4.3c-1.3,1.3-3.7,3.4-5,4.7c-5.4,4.7-7.5,6-9.5,7.5c-4.5,3-6,3.6-7.7,4.5c-3.4,2.1-7.3,3.7-9,4.1
			c-3.6,0.9-7.3,2.1-14.9,2.6c-9.7,0.7-12,0.6-15.9,0.4c-6-0.4-12.1-3.9-17-7.8c-3-2.4-5.8-6.2-9.3-10.8c-1.3-1.7-2.4-3.6-3.4-5.4
			c-2.4-4.9-3.4-8.4-4.9-14.4c-1.7-6.5-2.4-14.2-2.4-21.3c0-1.9,0.2-7.8,1.9-13.5c0-0.2,0.4-0.2,0.4,0c-0.6,3.2-1.5,9.5-1.5,13.5
			c0,4.7,1.3,14.8,2.8,20.9c2.2,9.7,4.3,13.6,8.4,19.2c2.8,3.7,5,7.5,8.8,10.8c2.4,2.2,6,3.7,8.2,4.9c5.6,2.8,12.9,2.8,19.2,2.4
			c8-0.4,11.4-1.1,14-1.7c3.4-0.7,6.9-1.5,11.6-3.7c3.4-1.7,6.4-3.6,8.4-4.9c2.8-1.9,5-3.7,8-6.4c1.3-1.1,3.2-2.8,7.1-6.7
			c1.7-1.7,3.4-3.4,5-4.9c2.1-1.7,4.3-5.2,5-6.9c0.6-1.3,0.9-3,0.2-5.2c-1.1-3.6-3.9-6.4-6.2-7.7c-1.7-0.9-1.7,0.6-2.1,1.7
			c-0.7,2.6-4.7,8.8-6.2,10.5c-7.8,9.2-19.2,18.3-29.1,22c-1.7,0.6-1.3,1.3,0,0.7c5.4-2.2,9.3-4.3,14.6-8
			c5.4-3.7,10.8-9.2,15.3-14.4c0.9-0.9,2.2-2.6,2.4-2.4c0.2,0-0.4,1.3-1.1,2.2c-1.3,1.7-6.4,7.1-9,9.7c-12.3,11.6-26.2,17-42.4,17.8
			c-7.8,0.4-17-3.6-19.2-5.4c-4.5-3.7-8.8-8.6-11.4-12.7c-2.6-4.3-3.7-9-4.7-13.3c-0.2-0.7-0.9-0.7-0.7,0c0.9,4.3,2.2,9.7,5,14
			c0.4,0.6-0.2,0.7-0.6,0.2c-2.6-3.9-5-12.9-5.6-17.4c-0.9-6.7-1.5-9.7-1.7-16.1c-0.4-10.1,3.7-22.4,6.9-33.6
			c2.6-8.2,13.5-29.1,18.5-35.3c15.3-19.2,34.2-32.5,57.5-27.8c9.5,1.9,18.7,7.1,25.8,17.4c1.7,2.4,3.5,5.8,4.7,7.1
			C679.8,345.4,683.9,341.1,684.5,339.4z M651.2,435.3c0,0.4,0.6,0.6,0.9,0c2.6-4.1,4.3-6.9,5-7.7
			C654.7,429.3,651.2,433.6,651.2,435.3z"/>
		<path fill="#FFFFFF" d="M731.1,428.1c-5.6,0.6-8.2,0.4-8.6-1.1c-0.2-0.7,0.7-1.7,1.3-2.2c0.4-0.4,0.8-1.5-0.9-0.6
			c-1.7,0.9-1.3-3.9-0.2-4.3c4.7-1.5,11.2-1.5,17.2-2.6c4.3-0.7,8.6-1.3,12.9-1.7c2.8-0.2,21.3-1.1,26.5-1.3c0.2,0-0.2,0.7-0.6,0.7
			c-3.7,0.4-7.5,0.4-11.4,0.6c-0.6,0-0.6,0.4-0.2,0.4c2.8-0.2,10.8-0.4,12.3-0.4c2.2,0.7,0.7,5,0.4,5c-2.4,0.4-6,0.6-9.2,0.7
			c-0.6,0-0.4,0.2,0.2,0.2c1.9-0.2,6.4-0.2,9-0.4c1.1,0-1.7,1.3-3,1.5C761.6,423.8,744,426.8,731.1,428.1z M717.5,433.1
			c0.2-0.4,0.4,0.7,0.2,1.1c-4.1,10.3-11.8,25-12.1,27.1c-0.4,1.7,3.9-0.4,6.9-3c3.7-3.4,8.2-13.1,10.6-18.3c8-1.1,34-1.1,44.1-2.2
			c0.7,0,0.7-0.9,0-0.9c-10.5,1.1-12.5,0.7-20.9,0.2c-0.6,0-0.6-0.7-0.2-0.7c9.2-0.2,12.3,0,21.7-0.7c1.5-0.2,1.3,2.4,2.4,2.6
			c1.3,0.2,2.6,0,3.9,0.2c0.4,3.2,0.6,6.5,0.9,9.7c0.4,3.4,5,10.1,5.2,8.2c0.4-4.1,0.2-13.5-0.4-19.6c0-0.9,0.4-1.3,0.6-0.4
			c0.9,8.4,1.9,15.5,1.7,19.8c-0.2,2.2,13.5,8.6,12.5,4.5c-5.2-23.2-25.6-129.5-27.3-154.9c-5,12.7-11.8,27.7-17.4,41.9
			c-5,12.3-9.9,24.7-15.5,36.6c-7.5,16.6-15.1,35.1-22.8,51.6c-2.8,6.2-12.1,23.5-13.6,26.5c-0.9,1.9,3.6,1.5,5.4-0.6
			C705.3,459.6,713.2,443.4,717.5,433.1z M778.6,412.2h-0.7c-0.7-5-3.4-23.4-4.9-31.9c-0.2-1.1,0.4-1.5,0.6,0
			C774.6,387,778,406.2,778.6,412.2z M689.1,462.4c1.9-1.1,7.5-13.1,9-16.6c3.6-8.2,7.1-16.3,10.7-24.3c0.2-0.2,0.4,0.9,0.7,0.2
			c4.5-9.3,36.1-85.9,53.6-128.2c1.9-4.5-11-2.4-12.5,0.9c-3.7,8.4-49.1,109.5-48.6,108.2c-0.2,0.6,0.8,0.4,0.9,0
			c4.1-10.1,18.1-39,23.4-51.6c0.2-0.6,1.7-0.6,1.1,0.6c-5,11.8-19.2,41.5-28.4,64.5c-0.6,1.3-2.8,0.7-3,1.1
			c-3.9,7.8-8,15.9-11.8,23.7c-1.7,3.4-1.1,11.2-0.4,10.3c11-14.4,24.9-45,29.9-56.6c0.2-0.6,1.1-0.7,0.7,0
			c-4.9,11.6-25,52.9-29.5,60C683.8,456.3,686.6,463.9,689.1,462.4z M753.1,432.2c-0.9,0-0.8-0.6,0-0.6c7.9-0.7,18-1.5,20.4-1.5
			c0.2,0,0.4,1.1,0,1.1C766.1,431.1,759.7,431.8,753.1,432.2z M770.7,404.9c-1.9-15.7-5-31.2-8.2-47.1c-0.2-0.6,0.9-2.1,1.1-1.3
			c3,15.5,6.7,33.1,8.6,48.6L770.7,404.9z M750.7,402.8c-3.2-0.2-6.3-0.2-9.3,0.4c6.9-14.6,11-22.4,20.4-44.5
			c3.9,20.2,5.6,30.1,8,46C762.7,402.8,757.1,403.2,750.7,402.8z M788.8,379.3c2.2,14.2,13.3,78.7,13.5,79.6
			c0.2,0.7,2.4-1.3,2.2-2.2c-1.9-9.7-3.9-25-5.6-34.8c-0.2-1.1,0.2-0.7,0.4,0c2.2,9.7,4.7,25,6.9,34.6c0.2,1.1,3.2-2.1,3.7-4.1
			c1.1-4.3-0.9-16.6-1.9-22.8c-3.2-21.5-9.7-66-13.5-87.6c-3-17-6-32.7-9-45.8c-1.9-8-11.4-3.2-11.4-1.5c0,2.8,6.4,33.6,8.4,48.6
			C784.4,355.2,787,367.2,788.8,379.3z"/>
		<path fill="#FFFFFF" d="M876.9,341.7l6-33.3c7.7-3.2,28.8-6.5,38.3-4.3c3,0.7,7.5,3.9,8.6,7.7c2.2,8-3.4,18.9-12.5,24.8
			c-4.3,2.8-12.9,4.5-14.8,4.9c-1.1,0.2-0.9-0.6-0.6-0.6c3.4-0.9,11.4-3,15.4-5.6c9-6,12.1-12.7,11.6-22.4c0-0.7-1.3-0.7-1.3,0
			c0.6,6-0.7,12.9-6.9,18.3c-7.1,6.2-17.2,8.6-29.1,9.9C885.5,341.7,877.7,341.9,876.9,341.7z M860.3,358.7c4.1,0,13.3-0.2,17.6-0.7
			c22.8-3,23-7.1,25.2-5c1.1,1.1,2.2,0.6,3.7,0.2c9.3-2.8,19.8-8.8,25-15.3c3.2-3.9,6-7.5,7.8-11.8c4.1-9.7,3.9-24.1-5.2-30.5
			c-7.7-5.2-21.5-4.3-33.1-3.4c-8.6,0.7-16.3,2.1-20.7,3c-0.7,0.2,0.7,0.9,0.2,0.9c-2.4,0-2.4-0.9-4.7-0.6c-2.1,0.4-4.3,0.9-6.4,1.3
			c-1.9,11.2-3.6,24.1-4.7,31.2C863.5,338.7,860.9,354.2,860.3,358.7z M841.2,455.1c-0.7,1.5,5.4-0.4,6.2-2.1
			c0.9-2.1,5.6-21.1,6.9-31.6c0.2-0.9,0.6-0.6,0.6,0c-1.3,10.7-5.8,31.6-5.8,32.5c0,0.7,3.4-1.5,4.9-3.4c2.4-3,5.6-20.9,16.4-72.5
			c22.6-0.7,54.4-6.2,70.6-17.7c12.9-9.2,20.6-21.5,23.7-36.4c2.2-10.3,2.6-20.7-1.5-31c-4.7-11.4-16.8-20-31.4-21.5
			c-19.1-1.9-55.3,1.3-63.7,8.6c-4.1,3.6-4.1,9.7-2.4,9.3c5-1.1,25.2-5,30.6-5.6c27.1-2.8,46.3-1.9,54,16.6c3,7.5,2.2,16.1-0.4,24.1
			c-5.2,15.9-21.3,31.4-40,36.4c-24.5,6.5-36.1,4.5-45.6,4.5c-0.9,0-0.9-0.7-0.2-0.7c6.4,0,9.5-0.4,15.3-0.9c0.6,0,0.9-0.7,0.4-0.7
			c-3.6,0.4-11,0.6-15.5,0.4c-2.4-0.2-3.7,0-5,0.2c-0.9,5.4-1.9,10.8-2.8,16.3c-3.4,15.3-6.2,32.3-9.2,47.8
			C846.3,433.5,842.6,452.3,841.2,455.1z M902.3,367.1c0.2,0,0.2,0.6,0,0.6c-9.5,2.1-20.9,3.2-30.3,3.4l0.4-1.5
			C881.8,369.9,893,369,902.3,367.1z M831.5,453.4c2.4-4.1,3.2-7.8,4.7-14c0-0.4-0.6-0.4-0.6,0c-0.7,3-1.5,5.4-2.2,7.7
			c-0.2,0.4-0.7,0.2-0.6-0.2c0.7-2.2,1.5-4.9,2.2-7.7c1.9-6.5,3.9-16.1,5.6-22.8c0.2-0.4,0.6-0.6,0.7-1.1
			c4.7-18.9,8.2-39.2,12.3-60.9c0-0.4-0.9-0.2-0.9,0.2c-4.1,20.9-8,41.9-12.3,60.5c-0.2,0.4-0.6,0.2-0.6,0
			c5.6-32.1,9.2-49.3,11.4-63.2c3.2-20.6,8-47.1,8.8-55.7c0.2-1.9-5.4,0-8.2,3.2c-3,3.6-3.7,10.5-4.5,15.1
			c-5.6,33.1-12.1,65-19.1,97.2c0,0.2,0.7,0.2,0.9-0.4c5-20.6,8.4-36.8,12.5-57.5c0.2-0.6,0.7-0.4,0.7,0.2c-3.4,22-9.9,54-12.9,61.5
			c-0.4,0.9-2.4,0.4-2.6,0.9c-0.7,2.4-4.3,13.8-5.4,21.5c-0.9,6.4,2.1,10.7,2.4,9.7c7.5-19.4,13.3-51.6,17.4-69.3
			c0.2-0.7,1.3-0.4,1.1,0.2c-1.7,9.2-14,62-16.6,69.5C825.4,449.5,830.8,454.8,831.5,453.4z"/>
		<path fill="#FFFFFF" d="M980.5,406.3c0.9-0.2,2.2-1.3,3.2-5c2.4-9.2,3.7-16.8,5.8-26c5.2-23,13.1-74.9,16.1-90.6
			c0.4-2.2,0.9-4.3,0.4-4.3c-1.5,0-4.5-0.2-8.4,1.7c-3.9,1.9-7.1,6.7-8.2,12.5c-5.6,27.8-9.5,52.5-13.6,78.3c0,0.4,1.1,0.6,1.3-0.2
			c4.1-17,5.2-34,8.2-48.8c0-0.4,1.1-0.4,1.1,0c-0.7,11.8-7.1,50.1-8.4,51.2c-0.7,0.7-2.6-1.1-3,0.2c-1.5,5-2.8,11.8-4.1,17.2
			c-0.7,3,0.2,5.4,1.3,7.8c1.3,2.8,10.1-21.5,13.6-41.3c0.4-2.4,1.1-2.1,0.9-0.6c-3.2,17.7-9.2,36.6-12,41.1
			C973.1,402,976.3,406.8,980.5,406.3z M1064.8,416.2c-9.9-2.4-23.4-2.6-34.6-2.6c-0.6,0-0.6-0.9,0-1.1c6.7-1.3,35.9,0.7,36.2,0
			c1.1-2.6,0.6-8.4-0.2-8.8c-0.9-0.4-5.8,0.4-24.3,1.5c-14,0.9-49.1,3.6-50.3,5.6c0,0-0.6,13.1,8.6,14.8c0.7,0.2,4.3,0.9,12-0.4
			c10.3-1.9,23-4.7,35.1-4.7c0.4,0,0.4-1.1,0-1.1c-12.1-0.2-18.9,0-28.2,1.3c-0.6,0-0.9-0.7,0.4-0.9c6.5-1.3,20.9-1.9,30.6-1.1
			c0.4,0-0.7,1.7,0,1.7c4.1,0,8,0,11.8,0C1063.3,420.3,1065.6,416.4,1064.8,416.2z M1011.8,400.3c8.4-0.7,30.3-2.4,40.9-2.4
			c5,0,11.8-0.4,12-0.9c0.2-0.7-0.2-1.7-0.7-1.7c-3.9-0.2-9.9,0.4-14.9-0.4c-0.8-0.2-0.6-0.9,0.2-0.7c5,0.7,11.8-0.2,14.4-1.1
			c0.6-0.2-2.1-5.6-5.4-6.5c-3.6-0.9-20.2-0.6-27.7,0c-8.2,0.6-15.9,1.3-22,2.1c1.9-10.6,3.6-20.4,6.4-31c8.2-1.3,13.8-2.1,21.5-3
			c0.6,0,0.6-0.9,0-0.9c0.4,0-14.6,0-15.1,0c-0.6,0-0.6-0.9,0-0.9c5.6,0,17.8-1.5,17.9-1.1c0.6,0.9-0.6,2.4,0.2,2.4
			c0.6,0,4.1-0.4,7.3-0.9c1.1-0.2,2.4-1.9,1.9-2.4c-0.9-0.9-5.4-3.5-17.2-3.2c-0.6,0-0.6-0.7,0-0.7c14.2-0.2,15.7,1.9,17.8,2.2
			c0.9,0.2,1.9-3.7,1.5-8c-0.4-3.6-1.3-3-7.5-2.2c-2.6,0.4-33.8,3.6-38.5,3.6c-0.4,4.5-6.5,32.1-7.8,40c-1.5,8.2-3,14.6-3.7,18.9
			c-0.2,1.5,0,1.5,0.4,1.5C1000.2,401.6,1003.9,401,1011.8,400.3z M1089.1,268.2c-1.7,0-3.9,1.1-9.3,2.1
			c-24.7,4.3-32.1,4.1-36.6,4.9c-0.9,0.2-0.4,1.1,0.6,1.1c4.1-0.4,29.9-3.4,42.6-5.4c0.4,0,0.4,1.3,0,1.3c-16.6,2.1-49,5.4-66.3,7.5
			c-1.7,0.2-3,0.2-4.7,0.4c-0.9,0.2-0.9,3-1.3,5.4c-1.9,14.4-6.5,40.7-7.8,47.5c6.2,0,10.8-0.2,19.4-0.9c5-0.4,17.6-1.1,22.8-2.4
			c0.7-0.2,0-3.2-0.6-3.2c-2.4,0-14.2-0.7-17-1.9c-1.3-0.6-0.9-0.7-0.2-0.6c4.7,1.1,8.8,1.1,16.8,1.1c0.6,0-1.7-4.5-3.4-5
			c-1.9-0.6-6.9,0-12.1,0.4c-3.4,0.2-9.2,0.7-9.7,0.6c1.1-6.4,2.6-15.9,4.1-23c0.2-1.7,1.1-3.4,0.9-4.7c14.8-2.4,33.4-4.3,40.2-5
			c1.1-0.2,0.6-1.1,0.2-1.1c-6.9,0.4-29.9,2.4-35.5,3.6c-0.7,0.2-1.1-0.7-0.4-0.9c13.6-2.6,37.4-5.2,37.9-4.5
			c0.7,0.9-0.2,2.8,0.4,2.8c5.2-0.7,8.6-0.7,13.8-1.7c2.8-0.6,5-4.3,4.1-4.5c-13.6-3.2-28.8-1.5-43.2,0.4c-0.6,0-0.7-0.4-0.2-0.6
			c6-1.1,14-1.9,20-2.2c7.8-0.6,15.1-0.7,23.2,0.9c1.3,0.2,1.9-1.1,2.2-2.8C1091,273.6,1090.4,268.2,1089.1,268.2z M1015.3,270.4
			c0,0.6,22-2.6,29.5-3.4c9.7-0.9,20.2-2.1,29.1-3c0.2,0,14.2-0.6,14.4-1.1c0.2-0.6-0.6-2.8-0.9-2.8c-5.4,1.1-13.6,1.5-19.1,1.3
			c-0.9,0-0.9-0.6,0-0.6c5.4,0.2,12.3-0.6,17.6-1.7c2.8-0.7-0.7-5.2-7.5-5c-7.3,0.2-20.7,1.9-29.7,3.2
			C1031.9,259.8,1015.1,260,1015.3,270.4z"/>
		<path fill="#FFFFFF" d="M1205.3,249.8c-7.5-8.8-31.6-12.3-55.9-7.3c-17.4,3.6-37.2,12.5-45,31c-6.7,15.9-4.5,31.2,3.9,43.5
			c6.4,9.3,16.8,14.6,25.6,17.4c11,3.5,23.2,4.1,34.6,7.8c5.8,1.9,8.6,6.5,6,13.5c-1.3,3.5-5.4,7.3-8,9.5c-0.4,0.4,0,0.7,0.4,0.6
			c3.6-2.8,6.7-6,8.4-9c3.2-5.4,3-10.6-2.4-14.6c-5.8-4.1-12-4.1-18.5-5.4c-16.6-3.4-32.5-7.3-40-16.8c-0.2-0.2,0.4-0.7,0.6-0.6
			c9.9,9.7,23.7,13.3,39.8,16.3c6.9,1.3,13.5,1.9,19.2,6.4c4.9,3.7,5.6,9.3,1.9,15.7c-1.9,3-6,7.1-9.9,9.5c-8.6,5-29.5,7.7-40,3.7
			c-2.6-0.9-6.2,1.1-5.6,1.3c10.6,4.7,19.1,4.5,32.1,2.4c12.9-2.1,21.7-8.4,25.2-14.6c2.4-4.1,3.4-8.4,2.8-12.7
			c-0.9-6.2-3.9-8.4-9.2-9.9c-0.6-0.2,0-0.6,0.6-0.4c5.4,1.7,7.7,3.6,9,9.2c0.9,4.1,0.4,9.5-2.2,13.8c-4.1,6.9-12.7,13.1-25.6,15.3
			c-15.1,2.6-21.7,2.6-35.1-1.9c-1.7-0.6-10.1,4.1-8.6,4.9c19.8,9.2,46.5,6.7,63.2-3.2c9.5-5.6,16.3-13.1,16.3-29.5
			c0-7.5-4.3-14.2-16.8-18.5c-20-6.9-33.4-5.8-43.7-13.5c-6.9-5.2-12.3-12.7-13.1-21.9c-0.9-12.7,6.4-22.6,16.4-29
			c20-12.3,53.8-16.6,74.7-3.2C1208.9,261.5,1208.5,253.5,1205.3,249.8z M1209.4,336.3c-7.1-23-19.4-27.7-51.2-34.9
			c-1.7-0.4-8.8-1.9-13.1-3.2c-5.8-1.7-7.5-9.5-5.8-12.3c4.9-8.4,20.2-12.9,34.2-13.3c8-0.2,15.5,2.1,17.9,2.6
			c6.7,1.5,17-6.4,12.7-9c-19.8-11.6-50.8-9-69.1,3.6c-8.4,5.8-14.6,15.7-10.1,27.3c3.9,9.9,14.4,14.2,34.4,18.1
			c23.4,4.7,35.5,10.8,37.4,28c1.9,17.2-8.8,31.6-19.1,37.6c-23.4,13.8-48.6,12.9-73.2,4.7c-1.3-0.4-0.6,6.2,0.4,6.7
			c6.7,3.9,34.2,10.6,54.6,5.4c24.3-6.4,32.7-14.6,40.9-27.5c4.5-7.1,5.8-16.1,7.3-24.5c0-0.2,0.7-0.2,0.7,0
			c-1.3,8.6-3.4,18.3-7.5,25c-7.5,12.1-15.7,21.1-41.5,28c-18.9,5-45.4-0.9-52.9-4.3c-1.5-0.7,0.2,3,1.9,3.7
			c32.5,13.5,71,3.6,87.3-14C1207,371.8,1213.5,349.7,1209.4,336.3z"/>
	</g>
</g>
</svg>
